<?xml version="1.0" encoding="UTF-8" standalone="no"?>
<!-- Created with Inkscape (http://www.inkscape.org/) -->

<svg
   xmlns:dc="http://purl.org/dc/elements/1.1/"
   xmlns:cc="http://creativecommons.org/ns#"
   xmlns:rdf="http://www.w3.org/1999/02/22-rdf-syntax-ns#"
   xmlns:svg="http://www.w3.org/2000/svg"
   xmlns="http://www.w3.org/2000/svg"
   xmlns:xlink="http://www.w3.org/1999/xlink"
   xmlns:sodipodi="http://sodipodi.sourceforge.net/DTD/sodipodi-0.dtd"
   xmlns:inkscape="http://www.inkscape.org/namespaces/inkscape"
   width="512"
   height="512"
   id="svg3003"
   version="1.1"
   inkscape:version="0.48.5 r10040"
   sodipodi:docname="app-eps-512.svg"
   inkscape:export-filename="C:\wamp\www\TESTY\git-hub\system-icons\file-types\app-eps\app-eps-512.png"
   inkscape:export-xdpi="90"
   inkscape:export-ydpi="90">
  <defs
     id="defs3005">
    <clipPath
       id="clipPath3008"
       clipPathUnits="userSpaceOnUse">
      <path
         id="path3010"
         d="M 0,4105.95 0,0 l 5477.71,0 0,4105.95 -5477.71,0 z" />
    </clipPath>
    <linearGradient
       id="linearGradient3688"
       inkscape:collect="always">
      <stop
         id="stop3690"
         offset="0"
         style="stop-color:black;stop-opacity:1;" />
      <stop
         id="stop3692"
         offset="1"
         style="stop-color:black;stop-opacity:0;" />
    </linearGradient>
    <linearGradient
       id="linearGradient3702">
      <stop
         id="stop3704"
         offset="0"
         style="stop-color:black;stop-opacity:0;" />
      <stop
         style="stop-color:black;stop-opacity:1;"
         offset="0.5"
         id="stop3710" />
      <stop
         id="stop3706"
         offset="1"
         style="stop-color:black;stop-opacity:0;" />
    </linearGradient>
    <linearGradient
       id="linearGradient4928">
      <stop
         id="stop4930"
         offset="0"
         style="stop-color:#fce94f;stop-opacity:1;" />
      <stop
         id="stop4932"
         offset="1"
         style="stop-color:#fce94f;stop-opacity:0;" />
    </linearGradient>
    <radialGradient
       r="2.5"
       fy="43.5"
       fx="4.9929786"
       cy="43.5"
       cx="4.9929786"
       gradientTransform="matrix(2.003784,0,0,1.4,27.98813,-17.4)"
       gradientUnits="userSpaceOnUse"
       id="radialGradient6330"
       xlink:href="#linearGradient3688"
       inkscape:collect="always" />
    <radialGradient
       r="2.5"
       fy="43.5"
       fx="4.9929786"
       cy="43.5"
       cx="4.9929786"
       gradientTransform="matrix(2.003784,0,0,1.4,-20.01187,-104.4)"
       gradientUnits="userSpaceOnUse"
       id="radialGradient6332"
       xlink:href="#linearGradient3688"
       inkscape:collect="always" />
    <linearGradient
       y2="39.999443"
       x2="25.058096"
       y1="47.027729"
       x1="25.058096"
       gradientUnits="userSpaceOnUse"
       id="linearGradient6334"
       xlink:href="#linearGradient3702"
       inkscape:collect="always" />
    <radialGradient
       r="2.5"
       fy="43.5"
       fx="4.9929786"
       cy="43.5"
       cx="4.9929786"
       gradientTransform="matrix(2.003784,0,0,1.4,27.98813,-17.4)"
       gradientUnits="userSpaceOnUse"
       id="radialGradient6336"
       xlink:href="#linearGradient3688"
       inkscape:collect="always" />
    <radialGradient
       r="2.5"
       fy="43.5"
       fx="4.9929786"
       cy="43.5"
       cx="4.9929786"
       gradientTransform="matrix(2.003784,0,0,1.4,-20.01187,-104.4)"
       gradientUnits="userSpaceOnUse"
       id="radialGradient6338"
       xlink:href="#linearGradient3688"
       inkscape:collect="always" />
    <linearGradient
       y2="39.999443"
       x2="25.058096"
       y1="47.027729"
       x1="25.058096"
       gradientUnits="userSpaceOnUse"
       id="linearGradient6340"
       xlink:href="#linearGradient3702"
       inkscape:collect="always" />
    <radialGradient
       r="18.000002"
       fy="35.357208"
       fx="-30.249996"
       cy="35.357208"
       cx="-30.249996"
       gradientTransform="matrix(3.9957492,0,0,1.9350367,0.62141,-31.167422)"
       gradientUnits="userSpaceOnUse"
       id="radialGradient6342"
       xlink:href="#linearGradient3683"
       inkscape:collect="always" />
    <linearGradient
       id="linearGradient3683">
      <stop
         style="stop-color:#f6f6f5;stop-opacity:1;"
         offset="0"
         id="stop3685" />
      <stop
         style="stop-color:#d3d7cf;stop-opacity:1"
         offset="1"
         id="stop3689" />
    </linearGradient>
    <linearGradient
       y2="-22.502075"
       x2="-62.75"
       y1="49.020683"
       x1="-47.5"
       gradientTransform="translate(-90,0)"
       gradientUnits="userSpaceOnUse"
       id="linearGradient6344"
       xlink:href="#linearGradient3613"
       inkscape:collect="always" />
    <linearGradient
       id="linearGradient3613"
       inkscape:collect="always">
      <stop
         id="stop3615"
         offset="0"
         style="stop-color:#888a85;stop-opacity:1" />
      <stop
         id="stop3617"
         offset="1"
         style="stop-color:#babdb6;stop-opacity:1" />
    </linearGradient>
    <radialGradient
       r="17"
       fy="5.2999997"
       fx="4"
       cy="5.2999997"
       cx="4"
       gradientTransform="matrix(1.8860258,0,0,1.1764706,-3.5441033,-4.2352941)"
       gradientUnits="userSpaceOnUse"
       id="radialGradient6346"
       xlink:href="#linearGradient3741"
       inkscape:collect="always" />
    <linearGradient
       id="linearGradient3741"
       inkscape:collect="always">
      <stop
         id="stop3743"
         offset="0"
         style="stop-color:#ffffff;stop-opacity:1;" />
      <stop
         id="stop3745"
         offset="1"
         style="stop-color:#ffffff;stop-opacity:0;" />
    </linearGradient>
    <radialGradient
       r="7.0421038"
       fy="10.108011"
       fx="-26.305403"
       cy="10.108011"
       cx="-26.305403"
       gradientTransform="matrix(0.4073362,-0.2798276,0.7510293,1.0932492,-115.18484,-8.4378699)"
       gradientUnits="userSpaceOnUse"
       id="radialGradient6348"
       xlink:href="#linearGradient3671"
       inkscape:collect="always" />
    <linearGradient
       id="linearGradient3671">
      <stop
         id="stop3673"
         offset="0"
         style="stop-color:#ffffff;stop-opacity:1;" />
      <stop
         style="stop-color:#ffffff;stop-opacity:1;"
         offset="0.47533694"
         id="stop3691" />
      <stop
         id="stop3675"
         offset="1"
         style="stop-color:#ffffff;stop-opacity:0;" />
    </linearGradient>
    <linearGradient
       y2="14.069944"
       x2="-28.789402"
       y1="11.052948"
       x1="-18.588562"
       gradientTransform="matrix(0.9223058,0,0,0.9185751,-92.447368,1.3256997)"
       gradientUnits="userSpaceOnUse"
       id="linearGradient6350"
       xlink:href="#linearGradient3520"
       inkscape:collect="always" />
    <linearGradient
       id="linearGradient3520"
       inkscape:collect="always">
      <stop
         id="stop3522"
         offset="0"
         style="stop-color:#000000;stop-opacity:0.41295547" />
      <stop
         id="stop3524"
         offset="1"
         style="stop-color:#000000;stop-opacity:0;" />
    </linearGradient>
    <linearGradient
       y2="9.687501"
       x2="-24.75"
       y1="11.566258"
       x1="-26.753757"
       gradientUnits="userSpaceOnUse"
       id="linearGradient6352"
       xlink:href="#linearGradient3656"
       inkscape:collect="always" />
    <linearGradient
       id="linearGradient3656"
       inkscape:collect="always">
      <stop
         id="stop3658"
         offset="0"
         style="stop-color:#ffffff;stop-opacity:1;" />
      <stop
         id="stop3660"
         offset="1"
         style="stop-color:#ffffff;stop-opacity:0;" />
    </linearGradient>
  </defs>
  <sodipodi:namedview
     id="base"
     pagecolor="#ffffff"
     bordercolor="#666666"
     borderopacity="1.0"
     inkscape:pageopacity="0.0"
     inkscape:pageshadow="2"
     inkscape:zoom="1.375"
     inkscape:cx="184.08524"
     inkscape:cy="284.69989"
     inkscape:current-layer="layer1"
     showgrid="true"
     inkscape:document-units="px"
     inkscape:grid-bbox="true"
     showguides="true"
     inkscape:guide-bbox="true"
     inkscape:window-width="1920"
     inkscape:window-height="1028"
     inkscape:window-x="2872"
     inkscape:window-y="532"
     inkscape:window-maximized="1">
    <inkscape:grid
       type="xygrid"
       id="grid3011"
       empspacing="4"
       visible="true"
       enabled="true"
       snapvisiblegridlinesonly="true" />
    <sodipodi:guide
       orientation="1,0"
       position="16,376"
       id="guide3013" />
    <sodipodi:guide
       orientation="0,1"
       position="184,496"
       id="guide3015" />
    <sodipodi:guide
       orientation="0,1"
       position="336,16"
       id="guide3017" />
    <sodipodi:guide
       orientation="1,0"
       position="280,312"
       id="guide3104" />
    <sodipodi:guide
       orientation="0,1"
       position="488,144"
       id="guide3106" />
    <sodipodi:guide
       orientation="1,0"
       position="256,320"
       id="guide5480" />
  </sodipodi:namedview>
  <metadata
     id="metadata3008">
    <rdf:RDF>
      <cc:Work
         rdf:about="">
        <dc:format>image/svg+xml</dc:format>
        <dc:type
           rdf:resource="http://purl.org/dc/dcmitype/StillImage" />
        <dc:title></dc:title>
      </cc:Work>
    </rdf:RDF>
  </metadata>
  <g
     id="layer1"
     inkscape:label="Layer 1"
     inkscape:groupmode="layer"
     transform="translate(0,448)">
    <rect
       style="fill:#808080;fill-opacity:1;fill-rule:nonzero;stroke:none"
       id="rect3021"
       width="384"
       height="480"
       x="64"
       y="-432" />
    <rect
       y="-429.94785"
       x="66.090912"
       height="476.12967"
       width="379.93225"
       id="rect3791"
       style="fill:#fefefe;fill-opacity:1;fill-rule:nonzero;stroke:none" />
    <g
       id="g3392"
       transform="matrix(0.57211241,0,0,0.57211241,288.95059,-94.983747)">
      <g
         transform="translate(0,208)"
         inkscape:label="Shadow"
         id="layer6">
        <path
           style="fill:#f91d0a"
           inkscape:connector-curvature="0"
           id="path4463"
           d="m 93.300341,-60.760124 c 6.498788,-12.737918 13.884559,-27.089494 19.796079,-41.498006 l 0,0 2.33743,-5.68788 c -7.72152,-29.38279 -12.35164,-52.96847 -8.21526,-68.21924 l 0,0 c 1.11354,-3.97606 5.71868,-6.38842 10.64214,-6.38842 l 0,0 3.0002,0.0439 h 0.55065 c 6.74044,-0.10344 9.91431,8.47084 10.27445,11.80446 l 0,0 c 0.59477,5.55196 -1.9738,14.94813 -1.9738,14.94813 l 0,0 c 0,-3.79424 0.14869,-9.92534 -2.24622,-15.21591 l 0,0 c -2.7876,-6.12153 -5.45031,-9.7787 -7.8377,-10.35841 l 0,0 c -1.20529,0.80505 -2.37691,2.47219 -2.7783,5.67917 l 0,0 c -0.83123,4.49653 -1.08041,10.17222 -1.08041,13.09807 l 0,0 c 0,10.33718 2.03537,23.98126 6.03525,38.04647 l 0,0 c 0.75451,-2.17769 1.41848,-4.26998 1.94649,-6.23042 l 0,0 c 0.82019,-3.08965 6.03467,-23.57059 6.03467,-23.57059 l 0,0 c 0,0 -1.31393,27.26318 -3.14948,35.51214 l 0,0 c -0.39327,1.74319 -0.82717,3.46721 -1.27908,5.2319 l 0,0 c 6.59579,18.429293 17.22398,34.87782 29.90266,46.715975 l 0,0 c 4.99898,4.671938 11.31246,8.438889 17.28789,11.872419 l 0,0 c 13.04927,-1.864592 25.06399,-2.745203 35.08751,-2.634244 l 0,0 c 13.29846,0.175425 23.06,2.142249 27.01282,6.035825 l 0,0 c 1.93547,1.892479 2.7208,4.178205 2.96477,6.740427 l 0,0 c 0.0577,0.996778 -0.42756,3.338846 -0.56983,3.926686 l 0,0 c 0.14227,-0.711532 0.14227,-4.210738 -10.53294,-7.618121 l 0,0 c -8.40753,-2.687713 -24.14274,-2.604071 -43.02396,-0.594223 l 0,0 c 21.83902,10.68455 43.11516,15.993122 49.85791,12.810533 l 0,0 c 1.64851,-0.803347 3.64787,-3.542733 3.64787,-3.542733 l 0,0 c 0,0 -1.18847,5.399777 -2.04176,6.749722 l 0,0 c -1.08914,1.466697 -3.22558,3.055378 -5.25108,3.590949 l 0,0 c -10.64853,2.841041 -38.36711,-3.733264 -62.53134,-17.540567 l 0,0 c -26.99773,3.976064 -56.64713,11.321175 -80.413463,19.116468 l 0,0 C 63.399423,12.994271 45.84085,31.792422 31.556657,24.641311 l 0,0 -5.251662,-2.640639 C 24.170302,20.779651 23.844429,17.807329 24.33817,15.386845 l 0,0 c 1.665361,-8.147882 11.8823,-20.419944 32.405053,-32.674576 l 0,0 c 2.209048,-1.336587 12.049006,-6.539448 12.049006,-6.539448 l 0,0 c 0,0 -7.2847,7.05061 -8.991296,8.43425 l 0,0 C 43.420357,-1.969578 31.330692,14.918081 31.632165,21.465077 l 0,0 0.05931,0.571045 c 13.91479,-1.98314 34.781998,-30.305249 61.608947,-82.796246 m 8.501628,4.353053 c -4.480843,8.438897 -8.860604,16.263222 -12.90405,23.447436 l 0,0 c 22.36702,-9.371194 46.44064,-15.368099 69.35658,-19.628215 l 0,0 c -3.07978,-2.126568 -6.06952,-4.378599 -8.88268,-6.75901 l 0,0 c -12.61942,-10.683964 -22.24039,-24.013208 -29.21433,-38.039504 l 0,0 c -4.42275,11.91541 -9.68195,24.577242 -18.35552,40.979293" />
      </g>
      <g
         transform="translate(0,208)"
         id="layer1-7"
         inkscape:label="Base"
         style="display:inline" />
      <g
         transform="translate(0,208)"
         style="display:inline"
         inkscape:label="Text"
         id="layer5" />
    </g>
    <text
       xml:space="preserve"
       style="font-size:24px;font-style:normal;font-variant:normal;font-weight:normal;font-stretch:normal;line-height:125%;letter-spacing:0px;word-spacing:0px;fill:#000000;fill-opacity:1;stroke:none;font-family:Calibri;-inkscape-font-specification:Calibri"
       x="80"
       y="-384"
       id="text3398"
       sodipodi:linespacing="125%"><tspan
         sodipodi:role="line"
         id="tspan3400"
         x="80"
         y="-384">Encapsulated PostScript</tspan></text>
    <g
       id="g5500"
       transform="translate(0,15.272729)">
      <path
         inkscape:connector-curvature="0"
         id="path4707"
         d="m 202.23401,-308.13059 c -32.05513,0 -61.08281,12.86824 -82.23401,33.67563 l 164.46804,166.32437 c 21.53712,-21.18707 34.90696,-50.60662 34.90696,-83.16218 0,-64.52775 -52.4458,-116.83782 -117.14099,-116.83782 z"
         style="fill:#696969;fill-opacity:1;fill-rule:nonzero;stroke:none" />
      <path
         style="fill:#d3d3d3;fill-opacity:1;fill-rule:nonzero;stroke:none"
         d="m 202.58691,-306.10865 c -31.407,0 -59.84775,12.60806 -80.57129,32.99473 l 161.14259,162.96139 c 21.10166,-20.75868 34.20117,-49.58338 34.20117,-81.48069 0,-63.22304 -51.38539,-114.47543 -114.77247,-114.47543 z"
         id="path5492"
         inkscape:connector-curvature="0" />
      <path
         inkscape:connector-curvature="0"
         id="rect5483"
         d="m 120,-279.71536 -5.35768,5.35768 L 120,-269 125.35768,-274.35768 120,-279.71536 z m 0,1.33942 4.01826,4.01826 -4.01826,4.01826 -4.01826,-4.01826 4.01826,-4.01826 z"
         style="fill:#000000;fill-opacity:1;fill-rule:nonzero;stroke:none" />
      <path
         style="fill:#000000;fill-opacity:1;fill-rule:nonzero;stroke:none"
         d="m 284.43634,-113.49403 -5.35768,5.35768 5.35768,5.35768 5.35768,-5.35768 -5.35768,-5.35768 z m 0,1.33942 4.01826,4.01826 -4.01826,4.01826 -4.01826,-4.01826 4.01826,-4.01826 z"
         id="path5488"
         inkscape:connector-curvature="0" />
      <rect
         transform="matrix(0.70710678,0.70710678,-0.70710678,0.70710678,0,0)"
         y="-395.23212"
         x="-101.89235"
         height="2"
         width="232"
         id="rect5490"
         style="fill:#696969;fill-opacity:1;fill-rule:nonzero;stroke:none" />
      <path
         inkscape:connector-curvature="0"
         id="path5494"
         d="m 370.09686,-192.81222 -5.35768,5.35768 5.35768,5.35768 5.35768,-5.35768 -5.35768,-5.35768 z m 0,1.33942 4.01826,4.01826 -4.01826,4.01826 -4.01826,-4.01826 4.01826,-4.01826 z"
         style="fill:#000000;fill-opacity:1;fill-rule:nonzero;stroke:none" />
      <path
         style="fill:#000000;fill-opacity:1;fill-rule:nonzero;stroke:none"
         d="m 285.54547,-277.36361 -5.35768,5.35768 5.35768,5.35768 5.35768,-5.35768 -5.35768,-5.35768 z m 0,1.33942 4.01826,4.01826 -4.01826,4.01826 -4.01826,-4.01826 4.01826,-4.01826 z"
         id="path5496"
         inkscape:connector-curvature="0" />
      <path
         inkscape:connector-curvature="0"
         id="path5498"
         d="m 206.85318,-356.22912 -5.35768,5.35768 5.35768,5.35768 5.35768,-5.35768 -5.35768,-5.35768 z m 0,1.33942 4.01826,4.01826 -4.01826,4.01826 -4.01826,-4.01826 4.01826,-4.01826 z"
         style="fill:#000000;fill-opacity:1;fill-rule:nonzero;stroke:none" />
    </g>
  </g>
</svg>
