<?xml version="1.0" encoding="UTF-8" standalone="no"?>
<!-- Created with Inkscape (http://www.inkscape.org/) -->

<svg
   xmlns:dc="http://purl.org/dc/elements/1.1/"
   xmlns:cc="http://creativecommons.org/ns#"
   xmlns:rdf="http://www.w3.org/1999/02/22-rdf-syntax-ns#"
   xmlns:svg="http://www.w3.org/2000/svg"
   xmlns="http://www.w3.org/2000/svg"
   xmlns:xlink="http://www.w3.org/1999/xlink"
   xmlns:sodipodi="http://sodipodi.sourceforge.net/DTD/sodipodi-0.dtd"
   xmlns:inkscape="http://www.inkscape.org/namespaces/inkscape"
   width="64"
   height="64"
   id="svg3003"
   version="1.1"
   inkscape:version="0.48.5 r10040"
   sodipodi:docname="app-eps-64.svg"
   inkscape:export-filename="C:\wamp\www\TESTY\git-hub\system-icons\file-types\app-eps\app-eps-64.png"
   inkscape:export-xdpi="90"
   inkscape:export-ydpi="90">
  <defs
     id="defs3005">
    <clipPath
       id="clipPath3008"
       clipPathUnits="userSpaceOnUse">
      <path
         id="path3010"
         d="M 0,4105.95 0,0 l 5477.71,0 0,4105.95 -5477.71,0 z"
         inkscape:connector-curvature="0" />
    </clipPath>
    <linearGradient
       inkscape:collect="always"
       id="linearGradient3656">
      <stop
         style="stop-color:#ffffff;stop-opacity:1;"
         offset="0"
         id="stop3658" />
      <stop
         style="stop-color:#ffffff;stop-opacity:0;"
         offset="1"
         id="stop3660" />
    </linearGradient>
    <linearGradient
       inkscape:collect="always"
       xlink:href="#linearGradient3656"
       id="linearGradient6352"
       gradientUnits="userSpaceOnUse"
       x1="-26.753757"
       y1="11.566258"
       x2="-24.75"
       y2="9.687501" />
    <linearGradient
       inkscape:collect="always"
       id="linearGradient3520">
      <stop
         style="stop-color:#000000;stop-opacity:0.41295547"
         offset="0"
         id="stop3522" />
      <stop
         style="stop-color:#000000;stop-opacity:0;"
         offset="1"
         id="stop3524" />
    </linearGradient>
    <linearGradient
       inkscape:collect="always"
       xlink:href="#linearGradient3520"
       id="linearGradient6350"
       gradientUnits="userSpaceOnUse"
       gradientTransform="matrix(0.9223058,0,0,0.9185751,-92.447368,1.3256997)"
       x1="-18.588562"
       y1="11.052948"
       x2="-28.789402"
       y2="14.069944" />
    <linearGradient
       id="linearGradient3671">
      <stop
         style="stop-color:#ffffff;stop-opacity:1;"
         offset="0"
         id="stop3673" />
      <stop
         id="stop3691"
         offset="0.47533694"
         style="stop-color:#ffffff;stop-opacity:1;" />
      <stop
         style="stop-color:#ffffff;stop-opacity:0;"
         offset="1"
         id="stop3675" />
    </linearGradient>
    <radialGradient
       inkscape:collect="always"
       xlink:href="#linearGradient3671"
       id="radialGradient6348"
       gradientUnits="userSpaceOnUse"
       gradientTransform="matrix(0.4073362,-0.2798276,0.7510293,1.0932492,-115.18484,-8.4378699)"
       cx="-26.305403"
       cy="10.108011"
       fx="-26.305403"
       fy="10.108011"
       r="7.0421038" />
    <linearGradient
       inkscape:collect="always"
       id="linearGradient3741">
      <stop
         style="stop-color:#ffffff;stop-opacity:1;"
         offset="0"
         id="stop3743" />
      <stop
         style="stop-color:#ffffff;stop-opacity:0;"
         offset="1"
         id="stop3745" />
    </linearGradient>
    <radialGradient
       inkscape:collect="always"
       xlink:href="#linearGradient3741"
       id="radialGradient6346"
       gradientUnits="userSpaceOnUse"
       gradientTransform="matrix(1.8860258,0,0,1.1764706,-3.5441033,-4.2352941)"
       cx="4"
       cy="5.2999997"
       fx="4"
       fy="5.2999997"
       r="17" />
    <linearGradient
       inkscape:collect="always"
       id="linearGradient3613">
      <stop
         style="stop-color:#888a85;stop-opacity:1"
         offset="0"
         id="stop3615" />
      <stop
         style="stop-color:#babdb6;stop-opacity:1"
         offset="1"
         id="stop3617" />
    </linearGradient>
    <linearGradient
       inkscape:collect="always"
       xlink:href="#linearGradient3613"
       id="linearGradient6344"
       gradientUnits="userSpaceOnUse"
       gradientTransform="translate(-90,0)"
       x1="-47.5"
       y1="49.020683"
       x2="-62.75"
       y2="-22.502075" />
    <linearGradient
       id="linearGradient3683">
      <stop
         id="stop3685"
         offset="0"
         style="stop-color:#f6f6f5;stop-opacity:1;" />
      <stop
         id="stop3689"
         offset="1"
         style="stop-color:#d3d7cf;stop-opacity:1" />
    </linearGradient>
    <radialGradient
       inkscape:collect="always"
       xlink:href="#linearGradient3683"
       id="radialGradient6342"
       gradientUnits="userSpaceOnUse"
       gradientTransform="matrix(3.9957492,0,0,1.9350367,0.62141,-31.167422)"
       cx="-30.249996"
       cy="35.357208"
       fx="-30.249996"
       fy="35.357208"
       r="18.000002" />
    <linearGradient
       inkscape:collect="always"
       xlink:href="#linearGradient3702"
       id="linearGradient6340"
       gradientUnits="userSpaceOnUse"
       x1="25.058096"
       y1="47.027729"
       x2="25.058096"
       y2="39.999443" />
    <radialGradient
       inkscape:collect="always"
       xlink:href="#linearGradient3688"
       id="radialGradient6338"
       gradientUnits="userSpaceOnUse"
       gradientTransform="matrix(2.003784,0,0,1.4,-20.01187,-104.4)"
       cx="4.9929786"
       cy="43.5"
       fx="4.9929786"
       fy="43.5"
       r="2.5" />
    <radialGradient
       inkscape:collect="always"
       xlink:href="#linearGradient3688"
       id="radialGradient6336"
       gradientUnits="userSpaceOnUse"
       gradientTransform="matrix(2.003784,0,0,1.4,27.98813,-17.4)"
       cx="4.9929786"
       cy="43.5"
       fx="4.9929786"
       fy="43.5"
       r="2.5" />
    <linearGradient
       inkscape:collect="always"
       xlink:href="#linearGradient3702"
       id="linearGradient6334"
       gradientUnits="userSpaceOnUse"
       x1="25.058096"
       y1="47.027729"
       x2="25.058096"
       y2="39.999443" />
    <radialGradient
       inkscape:collect="always"
       xlink:href="#linearGradient3688"
       id="radialGradient6332"
       gradientUnits="userSpaceOnUse"
       gradientTransform="matrix(2.003784,0,0,1.4,-20.01187,-104.4)"
       cx="4.9929786"
       cy="43.5"
       fx="4.9929786"
       fy="43.5"
       r="2.5" />
    <radialGradient
       inkscape:collect="always"
       xlink:href="#linearGradient3688"
       id="radialGradient6330"
       gradientUnits="userSpaceOnUse"
       gradientTransform="matrix(2.003784,0,0,1.4,27.98813,-17.4)"
       cx="4.9929786"
       cy="43.5"
       fx="4.9929786"
       fy="43.5"
       r="2.5" />
    <linearGradient
       id="linearGradient4928">
      <stop
         style="stop-color:#fce94f;stop-opacity:1;"
         offset="0"
         id="stop4930" />
      <stop
         style="stop-color:#fce94f;stop-opacity:0;"
         offset="1"
         id="stop4932" />
    </linearGradient>
    <linearGradient
       id="linearGradient3702">
      <stop
         style="stop-color:black;stop-opacity:0;"
         offset="0"
         id="stop3704" />
      <stop
         id="stop3710"
         offset="0.5"
         style="stop-color:black;stop-opacity:1;" />
      <stop
         style="stop-color:black;stop-opacity:0;"
         offset="1"
         id="stop3706" />
    </linearGradient>
    <linearGradient
       inkscape:collect="always"
       id="linearGradient3688">
      <stop
         style="stop-color:black;stop-opacity:1;"
         offset="0"
         id="stop3690" />
      <stop
         style="stop-color:black;stop-opacity:0;"
         offset="1"
         id="stop3692" />
    </linearGradient>
    <clipPath
       clipPathUnits="userSpaceOnUse"
       id="clipPath3008-4">
      <path
         d="M 0,4105.95 0,0 l 5477.71,0 0,4105.95 -5477.71,0 z"
         id="path3010-0" />
    </clipPath>
    <linearGradient
       inkscape:collect="always"
       id="linearGradient3656-3">
      <stop
         style="stop-color:#ffffff;stop-opacity:1;"
         offset="0"
         id="stop3658-4" />
      <stop
         style="stop-color:#ffffff;stop-opacity:0;"
         offset="1"
         id="stop3660-9" />
    </linearGradient>
    <linearGradient
       inkscape:collect="always"
       xlink:href="#linearGradient3656-3"
       id="linearGradient6352-7"
       gradientUnits="userSpaceOnUse"
       x1="-26.753757"
       y1="11.566258"
       x2="-24.75"
       y2="9.687501" />
    <linearGradient
       inkscape:collect="always"
       id="linearGradient3520-7">
      <stop
         style="stop-color:#000000;stop-opacity:0.41295547"
         offset="0"
         id="stop3522-1" />
      <stop
         style="stop-color:#000000;stop-opacity:0;"
         offset="1"
         id="stop3524-0" />
    </linearGradient>
    <linearGradient
       inkscape:collect="always"
       xlink:href="#linearGradient3520-7"
       id="linearGradient6350-3"
       gradientUnits="userSpaceOnUse"
       gradientTransform="matrix(0.9223058,0,0,0.9185751,-92.447368,1.3256997)"
       x1="-18.588562"
       y1="11.052948"
       x2="-28.789402"
       y2="14.069944" />
    <linearGradient
       id="linearGradient3671-7">
      <stop
         style="stop-color:#ffffff;stop-opacity:1;"
         offset="0"
         id="stop3673-8" />
      <stop
         id="stop3691-3"
         offset="0.47533694"
         style="stop-color:#ffffff;stop-opacity:1;" />
      <stop
         style="stop-color:#ffffff;stop-opacity:0;"
         offset="1"
         id="stop3675-8" />
    </linearGradient>
    <radialGradient
       inkscape:collect="always"
       xlink:href="#linearGradient3671-7"
       id="radialGradient6348-7"
       gradientUnits="userSpaceOnUse"
       gradientTransform="matrix(0.4073362,-0.2798276,0.7510293,1.0932492,-115.18484,-8.4378699)"
       cx="-26.305403"
       cy="10.108011"
       fx="-26.305403"
       fy="10.108011"
       r="7.0421038" />
    <linearGradient
       inkscape:collect="always"
       id="linearGradient3741-8">
      <stop
         style="stop-color:#ffffff;stop-opacity:1;"
         offset="0"
         id="stop3743-0" />
      <stop
         style="stop-color:#ffffff;stop-opacity:0;"
         offset="1"
         id="stop3745-8" />
    </linearGradient>
    <radialGradient
       inkscape:collect="always"
       xlink:href="#linearGradient3741-8"
       id="radialGradient6346-8"
       gradientUnits="userSpaceOnUse"
       gradientTransform="matrix(1.8860258,0,0,1.1764706,-3.5441033,-4.2352941)"
       cx="4"
       cy="5.2999997"
       fx="4"
       fy="5.2999997"
       r="17" />
    <linearGradient
       inkscape:collect="always"
       id="linearGradient3613-4">
      <stop
         style="stop-color:#888a85;stop-opacity:1"
         offset="0"
         id="stop3615-3" />
      <stop
         style="stop-color:#babdb6;stop-opacity:1"
         offset="1"
         id="stop3617-9" />
    </linearGradient>
    <linearGradient
       inkscape:collect="always"
       xlink:href="#linearGradient3613-4"
       id="linearGradient6344-1"
       gradientUnits="userSpaceOnUse"
       gradientTransform="translate(-90,0)"
       x1="-47.5"
       y1="49.020683"
       x2="-62.75"
       y2="-22.502075" />
    <linearGradient
       id="linearGradient3683-9">
      <stop
         id="stop3685-8"
         offset="0"
         style="stop-color:#f6f6f5;stop-opacity:1;" />
      <stop
         id="stop3689-4"
         offset="1"
         style="stop-color:#d3d7cf;stop-opacity:1" />
    </linearGradient>
    <radialGradient
       inkscape:collect="always"
       xlink:href="#linearGradient3683-9"
       id="radialGradient6342-8"
       gradientUnits="userSpaceOnUse"
       gradientTransform="matrix(3.9957492,0,0,1.9350367,0.62141,-31.167422)"
       cx="-30.249996"
       cy="35.357208"
       fx="-30.249996"
       fy="35.357208"
       r="18.000002" />
    <linearGradient
       inkscape:collect="always"
       xlink:href="#linearGradient3702-7"
       id="linearGradient6340-1"
       gradientUnits="userSpaceOnUse"
       x1="25.058096"
       y1="47.027729"
       x2="25.058096"
       y2="39.999443" />
    <radialGradient
       inkscape:collect="always"
       xlink:href="#linearGradient3688-0"
       id="radialGradient6338-6"
       gradientUnits="userSpaceOnUse"
       gradientTransform="matrix(2.003784,0,0,1.4,-20.01187,-104.4)"
       cx="4.9929786"
       cy="43.5"
       fx="4.9929786"
       fy="43.5"
       r="2.5" />
    <radialGradient
       inkscape:collect="always"
       xlink:href="#linearGradient3688-0"
       id="radialGradient6336-0"
       gradientUnits="userSpaceOnUse"
       gradientTransform="matrix(2.003784,0,0,1.4,27.98813,-17.4)"
       cx="4.9929786"
       cy="43.5"
       fx="4.9929786"
       fy="43.5"
       r="2.5" />
    <linearGradient
       inkscape:collect="always"
       xlink:href="#linearGradient3702-7"
       id="linearGradient6334-4"
       gradientUnits="userSpaceOnUse"
       x1="25.058096"
       y1="47.027729"
       x2="25.058096"
       y2="39.999443" />
    <radialGradient
       inkscape:collect="always"
       xlink:href="#linearGradient3688-0"
       id="radialGradient6332-6"
       gradientUnits="userSpaceOnUse"
       gradientTransform="matrix(2.003784,0,0,1.4,-20.01187,-104.4)"
       cx="4.9929786"
       cy="43.5"
       fx="4.9929786"
       fy="43.5"
       r="2.5" />
    <radialGradient
       inkscape:collect="always"
       xlink:href="#linearGradient3688-0"
       id="radialGradient6330-1"
       gradientUnits="userSpaceOnUse"
       gradientTransform="matrix(2.003784,0,0,1.4,27.98813,-17.4)"
       cx="4.9929786"
       cy="43.5"
       fx="4.9929786"
       fy="43.5"
       r="2.5" />
    <linearGradient
       id="linearGradient4928-1">
      <stop
         style="stop-color:#fce94f;stop-opacity:1;"
         offset="0"
         id="stop4930-2" />
      <stop
         style="stop-color:#fce94f;stop-opacity:0;"
         offset="1"
         id="stop4932-0" />
    </linearGradient>
    <linearGradient
       id="linearGradient3702-7">
      <stop
         style="stop-color:black;stop-opacity:0;"
         offset="0"
         id="stop3704-8" />
      <stop
         id="stop3710-3"
         offset="0.5"
         style="stop-color:black;stop-opacity:1;" />
      <stop
         style="stop-color:black;stop-opacity:0;"
         offset="1"
         id="stop3706-5" />
    </linearGradient>
    <linearGradient
       inkscape:collect="always"
       id="linearGradient3688-0">
      <stop
         style="stop-color:black;stop-opacity:1;"
         offset="0"
         id="stop3690-9" />
      <stop
         style="stop-color:black;stop-opacity:0;"
         offset="1"
         id="stop3692-4" />
    </linearGradient>
    <clipPath
       clipPathUnits="userSpaceOnUse"
       id="clipPath3008-2">
      <path
         d="M 0,4105.95 0,0 l 5477.71,0 0,4105.95 -5477.71,0 z"
         id="path3010-5" />
    </clipPath>
  </defs>
  <sodipodi:namedview
     id="base"
     pagecolor="#ffffff"
     bordercolor="#666666"
     borderopacity="1.0"
     inkscape:pageopacity="0.0"
     inkscape:pageshadow="2"
     inkscape:zoom="15.556349"
     inkscape:cx="2.4529783"
     inkscape:cy="30.350248"
     inkscape:current-layer="layer1"
     showgrid="true"
     inkscape:document-units="px"
     inkscape:grid-bbox="true"
     showguides="true"
     inkscape:guide-bbox="true"
     inkscape:window-width="1920"
     inkscape:window-height="1028"
     inkscape:window-x="2872"
     inkscape:window-y="532"
     inkscape:window-maximized="1">
    <inkscape:grid
       type="xygrid"
       id="grid3011"
       empspacing="4"
       visible="true"
       enabled="true"
       snapvisiblegridlinesonly="true" />
    <sodipodi:guide
       orientation="1,0"
       position="8,176"
       id="guide3013" />
    <sodipodi:guide
       orientation="0,1"
       position="184,496"
       id="guide3015" />
    <sodipodi:guide
       orientation="0,1"
       position="40,8"
       id="guide3017" />
    <sodipodi:guide
       orientation="1,0"
       position="496,248"
       id="guide3019" />
    <sodipodi:guide
       orientation="1,0"
       position="56,96"
       id="guide3104" />
    <sodipodi:guide
       orientation="0,1"
       position="64,56"
       id="guide3106" />
    <sodipodi:guide
       orientation="1,0"
       position="24,31"
       id="guide6318" />
    <sodipodi:guide
       orientation="0,1"
       position="57,28"
       id="guide6320" />
    <sodipodi:guide
       orientation="1,0"
       position="32,40"
       id="guide6910" />
  </sodipodi:namedview>
  <metadata
     id="metadata3008">
    <rdf:RDF>
      <cc:Work
         rdf:about="">
        <dc:format>image/svg+xml</dc:format>
        <dc:type
           rdf:resource="http://purl.org/dc/dcmitype/StillImage" />
        <dc:title></dc:title>
      </cc:Work>
    </rdf:RDF>
  </metadata>
  <g
     id="layer1"
     inkscape:label="Layer 1"
     inkscape:groupmode="layer">
    <path
       style="fill:#808080;fill-opacity:1;fill-rule:nonzero;stroke:none"
       d="m 14,8 36,0 0,48 -36,0 z"
       id="rect3021" />
    <path
       style="fill:#fefefe;fill-opacity:1;fill-rule:nonzero;stroke:none"
       d="m 15,9 34,0 0,46 -34,0 z"
       id="rect3791"
       inkscape:connector-curvature="0"
       sodipodi:nodetypes="ccccc" />
    <g
       id="g3392"
       transform="matrix(0.08105857,0,0,0.08105857,25.977512,35.098111)">
      <g
         transform="translate(0,208)"
         inkscape:label="Shadow"
         id="layer6">
        <path
           style="fill:#f91d0a"
           inkscape:connector-curvature="0"
           id="path4463"
           d="m 93.300341,-60.760124 c 6.498788,-12.737918 13.884559,-27.089494 19.796079,-41.498006 l 0,0 2.33743,-5.68788 c -7.72152,-29.38279 -12.35164,-52.96847 -8.21526,-68.21924 l 0,0 c 1.11354,-3.97606 5.71868,-6.38842 10.64214,-6.38842 l 0,0 3.0002,0.0439 h 0.55065 c 6.74044,-0.10344 9.91431,8.47084 10.27445,11.80446 l 0,0 c 0.59477,5.55196 -1.9738,14.94813 -1.9738,14.94813 l 0,0 c 0,-3.79424 0.14869,-9.92534 -2.24622,-15.21591 l 0,0 c -2.7876,-6.12153 -5.45031,-9.7787 -7.8377,-10.35841 l 0,0 c -1.20529,0.80505 -2.37691,2.47219 -2.7783,5.67917 l 0,0 c -0.83123,4.49653 -1.08041,10.17222 -1.08041,13.09807 l 0,0 c 0,10.33718 2.03537,23.98126 6.03525,38.04647 l 0,0 c 0.75451,-2.17769 1.41848,-4.26998 1.94649,-6.23042 l 0,0 c 0.82019,-3.08965 6.03467,-23.57059 6.03467,-23.57059 l 0,0 c 0,0 -1.31393,27.26318 -3.14948,35.51214 l 0,0 c -0.39327,1.74319 -0.82717,3.46721 -1.27908,5.2319 l 0,0 c 6.59579,18.429293 17.22398,34.87782 29.90266,46.715975 l 0,0 c 4.99898,4.671938 11.31246,8.438889 17.28789,11.872419 l 0,0 c 13.04927,-1.864592 25.06399,-2.745203 35.08751,-2.634244 l 0,0 c 13.29846,0.175425 23.06,2.142249 27.01282,6.035825 l 0,0 c 1.93547,1.892479 2.7208,4.178205 2.96477,6.740427 l 0,0 c 0.0577,0.996778 -0.42756,3.338846 -0.56983,3.926686 l 0,0 c 0.14227,-0.711532 0.14227,-4.210738 -10.53294,-7.618121 l 0,0 c -8.40753,-2.687713 -24.14274,-2.604071 -43.02396,-0.594223 l 0,0 c 21.83902,10.68455 43.11516,15.993122 49.85791,12.810533 l 0,0 c 1.64851,-0.803347 3.64787,-3.542733 3.64787,-3.542733 l 0,0 c 0,0 -1.18847,5.399777 -2.04176,6.749722 l 0,0 c -1.08914,1.466697 -3.22558,3.055378 -5.25108,3.590949 l 0,0 c -10.64853,2.841041 -38.36711,-3.733264 -62.53134,-17.540567 l 0,0 c -26.99773,3.976064 -56.64713,11.321175 -80.413463,19.116468 l 0,0 C 63.399423,12.994271 45.84085,31.792422 31.556657,24.641311 l 0,0 -5.251662,-2.640639 C 24.170302,20.779651 23.844429,17.807329 24.33817,15.386845 l 0,0 c 1.665361,-8.147882 11.8823,-20.419944 32.405053,-32.674576 l 0,0 c 2.209048,-1.336587 12.049006,-6.539448 12.049006,-6.539448 l 0,0 c 0,0 -7.2847,7.05061 -8.991296,8.43425 l 0,0 C 43.420357,-1.969578 31.330692,14.918081 31.632165,21.465077 l 0,0 0.05931,0.571045 c 13.91479,-1.98314 34.781998,-30.305249 61.608947,-82.796246 m 8.501628,4.353053 c -4.480843,8.438897 -8.860604,16.263222 -12.90405,23.447436 l 0,0 c 22.36702,-9.371194 46.44064,-15.368099 69.35658,-19.628215 l 0,0 c -3.07978,-2.126568 -6.06952,-4.378599 -8.88268,-6.75901 l 0,0 c -12.61942,-10.683964 -22.24039,-24.013208 -29.21433,-38.039504 l 0,0 c -4.42275,11.91541 -9.68195,24.577242 -18.35552,40.979293" />
      </g>
      <g
         transform="translate(0,208)"
         id="layer1-7"
         inkscape:label="Base"
         style="display:inline" />
      <g
         transform="translate(0,208)"
         style="display:inline"
         inkscape:label="Text"
         id="layer5" />
    </g>
    <g
       id="g7471"
       transform="matrix(0.93900123,-0.93646191,0.93646191,0.93900123,-20.635942,29.188293)">
      <g
         inkscape:transform-center-x="-1.4644656"
         transform="matrix(0.70710678,0.70710678,-0.70710678,0.70710678,23.842919,-13.012193)"
         inkscape:transform-center-y="-1.4644657"
         id="g6919">
        <path
           inkscape:connector-curvature="0"
           style="fill:#808080;fill-opacity:1;fill-rule:nonzero;stroke:none"
           d="m 32,16 c -5.522847,0 -10,4.477153 -10,10 l 20,0 C 42,20.477153 37.522847,16 32,16 z"
           id="path6904" />
        <path
           inkscape:connector-curvature="0"
           style="fill:#dcdcdc;fill-opacity:1;fill-rule:nonzero;stroke:none"
           d="m 32,17 c -4.970563,0 -9,4.029437 -9,9 l 18,0 c 0,-4.970563 -4.029437,-9 -9,-9 z"
           id="path6906" />
      </g>
      <path
         inkscape:connector-curvature="0"
         id="rect6923"
         d="M 21.003624,18.87868 18.882304,21 21.003624,23.12132 23.124944,21 21.003624,18.87868 z m 0,1.414213 L 21.710731,21 21.003624,21.707107 20.296517,21 21.003624,20.292893 z"
         style="fill:#575757;fill-opacity:1;fill-rule:nonzero;stroke:none" />
      <path
         style="fill:#575757;fill-opacity:1;fill-rule:nonzero;stroke:none"
         d="m 35.164329,32.778628 -2.12132,2.12132 2.12132,2.12132 2.12132,-2.12132 -2.12132,-2.12132 z m 0,1.414213 0.707107,0.707107 -0.707107,0.707107 -0.707107,-0.707107 0.707107,-0.707107 z"
         id="path6939"
         inkscape:connector-curvature="0" />
      <rect
         transform="matrix(0.70710678,0.70710678,-0.70710678,0.70710678,0,0)"
         y="-10.02806"
         x="29.168821"
         height="1"
         width="22"
         id="rect6957"
         style="fill:#898989;fill-opacity:1;fill-rule:nonzero;stroke:none" />
      <path
         style="fill:#575757;fill-opacity:1;fill-rule:nonzero;stroke:none"
         d="M 34.474711,18.87868 32.353391,21 34.474711,23.12132 36.596031,21 34.474711,18.87868 z m 0,1.414213 L 35.181818,21 34.474711,21.707107 33.767604,21 34.474711,20.292893 z"
         id="path6961"
         inkscape:connector-curvature="0" />
    </g>
  </g>
</svg>
