<?xml version="1.0" encoding="UTF-8" standalone="no"?>
<!-- Created with Inkscape (http://www.inkscape.org/) -->

<svg
   xmlns:dc="http://purl.org/dc/elements/1.1/"
   xmlns:cc="http://creativecommons.org/ns#"
   xmlns:rdf="http://www.w3.org/1999/02/22-rdf-syntax-ns#"
   xmlns:svg="http://www.w3.org/2000/svg"
   xmlns="http://www.w3.org/2000/svg"
   xmlns:sodipodi="http://sodipodi.sourceforge.net/DTD/sodipodi-0.dtd"
   xmlns:inkscape="http://www.inkscape.org/namespaces/inkscape"
   width="64"
   height="64"
   id="svg3003"
   version="1.1"
   inkscape:version="0.91 r13725"
   sodipodi:docname="app-package-jar-64.svg"
   inkscape:export-filename="C:\wamp\www\TESTY\git-hub\system-icons\file-types\app-package-jar\app-package-jar-64.png"
   inkscape:export-xdpi="90"
   inkscape:export-ydpi="90">
  <defs
     id="defs3005" />
  <sodipodi:namedview
     id="base"
     pagecolor="#ffffff"
     bordercolor="#666666"
     borderopacity="1.0"
     inkscape:pageopacity="0.0"
     inkscape:pageshadow="2"
     inkscape:zoom="7.7781746"
     inkscape:cx="-1.877411"
     inkscape:cy="55.01917"
     inkscape:current-layer="layer1"
     showgrid="true"
     inkscape:document-units="px"
     inkscape:grid-bbox="true"
     showguides="true"
     inkscape:guide-bbox="true"
     inkscape:window-width="1920"
     inkscape:window-height="1028"
     inkscape:window-x="2872"
     inkscape:window-y="532"
     inkscape:window-maximized="1">
    <inkscape:grid
       type="xygrid"
       id="grid3011"
       empspacing="4"
       visible="true"
       enabled="true"
       snapvisiblegridlinesonly="true" />
    <sodipodi:guide
       orientation="1,0"
       position="8,176"
       id="guide3013" />
    <sodipodi:guide
       orientation="0,1"
       position="184,496"
       id="guide3015" />
    <sodipodi:guide
       orientation="0,1"
       position="40,8"
       id="guide3017" />
    <sodipodi:guide
       orientation="1,0"
       position="496,248"
       id="guide3019" />
    <sodipodi:guide
       orientation="1,0"
       position="56,96"
       id="guide3104" />
    <sodipodi:guide
       orientation="0,1"
       position="64,56"
       id="guide3106" />
    <sodipodi:guide
       orientation="1,0"
       position="24,32"
       id="guide3393" />
    <sodipodi:guide
       orientation="0,1"
       position="52,28"
       id="guide3395" />
  </sodipodi:namedview>
  <metadata
     id="metadata3008">
    <rdf:RDF>
      <cc:Work
         rdf:about="">
        <dc:format>image/svg+xml</dc:format>
        <dc:type
           rdf:resource="http://purl.org/dc/dcmitype/StillImage" />
        <dc:title />
      </cc:Work>
    </rdf:RDF>
  </metadata>
  <g
     id="layer1"
     inkscape:label="Layer 1"
     inkscape:groupmode="layer">
    <text
       xml:space="preserve"
       style="font-size:2.25391102px;font-style:normal;font-weight:normal;line-height:125%;letter-spacing:0px;word-spacing:0px;fill:#000000;fill-opacity:1;stroke:none;font-family:Sans"
       x="57.995598"
       y="93.075829"
       id="text3219"
       sodipodi:linespacing="125%"><tspan
         sodipodi:role="line"
         id="tspan3221"
         x="57.995598"
         y="93.075829" /></text>
    <path
       style="fill:#8b4513;fill-opacity:1;fill-rule:nonzero;stroke:none"
       d="m 14,19 9,-5 0,-3 3,-3 12,0 3,3 0,3 9,5 0,37 -36,0 z"
       id="rect3021-7"
       inkscape:connector-curvature="0"
       sodipodi:nodetypes="ccccccccccc" />
    <path
       sodipodi:nodetypes="ccccccccccccc"
       inkscape:connector-curvature="0"
       id="path5330"
       d="m 16,19 8,-4 0,-3 3,-3 c 0,0 8.417432,0 10,0 l 3,3 0,3 8,4 -5,0 -2,4 -18,0 -2,-4 z"
       style="fill:#deb887;fill-opacity:1;fill-rule:nonzero;stroke:none" />
    <g
       id="g4911"
       transform="matrix(0.20024964,0,0,0.20024964,67.138736,47.482357)">
      <path
         id="path4853"
         d="m -189.3815,-110.48399 c 0,0 -4.04957,2.35496 2.88193,3.15185 8.39732,0.95798 12.68909,0.8206 21.94299,-0.93084 0,0 2.43294,1.52551 5.83071,2.8468 -20.7448,8.890873 -46.94957,-0.51498 -30.65563,-5.06781"
         style="fill:#5382a1"
         inkscape:connector-curvature="0" />
      <path
         id="path4855"
         d="m -191.91641,-122.086 c 0,0 -4.54197,3.36207 2.39467,4.07956 8.97027,0.92542 16.0543,1.00111 28.31238,-1.35928 0,0 1.69546,1.71888 4.36146,2.65886 -25.0817,7.33423 -53.0182,0.57839 -35.06851,-5.37914"
         style="fill:#5382a1"
         inkscape:connector-curvature="0" />
      <path
         id="path4857"
         d="m -170.54638,-141.76685 c 5.11151,5.88498 -1.343,11.18071 -1.343,11.18071 0,0 12.979,-6.70014 7.01833,-15.09032 -5.56708,-7.82436 -9.83628,-11.71197 13.27547,-25.11597 0,0 -36.27783,9.06053 -18.9508,29.02558"
         style="fill:#e76f00"
         inkscape:connector-curvature="0" />
      <path
         id="path4859"
         d="m -143.10972,-101.90245 c 0,0 2.99676,2.469215 -3.30037,4.379462 -11.97417,3.627412 -49.83779,4.722777 -60.35614,0.144525 -3.78108,-1.644903 3.30951,-3.927597 5.53994,-4.406587 2.32611,-0.50441 3.6554,-0.41044 3.6554,-0.41044 -4.20494,-2.9622 -27.17903,5.816422 -11.6697,8.330476 42.2962,6.859237 77.10194,-3.088727 66.13087,-8.037436"
         style="fill:#5382a1"
         inkscape:connector-curvature="0" />
      <path
         id="path4861"
         d="m -187.43412,-134.10701 c 0,0 -19.25985,4.57454 -6.8204,6.23572 5.25232,0.7032 15.72269,0.54411 25.47558,-0.27306 7.97059,-0.67235 15.97404,-2.1019 15.97404,-2.1019 0,0 -2.81053,1.20362 -4.84389,2.59203 -19.55803,5.14379 -57.34053,2.75084 -46.46343,-2.51062 9.19877,-4.44658 16.6781,-3.94217 16.6781,-3.94217"
         style="fill:#5382a1"
         inkscape:connector-curvature="0" />
      <path
         id="path4863"
         d="m -152.88431,-114.7949 c 19.88165,-10.33127 10.68916,-20.25952 4.27292,-18.92195 -1.57264,0.32732 -2.27384,0.61095 -2.27384,0.61095 0,0 0.58381,-0.91457 1.69888,-1.31044 12.69338,-4.46258 22.4554,13.16179 -4.09754,20.14213 0,2.9e-4 0.30761,-0.27477 0.39958,-0.52069"
         style="fill:#5382a1"
         inkscape:connector-curvature="0" />
      <path
         id="path4865"
         d="m -164.87105,-192.43637 c 0,0 11.01077,11.01448 -10.44323,27.95164 -17.20393,13.58651 -3.92304,21.33318 -0.007,30.18407 -10.04222,-9.06054 -17.41187,-17.03656 -12.46773,-24.4599 7.25682,-10.89681 27.36068,-16.17998 22.9181,-33.67581"
         style="fill:#e76f00"
         inkscape:connector-curvature="0" />
      <path
         id="path4867"
         d="m -185.48046,-86.799557 c 19.0839,1.221609 48.38939,-0.677784 49.08346,-9.707755 0,0 -1.33415,3.423191 -15.77182,6.141751 -16.28851,3.065307 -36.37809,2.707421 -48.29343,0.742906 2.9e-4,-2.86e-4 2.43922,2.018783 14.98179,2.823098"
         style="fill:#5382a1"
         inkscape:connector-curvature="0" />
    </g>
    <path
       sodipodi:nodetypes="ccccccccc"
       inkscape:connector-curvature="0"
       id="path7288"
       d="m 17,19 0,11 30,0 0,-11 -4,0 -2,4 -18,0 -2,-4 z"
       style="opacity:1;fill:#8b4513;fill-opacity:1;fill-rule:nonzero;stroke:none" />
    <path
       style="fill:#deb887;fill-opacity:1;fill-rule:nonzero;stroke:none"
       d="m 15,20 0,35 34,0 0,-35 -5,0 -2,4 -20,0 -2,-4 z"
       id="rect5332"
       inkscape:connector-curvature="0"
       sodipodi:nodetypes="ccccccccc" />
    <path
       style="opacity:0.32413791;fill:#a68167;fill-opacity:1;stroke:#8b4513;stroke-width:0.06426612px;stroke-linecap:butt;stroke-linejoin:miter;stroke-opacity:1"
       d="m 17,21 -2,2 1,0 0,2 2,0 0,-2 1,0 z"
       id="path5207"
       inkscape:connector-curvature="0"
       sodipodi:nodetypes="cccccccc" />
    <rect
       style="fill:#8b4513;fill-opacity:1;fill-rule:nonzero;stroke:none"
       id="rect5328"
       width="18"
       height="1"
       x="23"
       y="27" />
    <text
       xml:space="preserve"
       style="font-size:0.50082916px;font-style:normal;font-variant:normal;font-weight:normal;font-stretch:normal;line-height:125%;letter-spacing:0px;word-spacing:0px;fill:#000000;fill-opacity:1;stroke:none;font-family:Courier New;-inkscape-font-specification:Courier New"
       x="133.77789"
       y="47.182869"
       id="text6560"
       sodipodi:linespacing="125%"><tspan
         y="47.182869"
         x="133.77789"
         sodipodi:role="line"
         id="tspan6562" /></text>
    <rect
       style="opacity:0.6;fill:#dcdcdc;fill-opacity:1;fill-rule:nonzero;stroke:none"
       id="rect5197"
       width="36"
       height="2.9999995"
       x="14"
       y="53" />
    <rect
       transform="matrix(0,1,-1,0,0,0)"
       style="opacity:0.6;fill:#dcdcdc;fill-opacity:1;fill-rule:nonzero;stroke:none"
       id="rect5205"
       width="37"
       height="2.9999998"
       x="19"
       y="-17" />
    <path
       sodipodi:nodetypes="cccccccc"
       inkscape:connector-curvature="0"
       id="path7065"
       d="m 47,21 -2,2 1,0 0,2 2,0 0,-2 1,0 z"
       style="opacity:0.32413791;fill:#a68167;fill-opacity:1;stroke:#8b4513;stroke-width:0.06426612px;stroke-linecap:butt;stroke-linejoin:miter;stroke-opacity:1" />
    <rect
       y="-50"
       x="19"
       height="3"
       width="37"
       id="rect7063"
       style="opacity:0.6;fill:#dcdcdc;fill-opacity:1;fill-rule:nonzero;stroke:none"
       transform="matrix(0,1,-1,0,0,0)" />
    <text
       xml:space="preserve"
       style="font-style:normal;font-variant:normal;font-weight:normal;font-stretch:normal;font-size:10.73764896px;line-height:125%;font-family:Arial;-inkscape-font-specification:Arial;text-align:center;letter-spacing:0px;word-spacing:0px;text-anchor:middle;fill:#ff0000;fill-opacity:1;stroke:none"
       x="32.178261"
       y="47.779995"
       id="text2997"
       sodipodi:linespacing="125%"><tspan
         sodipodi:role="line"
         id="tspan2999"
         x="32.178261"
         y="47.779995">jar</tspan></text>
    <rect
       style="fill:#8b4513;fill-opacity:1;fill-rule:nonzero;stroke:none"
       id="rect8115"
       width="6"
       height="20"
       x="68"
       y="36" />
    <rect
       style="fill:#8b4513;fill-opacity:1;fill-rule:nonzero;stroke:none"
       id="rect8117"
       width="30"
       height="3"
       x="17"
       y="66" />
    <text
       xml:space="preserve"
       style="font-style:normal;font-variant:normal;font-weight:normal;font-stretch:normal;font-size:2.82158256px;line-height:125%;font-family:'Courier New';-inkscape-font-specification:'Courier New';letter-spacing:0px;word-spacing:0px;fill:#000000;fill-opacity:1;stroke:none"
       x="552.99866"
       y="54.74522"
       id="text6560-3"
       sodipodi:linespacing="125%"><tspan
         y="54.74522"
         x="552.99866"
         sodipodi:role="line"
         id="tspan6562-5" /></text>
  </g>
</svg>
