<?xml version="1.0" encoding="UTF-8" standalone="no"?>
<!-- Created with Inkscape (http://www.inkscape.org/) -->

<svg
   xmlns:dc="http://purl.org/dc/elements/1.1/"
   xmlns:cc="http://creativecommons.org/ns#"
   xmlns:rdf="http://www.w3.org/1999/02/22-rdf-syntax-ns#"
   xmlns:svg="http://www.w3.org/2000/svg"
   xmlns="http://www.w3.org/2000/svg"
   xmlns:sodipodi="http://sodipodi.sourceforge.net/DTD/sodipodi-0.dtd"
   xmlns:inkscape="http://www.inkscape.org/namespaces/inkscape"
   width="512"
   height="512"
   id="svg3003"
   version="1.1"
   inkscape:version="0.91 r13725"
   sodipodi:docname="app-package-jar-512.svg"
   inkscape:export-filename="C:\wamp\www\TESTY\git-hub\system-icons\file-types\app-package-jar\app-package-jar-512.png"
   inkscape:export-xdpi="90"
   inkscape:export-ydpi="90">
  <defs
     id="defs3005">
    <filter
       inkscape:collect="always"
       id="filter4538">
      <feGaussianBlur
         inkscape:collect="always"
         stdDeviation="1.0425"
         id="feGaussianBlur4540" />
    </filter>
  </defs>
  <sodipodi:namedview
     id="base"
     pagecolor="#ffffff"
     bordercolor="#666666"
     borderopacity="1.0"
     inkscape:pageopacity="0.0"
     inkscape:pageshadow="2"
     inkscape:zoom="1"
     inkscape:cx="84.152784"
     inkscape:cy="196.48478"
     inkscape:current-layer="layer1"
     showgrid="true"
     inkscape:document-units="px"
     inkscape:grid-bbox="true"
     showguides="true"
     inkscape:guide-bbox="true"
     inkscape:window-width="1920"
     inkscape:window-height="1028"
     inkscape:window-x="2872"
     inkscape:window-y="532"
     inkscape:window-maximized="1">
    <inkscape:grid
       type="xygrid"
       id="grid3011"
       empspacing="4"
       visible="true"
       enabled="true"
       snapvisiblegridlinesonly="true" />
    <sodipodi:guide
       orientation="1,0"
       position="16,376"
       id="guide3013" />
    <sodipodi:guide
       orientation="0,1"
       position="184,496"
       id="guide3015" />
    <sodipodi:guide
       orientation="0,1"
       position="336,16"
       id="guide3017" />
    <sodipodi:guide
       orientation="1,0"
       position="496,248"
       id="guide3019" />
    <sodipodi:guide
       orientation="1,0"
       position="280,312"
       id="guide3104" />
    <sodipodi:guide
       orientation="0,1"
       position="488,144"
       id="guide3106" />
    <sodipodi:guide
       orientation="1,0"
       position="316,44"
       id="guide3055" />
    <sodipodi:guide
       orientation="1,0"
       position="80,368"
       id="guide4116" />
    <sodipodi:guide
       orientation="0,1"
       position="368,320"
       id="guide5322" />
    <sodipodi:guide
       orientation="1,0"
       position="160,384"
       id="guide5324" />
    <sodipodi:guide
       orientation="1,0"
       position="352,328"
       id="guide5326" />
  </sodipodi:namedview>
  <metadata
     id="metadata3008">
    <rdf:RDF>
      <cc:Work
         rdf:about="">
        <dc:format>image/svg+xml</dc:format>
        <dc:type
           rdf:resource="http://purl.org/dc/dcmitype/StillImage" />
        <dc:title />
      </cc:Work>
    </rdf:RDF>
  </metadata>
  <g
     id="layer1"
     inkscape:label="Layer 1"
     inkscape:groupmode="layer"
     transform="translate(0,448)">
    <path
       style="fill:#8b4513;fill-opacity:1;fill-rule:nonzero;stroke:none"
       d="m 64,-320 96,-48 0,-32 32,-32 128,0 32,32 0,32 96,48 0,368 -384,0 z"
       id="rect3021"
       inkscape:connector-curvature="0"
       sodipodi:nodetypes="ccccccccccc" />
    <path
       sodipodi:nodetypes="ccccccccccccc"
       inkscape:connector-curvature="0"
       id="path5330"
       d="m 70,-321 92,-46 0,-32 30,-31 c 0,0 112.16949,0 128,0 l 30,31 0,32 92,46 -59,0 -32,40 -190,0 -32,-40 z"
       style="fill:#deb887;fill-opacity:1;fill-rule:nonzero;stroke:none" />
    <g
       id="g4260"
       transform="matrix(0.51028899,0,0,0.51028899,354.07566,-216.6362)">
      <path
         id="path4202"
         d="m -240.88593,-104.08286 c 0,0 -14.178,8.245 10.09,11.035 29.4,3.354 44.426,2.873 76.825,-3.259 0,0 8.518,5.341 20.414,9.967 -72.63,31.128 -164.376,-1.803 -107.329,-17.743"
         style="fill:#5382a1"
         inkscape:connector-curvature="0" />
      <path
         id="path4204"
         d="m -249.76093,-144.70286 c 0,0 -15.902,11.771 8.384,14.283 31.406,3.24 56.208,3.505 99.125,-4.759 0,0 5.936,6.018 15.27,9.309 -87.814,25.678 -185.623,2.025 -122.779,-18.833"
         style="fill:#5382a1"
         inkscape:connector-curvature="0" />
      <path
         id="path4206"
         d="m -174.94193,-213.60786 c 17.896,20.604 -4.702,39.145 -4.702,39.145 0,0 45.441,-23.458 24.572,-52.833 -19.491,-27.394 -34.438,-41.005 46.479,-87.934 0,0 -127.013,31.722 -66.349,101.622"
         style="fill:#e76f00"
         inkscape:connector-curvature="0" />
      <path
         id="path4208"
         d="m -78.88293,-74.03786 c 0,0 10.492,8.645 -11.555,15.333 -41.923,12.7 -174.488,16.535 -211.314,0.506 -13.238,-5.759 11.587,-13.751 19.396,-15.428 8.144,-1.766 12.798,-1.437 12.798,-1.437 -14.722,-10.371 -95.157,20.364 -40.857,29.166 148.084,24.015 269.943,-10.814 231.532,-28.14"
         style="fill:#5382a1"
         inkscape:connector-curvature="0" />
      <path
         id="path4210"
         d="m -234.06793,-186.78986 c 0,0 -67.431,16.016 -23.879,21.832 18.389,2.462 55.047,1.905 89.193,-0.956 27.906,-2.354 55.927,-7.359 55.927,-7.359 0,0 -9.84,4.214 -16.959,9.075 -68.475,18.009 -200.756,9.631 -162.674,-8.79 32.206,-15.568 58.392,-13.802 58.392,-13.802"
         style="fill:#5382a1"
         inkscape:connector-curvature="0" />
      <path
         id="path4212"
         d="m -113.10493,-119.17586 c 69.608,-36.171 37.424,-70.931 14.96,-66.248 -5.506,1.146 -7.961,2.139 -7.961,2.139 0,0 2.044,-3.202 5.948,-4.588 44.441,-15.624 78.619,46.081 -14.346,70.52 0,0.001 1.077,-0.962 1.399,-1.823"
         style="fill:#5382a1"
         inkscape:connector-curvature="0" />
      <path
         id="path4214"
         d="m -155.07193,-391.00786 c 0,0 38.55,38.563 -36.563,97.862 -60.233,47.568 -13.735,74.69 -0.025,105.678 -35.159,-31.722 -60.961,-59.647 -43.651,-85.637 25.407,-38.151 95.793,-56.648 80.239,-117.903"
         style="fill:#e76f00"
         inkscape:connector-curvature="0" />
      <path
         id="path4216"
         d="m -227.22793,-21.16086 c 66.815,4.277 169.417,-2.373 171.847,-33.988 0,0 -4.671,11.985 -55.219,21.503 -57.028,10.732 -127.364,9.479 -169.081,2.601 10e-4,-0.001 8.54,7.068 52.453,9.884"
         style="fill:#5382a1"
         inkscape:connector-curvature="0" />
    </g>
    <path
       style="opacity:0.39655172;fill:#000000;fill-opacity:1;fill-rule:nonzero;stroke:none;filter:url(#filter4538)"
       d="m 71,-322 3,50 366,-3.5 2,-46.5 -61,0 -32,39 -186,0 -32,-39 z"
       id="path4536"
       inkscape:connector-curvature="0"
       sodipodi:nodetypes="ccccccccc" />
    <path
       sodipodi:nodetypes="ccccccccc"
       inkscape:connector-curvature="0"
       id="path4534"
       d="m 68,-321 3.25,86.25 368,-1 4.75,-85.25 -61,0 -32,40 -190,0 -32,-40 z"
       style="fill:#8b4513;fill-opacity:1;fill-rule:nonzero;stroke:none" />
    <path
       style="fill:#deb887;fill-opacity:1;fill-rule:nonzero;stroke:none"
       d="m 68,-320 -2,1 0,365 380,0 0,-365 -2,-1 -60,0 -32,40 -192,0 -32,-40 z"
       id="rect5332"
       inkscape:connector-curvature="0"
       sodipodi:nodetypes="ccccccccccc" />
    <rect
       style="fill:#8b4513;fill-opacity:1;fill-rule:nonzero;stroke:none"
       id="rect5328"
       width="192"
       height="1.9864292"
       x="160"
       y="-256" />
    <text
       xml:space="preserve"
       style="font-size:5.00981903px;font-style:normal;font-variant:normal;font-weight:normal;font-stretch:normal;line-height:125%;letter-spacing:0px;word-spacing:0px;fill:#000000;fill-opacity:1;stroke:none;font-family:Courier New;-inkscape-font-specification:Courier New"
       x="662.49847"
       y="-38.085346"
       id="text6560"
       sodipodi:linespacing="125%"><tspan
         y="-38.085346"
         x="662.49847"
         sodipodi:role="line"
         id="tspan6562" /></text>
    <rect
       style="opacity:0.6;fill:#dcdcdc;fill-opacity:1;fill-rule:nonzero;stroke:none"
       id="rect5197"
       width="384"
       height="11.934136"
       x="64"
       y="36.065865" />
    <text
       xml:space="preserve"
       style="font-style:normal;font-variant:normal;font-weight:bold;font-stretch:normal;font-size:77.13748169px;line-height:125%;font-family:Arial;-inkscape-font-specification:'Arial Bold';letter-spacing:0px;word-spacing:0px;fill:#ff0000;fill-opacity:1;stroke:none"
       x="318.10547"
       y="-3.1563079"
       id="text5199"
       sodipodi:linespacing="125%"><tspan
         sodipodi:role="line"
         id="tspan5201"
         x="318.10547"
         y="-3.1563079">jar</tspan></text>
    <path
       sodipodi:nodetypes="cccccccc"
       inkscape:connector-curvature="0"
       id="path5209"
       d="m 432,-316 -8,8 5,0 0,10 6,0 0,-10 5,0 z"
       style="opacity:0.32413791;fill:#a68167;fill-opacity:1;stroke:#8b4513;stroke-width:0.64285713px;stroke-linecap:butt;stroke-linejoin:miter;stroke-opacity:1" />
    <rect
       y="-448"
       x="-320"
       height="12.110912"
       width="368"
       id="rect5203"
       style="opacity:0.6;fill:#dcdcdc;fill-opacity:1;fill-rule:nonzero;stroke:none"
       transform="matrix(0,1,-1,0,0,0)" />
    <path
       style="opacity:0.32413791;fill:#a68167;fill-opacity:1;stroke:#8b4513;stroke-width:0.64285713px;stroke-linecap:butt;stroke-linejoin:miter;stroke-opacity:1"
       d="m 80,-316 -8,8 5,0 0,10 6,0 0,-10 5,0 z"
       id="path5207"
       inkscape:connector-curvature="0"
       sodipodi:nodetypes="cccccccc" />
    <rect
       transform="matrix(0,1,-1,0,0,0)"
       style="opacity:0.6;fill:#dcdcdc;fill-opacity:1;fill-rule:nonzero;stroke:none"
       id="rect5205"
       width="368"
       height="11.75736"
       x="-320"
       y="-75.757362" />
    <rect
       style="fill:#a68167;fill-opacity:1;fill-rule:nonzero;stroke:none"
       id="rect5211"
       width="88"
       height="128"
       x="544"
       y="-80" />
    <rect
       style="fill:#a68167;fill-opacity:1;fill-rule:nonzero;stroke:none"
       id="rect5213"
       width="168"
       height="64"
       x="280"
       y="88" />
  </g>
</svg>
