<?xml version="1.0" encoding="UTF-8" standalone="no"?>
<!-- Created with Inkscape (http://www.inkscape.org/) -->

<svg
   xmlns:dc="http://purl.org/dc/elements/1.1/"
   xmlns:cc="http://creativecommons.org/ns#"
   xmlns:rdf="http://www.w3.org/1999/02/22-rdf-syntax-ns#"
   xmlns:svg="http://www.w3.org/2000/svg"
   xmlns="http://www.w3.org/2000/svg"
   xmlns:sodipodi="http://sodipodi.sourceforge.net/DTD/sodipodi-0.dtd"
   xmlns:inkscape="http://www.inkscape.org/namespaces/inkscape"
   width="16"
   height="16"
   id="svg3003"
   version="1.1"
   inkscape:version="0.91 r13725"
   sodipodi:docname="app-package-jar-16.svg"
   inkscape:export-filename="C:\wamp\www\TESTY\git-hub\system-icons\file-types\app-package-jar\app-package-jar-16.png"
   inkscape:export-xdpi="90"
   inkscape:export-ydpi="90">
  <defs
     id="defs3005" />
  <sodipodi:namedview
     id="base"
     pagecolor="#ffffff"
     bordercolor="#666666"
     borderopacity="1.0"
     inkscape:pageopacity="0.0"
     inkscape:pageshadow="2"
     inkscape:zoom="22"
     inkscape:cx="-1.9427672"
     inkscape:cy="5.2225607"
     inkscape:current-layer="layer1"
     showgrid="true"
     inkscape:document-units="px"
     inkscape:grid-bbox="true"
     showguides="true"
     inkscape:guide-bbox="true"
     inkscape:window-width="1920"
     inkscape:window-height="1028"
     inkscape:window-x="2872"
     inkscape:window-y="532"
     inkscape:window-maximized="1">
    <inkscape:grid
       type="xygrid"
       id="grid3011"
       empspacing="4"
       visible="true"
       enabled="true"
       snapvisiblegridlinesonly="true" />
    <sodipodi:guide
       orientation="1,0"
       position="1,3"
       id="guide3013" />
    <sodipodi:guide
       orientation="0,1"
       position="184,496"
       id="guide3015" />
    <sodipodi:guide
       orientation="0,1"
       position="5,1"
       id="guide3017" />
    <sodipodi:guide
       orientation="1,0"
       position="496,248"
       id="guide3019" />
    <sodipodi:guide
       orientation="1,0"
       position="56,96"
       id="guide3104" />
    <sodipodi:guide
       orientation="0,1"
       position="64,56"
       id="guide3106" />
    <sodipodi:guide
       orientation="1,0"
       position="15,3"
       id="guide3018" />
    <sodipodi:guide
       orientation="0,1"
       position="7,15"
       id="guide3020" />
  </sodipodi:namedview>
  <metadata
     id="metadata3008">
    <rdf:RDF>
      <cc:Work
         rdf:about="">
        <dc:format>image/svg+xml</dc:format>
        <dc:type
           rdf:resource="http://purl.org/dc/dcmitype/StillImage" />
        <dc:title />
      </cc:Work>
    </rdf:RDF>
  </metadata>
  <g
     id="layer1"
     inkscape:label="Layer 1"
     inkscape:groupmode="layer"
     transform="translate(0,-48)">
    <text
       xml:space="preserve"
       style="font-size:1.72998929px;font-style:normal;font-weight:normal;line-height:125%;letter-spacing:0px;word-spacing:0px;fill:#000000;fill-opacity:1;stroke:none;font-family:Sans"
       x="11.331323"
       y="94.572151"
       id="text3219"
       sodipodi:linespacing="125%"><tspan
         sodipodi:role="line"
         id="tspan3221"
         x="11.331323"
         y="94.572151" /></text>
    <text
       xml:space="preserve"
       style="font-size:2.25391102px;font-style:normal;font-weight:normal;line-height:125%;letter-spacing:0px;word-spacing:0px;fill:#000000;fill-opacity:1;stroke:none;font-family:Sans"
       x="-18.146603"
       y="100.1508"
       id="text3219-2"
       sodipodi:linespacing="125%"><tspan
         sodipodi:role="line"
         id="tspan3221-0"
         x="-18.146603"
         y="100.1508" /></text>
    <text
       xml:space="preserve"
       style="font-size:2.25391102px;font-style:normal;font-weight:normal;line-height:125%;letter-spacing:0px;word-spacing:0px;fill:#000000;fill-opacity:1;stroke:none;font-family:Sans"
       x="101.9956"
       y="126.07583"
       id="text3219-4"
       sodipodi:linespacing="125%"><tspan
         sodipodi:role="line"
         id="tspan3221-2"
         x="101.9956"
         y="126.07583" /></text>
    <text
       xml:space="preserve"
       style="font-size:0.67308295px;font-style:normal;font-weight:normal;line-height:125%;letter-spacing:0px;word-spacing:0px;fill:#000000;fill-opacity:1;stroke:none;font-family:Sans"
       x="33.075378"
       y="73.406097"
       id="text3219-5"
       sodipodi:linespacing="125%"><tspan
         sodipodi:role="line"
         id="tspan3221-6"
         x="33.075378"
         y="73.406097" /></text>
    <path
       style="fill:#cd853f;fill-opacity:1;fill-rule:nonzero;stroke:none"
       d="m 1,52 3,-1 0,-1 1,-1 6,0 1,1 0,1 3,1 0,11 -14,0 z"
       id="rect3021-7"
       inkscape:connector-curvature="0"
       sodipodi:nodetypes="ccccccccccc" />
    <path
       sodipodi:nodetypes="ccccccccccc"
       inkscape:connector-curvature="0"
       id="path17592"
       d="m 2,53 3,-1 0,-1 1,-1 4,0 1,1 0,1 3,1 0,9 -12,0 z"
       style="fill:#ffe4c4;fill-opacity:1;fill-rule:nonzero;stroke:none" />
    <g
       id="g4911"
       transform="matrix(0.05310661,0,0,0.05310661,17.318863,59.229389)">
      <path
         id="path4853"
         d="m -189.3815,-110.48399 c 0,0 -4.04957,2.35496 2.88193,3.15185 8.39732,0.95798 12.68909,0.8206 21.94299,-0.93084 0,0 2.43294,1.52551 5.83071,2.8468 -20.7448,8.890873 -46.94957,-0.51498 -30.65563,-5.06781"
         style="fill:#5382a1"
         inkscape:connector-curvature="0" />
      <path
         id="path4855"
         d="m -191.91641,-122.086 c 0,0 -4.54197,3.36207 2.39467,4.07956 8.97027,0.92542 16.0543,1.00111 28.31238,-1.35928 0,0 1.69546,1.71888 4.36146,2.65886 -25.0817,7.33423 -53.0182,0.57839 -35.06851,-5.37914"
         style="fill:#5382a1"
         inkscape:connector-curvature="0" />
      <path
         id="path4857"
         d="m -170.54638,-141.76685 c 5.11151,5.88498 -1.343,11.18071 -1.343,11.18071 0,0 12.979,-6.70014 7.01833,-15.09032 -5.56708,-7.82436 -9.83628,-11.71197 13.27547,-25.11597 0,0 -36.27783,9.06053 -18.9508,29.02558"
         style="fill:#e76f00"
         inkscape:connector-curvature="0" />
      <path
         id="path4859"
         d="m -143.10972,-101.90245 c 0,0 2.99676,2.469215 -3.30037,4.379462 -11.97417,3.627412 -49.83779,4.722777 -60.35614,0.144525 -3.78108,-1.644903 3.30951,-3.927597 5.53994,-4.406587 2.32611,-0.50441 3.6554,-0.41044 3.6554,-0.41044 -4.20494,-2.9622 -27.17903,5.816422 -11.6697,8.330476 42.2962,6.859237 77.10194,-3.088727 66.13087,-8.037436"
         style="fill:#5382a1"
         inkscape:connector-curvature="0" />
      <path
         id="path4861"
         d="m -187.43412,-134.10701 c 0,0 -19.25985,4.57454 -6.8204,6.23572 5.25232,0.7032 15.72269,0.54411 25.47558,-0.27306 7.97059,-0.67235 15.97404,-2.1019 15.97404,-2.1019 0,0 -2.81053,1.20362 -4.84389,2.59203 -19.55803,5.14379 -57.34053,2.75084 -46.46343,-2.51062 9.19877,-4.44658 16.6781,-3.94217 16.6781,-3.94217"
         style="fill:#5382a1"
         inkscape:connector-curvature="0" />
      <path
         id="path4863"
         d="m -152.88431,-114.7949 c 19.88165,-10.33127 10.68916,-20.25952 4.27292,-18.92195 -1.57264,0.32732 -2.27384,0.61095 -2.27384,0.61095 0,0 0.58381,-0.91457 1.69888,-1.31044 12.69338,-4.46258 22.4554,13.16179 -4.09754,20.14213 0,2.9e-4 0.30761,-0.27477 0.39958,-0.52069"
         style="fill:#5382a1"
         inkscape:connector-curvature="0" />
      <path
         id="path4865"
         d="m -164.87105,-192.43637 c 0,0 11.01077,11.01448 -10.44323,27.95164 -17.20393,13.58651 -3.92304,21.33318 -0.007,30.18407 -10.04222,-9.06054 -17.41187,-17.03656 -12.46773,-24.4599 7.25682,-10.89681 27.36068,-16.17998 22.9181,-33.67581"
         style="fill:#e76f00"
         inkscape:connector-curvature="0" />
      <path
         id="path4867"
         d="m -185.48046,-86.799557 c 19.0839,1.221609 48.38939,-0.677784 49.08346,-9.707755 0,0 -1.33415,3.423191 -15.77182,6.141751 -16.28851,3.065307 -36.37809,2.707421 -48.29343,0.742906 2.9e-4,-2.86e-4 2.43922,2.018783 14.98179,2.823098"
         style="fill:#5382a1"
         inkscape:connector-curvature="0" />
    </g>
    <path
       style="fill:#cd853f;fill-opacity:1;fill-rule:nonzero;stroke:none"
       d="m 1,52 0,11 14,0 0,-11 -2,0 -1,1 -8,0 -1,-1 z"
       id="rect5332"
       inkscape:connector-curvature="0"
       sodipodi:nodetypes="ccccccccc" />
    <text
       xml:space="preserve"
       style="font-size:0.14956206px;font-style:normal;font-variant:normal;font-weight:normal;font-stretch:normal;line-height:125%;letter-spacing:0px;word-spacing:0px;fill:#000000;fill-opacity:1;stroke:none;font-family:Courier New;-inkscape-font-specification:Courier New"
       x="55.706161"
       y="59.701138"
       id="text6560"
       sodipodi:linespacing="125%"><tspan
         y="59.701138"
         x="55.706161"
         sodipodi:role="line"
         id="tspan6562" /></text>
    <path
       sodipodi:nodetypes="ccccccccc"
       inkscape:connector-curvature="0"
       id="path17590"
       d="m 2,53 0,9 12,0 0,-9 -1,0 -1,1 -8,0 -1,-1 z"
       style="fill:#ffe4c4;fill-opacity:1;fill-rule:nonzero;stroke:none" />
    <text
       xml:space="preserve"
       style="font-style:normal;font-variant:normal;font-weight:normal;font-stretch:normal;font-size:7.02091217px;line-height:125%;font-family:Arial;-inkscape-font-specification:Arial;text-align:center;letter-spacing:0px;word-spacing:0px;text-anchor:middle;fill:#ff0000;fill-opacity:1;stroke:none"
       x="8.1165581"
       y="60.042278"
       id="text2997"
       sodipodi:linespacing="125%"><tspan
         sodipodi:role="line"
         id="tspan2999"
         x="8.1165581"
         y="60.042278">jar</tspan></text>
    <text
       xml:space="preserve"
       style="font-size:0.85637927px;font-style:normal;font-variant:normal;font-weight:normal;font-stretch:normal;line-height:125%;letter-spacing:0px;word-spacing:0px;fill:#000000;fill-opacity:1;stroke:none;font-family:Courier New;-inkscape-font-specification:Courier New"
       x="-24.935446"
       y="84.934113"
       id="text6560-8"
       sodipodi:linespacing="125%"><tspan
         y="84.934113"
         x="-24.935446"
         sodipodi:role="line"
         id="tspan6562-6" /></text>
    <text
       xml:space="preserve"
       style="font-style:normal;font-weight:normal;font-size:1.03686118px;line-height:125%;font-family:Sans;letter-spacing:0px;word-spacing:0px;fill:#000000;fill-opacity:1;stroke:none"
       x="-15.031973"
       y="64.036232"
       id="text3219-1"
       sodipodi:linespacing="125%"><tspan
         sodipodi:role="line"
         id="tspan3221-7"
         x="-15.031973"
         y="64.036232" /></text>
    <text
       xml:space="preserve"
       style="font-style:normal;font-variant:normal;font-weight:normal;font-stretch:normal;font-size:0.23039521px;line-height:125%;font-family:'Courier New';-inkscape-font-specification:'Courier New';letter-spacing:0px;word-spacing:0px;fill:#000000;fill-opacity:1;stroke:none"
       x="19.829969"
       y="42.92421"
       id="text6560-7"
       sodipodi:linespacing="125%"><tspan
         y="42.92421"
         x="19.829969"
         sodipodi:role="line"
         id="tspan6562-4" /></text>
    <text
       xml:space="preserve"
       style="font-style:normal;font-variant:normal;font-weight:normal;font-stretch:normal;font-size:1.2980057px;line-height:125%;font-family:'Courier New';-inkscape-font-specification:'Courier New';letter-spacing:0px;word-spacing:0px;fill:#000000;fill-opacity:1;stroke:none"
       x="212.68306"
       y="46.403099"
       id="text6560-3"
       sodipodi:linespacing="125%"><tspan
         y="46.403099"
         x="212.68306"
         sodipodi:role="line"
         id="tspan6562-5" /></text>
    <text
       xml:space="preserve"
       style="font-style:normal;font-weight:normal;font-size:2.25391102px;line-height:125%;font-family:Sans;letter-spacing:0px;word-spacing:0px;fill:#000000;fill-opacity:1;stroke:none"
       x="-37.526775"
       y="117.64373"
       id="text3219-8"
       sodipodi:linespacing="125%"><tspan
         sodipodi:role="line"
         id="tspan3221-25"
         x="-37.526775"
         y="117.64373" /></text>
    <text
       xml:space="preserve"
       style="font-style:normal;font-variant:normal;font-weight:normal;font-stretch:normal;font-size:0.50082916px;line-height:125%;font-family:'Courier New';-inkscape-font-specification:'Courier New';letter-spacing:0px;word-spacing:0px;fill:#000000;fill-opacity:1;stroke:none"
       x="38.25552"
       y="71.750771"
       id="text6560-1"
       sodipodi:linespacing="125%"><tspan
         y="71.750771"
         x="38.25552"
         sodipodi:role="line"
         id="tspan6562-2" /></text>
    <text
       xml:space="preserve"
       style="font-style:normal;font-variant:normal;font-weight:normal;font-stretch:normal;font-size:2.82158256px;line-height:125%;font-family:'Courier New';-inkscape-font-specification:'Courier New';letter-spacing:0px;word-spacing:0px;fill:#000000;fill-opacity:1;stroke:none"
       x="457.47629"
       y="79.313126"
       id="text6560-3-1"
       sodipodi:linespacing="125%"><tspan
         y="79.313126"
         x="457.47629"
         sodipodi:role="line"
         id="tspan6562-5-7" /></text>
  </g>
</svg>
