<?xml version="1.0" encoding="UTF-8" standalone="no"?>
<!-- Created with Inkscape (http://www.inkscape.org/) -->

<svg
   xmlns:dc="http://purl.org/dc/elements/1.1/"
   xmlns:cc="http://creativecommons.org/ns#"
   xmlns:rdf="http://www.w3.org/1999/02/22-rdf-syntax-ns#"
   xmlns:svg="http://www.w3.org/2000/svg"
   xmlns="http://www.w3.org/2000/svg"
   xmlns:sodipodi="http://sodipodi.sourceforge.net/DTD/sodipodi-0.dtd"
   xmlns:inkscape="http://www.inkscape.org/namespaces/inkscape"
   width="512"
   height="512"
   id="svg3003"
   version="1.1"
   inkscape:version="0.91 r13725"
   sodipodi:docname="app-disc-optical-512.svg"
   inkscape:export-filename="C:\wamp\www\TESTY\git-hub\system-icons\file-types\app-disc-optical\app-disc-optical-512.png"
   inkscape:export-xdpi="90"
   inkscape:export-ydpi="90">
  <defs
     id="defs3005">
    <radialGradient
       inkscape:collect="always"
       r="211.48"
       gradientTransform="matrix(1.09 .026748 -.024534 .99977 -20.561 -9.8292)"
       cx="371.94"
       cy="526.27"
       gradientUnits="userSpaceOnUse"
       id="radialGradient4566">
      <stop
         offset="0"
         style="stop-color:#ffffff"
         id="stop4496" />
      <stop
         offset=".76440"
         style="stop-color:#ffffff;stop-opacity:.49804"
         id="stop4502" />
      <stop
         offset="1"
         style="stop-color:#ffffff;stop-opacity:0"
         id="stop4498" />
    </radialGradient>
    <mask
       maskUnits="userSpaceOnUse"
       id="mask4562">
      <path
         d="m372.06 314.69c-116.81 0-211.5 94.693-211.5 211.5s94.693 211.5 211.5 211.5 211.47-94.693 211.47-211.5-94.662-211.5-211.47-211.5zm0 134.34c42.608 0 77.125 34.548 77.125 77.156s-34.517 77.156-77.125 77.156-77.156-34.548-77.156-77.156 34.548-77.156 77.156-77.156z"
         inkscape:connector-curvature="0"
         style="opacity:0.66;color:#000000;fill:url(#radialGradient4566)"
         id="path4564" />
    </mask>
  </defs>
  <sodipodi:namedview
     id="base"
     pagecolor="#ffffff"
     bordercolor="#666666"
     borderopacity="1.0"
     inkscape:pageopacity="0"
     inkscape:pageshadow="2"
     inkscape:zoom="0.99999999"
     inkscape:cx="188.33428"
     inkscape:cy="149.7666"
     inkscape:current-layer="layer1"
     showgrid="true"
     inkscape:document-units="px"
     inkscape:grid-bbox="true"
     showguides="true"
     inkscape:guide-bbox="true"
     inkscape:window-width="1920"
     inkscape:window-height="1028"
     inkscape:window-x="2872"
     inkscape:window-y="532"
     inkscape:window-maximized="1"
     inkscape:snap-bbox="true"
     inkscape:object-paths="true"
     inkscape:object-nodes="true">
    <inkscape:grid
       type="xygrid"
       id="grid3011"
       empspacing="4"
       visible="true"
       enabled="true"
       snapvisiblegridlinesonly="true" />
    <sodipodi:guide
       orientation="1,0"
       position="16,376"
       id="guide3013" />
    <sodipodi:guide
       orientation="0,1"
       position="184,496"
       id="guide3015" />
    <sodipodi:guide
       orientation="0,1"
       position="336,16"
       id="guide3017" />
    <sodipodi:guide
       orientation="1,0"
       position="496,248"
       id="guide3019" />
    <sodipodi:guide
       orientation="1,0"
       position="280,312"
       id="guide3104" />
    <sodipodi:guide
       orientation="0,1"
       position="488,144"
       id="guide3106" />
    <sodipodi:guide
       orientation="1,0"
       position="268,328"
       id="guide9774" />
    <sodipodi:guide
       orientation="1,0"
       position="220,48"
       id="guide10416" />
  </sodipodi:namedview>
  <metadata
     id="metadata3008">
    <rdf:RDF>
      <cc:Work
         rdf:about="">
        <dc:format>image/svg+xml</dc:format>
        <dc:type
           rdf:resource="http://purl.org/dc/dcmitype/StillImage" />
        <dc:title></dc:title>
      </cc:Work>
    </rdf:RDF>
  </metadata>
  <g
     id="layer1"
     inkscape:label="Layer 1"
     inkscape:groupmode="layer"
     transform="translate(0,448)">
    <path
       style="opacity:1;fill:#cccccc;fill-opacity:1;stroke:none;stroke-width:2;stroke-linecap:round;stroke-linejoin:round;stroke-miterlimit:4;stroke-dasharray:none;stroke-dashoffset:0.39370039;stroke-opacity:1"
       d="M 256,-432 A 240,240 0 0 0 16,-192 240,240 0 0 0 256,48 240,240 0 0 0 496,-192 240,240 0 0 0 256,-432 Z m 0,2 A 238,238 0 0 1 494,-192 238,238 0 0 1 256,46 238,238 0 0 1 18,-192 238,238 0 0 1 256,-430 Z m 0,158 a 80,80 0 0 0 -80,80 80,80 0 0 0 80,80 80,80 0 0 0 80,-80 80,80 0 0 0 -80,-80 z m 0,55 a 25,25 0 0 1 25,25 25,25 0 0 1 -25,25 25,25 0 0 1 -25,-25 25,25 0 0 1 25,-25 z"
       id="path4443"
       inkscape:connector-curvature="0" />
    <path
       style="opacity:1;fill:#faf6f7;fill-opacity:0.98039216;stroke:none;stroke-width:2;stroke-linecap:round;stroke-linejoin:round;stroke-miterlimit:4;stroke-dasharray:none;stroke-dashoffset:0.39370039;stroke-opacity:1"
       d="M 256,-430 A 238,238 0 0 0 18,-192 238,238 0 0 0 256,46 238,238 0 0 0 494,-192 238,238 0 0 0 256,-430 Z m 0,158 a 80,80 0 0 1 80,80 80,80 0 0 1 -80,80 80,80 0 0 1 -80,-80 80,80 0 0 1 80,-80 z"
       id="circle4445"
       inkscape:connector-curvature="0" />
    <path
       style="opacity:1;fill:#fbf7f8;fill-opacity:0.98039216;stroke:none;stroke-width:2;stroke-linecap:round;stroke-linejoin:round;stroke-miterlimit:4;stroke-dasharray:none;stroke-dashoffset:0.39370039;stroke-opacity:1"
       d="m 256,-262 a 70,70 0 0 0 -70,70 70,70 0 0 0 70,70 70,70 0 0 0 70,-70 70,70 0 0 0 -70,-70 z m 0,8 a 62,62 0 0 1 62,62 62,62 0 0 1 -62,62 62,62 0 0 1 -62,-62 62,62 0 0 1 62,-62 z"
       id="circle4449"
       inkscape:connector-curvature="0" />
    <path
       style="opacity:1;fill:#cccccc;fill-opacity:1;stroke:none;stroke-width:2;stroke-linecap:round;stroke-linejoin:round;stroke-miterlimit:4;stroke-dasharray:none;stroke-dashoffset:0.39370039;stroke-opacity:1"
       d="M 256 191 A 65 65 0 0 0 191 256 A 65 65 0 0 0 256 321 A 65 65 0 0 0 321 256 A 65 65 0 0 0 256 191 z M 256 194 A 62 62 0 0 1 318 256 A 62 62 0 0 1 256 318 A 62 62 0 0 1 194 256 A 62 62 0 0 1 256 194 z "
       transform="translate(0,-448)"
       id="circle4451" />
    <path
       style="opacity:1;fill:#fbf7f8;fill-opacity:0.98039216;stroke:none;stroke-width:2;stroke-linecap:round;stroke-linejoin:round;stroke-miterlimit:4;stroke-dasharray:none;stroke-dashoffset:0.39370039;stroke-opacity:1"
       d="m 256,-254 a 62,62 0 0 0 -62,62 62,62 0 0 0 62,62 62,62 0 0 0 62,-62 62,62 0 0 0 -62,-62 z m 0,37 a 25,25 0 0 1 25,25 25,25 0 0 1 -25,25 25,25 0 0 1 -25,-25 25,25 0 0 1 25,-25 z"
       id="circle4453"
       inkscape:connector-curvature="0" />
    <path
       style="opacity:1;fill:#cccccc;fill-opacity:1;stroke:none;stroke-width:2;stroke-linecap:round;stroke-linejoin:round;stroke-miterlimit:4;stroke-dasharray:none;stroke-dashoffset:0.39370039;stroke-opacity:1"
       d="M 256 206 A 50 50 0 0 0 206 256 A 50 50 0 0 0 256 306 A 50 50 0 0 0 306 256 A 50 50 0 0 0 256 206 z M 256 208 A 48 48 0 0 1 304 256 A 48 48 0 0 1 256 304 A 48 48 0 0 1 208 256 A 48 48 0 0 1 256 208 z "
       transform="translate(0,-448)"
       id="circle4455" />
    <path
       style="opacity:1;fill:#fbf7f8;fill-opacity:0.98039216;stroke:none;stroke-width:2;stroke-linecap:round;stroke-linejoin:round;stroke-miterlimit:4;stroke-dasharray:none;stroke-dashoffset:0.39370039;stroke-opacity:1"
       d="m 256,-240 a 48,48 0 0 0 -48,48 48,48 0 0 0 48,48 48,48 0 0 0 48,-48 48,48 0 0 0 -48,-48 z m 0,23 a 25,25 0 0 1 25,25 25,25 0 0 1 -25,25 25,25 0 0 1 -25,-25 25,25 0 0 1 25,-25 z"
       id="circle4457"
       inkscape:connector-curvature="0" />
    <path
       style="opacity:1;fill:#cccccc;fill-opacity:1;stroke:none;stroke-width:2;stroke-linecap:round;stroke-linejoin:round;stroke-miterlimit:4;stroke-dasharray:none;stroke-dashoffset:0.39370039;stroke-opacity:1"
       d="m 256,-223 a 31,31 0 0 0 -31,31 31,31 0 0 0 31,31 31,31 0 0 0 31,-31 31,31 0 0 0 -31,-31 z m 0,6 a 25,25 0 0 1 25,25 25,25 0 0 1 -25,25 25,25 0 0 1 -25,-25 25,25 0 0 1 25,-25 z"
       id="circle4462"
       inkscape:connector-curvature="0" />
    <path
       style="opacity:1;fill:#999999;fill-opacity:1;stroke:none;stroke-width:2;stroke-linecap:round;stroke-linejoin:round;stroke-miterlimit:4;stroke-dasharray:none;stroke-dashoffset:0.39370039;stroke-opacity:1"
       d="m 256,-221 a 29,29 0 0 0 -29,29 29,29 0 0 0 29,29 29,29 0 0 0 29,-29 29,29 0 0 0 -29,-29 z m 0,4 a 25,25 0 0 1 25,25 25,25 0 0 1 -25,25 25,25 0 0 1 -25,-25 25,25 0 0 1 25,-25 z"
       id="circle4464"
       inkscape:connector-curvature="0" />
    <path
       style="opacity:1;fill:#cccccc;fill-opacity:1;stroke:none;stroke-width:2;stroke-linecap:round;stroke-linejoin:round;stroke-miterlimit:4;stroke-dasharray:none;stroke-dashoffset:0.39370039;stroke-opacity:1"
       d="M 256 229 A 27 27 0 0 0 229 256 A 27 27 0 0 0 256 283 A 27 27 0 0 0 283 256 A 27 27 0 0 0 256 229 z M 256 231 A 25 25 0 0 1 281 256 A 25 25 0 0 1 256 281 A 25 25 0 0 1 231 256 A 25 25 0 0 1 256 231 z "
       transform="translate(0,-448)"
       id="circle4466" />
  </g>
</svg>
