<?xml version="1.0" encoding="UTF-8" standalone="no"?>
<!-- Created with Inkscape (http://www.inkscape.org/) -->

<svg
   xmlns:dc="http://purl.org/dc/elements/1.1/"
   xmlns:cc="http://creativecommons.org/ns#"
   xmlns:rdf="http://www.w3.org/1999/02/22-rdf-syntax-ns#"
   xmlns:svg="http://www.w3.org/2000/svg"
   xmlns="http://www.w3.org/2000/svg"
   xmlns:sodipodi="http://sodipodi.sourceforge.net/DTD/sodipodi-0.dtd"
   xmlns:inkscape="http://www.inkscape.org/namespaces/inkscape"
   width="16"
   height="16"
   id="svg3003"
   version="1.1"
   inkscape:version="0.48.5 r10040"
   sodipodi:docname="app-md-16.svg"
   inkscape:export-filename="C:\wamp\www\TESTY\git-hub\system-icons\file-types\app-md\app-md-16.png"
   inkscape:export-xdpi="90"
   inkscape:export-ydpi="90">
  <defs
     id="defs3005">
    <clipPath
       id="clipPath3008"
       clipPathUnits="userSpaceOnUse">
      <path
         id="path3010"
         d="M 0,4105.95 0,0 l 5477.71,0 0,4105.95 -5477.71,0 z"
         inkscape:connector-curvature="0" />
    </clipPath>
    <clipPath
       id="clipPath3008-4"
       clipPathUnits="userSpaceOnUse">
      <path
         id="path3010-0"
         d="M 0,4105.95 0,0 l 5477.71,0 0,4105.95 -5477.71,0 z" />
    </clipPath>
    <clipPath
       clipPathUnits="userSpaceOnUse"
       id="clipPath3008-40">
      <path
         inkscape:connector-curvature="0"
         d="M 0,4105.95 0,0 l 5477.71,0 0,4105.95 -5477.71,0 z"
         id="path3010-9" />
    </clipPath>
  </defs>
  <sodipodi:namedview
     id="base"
     pagecolor="#ffffff"
     bordercolor="#666666"
     borderopacity="1.0"
     inkscape:pageopacity="0.0"
     inkscape:pageshadow="2"
     inkscape:zoom="43.999999"
     inkscape:cx="4.8581027"
     inkscape:cy="9.1631104"
     inkscape:current-layer="layer1"
     showgrid="true"
     inkscape:document-units="px"
     inkscape:grid-bbox="true"
     showguides="true"
     inkscape:guide-bbox="true"
     inkscape:window-width="1920"
     inkscape:window-height="1028"
     inkscape:window-x="1592"
     inkscape:window-y="-8"
     inkscape:window-maximized="1">
    <inkscape:grid
       type="xygrid"
       id="grid3011"
       empspacing="4"
       visible="true"
       enabled="true"
       snapvisiblegridlinesonly="true" />
    <sodipodi:guide
       orientation="1,0"
       position="1,3"
       id="guide3013" />
    <sodipodi:guide
       orientation="0,1"
       position="184,496"
       id="guide3015" />
    <sodipodi:guide
       orientation="0,1"
       position="5,1"
       id="guide3017" />
    <sodipodi:guide
       orientation="1,0"
       position="496,248"
       id="guide3019" />
    <sodipodi:guide
       orientation="1,0"
       position="56,96"
       id="guide3104" />
    <sodipodi:guide
       orientation="0,1"
       position="64,56"
       id="guide3106" />
    <sodipodi:guide
       orientation="1,0"
       position="15,3"
       id="guide3018" />
    <sodipodi:guide
       orientation="0,1"
       position="7,15"
       id="guide3020" />
  </sodipodi:namedview>
  <metadata
     id="metadata3008">
    <rdf:RDF>
      <cc:Work
         rdf:about="">
        <dc:format>image/svg+xml</dc:format>
        <dc:type
           rdf:resource="http://purl.org/dc/dcmitype/StillImage" />
        <dc:title></dc:title>
      </cc:Work>
    </rdf:RDF>
  </metadata>
  <g
     id="layer1"
     inkscape:label="Layer 1"
     inkscape:groupmode="layer"
     transform="translate(0,-48)">
    <path
       style="fill:#d3d3d3;fill-opacity:1;fill-rule:nonzero;stroke:none"
       d="m 1,49 14,0 0,14 -14,0 z"
       id="rect3021"
       inkscape:connector-curvature="0" />
    <path
       style="fill:#fefefe;fill-opacity:1;fill-rule:nonzero;stroke:none"
       d="m 2,50 12,0 0,12 -12,0 z"
       id="rect3791"
       inkscape:connector-curvature="0"
       sodipodi:nodetypes="ccccc" />
    <g
       style="font-size:103.57289124px;font-style:normal;font-variant:normal;font-weight:normal;font-stretch:normal;text-align:start;line-height:125%;letter-spacing:0px;word-spacing:0px;writing-mode:lr-tb;text-anchor:start;fill:#4a525a;fill-opacity:1;stroke:none;font-family:Arial Rounded MT Bold;-inkscape-font-specification:'Arial Rounded MT Bold,'"
       id="text5581"
       transform="matrix(0.07146192,0,0,0.07146192,-17.868007,57.791536)">
      <path
         d="m 337.05076,-13.792077 0,18.35789 c -5e-5,2.899506 -0.65749,5.07413 -1.97233,6.523878 -1.31494,1.449751 -3.05127,2.174625 -5.20899,2.174627 -2.09038,-2e-6 -3.78457,-0.724876 -5.08256,-2.174627 -1.29807,-1.449748 -1.94708,-3.624372 -1.94705,-6.523878 l 0,-21.999125 c -3e-5,-3.472626 -0.11804,-6.169834 -0.354,-8.091632 -0.23605,-1.921723 -0.87664,-3.497904 -1.92177,-4.728548 -1.0452,-1.230558 -2.69724,-1.845859 -4.95612,-1.845903 -4.51786,4.4e-5 -7.49321,1.550939 -8.92608,4.652688 -1.43292,3.101829 -2.14936,7.552222 -2.14934,13.351193 l 0,18.661327 c -2e-5,2.8657909 -0.64904,5.0319861 -1.94705,6.498592 -1.29805,1.466608 -3.00909,2.199911 -5.13313,2.199913 -2.09035,-2e-6 -3.80139,-0.733305 -5.13313,-2.199913 -1.33176,-1.4666059 -1.99763,-3.6328011 -1.99762,-6.498592 l 0,-39.497279 c -1e-5,-2.596016 0.59843,-4.568349 1.79533,-5.917006 1.19688,-1.348551 2.77306,-2.022853 4.72855,-2.022908 1.88803,5.5e-5 3.46421,0.632213 4.72854,1.896476 1.2643,1.264369 1.89646,3.009126 1.89648,5.234274 l 0,1.314891 c 2.39375,-2.865737 4.9561,-4.972931 7.68705,-6.321588 2.7309,-1.348551 5.76526,-2.022853 9.10309,-2.022908 3.47262,5.5e-5 6.4564,0.691214 8.95136,2.073481 2.49488,1.382372 4.5515,3.472708 6.16987,6.271015 2.32629,-2.832022 4.82121,-4.930787 7.48476,-6.296302 2.66344,-1.365408 5.61351,-2.048139 8.85023,-2.048194 3.77602,5.5e-5 7.02953,0.741787 9.76053,2.225199 2.73084,1.483517 4.77061,3.607568 6.11929,6.37216 1.17995,2.494964 1.76996,6.422773 1.77005,11.783439 l 0,26.95525 c -9e-5,2.899506 -0.65753,5.07413 -1.97234,6.523878 -1.31497,1.449751 -3.0513,2.174625 -5.20898,2.174627 -2.09042,-2e-6 -3.80146,-0.733305 -5.13313,-2.199913 -1.33182,-1.4666059 -1.9977,-3.6328011 -1.99763,-6.498592 l 0,-23.21287 c -7e-5,-2.966898 -0.1265,-5.343812 -0.37929,-7.13075 -0.25293,-1.786863 -0.93567,-3.287185 -2.0482,-4.500971 -1.11266,-1.213701 -2.79842,-1.820573 -5.05727,-1.820617 -1.82067,4.4e-5 -3.54857,0.539486 -5.1837,1.618326 -1.63524,1.078926 -2.90798,2.528675 -3.81824,4.349253 -1.0115,2.32638 -1.51723,6.439622 -1.51718,12.339739 z"
         id="path5586"
         inkscape:connector-curvature="0"
         style="fill:#4a525a;fill-opacity:1" />
      <path
         d="m 420.59686,5.3749762 0,-1.3654629 c -1.85437,2.1240593 -3.68342,3.8519582 -5.48713,5.1837018 -1.8038,1.3317489 -3.75928,2.3432019 -5.86644,3.0343619 -2.10722,0.691159 -4.40828,1.036739 -6.90317,1.036741 -3.30411,-2e-6 -6.36375,-0.69959 -9.17895,-2.098768 -2.81522,-1.3991754 -5.25114,-3.3967951 -7.30775,-5.9928646 -2.05663,-2.5960559 -3.61596,-5.64727246 -4.67798,-9.1536589 -1.06203,-3.5063544 -1.59304,-7.2993035 -1.59304,-11.3788575 0,-8.631038 2.10719,-15.357201 6.32159,-20.178508 4.21438,-4.821212 9.76051,-7.231841 16.63842,-7.231896 3.97836,5.5e-5 7.33301,0.682786 10.06397,2.048194 2.73088,1.365515 5.39438,3.46428 7.99048,6.296302 l 0,-20.380799 c -4e-5,-2.832001 0.56469,-4.97291 1.69419,-6.422733 1.12941,-1.449676 2.73931,-2.17455 4.82969,-2.174626 2.09029,7.6e-5 3.70018,0.665949 4.8297,1.997622 1.1294,1.33182 1.69412,3.295724 1.69418,5.891719 l 0,60.8895322 c -6e-5,2.6297844 -0.60693,4.6021178 -1.82062,5.9170058 -1.2138,1.31489 -2.78155,1.972334 -4.70326,1.972336 -1.88809,-2e-6 -3.44742,-0.682733 -4.67797,-2.048195 -1.23065,-1.3654606 -1.84595,-3.3125077 -1.84591,-5.8411468 z M 393.43932,-14.904677 c -1e-5,3.742403 0.58157,6.9284802 1.74476,9.5582406 1.16315,2.6297952 2.75619,4.61055732 4.77912,5.94229237 2.02288,1.33175783 4.23122,1.99763113 6.62503,1.99762173 2.42745,9.4e-6 4.64422,-0.6321488 6.65031,-1.89647633 2.00601,-1.26430495 3.60747,-3.20292317 4.8044,-5.81586057 1.19685,-2.6129032 1.79529,-5.8748388 1.79533,-9.7858178 -4e-5,-3.674919 -0.59848,-6.835709 -1.79533,-9.482381 -1.19693,-2.646599 -2.81525,-4.669505 -4.85498,-6.068724 -2.0398,-1.399135 -4.27342,-2.098723 -6.70088,-2.098767 -2.52866,4.4e-5 -4.78757,0.71649 -6.77674,2.149339 -1.98922,1.432935 -3.53168,3.489556 -4.6274,6.16987 -1.09576,2.680387 -1.64363,5.790605 -1.64362,9.330663 z"
         id="path5588"
         inkscape:connector-curvature="0"
         style="fill:#4a525a;fill-opacity:1" />
    </g>
  </g>
</svg>
