<?xml version="1.0" encoding="UTF-8" standalone="no"?>
<!-- Created with Inkscape (http://www.inkscape.org/) -->

<svg
   xmlns:dc="http://purl.org/dc/elements/1.1/"
   xmlns:cc="http://creativecommons.org/ns#"
   xmlns:rdf="http://www.w3.org/1999/02/22-rdf-syntax-ns#"
   xmlns:svg="http://www.w3.org/2000/svg"
   xmlns="http://www.w3.org/2000/svg"
   xmlns:sodipodi="http://sodipodi.sourceforge.net/DTD/sodipodi-0.dtd"
   xmlns:inkscape="http://www.inkscape.org/namespaces/inkscape"
   width="16"
   height="16"
   id="svg3003"
   version="1.1"
   inkscape:version="0.91 r13725"
   sodipodi:docname="app-database-16.svg"
   inkscape:export-filename="C:\wamp\www\TESTY\git-hub\system-icons\file-types\app-database\app-database-16.png"
   inkscape:export-xdpi="90"
   inkscape:export-ydpi="90">
  <defs
     id="defs3005" />
  <sodipodi:namedview
     id="base"
     pagecolor="#ffffff"
     bordercolor="#666666"
     borderopacity="1.0"
     inkscape:pageopacity="0.0"
     inkscape:pageshadow="2"
     inkscape:zoom="88"
     inkscape:cx="1.263596"
     inkscape:cy="7.4936284"
     inkscape:current-layer="layer1"
     showgrid="true"
     inkscape:document-units="px"
     inkscape:grid-bbox="true"
     showguides="true"
     inkscape:guide-bbox="true"
     inkscape:window-width="1920"
     inkscape:window-height="1028"
     inkscape:window-x="2872"
     inkscape:window-y="532"
     inkscape:window-maximized="1">
    <inkscape:grid
       type="xygrid"
       id="grid3011"
       empspacing="4"
       visible="true"
       enabled="true"
       snapvisiblegridlinesonly="true" />
    <sodipodi:guide
       orientation="1,0"
       position="1,3"
       id="guide3013" />
    <sodipodi:guide
       orientation="0,1"
       position="184,496"
       id="guide3015" />
    <sodipodi:guide
       orientation="0,1"
       position="5,1"
       id="guide3017" />
    <sodipodi:guide
       orientation="1,0"
       position="496,248"
       id="guide3019" />
    <sodipodi:guide
       orientation="1,0"
       position="56,96"
       id="guide3104" />
    <sodipodi:guide
       orientation="0,1"
       position="64,56"
       id="guide3106" />
    <sodipodi:guide
       orientation="1,0"
       position="15,3"
       id="guide3018" />
    <sodipodi:guide
       orientation="0,1"
       position="7,15"
       id="guide3020" />
  </sodipodi:namedview>
  <metadata
     id="metadata3008">
    <rdf:RDF>
      <cc:Work
         rdf:about="">
        <dc:format>image/svg+xml</dc:format>
        <dc:type
           rdf:resource="http://purl.org/dc/dcmitype/StillImage" />
        <dc:title />
      </cc:Work>
    </rdf:RDF>
  </metadata>
  <g
     id="layer1"
     inkscape:label="Layer 1"
     inkscape:groupmode="layer"
     transform="translate(0,-48)">
    <path
       sodipodi:nodetypes="sccsccs"
       inkscape:connector-curvature="0"
       id="path9058"
       d="m 7.9989357,49 c -3.7129718,0 -6.7649622,1.096578 -6.998098,2.482682 0.00248,3.071843 -0.002788,6.43889 0,8.937656 C 1.1069954,61.851229 4.201072,63 7.9989357,63 c 3.7978633,0 6.8919403,-1.148771 6.9980993,-2.579662 -0.0136,-2.985135 0.01112,-6.23522 0,-8.937656 C 14.763898,50.096578 11.711909,49 7.9989357,49 z"
       style="fill:#696969;fill-opacity:1;fill-rule:nonzero;stroke:none" />
    <path
       style="fill:#ffffff;fill-opacity:1;fill-rule:nonzero;stroke:none"
       d="m 7.9990068,49.466733 c -3.465406,0 -6.3139008,1.023462 -6.5314928,2.317146 0.00232,2.867024 -0.0026,6.00957 0,8.341728 0.09908,1.335485 2.9868552,2.40766 6.5314928,2.40766 3.5446362,0 6.4324122,-1.072175 6.5314932,-2.40766 -0.0127,-2.786098 0.01037,-5.81948 0,-8.341728 -0.217592,-1.293684 -3.066087,-2.317146 -6.5314932,-2.317146 z"
       id="path9048"
       inkscape:connector-curvature="0"
       sodipodi:nodetypes="sccsccs" />
    <path
       style="fill:#808080;fill-opacity:1;fill-rule:nonzero;stroke:none"
       d="m 14.007146,59.893892 c 0,1.151753 -2.658555,2.085432 -6.0081392,2.085432 -3.3495839,0 -6.0195031,-0.933679 -6.0195031,-2.085432 0,-1.151752 0,-2.085432 0,-2.085432 l 12.0276423,0 c 0,0 0,1.509556 0,2.085432 z"
       id="path9030"
       inkscape:connector-curvature="0"
       sodipodi:nodetypes="sssccs" />
    <path
       style="fill:#f5f5f5;fill-opacity:1;fill-rule:nonzero;stroke:none"
       d="m 14.007146,58.967034 c 0,1.151752 -2.658555,2.085432 -6.0081392,2.085432 -3.3495839,0 -6.0081394,-0.93368 -6.0081394,-2.085432 0,-1.151753 0,-1.853717 0,-1.853717 l 12.0162786,0 c 0,0 0,1.27784 0,1.853717 z"
       id="path9028"
       inkscape:connector-curvature="0"
       sodipodi:nodetypes="sssccs" />
    <path
       sodipodi:nodetypes="sssccs"
       inkscape:connector-curvature="0"
       id="path9036"
       d="m 14.007146,58.040175 c 0,1.151753 -2.658555,2.085432 -6.0081392,2.085432 -3.3495839,0 -6.0081394,-0.933679 -6.0081394,-2.085432 0,-1.151753 0,-1.853717 0,-1.853717 l 12.0162786,0 c 0,0 0,1.277841 0,1.853717 z"
       style="fill:#808080;fill-opacity:1;fill-rule:nonzero;stroke:none" />
    <path
       style="fill:#f5f5f5;fill-opacity:1;fill-rule:nonzero;stroke:none"
       d="m 14.007146,57.113316 c 0,1.151753 -2.658555,2.085432 -6.0081392,2.085432 -3.3495839,0 -6.0081394,-0.933679 -6.0081394,-2.085432 0,-1.151752 0,-1.853717 0,-1.853717 l 12.0162786,0 c 0,0 0,1.277841 0,1.853717 z"
       id="path9038"
       inkscape:connector-curvature="0"
       sodipodi:nodetypes="sssccs" />
    <path
       sodipodi:nodetypes="sssccs"
       inkscape:connector-curvature="0"
       id="path9040"
       d="m 14.007146,56.186458 c 0,1.151753 -2.658555,2.085432 -6.0081392,2.085432 -3.3495839,0 -6.0081394,-0.933679 -6.0081394,-2.085432 0,-1.151753 0,-1.853717 0,-1.853717 l 12.0162786,0 c 0,0 0,1.27784 0,1.853717 z"
       style="fill:#808080;fill-opacity:1;fill-rule:nonzero;stroke:none" />
    <path
       style="fill:#f5f5f5;fill-opacity:1;fill-rule:nonzero;stroke:none"
       d="m 14.007146,55.259599 c 0,1.151753 -2.658555,2.085432 -6.0081392,2.085432 -3.3495839,0 -6.0081394,-0.933679 -6.0081394,-2.085432 0,-1.151753 0,-1.853717 0,-1.853717 l 12.0162786,0 c 0,0 0,1.277841 0,1.853717 z"
       id="path9042"
       inkscape:connector-curvature="0"
       sodipodi:nodetypes="sssccs" />
    <path
       sodipodi:nodetypes="sssccs"
       inkscape:connector-curvature="0"
       id="path9044"
       d="m 14.007146,54.33274 c 0,1.151753 -2.658555,2.085432 -6.0081392,2.085432 -3.3495839,0 -6.0081394,-0.933679 -6.0081394,-2.085432 0,-1.151752 0,-1.853716 0,-1.853716 l 12.0162786,0 c 0,0 0,1.27784 0,1.853716 z"
       style="fill:#808080;fill-opacity:1;fill-rule:nonzero;stroke:none" />
    <path
       style="fill:#f5f5f5;fill-opacity:1;fill-rule:nonzero;stroke:none"
       d="m 14.007146,53.405882 c 0,1.151753 -2.658555,2.085432 -6.0081392,2.085432 -3.3495839,0 -6.0081394,-0.933679 -6.0081394,-2.085432 0,-1.151753 0,-1.390288 0,-1.390288 l 12.0162786,0 c 0,0 0,0.814411 0,1.390288 z"
       id="path9046"
       inkscape:connector-curvature="0"
       sodipodi:nodetypes="sssccs" />
    <path
       sodipodi:type="arc"
       style="fill:#808080;fill-opacity:1;fill-rule:nonzero;stroke:none"
       id="path9016"
       sodipodi:cx="376"
       sodipodi:cy="392"
       sodipodi:rx="56"
       sodipodi:ry="16"
       d="m 432,392 a 56,16 0 0 1 -56,16 56,16 0 0 1 -56,-16 56,16 0 0 1 56,-16 56,16 0 0 1 56,16 z"
       transform="matrix(0.10714285,0,0,0.1303395,-32.285711,0.92251148)" />
  </g>
</svg>
