<?xml version="1.0" encoding="UTF-8" standalone="no"?>
<!-- Created with Inkscape (http://www.inkscape.org/) -->

<svg
   xmlns:dc="http://purl.org/dc/elements/1.1/"
   xmlns:cc="http://creativecommons.org/ns#"
   xmlns:rdf="http://www.w3.org/1999/02/22-rdf-syntax-ns#"
   xmlns:svg="http://www.w3.org/2000/svg"
   xmlns="http://www.w3.org/2000/svg"
   xmlns:xlink="http://www.w3.org/1999/xlink"
   xmlns:sodipodi="http://sodipodi.sourceforge.net/DTD/sodipodi-0.dtd"
   xmlns:inkscape="http://www.inkscape.org/namespaces/inkscape"
   width="64"
   height="64"
   id="svg3003"
   version="1.1"
   inkscape:version="0.91 r13725"
   sodipodi:docname="app-database-64.svg"
   inkscape:export-filename="C:\wamp\www\TESTY\git-hub\system-icons\file-types\app-database\app-database-64.png"
   inkscape:export-xdpi="90"
   inkscape:export-ydpi="90">
  <defs
     id="defs3005">
    <linearGradient
       id="linearGradient9828">
      <stop
         id="stop9830"
         offset="0"
         style="stop-color:#c0c0c0;stop-opacity:1;" />
      <stop
         id="stop9832"
         offset="1"
         style="stop-color:#e0e0e0;stop-opacity:1;" />
    </linearGradient>
    <linearGradient
       inkscape:collect="always"
       xlink:href="#linearGradient9828"
       id="linearGradient15856"
       gradientUnits="userSpaceOnUse"
       x1="427.69232"
       y1="408"
       x2="332.92307"
       y2="372.44446" />
  </defs>
  <sodipodi:namedview
     id="base"
     pagecolor="#ffffff"
     bordercolor="#666666"
     borderopacity="1.0"
     inkscape:pageopacity="0.0"
     inkscape:pageshadow="2"
     inkscape:zoom="15.556349"
     inkscape:cx="32.595671"
     inkscape:cy="19.870241"
     inkscape:current-layer="layer1"
     showgrid="true"
     inkscape:document-units="px"
     inkscape:grid-bbox="true"
     showguides="true"
     inkscape:guide-bbox="true"
     inkscape:window-width="1920"
     inkscape:window-height="1028"
     inkscape:window-x="2872"
     inkscape:window-y="532"
     inkscape:window-maximized="1">
    <inkscape:grid
       type="xygrid"
       id="grid3011"
       empspacing="4"
       visible="true"
       enabled="true"
       snapvisiblegridlinesonly="true" />
    <sodipodi:guide
       orientation="1,0"
       position="8,176"
       id="guide3013" />
    <sodipodi:guide
       orientation="0,1"
       position="184,496"
       id="guide3015" />
    <sodipodi:guide
       orientation="0,1"
       position="40,8"
       id="guide3017" />
    <sodipodi:guide
       orientation="1,0"
       position="496,248"
       id="guide3019" />
    <sodipodi:guide
       orientation="1,0"
       position="56,96"
       id="guide3104" />
    <sodipodi:guide
       orientation="0,1"
       position="64,56"
       id="guide3106" />
    <sodipodi:guide
       orientation="1,0"
       position="24,32"
       id="guide3393" />
    <sodipodi:guide
       orientation="0,1"
       position="52,28"
       id="guide3395" />
  </sodipodi:namedview>
  <metadata
     id="metadata3008">
    <rdf:RDF>
      <cc:Work
         rdf:about="">
        <dc:format>image/svg+xml</dc:format>
        <dc:type
           rdf:resource="http://purl.org/dc/dcmitype/StillImage" />
        <dc:title />
      </cc:Work>
    </rdf:RDF>
  </metadata>
  <g
     id="layer1"
     inkscape:label="Layer 1"
     inkscape:groupmode="layer">
    <path
       style="fill:#808080;fill-opacity:1;fill-rule:nonzero;stroke:none"
       d="m 14,8 36,0 0,48 -36,0 z"
       id="rect3021" />
    <path
       style="fill:#fefefe;fill-opacity:1;fill-rule:nonzero;stroke:none"
       d="m 15,9 34,0 0,46 -34,0 z"
       id="rect3791"
       inkscape:connector-curvature="0"
       sodipodi:nodetypes="ccccc" />
    <rect
       style="fill:#a9a9a9;fill-opacity:1;fill-rule:nonzero;stroke:none"
       id="rect4073"
       width="34"
       height="4"
       x="15"
       y="9" />
    <rect
       y="17"
       x="15"
       height="3"
       width="34"
       id="rect4077"
       style="fill:#c0c0c0;fill-opacity:1;fill-rule:nonzero;stroke:none" />
    <rect
       y="9"
       x="23"
       height="4"
       width="1"
       id="rect4107"
       style="fill:#ffffff;fill-opacity:1;fill-rule:nonzero;stroke:none" />
    <rect
       style="fill:#ffffff;fill-opacity:1;fill-rule:nonzero;stroke:none"
       id="rect4109"
       width="0.99999934"
       height="4"
       x="31"
       y="9" />
    <rect
       y="11"
       x="68"
       height="2"
       width="0.99999934"
       id="rect3369"
       style="fill:#ffffff;fill-opacity:1;fill-rule:nonzero;stroke:none" />
    <rect
       y="9"
       x="38"
       height="4"
       width="0.99999934"
       id="rect3371"
       style="fill:#ffffff;fill-opacity:1;fill-rule:nonzero;stroke:none" />
    <rect
       style="fill:#c0c0c0;fill-opacity:1;fill-rule:nonzero;stroke:none"
       id="rect3373"
       width="34"
       height="3"
       x="15"
       y="24" />
    <rect
       y="31"
       x="15"
       height="3"
       width="34"
       id="rect3375"
       style="fill:#c0c0c0;fill-opacity:1;fill-rule:nonzero;stroke:none" />
    <rect
       style="fill:#c0c0c0;fill-opacity:1;fill-rule:nonzero;stroke:none"
       id="rect3377"
       width="34"
       height="3"
       x="15"
       y="38" />
    <rect
       y="45"
       x="15"
       height="3"
       width="34"
       id="rect3379"
       style="fill:#c0c0c0;fill-opacity:1;fill-rule:nonzero;stroke:none" />
    <rect
       style="fill:#c0c0c0;fill-opacity:1;fill-rule:nonzero;stroke:none"
       id="rect3381"
       width="34"
       height="3"
       x="15"
       y="52" />
    <rect
       style="fill:#d3d3d3;fill-opacity:1;fill-rule:nonzero;stroke:none"
       id="rect4097"
       width="1"
       height="42"
       x="23"
       y="13" />
    <rect
       y="13"
       x="31"
       height="42"
       width="1"
       id="rect3383"
       style="fill:#d3d3d3;fill-opacity:1;fill-rule:nonzero;stroke:none" />
    <rect
       style="fill:#d3d3d3;fill-opacity:1;fill-rule:nonzero;stroke:none"
       id="rect3385"
       width="1"
       height="42"
       x="38"
       y="13" />
    <g
       id="g9836"
       transform="matrix(0.14950247,0,0,0.14950247,-17.183075,48.504135)">
      <path
         style="fill:#808080;fill-opacity:1;fill-rule:nonzero;stroke:none"
         d="m 375.99939,-84.028513 c -31.83444,0 -58.00173,9.464903 -60.0006,21.428788 0.0213,26.514011 -0.0239,55.5760233 0,77.143638 0.91018,12.350461 27.43831,22.26585 60.0006,22.26585 32.56229,0 59.09042,-9.915389 60.00061,-22.26585 -0.11663,-25.765611 0.0953,-53.818091 0,-77.143638 -1.99888,-11.963885 -28.16616,-21.428788 -60.00061,-21.428788 z"
         id="path9058"
         inkscape:connector-curvature="0"
         sodipodi:nodetypes="sccsccs" />
      <path
         sodipodi:nodetypes="sccsccs"
         inkscape:connector-curvature="0"
         id="path9048"
         d="m 376,-80 c -29.71185,0 -54.1344,8.83382 -56,20 0.0199,24.74616 -0.0223,51.87043 0,72 0.8495,11.52698 25.60883,20.78125 56,20.78125 30.39116,0 55.1505,-9.25427 56,-20.78125 -0.10885,-24.04766 0.0889,-50.22971 0,-72 -1.8656,-11.16618 -26.28815,-20 -56,-20 z"
         style="fill:#ffffff;fill-opacity:1;fill-rule:nonzero;stroke:none" />
      <path
         sodipodi:nodetypes="sssccs"
         inkscape:connector-curvature="0"
         id="path9030"
         d="m 428,10 c 0,9.94113 -23.28119,18 -52,18 -28.71881,0 -52,-8.05887 -52,-18 0,-9.94113 0,-18 0,-18 l 104,0 c 0,0 0,13.029435 0,18 z"
         style="fill:#c0c0c0;fill-opacity:1;fill-rule:nonzero;stroke:none" />
      <path
         sodipodi:nodetypes="sssccs"
         inkscape:connector-curvature="0"
         id="path9028"
         d="m 428,2 c 0,9.94113 -23.28119,18 -52,18 -28.71881,0 -52,-8.05887 -52,-18 0,-9.94113 0,-15.999997 0,-15.999997 l 104,0 c 0,0 0,11.029432 0,15.999997 z"
         style="fill:#f5f5f5;fill-opacity:1;fill-rule:nonzero;stroke:none" />
      <path
         style="fill:#c0c0c0;fill-opacity:1;fill-rule:nonzero;stroke:none"
         d="m 428,-6 c 0,9.94113 -23.28119,18 -52,18 -28.71881,0 -52,-8.05887 -52,-18 0,-9.94113 0,-15.999997 0,-15.999997 l 104,0 c 0,0 0,11.029432 0,15.999997 z"
         id="path9036"
         inkscape:connector-curvature="0"
         sodipodi:nodetypes="sssccs" />
      <path
         sodipodi:nodetypes="sssccs"
         inkscape:connector-curvature="0"
         id="path9038"
         d="m 428,-14 c 0,9.94113 -23.28119,18 -52,18 -28.71881,0 -52,-8.05887 -52,-18 0,-9.94113 0,-15.999997 0,-15.999997 l 104,0 c 0,0 0,11.029432 0,15.999997 z"
         style="fill:#f5f5f5;fill-opacity:1;fill-rule:nonzero;stroke:none" />
      <path
         style="fill:#c0c0c0;fill-opacity:1;fill-rule:nonzero;stroke:none"
         d="m 428,-22 c 0,9.94113 -23.28119,18 -52,18 -28.71881,0 -52,-8.05887 -52,-18 0,-9.94113 0,-15.999997 0,-15.999997 l 104,0 c 0,0 0,11.029432 0,15.999997 z"
         id="path9040"
         inkscape:connector-curvature="0"
         sodipodi:nodetypes="sssccs" />
      <path
         sodipodi:nodetypes="sssccs"
         inkscape:connector-curvature="0"
         id="path9042"
         d="m 428,-30 c 0,9.94113 -23.28119,18 -52,18 -28.71881,0 -52,-8.05887 -52,-18 0,-9.94113 0,-15.999997 0,-15.999997 l 104,0 c 0,0 0,11.029432 0,15.999997 z"
         style="fill:#f5f5f5;fill-opacity:1;fill-rule:nonzero;stroke:none" />
      <path
         style="fill:#c0c0c0;fill-opacity:1;fill-rule:nonzero;stroke:none"
         d="m 428,-38 c 0,9.94113 -23.28119,18 -52,18 -28.71881,0 -52,-8.05887 -52,-18 0,-9.94113 0,-15.999997 0,-15.999997 l 104,0 c 0,0 0,11.029432 0,15.999997 z"
         id="path9044"
         inkscape:connector-curvature="0"
         sodipodi:nodetypes="sssccs" />
      <path
         sodipodi:nodetypes="sssccs"
         inkscape:connector-curvature="0"
         id="path9046"
         d="m 428,-46 c 0,9.94113 -23.28119,18 -52,18 -28.71881,0 -52,-8.05887 -52,-18 0,-9.94113 0,-12 0,-12 l 104,0 c 0,0 0,7.029435 0,12 z"
         style="fill:#f5f5f5;fill-opacity:1;fill-rule:nonzero;stroke:none" />
      <path
         transform="matrix(0.92857143,0,0,1.125,26.85714,-499)"
         d="m 432,392 a 56,16 0 0 1 -56,16 56,16 0 0 1 -56,-16 56,16 0 0 1 56,-16 56,16 0 0 1 56,16 z"
         sodipodi:ry="16"
         sodipodi:rx="56"
         sodipodi:cy="392"
         sodipodi:cx="376"
         id="path9016"
         style="fill:url(#linearGradient15856);fill-opacity:1;fill-rule:nonzero;stroke:none"
         sodipodi:type="arc" />
    </g>
  </g>
</svg>
