<?xml version="1.0" encoding="UTF-8" standalone="no"?>
<!-- Created with Inkscape (http://www.inkscape.org/) -->

<svg
   xmlns:dc="http://purl.org/dc/elements/1.1/"
   xmlns:cc="http://creativecommons.org/ns#"
   xmlns:rdf="http://www.w3.org/1999/02/22-rdf-syntax-ns#"
   xmlns:svg="http://www.w3.org/2000/svg"
   xmlns="http://www.w3.org/2000/svg"
   xmlns:xlink="http://www.w3.org/1999/xlink"
   xmlns:sodipodi="http://sodipodi.sourceforge.net/DTD/sodipodi-0.dtd"
   xmlns:inkscape="http://www.inkscape.org/namespaces/inkscape"
   inkscape:export-ydpi="240.00000"
   inkscape:export-xdpi="240.00000"
   inkscape:export-filename="/home/jimmac/gfx/novell/pdes/trunk/docs/BIGmime-text.png"
   sodipodi:docname="Gnome-x-office-document-PDF.svg"
   inkscape:version="0.48.5 r10040"
   sodipodi:version="0.32"
   id="svg249"
   height="256"
   width="256"
   inkscape:output_extension="org.inkscape.output.svg.inkscape"
   version="1.1">
  <defs
     id="defs3">
    <linearGradient
       inkscape:collect="always"
       id="linearGradient3656">
      <stop
         style="stop-color:#ffffff;stop-opacity:1;"
         offset="0"
         id="stop3658" />
      <stop
         style="stop-color:#ffffff;stop-opacity:0;"
         offset="1"
         id="stop3660" />
    </linearGradient>
    <linearGradient
       inkscape:collect="always"
       xlink:href="#linearGradient3656"
       id="linearGradient6352"
       gradientUnits="userSpaceOnUse"
       x1="-26.753757"
       y1="11.566258"
       x2="-24.75"
       y2="9.687501" />
    <linearGradient
       inkscape:collect="always"
       id="linearGradient3520">
      <stop
         style="stop-color:#000000;stop-opacity:0.41295547"
         offset="0"
         id="stop3522" />
      <stop
         style="stop-color:#000000;stop-opacity:0;"
         offset="1"
         id="stop3524" />
    </linearGradient>
    <linearGradient
       inkscape:collect="always"
       xlink:href="#linearGradient3520"
       id="linearGradient6350"
       gradientUnits="userSpaceOnUse"
       gradientTransform="matrix(0.9223058,0,0,0.9185751,-92.447368,1.3256997)"
       x1="-18.588562"
       y1="11.052948"
       x2="-28.789402"
       y2="14.069944" />
    <linearGradient
       id="linearGradient3671">
      <stop
         style="stop-color:#ffffff;stop-opacity:1;"
         offset="0"
         id="stop3673" />
      <stop
         id="stop3691"
         offset="0.47533694"
         style="stop-color:#ffffff;stop-opacity:1;" />
      <stop
         style="stop-color:#ffffff;stop-opacity:0;"
         offset="1"
         id="stop3675" />
    </linearGradient>
    <radialGradient
       inkscape:collect="always"
       xlink:href="#linearGradient3671"
       id="radialGradient6348"
       gradientUnits="userSpaceOnUse"
       gradientTransform="matrix(0.4073362,-0.2798276,0.7510293,1.0932492,-115.18484,-8.4378699)"
       cx="-26.305403"
       cy="10.108011"
       fx="-26.305403"
       fy="10.108011"
       r="7.0421038" />
    <linearGradient
       inkscape:collect="always"
       id="linearGradient3741">
      <stop
         style="stop-color:#ffffff;stop-opacity:1;"
         offset="0"
         id="stop3743" />
      <stop
         style="stop-color:#ffffff;stop-opacity:0;"
         offset="1"
         id="stop3745" />
    </linearGradient>
    <radialGradient
       inkscape:collect="always"
       xlink:href="#linearGradient3741"
       id="radialGradient6346"
       gradientUnits="userSpaceOnUse"
       gradientTransform="matrix(1.8860258,0,0,1.1764706,-3.5441033,-4.2352941)"
       cx="4"
       cy="5.2999997"
       fx="4"
       fy="5.2999997"
       r="17" />
    <linearGradient
       inkscape:collect="always"
       id="linearGradient3613">
      <stop
         style="stop-color:#888a85;stop-opacity:1"
         offset="0"
         id="stop3615" />
      <stop
         style="stop-color:#babdb6;stop-opacity:1"
         offset="1"
         id="stop3617" />
    </linearGradient>
    <linearGradient
       inkscape:collect="always"
       xlink:href="#linearGradient3613"
       id="linearGradient6344"
       gradientUnits="userSpaceOnUse"
       gradientTransform="translate(-90,0)"
       x1="-47.5"
       y1="49.020683"
       x2="-62.75"
       y2="-22.502075" />
    <linearGradient
       id="linearGradient3683">
      <stop
         id="stop3685"
         offset="0"
         style="stop-color:#f6f6f5;stop-opacity:1;" />
      <stop
         id="stop3689"
         offset="1"
         style="stop-color:#d3d7cf;stop-opacity:1" />
    </linearGradient>
    <radialGradient
       inkscape:collect="always"
       xlink:href="#linearGradient3683"
       id="radialGradient6342"
       gradientUnits="userSpaceOnUse"
       gradientTransform="matrix(3.9957492,0,0,1.9350367,0.62141,-31.167422)"
       cx="-30.249996"
       cy="35.357208"
       fx="-30.249996"
       fy="35.357208"
       r="18.000002" />
    <linearGradient
       inkscape:collect="always"
       xlink:href="#linearGradient3702"
       id="linearGradient6340"
       gradientUnits="userSpaceOnUse"
       x1="25.058096"
       y1="47.027729"
       x2="25.058096"
       y2="39.999443" />
    <radialGradient
       inkscape:collect="always"
       xlink:href="#linearGradient3688"
       id="radialGradient6338"
       gradientUnits="userSpaceOnUse"
       gradientTransform="matrix(2.003784,0,0,1.4,-20.01187,-104.4)"
       cx="4.9929786"
       cy="43.5"
       fx="4.9929786"
       fy="43.5"
       r="2.5" />
    <radialGradient
       inkscape:collect="always"
       xlink:href="#linearGradient3688"
       id="radialGradient6336"
       gradientUnits="userSpaceOnUse"
       gradientTransform="matrix(2.003784,0,0,1.4,27.98813,-17.4)"
       cx="4.9929786"
       cy="43.5"
       fx="4.9929786"
       fy="43.5"
       r="2.5" />
    <linearGradient
       inkscape:collect="always"
       xlink:href="#linearGradient3702"
       id="linearGradient6334"
       gradientUnits="userSpaceOnUse"
       x1="25.058096"
       y1="47.027729"
       x2="25.058096"
       y2="39.999443" />
    <radialGradient
       inkscape:collect="always"
       xlink:href="#linearGradient3688"
       id="radialGradient6332"
       gradientUnits="userSpaceOnUse"
       gradientTransform="matrix(2.003784,0,0,1.4,-20.01187,-104.4)"
       cx="4.9929786"
       cy="43.5"
       fx="4.9929786"
       fy="43.5"
       r="2.5" />
    <radialGradient
       inkscape:collect="always"
       xlink:href="#linearGradient3688"
       id="radialGradient6330"
       gradientUnits="userSpaceOnUse"
       gradientTransform="matrix(2.003784,0,0,1.4,27.98813,-17.4)"
       cx="4.9929786"
       cy="43.5"
       fx="4.9929786"
       fy="43.5"
       r="2.5" />
    <linearGradient
       id="linearGradient4928">
      <stop
         style="stop-color:#fce94f;stop-opacity:1;"
         offset="0"
         id="stop4930" />
      <stop
         style="stop-color:#fce94f;stop-opacity:0;"
         offset="1"
         id="stop4932" />
    </linearGradient>
    <linearGradient
       id="linearGradient3702">
      <stop
         style="stop-color:black;stop-opacity:0;"
         offset="0"
         id="stop3704" />
      <stop
         id="stop3710"
         offset="0.5"
         style="stop-color:black;stop-opacity:1;" />
      <stop
         style="stop-color:black;stop-opacity:0;"
         offset="1"
         id="stop3706" />
    </linearGradient>
    <linearGradient
       inkscape:collect="always"
       id="linearGradient3688">
      <stop
         style="stop-color:black;stop-opacity:1;"
         offset="0"
         id="stop3690" />
      <stop
         style="stop-color:black;stop-opacity:0;"
         offset="1"
         id="stop3692" />
    </linearGradient>
  </defs>
  <sodipodi:namedview
     inkscape:window-y="-8"
     inkscape:window-x="1592"
     inkscape:window-height="1028"
     inkscape:window-width="1920"
     inkscape:document-units="px"
     inkscape:grid-bbox="true"
     showgrid="false"
     inkscape:current-layer="layer6"
     inkscape:cy="72.006864"
     inkscape:cx="85.170968"
     inkscape:zoom="2"
     inkscape:pageshadow="2"
     inkscape:pageopacity="0.0"
     borderopacity="0.25490196"
     bordercolor="#666666"
     pagecolor="#ffffff"
     id="base"
     inkscape:showpageshadow="false"
     inkscape:window-maximized="1" />
  <metadata
     id="metadata4">
    <rdf:RDF>
      <cc:Work
         rdf:about="">
        <dc:format>image/svg+xml</dc:format>
        <dc:type
           rdf:resource="http://purl.org/dc/dcmitype/StillImage" />
        <dc:title></dc:title>
        <dc:subject>
          <rdf:Bag>
            <rdf:li>rich</rdf:li>
            <rdf:li>text</rdf:li>
            <rdf:li>document</rdf:li>
            <rdf:li>office</rdf:li>
            <rdf:li>word</rdf:li>
            <rdf:li>write</rdf:li>
          </rdf:Bag>
        </dc:subject>
        <cc:license
           rdf:resource="" />
        <dc:creator>
          <cc:Agent>
            <dc:title>Lapo Calamandrei</dc:title>
          </cc:Agent>
        </dc:creator>
        <dc:source />
        <dc:date />
        <dc:rights>
          <cc:Agent>
            <dc:title />
          </cc:Agent>
        </dc:rights>
        <dc:publisher>
          <cc:Agent>
            <dc:title />
          </cc:Agent>
        </dc:publisher>
        <dc:identifier />
        <dc:relation />
        <dc:language />
        <dc:coverage />
        <dc:description />
        <dc:contributor>
          <cc:Agent>
            <dc:title>Jakub Steiner</dc:title>
          </cc:Agent>
        </dc:contributor>
      </cc:Work>
    </rdf:RDF>
  </metadata>
  <g
     inkscape:groupmode="layer"
     id="layer6"
     inkscape:label="Shadow"
     transform="translate(0,208)">
    <path
       d="m 93.300341,-60.760124 c 6.498788,-12.737918 13.884559,-27.089494 19.796079,-41.498006 l 0,0 2.33743,-5.68788 c -7.72152,-29.38279 -12.35164,-52.96847 -8.21526,-68.21924 l 0,0 c 1.11354,-3.97606 5.71868,-6.38842 10.64214,-6.38842 l 0,0 3.0002,0.0439 h 0.55065 c 6.74044,-0.10344 9.91431,8.47084 10.27445,11.80446 l 0,0 c 0.59477,5.55196 -1.9738,14.94813 -1.9738,14.94813 l 0,0 c 0,-3.79424 0.14869,-9.92534 -2.24622,-15.21591 l 0,0 c -2.7876,-6.12153 -5.45031,-9.7787 -7.8377,-10.35841 l 0,0 c -1.20529,0.80505 -2.37691,2.47219 -2.7783,5.67917 l 0,0 c -0.83123,4.49653 -1.08041,10.17222 -1.08041,13.09807 l 0,0 c 0,10.33718 2.03537,23.98126 6.03525,38.04647 l 0,0 c 0.75451,-2.17769 1.41848,-4.26998 1.94649,-6.23042 l 0,0 c 0.82019,-3.08965 6.03467,-23.57059 6.03467,-23.57059 l 0,0 c 0,0 -1.31393,27.26318 -3.14948,35.51214 l 0,0 c -0.39327,1.74319 -0.82717,3.46721 -1.27908,5.2319 l 0,0 c 6.59579,18.429293 17.22398,34.87782 29.90266,46.715975 l 0,0 c 4.99898,4.671938 11.31246,8.438889 17.28789,11.872419 l 0,0 c 13.04927,-1.864592 25.06399,-2.745203 35.08751,-2.634244 l 0,0 c 13.29846,0.175425 23.06,2.142249 27.01282,6.035825 l 0,0 c 1.93547,1.892479 2.7208,4.178205 2.96477,6.740427 l 0,0 c 0.0577,0.996778 -0.42756,3.338846 -0.56983,3.926686 l 0,0 c 0.14227,-0.711532 0.14227,-4.210738 -10.53294,-7.618121 l 0,0 c -8.40753,-2.687713 -24.14274,-2.604071 -43.02396,-0.594223 l 0,0 c 21.83902,10.68455 43.11516,15.993122 49.85791,12.810533 l 0,0 c 1.64851,-0.803347 3.64787,-3.542733 3.64787,-3.542733 l 0,0 c 0,0 -1.18847,5.399777 -2.04176,6.749722 l 0,0 c -1.08914,1.466697 -3.22558,3.055378 -5.25108,3.590949 l 0,0 c -10.64853,2.841041 -38.36711,-3.733264 -62.53134,-17.540567 l 0,0 c -26.99773,3.976064 -56.64713,11.321175 -80.413463,19.116468 l 0,0 C 63.399423,12.994271 45.84085,31.792422 31.556657,24.641311 l 0,0 -5.251662,-2.640639 C 24.170302,20.779651 23.844429,17.807329 24.33817,15.386845 l 0,0 c 1.665361,-8.147882 11.8823,-20.419944 32.405053,-32.674576 l 0,0 c 2.209048,-1.336587 12.049006,-6.539448 12.049006,-6.539448 l 0,0 c 0,0 -7.2847,7.05061 -8.991296,8.43425 l 0,0 C 43.420357,-1.969578 31.330692,14.918081 31.632165,21.465077 l 0,0 0.05931,0.571045 c 13.91479,-1.98314 34.781998,-30.305249 61.608947,-82.796246 m 8.501628,4.353053 c -4.480843,8.438897 -8.860604,16.263222 -12.90405,23.447436 l 0,0 c 22.36702,-9.371194 46.44064,-15.368099 69.35658,-19.628215 l 0,0 c -3.07978,-2.126568 -6.06952,-4.378599 -8.88268,-6.75901 l 0,0 c -12.61942,-10.683964 -22.24039,-24.013208 -29.21433,-38.039504 l 0,0 c -4.42275,11.91541 -9.68195,24.577242 -18.35552,40.979293"
       id="path4463"
       inkscape:connector-curvature="0"
       style="fill:#f91d0a" />
  </g>
  <g
     style="display:inline"
     inkscape:groupmode="layer"
     inkscape:label="Base"
     id="layer1"
     transform="translate(0,208)" />
  <g
     inkscape:groupmode="layer"
     id="layer5"
     inkscape:label="Text"
     style="display:inline"
     transform="translate(0,208)" />
</svg>
