<?xml version="1.0" encoding="UTF-8" standalone="no"?>
<!-- Created with Inkscape (http://www.inkscape.org/) -->

<svg
   xmlns:dc="http://purl.org/dc/elements/1.1/"
   xmlns:cc="http://creativecommons.org/ns#"
   xmlns:rdf="http://www.w3.org/1999/02/22-rdf-syntax-ns#"
   xmlns:svg="http://www.w3.org/2000/svg"
   xmlns="http://www.w3.org/2000/svg"
   xmlns:xlink="http://www.w3.org/1999/xlink"
   xmlns:sodipodi="http://sodipodi.sourceforge.net/DTD/sodipodi-0.dtd"
   xmlns:inkscape="http://www.inkscape.org/namespaces/inkscape"
   width="16"
   height="16"
   id="svg3003"
   version="1.1"
   inkscape:version="0.48.5 r10040"
   sodipodi:docname="app-email-oft-16.svg"
   inkscape:export-filename="C:\wamp\www\TESTY\git-hub\system-icons\file-types\app-email-oft\app-email-oft-16.png"
   inkscape:export-xdpi="90"
   inkscape:export-ydpi="90">
  <defs
     id="defs3005">
    <clipPath
       id="clipPath3008"
       clipPathUnits="userSpaceOnUse">
      <path
         id="path3010"
         d="M 0,4105.95 0,0 l 5477.71,0 0,4105.95 -5477.71,0 z"
         inkscape:connector-curvature="0" />
    </clipPath>
    <clipPath
       id="clipPath3008-4"
       clipPathUnits="userSpaceOnUse">
      <path
         id="path3010-0"
         d="M 0,4105.95 0,0 l 5477.71,0 0,4105.95 -5477.71,0 z" />
    </clipPath>
    <clipPath
       clipPathUnits="userSpaceOnUse"
       id="clipPath3008-40">
      <path
         inkscape:connector-curvature="0"
         d="M 0,4105.95 0,0 l 5477.71,0 0,4105.95 -5477.71,0 z"
         id="path3010-9" />
    </clipPath>
    <linearGradient
       y2="-128"
       x2="320"
       y1="-288"
       x1="176"
       gradientUnits="userSpaceOnUse"
       id="linearGradient3141"
       xlink:href="#linearGradient3818"
       inkscape:collect="always" />
    <linearGradient
       y2="-192"
       x2="372"
       y1="-192"
       x1="140"
       gradientUnits="userSpaceOnUse"
       id="linearGradient3139"
       xlink:href="#linearGradient3810"
       inkscape:collect="always" />
    <linearGradient
       y2="-192"
       x2="372"
       y1="-192"
       x1="140"
       gradientUnits="userSpaceOnUse"
       id="linearGradient3137"
       xlink:href="#linearGradient3788"
       inkscape:collect="always" />
    <linearGradient
       id="linearGradient3818">
      <stop
         style="stop-color:#f7b613;stop-opacity:1;"
         offset="0"
         id="stop3820" />
      <stop
         style="stop-color:#e88738;stop-opacity:1;"
         offset="1"
         id="stop3822" />
    </linearGradient>
    <linearGradient
       id="linearGradient3810">
      <stop
         id="stop3812"
         offset="0"
         style="stop-color:#fff297;stop-opacity:1;" />
      <stop
         id="stop3814"
         offset="1"
         style="stop-color:#ffe550;stop-opacity:1;" />
    </linearGradient>
    <linearGradient
       id="linearGradient3788">
      <stop
         style="stop-color:#efc220;stop-opacity:1;"
         offset="0"
         id="stop3790" />
      <stop
         style="stop-color:#d77c02;stop-opacity:1;"
         offset="1"
         id="stop3792" />
    </linearGradient>
    <clipPath
       id="clipPath3008-40-5"
       clipPathUnits="userSpaceOnUse">
      <path
         id="path3010-9-5"
         d="M 0,4105.95 0,0 l 5477.71,0 0,4105.95 -5477.71,0 z" />
    </clipPath>
    <linearGradient
       inkscape:collect="always"
       xlink:href="#linearGradient3788"
       id="linearGradient3794"
       x1="140"
       y1="-192"
       x2="372"
       y2="-192"
       gradientUnits="userSpaceOnUse" />
    <linearGradient
       inkscape:collect="always"
       xlink:href="#linearGradient3810"
       id="linearGradient3816"
       gradientUnits="userSpaceOnUse"
       x1="140"
       y1="-192"
       x2="372"
       y2="-192" />
    <linearGradient
       inkscape:collect="always"
       xlink:href="#linearGradient3818"
       id="linearGradient3824"
       x1="176"
       y1="-288"
       x2="320"
       y2="-128"
       gradientUnits="userSpaceOnUse" />
    <linearGradient
       inkscape:collect="always"
       xlink:href="#linearGradient3818"
       id="linearGradient3836"
       gradientUnits="userSpaceOnUse"
       x1="176"
       y1="-288"
       x2="320"
       y2="-128" />
    <clipPath
       id="clipPath3008-4-2"
       clipPathUnits="userSpaceOnUse">
      <path
         id="path3010-0-4"
         d="M 0,4105.95 0,0 l 5477.71,0 0,4105.95 -5477.71,0 z" />
    </clipPath>
    <clipPath
       clipPathUnits="userSpaceOnUse"
       id="clipPath3008-409">
      <path
         inkscape:connector-curvature="0"
         d="M 0,4105.95 0,0 l 5477.71,0 0,4105.95 -5477.71,0 z"
         id="path3010-4" />
    </clipPath>
    <linearGradient
       inkscape:collect="always"
       xlink:href="#linearGradient3788"
       id="linearGradient3156"
       gradientUnits="userSpaceOnUse"
       x1="140"
       y1="-192"
       x2="372"
       y2="-192" />
    <linearGradient
       inkscape:collect="always"
       xlink:href="#linearGradient3810"
       id="linearGradient3158"
       gradientUnits="userSpaceOnUse"
       x1="140"
       y1="-192"
       x2="372"
       y2="-192" />
    <linearGradient
       inkscape:collect="always"
       xlink:href="#linearGradient3818"
       id="linearGradient3160"
       gradientUnits="userSpaceOnUse"
       x1="176"
       y1="-288"
       x2="320"
       y2="-128" />
    <linearGradient
       inkscape:collect="always"
       xlink:href="#linearGradient3818"
       id="linearGradient3164"
       gradientUnits="userSpaceOnUse"
       x1="176"
       y1="-288"
       x2="320"
       y2="-128"
       gradientTransform="matrix(0.03746142,0,0,0.03746142,1.2141974,65.996914)" />
    <linearGradient
       inkscape:collect="always"
       xlink:href="#linearGradient3810"
       id="linearGradient3167"
       gradientUnits="userSpaceOnUse"
       x1="140"
       y1="-192"
       x2="372"
       y2="-192"
       gradientTransform="matrix(0.03746142,0,0,0.03746142,1.2141974,65.996914)" />
    <linearGradient
       inkscape:collect="always"
       xlink:href="#linearGradient3788"
       id="linearGradient3170"
       gradientUnits="userSpaceOnUse"
       x1="140"
       y1="-192"
       x2="372"
       y2="-192"
       gradientTransform="matrix(0.03746142,0,0,0.03746142,1.2141974,65.996914)" />
    <linearGradient
       inkscape:collect="always"
       xlink:href="#linearGradient3818"
       id="linearGradient3175"
       gradientUnits="userSpaceOnUse"
       gradientTransform="matrix(0.02868602,0,0,0.02717725,3.1563795,63.718032)"
       x1="176"
       y1="-288"
       x2="320"
       y2="-128" />
  </defs>
  <sodipodi:namedview
     id="base"
     pagecolor="#ffffff"
     bordercolor="#666666"
     borderopacity="1.0"
     inkscape:pageopacity="0.0"
     inkscape:pageshadow="2"
     inkscape:zoom="15.556349"
     inkscape:cx="7.796773"
     inkscape:cy="3.6469241"
     inkscape:current-layer="layer1"
     showgrid="true"
     inkscape:document-units="px"
     inkscape:grid-bbox="true"
     showguides="true"
     inkscape:guide-bbox="true"
     inkscape:window-width="1920"
     inkscape:window-height="1028"
     inkscape:window-x="1592"
     inkscape:window-y="-8"
     inkscape:window-maximized="1">
    <inkscape:grid
       type="xygrid"
       id="grid3011"
       empspacing="4"
       visible="true"
       enabled="true"
       snapvisiblegridlinesonly="true" />
    <sodipodi:guide
       orientation="1,0"
       position="1,3"
       id="guide3013" />
    <sodipodi:guide
       orientation="0,1"
       position="184,496"
       id="guide3015" />
    <sodipodi:guide
       orientation="0,1"
       position="5,1"
       id="guide3017" />
    <sodipodi:guide
       orientation="1,0"
       position="496,248"
       id="guide3019" />
    <sodipodi:guide
       orientation="1,0"
       position="56,96"
       id="guide3104" />
    <sodipodi:guide
       orientation="0,1"
       position="64,56"
       id="guide3106" />
    <sodipodi:guide
       orientation="1,0"
       position="15,3"
       id="guide3018" />
    <sodipodi:guide
       orientation="0,1"
       position="7,15"
       id="guide3020" />
    <sodipodi:guide
       orientation="1,0"
       position="8,15"
       id="guide3105" />
    <sodipodi:guide
       orientation="0,1"
       position="17,8"
       id="guide3107" />
  </sodipodi:namedview>
  <metadata
     id="metadata3008">
    <rdf:RDF>
      <cc:Work
         rdf:about="">
        <dc:format>image/svg+xml</dc:format>
        <dc:type
           rdf:resource="http://purl.org/dc/dcmitype/StillImage" />
        <dc:title></dc:title>
      </cc:Work>
    </rdf:RDF>
  </metadata>
  <g
     id="layer1"
     inkscape:label="Layer 1"
     inkscape:groupmode="layer"
     transform="translate(0,-48)">
    <path
       style="fill:#808080;fill-opacity:1;fill-rule:nonzero;stroke:none"
       d="m 1,50 14,0 0,12 -14,0 z"
       id="rect3021-1"
       inkscape:connector-curvature="0"
       sodipodi:nodetypes="ccccc" />
    <path
       style="fill:#f5f5f5;fill-opacity:1;fill-rule:nonzero;stroke:none"
       d="m 2,51 12,0 0,10 -12,0 z"
       id="rect3791-1"
       inkscape:connector-curvature="0"
       sodipodi:nodetypes="ccccc" />
    <path
       sodipodi:nodetypes="cccccc"
       inkscape:connector-curvature="0"
       id="path3885"
       d="m 8,56 7,5 0,1 -14,0 0,-1 z"
       style="fill:#808080;fill-opacity:1;fill-rule:nonzero;stroke:none" />
    <path
       style="fill:#f5f5f5;fill-opacity:1;fill-rule:nonzero;stroke:none"
       d="m 8,57 6,4 -12,0 z"
       id="path3109"
       inkscape:connector-curvature="0"
       sodipodi:nodetypes="cccc" />
    <path
       style="fill:#808080;fill-opacity:1;fill-rule:nonzero;stroke:none"
       d="m 6,57 c 2,2 2,2 4,0 l 5,-6 0,-1 -14,0 0,1 z"
       id="path3887"
       inkscape:connector-curvature="0"
       sodipodi:nodetypes="ccccccc" />
    <path
       sodipodi:nodetypes="ccccc"
       inkscape:connector-curvature="0"
       id="path3111"
       d="m 6,56 c 2,2 2,2 4,0 l 4,-5 -12,0 z"
       style="fill:#f5f5f5;fill-opacity:1;fill-rule:nonzero;stroke:none" />
    <path
       style="fill:url(#linearGradient3170);fill-opacity:1;fill-rule:nonzero;stroke:none"
       d="m 15,54 -6,0 c -2,0 -3,1.837797 -3,3 0,1.798148 0,6 0,6 l 9,0 c 0,0 0,-7.501544 0,-9 z"
       id="rect3017"
       inkscape:connector-curvature="0"
       sodipodi:nodetypes="cscccc" />
    <path
       sodipodi:nodetypes="cscccc"
       inkscape:connector-curvature="0"
       id="path3808"
       d="m 14,55 -5,0 c -1.1622031,0 -2,0.837797 -2,2 0,1.798148 0,5 0,5 l 7,0 c 0,0 0,-5.501543 0,-7 z"
       style="fill:url(#linearGradient3167);fill-opacity:1;fill-rule:nonzero;stroke:none" />
    <g
       style="font-size:9.5178194px;font-style:normal;font-variant:normal;font-weight:bold;font-stretch:normal;line-height:125%;letter-spacing:0px;word-spacing:0px;fill:url(#linearGradient3164);fill-opacity:1;stroke:none;font-family:Segoe UI;-inkscape-font-specification:Segoe UI Bold"
       id="text3013">
      <path
         d="M 10.47687,61 C 9.7461425,61 9.1506505,60.774667 8.6903912,60.324005 8.23013,59.873344 7.9999998,59.286134 8,58.562374 7.9999998,57.79816 8.2336887,57.180044 8.7010674,56.708025 9.168444,56.236014 9.7876607,56.000005 10.558721,56 c 0.728347,5e-6 1.317313,0.225899 1.766903,0.677681 0.44958,0.451791 0.674373,1.047431 0.674376,1.786919 -3e-6,0.759722 -0.2331,1.372217 -0.699288,1.837489 C 11.834517,60.767363 11.226571,61 10.47687,61 z m 0.04982,-4.062711 c -0.403324,5e-6 -0.7236124,0.143296 -0.9608581,0.429872 -0.2372493,0.286584 -0.3558733,0.665882 -0.3558717,1.137896 -1.6e-6,0.478762 0.1186217,0.857498 0.3558717,1.136211 0.2372457,0.278714 0.5480431,0.418071 0.9323881,0.418071 0.3962,0 0.710552,-0.135424 0.943059,-0.406271 0.232498,-0.270846 0.348752,-0.646773 0.348754,-1.127781 -2e-6,-0.501233 -0.112698,-0.891207 -0.338078,-1.169926 -0.225388,-0.27871 -0.533811,-0.418067 -0.925265,-0.418072 z"
         style="fill:url(#linearGradient3175)"
         id="path3173"
         inkscape:connector-curvature="0" />
    </g>
  </g>
</svg>
