<?xml version="1.0" encoding="UTF-8" standalone="no"?>
<!-- Created with Inkscape (http://www.inkscape.org/) -->

<svg
   xmlns:dc="http://purl.org/dc/elements/1.1/"
   xmlns:cc="http://creativecommons.org/ns#"
   xmlns:rdf="http://www.w3.org/1999/02/22-rdf-syntax-ns#"
   xmlns:svg="http://www.w3.org/2000/svg"
   xmlns="http://www.w3.org/2000/svg"
   xmlns:xlink="http://www.w3.org/1999/xlink"
   xmlns:sodipodi="http://sodipodi.sourceforge.net/DTD/sodipodi-0.dtd"
   xmlns:inkscape="http://www.inkscape.org/namespaces/inkscape"
   width="512"
   height="512"
   id="svg3003"
   version="1.1"
   inkscape:version="0.91 r13725"
   sodipodi:docname="ebook-fb2-512.svg"
   inkscape:export-filename="C:\wamp\www\TESTY\git-hub\system-icons\file-types\ebook-fb2\ebook-fb2-512.png"
   inkscape:export-xdpi="90"
   inkscape:export-ydpi="90">
  <defs
     id="defs3005">
    <linearGradient
       inkscape:collect="always"
       id="linearGradient3803">
      <stop
         style="stop-color:#ffffff;stop-opacity:1;"
         offset="0"
         id="stop3805" />
      <stop
         style="stop-color:#ffffff;stop-opacity:0"
         offset="1"
         id="stop3807" />
    </linearGradient>
    <linearGradient
       id="linearGradient4277">
      <stop
         style="stop-color:#4a4aff;stop-opacity:1;"
         offset="0"
         id="stop4279" />
      <stop
         style="stop-color:#0000d7;stop-opacity:1;"
         offset="1"
         id="stop4281" />
    </linearGradient>
    <linearGradient
       inkscape:collect="always"
       id="linearGradient4233">
      <stop
         style="stop-color:#0000ff;stop-opacity:1;"
         offset="0"
         id="stop4235" />
      <stop
         style="stop-color:#0000ff;stop-opacity:0;"
         offset="1"
         id="stop4237" />
    </linearGradient>
    <linearGradient
       id="linearGradient7905">
      <stop
         style="stop-color:#d4d4d4;stop-opacity:1;"
         offset="0"
         id="stop7907" />
      <stop
         style="stop-color:#ffffff;stop-opacity:1;"
         offset="1"
         id="stop7909" />
    </linearGradient>
    <linearGradient
       id="linearGradient4084">
      <stop
         id="stop4086"
         offset="0"
         style="stop-color:#8b4513;stop-opacity:1;" />
      <stop
         id="stop4088"
         offset="1"
         style="stop-color:#5a3920;stop-opacity:1;" />
    </linearGradient>
    <linearGradient
       id="linearGradient4066">
      <stop
         style="stop-color:#7f4124;stop-opacity:1;"
         offset="0"
         id="stop4068" />
      <stop
         style="stop-color:#8b4513;stop-opacity:1;"
         offset="1"
         id="stop4070" />
    </linearGradient>
    <clipPath
       id="clipPath3008"
       clipPathUnits="userSpaceOnUse">
      <path
         id="path3010"
         d="M 0,4105.95 0,0 l 5477.71,0 0,4105.95 -5477.71,0 z" />
    </clipPath>
    <mask
       maskUnits="userSpaceOnUse"
       id="mask6083">
      <path
         inkscape:connector-curvature="0"
         id="path6085"
         d="m -346,-240 c -6,0 2,4 2,8 l 0,72.5 c -0.65399,3.82668 -7.75,7.5 -2,7.5 l 290,0 c 16,0 35.47187,-9.634 44,-24 6.12557,-10.31879 5.77451,-25.48073 0,-36 -8.3656,-15.23939 -28,-28 -44,-28 l -290,0 z m 22,36 20,0 c 4.432,0 8,3.568 8,8 0,4.432 -3.568,8 -8,8 l -20,0 c -4.432,0 -8,-3.568 -8,-8 0,-4.432 3.568,-8 8,-8 z m 68,0 20,0 c 4.432,0 8,3.568 8,8 0,4.432 -3.568,8 -8,8 l -20,0 c -4.432,0 -8,-3.568 -8,-8 0,-4.432 3.568,-8 8,-8 z m 68,0 20,0 c 4.432,0 8,3.568 8,8 0,4.432 -3.568,8 -8,8 l -20,0 c -4.432,0 -8,-3.568 -8,-8 0,-4.432 3.568,-8 8,-8 z"
         style="fill:#ffffff;fill-opacity:1;fill-rule:nonzero;stroke:none" />
    </mask>
    <mask
       maskUnits="userSpaceOnUse"
       id="mask6565">
      <path
         inkscape:connector-curvature="0"
         id="path6567"
         d="m -346,-310.64283 c -6,0 2,4 2,8 l 0,72.5 c -0.65399,3.82669 -7.75,7.5 -2,7.5 l 290,0 c 16,0 35.47187,-9.634 44,-24 6.12557,-10.31878 5.77451,-25.48072 0,-36 -8.3656,-15.23939 -28,-28 -44,-28 l -290,0 z m 22,36 20,0 c 4.432,0 8,3.56801 8,8 0,4.43201 -3.568,8 -8,8 l -20,0 c -4.432,0 -8,-3.56799 -8,-8 0,-4.43199 3.568,-8 8,-8 z m 68,0 20,0 c 4.432,0 8,3.56801 8,8 0,4.43201 -3.568,8 -8,8 l -20,0 c -4.432,0 -8,-3.56799 -8,-8 0,-4.43199 3.568,-8 8,-8 z m 68,0 20,0 c 4.432,0 8,3.56801 8,8 0,4.43201 -3.568,8 -8,8 l -20,0 c -4.432,0 -8,-3.56799 -8,-8 0,-4.43199 3.568,-8 8,-8 z"
         style="fill:#ffffff;fill-opacity:1;fill-rule:nonzero;stroke:none" />
    </mask>
    <mask
       maskUnits="userSpaceOnUse"
       id="mask10155">
      <path
         sodipodi:nodetypes="ccscssccscc"
         id="path10157"
         d="m 292,-396 0,88 158.1155,0 c 5.75,0 -1.34601,-3.67332 -2,-7.5 l 0,-72.5 c 0,-4 7.99887,-8.11642 2,-8 z m 143.9905,42.65625 c 0.0733,0.43671 0.125,0.88559 0.125,1.34375 0,0.45816 -0.0517,0.90704 -0.125,1.34375 z"
         style="fill:#ffffff;fill-opacity:1;fill-rule:nonzero;stroke:none"
         inkscape:connector-curvature="0" />
    </mask>
    <mask
       maskUnits="userSpaceOnUse"
       id="mask10161">
      <path
         sodipodi:nodetypes="ccscssccscc"
         id="path10163"
         d="m 292,-356 0,88 158.1155,0 c 5.75,0 -1.34601,-3.67332 -2,-7.5 l 0,-72.5 c 0,-4 7.99887,-8.11642 2,-8 z m 143.9905,42.65625 c 0.0733,0.43671 0.125,0.88559 0.125,1.34375 0,0.45816 -0.0517,0.90704 -0.125,1.34375 z"
         style="fill:#ffffff;fill-opacity:1;fill-rule:nonzero;stroke:none"
         inkscape:connector-curvature="0" />
    </mask>
    <linearGradient
       inkscape:collect="always"
       xlink:href="#linearGradient4233"
       id="linearGradient4264"
       gradientUnits="userSpaceOnUse"
       gradientTransform="matrix(0.94444445,0,0,0.49382716,369.33334,-227.1605)"
       x1="-158.11766"
       y1="63.100014"
       x2="-94.588242"
       y2="208.90001" />
    <linearGradient
       inkscape:collect="always"
       xlink:href="#linearGradient4233"
       id="linearGradient4271"
       gradientUnits="userSpaceOnUse"
       gradientTransform="matrix(0.94444445,0,0,0.49382716,369.33334,-227.1605)"
       x1="-158.11766"
       y1="63.100014"
       x2="-94.588242"
       y2="208.90001" />
    <radialGradient
       inkscape:collect="always"
       xlink:href="#linearGradient3803"
       id="radialGradient3809"
       cx="152"
       cy="-374.62183"
       fx="152"
       fy="-374.62183"
       r="168.01449"
       gradientTransform="matrix(0.8568867,1.023978,-1.8222964,1.5249367,-660.91879,39.629912)"
       gradientUnits="userSpaceOnUse" />
    <radialGradient
       inkscape:collect="always"
       xlink:href="#linearGradient3803"
       id="radialGradient3814"
       gradientUnits="userSpaceOnUse"
       gradientTransform="matrix(0.8568867,1.023978,-1.8222964,1.5249367,-660.91879,487.62991)"
       cx="152"
       cy="-374.62183"
       fx="152"
       fy="-374.62183"
       r="168.01449" />
  </defs>
  <sodipodi:namedview
     id="base"
     pagecolor="#ffffff"
     bordercolor="#666666"
     borderopacity="1.0"
     inkscape:pageopacity="0.0"
     inkscape:pageshadow="2"
     inkscape:zoom="1"
     inkscape:cx="-123.9774"
     inkscape:cy="163.76378"
     inkscape:current-layer="layer1"
     showgrid="true"
     inkscape:document-units="px"
     inkscape:grid-bbox="true"
     showguides="true"
     inkscape:guide-bbox="true"
     inkscape:window-width="1920"
     inkscape:window-height="1028"
     inkscape:window-x="2872"
     inkscape:window-y="532"
     inkscape:window-maximized="1"
     inkscape:snap-bbox="true"
     inkscape:bbox-nodes="true"
     inkscape:object-paths="true"
     inkscape:object-nodes="true">
    <inkscape:grid
       type="xygrid"
       id="grid3011"
       empspacing="4"
       visible="true"
       enabled="true"
       snapvisiblegridlinesonly="true" />
    <sodipodi:guide
       orientation="1,0"
       position="16,376"
       id="guide3013" />
    <sodipodi:guide
       orientation="0,1"
       position="184,496"
       id="guide3015" />
    <sodipodi:guide
       orientation="0,1"
       position="336,16"
       id="guide3017" />
    <sodipodi:guide
       orientation="1,0"
       position="496,248"
       id="guide3019" />
    <sodipodi:guide
       orientation="1,0"
       position="280,312"
       id="guide3104" />
    <sodipodi:guide
       orientation="0,1"
       position="488,144"
       id="guide3106" />
    <sodipodi:guide
       orientation="1,0"
       position="268,328"
       id="guide9774" />
    <sodipodi:guide
       orientation="1,0"
       position="220,48"
       id="guide10416" />
  </sodipodi:namedview>
  <metadata
     id="metadata3008">
    <rdf:RDF>
      <cc:Work
         rdf:about="">
        <dc:format>image/svg+xml</dc:format>
        <dc:type
           rdf:resource="http://purl.org/dc/dcmitype/StillImage" />
        <dc:title />
      </cc:Work>
    </rdf:RDF>
  </metadata>
  <g
     id="layer1"
     inkscape:label="Layer 1"
     inkscape:groupmode="layer"
     transform="translate(0,448)">
    <path
       style="fill:#808080;fill-opacity:1;fill-rule:nonzero;stroke:none"
       d="m 82,-434 348,0 0,482 -348,0 z"
       id="rect3021"
       inkscape:connector-curvature="0"
       sodipodi:nodetypes="ccccc" />
    <path
       style="fill:#cccccc;fill-opacity:1;fill-rule:nonzero;stroke:none"
       d="m 84,-82 344,0 0,128 -344,0 z"
       id="rect3791"
       inkscape:connector-curvature="0"
       sodipodi:nodetypes="ccccc" />
    <path
       sodipodi:nodetypes="ccccc"
       inkscape:connector-curvature="0"
       id="path3457"
       d="m 84.152843,-432 343.808387,0 0,348 -343.808387,0 z"
       style="fill:#cccccc;fill-opacity:1;fill-rule:nonzero;stroke:none" />
    <path
       style="fill:#f9f9f9;fill-opacity:1;fill-rule:nonzero;stroke:none"
       d="M 87.971025,-428 424,-428 l 0,340 -336.028975,0 z"
       id="path3461"
       inkscape:connector-curvature="0"
       sodipodi:nodetypes="ccccc" />
    <text
       xml:space="preserve"
       style="font-style:normal;font-variant:normal;font-weight:normal;font-stretch:normal;font-size:99.20789337px;line-height:125%;font-family:'MV Boli';-inkscape-font-specification:'MV Boli';letter-spacing:0px;word-spacing:0px;fill:#000000;fill-opacity:1;stroke:none"
       x="172.29333"
       y="17.289526"
       id="text4285"
       sodipodi:linespacing="125%"><tspan
         sodipodi:role="line"
         id="tspan4287"
         x="172.29333"
         y="17.289526">fb2</tspan></text>
    <path
       id="path4093-0"
       sodipodi:nodetypes="ccccccc"
       style="fill:#ffffff;stroke:#333333;stroke-width:6.62778997;stroke-opacity:1"
       inkscape:connector-curvature="0"
       d="m 111.28492,-348.60683 c 52.6184,0 105.23556,-39.4638 144.70059,0 39.4638,-39.4638 92.08096,0 144.7006,0 l 0,197.31899 c -52.6184,0 -105.23556,-39.4638 -144.7006,0 -39.4638,-39.4638 -92.08096,0 -144.70059,0 z" />
    <g
       id="g5803"
       transform="matrix(0.85227273,0,0,0.85227273,414.50824,1.0909181)">
      <path
         sodipodi:nodetypes="ccccc"
         style="fill:#bc1213"
         d="m -176,-304 52,-52 52,52 -51.94294,52.21791 z"
         id="path5694"
         inkscape:connector-curvature="0" />
      <path
         sodipodi:nodetypes="ccccccccsssscssscscsssssscccccsssscsssssscssssscssss"
         style="fill:#817d82;fill-opacity:1"
         d="m -300,-392 176,0 0,16 -68,72 68,72 0,16 -176,0 z m 94.11542,163.8095 c 7.89373,-4.81311 7.606,-2.52787 7.606,-60.4098 0,-48.31132 -0.14583,-52.29926 -2.01691,-55.15572 -4.97193,-7.59031 -14.40276,-9.49748 -22.75632,-4.60196 l -4.84894,2.84166 0,-15.5597 c 0,-11.98947 -0.35987,-15.85837 -1.56839,-16.86135 -0.99469,-0.82551 -4.98133,-1.18224 -10.89872,-0.97523 l -9.33034,0.32641 -0.28745,74.82289 c -0.2271,59.11844 0.008,75.01014 1.11782,75.71504 0.77289,0.49069 5.27513,0.89987 10.00497,0.90928 7.20653,0.0143 8.84174,-0.32844 10.09373,-2.11591 1.45637,-2.07926 1.60585,-2.06532 5.93193,0.55319 5.45229,3.30019 12.05214,3.4992 16.95262,0.5112 z m -21.47649,-19.25804 c -0.31248,-0.8143 -0.43599,-19.83851 -0.27446,-42.27601 l 0.29369,-40.79547 2.79454,0 2.79455,0 0,41.91817 0,41.91817 -2.52009,0.35786 c -1.38605,0.19681 -2.77575,-0.30841 -3.08823,-1.12272 z m -37.467,18.16452 c 0.74803,-1.3977 1.15715,-19.78508 1.15715,-52.00619 l 0,-49.84405 2.79454,-1.06249 c 2.61382,-0.99377 2.79455,-1.56895 2.79455,-8.89358 0,-7.42091 -0.14637,-7.86783 -2.79455,-8.53248 -2.43001,-0.60989 -2.79454,-1.31833 -2.79454,-5.43096 0,-3.98186 0.44954,-4.9344 2.84355,-6.02518 2.7157,-1.23736 2.82878,-1.66003 2.51509,-9.40142 l -0.32846,-8.10582 -8.02663,-0.32686 c -15.29573,-0.62287 -19.53127,3.31566 -20.2741,18.85238 -0.43183,9.0323 -0.67088,9.88689 -2.85257,10.19809 -2.15972,0.30806 -2.41146,1.13776 -2.70621,8.91904 -0.31072,8.20337 -0.21274,8.59529 2.23563,8.94254 l 2.56061,0.36316 0.55891,50.86072 c 0.3074,27.97339 0.96586,51.48948 1.46325,52.25798 0.60532,0.93528 4.01109,1.39727 10.30048,1.39727 8.14566,0 9.55015,-0.28775 10.5533,-2.16215 z"
         id="path5690"
         inkscape:connector-curvature="0" />
    </g>
  </g>
</svg>
