<?xml version="1.0" encoding="UTF-8" standalone="no"?>
<!-- Created with Inkscape (http://www.inkscape.org/) -->

<svg
   xmlns:dc="http://purl.org/dc/elements/1.1/"
   xmlns:cc="http://creativecommons.org/ns#"
   xmlns:rdf="http://www.w3.org/1999/02/22-rdf-syntax-ns#"
   xmlns:svg="http://www.w3.org/2000/svg"
   xmlns="http://www.w3.org/2000/svg"
   xmlns:sodipodi="http://sodipodi.sourceforge.net/DTD/sodipodi-0.dtd"
   xmlns:inkscape="http://www.inkscape.org/namespaces/inkscape"
   width="16"
   height="16"
   id="svg3003"
   version="1.1"
   inkscape:version="0.91 r13725"
   sodipodi:docname="app-map-kmz-16.svg"
   inkscape:export-filename="C:\wamp\www\TESTY\git-hub\system-icons\file-types\app-map-kmz\app-map-kmz-16.png"
   inkscape:export-xdpi="90"
   inkscape:export-ydpi="90">
  <defs
     id="defs3005" />
  <sodipodi:namedview
     id="base"
     pagecolor="#ffffff"
     bordercolor="#666666"
     borderopacity="1.0"
     inkscape:pageopacity="0.0"
     inkscape:pageshadow="2"
     inkscape:zoom="22"
     inkscape:cx="-2.5503719"
     inkscape:cy="-1.7318722"
     inkscape:current-layer="layer1"
     showgrid="true"
     inkscape:document-units="px"
     inkscape:grid-bbox="true"
     showguides="true"
     inkscape:guide-bbox="true"
     inkscape:window-width="1920"
     inkscape:window-height="1028"
     inkscape:window-x="2872"
     inkscape:window-y="532"
     inkscape:window-maximized="1">
    <inkscape:grid
       type="xygrid"
       id="grid3011"
       empspacing="4"
       visible="true"
       enabled="true"
       snapvisiblegridlinesonly="true" />
    <sodipodi:guide
       orientation="1,0"
       position="1,3"
       id="guide3013" />
    <sodipodi:guide
       orientation="0,1"
       position="184,496"
       id="guide3015" />
    <sodipodi:guide
       orientation="0,1"
       position="5,1"
       id="guide3017" />
    <sodipodi:guide
       orientation="1,0"
       position="496,248"
       id="guide3019" />
    <sodipodi:guide
       orientation="1,0"
       position="56,96"
       id="guide3104" />
    <sodipodi:guide
       orientation="0,1"
       position="64,56"
       id="guide3106" />
    <sodipodi:guide
       orientation="1,0"
       position="15,3"
       id="guide3018" />
    <sodipodi:guide
       orientation="0,1"
       position="7,15"
       id="guide3020" />
  </sodipodi:namedview>
  <metadata
     id="metadata3008">
    <rdf:RDF>
      <cc:Work
         rdf:about="">
        <dc:format>image/svg+xml</dc:format>
        <dc:type
           rdf:resource="http://purl.org/dc/dcmitype/StillImage" />
        <dc:title />
      </cc:Work>
    </rdf:RDF>
  </metadata>
  <g
     id="layer1"
     inkscape:label="Layer 1"
     inkscape:groupmode="layer"
     transform="translate(0,-48)">
    <path
       style="fill:#f2f2f2;fill-opacity:1;fill-rule:evenodd;stroke:#000000;stroke-width:0.00686188px"
       d="m 6.4111871,49.502279 c -0.060689,-9.33e-4 -0.093489,0.0067 -0.116209,0.0091 -0.00915,9.33e-4 -0.016186,0.006 -0.034179,0.0091 -0.1090272,0.0073 -0.1158521,0.03479 -0.1298812,0.03418 -0.00503,0.0025 -0.047172,0.0089 -0.06608,0.0114 -0.025619,0.0035 -0.084414,0.01891 -0.136717,0.03874 -0.057793,0.02668 -0.1959579,0.03943 -0.2369762,0.05697 -0.087375,0.02684 -0.1237619,-0.01451 -0.2552051,0.04557 -0.054437,0.01799 -0.084679,0.0287 -0.1070951,0.03874 -0.012353,0.0055 -0.029742,0.01211 -0.038736,0.02051 -0.022721,0.0217 -0.063322,0.02618 -0.070637,0.02734 -0.018146,0.0085 -0.051471,0.02083 -0.09798,0.05469 -0.051693,0.04636 -0.091065,0.137407 -0.3121705,0.195961 -0.040409,0.01265 -0.083373,0.02156 -0.1298811,0.02506 l 0,-0.0023 c -0.1768842,0.0073 -0.2741147,0.05171 -0.3349568,0.113931 -0.046508,0.03386 -0.078876,0.08501 -0.1093736,0.141274 l -0.05013,0.06608 c -0.00472,0.0082 -0.014398,0.0159 -0.022786,0.0319 -0.00824,0.0157 -0.029105,0.03107 -0.045573,0.05013 -0.016468,0.01891 -0.029841,0.04504 -0.052408,0.0638 -0.024244,0.02013 -0.043961,0.04776 -0.068359,0.07064 -0.045746,0.02973 -0.065383,0.04319 -0.088866,0.07064 -0.064806,0.03522 -0.130128,0.07288 -0.3053346,0.08431 -0.036901,0.0059 -0.086823,0.0063 -0.1048167,0.0114 -0.021959,0.0027 -0.048204,0.01878 -0.075194,0.03418 -0.048185,0.01952 -0.1045903,0.0361 -0.1640604,0.05241 -0.00945,0 -0.039861,0.0023 -0.063801,0.0091 -0.014486,0.004 -0.033373,0.01687 -0.045573,0.01595 -0.08707,-0.0069 -0.042271,0.0027 -0.1116521,0.02278 -0.012047,0.01826 -0.071767,0.01975 -0.1344384,0.02051 -0.00686,0.0076 -0.015934,-3.43e-4 -0.020507,0.0046 -0.0055,0.0058 -0.022906,0.0091 -0.031901,0.0114 -0.082495,0.0087 -0.1175511,0.0099 -0.1230452,0.0114 -0.056115,0.04651 -0.3023755,0.09354 -0.5218034,0.184568 -0.051388,0.02501 -0.2197146,0.03174 -0.2050755,0.04329 0.032632,0.02013 -0.1662845,0.0647 -0.3007774,0.107095 -0.069229,0.04132 -0.087308,0.09698 -0.1777322,0.120767 -0.053066,0.0034 -0.1250494,0.01125 -0.1572245,-0.02962 -0.028211,0.0058 -0.057986,-0.01155 -0.068359,0 -0.00472,0.03449 -0.070199,0.01043 -0.06608,0.02279 -0.00565,0.01693 0.037321,0.02781 0.05013,0.0638 0.00211,0.09485 0.036878,0.164248 0.061522,0.223305 0.010535,0.04785 0.00383,0.06221 -0.00684,0.07747 -0.00397,0.0058 -0.00835,0.04498 -0.00911,0.07975 -9.216e-4,0.0491 0.0085,0.0823 0.00911,0.170897 0.016926,0.07411 0.041933,0.03397 0.038736,0.129881 -0.033696,0.08204 -0.033987,0.08742 -0.00456,0.189125 0.016316,0.0308 0.038585,0.03971 0.038736,0.102538 0.023788,0.018 0.00525,0.0513 0.022786,0.102538 0.00595,0.05978 0.01001,0.08084 0.013672,0.113931 0.00153,0.027 -0.00776,0.04325 -0.00456,0.05469 0.015858,0.05429 0.00477,0.09986 0.029623,0.123045 -0.00213,0.02623 -0.00132,0.04906 0.025064,0.05013 0.021196,0.03233 -0.062385,0.07968 -0.075194,0.138996 -0.041781,0.01586 -0.051785,0.05246 -0.01595,0.118488 -0.083867,0.340198 -0.239701,0.287831 -0.3623001,0.416987 -0.015095,0.0552 0.017799,0.08991 0.011398,0.173174 -0.034463,0.03599 -0.05197,0.05978 -0.047851,0.07975 0.00793,0.03838 0.05464,0.02346 0.1070951,0.04557 0.043915,0.04682 0.068072,0.08991 0.1435529,0.132159 0.088137,0.04925 0.1218562,0.117785 0.154946,0.18229 0.01357,0.01265 0.029627,0.04984 0.068359,0.08659 0.023179,0.02181 0.037936,0.01811 0.088866,0.04785 l 0,0.0023 -0.00228,0.0023 c 0.018451,0.01266 0.028951,0.01799 0.045573,0.03874 0.031259,0.0308 0.010943,0.04403 0.05013,0.08887 0.00138,0.0076 0.00278,0.0152 -0.00911,0.02279 -0.06008,0.05519 -0.034973,0.09504 -0.027344,0.107095 0.01022,0.01647 0.062257,0.06094 -0.091145,0.175454 -0.055354,0.09332 -0.00673,0.164458 0.00684,0.259762 0.00503,0.05992 0.018483,0.112801 0.1116521,0.129881 0.1546208,0.09911 0.016653,0.105228 0.031901,0.157225 0.026991,0.07974 -0.0219,0.07429 -0.015951,0.11393 0.00259,0.04255 0.00501,0.0755 0.086588,0.154946 0.00839,0.06497 -0.011387,0.05036 -0.013672,0.07064 -0.023787,0.0796 -0.04402,0.07653 -0.052408,0.127602 -0.011437,0.166657 0.00143,0.161485 -0.1754545,0.316717 -0.049558,0.08265 0.040667,0.0869 0.052408,0.123045 0.033243,0.234566 0.080248,0.177484 0.1093736,0.241533 0.011894,0.05779 0.03515,0.180992 -0.020507,0.202797 -0.042698,0.05077 -0.04877,0.04626 -0.00684,0.104817 0.01784,0.02607 4.541e-4,0.06456 0.041015,0.06608 0.048794,0.02745 0.095053,0.04083 0.1458315,0.09114 l 0.036458,0.0114 c 0.026836,0.0046 0.046897,0.0098 0.056965,0.02506 0.021044,0.01829 0.04025,0.03557 0.043293,0.07064 -0.025311,0.05642 -0.00591,0.115978 -0.00684,0.175453 l -0.00228,0 c -0.014029,0.01831 0.00983,0.05157 0.020507,0.07292 0.018299,0.03355 0.030916,0.03327 0.05013,0.07292 0.036752,0.04574 0.00561,0.08264 0.00684,0.120766 -0.00778,0.02745 -0.022794,0.0097 -0.020507,0.05697 -0.010523,0.03204 -0.014541,0.02356 -0.025064,0.03418 -0.016169,0.01068 0.00206,0.0408 -0.022786,0.100259 -0.010827,0.02135 -0.00867,0.03184 -0.00684,0.05013 0.00442,0.01219 -0.00943,0.01044 -0.00684,0.05924 -0.00442,0.03508 -0.020044,0.0043 -0.022786,0.0638 -0.00153,0.0305 -0.011398,0.02184 -0.011398,0.07064 -3.056e-4,0.01676 -0.048409,0.03164 -0.061522,0.100259 -0.010523,0.05642 -0.037878,0.07883 -0.063801,0.123045 -0.024093,0.02745 -3.12e-5,0.04395 -0.031901,0.07292 -0.011585,0.03507 -0.036693,0.01199 -0.054687,0.05469 -0.00213,0.01372 -0.049858,-0.0092 -0.041015,0.01367 0.016926,0.01525 -0.00972,0.04253 0.029622,0.04101 0.0215,0.01062 0.02959,0.0091 0.038736,0 0.034006,-0.01677 0.049335,0.01678 0.056965,0 0.012962,-0.01829 0.034711,0.0099 0.054687,0.01595 0.022719,0.0045 0.042643,0.0091 0.052408,0 0.045898,0.0015 0.029614,-0.02046 0.031901,-0.03418 -0.00321,-0.02897 -0.00409,-0.06212 -0.00456,-0.104816 0.019366,-0.02134 0.057357,-0.06002 0.034179,-0.07064 -0.013272,-0.02592 0.012642,-0.01356 0.00456,-0.04101 -0.010068,-0.02434 -0.01711,-0.01291 -0.031901,-0.0114 -0.014027,0.01067 -0.012279,-0.0068 -0.018229,-0.02051 -0.00518,-0.01226 -0.019239,-0.02279 0.00684,-0.02279 0.011433,-0.003 0.019999,-0.006 0.034179,-0.01823 0.015554,-0.03354 0.027731,-0.01215 0.045573,-0.01367 0.025313,0.0046 0.041708,0.0045 0.059244,0.02734 0.014334,0.0076 0.02121,7.62e-4 0.036458,0.0023 0.023482,-0.0046 -0.0065,0.03114 0.025064,0.02962 0.052608,0.01982 0.034315,-0.0031 0.038736,-0.01367 -0.00808,-0.0091 0.00891,-0.02127 0.022786,-0.02279 0.01022,-0.0015 0.018085,0.0037 0.01595,0.01595 0.00259,0.04116 0.0279,0.05551 0.041015,0.03874 0.040867,-0.02897 0.07249,0.02876 0.1048167,0.05469 0.035986,0.04575 -0.00695,0.05763 -0.01595,0.08203 -0.020435,0.03355 -0.00608,0.06903 -0.00684,0.09342 0.015248,0.02898 0.05592,-9.22e-4 0.052408,0.04329 -0.00625,0.0076 -0.018944,0.01742 0.00911,0.02962 0.011282,0.0091 0.012095,0.02203 0.027343,0.02506 0.01662,0.003 0.025943,0.01893 0.034179,0.03418 0.021344,0.0366 0.017772,0.03941 0.018229,0.06381 -0.00488,0.02135 -6.147e-4,0.03192 0.00228,0.04102 0.00731,0.02137 0.02906,0.05796 0.056965,-0.0046 0.010523,-0.04116 0.017828,-0.05703 0.043293,-0.03873 0.03675,0.03964 0.057105,0.01272 0.1002586,0.06152 0.025617,0.03807 0.034406,0.0046 0.054687,0.0091 0.010068,0.003 0.023326,0.0054 0.041015,0.0069 0.035986,0 0.053111,0.01664 0.068359,0.03646 0.021653,-0.0061 0.037752,0.0015 0.056965,0.01367 0.016159,0.0015 0.022633,0.0098 0.022786,0.03418 0.010978,0.02131 0.020913,0.01669 0.034179,0.0091 0.043002,-0.0183 0.047746,0.01818 0.075194,0.0319 0.018298,0.02287 0.013229,-0.02042 0.05013,-0.04329 0.018908,-0.02596 0.032475,-0.0084 0.041015,0.0069 0,0.02897 0.00982,0.05762 0.022786,0.08659 0.016926,0.07008 0.02341,0.08897 0.059244,0.06152 0.02028,-0.0168 0.034821,-0.0054 0.06608,-0.01143 0.014335,-0.0031 0.019014,-0.01519 0.052408,-0.01367 0.013266,-0.003 0.033569,-0.03046 0.034179,-0.0091 0.010057,0.05946 -0.014181,0.09481 0,0.129881 0.014182,0.0091 0.00874,0.02424 -0.013672,0.04102 -0.035682,0.02288 0.019092,0.0555 0.031901,0.04329 0.013876,-0.01062 0.029417,-0.03417 0.043293,-0.02962 0.030957,0.02592 0.01134,-0.02121 0.025064,-0.03646 0.012351,-0.04117 0.037294,-0.0364 0.056965,-0.05468 0.031718,-0.02288 0.045215,-0.0032 0.059244,0.01367 0.015858,0.02288 0.048585,0.02192 0.054687,0.04786 0.022721,0.01374 0.030306,0.0083 0.05013,-0.0023 0.01281,-0.0076 0.00652,-0.0227 0.00911,-0.04557 0.022872,-0.06705 0.097957,-0.02131 0.1048166,-0.0091 0.00869,0.01525 0.049314,-0.0367 0.063801,0.02735 l 0.054687,0.05013 c 0.016316,0.03354 0.1206699,0.106935 0.06608,0.14811 l -0.027343,0 c 0.00336,0.0549 -0.00909,0.0509 -0.01595,0.05697 -0.024551,0.01983 0.026889,0.0357 -0.013672,0.03873 l -0.05013,0.04786 c -0.010827,0.02441 -0.025622,-0.01445 -0.038736,-0.02507 -0.028819,-0.0046 -0.021993,0.0084 -0.029623,0.01595 3.057e-4,0.04571 -0.020987,0.05398 -0.054687,0.03873 -0.038579,-0.02288 -0.034877,0.0493 -0.091145,0.06608 -0.025312,0.02897 -0.020395,0.04322 -0.00911,0.06152 0.015248,0.07472 0.03699,0.04027 0.056965,0.04786 0.011281,0.02288 0.019911,0.03942 0.056965,0.05924 0.042543,0.01833 0.093363,-0.01306 0.1093736,0.02506 0.017993,0.03965 0.012531,0.136032 0.072916,0.11621 0.041321,-0.01372 0.044188,0.02653 0.047851,0.03873 0.021349,0.02897 0.041127,0.05305 0.052408,0.08659 0.014181,0.02897 0.038523,0.04243 0.054687,0.06835 0.017536,0.02439 0.04786,0.03937 0.045572,0.07292 0.00992,0.04726 -0.015261,0.139761 0.043293,0.145831 l 0.072916,0.06835 c 0.019823,0.02744 0.04434,0.01976 0.047851,0.02735 0.051846,0.04879 0.071627,-0.03336 0.091145,-0.05013 0.0061,-0.01525 0.095854,-0.03392 0.095702,-0.102537 0.00701,-0.03964 0.025113,-0.04787 0.052408,-0.05697 0.020433,-0.0061 0.00757,-0.0319 0.054687,-0.02735 0.028973,-0.0015 0.039396,-0.05707 0.06608,-0.02962 0.022568,0.003 0.04674,0.01003 0.059244,-0.02051 0.017536,-0.04422 0.03704,-0.0047 0.043293,0.02278 0.00747,0.02294 0.022717,0.01073 0.041015,-0.0091 0.00808,-0.0091 3.114e-4,-0.01825 -0.00228,-0.02735 -0.035834,-0.0305 -0.018844,-0.0592 -0.01595,-0.07292 0.010371,-0.06251 -0.05013,-0.09797 -0.05013,-0.09797 -0.061456,-0.0061 -0.046754,-0.02349 -0.054687,-0.03873 -0.02943,-0.117411 -0.015245,-0.164046 -0.041015,-0.154946 -0.00976,-0.0016 -0.017606,0.0092 -0.022786,-0.01367 l 0.013672,-0.05241 c 0.010068,-0.03352 0.042758,-0.0098 0.063801,-0.02962 3.386e-4,-5.85e-4 -3.459e-4,-0.0018 0,-0.0023 0.018299,0.01982 0.032389,0.03867 0.063801,0.05697 0.015706,-0.02287 0.03699,-0.0076 0.056965,0 0.025618,0.01678 0.048017,0.03799 0.084309,0.04102 l 0.043293,0 c -0.00716,0.003 0.065222,0.06386 0.091145,0.04557 0.00701,-0.0045 0.04981,0.006 0.054687,0.05468 0.019366,0.02135 0.041446,0.0417 0.047851,0.06152 l 0.025064,0 c 0.017079,0.01372 0.049872,0.05171 0.077473,0.03646 0.018756,-0.03351 0.080492,-0.03046 0.045572,-0.0091 -0.00899,0.04727 0.035037,0.02178 0.00911,0.0843 -0.00625,0.02592 0.00862,0.0433 0.018229,0.0433 0.00671,0 0.00587,-0.0037 0.020507,-0.01595 0.017231,-0.0091 0.035321,-0.0336 0.054687,0.01367 -0.00518,0.05642 0.016913,0.04866 0.043293,0.03646 l 0.029622,-0.0319 0.052408,-0.01367 c 0.046966,-0.01062 0.053576,0.0076 0.06608,0.01367 0.016317,-0.0015 0.018644,-0.0099 0.029622,-0.01595 0.040867,-0.0015 0.051855,0.0159 0.077473,0.02962 l 0.095702,-0.08203 c 0.01281,-0.0076 0.00622,-0.03867 0.00911,-0.05697 0.02943,0.0076 0.052617,0.03257 0.077473,0.05697 0.015706,0.01373 -0.00341,0.03637 -0.025064,0.05924 -0.039952,0.0183 0.021962,0.04927 0.038736,0.07519 0.02104,0.01982 -0.00457,0.01503 0,0.05924 0.00656,0.02743 -0.015677,0.03264 -0.047851,0.02506 -0.021959,-0.01062 -0.023396,0.01132 -0.022786,0.03418 7.63e-4,0.02287 -0.069566,0.03032 -0.1116521,0.04557 l -0.041015,0 c -0.018911,-0.003 -0.016904,0.04179 -0.00684,0.05241 l 0.054687,0.05468 0.036458,0.03873 c 0.018756,0.02129 0.023656,-0.0069 0.034179,-0.01143 -0.0061,-0.03203 0.043817,0.01444 0.06608,0.02051 0,0.02288 -0.013327,0.03248 0.015951,0.07975 0.013572,0.003 0.017901,0.03409 0.025064,0.05697 0.00336,0.01678 0.00421,0.03261 0.01595,0.04786 0.00244,-0.0015 0.024127,0.04477 0.029622,0.05697 0.00701,0.01526 0.063801,0.05013 0.063801,0.05013 0.016468,-0.0015 0.021597,-1.5e-5 0.054687,-0.0091 0.00824,-0.01213 0.028638,-0.0091 0.047851,-0.0046 0.045137,-0.03201 0.072037,-0.09347 0.1435527,-0.07975 0.02089,0 0.064432,0.03586 0.056965,-0.0069 -0.00762,-0.02439 0.014168,-0.07449 -0.036458,-0.05924 -0.018755,0.03659 -0.026033,-0.02878 -0.011398,-0.05013 l 0.036458,0.0046 c 0.0274,0.02527 0.085243,0.02369 0.072916,0.0638 0.00808,0.01373 0.00887,0.02501 -0.00684,0.03873 -0.01113,0.01525 0.017275,0.02425 0.027343,0.03646 0.021349,0.01526 0.038685,0.0014 0.052408,0.01824 0.023484,0.03355 0.032755,-0.0083 0.047851,-0.02506 0.048644,-0.0076 0.051302,0.03178 0.061522,0.0638 0.00351,0.02592 0.038344,0.01062 0.061522,0.01367 0.056875,0.01219 0.010465,0.06603 0.054687,0.07975 0.024397,0.01365 0.059143,0.0442 0.045573,0.0046 -0.012355,-0.02135 -0.00258,-0.02958 -0.00456,-0.0433 0.016774,0.01985 0.029984,0.0029 0.054687,0.02278 0.00138,0.0091 0.0073,-0.01602 0.045572,0.0023 0.00731,0.02741 0.030475,-0.0069 0.045573,0.0069 0.00716,0.01981 0.014975,0.003 0.031901,0.01824 0.00549,0.0045 0.00205,0.02128 0.020507,0.02735 0.032937,0.01525 0.058055,0.02356 0.091145,0.02962 l 0.022786,-0.01367 c -0.021958,-0.01982 -0.016621,-0.01357 0,-0.04102 0.018755,0.02893 0.038236,-8e-5 0.05013,0.02278 -0.0023,0.03964 -0.032309,0.07887 -0.00456,0.113935 0.025616,0.0076 0.046861,0.01741 0.027343,0.03418 -0.00777,0.01829 -0.023998,0.02876 -0.025064,0.05468 -0.018295,0.02439 -0.0032,0.03863 -0.00227,0.06608 0.026527,0.03508 0.021667,0.07211 0.036458,0.08431 0.039493,0.04879 -0.00598,0.06288 0.05013,0.107099 0.031869,-0.0061 0.037783,0.01519 0.088866,0.01367 0.00168,0.02135 0.00537,0.04102 0.031901,0.04102 0.014944,0.02132 0.029713,0.01898 0.045572,0.01595 0.00244,-0.0183 0.028494,0.0084 0.045573,0.0023 0.027749,0.01062 0.023233,0.03864 0.025064,0.06152 0.038732,0.05489 0.017074,0.08492 0.041015,0.123046 4.574e-4,0.121993 0.064981,0.06734 0.034179,0.134438 -0.05825,0.04727 0.00698,0.03797 0.05013,0.03646 0.025922,0.0076 0.053219,-0.01143 0.079751,0.0023 0.041474,0.02745 0.024291,0.07359 0.029622,0.09799 -0.0337,0.06862 0.044636,0.07197 0.011398,0.120766 -0.036292,0.03507 -0.00177,0.06691 0.025064,0.05013 0.013723,-0.0091 0.047493,0.0061 0.061522,-0.0046 0.019823,-0.01525 0.022682,-0.0395 0.05013,-0.04557 0.045746,-0.0076 0.053726,0.07008 0.1070952,0.01823 0.022872,0.01835 0.056861,0.0023 0.084309,-0.01143 -0.027448,-0.05185 0.00513,-0.06906 0.052408,-0.08431 0.0061,-0.03507 -0.00609,-0.03863 -0.00456,-0.06608 0.022875,-0.03202 -0.017597,-0.04548 0.01595,-0.06835 0.018298,-0.01062 0.033385,-0.0212 0.041015,-0.04102 0.093016,-0.003 0.1511388,0.0063 0.1526673,-0.05013 -0.00457,-0.04117 0.03797,-0.02644 0.041015,-0.06608 -0.0061,-0.02896 0.018142,-0.02051 0.041015,-0.02506 0.060998,0.0015 -0.010896,-0.04633 0.059244,-0.0433 l 0,0.0023 c 0.00915,0.0091 0.00758,0.02652 0.00911,0.04329 l 0.068359,0.03418 c 0.00763,0 0.015156,-0.0085 0.022786,0.02051 0.00305,0.03202 -0.011515,0.04075 0.020507,0.109373 0.00915,0.03203 0.014338,0.06443 0.038736,0.09798 -0.00762,0.01983 0.00756,0.01899 0.018229,0.02051 l 0.027344,0.02507 c 0.021347,0.0061 0.034946,8e-5 0.031901,-0.02278 0.0061,-0.0077 0.012111,-0.01909 0.022786,0.0069 -0.00152,0.01372 -0.00915,0.03109 0,0.0433 0.012199,0.01982 0.00915,0.02879 0,0.04557 -0.012199,0.02592 0.00443,0.02886 0.036458,0.02735 0.047271,0.01525 0.029484,0.05859 0.06608,0.02962 0.038122,-0.01525 0.06666,-0.06312 0.1139306,-0.0433 0.00304,0.03355 -0.00238,0.0675 0.025064,0.09343 l -0.011398,0.03646 c -0.00916,0.01983 0.01828,0.04317 0.00456,0.07519 -0.0061,0.01525 -0.024398,0.03337 0,0.04557 0.042695,0.01829 0.042678,0.0135 0.00456,0.05924 -0.015249,0.0122 -0.028078,0.02274 -0.034179,0.03646 -0.019821,0.03813 -0.038104,0.09108 -0.00456,0.109374 0.025923,0.02589 0.046222,-0.01604 0.075194,0.0069 0.022872,0.04423 0.076564,-0.0159 0.1162091,-0.02962 0.00153,-0.02592 0.0014,-0.0516 0.031901,-0.0638 0.02897,0.01062 0.06066,0.02885 0.08659,0.02278 0.02135,-0.01373 0.03415,0.01507 0.04329,0.04557 0.01067,0.01829 0.0182,0.01672 0.02734,0.01823 0.03965,0.01062 0.05612,0.02956 0.07747,0.04784 0.01067,0.0076 0.01979,0.01236 0.0091,-0.04102 -0.01372,-0.02439 0.02664,-0.07816 0.0114,-0.09799 0.0015,-0.04117 0.02658,-0.0477 0.02962,-0.0843 0.01677,-0.02592 -0.0055,-0.0729 0.03418,-0.06835 0.03812,0.02288 0.03493,-0.0212 0.03646,-0.04102 l 0.02734,-0.02735 c 0.0244,-0.003 0.04401,-0.02505 0.05469,-0.01595 0.01372,-0.01524 0.02654,-0.01519 0.03874,-0.01367 0.01525,0.02439 0.03024,-0.0091 0.06836,0 0.0076,0.01676 0.03341,0.02989 0.03646,-0.03873 0.01068,-0.01829 0.02291,-0.03722 -0.0091,-0.03418 -0.01525,-0.01829 0.0075,-0.03039 0.02279,-0.04102 0.04879,0.03505 0.02724,0.01981 0.05469,0.0045 0.03965,0.05335 0.05462,0.01981 0.07292,0.0046 0.09607,0.03964 -0.02236,-0.04184 0.06608,-0.02506 0.0427,-0.003 0.08715,0.03633 0.138996,0.06835 0.03659,0.01982 0.02121,-0.01293 0.03646,-0.02051 0.02135,0.003 0.03564,-0.04243 0.05241,-0.06835 0.03355,0.0305 0.06447,0.04874 0.08887,0.01367 0.003,-0.02739 0.0431,-0.02582 0.09342,-0.01823 -0.0076,0.02439 0.02815,0.0257 0.01595,0.05924 0.01525,0.003 0.0213,0.0099 0.01367,0.02051 -0.0122,0.02135 0.04864,-0.0016 0.04101,0.02278 -0.02135,0.03506 0.06087,-1.24e-4 0.0319,0.0319 -0.0091,0.01374 -0.02369,0.02967 0.01595,0.01595 0.03811,0.07163 0.04314,-0.05494 0.08431,0.0091 -0.0015,0.04572 -0.01695,0.04405 0.04557,0.04102 -0.0061,0.03355 0.01665,0.04247 0.0319,0.05924 0.02135,-0.01835 0.04772,-0.03493 0.08431,-0.02735 0.03659,-0.01982 -0.0016,-0.02574 0.01823,-0.05013 0.02592,-0.01062 0.01419,-0.04317 0.07975,-0.07519 0.02134,-0.01676 0.0378,0.02518 0.08659,-0.0023 0.01982,-0.05947 -0.04852,-0.05611 -0.07292,-0.08203 -0.03501,-0.0061 -0.01143,-0.03184 -0.01143,-0.05013 0.01676,0.0046 0.07513,0.01003 0.09343,-0.02051 0.03355,-0.01829 0.05155,0.0341 0.07748,0.05241 0.02287,0.01525 0.0478,0.01678 0.06152,0 0.0092,-0.0091 7.77e-4,-0.02812 0.01143,-0.03418 0.02898,-0.02439 0.04936,-0.04557 0.04784,-0.04557 0.0061,-0.02739 0.01734,-0.04644 0.05241,-0.01595 0.0244,-0.0015 0.0493,-0.0061 0.06608,0 0.0046,0.0077 0.01436,0.01443 0.03418,0.01595 0.0183,0.01223 0.03639,0.02885 0.05468,0.01823 0.0732,0.07472 0.08281,0.01815 0.09343,0.04102 0.01678,0.01372 0.02426,-0.0068 0.03646,-0.02506 0.03507,-0.01828 0.04255,0.0145 0.05013,-0.0023 0.02744,-0.01683 0.05453,-0.03493 0.0957,-0.02735 0.01373,0.0046 0.02812,0.0046 0.03418,0 0.02134,-0.0077 0.03571,-0.04949 0.0433,-0.01595 0.02745,0.02135 0.05763,0.06986 0.08203,0.05924 0.02288,-0.01982 0.113935,0.04779 0.118489,0.06608 -0.0061,0.02588 0.0037,0.06779 0.02962,0.01595 0.0122,-0.02288 0.04926,-0.05474 0.07975,-0.04102 0.01524,0.03044 0.02498,0.04186 0.04786,0.02051 0.02898,0.01062 0.04774,0.0677 0.07519,0.03873 0.02288,0.02441 0.0357,0.02665 0.03873,0.01143 0.01829,0.0015 0.03944,-0.01003 0.05468,0.0433 0.0046,0.02592 0.0082,0.05008 0.04329,0.0638 0.0122,0.01676 0.05703,0.01496 0.03873,0.07748 -0.0015,0.02288 -0.01535,0.08886 0.02735,0.08886 0.08692,0.04269 0.09945,0.01062 0.111649,0.02735 0.04422,0.02439 0.09325,0.06694 0.138996,0.04102 0.0122,0.01982 0.03264,0.03029 0.02506,0.05468 -0.0015,0.04117 0.02268,0.0037 0.05013,0.01595 0.03965,0.0047 0.08577,0.0373 0.09797,0.01595 0.09455,-0.0366 0.0803,0.06686 0.136718,0.07748 0.0061,0.0015 0.01514,0.01755 0.02735,-0.0023 0.02592,-0.01682 0.03414,-0.003 0.04786,0.0091 0.04879,0.03197 0.05756,-0.02139 0.100262,0.0091 0.01982,0.0275 0.03936,-0.02893 0.07292,-0.0091 0.0091,0.01525 0.02584,0.02805 0.03646,0.04329 0.01678,0.02592 0.0212,0.05914 0.04102,0.08659 0.02287,0.0076 0.04625,0.04566 0.07064,0.02278 0.0244,-0.02282 0.05773,0.02138 0.05924,-0.0091 0.02288,-0.003 0.04618,-0.02136 0.0843,0.0046 0.02744,0.01525 0.02186,0.05174 0.06608,0.02735 0.01525,0.03201 0.05536,0.08515 0.07975,0.06381 0.0076,-0.01678 0.02365,-0.03031 -0.0023,-0.05013 -0.02744,-0.01831 0.01378,-0.02198 -0.01367,-0.03418 -0.03503,-0.0061 0.0099,-0.02422 -0.0069,-0.04557 -0.0062,-0.003 -0.01528,-0.05393 0.0091,-0.05697 0.01529,-0.0076 0.02596,-0.02962 -0.0091,-0.02962 l -0.02278,-0.01143 c -0.0122,-0.04117 -0.03031,0.0054 -0.05013,-0.02051 -0.03813,-0.0686 -0.05392,-0.04093 -0.05241,-0.0638 0,-0.05489 -0.01969,-0.02733 -0.0319,-0.02278 -0.02592,-0.0061 -0.06302,0.004 -0.05241,-0.02962 0.02743,-0.03206 0.01518,-0.03342 0.0046,-0.03646 -0.02596,-0.0046 -0.01818,0.03038 -0.0319,0.0319 -0.03201,-0.01372 -0.01448,-0.03487 -0.0023,-0.05468 l 0.02051,-0.02735 c 0.0091,-0.01373 0.01452,-0.03493 -0.01143,-0.0319 -0.02133,0.0122 -0.04116,-0.02648 -0.0046,-0.05241 0.003,-0.0366 0.0054,-0.07429 0.0023,-0.113935 0.0244,-0.03507 -0.0046,-0.0773 0,-0.123045 0.003,-0.003 0.0023,-0.0136 0.0023,-0.0319 l -0.07975,-0.239254 c -0.003,-0.0305 0.0062,-0.05697 -0.02735,-0.05697 -0.01525,0.0076 -0.07304,-0.04164 -0.04102,-0.07519 0.02288,-0.03201 0.03791,-0.06519 0.05468,-0.100262 0.05946,-0.100647 0.110155,-0.152495 0.120767,-0.19824 -0.003,-0.07015 0.07824,-0.08113 0.08431,-0.120766 0.0061,-0.01982 0.01277,-0.03324 0.04785,-0.08203 0.02898,-0.01372 0.02347,-0.04322 0.04329,-0.06152 0.0122,-0.01678 0.02583,-0.03335 0.0319,-0.05013 0.0122,-0.0076 0.02583,-0.01437 0.0319,-0.02962 0.02436,-0.02592 0.0022,-0.04777 0.01595,-0.07064 0.01219,-0.01224 0.02728,-0.0061 0.04557,-0.01822 0.03507,-0.05948 0.0773,-0.122031 0.123046,-0.189126 l 0.02279,-0.0319 c 0.01675,-0.02592 0.0069,-0.02196 0.01143,-0.03873 0.0076,-0.02288 0.0288,-0.03027 0.04557,-0.05924 0.02897,-0.0305 0.05762,-0.05984 0.08659,-0.102537 0.01678,-0.01525 -0.0031,-0.03025 0.0319,-0.06381 0.01373,-0.003 0.0228,-0.01368 0.0319,-0.02278 0.02744,-0.04269 0.04846,-0.09864 0.08659,-0.127603 0.06862,-0.07472 0.134937,-0.160735 0.205076,-0.236976 0.0305,-0.03354 0.0614,-0.04924 0.09342,-0.08431 -7.64e-4,-0.02441 -0.0098,-0.03208 -0.02051,-0.03418 0.01181,0.0015 0.02117,0.0082 0.02278,0.03418 0.02134,-0.01373 0.05318,-0.02652 0.05924,-0.04329 0.02439,-0.109782 0.05014,-0.06215 0.05924,-0.0957 0.0046,-0.01219 0.01511,-0.0228 0.03646,-0.0319 0.02745,-0.0046 0.04557,-0.01436 0.04557,-0.03418 0.0076,-0.05489 0.009,-0.107694 0.03646,-0.150388 0.03202,-0.01219 0.164207,-0.06002 0.325843,-0.07064 0.0305,0.0045 0.03647,0.0015 0.04557,0 0.0062,-0.0015 0.01143,-0.0083 0.01595,-0.02507 0.01524,-0.05185 0.03261,-0.02416 0.04786,-0.0638 0.01829,-0.09759 0.07605,-0.245232 0.05013,-0.271155 -0.01073,-0.04269 0.01594,-0.07658 0.0069,-0.111649 -0.0047,-0.01982 -0.02429,-0.04473 -0.01367,-0.06608 0.01213,-0.01678 -0.0091,-0.02499 0,-0.04329 -0.0046,-0.03354 -0.06161,0.01409 -0.03873,-0.0957 0.01678,-0.01525 -0.02112,-0.02652 -0.05924,-0.04329 -0.01829,0 -0.0228,-0.0028 -0.0319,-0.05013 0.03813,-0.0305 0.0031,-0.04172 -0.01823,-0.05697 -0.02897,-0.0091 -0.03647,-0.02501 -0.04102,-0.03873 -0.0061,-0.04269 0.0243,-0.03558 0.01823,-0.06608 0.01062,-0.01372 0.01511,-0.03266 0.03646,-0.03418 0.01372,-0.003 0.02584,-0.01593 0.03646,-0.0068 0.03508,-0.003 0.03031,0.01982 0.05013,0 0.01372,-0.0031 0.02421,-0.0038 0.05013,-0.0114 0.01526,-0.0061 0.06774,-0.04248 0.03418,-0.05469 -0.01062,-0.0046 -0.025,-0.0068 -0.04329,-0.0114 -0.0305,-0.0091 -0.02496,-0.04102 -0.05241,-0.04557 -0.0061,0 -0.0022,0.0077 -0.02962,-0.01823 -0.01372,0.003 -0.0098,-0.02582 -0.02962,-0.02279 -0.02292,0.0015 -0.009,-0.02355 -0.0319,-0.02506 -0.0015,-0.01372 -0.01588,-0.02736 -0.03418,-0.03646 -0.01062,-0.0091 -0.01286,-0.01131 -0.02506,-0.03418 -0.03355,-0.0366 -0.01427,-0.07747 -0.05697,-0.07747 -0.0427,-0.02592 0.0032,-0.05091 -0.02278,-0.06152 -0.01374,-0.02445 0.01752,-0.01587 0.0023,-0.03418 -0.01524,-0.0122 0.01452,-0.03342 -0.01143,-0.0319 -0.01377,-0.0092 -0.0099,-0.02736 -0.02051,-0.03646 -0.0091,-0.0061 -0.01976,-0.0015 -0.02735,-0.01367 -0.01985,0.0015 -0.01975,-0.01283 -0.02279,-0.03418 -0.0183,0.0076 -0.01216,-0.02577 -0.01824,-0.04102 -0.01987,-0.02439 0.01594,-0.03793 0.0069,-0.05013 -0.01062,-0.03968 -0.01658,-0.05778 -0.05013,-0.04557 -0.02592,0.0046 -0.0043,-0.04633 -0.05924,-0.04785 -0.0076,-0.02592 -0.02274,-0.03419 -0.03646,-0.03874 -0.0183,-0.03358 -0.03949,-0.01358 -0.03646,-0.03646 0,-0.03355 -0.0075,-0.03106 -0.0319,-0.05241 0,-0.02745 0.01687,-0.03635 -0.02735,-0.0638 -0.01219,-0.01067 -0.0051,-0.03798 -0.03873,-0.04102 -0.01525,0 -0.03799,0.01757 -0.04102,-0.0114 -0.01365,-0.02135 -0.05487,-0.06354 -0.0045,-0.13216 0.0015,-0.02592 0.03796,-0.04701 0.02735,-0.06836 -0.0062,-0.0336 0.003,-0.03419 0.0091,-0.04329 0.01372,-0.02441 0.01684,-0.04396 -0.01822,-0.06836 0,-0.06867 -0.07152,-0.0028 -0.04102,-0.07747 0.01373,-0.01372 0.02904,-0.05242 -0.01823,-0.05697 -0.06098,-0.01434 -0.0135,-0.04543 -0.05924,-0.08203 -0.02592,-0.003 -0.05847,-0.0014 -0.05241,-0.02506 0,-0.03919 0.0078,-0.07045 -0.04102,-0.120767 -0.02437,-0.05017 0.01221,-0.04881 -0.0046,-0.07747 -0.01365,-0.02501 0.01832,-0.04653 -0.0046,-0.0752 -0.01365,-0.0218 0.0092,-0.03744 -0.0046,-0.05924 -0.0092,-0.025 0.013,-0.06684 -0.01143,-0.06836 -0.01819,6.07e-4 -0.02131,-0.01891 -0.0091,-0.04101 0.0061,-0.01296 0.01741,-0.02584 0.03418,-0.03646 0.05642,-0.0078 0.05152,-0.05514 0.08659,-0.05469 0.0091,-0.03004 0.03057,-0.05919 -0.01824,-0.11393 -0.03355,-0.0061 -0.01746,-0.02971 -0.01595,-0.04785 0.0229,-0.02105 -0.0046,-0.03288 -0.0046,-0.05469 0.01678,3.15e-4 0.04251,0.01293 0.0319,-0.02962 0.01683,-0.01738 0.0099,-0.02864 -0.01143,-0.03646 -0.0488,-0.04835 0.0388,-0.04708 0.02051,-0.09114 -0.01372,-0.02715 0.01748,-0.03059 0.02506,-0.05697 0.0046,-0.01281 7.02e-4,-0.03414 0.01595,-0.04557 0.01525,-0.01234 0.0275,-0.03877 -0.01367,-0.06836 -0.0061,-0.05947 -0.02583,-0.08514 -0.02735,-0.145832 -0.01678,-0.01434 -0.04861,-0.01921 -0.05013,-0.04102 -0.01525,-0.01755 -0.05537,-0.04837 -0.07519,-0.0319 -0.0305,0.04726 -0.01584,-0.0263 -0.0433,-0.0319 -0.02593,-0.0037 -0.01434,-0.03598 -0.03873,-0.0319 -0.02133,0.0087 -0.03653,-0.01208 -0.01823,-0.0319 0.02597,-0.0119 0.01298,-0.02977 -0.0069,-0.02962 -0.01372,0 -0.02507,0.01482 -0.02962,0.0046 -0.01678,-0.0078 -0.02042,-0.03358 -0.04329,0.0068 -0.02135,-0.01794 -0.05164,0.02113 -0.04557,-0.02279 0.003,-0.03381 -0.02422,-0.02461 -0.04557,-0.02506 -0.01373,-0.01317 -0.03485,-0.03364 -0.05924,-0.02279 -0.02596,0.01542 -0.041,0.01406 -0.0319,-0.0068 0.0091,-0.02135 -0.0022,-0.01974 -0.01595,-0.01367 -0.04879,0.03034 -0.142021,0.0031 -0.134438,-0.05241 0.003,-0.09149 -0.0044,-0.07536 -0.04557,-0.07292 0.01372,-0.05124 0.04625,-0.112047 0.07064,-0.168618 0.03965,-0.05795 0.07735,-0.115228 0.109374,-0.173175 0.03659,-0.06054 0.06743,-0.129845 0.111648,-0.180011 0.08234,-0.05108 0.0894,-0.09144 0.15039,-0.132159 0.0366,-0.01905 0.07121,-0.04295 0.118488,-0.05469 0.05489,-0.02562 0.109163,-0.02848 0.16406,-0.05013 0.108265,-0.08539 0.152512,-0.172289 0.193683,-0.166339 0.05946,-0.06191 0.0395,-0.133416 0.04102,-0.202797 0.0015,-0.10948 -0.01291,-0.103343 -0.01595,-0.13216 -0.0092,-0.11925 0.01452,-0.13765 -0.01143,-0.173175 l 0,-0.01595 -0.0023,-0.09115 c 0.01524,-0.03324 0.02515,-0.04685 0.0023,-0.07064 -0.0046,-0.0796 0.0071,-0.08204 -0.07975,-0.19824 0,-0.187559 0.0647,-0.138971 0.02506,-0.225583 -0.0122,-0.02029 -0.05622,-0.03622 -0.0638,-0.05696 -0.0076,-0.06603 -0.06524,-0.122458 -0.08659,-0.157225 L 14.057928,52.51263 c -0.04575,-0.07655 -0.0834,-0.186773 -0.123045,-0.287105 -0.04574,-0.116804 -0.07582,-0.231825 -0.109373,-0.348629 -0.029,-0.061 -0.0037,-0.112913 -0.03418,-0.141274 -0.01676,-0.03401 -0.04102,-0.02646 -0.04557,-0.138996 -0.003,-0.02256 0.0062,-0.04228 -0.0091,-0.06836 -0.01676,-0.0308 -0.03571,-0.04333 -0.04329,-0.152668 -0.003,-0.04788 0.0092,-0.0734 -0.0091,-0.08203 -0.02287,3.02e-4 -0.01584,-0.04901 -0.04329,-0.0638 -0.02897,-0.02409 -8.11e-4,-0.04091 0.01143,-0.06836 0.01073,-0.0096 0.07476,-0.140228 -0.0091,-0.216469 -0.0122,-0.03431 0.0024,-0.08714 -0.03873,-0.102538 -0.01982,-0.01358 -0.005,-0.0357 -0.07064,-0.03874 -0.0366,-0.01876 -0.03547,-0.116163 -0.09799,-0.129881 -0.03202,-0.05627 -0.115335,-0.03202 -0.145831,-0.03646 -0.03964,-0.05017 -0.08035,-0.07193 -0.123045,-0.09115 l -0.01823,-0.02734 c -0.04422,-0.02424 -0.03087,0.05514 -0.102537,0.01595 -0.07167,-0.03477 0.03901,-0.07249 -0.03418,-0.104817 -0.05793,-0.01296 -0.08976,-0.0088 -0.05468,-0.04101 0.03202,-0.03537 -0.0841,-0.05819 -0.138996,-0.05469 -0.108266,-0.05825 -0.103121,0.05564 -0.150389,0.08431 -0.02439,0.02348 -0.266094,0.0382 -0.398758,0.05696 l -0.462559,0.04785 -0.262041,0.02962 c -0.167732,0.0095 -0.333561,0.02349 -0.501295,0.03874 -0.07777,0.007 -0.157739,0.0157 -0.223305,0.0068 -0.06709,-4.67e-4 -0.03313,-0.0094 -0.109373,-0.01367 -0.05794,0.0042 -0.07203,-0.0061 -0.107099,-0.0091 -0.02744,-0.0013 -0.04996,0.0031 -0.0957,-0.0068 -0.247033,4.55e-4 -0.278434,-0.01199 -0.362301,-0.02051 l -0.300777,-0.01367 -0.03646,0 -0.378251,-0.06152 c -0.003,-0.0091 -0.353134,-0.0406 -0.366857,-0.03874 -0.0061,7.7e-4 -0.5255943,-0.08388 -0.5286392,-0.07292 -0.00557,-0.0078 -0.01106,-0.02051 -0.018229,-0.02051 -0.00306,3.04e-4 -0.00682,0.0089 -0.011398,0.01367 -0.062465,0.06309 -0.1676536,0.133014 -0.2072999,0.143514 -0.091491,0.02989 -0.1220311,0.05188 -0.1891252,0.07064 -0.067094,0.01357 -0.1500411,0.02794 -0.2415334,0.03646 -0.1158893,0.0067 -0.1378953,0.02073 -0.2278618,0.0114 -0.00899,-0.0084 -0.012414,-0.02366 -0.022786,-0.02506 -0.00992,0.004 -0.021234,0.0124 -0.029622,0.02279 -0.032022,0.0038 -0.054905,0.0019 -0.077473,0 -0.028668,-0.01158 -0.061885,-0.02531 -0.086588,-0.04101 -0.063282,-0.0017 -0.083164,-0.01176 -0.1048167,-0.02051 -0.02516,-0.0064 -0.046849,-0.04866 -0.070637,-0.07519 -0.018298,-4.05e-4 -0.035033,3.05e-4 -0.05013,0 -0.02516,-0.0085 -0.05023,-0.02773 -0.063801,-0.04557 -0.00945,-0.03568 -0.018213,-0.02681 -0.022786,-0.04785 l -0.00227,-0.04102 c 0.00153,-0.01143 0.00609,-0.01777 0.00456,-0.02279 -0.00427,-0.01342 -0.00546,-0.03016 -0.00684,-0.127602 0.00138,-0.04605 -0.012552,-0.09211 -0.027343,-0.118488 -0.00595,-0.01631 -0.018061,-0.04658 -0.022786,-0.06152 -1.634e-4,-0.02455 -0.0015,-0.06273 -0.00684,-0.0638 -0.00701,-7.59e-4 -0.040336,0.05699 -0.059244,0.0114 -0.00198,-0.02135 -0.00486,-0.03185 -0.00456,-0.03874 9.217e-4,-0.0085 0.00729,-0.0061 0.00684,-0.02506 0,-0.004 -0.00348,-0.01163 -0.00684,-0.01595 -3.033e-4,-0.01067 4.389e-4,-0.03933 0.00456,-0.04785 -0.00915,-0.0047 -0.019371,-0.0074 -0.038736,-0.02962 -0.00899,-0.0083 -0.017749,-0.0138 -0.025064,-0.01823 -0.023482,-0.0084 -0.036611,-0.03103 -0.036458,-0.03418 -4.55e-4,-0.0151 -1.596e-4,-0.04149 0.00227,-0.04557 0.011585,-0.01891 0.017758,-0.03122 0.022786,-0.05013 0.00153,-0.0069 0.012705,-0.02885 0.027343,-0.01823 0.01022,0.01128 0.020904,0.02216 0.036458,0.02962 0.014486,0.0043 0.020007,0.0088 0.031901,0.0114 0.015706,0.01189 0.030603,0.02075 0.052408,0.03874 0.00778,0.0044 0.031536,0.01982 0.047851,0.02962 0.012047,0.0075 0.025757,0.02263 0.043293,0.03418 0.042086,0.01646 0.049032,0.0232 0.056965,0.02962 0.013419,0.01509 0.01092,0.02332 0.015951,0.02962 0.017689,0.01962 0.026873,0.0098 0.031901,0.0114 0.01113,0.0049 0.016988,0.01909 0.022786,0.0319 0.016778,0.009 0.018668,-0.01246 0.022786,-0.0114 0.00351,-0.0014 0.014869,0.0098 0.018229,0.02507 0.00992,0.01844 0.022421,0.0364 0.038736,0.05241 0.00808,0.0082 0.015623,0.0209 0.022786,0.03874 0.00457,0.02883 -0.00168,0.03874 0,0.04329 0.00808,0.01402 0.028676,0.0121 0.036458,0.02734 0.00366,0.01113 0.00953,0.02719 0.018229,0.02734 0.00442,1.64e-4 0.00684,-0.0036 0.00684,-0.01367 0,-0.0058 0.00289,-0.0068 0.00228,-0.01367 -7.7e-4,-0.02211 0.00566,-0.0547 -0.00228,-0.0638 -0.00183,-0.0051 -0.00805,-0.0092 -0.00911,-0.01367 -0.00427,-0.01647 -0.015623,-0.02975 -0.022786,-0.03418 -0.026533,-0.01479 -0.038209,-0.0487 -0.056965,-0.06608 -0.029887,-0.03095 -0.063576,-0.04144 -0.1230454,-0.08887 -0.015858,-0.01143 -0.1049228,-0.0646 -0.1572245,-0.0957 -0.049405,-0.02988 -0.090252,-0.05642 -0.125324,-0.07975 -0.00992,-0.0058 -0.015774,-0.0062 -0.022786,-0.0091 -0.025617,-0.0069 -0.032307,-0.01351 -0.045572,-0.02051 -0.014182,-0.01769 -0.056726,-0.06649 -0.079751,-0.06836 -0.022263,-3.05e-4 -0.039879,-4.57e-4 -0.059244,0 -0.043002,5.84e-4 -0.073395,-0.0079 -0.1070951,-0.0023 -0.018756,0.0021 -0.080581,0.0015 -0.1025382,-0.0046 -0.079903,0.02472 -0.083552,-0.0081 -0.1230453,-0.0091 z m -1.5426226,9.80049 0.015951,0 -0.015951,0.0023 z"
       id="W143441"
       inkscape:connector-curvature="0"
       sodipodi:nodetypes="ccccccccccccccccccccccccccccccccccccccccccccccccccccccccccccccccccccccccccccccccccccccccccccccccccccccccccccccccccccccccccccccccccccccccccccccccccccccccccccccccccccccccccccccccccccccccccccccccccccccccccccccccccccccscccccccccccccccccccccccccccccccccccccccccccccccccccccccccccccccccccccccccccccccccccccccccccccccccccccccccccccccccccccccccccccccccccccccccccccccccccccccccccccccccccccccccccccccccccccccccccccccccccccccccccccccccccccccccccccccccccccccccccccccccccccccccccccccccccccccccccccccccccccccccccccccccccccccccccccccccccccccccccccccccccccccccccccccccccccccccccccccccccccccccccccccccccccccccccccccccccccccccccccccccccccccccccccccccccccccscccccccccccccccccccc" />
    <text
       xml:space="preserve"
       style="font-style:normal;font-variant:normal;font-weight:normal;font-stretch:normal;font-size:7.07135344px;line-height:125%;font-family:'MV Boli';-inkscape-font-specification:'MV Boli';letter-spacing:0px;word-spacing:0px;fill:#002eac;fill-opacity:1;stroke:none"
       x="1.4611143"
       y="55.599148"
       id="text6297"
       sodipodi:linespacing="125%"
       transform="scale(0.94931188,1.0533946)"><tspan
         sodipodi:role="line"
         id="tspan6299"
         x="1.4611143"
         y="55.599148">kmz</tspan></text>
    <text
       xml:space="preserve"
       style="font-style:normal;font-weight:normal;font-size:2.25391102px;line-height:125%;font-family:Sans;letter-spacing:0px;word-spacing:0px;fill:#000000;fill-opacity:1;stroke:none"
       x="-66.333672"
       y="134.3746"
       id="text3219"
       sodipodi:linespacing="125%"><tspan
         sodipodi:role="line"
         id="tspan3221"
         x="-66.333672"
         y="134.3746" /></text>
  </g>
</svg>
