<?xml version="1.0" encoding="UTF-8" standalone="no"?>
<!-- Created with Inkscape (http://www.inkscape.org/) -->

<svg
   xmlns:dc="http://purl.org/dc/elements/1.1/"
   xmlns:cc="http://creativecommons.org/ns#"
   xmlns:rdf="http://www.w3.org/1999/02/22-rdf-syntax-ns#"
   xmlns:svg="http://www.w3.org/2000/svg"
   xmlns="http://www.w3.org/2000/svg"
   xmlns:xlink="http://www.w3.org/1999/xlink"
   xmlns:sodipodi="http://sodipodi.sourceforge.net/DTD/sodipodi-0.dtd"
   xmlns:inkscape="http://www.inkscape.org/namespaces/inkscape"
   width="512"
   height="512"
   id="svg3003"
   version="1.1"
   inkscape:version="0.91 r13725"
   sodipodi:docname="app-comic-generic-512.svg"
   inkscape:export-filename="C:\wamp\www\TESTY\git-hub\system-icons\file-types\app-comic-generic\app-comic-generic-512.png"
   inkscape:export-xdpi="90"
   inkscape:export-ydpi="90">
  <defs
     id="defs3005">
    <clipPath
       id="clipPath3008"
       clipPathUnits="userSpaceOnUse">
      <path
         id="path3010"
         d="M 0,4105.95 0,0 l 5477.71,0 0,4105.95 -5477.71,0 z" />
    </clipPath>
    <linearGradient
       id="linearGradient3688"
       inkscape:collect="always">
      <stop
         id="stop3690"
         offset="0"
         style="stop-color:black;stop-opacity:1;" />
      <stop
         id="stop3692"
         offset="1"
         style="stop-color:black;stop-opacity:0;" />
    </linearGradient>
    <linearGradient
       id="linearGradient3702">
      <stop
         id="stop3704"
         offset="0"
         style="stop-color:black;stop-opacity:0;" />
      <stop
         style="stop-color:black;stop-opacity:1;"
         offset="0.5"
         id="stop3710" />
      <stop
         id="stop3706"
         offset="1"
         style="stop-color:black;stop-opacity:0;" />
    </linearGradient>
    <linearGradient
       id="linearGradient4928">
      <stop
         id="stop4930"
         offset="0"
         style="stop-color:#fce94f;stop-opacity:1;" />
      <stop
         id="stop4932"
         offset="1"
         style="stop-color:#fce94f;stop-opacity:0;" />
    </linearGradient>
    <radialGradient
       r="2.5"
       fy="43.5"
       fx="4.9929786"
       cy="43.5"
       cx="4.9929786"
       gradientTransform="matrix(2.003784,0,0,1.4,27.98813,-17.4)"
       gradientUnits="userSpaceOnUse"
       id="radialGradient6330"
       xlink:href="#linearGradient3688"
       inkscape:collect="always" />
    <radialGradient
       r="2.5"
       fy="43.5"
       fx="4.9929786"
       cy="43.5"
       cx="4.9929786"
       gradientTransform="matrix(2.003784,0,0,1.4,-20.01187,-104.4)"
       gradientUnits="userSpaceOnUse"
       id="radialGradient6332"
       xlink:href="#linearGradient3688"
       inkscape:collect="always" />
    <linearGradient
       y2="39.999443"
       x2="25.058096"
       y1="47.027729"
       x1="25.058096"
       gradientUnits="userSpaceOnUse"
       id="linearGradient6334"
       xlink:href="#linearGradient3702"
       inkscape:collect="always" />
    <radialGradient
       r="2.5"
       fy="43.5"
       fx="4.9929786"
       cy="43.5"
       cx="4.9929786"
       gradientTransform="matrix(2.003784,0,0,1.4,27.98813,-17.4)"
       gradientUnits="userSpaceOnUse"
       id="radialGradient6336"
       xlink:href="#linearGradient3688"
       inkscape:collect="always" />
    <radialGradient
       r="2.5"
       fy="43.5"
       fx="4.9929786"
       cy="43.5"
       cx="4.9929786"
       gradientTransform="matrix(2.003784,0,0,1.4,-20.01187,-104.4)"
       gradientUnits="userSpaceOnUse"
       id="radialGradient6338"
       xlink:href="#linearGradient3688"
       inkscape:collect="always" />
    <linearGradient
       y2="39.999443"
       x2="25.058096"
       y1="47.027729"
       x1="25.058096"
       gradientUnits="userSpaceOnUse"
       id="linearGradient6340"
       xlink:href="#linearGradient3702"
       inkscape:collect="always" />
    <radialGradient
       r="18.000002"
       fy="35.357208"
       fx="-30.249996"
       cy="35.357208"
       cx="-30.249996"
       gradientTransform="matrix(3.9957492,0,0,1.9350367,0.62141,-31.167422)"
       gradientUnits="userSpaceOnUse"
       id="radialGradient6342"
       xlink:href="#linearGradient3683"
       inkscape:collect="always" />
    <linearGradient
       id="linearGradient3683">
      <stop
         style="stop-color:#f6f6f5;stop-opacity:1;"
         offset="0"
         id="stop3685" />
      <stop
         style="stop-color:#d3d7cf;stop-opacity:1"
         offset="1"
         id="stop3689" />
    </linearGradient>
    <linearGradient
       y2="-22.502075"
       x2="-62.75"
       y1="49.020683"
       x1="-47.5"
       gradientTransform="translate(-90,0)"
       gradientUnits="userSpaceOnUse"
       id="linearGradient6344"
       xlink:href="#linearGradient3613"
       inkscape:collect="always" />
    <linearGradient
       id="linearGradient3613"
       inkscape:collect="always">
      <stop
         id="stop3615"
         offset="0"
         style="stop-color:#888a85;stop-opacity:1" />
      <stop
         id="stop3617"
         offset="1"
         style="stop-color:#babdb6;stop-opacity:1" />
    </linearGradient>
    <radialGradient
       r="17"
       fy="5.2999997"
       fx="4"
       cy="5.2999997"
       cx="4"
       gradientTransform="matrix(1.8860258,0,0,1.1764706,-3.5441033,-4.2352941)"
       gradientUnits="userSpaceOnUse"
       id="radialGradient6346"
       xlink:href="#linearGradient3741"
       inkscape:collect="always" />
    <linearGradient
       id="linearGradient3741"
       inkscape:collect="always">
      <stop
         id="stop3743"
         offset="0"
         style="stop-color:#ffffff;stop-opacity:1;" />
      <stop
         id="stop3745"
         offset="1"
         style="stop-color:#ffffff;stop-opacity:0;" />
    </linearGradient>
    <radialGradient
       r="7.0421038"
       fy="10.108011"
       fx="-26.305403"
       cy="10.108011"
       cx="-26.305403"
       gradientTransform="matrix(0.4073362,-0.2798276,0.7510293,1.0932492,-115.18484,-8.4378699)"
       gradientUnits="userSpaceOnUse"
       id="radialGradient6348"
       xlink:href="#linearGradient3671"
       inkscape:collect="always" />
    <linearGradient
       id="linearGradient3671">
      <stop
         id="stop3673"
         offset="0"
         style="stop-color:#ffffff;stop-opacity:1;" />
      <stop
         style="stop-color:#ffffff;stop-opacity:1;"
         offset="0.47533694"
         id="stop3691" />
      <stop
         id="stop3675"
         offset="1"
         style="stop-color:#ffffff;stop-opacity:0;" />
    </linearGradient>
    <linearGradient
       y2="14.069944"
       x2="-28.789402"
       y1="11.052948"
       x1="-18.588562"
       gradientTransform="matrix(0.9223058,0,0,0.9185751,-92.447368,1.3256997)"
       gradientUnits="userSpaceOnUse"
       id="linearGradient6350"
       xlink:href="#linearGradient3520"
       inkscape:collect="always" />
    <linearGradient
       id="linearGradient3520"
       inkscape:collect="always">
      <stop
         id="stop3522"
         offset="0"
         style="stop-color:#000000;stop-opacity:0.41295547" />
      <stop
         id="stop3524"
         offset="1"
         style="stop-color:#000000;stop-opacity:0;" />
    </linearGradient>
    <linearGradient
       y2="9.687501"
       x2="-24.75"
       y1="11.566258"
       x1="-26.753757"
       gradientUnits="userSpaceOnUse"
       id="linearGradient6352"
       xlink:href="#linearGradient3656"
       inkscape:collect="always" />
    <linearGradient
       id="linearGradient3656"
       inkscape:collect="always">
      <stop
         id="stop3658"
         offset="0"
         style="stop-color:#ffffff;stop-opacity:1;" />
      <stop
         id="stop3660"
         offset="1"
         style="stop-color:#ffffff;stop-opacity:0;" />
    </linearGradient>
    <filter
       inkscape:collect="always"
       style="color-interpolation-filters:sRGB"
       id="filter5000"
       x="-0.0095071371"
       width="1.0190143"
       y="-0.074362421"
       height="1.1487248">
      <feGaussianBlur
         inkscape:collect="always"
         stdDeviation="0.28213205"
         id="feGaussianBlur5002" />
    </filter>
    <filter
       inkscape:collect="always"
       style="color-interpolation-filters:sRGB"
       id="filter5004"
       x="-0.02162266"
       width="1.0432453"
       y="-0.094099214"
       height="1.1881984">
      <feGaussianBlur
         inkscape:collect="always"
         stdDeviation="0.28213205"
         id="feGaussianBlur5006" />
    </filter>
    <inkscape:perspective
       id="perspective15"
       inkscape:persp3d-origin="372.04724 : 350.78739 : 1"
       inkscape:vp_z="744.09448 : 526.18109 : 1"
       inkscape:vp_y="0 : 1000 : 0"
       inkscape:vp_x="0 : 526.18109 : 1"
       sodipodi:type="inkscape:persp3d" />
    <radialGradient
       gradientUnits="userSpaceOnUse"
       gradientTransform="matrix(1.0517807e-2,-2.4770996,2.1249124,9.9291129e-2,-1447.7405,1816.1715)"
       r="363.96185"
       fy="857.11938"
       fx="377.53397"
       cy="857.11938"
       cx="377.53397"
       id="radialGradient2169"
       xlink:href="#linearGradient3688"
       inkscape:collect="always" />
    <radialGradient
       r="363.96185"
       fy="857.11938"
       fx="377.53397"
       cy="857.11938"
       cx="377.53397"
       gradientTransform="matrix(1.0517807e-2,-2.4770996,2.1249124,9.9291129e-2,-1447.7405,1816.1715)"
       gradientUnits="userSpaceOnUse"
       id="radialGradient2173"
       xlink:href="#linearGradient3688"
       inkscape:collect="always" />
  </defs>
  <sodipodi:namedview
     id="base"
     pagecolor="#ffffff"
     bordercolor="#666666"
     borderopacity="1.0"
     inkscape:pageopacity="0.0"
     inkscape:pageshadow="2"
     inkscape:zoom="0.9722718"
     inkscape:cx="24.544171"
     inkscape:cy="270.82777"
     inkscape:current-layer="layer1"
     showgrid="true"
     inkscape:document-units="px"
     inkscape:grid-bbox="true"
     showguides="true"
     inkscape:guide-bbox="true"
     inkscape:window-width="1920"
     inkscape:window-height="1028"
     inkscape:window-x="2872"
     inkscape:window-y="532"
     inkscape:window-maximized="1"
     inkscape:snap-bbox="true"
     inkscape:object-paths="true"
     inkscape:object-nodes="true">
    <inkscape:grid
       type="xygrid"
       id="grid3011"
       empspacing="4"
       visible="true"
       enabled="true"
       snapvisiblegridlinesonly="true" />
    <sodipodi:guide
       orientation="1,0"
       position="16,376"
       id="guide3013" />
    <sodipodi:guide
       orientation="0,1"
       position="184,496"
       id="guide3015" />
    <sodipodi:guide
       orientation="0,1"
       position="336,16"
       id="guide3017" />
    <sodipodi:guide
       orientation="1,0"
       position="496,248"
       id="guide3019" />
    <sodipodi:guide
       orientation="1,0"
       position="280,312"
       id="guide3104" />
    <sodipodi:guide
       orientation="0,1"
       position="488,144"
       id="guide3106" />
  </sodipodi:namedview>
  <metadata
     id="metadata3008">
    <rdf:RDF>
      <cc:Work
         rdf:about="">
        <dc:format>image/svg+xml</dc:format>
        <dc:type
           rdf:resource="http://purl.org/dc/dcmitype/StillImage" />
        <dc:title />
      </cc:Work>
    </rdf:RDF>
  </metadata>
  <g
     id="layer1"
     inkscape:label="Layer 1"
     inkscape:groupmode="layer"
     transform="translate(0,448)">
    <path
       style="fill:#000000;fill-opacity:1;fill-rule:nonzero;stroke:none"
       d="M 280 16 L 64 16 L 64 496 L 202.58008 496 L 280 16 z "
       id="path4970"
       transform="translate(0,-448)" />
    <text
       sodipodi:linespacing="125%"
       id="text4984"
       y="-405.20251"
       x="202.8243"
       style="font-style:normal;font-weight:normal;font-size:11.08041382px;line-height:125%;font-family:sans-serif;text-align:start;letter-spacing:0px;word-spacing:0px;text-anchor:start;fill:#ff0000;fill-opacity:1;stroke:#ffffff;stroke-width:2;stroke-linecap:butt;stroke-linejoin:miter;stroke-miterlimit:4;stroke-dasharray:none;stroke-opacity:1;filter:url(#filter5000)"
       xml:space="preserve"><tspan
         style="font-style:normal;font-variant:normal;font-weight:normal;font-stretch:normal;font-family:'Courier New';-inkscape-font-specification:'Courier New';text-align:start;text-anchor:start;fill:#ff0000;stroke:#ffffff;stroke-width:2;stroke-miterlimit:4;stroke-dasharray:none;stroke-opacity:1"
         y="-405.20251"
         x="202.8243"
         id="tspan4986"
         sodipodi:role="line"><tspan
           id="tspan4988"
           style="text-align:start;text-anchor:start;fill:#ff0000;stroke:#ffffff;stroke-width:2;stroke-miterlimit:4;stroke-dasharray:none;stroke-opacity:1">fenixproduc</tspan><tspan
           id="tspan4990"
           style="text-align:start;text-anchor:start;fill:#ff0000;stroke:#ffffff;stroke-width:2;stroke-miterlimit:4;stroke-dasharray:none;stroke-opacity:1" /></tspan></text>
    <path
       style="fill:#ff0000;fill-opacity:1;fill-rule:nonzero;stroke:none"
       d="M 280 16 L 202.58008 496 L 448 496 L 448 16 L 280 16 z "
       id="rect3021"
       transform="translate(0,-448)" />
    <text
       xml:space="preserve"
       style="font-style:normal;font-weight:normal;font-size:11.08041382px;line-height:125%;font-family:sans-serif;text-align:end;letter-spacing:0px;word-spacing:0px;text-anchor:end;fill:#ffffff;fill-opacity:1;stroke:#ffffff;stroke-width:2;stroke-linecap:butt;stroke-linejoin:miter;stroke-miterlimit:4;stroke-dasharray:none;stroke-opacity:1;filter:url(#filter5004)"
       x="308.84924"
       y="-405.20251"
       id="text4992"
       sodipodi:linespacing="125%"><tspan
         sodipodi:role="line"
         id="tspan4994"
         x="308.84924"
         y="-405.20251"
         style="font-style:normal;font-variant:normal;font-weight:normal;font-stretch:normal;font-family:'Courier New';-inkscape-font-specification:'Courier New';text-align:end;text-anchor:end;fill:#ffffff;stroke:#ffffff;stroke-width:2;stroke-miterlimit:4;stroke-dasharray:none;stroke-opacity:1"><tspan
           style="text-align:end;text-anchor:end;fill:#000000;stroke:#ffffff;stroke-width:2;stroke-miterlimit:4;stroke-dasharray:none;stroke-opacity:1"
           id="tspan4998">tions</tspan></tspan></text>
    <text
       xml:space="preserve"
       style="font-style:normal;font-weight:normal;font-size:11.08041382px;line-height:125%;font-family:sans-serif;letter-spacing:0px;word-spacing:0px;fill:#ffffff;fill-opacity:1;stroke:none;stroke-width:1px;stroke-linecap:butt;stroke-linejoin:miter;stroke-opacity:1"
       x="202.8243"
       y="-405.20251"
       id="text4963"
       sodipodi:linespacing="125%"><tspan
         sodipodi:role="line"
         id="tspan4965"
         x="202.8243"
         y="-405.20251"
         style="font-style:normal;font-variant:normal;font-weight:normal;font-stretch:normal;font-family:'Courier New';-inkscape-font-specification:'Courier New';fill:#ffffff"><tspan
           style="fill:#ff0000"
           id="tspan4980">fenixproduc</tspan><tspan
           style="fill:#000000"
           id="tspan4982">tions</tspan></tspan></text>
    <path
       style="fill:#ff0000;fill-opacity:1"
       d="M 71.59375 16 C 71.81718 17.286529 72.868147 19.579938 74.722656 22.974609 C 76.586477 26.386339 78.149074 32.308842 78.195312 36.138672 C 78.249432 40.629262 80.79497 45.506907 85.363281 49.873047 C 89.2594 53.596747 94.204767 62.189104 96.353516 68.964844 C 98.502276 75.740594 102.4639 83.824561 105.15625 86.931641 C 109.5309 91.980131 109.76663 93.693775 107.38086 103.04688 C 105.04581 112.20113 105.3249 114.65422 109.59766 122.60938 C 114.22289 131.22078 114.43579 137.49916 110.4375 147.39844 C 109.28038 150.26336 112.93428 156.56299 122.67578 168.49023 C 140.70048 190.55918 149.41602 206.50567 149.41602 217.41406 C 149.41602 229.94352 153.19452 238.59248 163.17383 248.91016 C 174.47077 260.59009 185.73081 275.26308 187.77734 280.9707 C 188.66181 283.43744 191.83398 287.24834 194.82617 289.44141 C 202.42652 295.01195 205.11361 294.45694 208.55273 286.60547 C 211.3473 280.22552 211.03608 279.38003 203.77344 273.58008 C 189.18407 261.92901 174.2241 245.0565 169.67383 235.12109 C 167.17381 229.66233 164.66689 218.49675 164.10352 210.30859 C 163.1286 196.13897 162.42607 194.70282 149.52344 180.5332 C 142.06745 172.34504 134.72842 163.21388 133.21484 160.24219 C 130.38679 154.68972 131.67697 147.03711 135.44141 147.03711 C 139.73899 147.03711 137.3372 140.00321 129.25977 128.93359 C 120.57089 117.02602 118.62909 106.21179 123.66406 97.775391 C 125.90743 94.016491 124.52335 90.068789 115.53125 74.568359 C 109.57132 64.294739 103.98783 51.940787 103.12305 47.117188 C 101.53706 38.270806 96.341848 32.072036 80.058594 19.603516 C 77.982198 18.013558 76.301396 16.810433 74.998047 16 L 71.59375 16 z M 131.52734 16 C 131.45118 16.78779 132.53408 18.76522 135.01562 22.066406 C 138.93356 27.278386 139.92969 32.156917 139.92969 46.123047 C 139.92969 61.854617 140.59554 64.369739 146.45117 70.761719 C 152.8608 77.758459 152.98712 78.494703 153.79492 114.02539 L 154.61523 150.17383 L 162.62695 161.83984 C 176.12103 181.49426 180.28396 193.59167 178.6543 208.40625 C 177.2626 221.05764 177.50995 221.7537 188.21875 235.36523 C 194.26459 243.04986 199.21094 250.95949 199.21094 252.93945 C 199.21094 254.91945 200.31791 258.69627 201.66797 261.33594 C 205.28685 268.4117 213.9728 267.18099 221.88672 258.4707 C 228.48767 251.20555 234.27796 247.45674 241.71094 245.53711 L 252.55078 178.32422 C 247.71159 174.4902 249.0782 168.29553 254.35742 167.13281 L 256.46484 154.07227 C 253.36337 153.46883 249.86907 153.09192 245.68164 152.96094 C 225.86257 152.34102 219.33695 155.37787 213.5293 167.93164 C 207.97223 179.94374 206.99055 187.03321 211.54297 182.26953 C 215.81271 177.80166 234.8177 178.55941 239.92969 183.40039 C 245.86871 189.02455 245.78725 201.62305 239.8125 201.62305 C 232.06729 201.62305 228.95277 208.08423 231.88281 218.07422 C 235.25589 229.57477 233.6437 233.27343 223.27539 237.80664 C 207.4578 244.72235 198.91568 234.80114 198.18164 208.6582 C 197.81269 195.51886 196.61652 190.49215 192.82617 186.13867 C 190.14237 183.05615 183.50317 170.10653 178.07227 157.36133 C 168.58524 135.09725 168.16717 133.04453 167.41406 105.0957 C 166.88736 85.549089 165.47175 73.694531 163.09961 68.957031 C 160.32275 63.411271 160.11152 60.060109 162.10547 53.261719 C 164.6092 44.725229 164.45795 44.440329 149.85156 30.074219 C 141.93345 22.286351 135.94942 17.36597 133.19531 16 L 131.52734 16 z M 64 99.984375 L 64 134.58789 C 64.491635 135.21071 65.020481 135.80458 65.599609 136.37305 C 72.179247 142.83159 72.556954 147.52793 67.253906 156.92188 C 62.385453 165.54597 64.381038 171.47285 73.345703 175.01367 C 78.116852 176.89815 81.889013 181.39105 85.527344 189.51953 C 88.426186 195.99589 94.918816 205.50445 99.953125 210.64844 C 104.98744 215.79245 109.10547 222.35067 109.10547 225.22461 C 109.10547 233.0647 113.96283 238.30833 124.51758 241.85742 C 131.00943 244.04033 135.13068 247.39538 137.57812 252.49023 C 147.05097 272.20991 157.48779 285.93332 164.97656 288.51953 C 172.12879 290.98953 177.23563 297.40454 174.40625 300.36523 C 172.70534 302.14506 147.04492 283.98375 147.04492 281 C 147.04492 279.64924 144.64336 278.53285 141.70898 278.51953 C 126.72792 278.45153 98.799559 256.31243 91.767578 238.93164 C 90.36737 235.47078 87.228425 230.90726 84.791016 228.79102 C 82.353606 226.67478 79.30121 220.0243 78.009766 214.00977 C 75.002057 200.00224 71.197963 191.70576 64 184.59766 L 64 212.20312 C 64.079912 212.26501 64.155512 212.33725 64.236328 212.39648 C 67.773414 214.98892 68.942451 218.11583 68.384766 223.48438 C 67.301767 233.90989 91.158275 268.08447 106.89648 278.65234 C 113.17078 282.8654 120.45787 290.12857 123.08789 294.79297 C 127.28009 302.22794 128.74276 303.09001 134.95898 301.78906 C 143.04851 300.09607 153.46445 305.80138 164.67969 318.06836 C 173.2584 327.45156 180.86371 327.95709 184.59375 319.39062 C 186.96542 313.94381 188.00932 313.47068 192.33398 315.89258 C 196.78164 318.38335 197.16324 320.11858 195.79102 331.61133 C 194.11788 345.6239 195.66411 352.98047 200.2832 352.98047 C 201.8978 352.98047 205.15568 355.22124 207.52344 357.95898 C 209.8912 360.69674 212.10366 362.64827 212.43945 362.29688 C 212.77524 361.94549 211.53685 355.55396 209.6875 348.09375 C 207.83821 340.63355 206.32617 329.28165 206.32617 322.86719 C 206.32617 307.59832 204.77864 303.93013 196.44727 299.42188 C 192.63514 297.35906 187.52688 292.24966 185.0957 288.06641 C 182.66453 283.88312 175.08866 276.39769 168.25977 271.43555 C 154.94409 261.75983 154.63202 261.34763 146.49219 242.56445 C 142.60606 233.59698 138.81236 228.97691 132.80469 225.90039 C 128.04328 223.46207 120.44614 215.62544 115.01953 207.55078 C 109.80958 199.79849 102.29835 189.43203 98.326172 184.51367 C 84.248719 167.08292 81.970605 161.59104 81.755859 144.55664 C 81.536652 127.16881 76.666578 114.72522 64 99.984375 z M 223.0332 361.34375 C 221.09651 364.22513 219.4036 368.08408 218.10742 373.12109 C 216.20675 380.50723 213.87064 383.7254 209.15234 385.45898 C 203.40214 387.5717 196.8418 397.21878 196.8418 403.56055 C 196.8418 404.90639 194.84341 408.31352 192.4043 411.13086 C 189.31641 414.69755 187.49574 421.89411 186.4082 434.82812 L 184.84766 453.40234 L 192.23438 442.89062 C 196.29746 437.10929 200.6816 432.38281 201.97656 432.38281 C 203.34452 432.38281 203.6938 429.34675 202.81055 425.13867 C 200.59477 414.58218 209.24238 397.64453 216.84766 397.64453 C 216.97615 397.64453 217.06113 397.59355 217.18555 397.58984 L 223.0332 361.34375 z M 205.17969 472.02734 C 205.16549 472.04009 205.15307 472.06963 205.13867 472.08203 C 203.1824 473.78093 201.58398 479.16463 201.58398 484.04688 C 201.58398 487.55241 201.75295 489.59163 202.20312 490.4707 L 205.17969 472.02734 z "
       transform="translate(0,-448)"
       id="path5090" />
    <path
       style="fill:#000000;fill-opacity:1"
       d="M 423.08789 16 C 421.66093 17.421907 420.095 19.059245 418.38086 20.925781 C 407.39486 32.888491 405.50248 36.340187 405.46875 44.466797 C 405.44045 51.294897 402.41947 59.224168 394.79688 72.486328 C 383.08553 92.862328 382.78782 94.057947 387.74609 100.91406 C 392.26115 107.15732 390.01837 116.03018 380.92188 127.91602 L 373.71875 137.33203 L 378.04492 145.74414 C 382.281 153.97512 382.26883 154.32957 377.47461 162.38086 C 374.78024 166.90567 366.11313 177.27252 358.21484 185.41797 C 345.06259 198.98178 343.85547 201.12615 343.85547 210.91211 C 343.85547 224.66339 330.27868 253.67334 317.23242 267.79688 C 309.41835 276.25619 307.95677 279.30984 309.21289 284.54688 C 310.05771 288.06912 311.58587 290.94922 312.60938 290.94922 C 314.99611 290.94922 326.19428 278.24897 337.76758 262.41406 C 342.75465 255.5906 349.96019 247.08078 353.78125 243.50391 C 359.29864 238.33907 361.1392 233.94823 362.73047 222.16797 C 365.26328 203.41751 371.91743 189.64107 388.02344 169.78906 C 401.73143 152.89284 402.91371 148.87097 396.84375 139.80273 C 393.13592 134.2634 393.22466 133.36588 398.46484 123.32812 C 403.50275 113.67781 403.73904 111.78269 401.07227 102.46875 C 398.472 93.38703 398.66381 91.320794 402.75391 84.271484 C 405.29156 79.897834 408.06771 72.846956 408.92383 68.603516 C 409.77999 64.360056 413.52981 57.833093 417.25781 54.095703 C 421.18426 50.159353 424.65997 43.485338 425.51758 38.236328 C 426.33185 33.252608 428.73229 24.977213 430.85156 19.845703 C 431.44737 18.403038 431.91124 17.14975 432.30273 16 L 423.08789 16 z M 370.39453 21.050781 C 366.63047 21.233063 356.49834 27.932119 350.41016 34.636719 C 344.92752 40.674429 343.9388 43.877525 344.02734 55.328125 C 344.08494 62.779625 343.80264 85.62337 343.40039 106.09375 L 342.66992 143.31445 L 328.96484 172.07031 C 320.54087 189.74317 315.84229 202.42042 316.77539 204.96484 C 320.81671 215.98512 308.54809 241.33913 299.18555 241.31445 C 297.01917 241.30845 289.9959 238.51735 283.58008 235.11133 C 277.16424 231.70531 269.96349 228.91797 267.57617 228.91797 C 264.23768 228.91797 263.23438 227.00988 263.23438 220.64844 C 263.23438 209.64822 265.71949 207.60987 270.70312 214.52344 C 274.60634 219.93816 274.87823 219.98063 276.53711 215.45703 C 277.59403 212.57495 276.77382 207.97698 274.45117 203.74219 C 272.2178 199.67019 271.5642 196.16667 272.87891 195.31641 C 274.11675 194.51589 276.12157 196.44529 277.33203 199.60352 C 281.26165 209.85626 280.31002 189.32032 276.18164 174.77344 C 272.66441 162.37992 267.94015 156.68503 257.68555 154.34375 L 255.65625 166.92578 C 255.81012 166.91194 255.9557 166.88672 256.11914 166.88672 C 258.80933 166.88672 261.65778 168.64793 262.44727 170.80078 C 263.23677 172.95365 262.35412 176.31302 260.48633 178.26758 C 257.88714 180.98739 256.65177 181.25235 253.68164 179.17383 L 243.0293 245.21875 C 246.81864 244.33944 250.97803 243.80469 256.1582 243.80469 C 272.33705 243.80469 277.02826 245.75202 289.91602 257.81055 C 294.81044 262.39001 300.24769 266.13672 301.99805 266.13672 C 305.68061 266.13672 310.99311 260.24144 315.67969 250.95312 C 325.95544 230.58768 329.96151 223.95508 331.98828 223.95508 C 333.23336 223.95508 334.08894 216.9766 333.89062 208.44727 C 333.56612 194.49247 334.65821 190.6123 344.78125 169.70508 L 356.03125 146.4707 L 356.46289 108.91406 C 356.88455 72.382897 357.07395 71.088138 363.38672 61.523438 C 367.65641 55.054298 369.07681 50.853338 367.53711 49.242188 C 363.98211 45.522207 364.73819 34.689235 368.99609 28.328125 C 371.08536 25.206825 372.25181 22.085345 371.58789 21.390625 C 371.34044 21.131696 370.93225 21.024741 370.39453 21.050781 z M 448 95.777344 C 447.54261 96.323125 447.09255 96.850484 446.62695 97.417969 C 430.23419 117.39781 424.26155 132.92188 428.88281 143.53516 C 433.22947 153.51777 432.30884 156.46852 418.20703 177.72656 C 397.54559 208.873 389.18239 218.81975 379.7832 223.42969 C 373.13435 226.69068 369.19918 231.50853 362.82617 244.17773 C 353.0472 263.61785 347.82413 270.14102 340.50781 272.0625 C 337.1895 272.93399 333.49487 277.28761 330.83789 283.45312 C 328.47287 288.94126 325.89919 293.43446 325.11914 293.44141 C 324.33907 293.44841 320.51547 296.12205 316.62305 299.38086 C 309.93785 304.97789 309.46065 306.59187 308.00586 328.52344 C 307.15883 341.29297 305.69475 353.69382 304.75195 356.08203 C 302.22926 362.47229 305.0026 361.41618 314.50781 352.36523 C 322.48976 344.76475 322.88752 343.65379 321.51562 332.83203 C 320.71555 326.52094 320.72661 319.5413 321.54102 317.32031 C 323.7942 311.17606 330.89765 312.49582 334.00781 319.63867 L 336.77734 326 L 344.4668 320.42188 C 348.69591 317.35528 356.15835 311.14424 361.05273 306.61914 C 370.40799 297.96976 373.45474 296.79039 375.86719 300.875 C 376.67321 302.23969 378.85827 303.35547 380.72266 303.35547 C 384.63188 303.35547 393.65039 295.86417 393.65039 292.61719 C 393.65039 288.8953 405.35427 275.63907 415.28516 268.11133 C 428.03969 258.4432 443.90127 232.30934 442.17969 223.80078 C 441.24752 219.19379 442.55125 215.56834 446.91211 210.64453 C 447.2846 210.22396 447.64574 209.78428 448 209.33789 L 448 184.0957 C 441.65666 190.86213 436.33203 199.25999 436.33203 203.67969 C 436.33203 211.49227 431.83555 222.06902 427.00781 225.60742 C 424.60983 227.36498 421.93096 231.79938 421.05273 235.46094 C 419.22048 243.09994 401.07838 266.20574 392.06055 272.38867 C 388.71576 274.68197 382.50793 276.55859 378.26367 276.55859 C 372.0791 276.55859 368.86112 278.66553 362.06445 287.17383 C 354.58131 296.54154 342.94848 303.234 339.82617 299.9668 C 337.87568 297.9258 343.92081 288.46875 347.17578 288.46875 C 352.94809 288.46875 361.65826 279.22968 367.38867 267.0293 C 376.40907 247.82435 381.86891 240.76594 386.68555 242.08398 C 393.57659 243.96967 400.76367 237.04747 400.76367 228.52344 C 400.76367 223.03761 403.74875 217.49001 411.64258 208.30273 C 417.62479 201.3403 425.01294 190.56788 428.06055 184.36523 C 431.14119 178.09535 436.83918 171.21322 440.89453 168.86328 C 448.86588 164.24418 450.15713 159.27607 444.63281 154.47852 C 440.04651 150.4956 440.04651 138.61377 444.63281 134.63086 C 446.41871 133.07989 447.57573 129.35792 448 124.05273 L 448 95.777344 z M 231.61719 355.7207 C 229.09251 355.7336 226.73464 356.9621 224.62695 359.30664 L 218.47266 397.46484 C 221.89535 396.89738 223.77139 394.24382 226.60547 386.47852 C 232.38568 370.64085 235.3019 372.49669 233.42773 390.82031 C 232.17994 403.02025 230.42335 407.91551 225.19336 413.77148 C 219.37224 420.28932 212.63489 437.21502 209.92773 450.44922 L 208.9707 456.38086 C 208.80616 457.8602 208.69531 459.27214 208.69531 460.5332 C 208.69531 463.69336 207.94668 467.07199 206.85938 469.46289 L 203.41797 490.79883 C 203.71028 490.62967 204.04416 490.34864 204.42773 489.94727 C 205.99273 488.30963 209.07914 486.96875 211.28711 486.96875 C 217.09711 486.96875 219.20883 480.42706 219.29297 462.15625 C 219.37567 444.17818 225.90889 427.57355 236.41016 418.6543 C 240.9206 414.82335 242.59425 410.65243 243.37891 401.28711 C 243.94697 394.50749 245.03233 384.13935 245.78906 378.24805 C 246.9359 369.3194 246.26201 366.53028 241.74414 361.49805 C 238.23424 357.58855 234.79765 355.70446 231.61719 355.7207 z M 260.50977 355.73242 C 258.80571 355.71932 256.83648 355.98136 254.67578 356.54883 C 248.87619 358.07197 248.59443 358.82774 250.04883 368.97656 C 250.90065 374.92038 250.3994 386.99087 248.93359 395.79883 C 246.85969 408.26063 246.94171 414.23163 249.30859 422.7168 C 250.98149 428.71404 252.58475 444.23073 252.87109 457.19531 C 253.51342 486.27899 254.35929 491.72617 258.66016 494.57422 C 259.58948 495.18962 260.43654 495.64325 261.21484 496 L 264.95508 496 C 264.98661 495.62495 264.83872 495.12027 264.45508 494.4707 C 263.66766 493.1375 264.25428 487.27479 265.75977 481.44336 C 267.86783 473.27793 267.81189 467.02422 265.51367 454.24219 C 262.90329 439.72402 263.04523 435.72177 266.65234 422.26953 C 270.55922 407.69925 270.55987 406.39095 266.68555 397.40039 C 262.6763 388.09695 262.71431 372.6636 266.77344 362.30664 C 268.35471 358.27195 265.62199 355.77172 260.50977 355.73242 z M 286.375 355.94336 C 284.17226 355.86009 279.91526 357.87256 276.55469 360.63867 C 270.05447 365.98902 270.04244 366.06265 271.62109 388.64648 C 273.06793 409.34458 273.79575 411.89115 280.09961 418.26562 C 291.64338 429.93872 297.24224 444.0714 297.81055 462.96875 C 298.1991 475.88826 299.43896 481.19021 303.02734 485.30078 C 305.11052 487.68711 308.01092 492.0659 310.18555 496 L 316.61133 496 C 316.62681 494.39249 316.63806 492.73755 316.63281 490.94922 C 316.59821 479.1551 315.48252 473.80632 312.28516 470.10938 C 309.10105 466.42777 308.36996 462.96934 309.47656 456.79688 C 311.33351 446.43916 307.90359 436.64571 298.48438 425.41992 C 288.22881 413.19746 282.19061 396.98728 282.2832 381.92969 L 282.36133 369.10742 L 287.02539 374.9668 C 289.59034 378.18857 291.68945 382.32275 291.68945 384.1543 C 291.68945 385.98584 295.89783 391.02491 301.04297 395.35156 C 310.30129 403.13701 315.40039 413.17988 315.40039 423.63281 C 315.40039 426.603 318.17037 431.74232 321.55469 435.05078 C 324.93902 438.35922 329.25277 444.17316 331.14062 447.9707 C 333.02853 451.76822 335.59746 454.21212 336.84961 453.40234 C 338.24049 452.50283 338.29397 450.29909 336.98438 447.73828 C 335.80541 445.43291 334.06552 438.15333 333.12109 431.5625 C 332.17662 424.97166 330.04136 419.03357 328.37695 418.36523 C 326.71254 417.69688 324.67709 413.38403 323.85156 408.7793 C 322.82607 403.05932 319.36787 397.93474 312.9375 392.60547 C 307.42297 388.03519 300.83067 378.98636 297.01562 370.75391 C 293.43437 363.02592 288.83241 356.38136 286.78906 355.98828 C 286.66135 355.96371 286.52185 355.94891 286.375 355.94336 z "
       transform="translate(0,-448)"
       id="path5092" />
    <g
       id="layer2"
       inkscape:label="bulle"
       transform="matrix(0.17941059,0,0,0.20149624,289.53301,-82.116516)"
       style="fill:#ffffff">
      <path
         inkscape:connector-curvature="0"
         id="path2891"
         style="fill:#ffffff;stroke:#000000;stroke-width:1px"
         d="m 98.316,266.56 51.859,-12.965 -91.834,-108.04 128.57,27.01 0,-22.688 47.537,20.528 -1.0804,-89.673 66.985,59.422 34.573,-129.65 43.216,139.37 25.93,-71.306 22.688,62.663 44.296,-148.01 18.367,137.21 47.537,-31.332 3.2412,54.02 66.985,-60.502 0,75.628 142.61,-78.869 -84.271,116.68 51.859,-2.1608 -21.608,58.341 142.61,24.849 -152.34,44.296 49.698,50.779 -69.145,23.769 c 0,0 61.583,115.6 57.261,115.6 -4.3216,0 -91.834,-42.135 -91.834,-42.135 l 22.688,126.41 -88.593,-126.41 -9.7236,52.939 -45.377,-46.457 -10.804,92.914 -46.457,-83.191 -23.769,32.412 -28.09,-39.975 -62.663,82.11 -10.804,-73.467 -81.03,27.01 5.402,-60.502 c 0,0 -101.56,92.914 -100.48,86.432 1.0804,-6.4824 27.01,-132.89 27.01,-132.89 l -81.044,20.51 c 0,0 62.663,-70.226 57.261,-72.387 -5.402,-2.1608 -209.6,-22.688 -209.6,-22.688 0,0 199.87,-45.377 195.55,-47.537 -4.3216,-2.1608 -46.457,-25.93 -43.216,-28.09 z" />
    </g>
    <g
       id="layer3"
       inkscape:label="bang"
       transform="matrix(0.17941059,0,0,0.18805764,289.53301,-77.975357)"
       style="fill:#000000">
      <path
         inkscape:connector-curvature="0"
         id="path3687"
         style="fill:#000000;stroke:#ffffff;stroke-width:1px"
         d="m 237.22,200.84 c -18.468,-0.0799 -42.008,4.1301 -71.375,14.406 l 56.719,216.62 c 55.724,-26.984 94.987,-101.2 28.625,-136.16 50.7,-13.915 66.061,-94.529 -13.969,-94.875 z m -31.406,40.312 41.062,0 c 5.7667,6.2889 7.5743,14.722 -1.4375,26.062 -4.1904,5.2732 -6.6995,4.2314 -12.062,7.4375 -24.516,14.656 -34.505,-28.739 -27.562,-33.5 z m 33.19,95.85 c 28.012,-1.0586 28.818,41.499 -3.1562,41.094 l -12.75,-36.688 c 6.02,-2.88 11.33,-4.23 15.91,-4.4 z" />
      <path
         inkscape:connector-curvature="0"
         id="path3713"
         style="fill:#000000;stroke:#ffffff;stroke-width:1px"
         d="M 332.22,221.19 C 315.03,292.2 305.13,368.7 293.31,443.75 l 18.938,8.625 c 8.1857,3.742 10.992,-14.22 14.031,-21.062 1.9515,-6.1808 6.5651,-7.036 11.344,-7.5625 l 9.7188,1.625 c 6.0134,1.6843 10.542,1.3556 13.5,14.062 l 5.41,21.06 28.094,0.53125 c 0.35316,-5.083 1.1417,-10.133 0.625,-15.094 -7.6878,-73.813 -31.335,-143.95 -44.906,-216.66 l -17.844,-8.0938 z m 9.375,122.09 c 3.3664,-0.0826 6.7502,3.7011 7.375,11.875 0.16975,2.2208 5.5933,28.495 7.0312,30.781 3.2152,5.1124 -0.088,10.812 -3.25,10.812 l -13.5,0 c -10.848,0 -7.3113,-6.1503 -7.0312,-10.281 l 2.15,-31.85 c 0.49515,-7.3035 3.8524,-11.261 7.2188,-11.344 z" />
      <path
         inkscape:connector-curvature="0"
         id="path3719"
         sodipodi:nodetypes="ccccccscccccc"
         style="fill:#000000;stroke:#ffffff;stroke-width:1px"
         d="m 375.98,183.37 57.261,224.72 22.148,3.2412 c -0.69787,-3.6057 9.9484,-0.18874 4.929,-14.058 -2.6498,-34.657 -16.384,-78.552 -27.077,-119.91 l 57.261,121 c 0,0 22.284,9.3134 27.01,6.4824 7.0731,-4.2372 13.78,-214.88 12.965,-215 -7.6862,-1.8115 -12.131,-5.1682 -23.059,-5.5659 l -8.2729,8.2669 -2.1608,130.19 -76.708,-140.45 c -15.133,-1.4772 -30.538,-4.315 -44.296,1.0804 z" />
      <path
         inkscape:connector-curvature="0"
         id="path3721"
         sodipodi:nodetypes="cczsccccsc"
         style="fill:#000000;stroke:#ffffff;stroke-width:1px"
         d="m 627.59,295.65 c 9.512,-3.1606 22.656,-0.26808 28.266,-9.9314 10.415,-28.167 -66.884,-118.4 -103.9,-9.1675 -37.014,109.23 45.415,228.89 83.653,122.23 6.2954,-17.56 10.313,-55.005 10.313,-55.005 l -42.4,-0.38197 -2.2919,16.425 c 5.5453,2.4914 8.597,3.0152 12.223,12.223 0.85775,60.387 -51.849,30.668 -41.779,-56.922 5.4773,-47.641 47.546,-84.693 55.912,-19.474 z" />
    </g>
    <rect
       style="opacity:1;fill:#ffcc00;fill-opacity:1;stroke:none;stroke-width:2;stroke-linecap:round;stroke-linejoin:round;stroke-miterlimit:4;stroke-dasharray:none;stroke-dashoffset:0.39370039;stroke-opacity:1"
       id="rect5008"
       width="384"
       height="75.818184"
       x="64"
       y="-395.81818" />
    <text
       xml:space="preserve"
       style="font-style:normal;font-weight:normal;font-size:52.91945648px;line-height:125%;font-family:sans-serif;letter-spacing:0px;word-spacing:0px;fill:#000000;fill-opacity:1;stroke:none;stroke-width:1px;stroke-linecap:butt;stroke-linejoin:miter;stroke-opacity:1"
       x="80.38131"
       y="-338.64569"
       id="text5010"
       sodipodi:linespacing="125%"><tspan
         sodipodi:role="line"
         id="tspan5012"
         x="80.38131"
         y="-338.64569"><tspan
   style="fill:#ff0000"
   id="tspan5014">COMIC</tspan> BOOK</tspan></text>
  </g>
</svg>
