<?xml version="1.0" encoding="UTF-8" standalone="no"?>
<!-- Created with Inkscape (http://www.inkscape.org/) -->

<svg
   xmlns:dc="http://purl.org/dc/elements/1.1/"
   xmlns:cc="http://creativecommons.org/ns#"
   xmlns:rdf="http://www.w3.org/1999/02/22-rdf-syntax-ns#"
   xmlns:svg="http://www.w3.org/2000/svg"
   xmlns="http://www.w3.org/2000/svg"
   xmlns:xlink="http://www.w3.org/1999/xlink"
   xmlns:sodipodi="http://sodipodi.sourceforge.net/DTD/sodipodi-0.dtd"
   xmlns:inkscape="http://www.inkscape.org/namespaces/inkscape"
   width="64"
   height="64"
   id="svg3003"
   version="1.1"
   inkscape:version="0.91 r13725"
   sodipodi:docname="app-comic-cbz-64.svg"
   inkscape:export-filename="C:\wamp\www\TESTY\git-hub\system-icons\file-types\app-comic-cbz\app-comic-cbz-64.png"
   inkscape:export-xdpi="90"
   inkscape:export-ydpi="90">
  <defs
     id="defs3005">
    <clipPath
       id="clipPath3008"
       clipPathUnits="userSpaceOnUse">
      <path
         id="path3010"
         d="M 0,4105.95 0,0 l 5477.71,0 0,4105.95 -5477.71,0 z"
         inkscape:connector-curvature="0" />
    </clipPath>
    <linearGradient
       inkscape:collect="always"
       id="linearGradient3656">
      <stop
         style="stop-color:#ffffff;stop-opacity:1;"
         offset="0"
         id="stop3658" />
      <stop
         style="stop-color:#ffffff;stop-opacity:0;"
         offset="1"
         id="stop3660" />
    </linearGradient>
    <linearGradient
       inkscape:collect="always"
       xlink:href="#linearGradient3656"
       id="linearGradient6352"
       gradientUnits="userSpaceOnUse"
       x1="-26.753757"
       y1="11.566258"
       x2="-24.75"
       y2="9.687501" />
    <linearGradient
       inkscape:collect="always"
       id="linearGradient3520">
      <stop
         style="stop-color:#000000;stop-opacity:0.41295547"
         offset="0"
         id="stop3522" />
      <stop
         style="stop-color:#000000;stop-opacity:0;"
         offset="1"
         id="stop3524" />
    </linearGradient>
    <linearGradient
       inkscape:collect="always"
       xlink:href="#linearGradient3520"
       id="linearGradient6350"
       gradientUnits="userSpaceOnUse"
       gradientTransform="matrix(0.9223058,0,0,0.9185751,-92.447368,1.3256997)"
       x1="-18.588562"
       y1="11.052948"
       x2="-28.789402"
       y2="14.069944" />
    <linearGradient
       id="linearGradient3671">
      <stop
         style="stop-color:#ffffff;stop-opacity:1;"
         offset="0"
         id="stop3673" />
      <stop
         id="stop3691"
         offset="0.47533694"
         style="stop-color:#ffffff;stop-opacity:1;" />
      <stop
         style="stop-color:#ffffff;stop-opacity:0;"
         offset="1"
         id="stop3675" />
    </linearGradient>
    <radialGradient
       inkscape:collect="always"
       xlink:href="#linearGradient3671"
       id="radialGradient6348"
       gradientUnits="userSpaceOnUse"
       gradientTransform="matrix(0.4073362,-0.2798276,0.7510293,1.0932492,-115.18484,-8.4378699)"
       cx="-26.305403"
       cy="10.108011"
       fx="-26.305403"
       fy="10.108011"
       r="7.0421038" />
    <linearGradient
       inkscape:collect="always"
       id="linearGradient3741">
      <stop
         style="stop-color:#ffffff;stop-opacity:1;"
         offset="0"
         id="stop3743" />
      <stop
         style="stop-color:#ffffff;stop-opacity:0;"
         offset="1"
         id="stop3745" />
    </linearGradient>
    <radialGradient
       inkscape:collect="always"
       xlink:href="#linearGradient3741"
       id="radialGradient6346"
       gradientUnits="userSpaceOnUse"
       gradientTransform="matrix(1.8860258,0,0,1.1764706,-3.5441033,-4.2352941)"
       cx="4"
       cy="5.2999997"
       fx="4"
       fy="5.2999997"
       r="17" />
    <linearGradient
       inkscape:collect="always"
       id="linearGradient3613">
      <stop
         style="stop-color:#888a85;stop-opacity:1"
         offset="0"
         id="stop3615" />
      <stop
         style="stop-color:#babdb6;stop-opacity:1"
         offset="1"
         id="stop3617" />
    </linearGradient>
    <linearGradient
       inkscape:collect="always"
       xlink:href="#linearGradient3613"
       id="linearGradient6344"
       gradientUnits="userSpaceOnUse"
       gradientTransform="translate(-90,0)"
       x1="-47.5"
       y1="49.020683"
       x2="-62.75"
       y2="-22.502075" />
    <linearGradient
       id="linearGradient3683">
      <stop
         id="stop3685"
         offset="0"
         style="stop-color:#f6f6f5;stop-opacity:1;" />
      <stop
         id="stop3689"
         offset="1"
         style="stop-color:#d3d7cf;stop-opacity:1" />
    </linearGradient>
    <radialGradient
       inkscape:collect="always"
       xlink:href="#linearGradient3683"
       id="radialGradient6342"
       gradientUnits="userSpaceOnUse"
       gradientTransform="matrix(3.9957492,0,0,1.9350367,0.62141,-31.167422)"
       cx="-30.249996"
       cy="35.357208"
       fx="-30.249996"
       fy="35.357208"
       r="18.000002" />
    <linearGradient
       inkscape:collect="always"
       xlink:href="#linearGradient3702"
       id="linearGradient6340"
       gradientUnits="userSpaceOnUse"
       x1="25.058096"
       y1="47.027729"
       x2="25.058096"
       y2="39.999443" />
    <radialGradient
       inkscape:collect="always"
       xlink:href="#linearGradient3688"
       id="radialGradient6338"
       gradientUnits="userSpaceOnUse"
       gradientTransform="matrix(2.003784,0,0,1.4,-20.01187,-104.4)"
       cx="4.9929786"
       cy="43.5"
       fx="4.9929786"
       fy="43.5"
       r="2.5" />
    <radialGradient
       inkscape:collect="always"
       xlink:href="#linearGradient3688"
       id="radialGradient6336"
       gradientUnits="userSpaceOnUse"
       gradientTransform="matrix(2.003784,0,0,1.4,27.98813,-17.4)"
       cx="4.9929786"
       cy="43.5"
       fx="4.9929786"
       fy="43.5"
       r="2.5" />
    <linearGradient
       inkscape:collect="always"
       xlink:href="#linearGradient3702"
       id="linearGradient6334"
       gradientUnits="userSpaceOnUse"
       x1="25.058096"
       y1="47.027729"
       x2="25.058096"
       y2="39.999443" />
    <radialGradient
       inkscape:collect="always"
       xlink:href="#linearGradient3688"
       id="radialGradient6332"
       gradientUnits="userSpaceOnUse"
       gradientTransform="matrix(2.003784,0,0,1.4,-20.01187,-104.4)"
       cx="4.9929786"
       cy="43.5"
       fx="4.9929786"
       fy="43.5"
       r="2.5" />
    <radialGradient
       inkscape:collect="always"
       xlink:href="#linearGradient3688"
       id="radialGradient6330"
       gradientUnits="userSpaceOnUse"
       gradientTransform="matrix(2.003784,0,0,1.4,27.98813,-17.4)"
       cx="4.9929786"
       cy="43.5"
       fx="4.9929786"
       fy="43.5"
       r="2.5" />
    <linearGradient
       id="linearGradient4928">
      <stop
         style="stop-color:#fce94f;stop-opacity:1;"
         offset="0"
         id="stop4930" />
      <stop
         style="stop-color:#fce94f;stop-opacity:0;"
         offset="1"
         id="stop4932" />
    </linearGradient>
    <linearGradient
       id="linearGradient3702">
      <stop
         style="stop-color:black;stop-opacity:0;"
         offset="0"
         id="stop3704" />
      <stop
         id="stop3710"
         offset="0.5"
         style="stop-color:black;stop-opacity:1;" />
      <stop
         style="stop-color:black;stop-opacity:0;"
         offset="1"
         id="stop3706" />
    </linearGradient>
    <linearGradient
       inkscape:collect="always"
       id="linearGradient3688">
      <stop
         style="stop-color:black;stop-opacity:1;"
         offset="0"
         id="stop3690" />
      <stop
         style="stop-color:black;stop-opacity:0;"
         offset="1"
         id="stop3692" />
    </linearGradient>
    <clipPath
       clipPathUnits="userSpaceOnUse"
       id="clipPath3008-4">
      <path
         d="M 0,4105.95 0,0 l 5477.71,0 0,4105.95 -5477.71,0 z"
         id="path3010-0" />
    </clipPath>
    <clipPath
       clipPathUnits="userSpaceOnUse"
       id="clipPath3008-2">
      <path
         d="M 0,4105.95 0,0 l 5477.71,0 0,4105.95 -5477.71,0 z"
         id="path3010-6" />
    </clipPath>
    <radialGradient
       inkscape:collect="always"
       xlink:href="#linearGradient3520"
       id="radialGradient6330-4"
       gradientUnits="userSpaceOnUse"
       gradientTransform="matrix(2.003784,0,0,1.4,27.98813,-17.4)"
       cx="4.9929786"
       cy="43.5"
       fx="4.9929786"
       fy="43.5"
       r="2.5" />
    <radialGradient
       inkscape:collect="always"
       xlink:href="#linearGradient3520"
       id="radialGradient6332-4"
       gradientUnits="userSpaceOnUse"
       gradientTransform="matrix(2.003784,0,0,1.4,-20.01187,-104.4)"
       cx="4.9929786"
       cy="43.5"
       fx="4.9929786"
       fy="43.5"
       r="2.5" />
    <linearGradient
       inkscape:collect="always"
       xlink:href="#linearGradient3702"
       id="linearGradient4821"
       gradientUnits="userSpaceOnUse"
       x1="25.058096"
       y1="47.027729"
       x2="25.058096"
       y2="39.999443" />
    <radialGradient
       inkscape:collect="always"
       xlink:href="#linearGradient3520"
       id="radialGradient6336-8"
       gradientUnits="userSpaceOnUse"
       gradientTransform="matrix(2.003784,0,0,1.4,27.98813,-17.4)"
       cx="4.9929786"
       cy="43.5"
       fx="4.9929786"
       fy="43.5"
       r="2.5" />
    <radialGradient
       inkscape:collect="always"
       xlink:href="#linearGradient3520"
       id="radialGradient6338-7"
       gradientUnits="userSpaceOnUse"
       gradientTransform="matrix(2.003784,0,0,1.4,-20.01187,-104.4)"
       cx="4.9929786"
       cy="43.5"
       fx="4.9929786"
       fy="43.5"
       r="2.5" />
    <linearGradient
       inkscape:collect="always"
       xlink:href="#linearGradient3702"
       id="linearGradient4825"
       gradientUnits="userSpaceOnUse"
       x1="25.058096"
       y1="47.027729"
       x2="25.058096"
       y2="39.999443" />
    <radialGradient
       inkscape:collect="always"
       xlink:href="#linearGradient3683"
       id="radialGradient6342-3"
       gradientUnits="userSpaceOnUse"
       gradientTransform="matrix(3.9957492,0,0,1.9350367,0.62141,-31.167422)"
       cx="-30.249996"
       cy="35.357208"
       fx="-30.249996"
       fy="35.357208"
       r="18.000002" />
    <radialGradient
       inkscape:collect="always"
       xlink:href="#linearGradient3656"
       id="radialGradient6346-8"
       gradientUnits="userSpaceOnUse"
       gradientTransform="matrix(1.8860258,0,0,1.1764706,-3.5441033,-4.2352941)"
       cx="4"
       cy="5.2999997"
       fx="4"
       fy="5.2999997"
       r="17" />
    <radialGradient
       inkscape:collect="always"
       xlink:href="#linearGradient3671"
       id="radialGradient6348-9"
       gradientUnits="userSpaceOnUse"
       gradientTransform="matrix(0.4073362,-0.2798276,0.7510293,1.0932492,-115.18484,-8.4378699)"
       cx="-26.305403"
       cy="10.108011"
       fx="-26.305403"
       fy="10.108011"
       r="7.0421038" />
    <inkscape:perspective
       sodipodi:type="inkscape:persp3d"
       inkscape:vp_x="0 : 526.18109 : 1"
       inkscape:vp_y="0 : 1000 : 0"
       inkscape:vp_z="744.09448 : 526.18109 : 1"
       inkscape:persp3d-origin="372.04724 : 350.78739 : 1"
       id="perspective15" />
    <radialGradient
       inkscape:collect="always"
       xlink:href="#linearGradient3520"
       id="radialGradient2169"
       cx="377.53397"
       cy="857.11938"
       fx="377.53397"
       fy="857.11938"
       r="363.96185"
       gradientTransform="matrix(1.0517807e-2,-2.4770996,2.1249124,9.9291129e-2,-1447.7405,1816.1715)"
       gradientUnits="userSpaceOnUse" />
    <radialGradient
       inkscape:collect="always"
       xlink:href="#linearGradient3520"
       id="radialGradient2173"
       gradientUnits="userSpaceOnUse"
       gradientTransform="matrix(1.0517807e-2,-2.4770996,2.1249124,9.9291129e-2,-1447.7405,1816.1715)"
       cx="377.53397"
       cy="857.11938"
       fx="377.53397"
       fy="857.11938"
       r="363.96185" />
  </defs>
  <sodipodi:namedview
     id="base"
     pagecolor="#ffffff"
     bordercolor="#666666"
     borderopacity="1.0"
     inkscape:pageopacity="0.0"
     inkscape:pageshadow="2"
     inkscape:zoom="15.556349"
     inkscape:cx="18.867518"
     inkscape:cy="3.7543383"
     inkscape:current-layer="layer1"
     showgrid="true"
     inkscape:document-units="px"
     inkscape:grid-bbox="true"
     showguides="true"
     inkscape:guide-bbox="true"
     inkscape:window-width="1920"
     inkscape:window-height="1028"
     inkscape:window-x="2872"
     inkscape:window-y="532"
     inkscape:window-maximized="1"
     inkscape:snap-bbox="true"
     inkscape:object-paths="true"
     inkscape:object-nodes="true">
    <inkscape:grid
       type="xygrid"
       id="grid3011"
       empspacing="4"
       visible="true"
       enabled="true"
       snapvisiblegridlinesonly="true" />
    <sodipodi:guide
       orientation="1,0"
       position="8,176"
       id="guide3013" />
    <sodipodi:guide
       orientation="0,1"
       position="184,496"
       id="guide3015" />
    <sodipodi:guide
       orientation="0,1"
       position="40,8"
       id="guide3017" />
    <sodipodi:guide
       orientation="1,0"
       position="496,248"
       id="guide3019" />
    <sodipodi:guide
       orientation="1,0"
       position="56,96"
       id="guide3104" />
    <sodipodi:guide
       orientation="0,1"
       position="64,56"
       id="guide3106" />
    <sodipodi:guide
       orientation="1,0"
       position="24,31"
       id="guide6318" />
    <sodipodi:guide
       orientation="0,1"
       position="57,28"
       id="guide6320" />
  </sodipodi:namedview>
  <metadata
     id="metadata3008">
    <rdf:RDF>
      <cc:Work
         rdf:about="">
        <dc:format>image/svg+xml</dc:format>
        <dc:type
           rdf:resource="http://purl.org/dc/dcmitype/StillImage" />
        <dc:title />
      </cc:Work>
    </rdf:RDF>
  </metadata>
  <g
     id="layer1"
     inkscape:label="Layer 1"
     inkscape:groupmode="layer">
    <path
       inkscape:connector-curvature="0"
       style="fill:#000000;fill-opacity:1;fill-rule:nonzero;stroke:none"
       d="M 34.399992,8 14,8 14,56 27.088114,56 34.399992,8 Z"
       id="path4970" />
    <path
       inkscape:connector-curvature="0"
       style="fill:#ff0000;fill-opacity:1;fill-rule:nonzero;stroke:none"
       d="M 34.021444,8 26.658,56 50,56 50,8 34.021444,8 Z"
       id="rect3021-7" />
    <path
       style="fill:#ff0000;fill-opacity:1"
       d="M 19.552734 8 C 19.545134 8.078779 19.65419 8.2773033 19.902344 8.6074219 C 20.294138 9.1286199 20.392578 9.6151054 20.392578 11.011719 C 20.392578 12.584876 20.459354 12.837364 21.044922 13.476562 C 21.685885 14.176236 21.698517 14.249665 21.779297 17.802734 L 21.861328 21.417969 L 22.662109 22.583984 C 24.011517 24.549426 24.428591 25.758776 24.265625 27.240234 C 24.126455 28.505373 24.151776 28.574394 25.222656 29.935547 C 25.82724 30.70401 26.320312 31.495363 26.320312 31.693359 C 26.320312 31.891359 26.4314 32.269236 26.566406 32.533203 C 26.928294 33.240779 27.796499 33.117123 28.587891 32.246094 C 29.247986 31.519579 29.827015 31.145088 30.570312 30.953125 L 31.654297 24.232422 C 31.170378 23.84902 31.308015 23.229553 31.835938 23.113281 L 32.046875 21.806641 C 31.736728 21.746301 31.387493 21.708415 30.96875 21.695312 C 28.986843 21.633322 28.332718 21.937982 27.751953 23.193359 C 27.196246 24.394569 27.099446 25.103321 27.554688 24.626953 C 27.981662 24.180166 29.881379 24.256136 30.392578 24.740234 C 30.98648 25.30265 30.978335 26.5625 30.380859 26.5625 C 29.606338 26.5625 29.294887 27.208032 29.587891 28.207031 C 29.925199 29.357086 29.763393 29.726367 28.726562 30.179688 C 27.144803 30.871258 26.292154 29.879919 26.21875 27.265625 C 26.18185 25.951691 26.060676 25.44902 25.681641 25.013672 C 25.413261 24.70542 24.750121 23.411239 24.207031 22.136719 C 23.258328 19.910311 23.215936 19.705039 23.140625 16.910156 C 23.087955 14.955495 22.946198 13.768672 22.708984 13.294922 C 22.431298 12.740346 22.411929 12.406401 22.611328 11.726562 C 22.861701 10.872913 22.845405 10.844814 21.384766 9.4082031 C 20.592953 8.6294163 19.994161 8.136597 19.71875 8 L 19.552734 8 z M 14 8.0703125 L 14 9.0371094 C 14.119134 9.3620659 14.215349 9.7319543 14.21875 10.013672 C 14.22415 10.462731 14.478716 10.950105 14.935547 11.386719 C 15.325159 11.759089 15.820282 12.619301 16.035156 13.296875 C 16.250032 13.97445 16.646781 14.783042 16.916016 15.09375 C 17.353481 15.598599 17.377249 15.769768 17.138672 16.705078 C 16.905167 17.620503 16.932099 17.86464 17.359375 18.660156 C 17.821898 19.521296 17.843192 20.150697 17.443359 21.140625 C 17.327647 21.427117 17.693819 22.055323 18.667969 23.248047 C 20.470439 25.454942 21.341797 27.049786 21.341797 28.140625 C 21.341797 29.393571 21.718866 30.259248 22.716797 31.291016 C 23.846491 32.459009 24.973081 33.925332 25.177734 34.496094 C 25.266184 34.742768 25.583594 35.124443 25.882812 35.34375 C 26.642847 35.900804 26.911947 35.845694 27.255859 35.060547 C 27.535316 34.422552 27.503608 34.337808 26.777344 33.757812 C 25.318407 32.592706 23.822214 30.90565 23.367188 29.912109 C 23.117186 29.366233 22.866884 28.250457 22.810547 27.431641 C 22.713057 26.014679 22.641825 25.870087 21.351562 24.453125 C 20.605964 23.634309 19.872061 22.720997 19.720703 22.423828 C 19.437898 21.868581 19.566915 21.103516 19.943359 21.103516 C 20.373117 21.103516 20.133915 20.399931 19.326172 19.292969 C 18.457284 18.102212 18.262128 17.021374 18.765625 16.177734 C 18.989962 15.801844 18.852336 15.407465 17.953125 13.857422 C 17.357132 12.83006 16.799369 11.593688 16.712891 11.111328 C 16.554296 10.22669 16.034576 9.6081801 14.40625 8.3613281 C 14.239335 8.2335159 14.116731 8.1478253 14 8.0703125 z M 14 18.189453 L 14 24.050781 C 14.355266 24.287544 14.660301 24.697356 14.953125 25.351562 C 15.24301 25.999198 15.8911 26.950445 16.394531 27.464844 C 16.897963 27.979245 17.310547 28.634481 17.310547 28.921875 C 17.310547 29.705884 17.796087 30.231028 18.851562 30.585938 C 19.500747 30.804229 19.913459 31.138952 20.158203 31.648438 C 21.105488 33.620406 22.14956 34.993332 22.898438 35.251953 C 23.613661 35.498953 24.122782 36.139478 23.839844 36.435547 C 23.669753 36.61353 21.103516 34.798375 21.103516 34.5 C 21.103516 34.364924 20.863751 34.253285 20.570312 34.251953 C 19.072207 34.245153 16.27937 32.031048 15.576172 30.292969 C 15.436151 29.946883 15.122647 29.490921 14.878906 29.279297 C 14.635165 29.067673 14.330317 28.402234 14.201172 27.800781 C 14.139255 27.51242 14.070933 27.261479 14 27.017578 L 14 30.683594 C 14.811185 32.030176 16.108471 33.606655 17.089844 34.265625 C 17.717274 34.686931 18.445982 35.412466 18.708984 35.878906 C 19.128204 36.622403 19.274862 36.70822 19.896484 36.578125 C 20.705437 36.408826 21.745663 36.980333 22.867188 38.207031 C 23.725058 39.145351 24.486371 39.196491 24.859375 38.339844 C 25.096542 37.795163 25.200347 37.748044 25.632812 37.990234 C 26.077579 38.239311 26.115738 38.411272 25.978516 39.560547 C 25.811202 40.961804 25.965826 41.697266 26.427734 41.697266 C 26.589194 41.697266 26.915568 41.921539 27.152344 42.195312 C 27.38912 42.469088 27.610952 42.664045 27.644531 42.628906 C 27.678111 42.593766 27.554076 41.955005 27.369141 41.208984 C 27.184212 40.462964 27.033203 39.328946 27.033203 38.6875 C 27.033203 37.160613 26.878059 36.792622 26.044922 36.341797 C 25.663709 36.135515 25.153274 35.625356 24.910156 35.207031 C 24.667039 34.788702 23.909451 34.039183 23.226562 33.542969 C 21.894994 32.575397 21.862811 32.534568 21.048828 30.65625 C 20.660215 29.759503 20.280454 29.297886 19.679688 28.990234 C 19.203547 28.746402 18.445005 27.961763 17.902344 27.154297 C 17.381349 26.379068 16.62964 25.343398 16.232422 24.851562 C 14.824677 23.108487 14.597646 22.558909 14.576172 20.855469 C 14.563463 19.847376 14.386673 19.006284 14 18.189453 z M 28.703125 42.535156 C 28.509456 42.823294 28.340556 43.20919 28.210938 43.712891 C 28.020871 44.451505 27.786283 44.771954 27.314453 44.945312 C 26.739433 45.156585 26.083984 46.121682 26.083984 46.755859 C 26.083984 46.890443 25.884536 47.231938 25.640625 47.513672 C 25.331836 47.870341 25.14977 48.589411 25.041016 49.882812 L 24.884766 51.740234 L 25.623047 50.689453 C 26.029355 50.11132 26.46816 49.638672 26.597656 49.638672 C 26.734452 49.638672 26.769965 49.334871 26.681641 48.914062 C 26.460063 47.858413 27.323456 46.164062 28.083984 46.164062 C 28.096834 46.164062 28.106701 46.158603 28.119141 46.158203 L 28.703125 42.535156 z M 26.917969 53.603516 C 26.916569 53.604816 26.915463 53.606122 26.914062 53.607422 C 26.718436 53.777312 26.558594 54.316463 26.558594 54.804688 C 26.558594 55.15524 26.576084 55.359359 26.621094 55.447266 L 26.917969 53.603516 z "
       id="path5090" />
    <path
       style="fill:#000000;fill-opacity:1"
       d="M 48.708984 8 C 48.566288 8.1421907 48.409695 8.3055339 48.238281 8.4921875 C 47.139681 9.6884585 46.950639 10.034995 46.947266 10.847656 C 46.944466 11.530466 46.641165 12.322221 45.878906 13.648438 C 44.707771 15.686037 44.678001 15.806576 45.173828 16.492188 C 45.625334 17.116513 45.401836 18.002822 44.492188 19.191406 L 43.771484 20.132812 L 44.205078 20.974609 C 44.628686 21.797707 44.625905 21.833543 44.146484 22.638672 C 43.877047 23.091153 43.010532 24.126861 42.220703 24.941406 C 40.905478 26.297787 40.785156 26.513592 40.785156 27.492188 C 40.785156 28.867316 39.427673 31.767333 38.123047 33.179688 C 37.34164 34.025619 37.1947 34.331765 37.320312 34.855469 C 37.404792 35.207693 37.557805 35.494141 37.660156 35.494141 C 37.898829 35.494141 39.018451 34.224116 40.175781 32.640625 C 40.674488 31.958279 41.395238 31.107687 41.777344 30.75 C 42.329083 30.233516 42.514701 29.795213 42.673828 28.617188 C 42.927109 26.742141 43.592524 25.364107 45.203125 23.378906 C 46.573924 21.689284 46.69098 21.287683 46.083984 20.380859 C 45.713201 19.826926 45.722076 19.736198 46.246094 18.732422 C 46.749885 17.767391 46.77449 17.577878 46.507812 16.646484 C 46.247785 15.738312 46.266771 15.531103 46.675781 14.826172 C 46.929546 14.388807 47.207357 13.68411 47.292969 13.259766 C 47.378589 12.83542 47.7522 12.182333 48.125 11.808594 C 48.517645 11.414959 48.865411 10.74951 48.951172 10.224609 C 49.032602 9.7262372 49.272448 8.8979166 49.484375 8.3847656 C 49.543955 8.2404991 49.59171 8.114975 49.630859 8 L 48.708984 8 z M 43.439453 8.5058594 C 43.063047 8.5240874 42.050224 9.1928212 41.441406 9.8632812 C 40.893142 10.467052 40.79388 10.788534 40.802734 11.933594 C 40.808534 12.678744 40.780454 14.962728 40.740234 17.009766 L 40.666016 20.730469 L 39.296875 23.607422 C 38.454478 25.374708 37.984815 26.642042 38.078125 26.896484 C 38.482257 27.998512 37.254613 30.533718 36.318359 30.53125 C 36.101721 30.53065 35.399394 30.252711 34.757812 29.912109 C 34.116228 29.571507 33.396935 29.291016 33.158203 29.291016 C 32.824354 29.291016 32.722656 29.100988 32.722656 28.464844 C 32.722656 27.364822 32.97234 27.160206 33.470703 27.851562 C 33.861025 28.393034 33.886846 28.397671 34.052734 27.945312 C 34.158426 27.657104 34.077967 27.196917 33.845703 26.773438 C 33.622366 26.366238 33.556029 26.016667 33.6875 25.931641 C 33.811284 25.851591 34.011767 26.045505 34.132812 26.361328 C 34.525774 27.386602 34.430416 25.331641 34.017578 23.876953 C 33.665855 22.637601 33.193429 22.068112 32.167969 21.833984 L 31.964844 23.091797 C 31.980234 23.090397 31.995369 23.087891 32.011719 23.087891 C 32.280738 23.087891 32.565582 23.265184 32.644531 23.480469 C 32.723481 23.695756 32.636013 24.031106 32.449219 24.226562 C 32.1893 24.498544 32.064591 24.526216 31.767578 24.318359 L 30.703125 30.921875 C 31.082059 30.833945 31.497608 30.78125 32.015625 30.78125 C 33.63351 30.78125 34.101849 30.975788 35.390625 32.181641 C 35.880067 32.639587 36.424573 33.013672 36.599609 33.013672 C 36.967865 33.013672 37.500092 32.424926 37.96875 31.496094 C 38.996325 29.45955 39.396932 28.794922 39.599609 28.794922 C 39.724117 28.794922 39.808895 28.097074 39.789062 27.244141 C 39.756613 25.848661 39.866603 25.461816 40.878906 23.371094 L 42.003906 21.046875 L 42.046875 17.291016 C 42.089045 13.6379 42.107008 13.509204 42.738281 12.552734 C 43.16525 11.90582 43.308267 11.485334 43.154297 11.324219 C 42.798797 10.952221 42.873038 9.8685329 43.298828 9.2324219 C 43.507755 8.9202919 43.624986 8.6085345 43.558594 8.5390625 C 43.533844 8.5131695 43.493229 8.5032554 43.439453 8.5058594 z M 50 17.607422 C 49.188443 18.912499 48.947032 19.968392 49.289062 20.753906 C 49.723728 21.752167 49.630884 22.046071 48.220703 24.171875 C 46.154559 27.286519 45.318825 28.281194 44.378906 28.742188 C 43.714021 29.068286 43.318942 29.551439 42.681641 30.818359 C 41.703744 32.762371 41.182804 33.413321 40.451172 33.605469 C 40.119341 33.692619 39.750073 34.129543 39.484375 34.746094 C 39.247873 35.294908 38.990114 35.743446 38.912109 35.744141 C 38.834099 35.744841 38.451742 36.01201 38.0625 36.337891 C 37.39398 36.897594 37.346651 37.058796 37.201172 39.251953 C 37.116472 40.528906 36.96928 41.768991 36.875 42.007812 C 36.622731 42.646839 36.901046 42.541814 37.851562 41.636719 C 38.649757 40.876671 38.687971 40.76577 38.550781 39.683594 C 38.470771 39.052485 38.473288 38.354912 38.554688 38.132812 C 38.780006 37.518388 39.489765 37.648996 39.800781 38.363281 L 40.078125 39 L 40.845703 38.441406 C 41.268614 38.134746 42.016421 37.51501 42.505859 37.0625 C 43.441385 36.197562 43.745083 36.07982 43.986328 36.488281 C 44.066928 36.62475 44.286217 36.736328 44.472656 36.736328 C 44.863578 36.736328 45.765625 35.986807 45.765625 35.662109 C 45.765625 35.28992 46.934645 33.963712 47.927734 33.210938 C 48.645928 32.666536 49.454176 31.602949 50 30.623047 L 50 27.033203 C 49.918597 27.773889 49.532883 28.644809 49.101562 28.960938 C 48.861764 29.136693 48.593682 29.579156 48.505859 29.945312 C 48.322634 30.709212 46.507252 33.020379 45.605469 33.638672 C 45.27099 33.868002 44.650989 34.056641 44.226562 34.056641 C 43.608106 34.056641 43.285136 34.266357 42.605469 35.117188 C 41.857155 36.053959 40.695043 36.723204 40.382812 36.396484 C 40.187764 36.192384 40.791691 35.246094 41.117188 35.246094 C 41.694418 35.246094 42.565631 34.323554 43.138672 33.103516 C 44.040712 31.183021 44.586695 30.475618 45.068359 30.607422 C 45.757463 30.795991 46.476562 30.104356 46.476562 29.251953 C 46.476562 28.70337 46.77507 28.149197 47.564453 27.230469 C 48.162674 26.534226 48.900317 25.456202 49.205078 24.835938 C 49.400514 24.438177 49.702654 24.028584 50 23.712891 L 50 17.607422 z M 29.5625 41.972656 C 29.310032 41.973956 29.07405 42.095624 28.863281 42.330078 L 28.248047 46.146484 C 28.590316 46.089734 28.777139 45.825358 29.060547 45.048828 C 29.638568 43.465061 29.929604 43.65006 29.742188 45.482422 C 29.617408 46.702416 29.442921 47.191747 28.919922 47.777344 C 28.33781 48.429128 27.663294 50.121893 27.392578 51.445312 L 27.296875 52.039062 C 27.280425 52.186996 27.269531 52.327019 27.269531 52.453125 C 27.269531 52.769141 27.19467 53.106613 27.085938 53.345703 L 26.742188 55.480469 C 26.771417 55.463549 26.803441 55.434671 26.841797 55.394531 C 26.998297 55.230767 27.3085 55.097656 27.529297 55.097656 C 28.110297 55.097656 28.321664 54.442315 28.330078 52.615234 C 28.338378 50.817427 28.990889 49.15755 30.041016 48.265625 C 30.49206 47.88253 30.659815 47.465829 30.738281 46.529297 C 30.795091 45.851335 30.902843 44.813739 30.978516 44.224609 C 31.0932 43.331744 31.026001 43.052051 30.574219 42.548828 C 30.223229 42.157878 29.880546 41.971032 29.5625 41.972656 z M 32.451172 41.972656 C 32.280766 41.971356 32.083258 41.997937 31.867188 42.054688 C 31.287229 42.207001 31.258857 42.281993 31.404297 43.296875 C 31.489477 43.891257 31.439553 45.099673 31.292969 45.980469 C 31.085579 47.226649 31.09339 47.823358 31.330078 48.671875 C 31.497368 49.271599 31.658866 50.822683 31.6875 52.119141 C 31.75173 55.027509 31.835538 55.572617 32.265625 55.857422 C 32.358555 55.918962 32.443654 55.964325 32.521484 56 L 32.894531 56 C 32.897731 55.9625 32.884063 55.912616 32.845703 55.847656 C 32.766963 55.714336 32.826014 55.128065 32.976562 54.544922 C 33.187368 53.728379 33.180994 53.102422 32.951172 51.824219 C 32.690134 50.372402 32.703742 49.972177 33.064453 48.626953 C 33.455141 47.169925 33.455812 47.039681 33.068359 46.140625 C 32.667434 45.210281 32.672201 43.666555 33.078125 42.630859 C 33.236252 42.22739 32.962394 41.976586 32.451172 41.972656 z M 35.037109 41.994141 C 34.816835 41.985841 34.390744 42.188233 34.054688 42.464844 C 33.404666 42.999879 33.404635 43.007242 33.5625 45.265625 C 33.707184 47.335435 33.77977 47.589115 34.410156 48.226562 C 35.564533 49.393873 36.12481 50.807531 36.181641 52.697266 C 36.220491 53.989217 36.344287 54.518631 36.703125 54.929688 C 36.911443 55.168321 37.200506 55.60659 37.417969 56 L 38.060547 56 C 38.062147 55.839249 38.063 55.672974 38.0625 55.494141 C 38.059 54.314729 37.948642 53.77985 37.628906 53.410156 C 37.310495 53.041995 37.236996 52.697324 37.347656 52.080078 C 37.533351 51.044306 37.189968 50.063985 36.248047 48.941406 C 35.22249 47.71916 34.619647 46.099509 34.628906 44.59375 L 34.636719 43.310547 L 35.103516 43.896484 C 35.360011 44.218661 35.568359 44.633251 35.568359 44.816406 C 35.568359 44.99956 35.989392 45.502882 36.503906 45.935547 C 37.429738 46.714092 37.939453 47.718379 37.939453 48.763672 C 37.939453 49.060691 38.216255 49.573451 38.554688 49.904297 C 38.893121 50.235141 39.324887 50.817512 39.513672 51.197266 C 39.702463 51.577018 39.960723 51.821212 40.085938 51.740234 C 40.225026 51.650284 40.228612 51.429909 40.097656 51.173828 C 39.979759 50.943291 39.807334 50.215724 39.712891 49.556641 C 39.618441 48.897557 39.404722 48.303162 39.238281 48.236328 C 39.07184 48.169488 38.867709 47.737817 38.785156 47.277344 C 38.682607 46.705346 38.336396 46.193083 37.693359 45.660156 C 37.141906 45.203128 36.483067 44.297854 36.101562 43.474609 C 35.743437 42.70181 35.28246 42.037355 35.078125 41.998047 C 35.065355 41.995547 35.051799 41.994741 35.037109 41.994141 z "
       id="path5092" />
    <g
       id="layer2"
       inkscape:label="bulle"
       transform="matrix(0.03255559,0,0,0.03656322,21.737037,32.87298)"
       style="fill:#ffffff">
      <path
         inkscape:connector-curvature="0"
         id="path2891"
         style="fill:#ffffff;stroke:#000000;stroke-width:1px"
         d="m 98.316,266.56 51.859,-12.965 -91.834,-108.04 128.57,27.01 0,-22.688 47.537,20.528 -1.0804,-89.673 66.985,59.422 34.573,-129.65 43.216,139.37 25.93,-71.306 22.688,62.663 44.296,-148.01 18.367,137.21 47.537,-31.332 3.2412,54.02 66.985,-60.502 0,75.628 142.61,-78.869 -84.271,116.68 51.859,-2.1608 -21.608,58.341 142.61,24.849 -152.34,44.296 49.698,50.779 -69.145,23.769 c 0,0 61.583,115.6 57.261,115.6 -4.3216,0 -91.834,-42.135 -91.834,-42.135 l 22.688,126.41 -88.593,-126.41 -9.7236,52.939 -45.377,-46.457 -10.804,92.914 -46.457,-83.191 -23.769,32.412 -28.09,-39.975 -62.663,82.11 -10.804,-73.467 -81.03,27.01 5.402,-60.502 c 0,0 -101.56,92.914 -100.48,86.432 1.0804,-6.4824 27.01,-132.89 27.01,-132.89 l -81.044,20.51 c 0,0 62.663,-70.226 57.261,-72.387 -5.402,-2.1608 -209.6,-22.688 -209.6,-22.688 0,0 199.87,-45.377 195.55,-47.537 -4.3216,-2.1608 -46.457,-25.93 -43.216,-28.09 z" />
    </g>
    <rect
       style="opacity:1;fill:#ffcc00;fill-opacity:1;stroke:none;stroke-width:2;stroke-linecap:round;stroke-linejoin:round;stroke-miterlimit:4;stroke-dasharray:none;stroke-dashoffset:0.39370039;stroke-opacity:1"
       id="rect5008"
       width="36"
       height="6.3818178"
       x="14"
       y="11.618182" />
    <text
       xml:space="preserve"
       style="font-style:normal;font-weight:normal;font-size:5.05155563px;line-height:125%;font-family:sans-serif;letter-spacing:0px;word-spacing:0px;fill:#000000;fill-opacity:1;stroke:none;stroke-width:1px;stroke-linecap:butt;stroke-linejoin:miter;stroke-opacity:1"
       x="15.235889"
       y="16.647926"
       id="text5010"
       sodipodi:linespacing="125%"><tspan
         sodipodi:role="line"
         id="tspan5012"
         x="15.235889"
         y="16.647926"><tspan
   style="fill:#ff0000"
   id="tspan5014">COMIC</tspan> BOOK</tspan></text>
    <text
       sodipodi:linespacing="125%"
       id="text4251"
       y="87.634827"
       x="28.357193"
       style="font-style:normal;font-variant:normal;font-weight:normal;font-stretch:normal;font-size:8.74756527px;line-height:125%;font-family:'BadaBoom BB';-inkscape-font-specification:'BadaBoom BB';letter-spacing:0px;word-spacing:0px;fill:#000000;fill-opacity:1;stroke:none;stroke-width:1px;stroke-linecap:butt;stroke-linejoin:miter;stroke-opacity:1"
       xml:space="preserve"><tspan
         dx="0 1.4405117 1.4405117"
         y="87.634827"
         x="28.357193"
         id="tspan4253"
         sodipodi:role="line">cb7</tspan></text>
    <g
       style="font-style:normal;font-variant:normal;font-weight:normal;font-stretch:normal;font-size:8.74756527px;line-height:125%;font-family:'BadaBoom BB';-inkscape-font-specification:'BadaBoom BB';letter-spacing:0px;word-spacing:0px;fill:#000000;fill-opacity:1;stroke:none;stroke-width:1px;stroke-linecap:butt;stroke-linejoin:miter;stroke-opacity:1"
       id="text4240">
      <path
         d="m 30.916235,41.09553 q 0.888424,0 1.307009,0.965307 l -0.965308,1.059276 q -0.196478,-0.205021 -0.452754,-0.205021 -0.452755,0 -0.93968,0.777371 -0.4015,0.640691 -0.521095,1.195957 -0.0598,0.264818 -0.0598,0.478382 0,0.57235 0.418584,0.785914 0.136681,0.06834 0.290447,0.06834 0.444212,0 0.931137,-0.657775 l 0.273362,1.016562 q -0.845712,0.93968 -1.717052,0.93968 -0.888424,0 -1.298466,-0.93968 -0.247734,-0.546723 -0.247734,-1.221584 0,-0.495467 0.128138,-1.050732 0.256276,-1.136159 0.97385,-2.075839 0.862797,-1.136158 1.87936,-1.136158 z"
         style=""
         id="path4253" />
      <path
         d="m 33.638128,41.539742 q 0.273362,-0.04271 1.025106,-0.230649 0.649233,-0.153765 1.04219,-0.196478 0.153766,-0.0085 0.298989,-0.0085 1.127616,0 1.119073,0.803 0,1.136158 -1.400977,2.272316 0.879882,-0.0598 1.016563,0.495468 0.02563,0.119596 0.02563,0.247734 0,0.640691 -0.615063,1.298466 -0.46984,0.504011 -1.161786,0.888425 -0.828627,0.461297 -1.904987,0.461297 -0.170851,0 -0.341702,-0.0085 0.333159,-1.751222 0.734659,-4.706942 0.119596,-0.837169 0.162308,-1.315552 z m 0.90551,3.553699 q -0.06834,0.324616 -0.145223,0.879882 1.204498,-0.36733 1.204498,-0.83717 0,-0.170851 -0.298989,-0.170851 -0.264818,0 -0.760286,0.128139 z m 0.46984,-2.289402 q -0.06834,0.281904 -0.128138,0.563808 l -0.119596,0.563808 q 0.623606,-0.384415 0.888425,-0.888425 0.0598,-0.111053 0.0598,-0.179393 0,-0.145224 -0.222107,-0.145224 -0.170851,0 -0.478382,0.08543 z"
         style=""
         id="path4255" />
      <path
         d="m 42.535183,42.898007 q -0.358786,0.358787 -1.418062,1.537658 -0.358787,0.384414 -0.709031,0.768829 -0.461297,0.50401 -0.649233,0.785914 l 2.01604,-0.136681 -0.179393,1.597456 q -2.212519,0.0598 -3.69038,0.264819 l 0.0085,-1.580371 q 0.358787,-0.418585 1.426605,-1.563286 l 1.47786,-1.58037 q -0.734659,0.0598 -1.580371,0.196478 l 0.0598,-1.614541 3.459731,-0.273361 q -0.07688,0.529638 -0.222107,1.597456 z"
         style=""
         id="path4257" />
    </g>
    <text
       xml:space="preserve"
       style="font-style:normal;font-weight:normal;font-size:5px;line-height:125%;font-family:sans-serif;letter-spacing:0px;word-spacing:0px;fill:#000000;fill-opacity:1;stroke:none;stroke-width:1px;stroke-linecap:butt;stroke-linejoin:miter;stroke-opacity:1"
       x="2"
       y="77"
       id="text4248"
       sodipodi:linespacing="125%"><tspan
         sodipodi:role="line"
         id="tspan4250"
         x="2"
         y="77">20</tspan></text>
  </g>
</svg>
