<?xml version="1.0" encoding="UTF-8" standalone="no"?>
<!-- Created with Inkscape (http://www.inkscape.org/) -->

<svg
   xmlns:dc="http://purl.org/dc/elements/1.1/"
   xmlns:cc="http://creativecommons.org/ns#"
   xmlns:rdf="http://www.w3.org/1999/02/22-rdf-syntax-ns#"
   xmlns:svg="http://www.w3.org/2000/svg"
   xmlns="http://www.w3.org/2000/svg"
   xmlns:sodipodi="http://sodipodi.sourceforge.net/DTD/sodipodi-0.dtd"
   xmlns:inkscape="http://www.inkscape.org/namespaces/inkscape"
   width="512"
   height="512"
   id="svg3003"
   version="1.1"
   inkscape:version="0.48.5 r10040"
   sodipodi:docname="app-autodesk-dwg-512.svg"
   inkscape:export-filename="C:\wamp\www\TESTY\git-hub\system-icons\file-types\app-autodesk-dwg\app-autodesk-dwg-512.png"
   inkscape:export-xdpi="90"
   inkscape:export-ydpi="90">
  <defs
     id="defs3005">
    <mask
       maskUnits="userSpaceOnUse"
       id="mask5170">
      <rect
         y="17.935165"
         x="66.033875"
         height="476.12967"
         width="379.93225"
         id="rect5172"
         style="fill:#ffffff;fill-opacity:1;fill-rule:nonzero;stroke:none;display:inline" />
    </mask>
    <mask
       maskUnits="userSpaceOnUse"
       id="mask5247">
      <rect
         y="17.935165"
         x="66.033875"
         height="476.12967"
         width="379.93225"
         id="rect5249"
         style="fill:#ffffff;fill-opacity:1;fill-rule:nonzero;stroke:none;display:inline" />
    </mask>
    <filter
       inkscape:label="Chalk and sponge"
       inkscape:menu="Distort"
       inkscape:menu-tooltip="Low turbulence gives sponge look and high turbulence chalk"
       width="1.6"
       height="2"
       y="-0.30000001"
       x="-0.30000001"
       color-interpolation-filters="sRGB"
       id="filter5363">
      <feTurbulence
         baseFrequency="0.8"
         type="fractalNoise"
         seed="0"
         numOctaves="8"
         result="result1"
         id="feTurbulence5365" />
      <feOffset
         dx="-5"
         dy="-5"
         result="result2"
         id="feOffset5367" />
      <feDisplacementMap
         xChannelSelector="R"
         yChannelSelector="G"
         scale="30"
         in="SourceGraphic"
         in2="result1"
         id="feDisplacementMap5369" />
    </filter>
    <filter
       inkscape:label="Chalk and sponge"
       inkscape:menu="Distort"
       inkscape:menu-tooltip="Low turbulence gives sponge look and high turbulence chalk"
       width="1.6"
       height="2"
       y="-0.5"
       x="-0.3"
       color-interpolation-filters="sRGB"
       id="filter7521">
      <feTurbulence
         baseFrequency="0.8"
         type="fractalNoise"
         seed="0"
         numOctaves="10"
         result="result1"
         id="feTurbulence7523" />
      <feOffset
         dx="-5"
         dy="-5"
         result="result2"
         id="feOffset7525" />
      <feDisplacementMap
         xChannelSelector="R"
         yChannelSelector="G"
         scale="4"
         in="SourceGraphic"
         in2="result1"
         id="feDisplacementMap7527" />
    </filter>
  </defs>
  <sodipodi:namedview
     id="base"
     pagecolor="#ffffff"
     bordercolor="#666666"
     borderopacity="1.0"
     inkscape:pageopacity="0.0"
     inkscape:pageshadow="2"
     inkscape:zoom="1.375"
     inkscape:cx="289.18178"
     inkscape:cy="275.41037"
     inkscape:current-layer="layer5"
     showgrid="true"
     inkscape:document-units="px"
     inkscape:grid-bbox="true"
     showguides="true"
     inkscape:guide-bbox="true"
     inkscape:window-width="1920"
     inkscape:window-height="1028"
     inkscape:window-x="2872"
     inkscape:window-y="532"
     inkscape:window-maximized="1">
    <inkscape:grid
       type="xygrid"
       id="grid3011"
       empspacing="4"
       visible="true"
       enabled="true"
       snapvisiblegridlinesonly="true" />
    <sodipodi:guide
       orientation="1,0"
       position="16,376"
       id="guide3013" />
    <sodipodi:guide
       orientation="0,1"
       position="184,496"
       id="guide3015" />
    <sodipodi:guide
       orientation="0,1"
       position="336,16"
       id="guide3017" />
    <sodipodi:guide
       orientation="1,0"
       position="496,248"
       id="guide3019" />
    <sodipodi:guide
       orientation="1,0"
       position="280,312"
       id="guide3104" />
    <sodipodi:guide
       orientation="0,1"
       position="488,144"
       id="guide3106" />
    <sodipodi:guide
       orientation="1,0"
       position="316,44"
       id="guide3055" />
    <sodipodi:guide
       orientation="1,0"
       position="80,368"
       id="guide4116" />
    <sodipodi:guide
       orientation="1,0"
       position="256,368"
       id="guide3382" />
  </sodipodi:namedview>
  <metadata
     id="metadata3008">
    <rdf:RDF>
      <cc:Work
         rdf:about="">
        <dc:format>image/svg+xml</dc:format>
        <dc:type
           rdf:resource="http://purl.org/dc/dcmitype/StillImage" />
        <dc:title />
      </cc:Work>
    </rdf:RDF>
  </metadata>
  <g
     id="layer1"
     inkscape:label="Layer 1"
     inkscape:groupmode="layer"
     transform="translate(0,448)"
     style="display:inline"
     sodipodi:insensitive="true">
    <rect
       style="fill:#ff0000;fill-opacity:1;fill-rule:nonzero;stroke:none"
       id="rect5168"
       width="672"
       height="224"
       x="-64"
       y="80" />
    <rect
       style="fill:#00008b;fill-opacity:1;fill-rule:nonzero;stroke:none"
       id="rect3021"
       width="384"
       height="480"
       x="64"
       y="-432" />
    <rect
       y="-429.94785"
       x="66.090912"
       height="476.12967"
       width="379.93225"
       id="rect3791"
       style="fill:#1e90ff;fill-opacity:1;fill-rule:nonzero;stroke:none" />
    <text
       xml:space="preserve"
       style="font-size:4.3274498px;font-style:normal;font-weight:normal;line-height:125%;letter-spacing:0px;word-spacing:0px;fill:#000000;fill-opacity:1;stroke:none;font-family:Sans"
       x="318.59927"
       y="51.622601"
       id="text3219"
       sodipodi:linespacing="125%"><tspan
         sodipodi:role="line"
         id="tspan3221"
         x="318.59927"
         y="51.622601" /></text>
  </g>
  <g
     inkscape:groupmode="layer"
     id="layer2"
     inkscape:label="grid"
     style="opacity:0.31724135;display:inline"
     sodipodi:insensitive="true">
    <g
       id="g5144"
       mask="url(#mask5170)">
      <rect
         ry="0"
         rx="0"
         y="-16"
         x="76"
         height="560"
         width="2"
         id="rect4835"
         style="fill:#ffffff;fill-opacity:1;fill-rule:nonzero;stroke:none" />
      <rect
         style="fill:#ffffff;fill-opacity:1;fill-rule:nonzero;stroke:none"
         id="rect4839"
         width="2"
         height="560"
         x="116"
         y="-16"
         rx="0"
         ry="0" />
      <rect
         ry="0"
         rx="0"
         y="-16"
         x="156"
         height="560"
         width="2"
         id="rect4841"
         style="fill:#ffffff;fill-opacity:1;fill-rule:nonzero;stroke:none" />
      <rect
         style="fill:#ffffff;fill-opacity:1;fill-rule:nonzero;stroke:none"
         id="rect4843"
         width="2"
         height="560"
         x="196"
         y="-16"
         rx="0"
         ry="0" />
      <rect
         ry="0"
         rx="0"
         y="-16"
         x="236"
         height="560"
         width="2"
         id="rect4845"
         style="fill:#ffffff;fill-opacity:1;fill-rule:nonzero;stroke:none" />
      <rect
         style="fill:#ffffff;fill-opacity:1;fill-rule:nonzero;stroke:none"
         id="rect4847"
         width="2"
         height="560"
         x="276"
         y="-16"
         rx="0"
         ry="0" />
      <rect
         ry="0"
         rx="0"
         y="-16"
         x="316"
         height="560"
         width="2"
         id="rect4849"
         style="fill:#ffffff;fill-opacity:1;fill-rule:nonzero;stroke:none" />
      <rect
         style="fill:#ffffff;fill-opacity:1;fill-rule:nonzero;stroke:none"
         id="rect4851"
         width="2"
         height="560"
         x="356"
         y="-16"
         rx="0"
         ry="0" />
      <rect
         ry="0"
         rx="0"
         y="-16"
         x="396"
         height="560"
         width="2"
         id="rect4853"
         style="fill:#ffffff;fill-opacity:1;fill-rule:nonzero;stroke:none" />
      <rect
         style="fill:#ffffff;fill-opacity:1;fill-rule:nonzero;stroke:none"
         id="rect4855"
         width="2"
         height="560"
         x="436"
         y="-16"
         rx="0"
         ry="0" />
      <rect
         transform="matrix(0,1,-1,0,0,0)"
         style="fill:#ffffff;fill-opacity:1;fill-rule:nonzero;stroke:none"
         id="rect4857"
         width="2"
         height="560"
         x="33"
         y="-537"
         rx="0"
         ry="0" />
      <rect
         transform="matrix(0,1,-1,0,0,0)"
         ry="0"
         rx="0"
         y="-537"
         x="73"
         height="560"
         width="2"
         id="rect4859"
         style="fill:#ffffff;fill-opacity:1;fill-rule:nonzero;stroke:none" />
      <rect
         transform="matrix(0,1,-1,0,0,0)"
         style="fill:#ffffff;fill-opacity:1;fill-rule:nonzero;stroke:none"
         id="rect4861"
         width="2"
         height="560"
         x="113"
         y="-537"
         rx="0"
         ry="0" />
      <rect
         transform="matrix(0,1,-1,0,0,0)"
         ry="0"
         rx="0"
         y="-537"
         x="153"
         height="560"
         width="2"
         id="rect4863"
         style="fill:#ffffff;fill-opacity:1;fill-rule:nonzero;stroke:none" />
      <rect
         transform="matrix(0,1,-1,0,0,0)"
         style="fill:#ffffff;fill-opacity:1;fill-rule:nonzero;stroke:none"
         id="rect4865"
         width="2"
         height="560"
         x="193"
         y="-537"
         rx="0"
         ry="0" />
      <rect
         transform="matrix(0,1,-1,0,0,0)"
         ry="0"
         rx="0"
         y="-537"
         x="233"
         height="560"
         width="2"
         id="rect4867"
         style="fill:#ffffff;fill-opacity:1;fill-rule:nonzero;stroke:none" />
      <rect
         transform="matrix(0,1,-1,0,0,0)"
         style="fill:#ffffff;fill-opacity:1;fill-rule:nonzero;stroke:none"
         id="rect4869"
         width="2"
         height="560"
         x="273"
         y="-537"
         rx="0"
         ry="0" />
      <rect
         transform="matrix(0,1,-1,0,0,0)"
         ry="0"
         rx="0"
         y="-537"
         x="313"
         height="560"
         width="2"
         id="rect4871"
         style="fill:#ffffff;fill-opacity:1;fill-rule:nonzero;stroke:none" />
      <rect
         transform="matrix(0,1,-1,0,0,0)"
         style="fill:#ffffff;fill-opacity:1;fill-rule:nonzero;stroke:none"
         id="rect4873"
         width="2"
         height="560"
         x="353"
         y="-537"
         rx="0"
         ry="0" />
      <rect
         transform="matrix(0,1,-1,0,0,0)"
         ry="0"
         rx="0"
         y="-537"
         x="393"
         height="560"
         width="2"
         id="rect4875"
         style="fill:#ffffff;fill-opacity:1;fill-rule:nonzero;stroke:none" />
      <rect
         style="fill:#ffffff;fill-opacity:1;fill-rule:nonzero;stroke:none"
         id="rect4899"
         width="2"
         height="560"
         x="433"
         y="-537"
         rx="0"
         ry="0"
         transform="matrix(0,1,-1,0,0,0)" />
      <rect
         transform="matrix(0,1,-1,0,0,0)"
         ry="0"
         rx="0"
         y="-537"
         x="473"
         height="560"
         width="2"
         id="rect4901"
         style="fill:#ffffff;fill-opacity:1;fill-rule:nonzero;stroke:none" />
    </g>
  </g>
  <g
     inkscape:groupmode="layer"
     id="layer4"
     inkscape:label="grid-small"
     style="opacity:0.27586209"
     sodipodi:insensitive="true">
    <g
       id="g5181"
       mask="url(#mask5247)">
      <rect
         y="-1.1013412e-013"
         x="96"
         height="520"
         width="0.90909094"
         id="rect4904"
         style="fill:#ffffff;fill-opacity:1;fill-rule:nonzero;stroke:none" />
      <rect
         style="fill:#ffffff;fill-opacity:1;fill-rule:nonzero;stroke:none"
         id="rect4906"
         width="0.90909094"
         height="520"
         x="106"
         y="-1.1013412e-013" />
      <rect
         y="-1.1013412e-013"
         x="86"
         height="520"
         width="0.90909094"
         id="rect4908"
         style="fill:#ffffff;fill-opacity:1;fill-rule:nonzero;stroke:none" />
      <rect
         y="-1.1013412e-013"
         x="68"
         height="520"
         width="0.90909094"
         id="rect4912"
         style="fill:#ffffff;fill-opacity:1;fill-rule:nonzero;stroke:none" />
      <rect
         style="fill:#ffffff;fill-opacity:1;fill-rule:nonzero;stroke:none"
         id="rect4916"
         width="0.90909094"
         height="520"
         x="136"
         y="-1.1013412e-013" />
      <rect
         y="-1.1013412e-013"
         x="146"
         height="520"
         width="0.90909094"
         id="rect4918"
         style="fill:#ffffff;fill-opacity:1;fill-rule:nonzero;stroke:none" />
      <rect
         style="fill:#ffffff;fill-opacity:1;fill-rule:nonzero;stroke:none"
         id="rect4920"
         width="0.90909094"
         height="520"
         x="126"
         y="-1.1013412e-013" />
      <rect
         y="-1.1013412e-013"
         x="176"
         height="520"
         width="0.90909094"
         id="rect4922"
         style="fill:#ffffff;fill-opacity:1;fill-rule:nonzero;stroke:none" />
      <rect
         style="fill:#ffffff;fill-opacity:1;fill-rule:nonzero;stroke:none"
         id="rect4924"
         width="0.90909094"
         height="520"
         x="186"
         y="-1.1013412e-013" />
      <rect
         y="-1.1013412e-013"
         x="166"
         height="520"
         width="0.90909094"
         id="rect4926"
         style="fill:#ffffff;fill-opacity:1;fill-rule:nonzero;stroke:none" />
      <rect
         style="fill:#ffffff;fill-opacity:1;fill-rule:nonzero;stroke:none"
         id="rect4928"
         width="0.90909094"
         height="520"
         x="216"
         y="-1.1013412e-013" />
      <rect
         y="-1.1013412e-013"
         x="226"
         height="520"
         width="0.90909094"
         id="rect4930"
         style="fill:#ffffff;fill-opacity:1;fill-rule:nonzero;stroke:none" />
      <rect
         style="fill:#ffffff;fill-opacity:1;fill-rule:nonzero;stroke:none"
         id="rect4932"
         width="0.90909094"
         height="520"
         x="206"
         y="-1.1013412e-013" />
      <rect
         y="-1.1013412e-013"
         x="256"
         height="520"
         width="0.90909094"
         id="rect4934"
         style="fill:#ffffff;fill-opacity:1;fill-rule:nonzero;stroke:none" />
      <rect
         style="fill:#ffffff;fill-opacity:1;fill-rule:nonzero;stroke:none"
         id="rect4936"
         width="0.90909094"
         height="520"
         x="266"
         y="-1.1013412e-013" />
      <rect
         y="-1.1013412e-013"
         x="246"
         height="520"
         width="0.90909094"
         id="rect4938"
         style="fill:#ffffff;fill-opacity:1;fill-rule:nonzero;stroke:none" />
      <rect
         style="fill:#ffffff;fill-opacity:1;fill-rule:nonzero;stroke:none"
         id="rect4940"
         width="0.90909094"
         height="520"
         x="296"
         y="-1.1013412e-013" />
      <rect
         y="-1.1013412e-013"
         x="306"
         height="520"
         width="0.90909094"
         id="rect4942"
         style="fill:#ffffff;fill-opacity:1;fill-rule:nonzero;stroke:none" />
      <rect
         style="fill:#ffffff;fill-opacity:1;fill-rule:nonzero;stroke:none"
         id="rect4944"
         width="0.90909094"
         height="520"
         x="286"
         y="-1.1013412e-013" />
      <rect
         y="-1.1013412e-013"
         x="336"
         height="520"
         width="0.90909094"
         id="rect4946"
         style="fill:#ffffff;fill-opacity:1;fill-rule:nonzero;stroke:none" />
      <rect
         style="fill:#ffffff;fill-opacity:1;fill-rule:nonzero;stroke:none"
         id="rect4948"
         width="0.90909094"
         height="520"
         x="346"
         y="-1.1013412e-013" />
      <rect
         y="-1.1013412e-013"
         x="326"
         height="520"
         width="0.90909094"
         id="rect4950"
         style="fill:#ffffff;fill-opacity:1;fill-rule:nonzero;stroke:none" />
      <rect
         style="fill:#ffffff;fill-opacity:1;fill-rule:nonzero;stroke:none"
         id="rect4952"
         width="0.90909094"
         height="520"
         x="376"
         y="-1.1013412e-013" />
      <rect
         y="-1.1013412e-013"
         x="386"
         height="520"
         width="0.90909094"
         id="rect4954"
         style="fill:#ffffff;fill-opacity:1;fill-rule:nonzero;stroke:none" />
      <rect
         style="fill:#ffffff;fill-opacity:1;fill-rule:nonzero;stroke:none"
         id="rect4956"
         width="0.90909094"
         height="520"
         x="366"
         y="-1.1013412e-013" />
      <rect
         y="-1.1013412e-013"
         x="416"
         height="520"
         width="0.90909094"
         id="rect4958"
         style="fill:#ffffff;fill-opacity:1;fill-rule:nonzero;stroke:none" />
      <rect
         style="fill:#ffffff;fill-opacity:1;fill-rule:nonzero;stroke:none"
         id="rect4960"
         width="0.90909094"
         height="520"
         x="426"
         y="-1.1013412e-013" />
      <rect
         y="-1.1013412e-013"
         x="406"
         height="520"
         width="0.90909094"
         id="rect4962"
         style="fill:#ffffff;fill-opacity:1;fill-rule:nonzero;stroke:none" />
      <rect
         transform="matrix(0,1,-1,0,0,0)"
         style="fill:#ffffff;fill-opacity:1;fill-rule:nonzero;stroke:none"
         id="rect4994"
         width="0.90909094"
         height="520"
         x="53.636364"
         y="-507.45456" />
      <rect
         transform="matrix(0,1,-1,0,0,0)"
         y="-507.45456"
         x="63.636364"
         height="520"
         width="0.90909094"
         id="rect4996"
         style="fill:#ffffff;fill-opacity:1;fill-rule:nonzero;stroke:none" />
      <rect
         transform="matrix(0,1,-1,0,0,0)"
         style="fill:#ffffff;fill-opacity:1;fill-rule:nonzero;stroke:none"
         id="rect4998"
         width="0.90909094"
         height="520"
         x="43.636364"
         y="-507.45456" />
      <rect
         transform="matrix(0,1,-1,0,0,0)"
         style="fill:#ffffff;fill-opacity:1;fill-rule:nonzero;stroke:none"
         id="rect5000"
         width="0.90909094"
         height="520"
         x="25.636366"
         y="-507.45456" />
      <rect
         transform="matrix(0,1,-1,0,0,0)"
         y="-507.45456"
         x="93.636368"
         height="520"
         width="0.90909094"
         id="rect5002"
         style="fill:#ffffff;fill-opacity:1;fill-rule:nonzero;stroke:none" />
      <rect
         transform="matrix(0,1,-1,0,0,0)"
         style="fill:#ffffff;fill-opacity:1;fill-rule:nonzero;stroke:none"
         id="rect5004"
         width="0.90909094"
         height="520"
         x="103.63637"
         y="-507.45456" />
      <rect
         transform="matrix(0,1,-1,0,0,0)"
         y="-507.45456"
         x="83.636368"
         height="520"
         width="0.90909094"
         id="rect5006"
         style="fill:#ffffff;fill-opacity:1;fill-rule:nonzero;stroke:none" />
      <rect
         transform="matrix(0,1,-1,0,0,0)"
         style="fill:#ffffff;fill-opacity:1;fill-rule:nonzero;stroke:none"
         id="rect5008"
         width="0.90909094"
         height="520"
         x="133.63637"
         y="-507.45456" />
      <rect
         transform="matrix(0,1,-1,0,0,0)"
         y="-507.45456"
         x="143.63637"
         height="520"
         width="0.90909094"
         id="rect5010"
         style="fill:#ffffff;fill-opacity:1;fill-rule:nonzero;stroke:none" />
      <rect
         transform="matrix(0,1,-1,0,0,0)"
         style="fill:#ffffff;fill-opacity:1;fill-rule:nonzero;stroke:none"
         id="rect5012"
         width="0.90909094"
         height="520"
         x="123.63637"
         y="-507.45456" />
      <rect
         transform="matrix(0,1,-1,0,0,0)"
         y="-507.45456"
         x="173.63637"
         height="520"
         width="0.90909094"
         id="rect5014"
         style="fill:#ffffff;fill-opacity:1;fill-rule:nonzero;stroke:none" />
      <rect
         transform="matrix(0,1,-1,0,0,0)"
         style="fill:#ffffff;fill-opacity:1;fill-rule:nonzero;stroke:none"
         id="rect5016"
         width="0.90909094"
         height="520"
         x="183.63637"
         y="-507.45456" />
      <rect
         transform="matrix(0,1,-1,0,0,0)"
         y="-507.45456"
         x="163.63637"
         height="520"
         width="0.90909094"
         id="rect5018"
         style="fill:#ffffff;fill-opacity:1;fill-rule:nonzero;stroke:none" />
      <rect
         transform="matrix(0,1,-1,0,0,0)"
         style="fill:#ffffff;fill-opacity:1;fill-rule:nonzero;stroke:none"
         id="rect5020"
         width="0.90909094"
         height="520"
         x="213.63637"
         y="-507.45456" />
      <rect
         transform="matrix(0,1,-1,0,0,0)"
         y="-507.45456"
         x="223.63637"
         height="520"
         width="0.90909094"
         id="rect5022"
         style="fill:#ffffff;fill-opacity:1;fill-rule:nonzero;stroke:none" />
      <rect
         transform="matrix(0,1,-1,0,0,0)"
         style="fill:#ffffff;fill-opacity:1;fill-rule:nonzero;stroke:none"
         id="rect5024"
         width="0.90909094"
         height="520"
         x="203.63637"
         y="-507.45456" />
      <rect
         transform="matrix(0,1,-1,0,0,0)"
         y="-507.45456"
         x="253.63637"
         height="520"
         width="0.90909094"
         id="rect5026"
         style="fill:#ffffff;fill-opacity:1;fill-rule:nonzero;stroke:none" />
      <rect
         transform="matrix(0,1,-1,0,0,0)"
         style="fill:#ffffff;fill-opacity:1;fill-rule:nonzero;stroke:none"
         id="rect5028"
         width="0.90909094"
         height="520"
         x="263.63635"
         y="-507.45456" />
      <rect
         transform="matrix(0,1,-1,0,0,0)"
         y="-507.45456"
         x="243.63637"
         height="520"
         width="0.90909094"
         id="rect5030"
         style="fill:#ffffff;fill-opacity:1;fill-rule:nonzero;stroke:none" />
      <rect
         transform="matrix(0,1,-1,0,0,0)"
         style="fill:#ffffff;fill-opacity:1;fill-rule:nonzero;stroke:none"
         id="rect5032"
         width="0.90909094"
         height="520"
         x="293.63635"
         y="-507.45456" />
      <rect
         transform="matrix(0,1,-1,0,0,0)"
         y="-507.45456"
         x="303.63635"
         height="520"
         width="0.90909094"
         id="rect5034"
         style="fill:#ffffff;fill-opacity:1;fill-rule:nonzero;stroke:none" />
      <rect
         transform="matrix(0,1,-1,0,0,0)"
         style="fill:#ffffff;fill-opacity:1;fill-rule:nonzero;stroke:none"
         id="rect5036"
         width="0.90909094"
         height="520"
         x="283.63635"
         y="-507.45456" />
      <rect
         transform="matrix(0,1,-1,0,0,0)"
         y="-507.45456"
         x="333.63635"
         height="520"
         width="0.90909094"
         id="rect5038"
         style="fill:#ffffff;fill-opacity:1;fill-rule:nonzero;stroke:none" />
      <rect
         transform="matrix(0,1,-1,0,0,0)"
         style="fill:#ffffff;fill-opacity:1;fill-rule:nonzero;stroke:none"
         id="rect5040"
         width="0.90909094"
         height="520"
         x="343.63635"
         y="-507.45456" />
      <rect
         transform="matrix(0,1,-1,0,0,0)"
         y="-507.45456"
         x="323.63635"
         height="520"
         width="0.90909094"
         id="rect5042"
         style="fill:#ffffff;fill-opacity:1;fill-rule:nonzero;stroke:none" />
      <rect
         transform="matrix(0,1,-1,0,0,0)"
         style="fill:#ffffff;fill-opacity:1;fill-rule:nonzero;stroke:none"
         id="rect5044"
         width="0.90909094"
         height="520"
         x="373.63635"
         y="-507.45456" />
      <rect
         transform="matrix(0,1,-1,0,0,0)"
         y="-507.45456"
         x="383.63635"
         height="520"
         width="0.90909094"
         id="rect5046"
         style="fill:#ffffff;fill-opacity:1;fill-rule:nonzero;stroke:none" />
      <rect
         transform="matrix(0,1,-1,0,0,0)"
         style="fill:#ffffff;fill-opacity:1;fill-rule:nonzero;stroke:none"
         id="rect5048"
         width="0.90909094"
         height="520"
         x="363.63635"
         y="-507.45456" />
      <rect
         y="-507.45456"
         x="413.63635"
         height="520"
         width="0.90909094"
         id="rect5108"
         style="fill:#ffffff;fill-opacity:1;fill-rule:nonzero;stroke:none"
         transform="matrix(0,1,-1,0,0,0)" />
      <rect
         style="fill:#ffffff;fill-opacity:1;fill-rule:nonzero;stroke:none"
         id="rect5110"
         width="0.90909094"
         height="520"
         x="423.63635"
         y="-507.45456"
         transform="matrix(0,1,-1,0,0,0)" />
      <rect
         y="-507.45456"
         x="403.63635"
         height="520"
         width="0.90909094"
         id="rect5112"
         style="fill:#ffffff;fill-opacity:1;fill-rule:nonzero;stroke:none"
         transform="matrix(0,1,-1,0,0,0)" />
      <rect
         transform="matrix(0,1,-1,0,0,0)"
         style="fill:#ffffff;fill-opacity:1;fill-rule:nonzero;stroke:none"
         id="rect5114"
         width="0.90909094"
         height="520"
         x="453.63635"
         y="-507.45456" />
      <rect
         transform="matrix(0,1,-1,0,0,0)"
         y="-507.45456"
         x="463.63635"
         height="520"
         width="0.90909094"
         id="rect5116"
         style="fill:#ffffff;fill-opacity:1;fill-rule:nonzero;stroke:none" />
      <rect
         transform="matrix(0,1,-1,0,0,0)"
         style="fill:#ffffff;fill-opacity:1;fill-rule:nonzero;stroke:none"
         id="rect5118"
         width="0.90909094"
         height="520"
         x="443.63635"
         y="-507.45456" />
      <rect
         y="-507.45456"
         x="493.63635"
         height="520"
         width="0.90909094"
         id="rect5120"
         style="fill:#ffffff;fill-opacity:1;fill-rule:nonzero;stroke:none"
         transform="matrix(0,1,-1,0,0,0)" />
      <rect
         y="-507.45456"
         x="483.63635"
         height="520"
         width="0.90909094"
         id="rect5124"
         style="fill:#ffffff;fill-opacity:1;fill-rule:nonzero;stroke:none"
         transform="matrix(0,1,-1,0,0,0)" />
    </g>
  </g>
  <g
     inkscape:groupmode="layer"
     id="layer3"
     inkscape:label="shapes"
     style="display:inline"
     sodipodi:insensitive="true">
    <g
       transform="translate(-254.4062,472)"
       id="g4639">
      <g
         transform="translate(4254.4062,640)"
         id="g4627">
        <path
           sodipodi:nodetypes="cccc"
           inkscape:connector-curvature="0"
           id="path4570"
           d="m -3040,-1312 -352,640 704,0 z"
           style="fill:#cd2720;fill-opacity:1;stroke:none" />
        <path
           style="fill:#ad161c;fill-opacity:1;stroke:none"
           d="m -3040,-1312 -352,640 104,112 120,16 16,-128 z"
           id="path4171"
           inkscape:connector-curvature="0"
           sodipodi:nodetypes="cccccc" />
        <path
           sodipodi:nodetypes="cccccc"
           inkscape:connector-curvature="0"
           id="path4568"
           d="m -3040,-1312 352,640 -104,112 -120,16 -16,-128 z"
           style="fill:#ad161c;fill-opacity:1;stroke:none" />
        <path
           inkscape:connector-curvature="0"
           style="fill:#8a141a;fill-opacity:1;stroke:none"
           d="M -3125.4375,-375.8125 -3152,-224 l 224,0 -34.7812,-198.78125 -162.6563,46.96875 z"
           id="path4589"
           transform="translate(0,-448)" />
        <path
           inkscape:connector-curvature="0"
           style="fill:#8a141a;fill-opacity:1;fill-rule:nonzero;stroke:none"
           d="m -3317.7188,-144 29.7188,32 120,16 6,-48 -155.7188,0 z"
           transform="translate(0,-448)"
           id="rect4622" />
        <path
           inkscape:connector-curvature="0"
           style="fill:#531a19;fill-opacity:1;stroke:none"
           d="m -3343.0625,-313 -48.9375,89 104,112 -24,-112 160,0 26.5625,-151.8125 -217.625,62.8125 z"
           id="path4584"
           transform="translate(0,-448)" />
        <path
           inkscape:connector-curvature="0"
           style="fill:#531a19;fill-opacity:1;stroke:none"
           d="M -2962.7812,-422.78125 -2928,-224 l 240,0 -132,-240 -142.7812,41.21875 z"
           id="path4572"
           transform="translate(0,-448)" />
        <path
           inkscape:connector-curvature="0"
           style="fill:#cd2720;fill-opacity:1;stroke:none"
           d="m -2928,-224 9.875,79.09375 L -2792,-112 l -40,-112 -96,0 z"
           transform="translate(0,-448)"
           id="path4607" />
        <path
           inkscape:connector-curvature="0"
           style="fill:#8a141a;fill-opacity:1;fill-rule:nonzero;stroke:none"
           d="m -2978.4062,-512 15.625,89.21875 L -2820,-464 l -26.4062,-48 -132,0 z"
           transform="translate(0,-448)"
           id="rect4591" />
        <path
           inkscape:connector-curvature="0"
           style="fill:#8a141a;fill-opacity:1;fill-rule:nonzero;stroke:none"
           d="m -3233.5938,-512 -109.4687,199 217.625,-62.8125 23.8437,-136.1875 -132,0 z"
           transform="translate(0,-448)"
           id="rect4599" />
      </g>
    </g>
    <path
       style="fill:#ffffff;fill-opacity:1;stroke:none;filter:url(#filter5363)"
       d="m 368,368 -56,96.9375 18,20 22,3 3,-20 26,0 3,20 22,-3 18,-20 z"
       id="path4680"
       inkscape:connector-curvature="0"
       sodipodi:nodetypes="cccccccccc" />
    <g
       id="g4652"
       transform="matrix(0.14583333,0,0,0.14583333,190.8991,470)">
      <g
         id="g4654"
         transform="translate(4254.4062,640)">
        <path
           style="fill:#cd2720;fill-opacity:1;stroke:none"
           d="m -3040,-1312 -352,640 704,0 z"
           id="path4656"
           inkscape:connector-curvature="0"
           sodipodi:nodetypes="cccc" />
        <path
           sodipodi:nodetypes="cccccc"
           inkscape:connector-curvature="0"
           id="path4658"
           d="m -3040,-1312 -352,640 104,112 120,16 16,-128 z"
           style="fill:#ad161c;fill-opacity:1;stroke:none" />
        <path
           style="fill:#ad161c;fill-opacity:1;stroke:none"
           d="m -3040,-1312 352,640 -104,112 -120,16 -16,-128 z"
           id="path4660"
           inkscape:connector-curvature="0"
           sodipodi:nodetypes="cccccc" />
        <path
           transform="translate(0,-448)"
           id="path4662"
           d="M -3125.4375,-375.8125 -3152,-224 l 224,0 -34.7812,-198.78125 -162.6563,46.96875 z"
           style="fill:#8a141a;fill-opacity:1;stroke:none"
           inkscape:connector-curvature="0" />
        <path
           id="path4664"
           transform="translate(0,-448)"
           d="m -3317.7188,-144 29.7188,32 120,16 6,-48 -155.7188,0 z"
           style="fill:#8a141a;fill-opacity:1;fill-rule:nonzero;stroke:none"
           inkscape:connector-curvature="0" />
        <path
           transform="translate(0,-448)"
           id="path4666"
           d="m -3343.0625,-313 -48.9375,89 104,112 -24,-112 160,0 26.5625,-151.8125 -217.625,62.8125 z"
           style="fill:#531a19;fill-opacity:1;stroke:none"
           inkscape:connector-curvature="0" />
        <path
           transform="translate(0,-448)"
           id="path4668"
           d="M -2962.7812,-422.78125 -2928,-224 l 240,0 -132,-240 -142.7812,41.21875 z"
           style="fill:#531a19;fill-opacity:1;stroke:none"
           inkscape:connector-curvature="0" />
        <path
           id="path4670"
           transform="translate(0,-448)"
           d="m -2928,-224 9.875,79.09375 L -2792,-112 l -40,-112 -96,0 z"
           style="fill:#cd2720;fill-opacity:1;stroke:none"
           inkscape:connector-curvature="0" />
        <path
           id="path4672"
           transform="translate(0,-448)"
           d="m -2978.4062,-512 15.625,89.21875 L -2820,-464 l -26.4062,-48 -132,0 z"
           style="fill:#8a141a;fill-opacity:1;fill-rule:nonzero;stroke:none"
           inkscape:connector-curvature="0" />
        <path
           id="path4674"
           transform="translate(0,-448)"
           d="m -3233.5938,-512 -109.4687,199 217.625,-62.8125 23.8437,-136.1875 -132,0 z"
           style="fill:#8a141a;fill-opacity:1;fill-rule:nonzero;stroke:none"
           inkscape:connector-curvature="0" />
      </g>
    </g>
  </g>
  <g
     inkscape:groupmode="layer"
     id="layer5"
     inkscape:label="house">
    <g
       id="g7471">
      <path
         sodipodi:nodetypes="ccccc"
         style="fill:none;stroke:#ffffff;stroke-width:1.03359306;stroke-miterlimit:4;stroke-opacity:1;stroke-dasharray:none"
         inkscape:connector-curvature="0"
         d="M 306.23794,66.305701 C 311,67 317.33047,62.832033 319.2127,64.373549 c -0.006,-0.04606 -0.48868,-10.10766 -0.51722,-10.121226 l -12.53619,1.148839 c 0.13326,4.468803 0.0775,6.433096 0.0786,10.904539 z"
         id="path2448" />
      <path
         style="fill:none;stroke:#ffffff;stroke-width:1.03359306;stroke-miterlimit:4;stroke-opacity:1;stroke-dasharray:none"
         inkscape:connector-curvature="0"
         d="m 178.48578,53.782426 0.40343,12.486838 65.58148,102.511756 11.72508,0.3553 -68.89415,-105.746905 h -0.0161 l 0.0969,-9.221717 z"
         id="path2410" />
      <path
         style="fill:none;stroke:#ffffff;stroke-width:1.03359306;stroke-miterlimit:4;stroke-opacity:1;stroke-dasharray:none"
         inkscape:connector-curvature="0"
         d="m 318.89487,64.367711 7.43671,0.454122 78.89545,103.352847 -10.12017,0 z"
         id="path2412" />
      <path
         style="fill:none;stroke:#ffffff;stroke-width:1.03359306;stroke-miterlimit:4;stroke-opacity:1;stroke-dasharray:none"
         inkscape:connector-curvature="0"
         d="M 395.10298,167.76901 319.24371,64.823138 c -0.88359,-2.645611 -5.68786,1.444705 -9.08334,1.472805 l 84.97427,112.448467 z"
         id="path2414" />
      <path
         style="fill:none;stroke:#ffffff;stroke-width:1.03359306;stroke-miterlimit:4;stroke-opacity:1;stroke-dasharray:none"
         inkscape:connector-curvature="0"
         d="m 106.76928,159.20633 60.99168,-90.18745 0.40405,-14.897952 10.31784,-0.338612 0.40343,12.487096 65.57501,102.383858 -0.002,178.17206 c 0,0 -138.39811,-6.82947 -136.8025,-7.43929 z"
         id="path2420" />
      <path
         style="fill:none;stroke:#ffffff;stroke-width:1.03359306;stroke-miterlimit:4;stroke-opacity:1;stroke-dasharray:none"
         inkscape:connector-curvature="0"
         d="m 244.46325,168.46991 9.86113,0.22402 1.73844,19.83207 138.87615,0.4034 0.17159,-20.75907 10.12017,0 V 336 l -160.76248,10.82236 z"
         id="path2422" />
      <path
         id="path3081"
         d="m 377.5,285.71875 -42.15625,1.71875 c 0,0 3e-5,0.0586 0,0.0625 l -0.0312,3.09375 -0.25,47.96875 3.15625,-0.0625 0,-0.0937 40.125,-1.9375 -0.84375,-50.75 z m -3.28125,3.53125 0.1875,30.3125 -15.9375,0.9375 0.59375,-30.75 15.15625,-0.5 z m -18.96875,0.625 -0.3125,30.84375 -17.5,1 0.625,-31.21875 17.1875,-0.625 z m 19.1875,31.96875 0.0625,11.1875 -16.125,0.8125 0.0937,-11.09375 15.96875,-0.90625 z m -19.5,1.09375 -0.125,11.03125 -17.65625,0.84375 0.21875,-10.65625 17.5625,-1.21875 z"
         style="fill:#ffffff;stroke:none"
         inkscape:connector-curvature="0" />
      <path
         style="fill:none;stroke:#ffffff;stroke-width:1.03359306;stroke-miterlimit:4;stroke-opacity:1;stroke-dasharray:none"
         inkscape:connector-curvature="0"
         d="m 188.62985,65.420684 121.77664,0.902843 84.73525,112.422623 -140.55573,-1.82093 -0.25872,-8.23451 z"
         id="path2426" />
      <path
         style="fill:none;stroke:#ffffff;stroke-width:1.03359306;stroke-miterlimit:4;stroke-opacity:1;stroke-dasharray:none"
         inkscape:connector-curvature="0"
         d="m 260.79402,109.14167 13.8986,-14.492266 42.68869,-6.9451 -20.88246,14.450276 -35.70483,6.98709 z"
         id="path2428" />
      <path
         style="fill:none;stroke:#ffffff;stroke-width:1.03359306;stroke-miterlimit:4;stroke-opacity:1;stroke-dasharray:none"
         inkscape:connector-curvature="0"
         d="m 261.25914,109.21919 0.20667,4.32901 36.99424,-7.36693 18.80751,-12.587229 17.98065,15.151829 2.97132,0.24784 1.35749,-1.06583 -22.51617,-20.109202 -20.04719,13.687352 -35.75457,7.71319 z"
         id="path2430" />
      <path
         style="fill:none;stroke:#ffffff;stroke-width:1.03359306;stroke-miterlimit:4;stroke-opacity:1;stroke-dasharray:none"
         inkscape:connector-curvature="0"
         d="m 293.40388,155.9053 2.86577,-0.32816 -0.12912,-49.09438 -31.31658,6.39452 28.58014,43.02848 z"
         id="path2409" />
      <path
         style="fill:none;stroke:#ffffff;stroke-width:1.03359306;stroke-miterlimit:4;stroke-opacity:1;stroke-dasharray:none"
         inkscape:connector-curvature="0"
         d="m 296.03955,106.59645 2.19031,-0.32662 18.66992,-13.000661 17.73129,15.002601 -1.04302,49.07823 -37.23584,-1.74871 -0.3129,-49.00523 z"
         id="path2411" />
      <path
         id="path2413"
         d="m 302.28125,114.9375 -0.25,13.375 -0.15625,0 0.125,1.46875 0,0.0625 -0.4375,22.5 27,0.84375 0,-37.25 -26.28125,-1 z m 1.625,2.4375 11.875,0.46875 -0.21875,11.03125 -11.84375,-0.5 0.1875,-11 z m 13.28125,0.53125 9.65625,0.375 0,11.0625 -9.875,-0.40625 0.21875,-11.03125 z m -13.5,12.03125 23.15625,1.21875 0,19.59375 -23.53125,-0.75 0.375,-20.0625 z"
         style="fill:#ffffff;stroke:none"
         inkscape:connector-curvature="0" />
      <path
         sodipodi:nodetypes="ccccc"
         style="fill:none;stroke:#ffffff;stroke-width:1.03359306;stroke-miterlimit:4;stroke-opacity:1;stroke-dasharray:none"
         inkscape:connector-curvature="0"
         d="m 318.6817,54.422191 7.55168,0.815857 0.14021,9.635671 -7.31397,-0.290853 C 318.85436,61.030511 319,57.739248 318.6817,54.422191 z"
         id="path3220" />
      <path
         style="fill:#ffffff;stroke:none"
         inkscape:connector-curvature="0"
         d="m 306.14938,51.331519 12.011,-1.705558 8.33722,1.147159 -0.12724,4.47998 -7.82495,-1.003554 -12.38115,1.148192 -0.0153,-4.066284 z"
         id="path3222" />
      <path
         style="fill:#ffffff;stroke:none"
         inkscape:connector-curvature="0"
         d="m 168.04197,50.007227 10.71577,-0.832559 8.75518,0.560976 -0.12736,4.427913 -8.43412,-0.172093 -10.78296,0.124496 c -0.12723,-4.108791 -0.0468,-2.825197 -0.12723,-4.108791 z"
         id="path3224" />
      <path
         id="path3265"
         d="m 119.5625,265.3125 -0.5625,51 42.625,2.3125 -0.875,-51.5625 -41.1875,-1.75 z m 2.625,3.75 35.40625,1.4375 1.25,43.625 -37.40625,-0.90625 0.75,-44.15625 z"
         style="fill:#ffffff;stroke:none"
         inkscape:connector-curvature="0" />
      <path
         id="path3235"
         d="m 314.65625,282.625 -28.125,1.3125 1.125,60.09375 4.0625,-0.3125 -0.875,-56.375 21.4375,-0.96875 0.15625,55.8125 2.4375,-0.1875 -0.21875,-59.375 z"
         style="fill:#ffffff;stroke:none"
         inkscape:connector-curvature="0" />
      <path
         inkscape:connector-curvature="0"
         id="path3198"
         d="m 313.09375,200.75 -45.5,0.78125 0,0.0625 -0.0312,3.34375 -0.25,49.875 -0.34375,2.28125 0.34375,0 3.21875,-0.0312 0,-0.0625 43.5,-1.0625 -0.9375,-55.1875 z m -2.125,3.78125 0,32.9375 -17.53125,0.59375 0.34375,-33.375 17.1875,-0.15625 z m -20.90625,0.1875 -0.3125,33.46875 -19.03125,0.625 0,2.28125 19,-0.53125 -0.125,12.03125 -19.03125,0.4375 0.15625,-14.21875 0.34375,-33.90625 19,-0.1875 z m 20.90625,35.25 0,12.15625 -17.6875,0.40625 0.125,-12.0625 17.5625,-0.5 z"
         style="fill:#ffffff;fill-opacity:1;stroke:none" />
      <path
         id="path3210"
         d="m 339.8085,237.88563 -0.0258,2.26109 39.47036,-1.15694 0.30697,-2.4577 -39.75089,1.35358 z"
         inkscape:connector-curvature="0"
         style="fill:#ffffff;stroke:none" />
      <path
         id="path3212"
         d="m 358.19172,203.5539 -0.24703,48.99242 3.9242,-0.0951 0.0794,-48.93789 -3.75658,0.0407 z"
         inkscape:connector-curvature="0"
         style="fill:#ffffff;stroke:none" />
      <path
         inkscape:connector-curvature="0"
         id="path3214"
         d="M 382.4375,199.83232 336,200.43221 l 0.375,55.44279 1.75,-0.0316 0,0.0316 1,-0.0316 0.46875,0 42.71875,-1.16822 0.125,-54.84289 z m -3.1875,3.75723 0,47.32844 -39.625,0.9472 L 340.1875,204 379.25,203.58955 z"
         style="fill:#ffffff;stroke:none" />
      <path
         inkscape:connector-curvature="0"
         d="m 294.52146,290.61994 0.19294,24.49357 12.92766,-0.31062 -0.19293,-24.49357 -12.92767,0.3106 z"
         id="path3237"
         style="fill:#ffffff;stroke:none" />
      <path
         style="fill:none;stroke:#ffffff;stroke-width:1.03359306;stroke-miterlimit:4;stroke-opacity:1;stroke-dasharray:none"
         inkscape:connector-curvature="0"
         d="m 254.57955,176.92793 v 5.78838 l 142.59708,0.0394 v -5.78838 z"
         id="path3239" />
      <path
         style="fill:none;stroke:#ffffff;stroke-width:1.03359306;stroke-miterlimit:4;stroke-opacity:1;stroke-dasharray:none"
         inkscape:connector-curvature="0"
         d="m 254.57955,182.7167 0.56189,2.59193 137.71335,-0.0108 -0.16054,-2.6845 z"
         id="path3241" />
      <path
         style="fill:none;stroke:#ffffff;stroke-width:1.03359306;stroke-miterlimit:4;stroke-opacity:1;stroke-dasharray:none"
         inkscape:connector-curvature="0"
         d="m 255.14156,185.30843 -0.56189,3.98444 137.53248,-0.46014 0.74715,-3.53508 z"
         id="path3243" />
      <path
         style="fill:none;stroke:#ffffff;stroke-width:1.03359306;stroke-miterlimit:4;stroke-opacity:1;stroke-dasharray:none"
         inkscape:connector-curvature="0"
         d="m 397.17663,182.75546 c -0.95769,-0.0305 -4.47785,-0.14273 -4.47785,-0.14273 l 0.16057,2.6845 -0.71383,3.53606 2.78876,0.0955 2.24238,-6.17333 z"
         id="path3245" />
      <path
         style="fill:none;stroke:#ffffff;stroke-width:1.03359306;stroke-miterlimit:4;stroke-opacity:1;stroke-dasharray:none"
         inkscape:connector-curvature="0"
         d="m 296.10415,106.49309 c 0,0 -0.33572,1.72901 0.0458,2.09005 l 4.24981,-0.0323 16.89344,-11.525856 17.30105,13.030376 0.87539,-1.35982 -18.5685,-15.427667 -17.83723,12.420557 -2.9593,0.80524 z"
         id="path3247" />
      <path
         style="fill:#ffffff;stroke:none"
         inkscape:connector-curvature="0"
         d="m 121.5432,298.2892 -0.0236,2.11228 37.31335,2.52842 0.28103,-2.27048 -37.5711,-2.37029 z"
         id="path3261" />
      <path
         style="fill:#ffffff;stroke:none"
         inkscape:connector-curvature="0"
         d="m 139.59232,268.61151 -0.60779,45.03624 3.59258,0.27035 0.45429,-45.0007 -3.43908,-0.30586 z"
         id="path3263" />
      <path
         id="path2461"
         d="m 185.53125,268.6875 -0.5625,51 42.65625,2.375 -0.90625,-51.59375 -41.1875,-1.78125 z m 2.75,3.28125 35.28125,1.9375 -0.125,44.5625 -35.09375,-2.78125 -0.0625,-43.71875 z"
         style="fill:#ffffff;stroke:none"
         inkscape:connector-curvature="0" />
      <path
         style="fill:#ffffff;stroke:none"
         inkscape:connector-curvature="0"
         d="m 187.5252,301.66776 -0.0236,2.11227 37.31335,2.56848 0.28104,-2.27015 -37.57111,-2.41054 z"
         id="path2465" />
      <path
         style="fill:#ffffff;stroke:none"
         inkscape:connector-curvature="0"
         d="m 205.57431,272.00751 -0.60778,45.03559 3.59257,0.2742 0.4543,-45.00006 -3.43909,-0.30955 z"
         id="path2467" />
      <path
         id="path2469"
         d="m 122.6875,197.65625 -0.59375,51 42.65625,2.3125 -0.875,-51.5625 -41.1875,-1.75 z m 2.625,3.75 35.375,1.4375 1.25,43.625 -37.375,-0.90625 0.75,-44.15625 z"
         style="fill:#ffffff;fill-opacity:1;stroke:none"
         inkscape:connector-curvature="0" />
      <path
         sodipodi:nodetypes="ccccc"
         style="fill:#ffffff;fill-opacity:1;stroke:none"
         inkscape:connector-curvature="0"
         d="m 124.84975,230.64241 -0.0879,2.11227 36.79911,2.52843 -0.0404,-2.27048 c -12.29341,-0.66727 -24.37396,-1.79069 -36.67082,-2.37022 z"
         id="path2473" />
      <path
         sodipodi:nodetypes="ccccc"
         style="fill:#ffffff;fill-opacity:1;stroke:none"
         inkscape:connector-curvature="0"
         d="m 142.70602,202.11864 -0.60779,43.87915 3.59258,0.0132 0.4543,-43.71505 c -1.14635,-0.10196 -2.29279,-0.0753 -3.43909,-0.17733 z"
         id="path2475" />
      <path
         id="path2479"
         d="m 186.46875,200.8125 -0.5625,51.90625 43.125,2.84375 -0.90625,-53.40625 -41.65625,-1.34375 z m 2.65625,3.75 35.375,1.46875 0.6875,45.375 -36.8125,-1.65625 0.75,-45.1875 z"
         style="fill:#ffffff;fill-opacity:1;stroke:none"
         inkscape:connector-curvature="0" />
      <path
         style="fill:#ffffff;fill-opacity:1;stroke:none"
         inkscape:connector-curvature="0"
         d="m 188.46189,233.79887 -0.0236,2.11228 37.31336,2.56847 0.28103,-2.27015 -37.5711,-2.4106 z"
         id="path2483" />
      <path
         style="fill:#ffffff;fill-opacity:1;stroke:none"
         inkscape:connector-curvature="0"
         d="m 206.51101,204.13792 -0.65304,46.39476 3.59258,0.27421 0.49957,-46.35988 z"
         id="path2485" />
      <path
         id="path2443"
         d="m 154.5625,112.5 -0.5625,51 42.65625,2.3125 0,-52.03125 L 154.5625,112.5 z m 2.625,3.75 17.40625,0.71875 -0.40625,29.65625 c -5.82178,-0.40794 -11.64077,-0.81131 -17.5,-1.125 l 0.5,-29.25 z m 18.78125,0.75 16.625,0.6875 0.5625,44.625 -15.59375,-0.8125 -21.125,-1.09375 0.25,-14.84375 0.0625,2.03125 17.40625,1.21875 -0.1875,12.40625 3.59375,0.28125 0.125,-12.4375 15.25,1.0625 0,-2.28125 c -5.09447,-0.2965 -10.15514,-0.64466 -15.21875,-1 l 0.3125,-29.71875 -2.0625,-0.125 z"
         style="fill:#ffffff;stroke:none"
         inkscape:connector-curvature="0" />
    </g>
  </g>
</svg>
