<?xml version="1.0" encoding="UTF-8" standalone="no"?>
<!-- Created with Inkscape (http://www.inkscape.org/) -->

<svg
   xmlns:dc="http://purl.org/dc/elements/1.1/"
   xmlns:cc="http://creativecommons.org/ns#"
   xmlns:rdf="http://www.w3.org/1999/02/22-rdf-syntax-ns#"
   xmlns:svg="http://www.w3.org/2000/svg"
   xmlns="http://www.w3.org/2000/svg"
   xmlns:sodipodi="http://sodipodi.sourceforge.net/DTD/sodipodi-0.dtd"
   xmlns:inkscape="http://www.inkscape.org/namespaces/inkscape"
   width="64"
   height="64"
   id="svg3003"
   version="1.1"
   inkscape:version="0.48.5 r10040"
   sodipodi:docname="app-autodesk-dwg-64.svg"
   inkscape:export-filename="C:\wamp\www\TESTY\git-hub\system-icons\file-types\app-autodesk-dwg\app-autodesk-dwg-64.png"
   inkscape:export-xdpi="90"
   inkscape:export-ydpi="90">
  <defs
     id="defs3005">
    <filter
       id="filter7521"
       color-interpolation-filters="sRGB"
       x="-0.3"
       y="-0.5"
       height="2"
       width="1.6"
       inkscape:menu-tooltip="Low turbulence gives sponge look and high turbulence chalk"
       inkscape:menu="Distort"
       inkscape:label="Chalk and sponge">
      <feTurbulence
         id="feTurbulence7523"
         result="result1"
         numOctaves="10"
         seed="0"
         type="fractalNoise"
         baseFrequency="0.8" />
      <feOffset
         id="feOffset7525"
         result="result2"
         dy="-5"
         dx="-5" />
      <feDisplacementMap
         id="feDisplacementMap7527"
         in2="result1"
         in="SourceGraphic"
         scale="4"
         yChannelSelector="G"
         xChannelSelector="R" />
    </filter>
    <filter
       id="filter5363"
       color-interpolation-filters="sRGB"
       x="-0.30000001"
       y="-0.30000001"
       height="2"
       width="1.6"
       inkscape:menu-tooltip="Low turbulence gives sponge look and high turbulence chalk"
       inkscape:menu="Distort"
       inkscape:label="Chalk and sponge">
      <feTurbulence
         id="feTurbulence5365"
         result="result1"
         numOctaves="8"
         seed="0"
         type="fractalNoise"
         baseFrequency="0.8" />
      <feOffset
         id="feOffset5367"
         result="result2"
         dy="-5"
         dx="-5" />
      <feDisplacementMap
         id="feDisplacementMap5369"
         in2="result1"
         in="SourceGraphic"
         scale="30"
         yChannelSelector="G"
         xChannelSelector="R" />
    </filter>
    <mask
       maskUnits="userSpaceOnUse"
       id="mask5188">
      <rect
         style="fill:#ffffff;fill-opacity:1;fill-rule:nonzero;stroke:none"
         id="rect5190"
         width="34"
         height="46"
         x="15"
         y="9" />
    </mask>
    <mask
       maskUnits="userSpaceOnUse"
       id="mask5209">
      <rect
         style="fill:#ffffff;fill-opacity:1;fill-rule:nonzero;stroke:none"
         id="rect5211"
         width="34"
         height="46"
         x="15"
         y="9" />
    </mask>
  </defs>
  <sodipodi:namedview
     id="base"
     pagecolor="#ffffff"
     bordercolor="#666666"
     borderopacity="1.0"
     inkscape:pageopacity="0.0"
     inkscape:pageshadow="2"
     inkscape:zoom="11"
     inkscape:cx="1.3388854"
     inkscape:cy="35.180697"
     inkscape:current-layer="layer4"
     showgrid="true"
     inkscape:document-units="px"
     inkscape:grid-bbox="true"
     showguides="true"
     inkscape:guide-bbox="true"
     inkscape:window-width="1920"
     inkscape:window-height="1028"
     inkscape:window-x="2872"
     inkscape:window-y="532"
     inkscape:window-maximized="1">
    <inkscape:grid
       type="xygrid"
       id="grid3011"
       empspacing="4"
       visible="true"
       enabled="true"
       snapvisiblegridlinesonly="true" />
    <sodipodi:guide
       orientation="1,0"
       position="8,176"
       id="guide3013" />
    <sodipodi:guide
       orientation="0,1"
       position="184,496"
       id="guide3015" />
    <sodipodi:guide
       orientation="0,1"
       position="40,8"
       id="guide3017" />
    <sodipodi:guide
       orientation="1,0"
       position="496,248"
       id="guide3019" />
    <sodipodi:guide
       orientation="1,0"
       position="56,96"
       id="guide3104" />
    <sodipodi:guide
       orientation="0,1"
       position="64,56"
       id="guide3106" />
    <sodipodi:guide
       orientation="1,0"
       position="24,32"
       id="guide3393" />
    <sodipodi:guide
       orientation="0,1"
       position="52,28"
       id="guide3395" />
  </sodipodi:namedview>
  <metadata
     id="metadata3008">
    <rdf:RDF>
      <cc:Work
         rdf:about="">
        <dc:format>image/svg+xml</dc:format>
        <dc:type
           rdf:resource="http://purl.org/dc/dcmitype/StillImage" />
        <dc:title></dc:title>
      </cc:Work>
    </rdf:RDF>
  </metadata>
  <g
     inkscape:groupmode="layer"
     id="layer2"
     inkscape:label="bg"
     sodipodi:insensitive="true"
     style="display:inline">
    <g
       id="g4231">
      <path
         inkscape:connector-curvature="0"
         id="rect3021"
         d="m 14,8 36,0 0,48 -36,0 z"
         style="fill:#00008b;fill-opacity:1;fill-rule:nonzero;stroke:none" />
      <path
         sodipodi:nodetypes="ccccc"
         inkscape:connector-curvature="0"
         id="rect3791"
         d="m 15,9 34,0 0,46 -34,0 z"
         style="fill:#1e90ff;fill-opacity:1;fill-rule:nonzero;stroke:none" />
    </g>
  </g>
  <g
     inkscape:groupmode="layer"
     id="layer3"
     inkscape:label="grid"
     style="opacity:0.25;display:inline"
     sodipodi:insensitive="true">
    <g
       id="g5173"
       mask="url(#mask5188)">
      <rect
         style="fill:#ffffff;fill-opacity:1;fill-rule:nonzero;stroke:none"
         id="rect5030"
         width="1"
         height="51"
         x="20"
         y="7" />
      <rect
         style="fill:#ffffff;fill-opacity:1;fill-rule:nonzero;stroke:none"
         id="rect5034"
         width="1"
         height="51"
         x="26"
         y="7" />
      <rect
         style="fill:#ffffff;fill-opacity:1;fill-rule:nonzero;stroke:none"
         id="rect5038"
         width="1"
         height="51"
         x="32"
         y="7" />
      <rect
         style="fill:#ffffff;fill-opacity:1;fill-rule:nonzero;stroke:none"
         id="rect5042"
         width="1"
         height="51"
         x="38"
         y="7" />
      <rect
         style="fill:#ffffff;fill-opacity:1;fill-rule:nonzero;stroke:none"
         id="rect5046"
         width="1"
         height="51"
         x="44"
         y="7" />
      <rect
         transform="matrix(0,1,-1,0,0,0)"
         style="fill:#ffffff;fill-opacity:1;fill-rule:nonzero;stroke:none"
         id="rect5065"
         width="1"
         height="51"
         x="11"
         y="-58" />
      <rect
         transform="matrix(0,1,-1,0,0,0)"
         style="fill:#ffffff;fill-opacity:1;fill-rule:nonzero;stroke:none"
         id="rect5069"
         width="1"
         height="51"
         x="17"
         y="-58" />
      <rect
         transform="matrix(0,1,-1,0,0,0)"
         style="fill:#ffffff;fill-opacity:1;fill-rule:nonzero;stroke:none"
         id="rect5073"
         width="1"
         height="51"
         x="23"
         y="-58" />
      <rect
         transform="matrix(0,1,-1,0,0,0)"
         style="fill:#ffffff;fill-opacity:1;fill-rule:nonzero;stroke:none"
         id="rect5077"
         width="1"
         height="51"
         x="29"
         y="-58" />
      <rect
         transform="matrix(0,1,-1,0,0,0)"
         style="fill:#ffffff;fill-opacity:1;fill-rule:nonzero;stroke:none"
         id="rect5081"
         width="1"
         height="51"
         x="35"
         y="-58" />
      <rect
         transform="matrix(0,1,-1,0,0,0)"
         style="fill:#ffffff;fill-opacity:1;fill-rule:nonzero;stroke:none"
         id="rect5085"
         width="1"
         height="51"
         x="41"
         y="-58" />
      <rect
         transform="matrix(0,1,-1,0,0,0)"
         style="fill:#ffffff;fill-opacity:1;fill-rule:nonzero;stroke:none"
         id="rect5111"
         width="1"
         height="51"
         x="47"
         y="-57" />
      <rect
         transform="matrix(0,1,-1,0,0,0)"
         style="fill:#ffffff;fill-opacity:1;fill-rule:nonzero;stroke:none"
         id="rect5115"
         width="1"
         height="51"
         x="53"
         y="-56" />
    </g>
  </g>
  <g
     inkscape:label="grid-small"
     id="g5117"
     inkscape:groupmode="layer"
     style="opacity:0.15;display:inline"
     sodipodi:insensitive="true">
    <g
       id="g5192"
       mask="url(#mask5209)">
      <rect
         style="fill:#ffffff;fill-opacity:1;fill-rule:nonzero;stroke:none"
         id="rect5119"
         width="1"
         height="51"
         x="17"
         y="7" />
      <rect
         style="fill:#ffffff;fill-opacity:1;fill-rule:nonzero;stroke:none"
         id="rect5123"
         width="1"
         height="51"
         x="23"
         y="7" />
      <rect
         style="fill:#ffffff;fill-opacity:1;fill-rule:nonzero;stroke:none"
         id="rect5127"
         width="1"
         height="51"
         x="29"
         y="7" />
      <rect
         style="fill:#ffffff;fill-opacity:1;fill-rule:nonzero;stroke:none"
         id="rect5131"
         width="1"
         height="51"
         x="35"
         y="7" />
      <rect
         style="fill:#ffffff;fill-opacity:1;fill-rule:nonzero;stroke:none"
         id="rect5135"
         width="1"
         height="51"
         x="41"
         y="7" />
      <rect
         style="fill:#ffffff;fill-opacity:1;fill-rule:nonzero;stroke:none"
         id="rect5139"
         width="1"
         height="51"
         x="47"
         y="7" />
      <rect
         style="fill:#ffffff;fill-opacity:1;fill-rule:nonzero;stroke:none"
         id="rect5143"
         width="1"
         height="51"
         x="14"
         y="-58"
         transform="matrix(0,1,-1,0,0,0)" />
      <rect
         style="fill:#ffffff;fill-opacity:1;fill-rule:nonzero;stroke:none"
         id="rect5147"
         width="1"
         height="51"
         x="20"
         y="-58"
         transform="matrix(0,1,-1,0,0,0)" />
      <rect
         style="fill:#ffffff;fill-opacity:1;fill-rule:nonzero;stroke:none"
         id="rect5151"
         width="1"
         height="51"
         x="26"
         y="-58"
         transform="matrix(0,1,-1,0,0,0)" />
      <rect
         style="fill:#ffffff;fill-opacity:1;fill-rule:nonzero;stroke:none"
         id="rect5155"
         width="1"
         height="51"
         x="32"
         y="-58"
         transform="matrix(0,1,-1,0,0,0)" />
      <rect
         style="fill:#ffffff;fill-opacity:1;fill-rule:nonzero;stroke:none"
         id="rect5159"
         width="1"
         height="51"
         x="38"
         y="-58"
         transform="matrix(0,1,-1,0,0,0)" />
      <rect
         transform="matrix(0,1,-1,0,0,0)"
         style="fill:#ffffff;fill-opacity:1;fill-rule:nonzero;stroke:none"
         id="rect5163"
         width="1"
         height="51"
         x="44"
         y="-58" />
      <rect
         transform="matrix(0,1,-1,0,0,0)"
         style="fill:#ffffff;fill-opacity:1;fill-rule:nonzero;stroke:none"
         id="rect5167"
         width="1"
         height="51"
         x="50"
         y="-56" />
    </g>
  </g>
  <g
     id="layer1"
     inkscape:label="logo"
     inkscape:groupmode="layer"
     sodipodi:insensitive="true">
    <text
       xml:space="preserve"
       style="font-size:2.25391102px;font-style:normal;font-weight:normal;line-height:125%;letter-spacing:0px;word-spacing:0px;fill:#000000;fill-opacity:1;stroke:none;font-family:Sans"
       x="57.995598"
       y="93.075829"
       id="text3219"
       sodipodi:linespacing="125%"><tspan
         sodipodi:role="line"
         id="tspan3221"
         x="57.995598"
         y="93.075829" /></text>
    <text
       xml:space="preserve"
       style="font-size:0.96943182px;font-style:normal;font-weight:normal;line-height:125%;letter-spacing:0px;word-spacing:0px;fill:#000000;fill-opacity:1;stroke:none;font-family:Sans"
       x="63.045189"
       y="63.330017"
       id="text3219-2"
       sodipodi:linespacing="125%"><tspan
         sodipodi:role="line"
         id="tspan3221-0"
         x="63.045189"
         y="63.330017" /></text>
    <g
       id="g4215"
       transform="matrix(1.6743998,0,0,1.6743998,-103.39246,67.611085)">
      <path
         transform="matrix(0.08354156,0,0,0.08354156,54.297603,-49.025119)"
         style="fill:#ffffff;fill-opacity:1;stroke:none;filter:url(#filter5363)"
         d="m 368,368 -56,96.9375 18,20 22,3 3,-20 26,0 3,20 22,-3 18,-20 z"
         id="path4680"
         inkscape:connector-curvature="0"
         sodipodi:nodetypes="cccccccccc" />
      <g
         id="g4652"
         transform="matrix(0.01218314,0,0,0.01218314,70.245612,-9.7605858)">
        <g
           id="g4654"
           transform="translate(4254.4062,640)">
          <path
             style="fill:#cd2720;fill-opacity:1;stroke:none"
             d="m -3040,-1312 -352,640 704,0 z"
             id="path4656"
             inkscape:connector-curvature="0"
             sodipodi:nodetypes="cccc" />
          <path
             sodipodi:nodetypes="cccccc"
             inkscape:connector-curvature="0"
             id="path4658"
             d="m -3040,-1312 -352,640 104,112 120,16 16,-128 z"
             style="fill:#ad161c;fill-opacity:1;stroke:none" />
          <path
             style="fill:#ad161c;fill-opacity:1;stroke:none"
             d="m -3040,-1312 352,640 -104,112 -120,16 -16,-128 z"
             id="path4660"
             inkscape:connector-curvature="0"
             sodipodi:nodetypes="cccccc" />
          <path
             transform="translate(0,-448)"
             id="path4662"
             d="M -3125.4375,-375.8125 -3152,-224 l 224,0 -34.7812,-198.78125 -162.6563,46.96875 z"
             style="fill:#8a141a;fill-opacity:1;stroke:none"
             inkscape:connector-curvature="0" />
          <path
             id="path4664"
             transform="translate(0,-448)"
             d="m -3317.7188,-144 29.7188,32 120,16 6,-48 -155.7188,0 z"
             style="fill:#8a141a;fill-opacity:1;fill-rule:nonzero;stroke:none"
             inkscape:connector-curvature="0" />
          <path
             transform="translate(0,-448)"
             id="path4666"
             d="m -3343.0625,-313 -48.9375,89 104,112 -24,-112 160,0 26.5625,-151.8125 -217.625,62.8125 z"
             style="fill:#531a19;fill-opacity:1;stroke:none"
             inkscape:connector-curvature="0" />
          <path
             transform="translate(0,-448)"
             id="path4668"
             d="M -2962.7812,-422.78125 -2928,-224 l 240,0 -132,-240 -142.7812,41.21875 z"
             style="fill:#531a19;fill-opacity:1;stroke:none"
             inkscape:connector-curvature="0" />
          <path
             id="path4670"
             transform="translate(0,-448)"
             d="m -2928,-224 9.875,79.09375 L -2792,-112 l -40,-112 -96,0 z"
             style="fill:#cd2720;fill-opacity:1;stroke:none"
             inkscape:connector-curvature="0" />
          <path
             id="path4672"
             transform="translate(0,-448)"
             d="m -2978.4062,-512 15.625,89.21875 L -2820,-464 l -26.4062,-48 -132,0 z"
             style="fill:#8a141a;fill-opacity:1;fill-rule:nonzero;stroke:none"
             inkscape:connector-curvature="0" />
          <path
             id="path4674"
             transform="translate(0,-448)"
             d="m -3233.5938,-512 -109.4687,199 217.625,-62.8125 23.8437,-136.1875 -132,0 z"
             style="fill:#8a141a;fill-opacity:1;fill-rule:nonzero;stroke:none"
             inkscape:connector-curvature="0" />
        </g>
      </g>
    </g>
  </g>
  <g
     inkscape:groupmode="layer"
     id="layer4"
     inkscape:label="dom">
    <path
       inkscape:connector-curvature="0"
       style="fill:#ffffff;fill-opacity:1;stroke:#1e90ff;stroke-width:0.4;stroke-linecap:round;stroke-linejoin:round;stroke-opacity:1;stroke-miterlimit:4;stroke-dasharray:none"
       sodipodi:nodetypes="ccccccccccc"
       d="m 22.772018,19.582004 9.136865,-8.696387 3.846435,3.258517 1.493113,1.264886 1.067415,0.904277 3.423123,2.899928 -2.132991,0.04611 -0.09274,14.99906 -14.46659,0.184041 0.09274,-14.815449 z"
       id="path3949" />
    <path
       inkscape:connector-curvature="0"
       style="fill:#1e90ff;stroke:none;fill-opacity:1"
       sodipodi:nodetypes="ccccc"
       d="m 31.85885,26.546312 -0.04776,7.705265 0.605122,-0.114664 0.04683,-7.705264 z"
       id="path3961" />
    <path
       inkscape:connector-curvature="0"
       style="fill:#ffffff;stroke:none"
       sodipodi:nodetypes="ccccc"
       d="m 22.727951,26.878645 0.09274,7.555346 0.557356,-0.0918 -0.04683,-7.447109 z"
       id="path3955" />
    <path
       inkscape:connector-curvature="0"
       style="fill:none;stroke:#1e90ff;stroke-width:0.2;stroke-linecap:round;stroke-linejoin:round;stroke-opacity:1;stroke-miterlimit:4;stroke-dasharray:none"
       sodipodi:nodetypes="ccccc"
       d="m 26.971167,27.798528 0.02459,6.366568 3.442677,-0.0459 0.162293,-6.288259 z"
       id="path4471" />
    <path
       inkscape:connector-curvature="0"
       style="fill:#ffffff;stroke:#000000;fill-opacity:1;stroke-opacity:1;stroke-width:0.00400000000000000;stroke-miterlimit:4;stroke-dasharray:none"
       sodipodi:nodetypes="ccccc"
       d="m 40.902536,26.800611 -0.0459,7.377245 0.511453,0.164459 0.09274,-7.469051 z"
       id="path3957" />
    <path
       inkscape:connector-curvature="0"
       style="fill:#ffffff;stroke:none"
       sodipodi:nodetypes="ccccc"
       d="m 22.727951,34.158761 v 1.762009 l 18.732756,-0.09274 v -1.669284 z"
       id="path3953" />
    <path
       inkscape:connector-curvature="0"
       style="fill:#1e90ff;stroke:#000000;fill-opacity:1;stroke-opacity:1;stroke-width:0.004;stroke-miterlimit:4;stroke-dasharray:none"
       sodipodi:nodetypes="ccccc"
       d="m 33.283661,27.982138 v 3.763994 l 5.554186,-0.0459 0.04591,-3.855799 z"
       id="path4473" />
    <path
       inkscape:connector-curvature="0"
       style="fill:#ffffff;fill-opacity:1;stroke:#1e90ff;stroke-width:0.09180474000000000;stroke-linecap:round;stroke-linejoin:round;stroke-opacity:1"
       sodipodi:nodetypes="ccccc"
       d="m 25.204843,19.536101 -0.0459,-1.101657 6.747648,-6.426331 7.60079,6.169921 0.06491,0.931451"
       id="path4483" />
    <path
       inkscape:connector-curvature="0"
       style="fill:#1e90ff;stroke:#ffffff;stroke-opacity:1;stroke-width:0.40000000000000002;stroke-miterlimit:4;stroke-dasharray:none;fill-opacity:1"
       sodipodi:nodetypes="ccccc"
       d="m 27.775376,17.516397 0.18361,4.223019 h 2.937752 l 0.137706,-4.314823 z"
       id="path4475" />
    <path
       inkscape:connector-curvature="0"
       style="fill:#1e90ff;stroke:#ffffff;stroke-opacity:1;stroke-width:0.40000000000000002;stroke-miterlimit:4;stroke-dasharray:none;fill-opacity:1"
       sodipodi:nodetypes="ccccc"
       d="m 33.947409,17.575153 0.137707,3.830462 3.054895,0.05855 0.0918,-3.993506 z"
       id="path4477" />
    <path
       inkscape:connector-curvature="0"
       style="fill:#ffffff;stroke:#1e90ff;stroke-opacity:1;stroke-width:0.4;stroke-miterlimit:4;stroke-dasharray:none"
       sodipodi:nodetypes="ccccc"
       d="m 27.591767,28.441162 -0.03418,2.891848 h 2.311827 l 0.103524,-2.891848 z"
       id="path4481" />
    <path
       sodipodi:cx="-395.5"
       sodipodi:cy="-0.21427917"
       transform="matrix(0.09180474,0,0,0.09180474,68.363169,14.611696)"
       d="m -384,-0.21427917 a 11.5,11.5 0 1 1 -23,0 11.5,11.5 0 1 1 23,0 z"
       sodipodi:type="arc"
       style="fill:#1e90ff;stroke:none;fill-opacity:1"
       sodipodi:ry="11.5"
       sodipodi:rx="11.5"
       id="path4479" />
    <path
       inkscape:connector-curvature="0"
       style="fill:#1e90ff;fill-opacity:1;stroke:#ffffff;stroke-width:0.09180474;stroke-linecap:round;stroke-linejoin:round"
       d="m 22.267091,26.375555 0.0459,0.688535 19.278995,-0.0918 -0.0459,-0.918048 z"
       id="path4485" />
    <path
       inkscape:connector-curvature="0"
       style="fill:#ffffff;stroke:#1e90ff;fill-opacity:1;stroke-width:0.40000000000000002;stroke-miterlimit:4;stroke-dasharray:none;stroke-opacity:1"
       sodipodi:nodetypes="ccccc"
       d="m 21.893262,26.253455 3.060312,-2.188166 h 14.559313 l 2.593851,2.009606 z"
       id="path3951" />
    <path
       d="m 27.483436,21.668725 0.06193,0.683294 3.591402,-0.02848 0.06193,-0.655744 z"
       inkscape:connector-curvature="0"
       sodipodi:nodetypes="ccccc"
       style="fill:#ffffff;fill-opacity:1;stroke:#1e90ff;stroke-width:0.4;stroke-linecap:round;stroke-linejoin:round;stroke-opacity:1;stroke-miterlimit:4;stroke-dasharray:none"
       id="path4487" />
    <path
       d="m 33.817964,21.439213 0.01602,0.767224 3.637305,-0.06651 0.06193,-0.655742 z"
       style="fill:#ffffff;fill-opacity:1;stroke:#1e90ff;stroke-width:0.4;stroke-linecap:round;stroke-linejoin:round;stroke-opacity:1;stroke-miterlimit:4;stroke-dasharray:none"
       sodipodi:nodetypes="ccccc"
       inkscape:connector-curvature="0"
       id="path4489" />
    <path
       d="m 32.945819,31.767247 0.136476,0.656404 5.99944,-0.09339 0.10402,-0.655743 z"
       inkscape:connector-curvature="0"
       sodipodi:nodetypes="ccccc"
       style="fill:#ffffff;stroke:#1e90ff;stroke-width:0.4;stroke-linecap:round;stroke-linejoin:round;fill-opacity:1;stroke-opacity:1;stroke-miterlimit:4;stroke-dasharray:none"
       id="path4491" />
  </g>
</svg>
