<?xml version="1.0" encoding="UTF-8" standalone="no"?>
<!-- Created with Inkscape (http://www.inkscape.org/) -->

<svg
   xmlns:dc="http://purl.org/dc/elements/1.1/"
   xmlns:cc="http://creativecommons.org/ns#"
   xmlns:rdf="http://www.w3.org/1999/02/22-rdf-syntax-ns#"
   xmlns:svg="http://www.w3.org/2000/svg"
   xmlns="http://www.w3.org/2000/svg"
   xmlns:sodipodi="http://sodipodi.sourceforge.net/DTD/sodipodi-0.dtd"
   xmlns:inkscape="http://www.inkscape.org/namespaces/inkscape"
   width="512"
   height="512"
   id="svg3003"
   version="1.1"
   inkscape:version="0.91 r13725"
   sodipodi:docname="temp-wifi.svg"
   inkscape:export-filename="C:\wamp\www\TESTY\git-hub\system-icons\file-types\app-executable-gadget\app-executable-gadget-512.png"
   inkscape:export-xdpi="90"
   inkscape:export-ydpi="90">
  <defs
     id="defs3005">
    <linearGradient
       inkscape:collect="always"
       x1="233.22"
       y1="786.61"
       gradientTransform="matrix(0.12526627,0,0,0.1465933,-502.66045,-403.50762)"
       x2="499.81"
       gradientUnits="userSpaceOnUse"
       y2="714.55"
       id="linearGradient3036">
      <stop
         offset="0"
         style="stop-color:#67a9ff"
         id="stop3032" />
      <stop
         offset="1"
         style="stop-color:#33ea00"
         id="stop3034" />
    </linearGradient>
  </defs>
  <sodipodi:namedview
     id="base"
     pagecolor="#ffffff"
     bordercolor="#666666"
     borderopacity="1.0"
     inkscape:pageopacity="0.0"
     inkscape:pageshadow="2"
     inkscape:zoom="0.6875"
     inkscape:cx="-538.15764"
     inkscape:cy="234.04429"
     inkscape:current-layer="layer1"
     showgrid="true"
     inkscape:document-units="px"
     inkscape:grid-bbox="true"
     showguides="true"
     inkscape:guide-bbox="true"
     inkscape:window-width="1920"
     inkscape:window-height="1028"
     inkscape:window-x="2872"
     inkscape:window-y="532"
     inkscape:window-maximized="1"
     inkscape:snap-bbox="true"
     inkscape:bbox-nodes="true"
     inkscape:object-paths="true"
     inkscape:object-nodes="true">
    <inkscape:grid
       type="xygrid"
       id="grid3011"
       empspacing="4"
       visible="true"
       enabled="true"
       snapvisiblegridlinesonly="true" />
    <sodipodi:guide
       orientation="1,0"
       position="16,376"
       id="guide3013" />
    <sodipodi:guide
       orientation="0,1"
       position="184,496"
       id="guide3015" />
    <sodipodi:guide
       orientation="0,1"
       position="336,16"
       id="guide3017" />
    <sodipodi:guide
       orientation="1,0"
       position="496,248"
       id="guide3019" />
    <sodipodi:guide
       orientation="1,0"
       position="280,312"
       id="guide3104" />
    <sodipodi:guide
       orientation="0,1"
       position="488,144"
       id="guide3106" />
    <sodipodi:guide
       orientation="1,0"
       position="80,368"
       id="guide4116" />
    <sodipodi:guide
       orientation="1,0"
       position="256,376"
       id="guide5838" />
    <sodipodi:guide
       position="-168,688"
       orientation="0,1"
       id="guide10102" />
    <sodipodi:guide
       position="-280,704"
       orientation="1,0"
       id="guide10104" />
  </sodipodi:namedview>
  <metadata
     id="metadata3008">
    <rdf:RDF>
      <cc:Work
         rdf:about="">
        <dc:format>image/svg+xml</dc:format>
        <dc:type
           rdf:resource="http://purl.org/dc/dcmitype/StillImage" />
        <dc:title />
      </cc:Work>
    </rdf:RDF>
  </metadata>
  <g
     id="layer1"
     inkscape:label="Layer 1"
     inkscape:groupmode="layer"
     transform="translate(0,448)">
    <text
       xml:space="preserve"
       style="font-size:4.3274498px;font-style:normal;font-weight:normal;line-height:125%;letter-spacing:0px;word-spacing:0px;fill:#000000;fill-opacity:1;stroke:none;font-family:Sans"
       x="-97.377846"
       y="51.97757"
       id="text3219"
       sodipodi:linespacing="125%"><tspan
         sodipodi:role="line"
         id="tspan3221"
         x="-97.377846"
         y="51.97757" /></text>
    <symbol
       id="amber"
       viewBox="-8.3 -8.3 16.5 16.5"
       transform="matrix(0.24691355,0,0,0.24691355,-655.99999,-366.66666)">
      <polygon
         style="fill:#ff931e;stroke:#000000;stroke-width:0.5"
         class="st0"
         points="8,-8 -8,-8 -8,8 8,8 "
         id="polygon11994" />
    </symbol>
    <symbol
       id="green"
       viewBox="-8.3 -8.3 16.5 16.5"
       transform="matrix(0.24691355,0,0,0.24691355,-655.99999,-366.66666)">
      <polygon
         style="fill:#00c700;stroke:#000000;stroke-width:0.5"
         class="st1"
         points="8,-8 -8,-8 -8,8 8,8 "
         id="polygon11997" />
    </symbol>
    <symbol
       id="red"
       viewBox="-8.3 -8.3 16.5 16.5"
       transform="matrix(0.24691355,0,0,0.24691355,-655.99999,-366.66666)">
      <polygon
         style="fill:#ff1d25;stroke:#000000;stroke-width:0.5"
         class="st2"
         points="8,-8 -8,-8 -8,8 8,8 "
         id="polygon12000" />
    </symbol>
    <g
       id="g12864"
       transform="translate(528.38378,101.32897)">
      <path
         d="m -426.73944,-328.04514 -3.95881,2.52932 0,44.78674 3.95881,0 0,-47.31583 z m -5.59049,3.57545 -3.34836,2.14024 0,41.59969 3.34836,0 0,-43.74039 z m -4.97981,3.18283 -3.34836,2.14024 0,38.4172 3.34836,0 0,-40.5579 z m -4.97981,3.18283 -3.34836,2.14024 0,35.23471 3.34836,0 0,-37.37426 z m -4.98335,3.18649 -3.34835,2.14024 0,32.04765 3.34835,0 0,-34.18835 z m -4.97981,3.18283 -3.34835,2.14024 0,28.86516 3.34835,0 0,-31.00585 z m -4.98164,3.18478 -3.34835,2.14389 0,25.67925 3.34835,0 0,-27.82223 z m -4.9798,3.18649 -3.34836,2.14024 0,22.49561 3.34836,0 0,-24.63631 z m -4.9805,3.18134 -3.34812,2.1407 0,19.31312 3.34835,0 0,-21.45382 z m -4.98335,3.18649 -3.34835,2.14024 0,16.12721 3.34835,0 0,-18.26676 z m -4.97981,3.18283 -3.34835,2.14025 0,12.94357 3.34835,0 0,-15.08427 z m -4.97935,3.18364 -3.89095,2.48899 0,9.41244 3.89095,0 0,-11.90178 z"
         inkscape:connector-curvature="0"
         style="fill:url(#linearGradient3036)"
         id="rect2985" />
      <text
         sodipodi:linespacing="125%"
         id="text12860"
         y="-258.61279"
         x="-479.30322"
         style="font-style:normal;font-variant:normal;font-weight:normal;font-stretch:normal;font-size:25px;line-height:125%;font-family:'Segoe UI';-inkscape-font-specification:'Segoe UI';letter-spacing:0px;word-spacing:0px;fill:#66a9fd;fill-opacity:1;stroke:none;stroke-width:1px;stroke-linecap:butt;stroke-linejoin:miter;stroke-opacity:1"
         xml:space="preserve"><tspan
           y="-258.61279"
           x="-479.30322"
           id="tspan12862"
           sodipodi:role="line">wi-fi</tspan></text>
    </g>
  </g>
  <style
     id="style11991"
     type="text/css">
	.st0{fill:#FF931E;stroke:#000;stroke-width:0.5;}
	.st1{fill:#00C700;stroke:#000;stroke-width:0.5;}
	.st2{fill:#FF1D25;stroke:#000;stroke-width:0.5;}
</style>
</svg>
