<?xml version="1.0" encoding="UTF-8" standalone="no"?>
<!-- Created with Inkscape (http://www.inkscape.org/) -->

<svg
   xmlns:dc="http://purl.org/dc/elements/1.1/"
   xmlns:cc="http://creativecommons.org/ns#"
   xmlns:rdf="http://www.w3.org/1999/02/22-rdf-syntax-ns#"
   xmlns:svg="http://www.w3.org/2000/svg"
   xmlns="http://www.w3.org/2000/svg"
   xmlns:sodipodi="http://sodipodi.sourceforge.net/DTD/sodipodi-0.dtd"
   xmlns:inkscape="http://www.inkscape.org/namespaces/inkscape"
   width="512"
   height="512"
   id="svg3003"
   version="1.1"
   inkscape:version="0.91 r13725"
   sodipodi:docname="temp-postit.svg"
   inkscape:export-filename="C:\wamp\www\TESTY\git-hub\system-icons\file-types\app-executable-gadget\app-executable-gadget-512.png"
   inkscape:export-xdpi="90"
   inkscape:export-ydpi="90">
  <defs
     id="defs3005" />
  <sodipodi:namedview
     id="base"
     pagecolor="#ffffff"
     bordercolor="#666666"
     borderopacity="1.0"
     inkscape:pageopacity="0.0"
     inkscape:pageshadow="2"
     inkscape:zoom="0.6875"
     inkscape:cx="-538.15764"
     inkscape:cy="209.96986"
     inkscape:current-layer="layer1"
     showgrid="true"
     inkscape:document-units="px"
     inkscape:grid-bbox="true"
     showguides="true"
     inkscape:guide-bbox="true"
     inkscape:window-width="1920"
     inkscape:window-height="1028"
     inkscape:window-x="2872"
     inkscape:window-y="532"
     inkscape:window-maximized="1"
     inkscape:snap-bbox="true"
     inkscape:bbox-nodes="true"
     inkscape:object-paths="true"
     inkscape:object-nodes="true">
    <inkscape:grid
       type="xygrid"
       id="grid3011"
       empspacing="4"
       visible="true"
       enabled="true"
       snapvisiblegridlinesonly="true" />
    <sodipodi:guide
       orientation="1,0"
       position="16,376"
       id="guide3013" />
    <sodipodi:guide
       orientation="0,1"
       position="184,496"
       id="guide3015" />
    <sodipodi:guide
       orientation="0,1"
       position="336,16"
       id="guide3017" />
    <sodipodi:guide
       orientation="1,0"
       position="496,248"
       id="guide3019" />
    <sodipodi:guide
       orientation="1,0"
       position="280,312"
       id="guide3104" />
    <sodipodi:guide
       orientation="0,1"
       position="488,144"
       id="guide3106" />
    <sodipodi:guide
       orientation="1,0"
       position="80,368"
       id="guide4116" />
    <sodipodi:guide
       orientation="1,0"
       position="256,376"
       id="guide5838" />
    <sodipodi:guide
       position="-168,688"
       orientation="0,1"
       id="guide10102" />
    <sodipodi:guide
       position="-280,704"
       orientation="1,0"
       id="guide10104" />
  </sodipodi:namedview>
  <metadata
     id="metadata3008">
    <rdf:RDF>
      <cc:Work
         rdf:about="">
        <dc:format>image/svg+xml</dc:format>
        <dc:type
           rdf:resource="http://purl.org/dc/dcmitype/StillImage" />
        <dc:title />
      </cc:Work>
    </rdf:RDF>
  </metadata>
  <g
     id="layer1"
     inkscape:label="Layer 1"
     inkscape:groupmode="layer"
     transform="translate(0,448)">
    <text
       xml:space="preserve"
       style="font-size:4.3274498px;font-style:normal;font-weight:normal;line-height:125%;letter-spacing:0px;word-spacing:0px;fill:#000000;fill-opacity:1;stroke:none;font-family:Sans"
       x="-97.377846"
       y="51.97757"
       id="text3219"
       sodipodi:linespacing="125%"><tspan
         sodipodi:role="line"
         id="tspan3221"
         x="-97.377846"
         y="51.97757" /></text>
    <g
       id="g10416">
      <path
         sodipodi:nodetypes="cccccc"
         inkscape:connector-curvature="0"
         id="rect10399"
         d="m -416,-500 72,0 0,52 -20,16 -52,0 z"
         style="opacity:1;fill:#ffcc00;fill-opacity:1;stroke:none;stroke-width:0.98425096;stroke-linecap:round;stroke-miterlimit:4;stroke-dasharray:1.96850193, 5.90550578;stroke-dashoffset:0.39370039;stroke-opacity:1" />
      <path
         sodipodi:nodetypes="cccccc"
         inkscape:connector-curvature="0"
         id="rect10401"
         d="m -415,-499 70,0 0,50 -19,16 -51,0 z"
         style="opacity:1;fill:#ffff00;fill-opacity:1;stroke:none;stroke-width:0.98425096;stroke-linecap:round;stroke-miterlimit:4;stroke-dasharray:1.96850193, 5.90550578;stroke-dashoffset:0.39370039;stroke-opacity:1" />
      <rect
         style="opacity:1;fill:#ffcc00;fill-opacity:0.53358209;stroke:none;stroke-width:0.98425096;stroke-linecap:round;stroke-miterlimit:4;stroke-dasharray:1.96850193, 5.90550578000000040;stroke-dashoffset:0.39370039;stroke-opacity:1"
         id="rect10404"
         width="72"
         height="16"
         x="-416"
         y="-500"
         rx="0"
         ry="0" />
      <path
         sodipodi:nodetypes="cccc"
         inkscape:connector-curvature="0"
         id="rect10406"
         d="m -364,-449 20,0 -20,17 z"
         style="opacity:1;fill:#ffcc00;fill-opacity:1;stroke:none;stroke-width:0.98425096;stroke-linecap:round;stroke-miterlimit:4;stroke-dasharray:1.96850193, 5.90550578;stroke-dashoffset:0.39370039;stroke-opacity:1" />
      <path
         style="opacity:1;fill:#ffff00;fill-opacity:1;stroke:none;stroke-width:0.98425096;stroke-linecap:round;stroke-miterlimit:4;stroke-dasharray:1.96850193, 5.90550578;stroke-dashoffset:0.39370039;stroke-opacity:1"
         d="m -363,-448 18,0 -18,14 z"
         id="path10410"
         inkscape:connector-curvature="0"
         sodipodi:nodetypes="cccc" />
      <text
         transform="matrix(0.96592583,-0.25881905,0.25881905,0.96592583,0,0)"
         sodipodi:linespacing="125%"
         id="text10412"
         y="-540.99432"
         x="-269.43356"
         style="font-style:normal;font-variant:normal;font-weight:normal;font-stretch:normal;font-size:18.99812889px;line-height:125%;font-family:'Blackadder ITC';-inkscape-font-specification:'Blackadder ITC, Normal';text-align:start;letter-spacing:0px;word-spacing:0px;writing-mode:lr-tb;text-anchor:start;fill:#000080;fill-opacity:1;stroke:none;stroke-width:1px;stroke-linecap:butt;stroke-linejoin:miter;stroke-opacity:1;"
         xml:space="preserve"><tspan
           y="-540.99432"
           x="-269.43356"
           id="tspan10414"
           sodipodi:role="line">post it!</tspan></text>
    </g>
    <g
       id="g10425"
       transform="matrix(1.0370372,0,0,1.0370372,588.7408,175.25935)">
      <path
         style="opacity:1;fill:#ffcc00;fill-opacity:1;stroke:none;stroke-width:0.98425096;stroke-linecap:round;stroke-miterlimit:4;stroke-dasharray:1.96850193, 5.90550578;stroke-dashoffset:0.39370039;stroke-opacity:1"
         d="m -416,-500 72,0 0,52 -20,16 -52,0 z"
         id="path10427"
         inkscape:connector-curvature="0"
         sodipodi:nodetypes="cccccc" />
      <path
         style="opacity:1;fill:#ffff00;fill-opacity:1;stroke:none;stroke-width:0.98425096;stroke-linecap:round;stroke-miterlimit:4;stroke-dasharray:1.96850193, 5.90550578;stroke-dashoffset:0.39370039;stroke-opacity:1"
         d="m -415,-499 70,0 0,50 -19,16 -51,0 z"
         id="path10429"
         inkscape:connector-curvature="0"
         sodipodi:nodetypes="cccccc" />
      <rect
         ry="0"
         rx="0"
         y="-500"
         x="-416"
         height="16"
         width="72"
         id="rect10431"
         style="opacity:1;fill:#ffcc00;fill-opacity:0.53358208;stroke:none;stroke-width:0.98425096;stroke-linecap:round;stroke-miterlimit:4;stroke-dasharray:1.96850193, 5.90550578;stroke-dashoffset:0.39370039;stroke-opacity:1" />
      <path
         style="opacity:1;fill:#ffcc00;fill-opacity:1;stroke:none;stroke-width:0.98425096;stroke-linecap:round;stroke-miterlimit:4;stroke-dasharray:1.96850193, 5.90550578;stroke-dashoffset:0.39370039;stroke-opacity:1"
         d="m -364,-449 20,0 -20,17 z"
         id="path10433"
         inkscape:connector-curvature="0"
         sodipodi:nodetypes="cccc" />
      <path
         sodipodi:nodetypes="cccc"
         inkscape:connector-curvature="0"
         id="path10435"
         d="m -363,-448 18,0 -18,14 z"
         style="opacity:1;fill:#ffff00;fill-opacity:1;stroke:none;stroke-width:0.98425096;stroke-linecap:round;stroke-miterlimit:4;stroke-dasharray:1.96850193, 5.90550578;stroke-dashoffset:0.39370039;stroke-opacity:1" />
      <g
         transform="matrix(0.96592583,-0.25881905,0.25881905,0.96592583,0,0)"
         style="font-style:normal;font-variant:normal;font-weight:normal;font-stretch:normal;font-size:18.99812889px;line-height:125%;font-family:'Blackadder ITC';-inkscape-font-specification:'Blackadder ITC, Normal';text-align:start;letter-spacing:0px;word-spacing:0px;writing-mode:lr-tb;text-anchor:start;opacity:0.73200001;fill:#000080;fill-opacity:1;stroke:none;stroke-width:1px;stroke-linecap:butt;stroke-linejoin:miter;stroke-opacity:1"
         id="text10437">
        <path
           d="m -261.67847,-544.49154 q -0.11131,0.46382 -0.23191,0.91837 -0.17625,0.54731 -0.45454,0.81632 l 0,0.14843 q -0.18553,0.20408 -0.35251,0.46382 l 0,0.12987 q -0.0557,0.0557 -0.20408,0.3525 l -0.12987,0.0557 -0.18553,0.18553 -0.22263,0.0928 -0.0557,0.0557 q -0.46382,0.24119 -1.1039,0.20408 l -0.12987,0.0742 q -0.18552,-0.0835 -0.53803,-0.2783 l 0,-0.0557 -0.20408,-0.48237 0.20408,-0.0557 0.12987,-0.14842 0.27829,0.14842 0.0557,0.20408 0.25974,0.0557 q 0.29685,0 0.68646,-0.25974 l 0.20408,-0.3525 0,-0.0557 0.34323,-0.14842 0.14842,-0.18553 0.0557,-0.41744 0.0742,0 0,-0.40816 q -0.20408,-0.30613 -0.14842,-1.05752 l -0.0557,0 0,-0.27829 -0.0742,-0.0557 -0.0557,-0.20408 -0.38033,0.0557 q -0.46383,0.59369 -0.98331,1.20593 -0.17625,0.0557 -0.33395,0.18553 l -0.20408,0.2783 0,0.0742 -0.27829,0.18553 q -0.0742,0.15769 -0.25974,0.43599 l -0.0742,0 -0.0742,0.12987 -0.0557,0 q 0.0186,0.12987 -0.0557,0.37105 -0.10204,0.3154 -0.11132,0.37106 -0.0928,0.11132 -0.3154,0.33395 l 0,0.12987 -0.0557,0 0,0.14843 q -0.20408,0.0928 -0.36178,0.52875 -0.10204,0.30612 -0.1948,0.62152 -0.10204,0.18553 -0.25974,0.5937 l -0.0742,0.0742 q -0.13915,0.37105 -0.23191,0.8256 l -0.22264,0.27829 q -0.0278,0.37106 -0.26902,0.75139 -0.25046,0.40817 -0.58441,0.52876 -0.11132,0.14842 -0.33395,0.40816 l -0.25974,0.12987 -0.20408,0.25974 q -0.32468,0.23191 -0.89054,0.26902 -0.80705,0.0557 -0.93692,0.0835 l -0.0742,-0.0742 -0.20408,0 q -1.00186,-0.42671 -1.15028,-1.15027 l -0.20408,-0.20408 0,-0.12987 -0.0557,0 -0.0742,-0.20409 0.0742,-0.27829 q 0.27829,-0.30612 0.74211,-0.40816 l 0,-0.0557 0.20409,0 0,-0.0742 q 0.28756,-0.11132 0.80705,-0.17625 0.57513,-0.0835 0.81632,-0.1577 l 0.61225,0.12987 -0.14843,0.0928 -0.33395,-0.0186 -0.25974,0.20408 -0.20408,0.0557 -0.16698,0.24119 q -0.37105,0.0557 -1.06679,0.31539 l 0,0.12987 -0.27829,0.18553 -0.0557,0.22264 q 0.33395,0.33395 0.48238,0.51948 0.3154,0.10204 0.67718,0.27829 l 0.27829,0 q -0.0186,0 1.02041,-0.25974 l 0.11131,-0.27829 0.25974,-0.25974 q 0.17626,-0.48238 0.6308,-1.03896 l -0.0371,-0.29685 q 0.0835,-0.39888 0.29684,-0.80705 l 0,-0.25974 0.22264,-0.38961 0,-0.20408 0.0742,-0.0557 q 0.12987,-0.43599 0.12987,-0.61224 l 0.29684,-0.38961 0.0371,-0.16698 0.14842,-0.18553 0,-0.12987 -0.0742,0 q 0.11132,-0.30612 0.25974,-0.94619 l 0.0557,0 0,-0.0742 0.12059,-0.11132 0,-0.21336 q 0.21336,-0.21336 0.25974,-0.37106 l -0.0742,-0.0557 0.0742,-0.0742 -0.0742,-0.0742 q 0.12987,-0.1577 0.18553,-0.33395 l 0,-0.0557 -0.0742,0 0,-0.20408 0.0742,-0.14842 0.0557,0 -0.0742,-0.25974 q -0.55659,0.11131 -0.64008,0.11131 -0.0186,0 -0.57514,-0.0557 l -0.25974,0.0742 -0.48237,-0.0742 0,-0.0557 -0.20408,0 -0.20408,-0.20408 0.0742,-0.12987 0.40816,-0.14843 q 0.10204,0.0742 1.07607,0.0742 l 0.41744,-0.20408 0.20408,0 0.12987,-0.12987 0.20408,0 0.3525,-0.20408 0.0557,-0.0742 0.12987,-0.0557 q 0.0649,-0.29684 0.2783,-0.89054 0.0835,-0.0742 1.22448,-0.0742 l 0.0557,0.0742 0.0742,0.40817 -0.12987,0.12987 q 0.0557,0.43599 -0.20408,0.81632 l -0.0742,0 0,0.0742 -0.0742,0 q 0.009,0.0835 -0.0278,0.24119 -0.0278,0.1577 -0.0278,0.22264 0,0.0371 0.0557,0.37105 l -0.22263,0.48238 0.42671,-0.22264 q 0.19481,-0.18552 0.45455,-0.59369 0.28757,-0.46382 0.41744,-0.61224 0.20408,-0.1577 0.62152,-0.40817 0.77922,-0.34322 1.15027,-0.27829 l 0.33396,0.20408 0,0.0742 0.0742,0.0742 0,0.0557 0.0742,0 q 0.0928,0.11132 0.0928,0.81633 l 0.0557,0.0742 0,0.0557 0.0742,0.0742 z"
           style=""
           id="path10149" />
        <path
           d="m -255.14786,-543.9535 -0.0835,0.50092 -0.0557,0 0,0.12987 -0.12987,0.14843 0,0.0556 -0.20408,0.14843 -0.20408,0.34322 -0.20408,0.12987 0.0742,0.11132 q -0.11132,0.22264 -0.22263,0.33395 l -0.0371,0.18553 q -0.1577,0.0928 -0.40816,0.40816 -0.2783,0.33396 -0.42672,0.44527 -0.22263,-0.0278 -0.46382,0.0742 -0.24119,-0.0742 -0.74211,-0.0742 -0.25974,0.0557 -0.33396,0.0928 l -0.3525,-0.0928 q -0.32468,-0.28757 -0.56586,-0.3525 -0.14843,-0.12987 -0.38961,-0.44527 -0.0371,-0.14842 -0.0742,-0.51948 -0.14843,-0.17625 -0.33396,-0.57514 -0.37105,-0.30612 -0.37105,-1.01113 l 0.18553,-0.48237 q 0.18552,-0.18553 0.51948,-0.35251 0.0928,-0.12987 0.14842,-0.25974 l 0.33395,-0.20408 0.33395,-0.46382 0.34323,-0.12987 0.20408,0 0.27829,-0.27829 0.33396,-0.0742 0.12987,0.0742 q 0.0835,0.11131 0.14842,0.48237 l 0.12987,0 0.0742,-0.0742 0.33395,-0.12987 0.12987,-0.14842 0.33395,0 0.2783,0.14842 0.12987,0.46382 0.33395,0.12987 0.0742,0 q 0.11132,0.16698 0.33395,0.27829 0.18553,0.30613 0.41744,0.98331 z m -0.54731,-0.16698 -0.12987,-0.35251 0,-0.0557 -0.14842,-0.12987 -0.0557,-0.14843 -0.27829,-0.12987 -0.20409,0.12987 q -0.0649,0.19481 -0.20408,0.33395 0.0186,0.0649 -0.0557,0.2783 l -0.14842,0.0742 0,0.0557 -0.20408,0.14842 -0.33395,-0.20408 -0.0557,-0.0742 0,-0.53804 -0.14842,-0.33395 0,-0.0742 -0.12987,-0.0742 0,-0.0557 -0.12987,-0.0742 -0.2783,0.0742 -0.0928,0.16698 -0.3154,0.16697 -0.0557,0 q -0.0464,0.16698 -0.3525,0.40817 l 0,0.12987 0.0742,0.0742 0,0.12987 0.0371,0.0928 -0.16697,0.38961 0,0.25974 q 0.0557,0.0557 0.12987,0.20408 0,0.0371 -0.009,0.10204 -0.009,0.0649 -0.009,0.10205 0,0.0278 0.009,0.10204 0.009,0.0649 0.009,0.0928 0.0835,0.12987 0.12987,0.42672 l 0.27829,0.20408 0.12987,0.25974 0.33395,0.27829 0.48238,0.0742 q 0.20408,-0.13914 0.6308,-0.33395 l -0.0186,-0.14842 q 0.16698,-0.1206 0.48238,-0.35251 l 0.0557,-0.18553 q 0.17625,-0.14842 0.33395,-0.41743 l 0.27829,-0.12987 q 0.16698,-0.40817 0.12987,-0.9462 z"
           style=""
           id="path10151" />
        <path
           d="m -248.50594,-545.17799 -0.0557,0.18552 -0.16697,0.22264 -0.32468,-0.0371 -0.16697,-0.16697 -0.0928,-0.2783 0.0557,-0.37105 -0.20408,-0.20408 q -0.13915,-0.0928 -0.68646,-0.0928 -0.0928,0 -0.24118,0.0371 -0.18553,0.14842 -0.29685,0.20408 l -0.12987,0.22263 q 0.0742,0.25974 0.0742,0.44527 l 0.0928,0.16698 q 0.37105,0.23191 0.72356,0.72356 0.38033,0.54731 0.37106,0.92764 l -0.11132,0.26902 -0.16698,0.12987 -0.0371,0.20408 q -0.23191,0.16698 -0.2783,0.55659 l -0.22263,0.12987 -0.0742,0.18552 q -0.0928,0.0649 -0.25974,0.22264 l -0.25974,-0.0371 q -0.27829,0.0928 -0.61225,0.42672 -0.3525,0.0649 -0.59369,0.27829 -0.40816,0.0371 -0.63079,0.0371 0.10204,0 -0.41744,-0.0928 -0.36178,-0.0649 -0.48238,-0.11131 -0.17625,-0.0557 -0.46382,-0.24119 -0.1948,-0.28757 -0.46382,-0.51948 -0.0742,-0.18553 -0.0742,-0.55659 0.0928,-0.38961 0.12987,-0.46382 l 0.14842,-0.17625 0.0742,-0.29685 0.0742,0 0.0371,-0.27829 0.27829,-0.20408 0.20408,0 q 0.0371,0 0.3154,0.0557 0.43599,0.17625 0.59369,0.76994 l -0.0371,0.22264 0.0649,0.25974 -0.0649,0.25974 -0.24119,0.33395 -0.20408,0 -0.14842,-0.2783 -0.0371,-0.27829 -0.12987,-0.16697 -0.18553,0 -0.18553,0.11131 q -0.10204,0.34323 -0.0742,0.64935 l 0.3154,0.29685 q 0.58442,0.16697 0.89054,0.16697 0.0835,0 0.24118,-0.009 0.1577,-0.009 0.23192,-0.009 0.16697,-0.0649 0.38961,-0.30612 0.23191,-0.24119 0.38961,-0.30612 0.0186,-0.0557 0.14842,-0.3154 l -0.0186,-0.22264 0.16697,-0.14842 -0.0928,-0.20408 0.0557,-0.1577 -0.12987,-0.11132 -0.2783,-0.0742 q -0.0557,-0.0835 -0.16697,-0.26901 -0.11132,-0.18553 -0.16698,-0.26902 l -0.0742,0 -0.0557,-0.0557 q -0.12987,-0.40816 -0.24119,-0.68646 0,-0.1948 0.0557,-0.38961 0.14843,-0.17625 0.33395,-0.50092 l 0.0186,-0.25974 0.16697,-0.12987 0.0557,-0.20408 0.0742,0 0.12987,-0.12987 q 0.23191,-0.0464 0.68646,-0.24119 0.55658,-0.0928 0.68645,-0.0928 0.25974,0 0.74212,0.0742 0.17625,0.10204 0.53803,0.27829 0.18553,0.1948 0.43599,0.51948 l 0.0557,0.37106 z"
           style=""
           id="path10153" />
        <path
           d="m -243.17199,-546.40248 -0.0557,0.33395 -0.20408,0.0557 q -0.0928,-0.0186 -0.4731,-0.11132 -0.27829,-0.0742 -0.4731,-0.0742 -0.0186,0 -0.3525,0.0557 l -0.0557,0.0742 -0.38961,0 -0.20408,0.18553 q -0.0464,0.24118 -0.22263,0.55658 0.0278,0.26902 -0.0742,0.61225 l -0.12987,0.12987 0.0742,0.3525 -0.12987,0.0557 -0.0742,0.12987 0.0742,0.14842 -0.14843,0.16698 -0.0557,0.27829 -0.0742,0.0186 -0.12987,0.27829 0,0.0557 -0.27829,0.14842 0.0742,0.21336 -0.14842,0.12987 -0.0557,0.20408 -0.21336,0.27829 0,0.12987 0.0557,0.0557 0.1577,0 0,0.14842 -0.0742,0.0557 q 0.0742,0.17625 0.11132,0.42672 l 0.37105,-0.0742 0.14843,0.0928 0.11131,-0.0928 0.14843,0.0557 q 0.1948,-0.0742 0.59369,-0.20408 l 0.20408,-0.20408 0.14842,-0.38961 0,-0.3525 q 0.1577,-0.39889 0.33395,-0.58442 l -0.14842,-0.0928 0.14842,-0.12987 0,-0.0742 0.20408,-0.12987 0.20409,0 q 0.21335,0.0557 0.20408,0.0557 l 0.18553,0.40816 -0.12987,0.21336 0,0.20408 q -0.22264,0.30612 -0.46383,0.40816 l 0,0.0742 -0.20408,0.25974 q -0.0371,0.3154 -0.24118,0.51948 l -0.22264,0.14842 -0.14842,0.20409 q -0.40816,0.22263 -0.6679,0.20408 l -0.0742,0.14842 -0.12987,0 -0.0742,-0.0742 q -0.1948,0.0464 -0.27829,0.12987 l -0.33395,0.0742 0,-0.0742 q -0.43599,-0.0742 -0.67718,-0.0557 -0.0742,-0.12059 -0.32468,-0.26902 -0.27829,-0.16697 -0.36178,-0.26901 l 0,-0.35251 -0.0556,-0.0557 0,-0.27829 q 0.21335,-0.56586 0.20408,-0.74211 l 0.11131,-0.11132 q 0.11132,-0.1948 0.0742,-0.5102 l 0.24118,-0.3154 q -0.009,-0.0835 0.12987,-0.70501 l 0.16698,-0.18553 -0.0742,-0.14842 q 0.10204,-0.36178 0.29684,-1.07607 l 0.12987,0 q 0.0835,-0.11132 0.13915,-0.48237 l -0.0835,-0.0742 -0.33395,0.0742 q -0.19481,0.1577 -0.33395,0.20408 l -0.20408,-0.0557 q -0.38034,0.18553 -0.74212,0.12987 l 0.0742,-0.27829 q 0.23191,-0.18553 0.53804,-0.33395 l 0.12987,0 0.0742,-0.12987 0.20408,0 0.25974,-0.12987 0.16698,0.0371 q 0.36178,-0.0649 0.64007,-0.17625 l 0.0928,-0.27829 0.12987,0 0.2783,-0.33395 0.0557,-0.20409 q 0.18553,-0.11131 0.2783,-0.14842 l 0.0557,-0.20408 0.20408,0.0742 0.0742,-0.0742 0,-0.12987 0.27829,-0.12987 0,-0.12987 0.12987,-0.20408 0.12987,0 0.0742,0.0557 0.12987,-0.0557 0,0.46382 -0.12987,0.0742 0,0.0557 -0.0742,0.0742 0,0.20408 -0.27829,0.33395 q -0.0278,0.35251 -0.24119,0.64008 0.36178,0.0278 0.72356,0.11131 0.16698,-0.0557 0.51948,-0.0557 0.38034,0 0.6308,0.0557 l 0.12987,0.2783 z"
           style=""
           id="path10155" />
        <path
           d="m -235.56532,-549.49153 -0.12987,0.11131 q -0.0557,0.40817 -0.27829,0.55659 l 0,0.18553 -0.14842,0.16697 -0.0742,0.25974 -0.24119,0.0557 q -0.0371,0.28757 -0.18553,0.46382 -0.20408,0.1206 -0.37106,0.3154 l -0.24118,0.0742 -0.16698,-0.38961 q 0.0186,-0.20408 0.0186,-0.61224 0.25047,-0.40816 0.12987,-0.85343 0.12987,-0.32468 0.33396,-0.55659 l 0.33395,-0.12987 0.0742,-0.0742 q 0.14842,-0.0742 0.3154,-0.0742 l 0.29684,0 q 0.20408,0.0928 0.33395,0.27829 l 0,0.22264 z m -0.90909,7.10574 q 0.0186,0.1577 -0.12987,0.46382 l -0.12987,0.0742 -0.0742,0.12987 -0.0742,0 -0.12987,0.14843 -0.27829,0.0557 q -0.0278,0.0649 -0.1206,0.18552 -0.0928,0.1206 -0.12059,0.18553 l -0.22263,0.16698 -0.2783,0.0742 -0.0557,0.0742 -0.2783,0.0557 -0.0742,0.0742 -0.34323,-0.12987 q -0.41744,0.0371 -0.81632,-0.14842 l 0,-0.0557 q -0.0742,-0.11132 -0.12987,-0.14842 l -0.12987,-0.0557 q -0.16698,-0.29685 -0.16698,-0.59369 l 0.0928,-0.22264 q 0.14842,-0.10204 0.50092,-0.76066 0.23191,-0.42672 0.46382,-0.86271 0.0186,-0.22264 0.3154,-1.02041 l 0,-0.12987 0.0742,-0.0742 0,-0.0742 0.0835,0 0.14843,-0.29685 -0.0186,-0.29684 -0.0742,-0.0742 q -0.26902,0.0278 -0.4731,0.20409 l 0,0.0742 q -0.37105,0.11131 -0.53803,0.18553 l -0.14842,0.14842 q -0.18553,0.0278 -0.38961,0.12987 l -0.14843,-0.0185 -0.12987,-0.11132 -0.0371,-0.14842 0.0371,-0.18553 q 0.32468,-0.25974 0.53804,-0.29685 0.29684,-0.0557 0.59369,-0.11132 0.12059,-0.0557 0.3525,-0.16697 0.54731,-0.24119 1.36364,-0.24119 0.0186,0 0.13914,0.0278 0.1206,0.0278 0.13915,0.0278 0.16698,0.16698 0.25974,0.40816 l 0.0742,0 q 0.0742,0.1206 0.0742,0.50093 0,0.0371 -0.0557,0.3154 -0.0649,0.0464 -0.29685,0.33395 l -0.20408,0.0742 -0.0557,0.20408 -0.0742,0 -0.12987,0.12987 q 0.0278,0.26902 -0.0742,0.61225 l -0.0557,0 q -0.0371,0.23191 -0.14842,0.40816 l -0.20409,0.18553 q -0.22263,0.71428 -0.20408,0.76994 l -0.0557,0 q -0.0186,0.16698 -0.0928,0.48238 l 0.0185,0.22263 q 0.2783,-0.0186 0.76067,-0.29684 0.49165,-0.28757 0.59369,-0.53804 l 0.22264,-0.12987 0.16697,-0.0186 0.14842,0.0742 z"
           style=""
           id="path10157" />
        <path
           d="m -230.37052,-546.40248 -0.0557,0.33395 -0.20409,0.0557 q -0.0928,-0.0186 -0.47309,-0.11132 -0.2783,-0.0742 -0.4731,-0.0742 -0.0186,0 -0.35251,0.0557 l -0.0557,0.0742 -0.38961,0 -0.20409,0.18553 q -0.0464,0.24118 -0.22263,0.55658 0.0278,0.26902 -0.0742,0.61225 l -0.12987,0.12987 0.0742,0.3525 -0.12987,0.0557 -0.0742,0.12987 0.0742,0.14842 -0.14842,0.16698 -0.0557,0.27829 -0.0742,0.0186 -0.12987,0.27829 0,0.0557 -0.2783,0.14842 0.0742,0.21336 -0.14843,0.12987 -0.0557,0.20408 -0.21335,0.27829 0,0.12987 0.0557,0.0557 0.1577,0 0,0.14842 -0.0742,0.0557 q 0.0742,0.17625 0.11132,0.42672 l 0.37106,-0.0742 0.14842,0.0928 0.11132,-0.0928 0.14842,0.0557 q 0.1948,-0.0742 0.59369,-0.20408 l 0.20408,-0.20408 0.14843,-0.38961 0,-0.3525 q 0.15769,-0.39889 0.33395,-0.58442 l -0.14843,-0.0928 0.14843,-0.12987 0,-0.0742 0.20408,-0.12987 0.20408,0 q 0.21336,0.0557 0.20408,0.0557 l 0.18553,0.40816 -0.12987,0.21336 0,0.20408 q -0.22263,0.30612 -0.46382,0.40816 l 0,0.0742 -0.20408,0.25974 q -0.0371,0.3154 -0.24119,0.51948 l -0.22263,0.14842 -0.14843,0.20409 q -0.40816,0.22263 -0.6679,0.20408 l -0.0742,0.14842 -0.12987,0 -0.0742,-0.0742 q -0.19481,0.0464 -0.2783,0.12987 l -0.33395,0.0742 0,-0.0742 q -0.43599,-0.0742 -0.67718,-0.0557 -0.0742,-0.12059 -0.32467,-0.26902 -0.27829,-0.16697 -0.36178,-0.26901 l 0,-0.35251 -0.0557,-0.0557 0,-0.27829 q 0.21336,-0.56586 0.20408,-0.74211 l 0.11132,-0.11132 q 0.11131,-0.1948 0.0742,-0.5102 l 0.24119,-0.3154 q -0.009,-0.0835 0.12987,-0.70501 l 0.16697,-0.18553 -0.0742,-0.14842 q 0.10204,-0.36178 0.29685,-1.07607 l 0.12987,0 q 0.0835,-0.11132 0.13914,-0.48237 l -0.0835,-0.0742 -0.33395,0.0742 q -0.1948,0.1577 -0.33395,0.20408 l -0.20408,-0.0557 q -0.38033,0.18553 -0.74211,0.12987 l 0.0742,-0.27829 q 0.23191,-0.18553 0.53803,-0.33395 l 0.12987,0 0.0742,-0.12987 0.20408,0 0.25974,-0.12987 0.16698,0.0371 q 0.36178,-0.0649 0.64007,-0.17625 l 0.0928,-0.27829 0.12987,0 0.27829,-0.33395 0.0557,-0.20409 q 0.18553,-0.11131 0.27829,-0.14842 l 0.0557,-0.20408 0.20408,0.0742 0.0742,-0.0742 0,-0.12987 0.2783,-0.12987 0,-0.12987 0.12987,-0.20408 0.12987,0 0.0742,0.0557 0.12987,-0.0557 0,0.46382 -0.12987,0.0742 0,0.0557 -0.0742,0.0742 0,0.20408 -0.2783,0.33395 q -0.0278,0.35251 -0.24118,0.64008 0.36178,0.0278 0.72356,0.11131 0.16697,-0.0557 0.51948,-0.0557 0.38033,0 0.63079,0.0557 l 0.12987,0.2783 z"
           style=""
           id="path10159" />
        <path
           d="m -222.3093,-553.10007 -0.0186,0.12987 -0.0742,0.11132 0.0371,0.0742 -0.0186,0.11132 -0.0557,0.0742 -0.0186,0.11132 -0.12987,0 -0.24119,0.24119 -0.0186,0.12987 q -0.0928,0.24118 -0.57514,0.42671 l -0.0557,0.29685 0.0371,0.0742 q -0.0464,0.11132 -0.55659,1.08534 l -0.20408,0.0742 q -0.0557,0.436 -0.25974,1.2616 l -0.16698,0.18553 -0.25046,0.0742 q -0.0371,0.13914 -0.11132,0.40816 -0.0556,0.16698 -0.31539,0.64935 l -0.40817,0.27829 q -0.0557,0.13915 0,0.42672 -0.12987,0.17625 -0.3525,0.54731 -0.0928,0.43599 -0.0928,0.79777 l -0.27829,0.3154 0.12987,0 -0.0371,0.16698 -0.0742,0.0742 -0.0371,0.18553 -0.20408,0.16697 -0.0371,0.18553 q -0.1948,0.23191 -0.6679,0.6679 l -0.0371,0.18553 -0.11131,0 -0.0928,-0.12987 q 0,-0.29684 -0.11132,-0.40816 0.0278,-0.25974 0.21336,-0.80705 0.16698,-0.5102 0.17625,-0.7885 l 0.0928,-0.0557 0.0371,-0.24118 0.0557,0 q 0.0371,-0.36178 0.14843,-0.53804 l 0.0928,-0.0742 0.0742,-0.49165 0.0557,0 0.14842,-0.18553 0.0742,-0.42671 0.0742,-0.0557 0.14842,-0.44527 -0.11132,-0.18553 0.0557,-0.29684 0.22263,-0.18553 0.11132,-0.29685 -0.0557,-0.0557 0.0371,-0.12987 -0.0557,-0.0371 q 0.1948,-0.22264 0.55659,-0.87199 l 0.0186,-0.29684 q 0.0278,-0.0371 0.3525,-0.30612 -0.0278,-0.26902 0.0371,-0.55659 l -0.0371,-0.0557 0.0186,-0.12987 0.34322,-0.24119 0.0186,-0.0557 0.11131,0 0.0928,-0.12987 0.0186,-0.11132 0.0742,-0.12987 q 0.0186,-0.18553 0.0928,-0.55659 l 0.38961,-0.40816 0.38961,-0.18553 0.37105,0 0.11132,0.0557 0.0742,-0.0557 0.12987,0 0.12987,-0.12987 0.18553,0 0.16698,0.12987 0.0928,0.18553 -0.0371,0.11132 0.11131,0.0557 z m -5.37105,11.54916 q 0,0.0278 -0.009,0.0928 -0.009,0.0649 -0.009,0.0928 l -0.0928,0.0371 q -0.0464,0.1577 -0.18553,0.37106 -0.14842,0 -0.25974,0.11132 -0.0186,0 -0.0649,-0.009 -0.0464,-0.009 -0.0649,-0.009 -0.0186,0 -0.0557,0.009 -0.0371,0.009 -0.0556,0.009 l -0.0186,0.14842 q -0.1948,0 -0.52875,-0.0742 l -0.0557,-0.0742 -0.0742,0 0,-0.14842 -0.0742,-0.0742 q 0,-0.31539 0.11131,-0.48237 0,-0.0278 -0.009,-0.0928 -0.009,-0.0649 -0.009,-0.0928 0,-0.16697 0.11132,-0.27829 l 0.0928,-0.0186 0.0928,-0.18553 0.0742,0 0,-0.0742 0.1948,-0.0928 0.35251,0.0557 q 0.0186,0 0.0742,-0.0185 0.0557,-0.0186 0.0742,-0.0186 l 0.18553,0 0.0557,0.22264 0.11131,0.14842 q 0.0371,0.29685 0.0371,0.44527 z"
           style=""
           id="path10161" />
      </g>
    </g>
    <symbol
       id="amber"
       viewBox="-8.3 -8.3 16.5 16.5"
       transform="matrix(0.24691355,0,0,0.24691355,-655.99999,-366.66666)">
      <polygon
         style="fill:#ff931e;stroke:#000000;stroke-width:0.5"
         class="st0"
         points="8,-8 -8,-8 -8,8 8,8 "
         id="polygon11994" />
    </symbol>
    <symbol
       id="green"
       viewBox="-8.3 -8.3 16.5 16.5"
       transform="matrix(0.24691355,0,0,0.24691355,-655.99999,-366.66666)">
      <polygon
         style="fill:#00c700;stroke:#000000;stroke-width:0.5"
         class="st1"
         points="8,-8 -8,-8 -8,8 8,8 "
         id="polygon11997" />
    </symbol>
    <symbol
       id="red"
       viewBox="-8.3 -8.3 16.5 16.5"
       transform="matrix(0.24691355,0,0,0.24691355,-655.99999,-366.66666)">
      <polygon
         style="fill:#ff1d25;stroke:#000000;stroke-width:0.5"
         class="st2"
         points="8,-8 -8,-8 -8,8 8,8 "
         id="polygon12000" />
    </symbol>
  </g>
  <style
     id="style11991"
     type="text/css">
	.st0{fill:#FF931E;stroke:#000;stroke-width:0.5;}
	.st1{fill:#00C700;stroke:#000;stroke-width:0.5;}
	.st2{fill:#FF1D25;stroke:#000;stroke-width:0.5;}
</style>
</svg>
