<?xml version="1.0" encoding="UTF-8" standalone="no"?>
<!-- Created with Inkscape (http://www.inkscape.org/) -->

<svg
   xmlns:dc="http://purl.org/dc/elements/1.1/"
   xmlns:cc="http://creativecommons.org/ns#"
   xmlns:rdf="http://www.w3.org/1999/02/22-rdf-syntax-ns#"
   xmlns:svg="http://www.w3.org/2000/svg"
   xmlns="http://www.w3.org/2000/svg"
   xmlns:xlink="http://www.w3.org/1999/xlink"
   xmlns:sodipodi="http://sodipodi.sourceforge.net/DTD/sodipodi-0.dtd"
   xmlns:inkscape="http://www.inkscape.org/namespaces/inkscape"
   width="64"
   height="64"
   id="svg3003"
   version="1.1"
   inkscape:version="0.91 r13725"
   sodipodi:docname="ebook-xeb-64.svg"
   inkscape:export-filename="C:\wamp\www\TESTY\git-hub\system-icons\file-types\ebook-xeb\ebook-xeb-64.png"
   inkscape:export-xdpi="90"
   inkscape:export-ydpi="90">
  <defs
     id="defs3005">
    <linearGradient
       id="linearGradient10529">
      <stop
         id="stop10531"
         offset="0"
         style="stop-color:#d4d4d4;stop-opacity:1;" />
      <stop
         style="stop-color:#e9e9e9;stop-opacity:1;"
         offset="0.84210408"
         id="stop10533" />
      <stop
         id="stop10535"
         offset="1"
         style="stop-color:#ffffff;stop-opacity:1;" />
    </linearGradient>
    <linearGradient
       id="linearGradient10512">
      <stop
         style="stop-color:#d4d4d4;stop-opacity:1;"
         offset="0"
         id="stop10514" />
      <stop
         id="stop10527"
         offset="0.5"
         style="stop-color:#e9e9e9;stop-opacity:1;" />
      <stop
         style="stop-color:#ffffff;stop-opacity:1;"
         offset="1"
         id="stop10516" />
    </linearGradient>
    <linearGradient
       id="linearGradient8521">
      <stop
         style="stop-color:#8b4513;stop-opacity:1;"
         offset="0"
         id="stop8523" />
      <stop
         id="stop8529"
         offset="0.2"
         style="stop-color:#753b10;stop-opacity:1;" />
      <stop
         style="stop-color:#753b10;stop-opacity:1;"
         offset="0.80000001"
         id="stop8531" />
      <stop
         style="stop-color:#8b4513;stop-opacity:0.9856115;"
         offset="1"
         id="stop8525" />
    </linearGradient>
    <clipPath
       id="clipPath3008"
       clipPathUnits="userSpaceOnUse">
      <path
         id="path3010"
         d="M 0,4105.95 0,0 l 5477.71,0 0,4105.95 -5477.71,0 z"
         inkscape:connector-curvature="0" />
    </clipPath>
    <mask
       id="mask10161"
       maskUnits="userSpaceOnUse">
      <path
         inkscape:connector-curvature="0"
         style="fill:#ffffff;fill-opacity:1;fill-rule:nonzero;stroke:none"
         d="m 292,-356 0,88 158.1155,0 c 5.75,0 -1.34601,-3.67332 -2,-7.5 l 0,-72.5 c 0,-4 7.99887,-8.11642 2,-8 z m 143.9905,42.65625 c 0.0733,0.43671 0.125,0.88559 0.125,1.34375 0,0.45816 -0.0517,0.90704 -0.125,1.34375 z"
         id="path10163"
         sodipodi:nodetypes="ccscssccscc" />
    </mask>
    <mask
       id="mask10155"
       maskUnits="userSpaceOnUse">
      <path
         inkscape:connector-curvature="0"
         style="fill:#ffffff;fill-opacity:1;fill-rule:nonzero;stroke:none"
         d="m 292,-396 0,88 158.1155,0 c 5.75,0 -1.34601,-3.67332 -2,-7.5 l 0,-72.5 c 0,-4 7.99887,-8.11642 2,-8 z m 143.9905,42.65625 c 0.0733,0.43671 0.125,0.88559 0.125,1.34375 0,0.45816 -0.0517,0.90704 -0.125,1.34375 z"
         id="path10157"
         sodipodi:nodetypes="ccscssccscc" />
    </mask>
    <mask
       id="mask6565"
       maskUnits="userSpaceOnUse">
      <path
         style="fill:#ffffff;fill-opacity:1;fill-rule:nonzero;stroke:none"
         d="m -346,-310.64283 c -6,0 2,4 2,8 l 0,72.5 c -0.65399,3.82669 -7.75,7.5 -2,7.5 l 290,0 c 16,0 35.47187,-9.634 44,-24 6.12557,-10.31878 5.77451,-25.48072 0,-36 -8.3656,-15.23939 -28,-28 -44,-28 l -290,0 z m 22,36 20,0 c 4.432,0 8,3.56801 8,8 0,4.43201 -3.568,8 -8,8 l -20,0 c -4.432,0 -8,-3.56799 -8,-8 0,-4.43199 3.568,-8 8,-8 z m 68,0 20,0 c 4.432,0 8,3.56801 8,8 0,4.43201 -3.568,8 -8,8 l -20,0 c -4.432,0 -8,-3.56799 -8,-8 0,-4.43199 3.568,-8 8,-8 z m 68,0 20,0 c 4.432,0 8,3.56801 8,8 0,4.43201 -3.568,8 -8,8 l -20,0 c -4.432,0 -8,-3.56799 -8,-8 0,-4.43199 3.568,-8 8,-8 z"
         id="path6567"
         inkscape:connector-curvature="0" />
    </mask>
    <mask
       id="mask6083"
       maskUnits="userSpaceOnUse">
      <path
         style="fill:#ffffff;fill-opacity:1;fill-rule:nonzero;stroke:none"
         d="m -346,-240 c -6,0 2,4 2,8 l 0,72.5 c -0.65399,3.82668 -7.75,7.5 -2,7.5 l 290,0 c 16,0 35.47187,-9.634 44,-24 6.12557,-10.31879 5.77451,-25.48073 0,-36 -8.3656,-15.23939 -28,-28 -44,-28 l -290,0 z m 22,36 20,0 c 4.432,0 8,3.568 8,8 0,4.432 -3.568,8 -8,8 l -20,0 c -4.432,0 -8,-3.568 -8,-8 0,-4.432 3.568,-8 8,-8 z m 68,0 20,0 c 4.432,0 8,3.568 8,8 0,4.432 -3.568,8 -8,8 l -20,0 c -4.432,0 -8,-3.568 -8,-8 0,-4.432 3.568,-8 8,-8 z m 68,0 20,0 c 4.432,0 8,3.568 8,8 0,4.432 -3.568,8 -8,8 l -20,0 c -4.432,0 -8,-3.568 -8,-8 0,-4.432 3.568,-8 8,-8 z"
         id="path6085"
         inkscape:connector-curvature="0" />
    </mask>
    <clipPath
       clipPathUnits="userSpaceOnUse"
       id="clipPath3008-4">
      <path
         d="M 0,4105.95 0,0 l 5477.71,0 0,4105.95 -5477.71,0 z"
         id="path3010-0" />
    </clipPath>
    <linearGradient
       id="linearGradient4066">
      <stop
         id="stop4068"
         offset="0"
         style="stop-color:#7f4124;stop-opacity:1;" />
      <stop
         id="stop4070"
         offset="1"
         style="stop-color:#8b4513;stop-opacity:1;" />
    </linearGradient>
    <linearGradient
       id="linearGradient4084">
      <stop
         style="stop-color:#8b4513;stop-opacity:1;"
         offset="0"
         id="stop4086" />
      <stop
         style="stop-color:#5a3920;stop-opacity:1;"
         offset="1"
         id="stop4088" />
    </linearGradient>
    <linearGradient
       id="linearGradient7905">
      <stop
         id="stop7907"
         offset="0"
         style="stop-color:#d4d4d4;stop-opacity:1;" />
      <stop
         id="stop7909"
         offset="1"
         style="stop-color:#ffffff;stop-opacity:1;" />
    </linearGradient>
    <linearGradient
       id="linearGradient7905-7">
      <stop
         id="stop7907-4"
         offset="0"
         style="stop-color:#d4d4d4;stop-opacity:1;" />
      <stop
         id="stop7909-0"
         offset="1"
         style="stop-color:#ffffff;stop-opacity:1;" />
    </linearGradient>
    <linearGradient
       id="linearGradient5017">
      <stop
         id="stop5019"
         offset="0"
         style="stop-color:#d4d4d4;stop-opacity:1;" />
      <stop
         id="stop5021"
         offset="1"
         style="stop-color:#ffffff;stop-opacity:1;" />
    </linearGradient>
    <linearGradient
       id="linearGradient4084-8">
      <stop
         style="stop-color:#8b4513;stop-opacity:1;"
         offset="0"
         id="stop4086-8" />
      <stop
         style="stop-color:#5a3920;stop-opacity:1;"
         offset="1"
         id="stop4088-2" />
    </linearGradient>
    <linearGradient
       id="linearGradient5028">
      <stop
         style="stop-color:#8b4513;stop-opacity:1;"
         offset="0"
         id="stop5030" />
      <stop
         style="stop-color:#5a3920;stop-opacity:1;"
         offset="1"
         id="stop5032" />
    </linearGradient>
    <linearGradient
       id="linearGradient5035">
      <stop
         style="stop-color:#8b4513;stop-opacity:1;"
         offset="0"
         id="stop5037" />
      <stop
         style="stop-color:#5a3920;stop-opacity:1;"
         offset="1"
         id="stop5039" />
    </linearGradient>
    <linearGradient
       id="linearGradient5042">
      <stop
         style="stop-color:#8b4513;stop-opacity:1;"
         offset="0"
         id="stop5044" />
      <stop
         style="stop-color:#5a3920;stop-opacity:1;"
         offset="1"
         id="stop5046" />
    </linearGradient>
    <linearGradient
       id="linearGradient5055">
      <stop
         style="stop-color:#8b4513;stop-opacity:1;"
         offset="0"
         id="stop5057" />
      <stop
         style="stop-color:#5a3920;stop-opacity:1;"
         offset="1"
         id="stop5059" />
    </linearGradient>
    <linearGradient
       id="linearGradient5062">
      <stop
         style="stop-color:#8b4513;stop-opacity:1;"
         offset="0"
         id="stop5064" />
      <stop
         style="stop-color:#5a3920;stop-opacity:1;"
         offset="1"
         id="stop5066" />
    </linearGradient>
    <linearGradient
       id="linearGradient5073">
      <stop
         style="stop-color:#8b4513;stop-opacity:1;"
         offset="0"
         id="stop5075" />
      <stop
         style="stop-color:#5a3920;stop-opacity:1;"
         offset="1"
         id="stop5077" />
    </linearGradient>
    <linearGradient
       id="linearGradient5080">
      <stop
         style="stop-color:#8b4513;stop-opacity:1;"
         offset="0"
         id="stop5082" />
      <stop
         style="stop-color:#5a3920;stop-opacity:1;"
         offset="1"
         id="stop5084" />
    </linearGradient>
    <linearGradient
       id="linearGradient5087">
      <stop
         id="stop5089"
         offset="0"
         style="stop-color:#d4d4d4;stop-opacity:1;" />
      <stop
         id="stop5091"
         offset="1"
         style="stop-color:#ffffff;stop-opacity:1;" />
    </linearGradient>
    <linearGradient
       id="linearGradient5094">
      <stop
         id="stop5096"
         offset="0"
         style="stop-color:#d4d4d4;stop-opacity:1;" />
      <stop
         id="stop5098"
         offset="1"
         style="stop-color:#ffffff;stop-opacity:1;" />
    </linearGradient>
    <linearGradient
       inkscape:collect="always"
       xlink:href="#linearGradient4084-8"
       id="linearGradient7384"
       gradientUnits="userSpaceOnUse"
       gradientTransform="matrix(0.09895834,0,0,-0.09895834,51.349681,12.604155)"
       x1="-213"
       y1="-236"
       x2="-213"
       y2="-234" />
    <linearGradient
       inkscape:collect="always"
       xlink:href="#linearGradient4084-8"
       id="linearGradient7387"
       gradientUnits="userSpaceOnUse"
       gradientTransform="matrix(0.09895834,0,0,-0.09895834,51.349681,12.604155)"
       x1="-224"
       y1="-228"
       x2="-224"
       y2="-229" />
    <linearGradient
       inkscape:collect="always"
       xlink:href="#linearGradient4084-8"
       id="linearGradient7628"
       gradientUnits="userSpaceOnUse"
       x1="-213"
       y1="-236"
       x2="-213"
       y2="-234"
       gradientTransform="matrix(0.09895834,0,0,0.09895834,51.349681,51.395834)" />
    <linearGradient
       inkscape:collect="always"
       xlink:href="#linearGradient4084-8"
       id="linearGradient7631"
       gradientUnits="userSpaceOnUse"
       x1="-224"
       y1="-228"
       x2="-224"
       y2="-229"
       gradientTransform="matrix(0.09895834,0,0,0.09895834,51.349681,51.395834)" />
    <mask
       maskUnits="userSpaceOnUse"
       id="mask8557">
      <path
         sodipodi:nodetypes="ccccsssscsscssssssssssssssssss"
         inkscape:connector-curvature="0"
         id="path8559"
         d="m -337.00728,-246.52631 c -20.21052,0 -10.10526,0 0,20.21053 l 0,60.63157 c -10.10526,20.21053 -20.21052,20.21053 0,20.21053 l 282.947349,0 c 15.999996,0 33.531798,-16.16032 42.059932,-30.52632 6.1255674,-10.31879 5.7745106,-25.48073 0,-36 -8.365601,-15.23939 -26.059936,-34.52631 -42.059932,-34.52631 z m 20.21052,40.42105 20.21053,0 c 4.432,0 9.51904,10e-6 10.10526,10.10527 -0.5862,10.10527 -5.67326,10.10526 -10.10526,10.10526 l -20.21053,0 c -4.432,0 -10.10526,0 -10.10526,-10.10526 0,-10.10527 5.67326,-10.10527 10.10526,-10.10527 z m 60.63158,0 20.21052,0 c 4.432,0 10.10527,0 10.10527,10.10527 0,10.10526 -5.67327,10.10526 -10.10527,10.10526 l -20.21052,0 c -4.432,0 -10.10526,0 -10.10526,-10.10526 0,-10.10527 5.67326,-10.10527 10.10526,-10.10527 z m 70.73684,0 20.21052,0 c 4.432,0 10.10526,0 10.10526,10.10527 0,10.10526 -5.67326,10.10526 -10.10526,10.10526 l -20.21052,0 c -4.432,0 -10.10527,0 -10.10527,-10.10526 0,-10.10527 5.67327,-10.10527 10.10527,-10.10527 z"
         style="fill:#ffffff;fill-opacity:1;fill-rule:nonzero;stroke:none" />
    </mask>
    <mask
       maskUnits="userSpaceOnUse"
       id="mask8563">
      <path
         sodipodi:nodetypes="ccccsssscsscssssssssssssssssss"
         inkscape:connector-curvature="0"
         id="path8565"
         d="m -337.00728,-317.16913 c -20.21052,0 -10.10526,0 0,20.21052 l 0,60.63158 c -10.10526,20.21052 -20.21052,20.21052 0,20.21052 l 282.947349,0 c 15.999996,0 33.531798,-16.16031 42.059932,-30.52632 6.1255674,-10.31879 5.7745106,-25.48073 0,-36 -8.365601,-15.23939 -26.059936,-34.5263 -42.059932,-34.5263 z m 20.21052,40.42105 20.21053,0 c 4.432,0 9.51904,1e-5 10.10526,10.10526 -0.5862,10.10527 -5.67326,10.10526 -10.10526,10.10526 l -20.21053,0 c -4.432,0 -10.10526,0 -10.10526,-10.10526 0,-10.10526 5.67326,-10.10526 10.10526,-10.10526 z m 60.63158,0 20.21052,0 c 4.432,0 10.10527,0 10.10527,10.10526 0,10.10526 -5.67327,10.10526 -10.10527,10.10526 l -20.21052,0 c -4.432,0 -10.10526,0 -10.10526,-10.10526 0,-10.10526 5.67326,-10.10526 10.10526,-10.10526 z m 70.73684,0 20.21052,0 c 4.432,0 10.10526,0 10.10526,10.10526 0,10.10526 -5.67326,10.10526 -10.10526,10.10526 l -20.21052,0 c -4.432,0 -10.10527,0 -10.10527,-10.10526 0,-10.10526 5.67327,-10.10526 10.10527,-10.10526 z"
         style="fill:#ffffff;fill-opacity:1;fill-rule:nonzero;stroke:none" />
    </mask>
    <linearGradient
       inkscape:collect="always"
       xlink:href="#linearGradient8521"
       id="linearGradient9036"
       x1="35"
       y1="35"
       x2="35"
       y2="36"
       gradientUnits="userSpaceOnUse"
       gradientTransform="translate(0,-20)" />
    <linearGradient
       inkscape:collect="always"
       xlink:href="#linearGradient8521"
       id="linearGradient9044"
       x1="35"
       y1="28"
       x2="35"
       y2="29"
       gradientUnits="userSpaceOnUse"
       gradientTransform="translate(0,-20)" />
    <mask
       maskUnits="userSpaceOnUse"
       id="mask9133">
      <path
         sodipodi:nodetypes="ccccccc"
         id="path9135"
         d="m 286.24563,-402.52632 0,101.05263 141.47367,0 c 20.21053,0 10.10526,0 0,-20.21053 l 0,-60.63157 c 10.10526,-20.21053 20.21053,-20.21053 0,-20.21053 z"
         style="fill:#ffffff;fill-opacity:1;fill-rule:nonzero;stroke:none"
         inkscape:connector-curvature="0" />
    </mask>
    <mask
       maskUnits="userSpaceOnUse"
       id="mask9139">
      <path
         sodipodi:nodetypes="ccccccc"
         id="path9141"
         d="m 286.24563,-362.52631 0,101.05262 141.47367,0 c 20.21053,0 10.10527,0 0,-20.21052 l 0,-60.63158 c 10.10527,-20.21052 20.21053,-20.21052 0,-20.21052 z"
         style="fill:#ffffff;fill-opacity:1;fill-rule:nonzero;stroke:none"
         inkscape:connector-curvature="0" />
    </mask>
    <linearGradient
       inkscape:collect="always"
       xlink:href="#linearGradient8521"
       id="linearGradient9623"
       gradientUnits="userSpaceOnUse"
       x1="20"
       y1="28"
       x2="20"
       y2="29" />
    <linearGradient
       inkscape:collect="always"
       xlink:href="#linearGradient8521"
       id="linearGradient9625"
       gradientUnits="userSpaceOnUse"
       x1="20"
       y1="35"
       x2="20"
       y2="36" />
    <linearGradient
       inkscape:collect="always"
       xlink:href="#linearGradient8521"
       id="linearGradient9746"
       gradientUnits="userSpaceOnUse"
       x1="20"
       y1="35"
       x2="20"
       y2="36"
       gradientTransform="translate(0,-16)" />
    <linearGradient
       inkscape:collect="always"
       xlink:href="#linearGradient8521"
       id="linearGradient9867"
       gradientUnits="userSpaceOnUse"
       x1="20"
       y1="28"
       x2="20"
       y2="29"
       gradientTransform="translate(0,-16)" />
    <radialGradient
       inkscape:collect="always"
       xlink:href="#linearGradient10512"
       id="radialGradient10510"
       cx="193.6465"
       cy="-192"
       fx="193.6465"
       fy="-192"
       r="9"
       gradientTransform="matrix(1,0,0,2.2456143,0,239.15795)"
       gradientUnits="userSpaceOnUse" />
    <linearGradient
       gradientUnits="userSpaceOnUse"
       y2="-148"
       x2="328"
       y1="-372"
       x1="172"
       id="linearGradient4283"
       xlink:href="#linearGradient4277"
       inkscape:collect="always" />
    <linearGradient
       y2="208.90001"
       x2="-94.588242"
       y1="63.100014"
       x1="-158.11766"
       gradientTransform="matrix(0.94444445,0,0,0.49382716,369.33334,-227.1605)"
       gradientUnits="userSpaceOnUse"
       id="linearGradient4271"
       xlink:href="#linearGradient4233"
       inkscape:collect="always" />
    <linearGradient
       y2="208.90001"
       x2="-94.588242"
       y1="63.100014"
       x1="-158.11766"
       gradientTransform="matrix(0.94444445,0,0,0.49382716,369.33334,-227.1605)"
       gradientUnits="userSpaceOnUse"
       id="linearGradient4264"
       xlink:href="#linearGradient4233"
       inkscape:collect="always" />
    <mask
       id="mask10161-4"
       maskUnits="userSpaceOnUse">
      <path
         inkscape:connector-curvature="0"
         style="fill:#ffffff;fill-opacity:1;fill-rule:nonzero;stroke:none"
         d="m 292,-356 0,88 158.1155,0 c 5.75,0 -1.34601,-3.67332 -2,-7.5 l 0,-72.5 c 0,-4 7.99887,-8.11642 2,-8 z m 143.9905,42.65625 c 0.0733,0.43671 0.125,0.88559 0.125,1.34375 0,0.45816 -0.0517,0.90704 -0.125,1.34375 z"
         id="path10163-2"
         sodipodi:nodetypes="ccscssccscc" />
    </mask>
    <mask
       id="mask10155-6"
       maskUnits="userSpaceOnUse">
      <path
         inkscape:connector-curvature="0"
         style="fill:#ffffff;fill-opacity:1;fill-rule:nonzero;stroke:none"
         d="m 292,-396 0,88 158.1155,0 c 5.75,0 -1.34601,-3.67332 -2,-7.5 l 0,-72.5 c 0,-4 7.99887,-8.11642 2,-8 z m 143.9905,42.65625 c 0.0733,0.43671 0.125,0.88559 0.125,1.34375 0,0.45816 -0.0517,0.90704 -0.125,1.34375 z"
         id="path10157-1"
         sodipodi:nodetypes="ccscssccscc" />
    </mask>
    <mask
       id="mask6565-2"
       maskUnits="userSpaceOnUse">
      <path
         style="fill:#ffffff;fill-opacity:1;fill-rule:nonzero;stroke:none"
         d="m -346,-310.64283 c -6,0 2,4 2,8 l 0,72.5 c -0.65399,3.82669 -7.75,7.5 -2,7.5 l 290,0 c 16,0 35.47187,-9.634 44,-24 6.12557,-10.31878 5.77451,-25.48072 0,-36 -8.3656,-15.23939 -28,-28 -44,-28 l -290,0 z m 22,36 20,0 c 4.432,0 8,3.56801 8,8 0,4.43201 -3.568,8 -8,8 l -20,0 c -4.432,0 -8,-3.56799 -8,-8 0,-4.43199 3.568,-8 8,-8 z m 68,0 20,0 c 4.432,0 8,3.56801 8,8 0,4.43201 -3.568,8 -8,8 l -20,0 c -4.432,0 -8,-3.56799 -8,-8 0,-4.43199 3.568,-8 8,-8 z m 68,0 20,0 c 4.432,0 8,3.56801 8,8 0,4.43201 -3.568,8 -8,8 l -20,0 c -4.432,0 -8,-3.56799 -8,-8 0,-4.43199 3.568,-8 8,-8 z"
         id="path6567-7"
         inkscape:connector-curvature="0" />
    </mask>
    <mask
       id="mask6083-1"
       maskUnits="userSpaceOnUse">
      <path
         style="fill:#ffffff;fill-opacity:1;fill-rule:nonzero;stroke:none"
         d="m -346,-240 c -6,0 2,4 2,8 l 0,72.5 c -0.65399,3.82668 -7.75,7.5 -2,7.5 l 290,0 c 16,0 35.47187,-9.634 44,-24 6.12557,-10.31879 5.77451,-25.48073 0,-36 -8.3656,-15.23939 -28,-28 -44,-28 l -290,0 z m 22,36 20,0 c 4.432,0 8,3.568 8,8 0,4.432 -3.568,8 -8,8 l -20,0 c -4.432,0 -8,-3.568 -8,-8 0,-4.432 3.568,-8 8,-8 z m 68,0 20,0 c 4.432,0 8,3.568 8,8 0,4.432 -3.568,8 -8,8 l -20,0 c -4.432,0 -8,-3.568 -8,-8 0,-4.432 3.568,-8 8,-8 z m 68,0 20,0 c 4.432,0 8,3.568 8,8 0,4.432 -3.568,8 -8,8 l -20,0 c -4.432,0 -8,-3.568 -8,-8 0,-4.432 3.568,-8 8,-8 z"
         id="path6085-5"
         inkscape:connector-curvature="0" />
    </mask>
    <clipPath
       clipPathUnits="userSpaceOnUse"
       id="clipPath3008-7">
      <path
         d="M 0,4105.95 0,0 l 5477.71,0 0,4105.95 -5477.71,0 z"
         id="path3010-1" />
    </clipPath>
    <linearGradient
       id="linearGradient4066-5">
      <stop
         id="stop4068-5"
         offset="0"
         style="stop-color:#7f4124;stop-opacity:1;" />
      <stop
         id="stop4070-1"
         offset="1"
         style="stop-color:#8b4513;stop-opacity:1;" />
    </linearGradient>
    <linearGradient
       id="linearGradient4084-4">
      <stop
         style="stop-color:#8b4513;stop-opacity:1;"
         offset="0"
         id="stop4086-88" />
      <stop
         style="stop-color:#5a3920;stop-opacity:1;"
         offset="1"
         id="stop4088-24" />
    </linearGradient>
    <linearGradient
       id="linearGradient7905-4">
      <stop
         id="stop7907-0"
         offset="0"
         style="stop-color:#d4d4d4;stop-opacity:1;" />
      <stop
         id="stop7909-9"
         offset="1"
         style="stop-color:#ffffff;stop-opacity:1;" />
    </linearGradient>
    <linearGradient
       id="linearGradient4233"
       inkscape:collect="always">
      <stop
         id="stop4235"
         offset="0"
         style="stop-color:#0000ff;stop-opacity:1;" />
      <stop
         id="stop4237"
         offset="1"
         style="stop-color:#0000ff;stop-opacity:0;" />
    </linearGradient>
    <linearGradient
       id="linearGradient4277">
      <stop
         id="stop4279"
         offset="0"
         style="stop-color:#4a4aff;stop-opacity:1;" />
      <stop
         id="stop4281"
         offset="1"
         style="stop-color:#0000d7;stop-opacity:1;" />
    </linearGradient>
    <linearGradient
       inkscape:collect="always"
       xlink:href="#linearGradient4277"
       id="linearGradient3678"
       gradientUnits="userSpaceOnUse"
       x1="172"
       y1="-372"
       x2="328"
       y2="-148"
       gradientTransform="matrix(0.15684345,0,0,0.15684345,58.202321,59.128997)" />
    <linearGradient
       inkscape:collect="always"
       xlink:href="#linearGradient4277"
       id="linearGradient3689"
       gradientUnits="userSpaceOnUse"
       gradientTransform="matrix(0.15684345,0,0,0.15684345,58.202321,59.128997)"
       x1="172"
       y1="-372"
       x2="328"
       y2="-148" />
    <linearGradient
       inkscape:collect="always"
       xlink:href="#linearGradient4277"
       id="linearGradient3692"
       gradientUnits="userSpaceOnUse"
       gradientTransform="matrix(0.09174311,0,0,0.09174311,6.6802376,46.669721)"
       x1="172"
       y1="-372"
       x2="328"
       y2="-148" />
    <linearGradient
       id="linearGradient3803"
       inkscape:collect="always">
      <stop
         id="stop3805"
         offset="0"
         style="stop-color:#ffffff;stop-opacity:1;" />
      <stop
         id="stop3807"
         offset="1"
         style="stop-color:#ffffff;stop-opacity:0" />
    </linearGradient>
    <clipPath
       clipPathUnits="userSpaceOnUse"
       id="clipPath3008-9">
      <path
         d="M 0,4105.95 0,0 l 5477.71,0 0,4105.95 -5477.71,0 z"
         id="path3010-4" />
    </clipPath>
    <mask
       id="mask6083-3"
       maskUnits="userSpaceOnUse">
      <path
         style="fill:#ffffff;fill-opacity:1;fill-rule:nonzero;stroke:none"
         d="m -346,-240 c -6,0 2,4 2,8 l 0,72.5 c -0.65399,3.82668 -7.75,7.5 -2,7.5 l 290,0 c 16,0 35.47187,-9.634 44,-24 6.12557,-10.31879 5.77451,-25.48073 0,-36 -8.3656,-15.23939 -28,-28 -44,-28 l -290,0 z m 22,36 20,0 c 4.432,0 8,3.568 8,8 0,4.432 -3.568,8 -8,8 l -20,0 c -4.432,0 -8,-3.568 -8,-8 0,-4.432 3.568,-8 8,-8 z m 68,0 20,0 c 4.432,0 8,3.568 8,8 0,4.432 -3.568,8 -8,8 l -20,0 c -4.432,0 -8,-3.568 -8,-8 0,-4.432 3.568,-8 8,-8 z m 68,0 20,0 c 4.432,0 8,3.568 8,8 0,4.432 -3.568,8 -8,8 l -20,0 c -4.432,0 -8,-3.568 -8,-8 0,-4.432 3.568,-8 8,-8 z"
         id="path6085-7"
         inkscape:connector-curvature="0" />
    </mask>
    <mask
       id="mask6565-8"
       maskUnits="userSpaceOnUse">
      <path
         style="fill:#ffffff;fill-opacity:1;fill-rule:nonzero;stroke:none"
         d="m -346,-310.64283 c -6,0 2,4 2,8 l 0,72.5 c -0.65399,3.82669 -7.75,7.5 -2,7.5 l 290,0 c 16,0 35.47187,-9.634 44,-24 6.12557,-10.31878 5.77451,-25.48072 0,-36 -8.3656,-15.23939 -28,-28 -44,-28 l -290,0 z m 22,36 20,0 c 4.432,0 8,3.56801 8,8 0,4.43201 -3.568,8 -8,8 l -20,0 c -4.432,0 -8,-3.56799 -8,-8 0,-4.43199 3.568,-8 8,-8 z m 68,0 20,0 c 4.432,0 8,3.56801 8,8 0,4.43201 -3.568,8 -8,8 l -20,0 c -4.432,0 -8,-3.56799 -8,-8 0,-4.43199 3.568,-8 8,-8 z m 68,0 20,0 c 4.432,0 8,3.56801 8,8 0,4.43201 -3.568,8 -8,8 l -20,0 c -4.432,0 -8,-3.56799 -8,-8 0,-4.43199 3.568,-8 8,-8 z"
         id="path6567-8"
         inkscape:connector-curvature="0" />
    </mask>
    <mask
       id="mask10155-7"
       maskUnits="userSpaceOnUse">
      <path
         inkscape:connector-curvature="0"
         style="fill:#ffffff;fill-opacity:1;fill-rule:nonzero;stroke:none"
         d="m 292,-396 0,88 158.1155,0 c 5.75,0 -1.34601,-3.67332 -2,-7.5 l 0,-72.5 c 0,-4 7.99887,-8.11642 2,-8 z m 143.9905,42.65625 c 0.0733,0.43671 0.125,0.88559 0.125,1.34375 0,0.45816 -0.0517,0.90704 -0.125,1.34375 z"
         id="path10157-0"
         sodipodi:nodetypes="ccscssccscc" />
    </mask>
    <mask
       id="mask10161-5"
       maskUnits="userSpaceOnUse">
      <path
         inkscape:connector-curvature="0"
         style="fill:#ffffff;fill-opacity:1;fill-rule:nonzero;stroke:none"
         d="m 292,-356 0,88 158.1155,0 c 5.75,0 -1.34601,-3.67332 -2,-7.5 l 0,-72.5 c 0,-4 7.99887,-8.11642 2,-8 z m 143.9905,42.65625 c 0.0733,0.43671 0.125,0.88559 0.125,1.34375 0,0.45816 -0.0517,0.90704 -0.125,1.34375 z"
         id="path10163-24"
         sodipodi:nodetypes="ccscssccscc" />
    </mask>
    <linearGradient
       y2="208.90001"
       x2="-94.588242"
       y1="63.100014"
       x1="-158.11766"
       gradientTransform="matrix(0.94444445,0,0,0.49382716,369.33334,-227.1605)"
       gradientUnits="userSpaceOnUse"
       id="linearGradient6264"
       xlink:href="#linearGradient4233"
       inkscape:collect="always" />
    <linearGradient
       y2="208.90001"
       x2="-94.588242"
       y1="63.100014"
       x1="-158.11766"
       gradientTransform="matrix(0.94444445,0,0,0.49382716,369.33334,-227.1605)"
       gradientUnits="userSpaceOnUse"
       id="linearGradient6266"
       xlink:href="#linearGradient4233"
       inkscape:collect="always" />
    <radialGradient
       gradientUnits="userSpaceOnUse"
       gradientTransform="matrix(0.8568867,1.023978,-1.8222964,1.5249367,-660.91879,39.629912)"
       r="168.01449"
       fy="-374.62183"
       fx="152"
       cy="-374.62183"
       cx="152"
       id="radialGradient3809"
       xlink:href="#linearGradient3803"
       inkscape:collect="always" />
    <radialGradient
       r="168.01449"
       fy="-374.62183"
       fx="152"
       cy="-374.62183"
       cx="152"
       gradientTransform="matrix(0.8568867,1.023978,-1.8222964,1.5249367,-660.91879,487.62991)"
       gradientUnits="userSpaceOnUse"
       id="radialGradient3814"
       xlink:href="#linearGradient3803"
       inkscape:collect="always" />
  </defs>
  <sodipodi:namedview
     id="base"
     pagecolor="#ffffff"
     bordercolor="#666666"
     borderopacity="1.0"
     inkscape:pageopacity="0.0"
     inkscape:pageshadow="2"
     inkscape:zoom="11.313709"
     inkscape:cx="7.6360116"
     inkscape:cy="43.101448"
     inkscape:current-layer="layer1"
     showgrid="true"
     inkscape:document-units="px"
     inkscape:grid-bbox="true"
     showguides="true"
     inkscape:guide-bbox="true"
     inkscape:window-width="1920"
     inkscape:window-height="1028"
     inkscape:window-x="2872"
     inkscape:window-y="532"
     inkscape:window-maximized="1"
     inkscape:snap-bbox="true"
     inkscape:bbox-nodes="true">
    <inkscape:grid
       type="xygrid"
       id="grid3011"
       empspacing="4"
       visible="true"
       enabled="true"
       snapvisiblegridlinesonly="true" />
    <sodipodi:guide
       orientation="1,0"
       position="8,176"
       id="guide3013" />
    <sodipodi:guide
       orientation="0,1"
       position="184,496"
       id="guide3015" />
    <sodipodi:guide
       orientation="0,1"
       position="40,8"
       id="guide3017" />
    <sodipodi:guide
       orientation="1,0"
       position="496,248"
       id="guide3019" />
    <sodipodi:guide
       orientation="1,0"
       position="56,96"
       id="guide3104" />
    <sodipodi:guide
       orientation="0,1"
       position="64,56"
       id="guide3106" />
    <sodipodi:guide
       orientation="1,0"
       position="24,31"
       id="guide3176" />
    <sodipodi:guide
       orientation="0,1"
       position="-5,28"
       id="guide3178" />
    <sodipodi:guide
       orientation="0,1"
       position="21,28.2"
       id="guide8535" />
    <sodipodi:guide
       orientation="0,1"
       position="21,35.2"
       id="guide8537" />
    <sodipodi:guide
       orientation="0,1"
       position="22,35.8"
       id="guide8539" />
    <sodipodi:guide
       orientation="1,0"
       position="37.6,40"
       id="guide10543" />
  </sodipodi:namedview>
  <metadata
     id="metadata3008">
    <rdf:RDF>
      <cc:Work
         rdf:about="">
        <dc:format>image/svg+xml</dc:format>
        <dc:type
           rdf:resource="http://purl.org/dc/dcmitype/StillImage" />
        <dc:title />
      </cc:Work>
    </rdf:RDF>
  </metadata>
  <g
     id="layer1"
     inkscape:label="Layer 1"
     inkscape:groupmode="layer">
    <path
       style="fill:#808080;fill-opacity:1;fill-rule:nonzero;stroke:none"
       d="m 14,8 36,0 0,48 -36,0 z"
       id="rect3021"
       inkscape:connector-curvature="0"
       sodipodi:nodetypes="ccccc" />
    <path
       style="fill:#cccccc;fill-opacity:1;fill-rule:nonzero;stroke:none"
       d="m 15,37 34,0 0,18 -34,0 z"
       id="rect3791-9"
       inkscape:connector-curvature="0"
       sodipodi:nodetypes="ccccc" />
    <path
       sodipodi:nodetypes="ccccc"
       inkscape:connector-curvature="0"
       id="path6305"
       d="m 15,9.0220971 34,0 L 49,36 15,36 Z"
       style="fill:#cccccc;fill-opacity:1;fill-rule:nonzero;stroke:none" />
    <path
       style="fill:#f9f9f9;fill-opacity:1;fill-rule:nonzero;stroke:none"
       d="m 16,10 32,0 0,25 -32,0 z"
       id="path3461"
       inkscape:connector-curvature="0"
       sodipodi:nodetypes="ccccc" />
    <text
       xml:space="preserve"
       style="font-style:normal;font-variant:normal;font-weight:normal;font-stretch:normal;font-size:11.8290329px;line-height:125%;font-family:'MV Boli';-inkscape-font-specification:'MV Boli';letter-spacing:0px;word-spacing:0px;fill:#000000;fill-opacity:1;stroke:none"
       x="22.830767"
       y="50.207741"
       id="text4285"
       sodipodi:linespacing="125%"><tspan
         sodipodi:role="line"
         id="tspan4287"
         x="22.830767"
         y="50.207741">xeb</tspan></text>
    <path
       id="path4093-0"
       sodipodi:nodetypes="ccccccc"
       style="fill:#ffffff;stroke:#333333;stroke-width:1;stroke-opacity:1;stroke-miterlimit:4;stroke-dasharray:none"
       inkscape:connector-curvature="0"
       d="m 19.291057,14.54207 c 4.621434,0 9.242759,-3.466076 12.708943,0 3.466075,-3.466076 8.087401,0 12.708943,0 l 0,17.330377 c -4.621433,0 -9.242758,-3.466075 -12.708943,0 -3.466076,-3.466075 -8.087401,0 -12.708943,0 z" />
    <g
       transform="matrix(0.02549849,0,0,0.02560172,23.612081,8.0158969)"
       id="layer1-4"
       inkscape:label="Layer 1">
      <path
         sodipodi:nodetypes="cscssscssscscscssscccccsss"
         style="fill:#0054a5"
         d="m 94.914463,800.60604 c -0.695764,-0.69566 -1.265026,-58.72449 -1.265026,-128.9527 l 0,-127.68778 48.731873,-48.46698 c 26.80252,-26.65685 49.42465,-48.467 50.27139,-48.467 0.84674,0 1.75901,57.42423 2.02726,127.60943 l 0.48775,127.6094 127.60941,0.48776 c 70.18518,0.26824 127.60943,1.12842 127.60943,1.91148 0,0.78306 -21.56694,22.9782 -47.92653,49.32271 l -47.92652,47.89871 -129.17701,0 c -71.04735,0 -129.746264,-0.56916 -130.442027,-1.26503 z M 463.20828,562.30701 462.72054,434.69758 335.11111,434.20985 c -70.18517,-0.26827 -127.6094,-1.1283 -127.6094,-1.91122 0,-0.78294 21.99978,-23.41108 48.88842,-50.28479 l 48.88845,-48.86133 129.00571,0.48777 129.00576,0.4878 0.48775,128.93521 0.48775,128.93522 -48.82641,48.95894 c -26.85452,26.92743 -49.48268,48.95897 -50.28477,48.95897 -0.80211,0 -1.67783,-57.42423 -1.94609,-127.60941 z"
         id="path3371"
         inkscape:connector-curvature="0" />
    </g>
  </g>
  <g
     inkscape:groupmode="layer"
     id="layer2"
     inkscape:label="belt"
     sodipodi:insensitive="true" />
</svg>
