<?xml version="1.0" encoding="UTF-8" standalone="no"?>
<!-- Created with Inkscape (http://www.inkscape.org/) -->

<svg
   xmlns:dc="http://purl.org/dc/elements/1.1/"
   xmlns:cc="http://creativecommons.org/ns#"
   xmlns:rdf="http://www.w3.org/1999/02/22-rdf-syntax-ns#"
   xmlns:svg="http://www.w3.org/2000/svg"
   xmlns="http://www.w3.org/2000/svg"
   xmlns:xlink="http://www.w3.org/1999/xlink"
   xmlns:sodipodi="http://sodipodi.sourceforge.net/DTD/sodipodi-0.dtd"
   xmlns:inkscape="http://www.inkscape.org/namespaces/inkscape"
   width="512"
   height="512"
   id="svg3003"
   version="1.1"
   inkscape:version="0.91 r13725"
   sodipodi:docname="ebook-xeb-512.svg"
   inkscape:export-filename="C:\wamp\www\TESTY\git-hub\system-icons\file-types\ebook-xeb\ebook-xeb-512.png"
   inkscape:export-xdpi="90"
   inkscape:export-ydpi="90">
  <defs
     id="defs3005">
    <linearGradient
       inkscape:collect="always"
       id="linearGradient3803">
      <stop
         style="stop-color:#ffffff;stop-opacity:1;"
         offset="0"
         id="stop3805" />
      <stop
         style="stop-color:#ffffff;stop-opacity:0"
         offset="1"
         id="stop3807" />
    </linearGradient>
    <linearGradient
       id="linearGradient4277">
      <stop
         style="stop-color:#4a4aff;stop-opacity:1;"
         offset="0"
         id="stop4279" />
      <stop
         style="stop-color:#0000d7;stop-opacity:1;"
         offset="1"
         id="stop4281" />
    </linearGradient>
    <linearGradient
       inkscape:collect="always"
       id="linearGradient4233">
      <stop
         style="stop-color:#0000ff;stop-opacity:1;"
         offset="0"
         id="stop4235" />
      <stop
         style="stop-color:#0000ff;stop-opacity:0;"
         offset="1"
         id="stop4237" />
    </linearGradient>
    <linearGradient
       id="linearGradient7905">
      <stop
         style="stop-color:#d4d4d4;stop-opacity:1;"
         offset="0"
         id="stop7907" />
      <stop
         style="stop-color:#ffffff;stop-opacity:1;"
         offset="1"
         id="stop7909" />
    </linearGradient>
    <linearGradient
       id="linearGradient4084">
      <stop
         id="stop4086"
         offset="0"
         style="stop-color:#8b4513;stop-opacity:1;" />
      <stop
         id="stop4088"
         offset="1"
         style="stop-color:#5a3920;stop-opacity:1;" />
    </linearGradient>
    <linearGradient
       id="linearGradient4066">
      <stop
         style="stop-color:#7f4124;stop-opacity:1;"
         offset="0"
         id="stop4068" />
      <stop
         style="stop-color:#8b4513;stop-opacity:1;"
         offset="1"
         id="stop4070" />
    </linearGradient>
    <clipPath
       id="clipPath3008"
       clipPathUnits="userSpaceOnUse">
      <path
         id="path3010"
         d="M 0,4105.95 0,0 l 5477.71,0 0,4105.95 -5477.71,0 z" />
    </clipPath>
    <mask
       maskUnits="userSpaceOnUse"
       id="mask6083">
      <path
         inkscape:connector-curvature="0"
         id="path6085"
         d="m -346,-240 c -6,0 2,4 2,8 l 0,72.5 c -0.65399,3.82668 -7.75,7.5 -2,7.5 l 290,0 c 16,0 35.47187,-9.634 44,-24 6.12557,-10.31879 5.77451,-25.48073 0,-36 -8.3656,-15.23939 -28,-28 -44,-28 l -290,0 z m 22,36 20,0 c 4.432,0 8,3.568 8,8 0,4.432 -3.568,8 -8,8 l -20,0 c -4.432,0 -8,-3.568 -8,-8 0,-4.432 3.568,-8 8,-8 z m 68,0 20,0 c 4.432,0 8,3.568 8,8 0,4.432 -3.568,8 -8,8 l -20,0 c -4.432,0 -8,-3.568 -8,-8 0,-4.432 3.568,-8 8,-8 z m 68,0 20,0 c 4.432,0 8,3.568 8,8 0,4.432 -3.568,8 -8,8 l -20,0 c -4.432,0 -8,-3.568 -8,-8 0,-4.432 3.568,-8 8,-8 z"
         style="fill:#ffffff;fill-opacity:1;fill-rule:nonzero;stroke:none" />
    </mask>
    <mask
       maskUnits="userSpaceOnUse"
       id="mask6565">
      <path
         inkscape:connector-curvature="0"
         id="path6567"
         d="m -346,-310.64283 c -6,0 2,4 2,8 l 0,72.5 c -0.65399,3.82669 -7.75,7.5 -2,7.5 l 290,0 c 16,0 35.47187,-9.634 44,-24 6.12557,-10.31878 5.77451,-25.48072 0,-36 -8.3656,-15.23939 -28,-28 -44,-28 l -290,0 z m 22,36 20,0 c 4.432,0 8,3.56801 8,8 0,4.43201 -3.568,8 -8,8 l -20,0 c -4.432,0 -8,-3.56799 -8,-8 0,-4.43199 3.568,-8 8,-8 z m 68,0 20,0 c 4.432,0 8,3.56801 8,8 0,4.43201 -3.568,8 -8,8 l -20,0 c -4.432,0 -8,-3.56799 -8,-8 0,-4.43199 3.568,-8 8,-8 z m 68,0 20,0 c 4.432,0 8,3.56801 8,8 0,4.43201 -3.568,8 -8,8 l -20,0 c -4.432,0 -8,-3.56799 -8,-8 0,-4.43199 3.568,-8 8,-8 z"
         style="fill:#ffffff;fill-opacity:1;fill-rule:nonzero;stroke:none" />
    </mask>
    <mask
       maskUnits="userSpaceOnUse"
       id="mask10155">
      <path
         sodipodi:nodetypes="ccscssccscc"
         id="path10157"
         d="m 292,-396 0,88 158.1155,0 c 5.75,0 -1.34601,-3.67332 -2,-7.5 l 0,-72.5 c 0,-4 7.99887,-8.11642 2,-8 z m 143.9905,42.65625 c 0.0733,0.43671 0.125,0.88559 0.125,1.34375 0,0.45816 -0.0517,0.90704 -0.125,1.34375 z"
         style="fill:#ffffff;fill-opacity:1;fill-rule:nonzero;stroke:none"
         inkscape:connector-curvature="0" />
    </mask>
    <mask
       maskUnits="userSpaceOnUse"
       id="mask10161">
      <path
         sodipodi:nodetypes="ccscssccscc"
         id="path10163"
         d="m 292,-356 0,88 158.1155,0 c 5.75,0 -1.34601,-3.67332 -2,-7.5 l 0,-72.5 c 0,-4 7.99887,-8.11642 2,-8 z m 143.9905,42.65625 c 0.0733,0.43671 0.125,0.88559 0.125,1.34375 0,0.45816 -0.0517,0.90704 -0.125,1.34375 z"
         style="fill:#ffffff;fill-opacity:1;fill-rule:nonzero;stroke:none"
         inkscape:connector-curvature="0" />
    </mask>
    <linearGradient
       inkscape:collect="always"
       xlink:href="#linearGradient4233"
       id="linearGradient4264"
       gradientUnits="userSpaceOnUse"
       gradientTransform="matrix(0.94444445,0,0,0.49382716,369.33334,-227.1605)"
       x1="-158.11766"
       y1="63.100014"
       x2="-94.588242"
       y2="208.90001" />
    <linearGradient
       inkscape:collect="always"
       xlink:href="#linearGradient4233"
       id="linearGradient4271"
       gradientUnits="userSpaceOnUse"
       gradientTransform="matrix(0.94444445,0,0,0.49382716,369.33334,-227.1605)"
       x1="-158.11766"
       y1="63.100014"
       x2="-94.588242"
       y2="208.90001" />
    <radialGradient
       inkscape:collect="always"
       xlink:href="#linearGradient3803"
       id="radialGradient3809"
       cx="152"
       cy="-374.62183"
       fx="152"
       fy="-374.62183"
       r="168.01449"
       gradientTransform="matrix(0.8568867,1.023978,-1.8222964,1.5249367,-660.91879,39.629912)"
       gradientUnits="userSpaceOnUse" />
    <radialGradient
       inkscape:collect="always"
       xlink:href="#linearGradient3803"
       id="radialGradient3814"
       gradientUnits="userSpaceOnUse"
       gradientTransform="matrix(0.8568867,1.023978,-1.8222964,1.5249367,-660.91879,487.62991)"
       cx="152"
       cy="-374.62183"
       fx="152"
       fy="-374.62183"
       r="168.01449" />
  </defs>
  <sodipodi:namedview
     id="base"
     pagecolor="#ffffff"
     bordercolor="#666666"
     borderopacity="1.0"
     inkscape:pageopacity="0.0"
     inkscape:pageshadow="2"
     inkscape:zoom="1.4142136"
     inkscape:cx="-89.099524"
     inkscape:cy="287.70317"
     inkscape:current-layer="layer1"
     showgrid="true"
     inkscape:document-units="px"
     inkscape:grid-bbox="true"
     showguides="true"
     inkscape:guide-bbox="true"
     inkscape:window-width="1920"
     inkscape:window-height="1028"
     inkscape:window-x="2872"
     inkscape:window-y="532"
     inkscape:window-maximized="1"
     inkscape:snap-bbox="true"
     inkscape:bbox-nodes="true"
     inkscape:object-paths="true"
     inkscape:object-nodes="true">
    <inkscape:grid
       type="xygrid"
       id="grid3011"
       empspacing="4"
       visible="true"
       enabled="true"
       snapvisiblegridlinesonly="true" />
    <sodipodi:guide
       orientation="1,0"
       position="16,376"
       id="guide3013" />
    <sodipodi:guide
       orientation="0,1"
       position="184,496"
       id="guide3015" />
    <sodipodi:guide
       orientation="0,1"
       position="336,16"
       id="guide3017" />
    <sodipodi:guide
       orientation="1,0"
       position="496,248"
       id="guide3019" />
    <sodipodi:guide
       orientation="1,0"
       position="280,312"
       id="guide3104" />
    <sodipodi:guide
       orientation="0,1"
       position="488,144"
       id="guide3106" />
    <sodipodi:guide
       orientation="1,0"
       position="268,328"
       id="guide9774" />
    <sodipodi:guide
       orientation="1,0"
       position="220,48"
       id="guide10416" />
  </sodipodi:namedview>
  <metadata
     id="metadata3008">
    <rdf:RDF>
      <cc:Work
         rdf:about="">
        <dc:format>image/svg+xml</dc:format>
        <dc:type
           rdf:resource="http://purl.org/dc/dcmitype/StillImage" />
        <dc:title />
      </cc:Work>
    </rdf:RDF>
  </metadata>
  <g
     id="layer1"
     inkscape:label="Layer 1"
     inkscape:groupmode="layer"
     transform="translate(0,448)">
    <path
       style="fill:#808080;fill-opacity:1;fill-rule:nonzero;stroke:none"
       d="m 82,-434 348,0 0,482 -348,0 z"
       id="rect3021"
       inkscape:connector-curvature="0"
       sodipodi:nodetypes="ccccc" />
    <path
       style="fill:#cccccc;fill-opacity:1;fill-rule:nonzero;stroke:none"
       d="m 84,-82 344,0 0,128 -344,0 z"
       id="rect3791"
       inkscape:connector-curvature="0"
       sodipodi:nodetypes="ccccc" />
    <path
       sodipodi:nodetypes="ccccc"
       inkscape:connector-curvature="0"
       id="path3457"
       d="m 84.152843,-432 343.808387,0 0,348 -343.808387,0 z"
       style="fill:#cccccc;fill-opacity:1;fill-rule:nonzero;stroke:none" />
    <path
       style="fill:#f9f9f9;fill-opacity:1;fill-rule:nonzero;stroke:none"
       d="M 87.971025,-428 424,-428 l 0,340 -336.028975,0 z"
       id="path3461"
       inkscape:connector-curvature="0"
       sodipodi:nodetypes="ccccc" />
    <text
       xml:space="preserve"
       style="font-style:normal;font-variant:normal;font-weight:normal;font-stretch:normal;font-size:99.20789337px;line-height:125%;font-family:'MV Boli';-inkscape-font-specification:'MV Boli';letter-spacing:0px;word-spacing:0px;fill:#000000;fill-opacity:1;stroke:none"
       x="179.09935"
       y="17.289526"
       id="text4285"
       sodipodi:linespacing="125%"><tspan
         sodipodi:role="line"
         id="tspan4287"
         x="179.09935"
         y="17.289526">xeb</tspan></text>
    <path
       id="path4093-0"
       sodipodi:nodetypes="ccccccc"
       style="fill:#ffffff;stroke:#333333;stroke-width:6.62778997;stroke-opacity:1"
       inkscape:connector-curvature="0"
       d="m 111.28492,-348.60683 c 52.6184,0 105.23556,-39.4638 144.70059,0 39.4638,-39.4638 92.08096,0 144.7006,0 l 0,197.31899 c -52.6184,0 -105.23556,-39.4638 -144.7006,0 -39.4638,-39.4638 -92.08096,0 -144.70059,0 z" />
    <path
       inkscape:connector-curvature="0"
       id="path3371"
       d="m 181.38871,-183.40477 c -0.22175,-0.22264 -0.40319,-18.79312 -0.40319,-41.26766 l 0,-40.86285 15.53237,-15.51048 c 8.54278,-8.53078 15.75318,-15.51051 16.02306,-15.51051 0.26988,0 0.56065,18.37701 0.64616,40.83779 l 0.1554,40.83778 40.67309,0.15603 c 22.37021,0.0858 40.67313,0.36111 40.67313,0.61171 0,0.2506 -6.87407,7.35353 -15.2757,15.78434 l -15.27568,15.32863 -41.17274,0 c -22.64503,0 -41.3542,-0.18215 -41.57596,-0.40485 z m 117.38676,-76.26085 -0.15541,-40.8378 -40.67311,-0.15602 c -22.37021,-0.0858 -40.67311,-0.36108 -40.67311,-0.61163 0,-0.25056 7.01202,-7.49206 15.58226,-16.09223 l 15.58228,-15.63669 41.11816,0.15604 41.11817,0.15603 0.1554,41.26206 0.1554,41.26208 -15.56249,15.66792 c -8.55938,8.61737 -15.77168,15.66792 -16.02734,15.66792 -0.25565,0 -0.53477,-18.37699 -0.62028,-40.83776 z"
       style="fill:#0054a5"
       sodipodi:nodetypes="cscssscssscscscssscccccsss" />
  </g>
</svg>
