<?xml version="1.0" encoding="UTF-8" standalone="no"?>
<!-- Created with Inkscape (http://www.inkscape.org/) -->

<svg
   xmlns:dc="http://purl.org/dc/elements/1.1/"
   xmlns:cc="http://creativecommons.org/ns#"
   xmlns:rdf="http://www.w3.org/1999/02/22-rdf-syntax-ns#"
   xmlns:svg="http://www.w3.org/2000/svg"
   xmlns="http://www.w3.org/2000/svg"
   xmlns:xlink="http://www.w3.org/1999/xlink"
   xmlns:sodipodi="http://sodipodi.sourceforge.net/DTD/sodipodi-0.dtd"
   xmlns:inkscape="http://www.inkscape.org/namespaces/inkscape"
   width="64"
   height="64"
   id="svg3003"
   version="1.1"
   inkscape:version="0.91 r13725"
   sodipodi:docname="app-extension-crx-64.svg"
   inkscape:export-filename="C:\wamp\www\TESTY\git-hub\system-icons\file-types\app-extension-crx\app-extension-crx-64.png"
   inkscape:export-xdpi="90"
   inkscape:export-ydpi="90">
  <defs
     id="defs3005">
    <clipPath
       id="clipPath3008"
       clipPathUnits="userSpaceOnUse">
      <path
         id="path3010"
         d="M 0,4105.95 0,0 l 5477.71,0 0,4105.95 -5477.71,0 z"
         inkscape:connector-curvature="0" />
    </clipPath>
    <linearGradient
       gradientUnits="userSpaceOnUse"
       y2="363.73334"
       x2="211.73334"
       y1="500.26666"
       x1="442.13333"
       id="linearGradient4091"
       xlink:href="#linearGradient4085"
       inkscape:collect="always" />
    <clipPath
       clipPathUnits="userSpaceOnUse"
       id="clipPath3008-4">
      <path
         d="M 0,4105.95 0,0 l 5477.71,0 0,4105.95 -5477.71,0 z"
         id="path3010-0" />
    </clipPath>
    <linearGradient
       id="linearGradient4085">
      <stop
         id="stop4087"
         offset="0"
         style="stop-color:#000000;stop-opacity:1;" />
      <stop
         id="stop4089"
         offset="1"
         style="stop-color:#4f4f4f;stop-opacity:1;" />
    </linearGradient>
    <mask
       maskUnits="userSpaceOnUse"
       id="mask3328">
      <path
         style="fill:#fefefe;fill-opacity:1;fill-rule:nonzero;stroke:none"
         d="M 5,9 59,9 59,55 5,55 z"
         id="path3330"
         inkscape:connector-curvature="0"
         sodipodi:nodetypes="ccccc" />
    </mask>
    <clipPath
       id="clipPath3008-40"
       clipPathUnits="userSpaceOnUse">
      <path
         id="path3010-9"
         d="M 0,4105.95 0,0 l 5477.71,0 0,4105.95 -5477.71,0 z" />
    </clipPath>
    <clipPath
       clipPathUnits="userSpaceOnUse"
       id="clipPath3008-4-2">
      <path
         d="M 0,4105.95 0,0 l 5477.71,0 0,4105.95 -5477.71,0 z"
         id="path3010-0-4" />
    </clipPath>
    <mask
       maskUnits="userSpaceOnUse"
       id="mask3000">
      <path
         sodipodi:nodetypes="ccccc"
         inkscape:connector-curvature="0"
         id="path3002"
         d="m 18,-430 476,0 0,476 -476,0 z"
         style="fill:#ffffff;fill-opacity:1;fill-rule:nonzero;stroke:none" />
    </mask>
    <mask
       id="mask4109"
       maskUnits="userSpaceOnUse">
      <rect
         y="-391.63632"
         x="36"
         height="344"
         width="439.68582"
         id="rect4111"
         style="fill:#ffffff;fill-opacity:1;fill-rule:nonzero;stroke:none" />
    </mask>
    <clipPath
       clipPathUnits="userSpaceOnUse"
       id="clipPath3008-48">
      <path
         d="M 0,4105.95 0,0 l 5477.71,0 0,4105.95 -5477.71,0 z"
         id="path3010-8" />
    </clipPath>
    <linearGradient
       id="linearGradient4085-4">
      <stop
         id="stop4087-0"
         offset="0"
         style="stop-color:#000000;stop-opacity:1;" />
      <stop
         id="stop4089-9"
         offset="1"
         style="stop-color:#4f4f4f;stop-opacity:1;" />
    </linearGradient>
    <linearGradient
       id="linearGradient3865">
      <stop
         id="stop3867"
         offset="0"
         style="stop-color:#0000a3;stop-opacity:1;" />
      <stop
         id="stop3869"
         offset="1"
         style="stop-color:#0000de;stop-opacity:1;" />
    </linearGradient>
    <linearGradient
       id="linearGradient3882">
      <stop
         id="stop3884"
         offset="0"
         style="stop-color:#ff0000;stop-opacity:1;" />
      <stop
         id="stop3886"
         offset="1"
         style="stop-color:#ff9090;stop-opacity:1;" />
    </linearGradient>
    <linearGradient
       id="linearGradient3890">
      <stop
         id="stop3892"
         offset="0"
         style="stop-color:#483737;stop-opacity:1;" />
      <stop
         id="stop3894"
         offset="1"
         style="stop-color:#483737;stop-opacity:0;" />
    </linearGradient>
    <linearGradient
       id="linearGradient3900">
      <stop
         id="stop3902"
         offset="0"
         style="stop-color:#0000ff;stop-opacity:1;" />
      <stop
         id="stop3904"
         offset="1"
         style="stop-color:#9090ff;stop-opacity:1;" />
    </linearGradient>
    <clipPath
       clipPathUnits="userSpaceOnUse"
       id="clipPath3008-3">
      <path
         d="M 0,4105.95 0,0 l 5477.71,0 0,4105.95 -5477.71,0 z"
         id="path3010-3" />
    </clipPath>
    <mask
       id="mask4109-3"
       maskUnits="userSpaceOnUse">
      <rect
         y="-391.63632"
         x="36"
         height="344"
         width="439.68582"
         id="rect4111-0"
         style="fill:#ffffff;fill-opacity:1;fill-rule:nonzero;stroke:none" />
    </mask>
    <mask
       maskUnits="userSpaceOnUse"
       id="mask3000-6">
      <path
         sodipodi:nodetypes="ccccc"
         inkscape:connector-curvature="0"
         id="path3002-1"
         d="m 18,-430 476,0 0,476 -476,0 z"
         style="fill:#ffffff;fill-opacity:1;fill-rule:nonzero;stroke:none" />
    </mask>
    <clipPath
       clipPathUnits="userSpaceOnUse"
       id="clipPath3008-4-5">
      <path
         d="M 0,4105.95 0,0 l 5477.71,0 0,4105.95 -5477.71,0 z"
         id="path3010-0-7" />
    </clipPath>
    <clipPath
       id="clipPath3008-40-9"
       clipPathUnits="userSpaceOnUse">
      <path
         id="path3010-9-7"
         d="M 0,4105.95 0,0 l 5477.71,0 0,4105.95 -5477.71,0 z" />
    </clipPath>
    <clipPath
       clipPathUnits="userSpaceOnUse"
       id="clipPath3008-54">
      <path
         d="M 0,4105.95 0,0 l 5477.71,0 0,4105.95 -5477.71,0 z"
         id="path3010-00" />
    </clipPath>
    <mask
       id="mask4109-8"
       maskUnits="userSpaceOnUse">
      <rect
         y="-391.63632"
         x="36"
         height="344"
         width="439.68582"
         id="rect4111-2"
         style="fill:#ffffff;fill-opacity:1;fill-rule:nonzero;stroke:none" />
    </mask>
    <mask
       maskUnits="userSpaceOnUse"
       id="mask3000-7">
      <path
         sodipodi:nodetypes="ccccc"
         inkscape:connector-curvature="0"
         id="path3002-8"
         d="m 18,-430 476,0 0,476 -476,0 z"
         style="fill:#ffffff;fill-opacity:1;fill-rule:nonzero;stroke:none" />
    </mask>
    <clipPath
       clipPathUnits="userSpaceOnUse"
       id="clipPath3008-4-66">
      <path
         d="M 0,4105.95 0,0 l 5477.71,0 0,4105.95 -5477.71,0 z"
         id="path3010-0-0" />
    </clipPath>
    <clipPath
       id="clipPath3008-40-3"
       clipPathUnits="userSpaceOnUse">
      <path
         id="path3010-9-4"
         d="M 0,4105.95 0,0 l 5477.71,0 0,4105.95 -5477.71,0 z" />
    </clipPath>
    <radialGradient
       gradientUnits="userSpaceOnUse"
       r="78.326784"
       fy="19.524991"
       fx="106.73546"
       gradientTransform="matrix(0.66157277,0,0,0.43585656,334.05167,-96.758753)"
       cy="19.524991"
       cx="106.73546"
       id="r">
      <stop
         stop-color="#f06b59"
         id="stop6362" />
      <stop
         offset="1"
         stop-color="#df2227"
         id="stop6364" />
    </radialGradient>
    <radialGradient
       gradientUnits="userSpaceOnUse"
       fy="108.80645"
       fx="122.26707"
       gradientTransform="matrix(0.49852579,0,0,0.57840703,334.05167,-96.758753)"
       r="122.76932"
       cy="108.80645"
       cx="122.26707"
       id="g">
      <stop
         offset="0.65"
         stop-color="#4cb749"
         id="stop6367" />
      <stop
         offset="1"
         stop-color="#388b41"
         id="stop6369" />
    </radialGradient>
    <radialGradient
       gradientUnits="userSpaceOnUse"
       fy="102.2451"
       fx="187.90098"
       gradientTransform="matrix(0.46399086,0,0,0.62145798,334.05167,-96.758753)"
       r="111.5125"
       cy="102.2451"
       cx="187.90098"
       id="y">
      <stop
         offset="0.6"
         stop-color="#FCD209"
         id="stop6372" />
      <stop
         offset="0.7"
         stop-color="#f7c616"
         id="stop6374" />
      <stop
         offset="1"
         stop-color="#bc821e"
         id="stop6376" />
    </radialGradient>
    <radialGradient
       gradientTransform="matrix(0.53698308,0,0,0.53698308,334.05167,-96.758753)"
       gradientUnits="userSpaceOnUse"
       fy="78.099998"
       fx="127.5"
       r="99"
       cy="78.099998"
       cx="127.5"
       spreadMethod="pad"
       id="cf">
      <stop
         offset="0.1"
         stop-color="#7FB3DF"
         id="stop6379" />
      <stop
         offset="0.9"
         stop-color="#0F5B94"
         id="stop6381" />
    </radialGradient>
    <radialGradient
       gradientTransform="matrix(0.53698308,0,0,0.53698308,334.05167,-96.758753)"
       gradientUnits="userSpaceOnUse"
       fy="78.099998"
       fx="127.5"
       id="cb"
       r="99"
       cy="78.099998"
       cx="127.5">
      <stop
         offset="0"
         stop-color="#F6F0EE"
         id="stop6384" />
      <stop
         offset="1"
         stop-color="#ddd"
         id="stop6386" />
    </radialGradient>
    <linearGradient
       id="linearGradient4082">
      <stop
         style="stop-color:#0d89dd;stop-opacity:1;"
         offset="0"
         id="stop4084" />
      <stop
         style="stop-color:#103fa8;stop-opacity:1;"
         offset="1"
         id="stop4086" />
    </linearGradient>
    <linearGradient
       id="linearGradient4047">
      <stop
         style="stop-color:#94cd45;stop-opacity:1;"
         offset="0"
         id="stop4049" />
      <stop
         style="stop-color:#197c32;stop-opacity:1;"
         offset="1"
         id="stop4051" />
    </linearGradient>
    <clipPath
       id="clipPath3008-53"
       clipPathUnits="userSpaceOnUse">
      <path
         id="path3010-6"
         d="M 0,4105.95 0,0 l 5477.71,0 0,4105.95 -5477.71,0 z" />
    </clipPath>
    <linearGradient
       y2="-128"
       x2="320"
       y1="-288"
       x1="176"
       gradientUnits="userSpaceOnUse"
       id="linearGradient3836"
       xlink:href="#linearGradient3818"
       inkscape:collect="always" />
    <linearGradient
       y2="-192"
       x2="372"
       y1="-192"
       x1="140"
       gradientUnits="userSpaceOnUse"
       id="linearGradient3816"
       xlink:href="#linearGradient3810"
       inkscape:collect="always" />
    <linearGradient
       gradientUnits="userSpaceOnUse"
       y2="-192"
       x2="372"
       y1="-192"
       x1="140"
       id="linearGradient3794"
       xlink:href="#linearGradient3788"
       inkscape:collect="always" />
    <clipPath
       clipPathUnits="userSpaceOnUse"
       id="clipPath3008-4-6">
      <path
         d="M 0,4105.95 0,0 l 5477.71,0 0,4105.95 -5477.71,0 z"
         id="path3010-0-42" />
    </clipPath>
    <linearGradient
       id="linearGradient3788">
      <stop
         id="stop3790"
         offset="0"
         style="stop-color:#2d7abc;stop-opacity:1;" />
      <stop
         id="stop3792"
         offset="1"
         style="stop-color:#1a3d8a;stop-opacity:1;" />
    </linearGradient>
    <linearGradient
       id="linearGradient3810">
      <stop
         style="stop-color:#deedfb;stop-opacity:1;"
         offset="0"
         id="stop3812" />
      <stop
         style="stop-color:#b2c8ea;stop-opacity:1;"
         offset="1"
         id="stop3814" />
    </linearGradient>
    <linearGradient
       id="linearGradient3818">
      <stop
         id="stop3820"
         offset="0"
         style="stop-color:#f7b613;stop-opacity:1;" />
      <stop
         id="stop3822"
         offset="1"
         style="stop-color:#e88738;stop-opacity:1;" />
    </linearGradient>
    <linearGradient
       inkscape:collect="always"
       xlink:href="#linearGradient3818"
       id="linearGradient3259"
       gradientUnits="userSpaceOnUse"
       x1="176"
       y1="-288"
       x2="320"
       y2="-128"
       gradientTransform="matrix(0.92884356,0,0,0.92884356,-745.5298,-113.91618)" />
    <linearGradient
       inkscape:collect="always"
       xlink:href="#linearGradient4047"
       id="linearGradient4053"
       x1="-576"
       y1="-368"
       x2="-432"
       y2="-208"
       gradientUnits="userSpaceOnUse"
       gradientTransform="translate(0,2.9090909)" />
    <linearGradient
       inkscape:collect="always"
       xlink:href="#linearGradient3788"
       id="linearGradient4131"
       gradientUnits="userSpaceOnUse"
       gradientTransform="matrix(0.92884356,0,0,0.92884356,-745.5298,-113.91618)"
       x1="140"
       y1="-192"
       x2="372"
       y2="-192" />
    <linearGradient
       inkscape:collect="always"
       xlink:href="#linearGradient3810"
       id="linearGradient4133"
       gradientUnits="userSpaceOnUse"
       gradientTransform="matrix(0.92884356,0,0,0.92884356,-745.5298,-113.91618)"
       x1="165.29134"
       y1="-290.77429"
       x2="363.38715"
       y2="-84.065628" />
    <linearGradient
       y2="-192"
       x2="372"
       y1="-192"
       x1="140"
       gradientUnits="userSpaceOnUse"
       id="linearGradient3834"
       xlink:href="#linearGradient3810-4"
       inkscape:collect="always" />
    <linearGradient
       y2="-192"
       x2="372"
       y1="-192"
       x1="140"
       gradientUnits="userSpaceOnUse"
       id="linearGradient3832"
       xlink:href="#linearGradient3788-2"
       inkscape:collect="always" />
    <clipPath
       clipPathUnits="userSpaceOnUse"
       id="clipPath3008-5">
      <path
         d="M 0,4105.95 0,0 l 5477.71,0 0,4105.95 -5477.71,0 z"
         id="path3010-1" />
    </clipPath>
    <linearGradient
       id="linearGradient3788-2">
      <stop
         id="stop3790-4"
         offset="0"
         style="stop-color:#efc220;stop-opacity:1;" />
      <stop
         id="stop3792-5"
         offset="1"
         style="stop-color:#d77c02;stop-opacity:1;" />
    </linearGradient>
    <linearGradient
       id="linearGradient3810-4">
      <stop
         style="stop-color:#fff297;stop-opacity:1;"
         offset="0"
         id="stop3812-8" />
      <stop
         style="stop-color:#ffe550;stop-opacity:1;"
         offset="1"
         id="stop3814-8" />
    </linearGradient>
    <linearGradient
       y2="-84.065628"
       x2="363.38715"
       y1="-290.77429"
       x1="165.29134"
       gradientTransform="matrix(0.51617159,0,0,0.51617159,243.31432,79.298877)"
       gradientUnits="userSpaceOnUse"
       id="linearGradient4142"
       xlink:href="#linearGradient3810-8"
       inkscape:collect="always" />
    <linearGradient
       y2="-84.065628"
       x2="363.38715"
       y1="-290.77429"
       x1="165.29134"
       gradientTransform="matrix(0.92884356,0,0,0.92884356,-745.5298,-113.91618)"
       gradientUnits="userSpaceOnUse"
       id="linearGradient4133-2"
       xlink:href="#linearGradient3810-8"
       inkscape:collect="always" />
    <linearGradient
       y2="-192"
       x2="372"
       y1="-192"
       x1="140"
       gradientTransform="matrix(0.92884356,0,0,0.92884356,-745.5298,-113.91618)"
       gradientUnits="userSpaceOnUse"
       id="linearGradient4131-0"
       xlink:href="#linearGradient3788-1"
       inkscape:collect="always" />
    <linearGradient
       y2="-192"
       x2="372"
       y1="-192"
       x1="140"
       gradientUnits="userSpaceOnUse"
       id="linearGradient3253-3"
       xlink:href="#linearGradient3810-8"
       inkscape:collect="always" />
    <linearGradient
       y2="-192"
       x2="372"
       y1="-192"
       x1="140"
       gradientUnits="userSpaceOnUse"
       id="linearGradient3251-9"
       xlink:href="#linearGradient3788-1"
       inkscape:collect="always" />
    <linearGradient
       id="linearGradient3810-8">
      <stop
         id="stop3812-7"
         offset="0"
         style="stop-color:#ffffff;stop-opacity:1;" />
      <stop
         id="stop3814-4"
         offset="1"
         style="stop-color:#e2f1e2;stop-opacity:1;" />
    </linearGradient>
    <linearGradient
       id="linearGradient3788-1">
      <stop
         style="stop-color:#55a03c;stop-opacity:1;"
         offset="0"
         id="stop3790-1" />
      <stop
         style="stop-color:#005f31;stop-opacity:1;"
         offset="1"
         id="stop3792-3" />
    </linearGradient>
    <clipPath
       id="clipPath3008-4-3"
       clipPathUnits="userSpaceOnUse">
      <path
         id="path3010-0-4-2"
         d="M 0,4105.95 0,0 l 5477.71,0 0,4105.95 -5477.71,0 z" />
    </clipPath>
    <clipPath
       clipPathUnits="userSpaceOnUse"
       id="clipPath3008-7">
      <path
         d="M 0,4105.95 0,0 l 5477.71,0 0,4105.95 -5477.71,0 z"
         id="path3010-9-64" />
    </clipPath>
    <clipPath
       clipPathUnits="userSpaceOnUse"
       id="clipPath3008-40-0">
      <path
         d="M 0,4105.95 0,0 l 5477.71,0 0,4105.95 -5477.71,0 z"
         id="path3010-94" />
    </clipPath>
    <linearGradient
       gradientUnits="userSpaceOnUse"
       y2="40"
       x2="432"
       y1="-416"
       x1="80"
       id="linearGradient4186"
       xlink:href="#linearGradient3788-1"
       inkscape:collect="always" />
    <clipPath
       id="clipPath3008-7-4"
       clipPathUnits="userSpaceOnUse">
      <path
         id="path3010-9-6"
         d="M 0,4105.95 0,0 l 5477.71,0 0,4105.95 -5477.71,0 z" />
    </clipPath>
    <clipPath
       clipPathUnits="userSpaceOnUse"
       id="clipPath3008-4-3-1">
      <path
         d="M 0,4105.95 0,0 l 5477.71,0 0,4105.95 -5477.71,0 z"
         id="path3010-0-4-3" />
    </clipPath>
    <clipPath
       id="clipPath3008-5-2"
       clipPathUnits="userSpaceOnUse">
      <path
         id="path3010-1-3"
         d="M 0,4105.95 0,0 l 5477.71,0 0,4105.95 -5477.71,0 z" />
    </clipPath>
    <linearGradient
       y2="-192"
       x2="372"
       y1="-192"
       x1="140"
       gradientTransform="matrix(0.5196888,0,0,0.5196888,242.68276,79.825686)"
       gradientUnits="userSpaceOnUse"
       id="linearGradient3063"
       xlink:href="#linearGradient3788-1"
       inkscape:collect="always" />
    <linearGradient
       y2="-84.065628"
       x2="363.38715"
       y1="-290.77429"
       x1="165.29134"
       gradientTransform="matrix(0.5196888,0,0,0.5196888,242.68276,79.825686)"
       gradientUnits="userSpaceOnUse"
       id="linearGradient3060"
       xlink:href="#linearGradient3810-8"
       inkscape:collect="always" />
    <clipPath
       id="clipPath3008-4-1"
       clipPathUnits="userSpaceOnUse">
      <path
         id="path3010-0-7-9"
         d="M 0,4105.95 0,0 l 5477.71,0 0,4105.95 -5477.71,0 z" />
    </clipPath>
    <clipPath
       clipPathUnits="userSpaceOnUse"
       id="clipPath3008-48-4">
      <path
         d="M 0,4105.95 0,0 l 5477.71,0 0,4105.95 -5477.71,0 z"
         id="path3010-8-6" />
    </clipPath>
    <linearGradient
       inkscape:collect="always"
       xlink:href="#linearGradient3810-8"
       id="linearGradient3565"
       gradientUnits="userSpaceOnUse"
       gradientTransform="matrix(0.5196888,0,0,0.5196888,-213.31724,119.82569)"
       x1="165.29134"
       y1="-290.77429"
       x2="363.38715"
       y2="-84.065628" />
    <linearGradient
       inkscape:collect="always"
       xlink:href="#linearGradient3788-1"
       id="linearGradient3568"
       gradientUnits="userSpaceOnUse"
       gradientTransform="matrix(0.5196888,0,0,0.5196888,-213.31724,119.82569)"
       x1="140"
       y1="-192"
       x2="372"
       y2="-192" />
    <linearGradient
       inkscape:collect="always"
       xlink:href="#linearGradient3788-1"
       id="linearGradient3590"
       gradientUnits="userSpaceOnUse"
       x1="80"
       y1="-416"
       x2="432"
       y2="40"
       gradientTransform="translate(-456,40)" />
    <linearGradient
       inkscape:collect="always"
       xlink:href="#linearGradient4082"
       id="linearGradient4088"
       x1="377.89744"
       y1="-16.760112"
       x2="486.28892"
       y2="-16.760112"
       gradientUnits="userSpaceOnUse" />
    <linearGradient
       y2="-147.82209"
       x2="325.08532"
       y1="-147.82209"
       x1="120.71496"
       gradientTransform="matrix(1.0370322,0,0,1.0370322,36.56308,-6.2040901)"
       gradientUnits="userSpaceOnUse"
       id="linearGradient3998"
       xlink:href="#linearGradient3985"
       inkscape:collect="always" />
    <linearGradient
       y2="-16.760112"
       x2="486.28892"
       y1="-16.760112"
       x1="377.89744"
       gradientTransform="matrix(2.8068047,0,0,3.5374666,-942.87164,-91.384336)"
       gradientUnits="userSpaceOnUse"
       id="linearGradient3181"
       xlink:href="#linearGradient4082"
       inkscape:collect="always" />
    <clipPath
       id="clipPath3008-48-8"
       clipPathUnits="userSpaceOnUse">
      <path
         id="path3010-8-0"
         d="M 0,4105.95 0,0 l 5477.71,0 0,4105.95 -5477.71,0 z" />
    </clipPath>
    <clipPath
       clipPathUnits="userSpaceOnUse"
       id="clipPath3008-4-1-4">
      <path
         d="M 0,4105.95 0,0 l 5477.71,0 0,4105.95 -5477.71,0 z"
         id="path3010-0-7-1" />
    </clipPath>
    <clipPath
       clipPathUnits="userSpaceOnUse"
       id="clipPath3008-5-2-8">
      <path
         d="M 0,4105.95 0,0 l 5477.71,0 0,4105.95 -5477.71,0 z"
         id="path3010-1-3-2" />
    </clipPath>
    <clipPath
       id="clipPath3008-4-3-1-0"
       clipPathUnits="userSpaceOnUse">
      <path
         id="path3010-0-4-3-9"
         d="M 0,4105.95 0,0 l 5477.71,0 0,4105.95 -5477.71,0 z" />
    </clipPath>
    <clipPath
       clipPathUnits="userSpaceOnUse"
       id="clipPath3008-7-4-3">
      <path
         d="M 0,4105.95 0,0 l 5477.71,0 0,4105.95 -5477.71,0 z"
         id="path3010-9-6-6" />
    </clipPath>
    <clipPath
       id="clipPath3008-40-9-9"
       clipPathUnits="userSpaceOnUse">
      <path
         id="path3010-94-8"
         d="M 0,4105.95 0,0 l 5477.71,0 0,4105.95 -5477.71,0 z" />
    </clipPath>
    <clipPath
       id="clipPath3008-7-2"
       clipPathUnits="userSpaceOnUse">
      <path
         id="path3010-9-9"
         d="M 0,4105.95 0,0 l 5477.71,0 0,4105.95 -5477.71,0 z" />
    </clipPath>
    <clipPath
       clipPathUnits="userSpaceOnUse"
       id="clipPath3008-4-3-9">
      <path
         d="M 0,4105.95 0,0 l 5477.71,0 0,4105.95 -5477.71,0 z"
         id="path3010-0-4-6" />
    </clipPath>
    <clipPath
       id="clipPath3008-5-27"
       clipPathUnits="userSpaceOnUse">
      <path
         id="path3010-1-7"
         d="M 0,4105.95 0,0 l 5477.71,0 0,4105.95 -5477.71,0 z" />
    </clipPath>
    <linearGradient
       y2="-84.065628"
       x2="363.38715"
       y1="-290.77429"
       x1="165.29134"
       gradientTransform="matrix(0.92884356,0,0,0.92884356,-745.5298,-113.91618)"
       gradientUnits="userSpaceOnUse"
       id="linearGradient4133-3"
       xlink:href="#linearGradient3810-6"
       inkscape:collect="always" />
    <linearGradient
       y2="-192"
       x2="372"
       y1="-192"
       x1="140"
       gradientTransform="matrix(0.92884356,0,0,0.92884356,-745.5298,-113.91618)"
       gradientUnits="userSpaceOnUse"
       id="linearGradient4131-2"
       xlink:href="#linearGradient3788-3"
       inkscape:collect="always" />
    <linearGradient
       y2="-192"
       x2="372"
       y1="-192"
       x1="140"
       gradientUnits="userSpaceOnUse"
       id="linearGradient3253-7"
       xlink:href="#linearGradient3810-6"
       inkscape:collect="always" />
    <linearGradient
       y2="-192"
       x2="372"
       y1="-192"
       x1="140"
       gradientUnits="userSpaceOnUse"
       id="linearGradient3251-92"
       xlink:href="#linearGradient3788-3"
       inkscape:collect="always" />
    <linearGradient
       id="linearGradient3810-6">
      <stop
         id="stop3812-85"
         offset="0"
         style="stop-color:#fae5bf;stop-opacity:1;" />
      <stop
         id="stop3814-7"
         offset="1"
         style="stop-color:#fec39f;stop-opacity:1;" />
    </linearGradient>
    <linearGradient
       id="linearGradient3788-3">
      <stop
         style="stop-color:#f17f2d;stop-opacity:1;"
         offset="0"
         id="stop3790-2" />
      <stop
         style="stop-color:#d60e00;stop-opacity:1;"
         offset="1"
         id="stop3792-21" />
    </linearGradient>
    <clipPath
       id="clipPath3008-4-14"
       clipPathUnits="userSpaceOnUse">
      <path
         id="path3010-0-2"
         d="M 0,4105.95 0,0 l 5477.71,0 0,4105.95 -5477.71,0 z" />
    </clipPath>
    <clipPath
       clipPathUnits="userSpaceOnUse"
       id="clipPath3008-55">
      <path
         d="M 0,4105.95 0,0 l 5477.71,0 0,4105.95 -5477.71,0 z"
         id="path3010-17" />
    </clipPath>
    <linearGradient
       id="linearGradient3985">
      <stop
         id="stop3987"
         offset="0"
         style="stop-color:#ee721e;stop-opacity:1;" />
      <stop
         id="stop3989"
         offset="1"
         style="stop-color:#ca2809;stop-opacity:1;" />
    </linearGradient>
    <clipPath
       clipPathUnits="userSpaceOnUse"
       id="clipPath3008-9">
      <path
         inkscape:connector-curvature="0"
         d="M 0,4105.95 0,0 l 5477.71,0 0,4105.95 -5477.71,0 z"
         id="path3010-37" />
    </clipPath>
    <clipPath
       clipPathUnits="userSpaceOnUse"
       id="clipPath3008-4-7">
      <path
         d="M 0,4105.95 0,0 l 5477.71,0 0,4105.95 -5477.71,0 z"
         id="path3010-0-22" />
    </clipPath>
    <linearGradient
       gradientUnits="userSpaceOnUse"
       y2="-192"
       x2="372"
       y1="-192"
       x1="140"
       id="linearGradient3794-7"
       xlink:href="#linearGradient3788-1"
       inkscape:collect="always" />
    <linearGradient
       y2="-192"
       x2="372"
       y1="-192"
       x1="140"
       gradientUnits="userSpaceOnUse"
       id="linearGradient3816-9"
       xlink:href="#linearGradient3810-8"
       inkscape:collect="always" />
    <linearGradient
       gradientUnits="userSpaceOnUse"
       y2="-128"
       x2="320"
       y1="-288"
       x1="176"
       id="linearGradient3824"
       xlink:href="#linearGradient3818"
       inkscape:collect="always" />
    <linearGradient
       y2="-128"
       x2="320"
       y1="-288"
       x1="176"
       gradientUnits="userSpaceOnUse"
       id="linearGradient8329"
       xlink:href="#linearGradient3818"
       inkscape:collect="always" />
    <clipPath
       id="clipPath3008-40-00"
       clipPathUnits="userSpaceOnUse">
      <path
         id="path3010-9-75"
         d="M 0,4105.95 0,0 l 5477.71,0 0,4105.95 -5477.71,0 z" />
    </clipPath>
    <linearGradient
       y2="-208"
       x2="-432"
       y1="-368"
       x1="-576"
       gradientTransform="translate(0,2.9090909)"
       gradientUnits="userSpaceOnUse"
       id="linearGradient3275"
       xlink:href="#linearGradient4047"
       inkscape:collect="always" />
    <linearGradient
       y2="-84.065628"
       x2="363.38715"
       y1="-290.77429"
       x1="165.29134"
       gradientTransform="matrix(0.06882288,0,0,0.06882288,93.775237,71.639851)"
       gradientUnits="userSpaceOnUse"
       id="linearGradient3339"
       xlink:href="#linearGradient3810-8"
       inkscape:collect="always" />
    <linearGradient
       y2="-84.065628"
       x2="363.38715"
       y1="-290.77429"
       x1="165.29134"
       gradientTransform="matrix(0.04570269,0,0,0.04570269,45.793455,54.895534)"
       gradientUnits="userSpaceOnUse"
       id="linearGradient3344"
       xlink:href="#linearGradient3810-8"
       inkscape:collect="always" />
    <linearGradient
       y2="-84.065628"
       x2="363.38715"
       y1="-290.77429"
       x1="165.29134"
       gradientTransform="matrix(0.04570269,0,0,0.04570269,45.793455,54.895534)"
       gradientUnits="userSpaceOnUse"
       id="linearGradient3397"
       xlink:href="#linearGradient3810-8"
       inkscape:collect="always" />
  </defs>
  <sodipodi:namedview
     id="base"
     pagecolor="#ffffff"
     bordercolor="#666666"
     borderopacity="1.0"
     inkscape:pageopacity="0.0"
     inkscape:pageshadow="2"
     inkscape:zoom="3.8890873"
     inkscape:cx="87.099196"
     inkscape:cy="-6.6385478"
     inkscape:current-layer="layer1"
     showgrid="true"
     inkscape:document-units="px"
     inkscape:grid-bbox="true"
     showguides="true"
     inkscape:guide-bbox="true"
     inkscape:window-width="1920"
     inkscape:window-height="1028"
     inkscape:window-x="2872"
     inkscape:window-y="532"
     inkscape:window-maximized="1">
    <inkscape:grid
       type="xygrid"
       id="grid3011"
       empspacing="4"
       visible="true"
       enabled="true"
       snapvisiblegridlinesonly="true" />
    <sodipodi:guide
       orientation="1,0"
       position="8,176"
       id="guide3013" />
    <sodipodi:guide
       orientation="0,1"
       position="184,496"
       id="guide3015" />
    <sodipodi:guide
       orientation="0,1"
       position="40,8"
       id="guide3017" />
    <sodipodi:guide
       orientation="1,0"
       position="496,248"
       id="guide3019" />
    <sodipodi:guide
       orientation="1,0"
       position="56,96"
       id="guide3104" />
    <sodipodi:guide
       orientation="0,1"
       position="64,56"
       id="guide3106" />
    <sodipodi:guide
       orientation="1,0"
       position="24,31"
       id="guide3176" />
    <sodipodi:guide
       orientation="0,1"
       position="-5,28"
       id="guide3178" />
  </sodipodi:namedview>
  <metadata
     id="metadata3008">
    <rdf:RDF>
      <cc:Work
         rdf:about="">
        <dc:format>image/svg+xml</dc:format>
        <dc:type
           rdf:resource="http://purl.org/dc/dcmitype/StillImage" />
        <dc:title />
      </cc:Work>
    </rdf:RDF>
  </metadata>
  <g
     id="layer1"
     inkscape:label="Layer 1"
     inkscape:groupmode="layer">
    <text
       xml:space="preserve"
       style="font-size:1.19893098px;font-style:normal;font-variant:normal;font-weight:normal;font-stretch:normal;line-height:125%;letter-spacing:0px;word-spacing:0px;fill:#000000;fill-opacity:1;stroke:none;font-family:Courier New;-inkscape-font-specification:Courier New"
       x="54.890377"
       y="73.507759"
       id="text6560"
       sodipodi:linespacing="125%"><tspan
         y="73.507759"
         x="54.890377"
         sodipodi:role="line"
         id="tspan6562" /></text>
    <text
       xml:space="preserve"
       style="font-style:normal;font-variant:normal;font-weight:normal;font-stretch:normal;font-size:1.333179px;line-height:125%;font-family:'Courier New';-inkscape-font-specification:'Courier New';letter-spacing:0px;word-spacing:0px;fill:#000000;fill-opacity:1;stroke:none"
       x="-22.684578"
       y="79.397591"
       id="text6560-9"
       sodipodi:linespacing="125%"><tspan
         y="79.397591"
         x="-22.684578"
         sodipodi:role="line"
         id="tspan6562-6" /></text>
    <path
       inkscape:connector-curvature="0"
       style="opacity:1;fill:#008000;fill-opacity:1;stroke:none;stroke-width:4;stroke-linecap:round;stroke-miterlimit:4;stroke-dasharray:none;stroke-dashoffset:0.39370039;stroke-opacity:1"
       d="m 33.856746,7.9491246 0,7.7634994 c 0.526803,-0.698067 1.211385,-0.823209 1.921611,-0.825052 1.586538,7.7e-5 2.872645,1.884935 2.872615,4.209968 2.9e-5,2.325035 -1.286077,4.209891 -2.872615,4.209968 -0.710206,-0.0018 -1.394788,-0.126849 -1.921611,-0.824842 l 0,7.763291 9.171747,0 c -1.241175,0.52408 -1.998173,1.453742 -1.999591,2.455676 -9.2e-5,1.593161 1.614878,2.884698 3.930484,2.88467 2.315608,2.9e-5 3.963353,-1.291509 3.963261,-2.88467 -0.0022,-1.002422 -0.760602,-1.932191 -2.003137,-2.455676 l 9.142518,0 0,-8.025696 c -0.526803,0.698067 -1.211386,1.085404 -1.921611,1.087247 -1.586539,-7.7e-5 -2.872644,-1.884933 -2.872616,-4.209968 -2.9e-5,-2.325033 1.286077,-4.209891 2.872616,-4.209968 0.710206,0.0018 1.394788,0.389047 1.921611,1.087039 l 0,-8.0254864 -8.340743,0 c 0.848801,0.5444426 1.331654,1.306578 1.333619,2.1049824 -7.6e-5,1.593023 -1.877066,2.88441 -4.192473,2.884461 -2.315489,2.9e-5 -4.192606,-1.291382 -4.192683,-2.884461 0.0011,-0.7980794 0.482845,-1.5601668 1.330491,-2.1049824 z"
       id="rect4242"
       sodipodi:nodetypes="cccccccccccccccccccccsccc" />
    <path
       inkscape:connector-curvature="0"
       style="opacity:1;fill:#00b000;fill-opacity:1;stroke:none;stroke-width:4;stroke-linecap:round;stroke-miterlimit:4;stroke-dasharray:none;stroke-dashoffset:0.39370039;stroke-opacity:1"
       d="m 19.096879,3.2439198 c -2.315606,-2.94e-5 -4.192773,1.2915087 -4.192681,2.8846697 0.0011,0.731188 0.405957,1.4347774 1.132407,1.968474 l -8.0423651,0 0,22.2968325 7.0951191,0 c -0.942095,-0.547965 -0.961219,-1.353581 -0.961436,-2.20234 -9.2e-5,-1.593104 1.876948,-2.884618 4.192473,-2.884669 2.315606,-2.9e-5 4.192772,1.291508 4.192681,2.884669 -0.0018,0.849457 -0.08881,1.655191 -1.03324,2.20234 l 8.719684,0 0,-8.287683 c 0.526823,0.697992 1.211404,1.085254 1.92161,1.087038 1.586539,-7.7e-5 2.872646,-1.622738 2.872616,-3.947772 2.8e-5,-2.325034 -1.286077,-3.947694 -2.872616,-3.947771 -0.710225,0.0018 -1.394808,0.389178 -1.92161,1.087246 l 0,-8.2878905 -8.045286,0 c 0.727513,-0.5333866 1.133332,-1.237012 1.135327,-1.968474 9.1e-5,-1.593161 -1.877076,-2.8846991 -4.192683,-2.8846697 z"
       id="rect4240"
       sodipodi:nodetypes="cccccccscccccccccccc" />
    <path
       inkscape:connector-curvature="0"
       style="opacity:1;fill:#008000;fill-opacity:1;stroke:none;stroke-width:4;stroke-linecap:round;stroke-miterlimit:4;stroke-dasharray:none;stroke-dashoffset:0.39370039;stroke-opacity:1"
       d="m 18.264131,28.615308 c -2.315526,5.1e-5 -3.930368,1.291565 -3.930277,2.884669 2.56e-4,0.84876 0.543734,1.654376 1.485829,2.20234 l -7.8817086,0 0,22.296836 22.2052816,0 0,-7.81333 c -0.531506,0.729445 -1.232207,0.873673 -1.960393,0.87488 -1.58662,9.3e-5 -2.872856,-1.884814 -2.872826,-4.209967 -3e-5,-2.325155 1.286206,-4.210063 2.872826,-4.20997 0.728459,0.002 1.429195,0.147299 1.960393,0.877812 l 0,-7.816261 -9.440724,0 c 0.944426,-0.547148 1.490312,-1.352882 1.492083,-2.20234 9.2e-5,-1.59316 -1.614878,-2.884697 -3.930484,-2.884669 z"
       id="rect4246"
       sodipodi:nodetypes="scccccccccccccs" />
    <text
       xml:space="preserve"
       style="font-style:normal;font-variant:normal;font-weight:normal;font-stretch:normal;font-size:10px;line-height:125%;font-family:'Courier New';-inkscape-font-specification:'Courier New';letter-spacing:0px;word-spacing:0px;fill:#000000;fill-opacity:1;stroke:none"
       x="-799.03339"
       y="283.32373"
       id="text6560-1"
       sodipodi:linespacing="125%"><tspan
         y="283.32373"
         x="-799.03339"
         sodipodi:role="line"
         id="tspan6562-1" /></text>
    <g
       id="g8242"
       transform="matrix(0.26469409,0,0,0.26469409,6.9868195,2.2694934)">
      <circle
         r="67.272728"
         cy="150.8736"
         cx="133.07487"
         id="path7300"
         style="opacity:1;fill:#ffffff;fill-opacity:1;stroke:none;stroke-width:6.3157897;stroke-linecap:round;stroke-miterlimit:4;stroke-dasharray:none;stroke-dashoffset:0.39370039;stroke-opacity:1" />
      <circle
         id="circle6390"
         cy="150.8736"
         cx="133.07487"
         r="24.164238"
         style="fill:#176199;fill-opacity:1;stroke:#ffffff;stroke-width:4.8328476" />
      <path
         id="path6392"
         d="M 187.04168,124.23924 A 60.142105,60.142105 0 0 0 83.403947,117.25846 l 24.164243,41.88469 a 26.849154,26.849154 0 0 1 25.2382,-34.90391"
         inkscape:connector-curvature="0"
         style="fill:#df2227;fill-opacity:1" />
      <path
         id="path6394"
         d="m 83.403947,117.25846 a 60.142105,60.142105 0 0 0 45.106583,93.43506 l 25.2382,-42.95864 a 26.849154,26.849154 0 0 1 -46.18054,-8.59173"
         inkscape:connector-curvature="0"
         style="fill:#48ae46;fill-opacity:1" />
      <path
         id="path6396"
         d="m 128.51053,210.69352 a 60.142105,60.142105 0 0 0 58.53115,-86.45428 l -54.23529,0 a 26.849154,26.849154 0 0 1 20.94234,43.49564"
         inkscape:connector-curvature="0"
         style="fill:#fcd209;fill-opacity:1" />
    </g>
  </g>
</svg>
