<?xml version="1.0" encoding="UTF-8" standalone="no"?>
<!-- Created with Inkscape (http://www.inkscape.org/) -->

<svg
   xmlns:dc="http://purl.org/dc/elements/1.1/"
   xmlns:cc="http://creativecommons.org/ns#"
   xmlns:rdf="http://www.w3.org/1999/02/22-rdf-syntax-ns#"
   xmlns:svg="http://www.w3.org/2000/svg"
   xmlns="http://www.w3.org/2000/svg"
   xmlns:xlink="http://www.w3.org/1999/xlink"
   xmlns:sodipodi="http://sodipodi.sourceforge.net/DTD/sodipodi-0.dtd"
   xmlns:inkscape="http://www.inkscape.org/namespaces/inkscape"
   width="512"
   height="512"
   id="svg3003"
   version="1.1"
   inkscape:version="0.91 r13725"
   sodipodi:docname="app-music-m3u-512.svg"
   inkscape:export-filename="C:\wamp\www\TESTY\git-hub\system-icons\file-types\app-music-mp3\app-music-m3u-512.png"
   inkscape:export-xdpi="90"
   inkscape:export-ydpi="90">
  <defs
     id="defs3005">
    <linearGradient
       inkscape:collect="always"
       id="linearGradient3803">
      <stop
         style="stop-color:#ffffff;stop-opacity:1;"
         offset="0"
         id="stop3805" />
      <stop
         style="stop-color:#ffffff;stop-opacity:0"
         offset="1"
         id="stop3807" />
    </linearGradient>
    <linearGradient
       id="linearGradient4277">
      <stop
         style="stop-color:#4a4aff;stop-opacity:1;"
         offset="0"
         id="stop4279" />
      <stop
         style="stop-color:#0000d7;stop-opacity:1;"
         offset="1"
         id="stop4281" />
    </linearGradient>
    <linearGradient
       inkscape:collect="always"
       id="linearGradient4233">
      <stop
         style="stop-color:#0000ff;stop-opacity:1;"
         offset="0"
         id="stop4235" />
      <stop
         style="stop-color:#0000ff;stop-opacity:0;"
         offset="1"
         id="stop4237" />
    </linearGradient>
    <linearGradient
       id="linearGradient7905">
      <stop
         style="stop-color:#d4d4d4;stop-opacity:1;"
         offset="0"
         id="stop7907" />
      <stop
         style="stop-color:#ffffff;stop-opacity:1;"
         offset="1"
         id="stop7909" />
    </linearGradient>
    <linearGradient
       id="linearGradient4084">
      <stop
         id="stop4086"
         offset="0"
         style="stop-color:#8b4513;stop-opacity:1;" />
      <stop
         id="stop4088"
         offset="1"
         style="stop-color:#5a3920;stop-opacity:1;" />
    </linearGradient>
    <linearGradient
       id="linearGradient4066">
      <stop
         style="stop-color:#7f4124;stop-opacity:1;"
         offset="0"
         id="stop4068" />
      <stop
         style="stop-color:#8b4513;stop-opacity:1;"
         offset="1"
         id="stop4070" />
    </linearGradient>
    <clipPath
       id="clipPath3008"
       clipPathUnits="userSpaceOnUse">
      <path
         id="path3010"
         d="M 0,4105.95 0,0 l 5477.71,0 0,4105.95 -5477.71,0 z" />
    </clipPath>
    <mask
       maskUnits="userSpaceOnUse"
       id="mask6083">
      <path
         inkscape:connector-curvature="0"
         id="path6085"
         d="m -346,-240 c -6,0 2,4 2,8 l 0,72.5 c -0.65399,3.82668 -7.75,7.5 -2,7.5 l 290,0 c 16,0 35.47187,-9.634 44,-24 6.12557,-10.31879 5.77451,-25.48073 0,-36 -8.3656,-15.23939 -28,-28 -44,-28 l -290,0 z m 22,36 20,0 c 4.432,0 8,3.568 8,8 0,4.432 -3.568,8 -8,8 l -20,0 c -4.432,0 -8,-3.568 -8,-8 0,-4.432 3.568,-8 8,-8 z m 68,0 20,0 c 4.432,0 8,3.568 8,8 0,4.432 -3.568,8 -8,8 l -20,0 c -4.432,0 -8,-3.568 -8,-8 0,-4.432 3.568,-8 8,-8 z m 68,0 20,0 c 4.432,0 8,3.568 8,8 0,4.432 -3.568,8 -8,8 l -20,0 c -4.432,0 -8,-3.568 -8,-8 0,-4.432 3.568,-8 8,-8 z"
         style="fill:#ffffff;fill-opacity:1;fill-rule:nonzero;stroke:none" />
    </mask>
    <mask
       maskUnits="userSpaceOnUse"
       id="mask6565">
      <path
         inkscape:connector-curvature="0"
         id="path6567"
         d="m -346,-310.64283 c -6,0 2,4 2,8 l 0,72.5 c -0.65399,3.82669 -7.75,7.5 -2,7.5 l 290,0 c 16,0 35.47187,-9.634 44,-24 6.12557,-10.31878 5.77451,-25.48072 0,-36 -8.3656,-15.23939 -28,-28 -44,-28 l -290,0 z m 22,36 20,0 c 4.432,0 8,3.56801 8,8 0,4.43201 -3.568,8 -8,8 l -20,0 c -4.432,0 -8,-3.56799 -8,-8 0,-4.43199 3.568,-8 8,-8 z m 68,0 20,0 c 4.432,0 8,3.56801 8,8 0,4.43201 -3.568,8 -8,8 l -20,0 c -4.432,0 -8,-3.56799 -8,-8 0,-4.43199 3.568,-8 8,-8 z m 68,0 20,0 c 4.432,0 8,3.56801 8,8 0,4.43201 -3.568,8 -8,8 l -20,0 c -4.432,0 -8,-3.56799 -8,-8 0,-4.43199 3.568,-8 8,-8 z"
         style="fill:#ffffff;fill-opacity:1;fill-rule:nonzero;stroke:none" />
    </mask>
    <mask
       maskUnits="userSpaceOnUse"
       id="mask10155">
      <path
         sodipodi:nodetypes="ccscssccscc"
         id="path10157"
         d="m 292,-396 0,88 158.1155,0 c 5.75,0 -1.34601,-3.67332 -2,-7.5 l 0,-72.5 c 0,-4 7.99887,-8.11642 2,-8 z m 143.9905,42.65625 c 0.0733,0.43671 0.125,0.88559 0.125,1.34375 0,0.45816 -0.0517,0.90704 -0.125,1.34375 z"
         style="fill:#ffffff;fill-opacity:1;fill-rule:nonzero;stroke:none"
         inkscape:connector-curvature="0" />
    </mask>
    <mask
       maskUnits="userSpaceOnUse"
       id="mask10161">
      <path
         sodipodi:nodetypes="ccscssccscc"
         id="path10163"
         d="m 292,-356 0,88 158.1155,0 c 5.75,0 -1.34601,-3.67332 -2,-7.5 l 0,-72.5 c 0,-4 7.99887,-8.11642 2,-8 z m 143.9905,42.65625 c 0.0733,0.43671 0.125,0.88559 0.125,1.34375 0,0.45816 -0.0517,0.90704 -0.125,1.34375 z"
         style="fill:#ffffff;fill-opacity:1;fill-rule:nonzero;stroke:none"
         inkscape:connector-curvature="0" />
    </mask>
    <linearGradient
       inkscape:collect="always"
       xlink:href="#linearGradient4233"
       id="linearGradient4264"
       gradientUnits="userSpaceOnUse"
       gradientTransform="matrix(0.94444445,0,0,0.49382716,369.33334,-227.1605)"
       x1="-158.11766"
       y1="63.100014"
       x2="-94.588242"
       y2="208.90001" />
    <linearGradient
       inkscape:collect="always"
       xlink:href="#linearGradient4233"
       id="linearGradient4271"
       gradientUnits="userSpaceOnUse"
       gradientTransform="matrix(0.94444445,0,0,0.49382716,369.33334,-227.1605)"
       x1="-158.11766"
       y1="63.100014"
       x2="-94.588242"
       y2="208.90001" />
    <radialGradient
       inkscape:collect="always"
       xlink:href="#linearGradient3803"
       id="radialGradient3809"
       cx="152"
       cy="-374.62183"
       fx="152"
       fy="-374.62183"
       r="168.01449"
       gradientTransform="matrix(0.8568867,1.023978,-1.8222964,1.5249367,-660.91879,39.629912)"
       gradientUnits="userSpaceOnUse" />
    <radialGradient
       inkscape:collect="always"
       xlink:href="#linearGradient3803"
       id="radialGradient3814"
       gradientUnits="userSpaceOnUse"
       gradientTransform="matrix(0.8568867,1.023978,-1.8222964,1.5249367,-660.91879,487.62991)"
       cx="152"
       cy="-374.62183"
       fx="152"
       fy="-374.62183"
       r="168.01449" />
    <linearGradient
       inkscape:collect="always"
       xlink:href="#linearGradient4277"
       id="linearGradient3068"
       gradientUnits="userSpaceOnUse"
       x1="172"
       y1="-372"
       x2="328"
       y2="-148"
       gradientTransform="translate(-420,0)" />
  </defs>
  <sodipodi:namedview
     id="base"
     pagecolor="#ffffff"
     bordercolor="#666666"
     borderopacity="1.0"
     inkscape:pageopacity="0.0"
     inkscape:pageshadow="2"
     inkscape:zoom="1.4142136"
     inkscape:cx="27.771079"
     inkscape:cy="283.0708"
     inkscape:current-layer="layer1"
     showgrid="true"
     inkscape:document-units="px"
     inkscape:grid-bbox="true"
     showguides="true"
     inkscape:guide-bbox="true"
     inkscape:window-width="1920"
     inkscape:window-height="1028"
     inkscape:window-x="2872"
     inkscape:window-y="532"
     inkscape:window-maximized="1">
    <inkscape:grid
       type="xygrid"
       id="grid3011"
       empspacing="4"
       visible="true"
       enabled="true"
       snapvisiblegridlinesonly="true" />
    <sodipodi:guide
       orientation="1,0"
       position="16,376"
       id="guide3013" />
    <sodipodi:guide
       orientation="0,1"
       position="184,496"
       id="guide3015" />
    <sodipodi:guide
       orientation="0,1"
       position="336,16"
       id="guide3017" />
    <sodipodi:guide
       orientation="1,0"
       position="496,248"
       id="guide3019" />
    <sodipodi:guide
       orientation="1,0"
       position="280,312"
       id="guide3104" />
    <sodipodi:guide
       orientation="0,1"
       position="488,144"
       id="guide3106" />
    <sodipodi:guide
       orientation="1,0"
       position="268,328"
       id="guide9774" />
    <sodipodi:guide
       orientation="1,0"
       position="220,48"
       id="guide10416" />
  </sodipodi:namedview>
  <metadata
     id="metadata3008">
    <rdf:RDF>
      <cc:Work
         rdf:about="">
        <dc:format>image/svg+xml</dc:format>
        <dc:type
           rdf:resource="http://purl.org/dc/dcmitype/StillImage" />
        <dc:title />
      </cc:Work>
    </rdf:RDF>
  </metadata>
  <g
     id="layer1"
     inkscape:label="Layer 1"
     inkscape:groupmode="layer"
     transform="translate(0,448)">
    <path
       style="fill:#1a1a1a;fill-opacity:1;fill-rule:nonzero;stroke:none"
       d="m 82,-436 348,0 2.05796,484 -352.115916,0 z"
       id="rect3021"
       inkscape:connector-curvature="0"
       sodipodi:nodetypes="ccccc" />
    <path
       style="fill:#000000;fill-opacity:1;fill-rule:nonzero;stroke:none"
       d="m 84,-82 344,0 0,128 -344,0 z"
       id="rect3791"
       inkscape:connector-curvature="0"
       sodipodi:nodetypes="ccccc" />
    <path
       sodipodi:nodetypes="ccccc"
       inkscape:connector-curvature="0"
       id="path3457"
       d="m 84.152843,-432 343.808387,0 0,348 -343.808387,0 z"
       style="fill:#1a1a1a;fill-opacity:1;fill-rule:nonzero;stroke:none" />
    <path
       style="fill:#000000;fill-opacity:1;fill-rule:nonzero;stroke:none"
       d="M 87.971025,-428 424,-428 l 0,340 -336.028975,0 z"
       id="path3461"
       inkscape:connector-curvature="0"
       sodipodi:nodetypes="ccccc" />
    <g
       id="g3070">
      <path
         id="rect4241"
         d="m -139.10824,-378 0,168.34375 c -12.16772,-5.22637 -27.42971,-8.34375 -44,-8.34375 -39.7645,0 -72,17.90861 -72,40 0,22.09139 32.2355,40 72,40 37.33549,0 68.01392,-15.78594 71.625,-36 l 0.375,0 0,-4 0,-163.46875 60.21875,50.4375 17.96875,-21.46875 -78.1875,-65.5 -28,0 z"
         style="fill:#0000ff;fill-opacity:1;stroke:none"
         inkscape:connector-curvature="0" />
      <path
         sodipodi:nodetypes="ccssscccccccc"
         inkscape:connector-curvature="0"
         id="path3463"
         d="m -135.10824,-374 0,170.8125 c -12.29875,-6.40801 -29.26585,-10.375 -48,-10.375 -37.55536,0 -68,15.92571 -68,35.5625 0,19.63679 30.44464,35.5625 68,35.5625 34.96083,0 63.75021,-13.81477 67.5625,-31.5625 l 0.4375,0 0,-4 0,-172.4375 64.1875,54.5 12.84375,-15.34375 L -111.98324,-374 z"
         style="fill:url(#linearGradient3068);fill-opacity:1;stroke:none" />
    </g>
    <text
       xml:space="preserve"
       style="font-style:normal;font-variant:normal;font-weight:normal;font-stretch:normal;font-size:99.20789337px;line-height:125%;font-family:'MV Boli';-inkscape-font-specification:'MV Boli';letter-spacing:0px;word-spacing:0px;fill:#ffffff;fill-opacity:1;stroke:none"
       x="147.80624"
       y="6.1237946"
       id="text4285"
       sodipodi:linespacing="125%"><tspan
         sodipodi:role="line"
         id="tspan4287"
         x="147.80624"
         y="6.1237946">m3u</tspan></text>
    <g
       id="g3043"
       transform="translate(-420,0)">
      <path
         style="fill:#0909f9;fill-opacity:1;stroke:none"
         d="m 180,-18 -64,47 0,-93 z"
         id="path4303"
         inkscape:connector-curvature="0"
         sodipodi:nodetypes="cccc" />
      <path
         sodipodi:nodetypes="cccc"
         inkscape:connector-curvature="0"
         id="rect4289"
         d="m 173,-18 -53,38 0,-76 z"
         style="fill:#0909dc;fill-opacity:1;stroke:none" />
      <rect
         style="fill:#0909f9;fill-opacity:1;stroke:none"
         id="rect4301"
         width="61.764698"
         height="61.764698"
         x="334.23529"
         y="-48.882351" />
      <rect
         y="-44.352943"
         x="338.76471"
         height="52.705883"
         width="52.705883"
         id="rect4294"
         style="fill:#0909dc;fill-opacity:1;stroke:none" />
      <path
         sodipodi:nodetypes="cccccccccc"
         style="fill:#0909f9;fill-opacity:1;stroke:none"
         d="m 222,-54 0,73 27,0 0,-73 z m 41,0 0,73 27,0 0,-73 z"
         id="path4305"
         inkscape:connector-curvature="0" />
      <path
         sodipodi:nodetypes="cccccccccc"
         inkscape:connector-curvature="0"
         id="rect4296"
         d="m 226,-50 0,65 19,0 0.21925,-64.989305 z m 41,0 0,65 19,0 0,-65 z"
         style="fill:#0909dc;fill-opacity:1;stroke:none" />
    </g>
    <flowRoot
       xml:space="preserve"
       id="flowRoot8202"
       style="font-style:normal;font-variant:normal;font-weight:normal;font-stretch:normal;font-size:25px;line-height:130%;font-family:Verdana;-inkscape-font-specification:'Verdana, Normal';letter-spacing:0px;word-spacing:0px;fill:#ffffff;fill-opacity:1;stroke:none;stroke-width:1px;stroke-linecap:butt;stroke-linejoin:miter;stroke-opacity:1;text-anchor:start;text-align:start;writing-mode:lr;"
       transform="translate(0,-448)"><flowRegion
         id="flowRegion8204"><rect
           id="rect8206"
           width="288"
           height="304"
           x="104"
           y="40"
           style="font-style:normal;font-variant:normal;font-weight:normal;font-stretch:normal;font-size:25px;font-family:Verdana;-inkscape-font-specification:'Verdana, Normal';fill:#ffffff;text-anchor:start;text-align:start;writing-mode:lr;line-height:130%;" /></flowRegion><flowPara
         id="flowPara8208"
         style="font-style:normal;font-variant:normal;font-weight:bold;font-stretch:normal;font-size:25px;font-family:Verdana;-inkscape-font-specification:'Verdana Bold';text-anchor:start;text-align:start;writing-mode:lr;line-height:130%">Alice In Chains</flowPara><flowPara
         id="flowPara8230"
         style="font-style:italic;font-variant:normal;font-weight:normal;font-stretch:normal;font-family:Verdana;-inkscape-font-specification:'Verdana Italic';font-size:25px;text-anchor:start;text-align:start;writing-mode:lr;line-height:130%">Jar Of Flies</flowPara><flowPara
         id="flowPara8210"
         style="font-style:normal;font-variant:normal;font-weight:normal;font-stretch:normal;font-size:25px;font-family:Verdana;-inkscape-font-specification:'Verdana, Normal';text-anchor:start;text-align:start;writing-mode:lr;line-height:130%;">01 Rotten Apple</flowPara><flowPara
         id="flowPara8212"
         style="font-style:normal;font-variant:normal;font-weight:normal;font-stretch:normal;font-size:25px;font-family:Verdana;-inkscape-font-specification:'Verdana, Normal';text-anchor:start;text-align:start;writing-mode:lr;line-height:130%;">02 Nutshell</flowPara><flowPara
         id="flowPara8214"
         style="font-style:normal;font-variant:normal;font-weight:normal;font-stretch:normal;font-size:25px;font-family:Verdana;-inkscape-font-specification:'Verdana, Normal';text-anchor:start;text-align:start;writing-mode:lr;line-height:130%;">03 I Stay Away</flowPara><flowPara
         id="flowPara8216"
         style="font-style:normal;font-variant:normal;font-weight:normal;font-stretch:normal;font-size:25px;font-family:Verdana;-inkscape-font-specification:'Verdana, Normal';text-anchor:start;text-align:start;writing-mode:lr;line-height:130%;">04 No Excuses</flowPara><flowPara
         id="flowPara8224"
         style="font-style:normal;font-variant:normal;font-weight:normal;font-stretch:normal;font-size:25px;font-family:Verdana;-inkscape-font-specification:'Verdana, Normal';text-anchor:start;text-align:start;writing-mode:lr;line-height:130%;">05 Whale And Wasp</flowPara><flowPara
         id="flowPara8226"
         style="font-style:normal;font-variant:normal;font-weight:normal;font-stretch:normal;font-size:25px;font-family:Verdana;-inkscape-font-specification:'Verdana, Normal';text-anchor:start;text-align:start;writing-mode:lr;line-height:130%;">06 Don't Follow</flowPara><flowPara
         id="flowPara8222"
         style="font-style:normal;font-variant:normal;font-weight:normal;font-stretch:normal;font-size:25px;font-family:Verdana;-inkscape-font-specification:'Verdana, Normal';text-anchor:start;text-align:start;writing-mode:lr;line-height:130%;">07 Swing On This</flowPara></flowRoot>    <path
       style="opacity:0.17256637;fill:#ffffff;fill-opacity:1;stroke:none"
       d="M 82 12 L 79.9375 496 L 141.4375 496 L 325.375 12 L 82 12 z "
       transform="translate(0,-448)"
       id="rect3827" />
  </g>
</svg>
