<?xml version="1.0" encoding="UTF-8" standalone="no"?>
<!-- Created with Inkscape (http://www.inkscape.org/) -->

<svg
   xmlns:dc="http://purl.org/dc/elements/1.1/"
   xmlns:cc="http://creativecommons.org/ns#"
   xmlns:rdf="http://www.w3.org/1999/02/22-rdf-syntax-ns#"
   xmlns:svg="http://www.w3.org/2000/svg"
   xmlns="http://www.w3.org/2000/svg"
   xmlns:xlink="http://www.w3.org/1999/xlink"
   xmlns:sodipodi="http://sodipodi.sourceforge.net/DTD/sodipodi-0.dtd"
   xmlns:inkscape="http://www.inkscape.org/namespaces/inkscape"
   width="64"
   height="64"
   id="svg3003"
   version="1.1"
   inkscape:version="0.91 r13725"
   sodipodi:docname="app-extension-64.svg"
   inkscape:export-filename="C:\wamp\www\TESTY\git-hub\system-icons\file-types\app-extension\app-extension-64.png"
   inkscape:export-xdpi="90"
   inkscape:export-ydpi="90">
  <defs
     id="defs3005">
    <clipPath
       id="clipPath3008"
       clipPathUnits="userSpaceOnUse">
      <path
         id="path3010"
         d="M 0,4105.95 0,0 l 5477.71,0 0,4105.95 -5477.71,0 z"
         inkscape:connector-curvature="0" />
    </clipPath>
    <linearGradient
       gradientUnits="userSpaceOnUse"
       y2="363.73334"
       x2="211.73334"
       y1="500.26666"
       x1="442.13333"
       id="linearGradient4091"
       xlink:href="#linearGradient4085"
       inkscape:collect="always" />
    <clipPath
       clipPathUnits="userSpaceOnUse"
       id="clipPath3008-4">
      <path
         d="M 0,4105.95 0,0 l 5477.71,0 0,4105.95 -5477.71,0 z"
         id="path3010-0" />
    </clipPath>
    <linearGradient
       id="linearGradient4085">
      <stop
         id="stop4087"
         offset="0"
         style="stop-color:#000000;stop-opacity:1;" />
      <stop
         id="stop4089"
         offset="1"
         style="stop-color:#4f4f4f;stop-opacity:1;" />
    </linearGradient>
    <mask
       maskUnits="userSpaceOnUse"
       id="mask3328">
      <path
         style="fill:#fefefe;fill-opacity:1;fill-rule:nonzero;stroke:none"
         d="M 5,9 59,9 59,55 5,55 z"
         id="path3330"
         inkscape:connector-curvature="0"
         sodipodi:nodetypes="ccccc" />
    </mask>
    <clipPath
       id="clipPath3008-40"
       clipPathUnits="userSpaceOnUse">
      <path
         id="path3010-9"
         d="M 0,4105.95 0,0 l 5477.71,0 0,4105.95 -5477.71,0 z" />
    </clipPath>
    <clipPath
       clipPathUnits="userSpaceOnUse"
       id="clipPath3008-4-2">
      <path
         d="M 0,4105.95 0,0 l 5477.71,0 0,4105.95 -5477.71,0 z"
         id="path3010-0-4" />
    </clipPath>
    <mask
       maskUnits="userSpaceOnUse"
       id="mask3000">
      <path
         sodipodi:nodetypes="ccccc"
         inkscape:connector-curvature="0"
         id="path3002"
         d="m 18,-430 476,0 0,476 -476,0 z"
         style="fill:#ffffff;fill-opacity:1;fill-rule:nonzero;stroke:none" />
    </mask>
    <mask
       id="mask4109"
       maskUnits="userSpaceOnUse">
      <rect
         y="-391.63632"
         x="36"
         height="344"
         width="439.68582"
         id="rect4111"
         style="fill:#ffffff;fill-opacity:1;fill-rule:nonzero;stroke:none" />
    </mask>
    <clipPath
       clipPathUnits="userSpaceOnUse"
       id="clipPath3008-48">
      <path
         d="M 0,4105.95 0,0 l 5477.71,0 0,4105.95 -5477.71,0 z"
         id="path3010-8" />
    </clipPath>
    <linearGradient
       id="linearGradient4085-4">
      <stop
         id="stop4087-0"
         offset="0"
         style="stop-color:#000000;stop-opacity:1;" />
      <stop
         id="stop4089-9"
         offset="1"
         style="stop-color:#4f4f4f;stop-opacity:1;" />
    </linearGradient>
    <linearGradient
       id="linearGradient3865">
      <stop
         id="stop3867"
         offset="0"
         style="stop-color:#0000a3;stop-opacity:1;" />
      <stop
         id="stop3869"
         offset="1"
         style="stop-color:#0000de;stop-opacity:1;" />
    </linearGradient>
    <linearGradient
       id="linearGradient3882">
      <stop
         id="stop3884"
         offset="0"
         style="stop-color:#ff0000;stop-opacity:1;" />
      <stop
         id="stop3886"
         offset="1"
         style="stop-color:#ff9090;stop-opacity:1;" />
    </linearGradient>
    <linearGradient
       id="linearGradient3890">
      <stop
         id="stop3892"
         offset="0"
         style="stop-color:#483737;stop-opacity:1;" />
      <stop
         id="stop3894"
         offset="1"
         style="stop-color:#483737;stop-opacity:0;" />
    </linearGradient>
    <linearGradient
       id="linearGradient3900">
      <stop
         id="stop3902"
         offset="0"
         style="stop-color:#0000ff;stop-opacity:1;" />
      <stop
         id="stop3904"
         offset="1"
         style="stop-color:#9090ff;stop-opacity:1;" />
    </linearGradient>
    <clipPath
       clipPathUnits="userSpaceOnUse"
       id="clipPath3008-3">
      <path
         d="M 0,4105.95 0,0 l 5477.71,0 0,4105.95 -5477.71,0 z"
         id="path3010-3" />
    </clipPath>
    <mask
       id="mask4109-3"
       maskUnits="userSpaceOnUse">
      <rect
         y="-391.63632"
         x="36"
         height="344"
         width="439.68582"
         id="rect4111-0"
         style="fill:#ffffff;fill-opacity:1;fill-rule:nonzero;stroke:none" />
    </mask>
    <mask
       maskUnits="userSpaceOnUse"
       id="mask3000-6">
      <path
         sodipodi:nodetypes="ccccc"
         inkscape:connector-curvature="0"
         id="path3002-1"
         d="m 18,-430 476,0 0,476 -476,0 z"
         style="fill:#ffffff;fill-opacity:1;fill-rule:nonzero;stroke:none" />
    </mask>
    <clipPath
       clipPathUnits="userSpaceOnUse"
       id="clipPath3008-4-5">
      <path
         d="M 0,4105.95 0,0 l 5477.71,0 0,4105.95 -5477.71,0 z"
         id="path3010-0-7" />
    </clipPath>
    <clipPath
       id="clipPath3008-40-9"
       clipPathUnits="userSpaceOnUse">
      <path
         id="path3010-9-7"
         d="M 0,4105.95 0,0 l 5477.71,0 0,4105.95 -5477.71,0 z" />
    </clipPath>
  </defs>
  <sodipodi:namedview
     id="base"
     pagecolor="#ffffff"
     bordercolor="#666666"
     borderopacity="1.0"
     inkscape:pageopacity="0.0"
     inkscape:pageshadow="2"
     inkscape:zoom="7.7781746"
     inkscape:cx="17.825223"
     inkscape:cy="49.474402"
     inkscape:current-layer="layer1"
     showgrid="true"
     inkscape:document-units="px"
     inkscape:grid-bbox="true"
     showguides="true"
     inkscape:guide-bbox="true"
     inkscape:window-width="1920"
     inkscape:window-height="1028"
     inkscape:window-x="2872"
     inkscape:window-y="532"
     inkscape:window-maximized="1">
    <inkscape:grid
       type="xygrid"
       id="grid3011"
       empspacing="4"
       visible="true"
       enabled="true"
       snapvisiblegridlinesonly="true" />
    <sodipodi:guide
       orientation="1,0"
       position="8,176"
       id="guide3013" />
    <sodipodi:guide
       orientation="0,1"
       position="184,496"
       id="guide3015" />
    <sodipodi:guide
       orientation="0,1"
       position="40,8"
       id="guide3017" />
    <sodipodi:guide
       orientation="1,0"
       position="496,248"
       id="guide3019" />
    <sodipodi:guide
       orientation="1,0"
       position="56,96"
       id="guide3104" />
    <sodipodi:guide
       orientation="0,1"
       position="64,56"
       id="guide3106" />
    <sodipodi:guide
       orientation="1,0"
       position="24,31"
       id="guide3176" />
    <sodipodi:guide
       orientation="0,1"
       position="-5,28"
       id="guide3178" />
  </sodipodi:namedview>
  <metadata
     id="metadata3008">
    <rdf:RDF>
      <cc:Work
         rdf:about="">
        <dc:format>image/svg+xml</dc:format>
        <dc:type
           rdf:resource="http://purl.org/dc/dcmitype/StillImage" />
        <dc:title />
      </cc:Work>
    </rdf:RDF>
  </metadata>
  <g
     id="layer1"
     inkscape:label="Layer 1"
     inkscape:groupmode="layer">
    <text
       xml:space="preserve"
       style="font-size:1.19893098px;font-style:normal;font-variant:normal;font-weight:normal;font-stretch:normal;line-height:125%;letter-spacing:0px;word-spacing:0px;fill:#000000;fill-opacity:1;stroke:none;font-family:Courier New;-inkscape-font-specification:Courier New"
       x="54.890377"
       y="73.507759"
       id="text6560"
       sodipodi:linespacing="125%"><tspan
         y="73.507759"
         x="54.890377"
         sodipodi:role="line"
         id="tspan6562" /></text>
    <text
       xml:space="preserve"
       style="font-style:normal;font-variant:normal;font-weight:normal;font-stretch:normal;font-size:1.333179px;line-height:125%;font-family:'Courier New';-inkscape-font-specification:'Courier New';letter-spacing:0px;word-spacing:0px;fill:#000000;fill-opacity:1;stroke:none"
       x="-22.684578"
       y="79.397591"
       id="text6560-9"
       sodipodi:linespacing="125%"><tspan
         y="79.397591"
         x="-22.684578"
         sodipodi:role="line"
         id="tspan6562-6" /></text>
    <path
       inkscape:connector-curvature="0"
       style="opacity:1;fill:#008000;fill-opacity:1;stroke:none;stroke-width:4;stroke-linecap:round;stroke-miterlimit:4;stroke-dasharray:none;stroke-dashoffset:0.39370039;stroke-opacity:1"
       d="m 33.856746,7.9491246 0,7.7634994 c 0.526803,-0.698067 1.211385,-0.823209 1.921611,-0.825052 1.586538,7.7e-5 2.872645,1.884935 2.872615,4.209968 2.9e-5,2.325035 -1.286077,4.209891 -2.872615,4.209968 -0.710206,-0.0018 -1.394788,-0.126849 -1.921611,-0.824842 l 0,7.763291 9.171747,0 c -1.241175,0.52408 -1.998173,1.453742 -1.999591,2.455676 -9.2e-5,1.593161 1.614878,2.884698 3.930484,2.88467 2.315608,2.9e-5 3.963353,-1.291509 3.963261,-2.88467 -0.0022,-1.002422 -0.760602,-1.932191 -2.003137,-2.455676 l 9.142518,0 0,-8.025696 c -0.526803,0.698067 -1.211386,1.085404 -1.921611,1.087247 -1.586539,-7.7e-5 -2.872644,-1.884933 -2.872616,-4.209968 -2.9e-5,-2.325033 1.286077,-4.209891 2.872616,-4.209968 0.710206,0.0018 1.394788,0.389047 1.921611,1.087039 l 0,-8.0254864 -8.340743,0 c 0.848801,0.5444426 1.331654,1.306578 1.333619,2.1049824 -7.6e-5,1.593023 -1.877066,2.88441 -4.192473,2.884461 -2.315489,2.9e-5 -4.192606,-1.291382 -4.192683,-2.884461 0.0011,-0.7980794 0.482845,-1.5601668 1.330491,-2.1049824 z"
       id="rect4242"
       sodipodi:nodetypes="cccccccccccccccccccccsccc" />
    <path
       inkscape:connector-curvature="0"
       style="opacity:1;fill:#00b000;fill-opacity:1;stroke:none;stroke-width:4;stroke-linecap:round;stroke-miterlimit:4;stroke-dasharray:none;stroke-dashoffset:0.39370039;stroke-opacity:1"
       d="m 19.096879,3.2439198 c -2.315606,-2.94e-5 -4.192773,1.2915087 -4.192681,2.8846697 0.0011,0.731188 0.405957,1.4347774 1.132407,1.968474 l -8.0423651,0 0,22.2968325 7.0951191,0 c -0.942095,-0.547965 -0.961219,-1.353581 -0.961436,-2.20234 -9.2e-5,-1.593104 1.876948,-2.884618 4.192473,-2.884669 2.315606,-2.9e-5 4.192772,1.291508 4.192681,2.884669 -0.0018,0.849457 -0.08881,1.655191 -1.03324,2.20234 l 8.719684,0 0,-8.287683 c 0.526823,0.697992 1.211404,1.085254 1.92161,1.087038 1.586539,-7.7e-5 2.872646,-1.622738 2.872616,-3.947772 2.8e-5,-2.325034 -1.286077,-3.947694 -2.872616,-3.947771 -0.710225,0.0018 -1.394808,0.389178 -1.92161,1.087246 l 0,-8.2878905 -8.045286,0 c 0.727513,-0.5333866 1.133332,-1.237012 1.135327,-1.968474 9.1e-5,-1.593161 -1.877076,-2.8846991 -4.192683,-2.8846697 z"
       id="rect4240"
       sodipodi:nodetypes="cccccccscccccccccccc" />
    <path
       inkscape:connector-curvature="0"
       style="opacity:1;fill:#00a900;fill-opacity:1;stroke:none;stroke-width:4;stroke-linecap:round;stroke-miterlimit:4;stroke-dasharray:none;stroke-dashoffset:0.39370039;stroke-opacity:1"
       d="m 33.856746,33.702317 0,8.340654 c -0.531198,-0.730515 -1.231934,-1.138006 -1.960393,-1.140008 -1.58662,-9.4e-5 -2.872855,1.622618 -2.872826,3.947773 -2.9e-5,2.325153 1.286206,3.947864 2.872826,3.947771 0.728186,-0.0012 1.428886,-0.407631 1.960393,-1.137076 l 0,8.337722 22.205282,0 0,-22.296836 -8.101969,-0.115875 c 1.242535,0.523485 1.398412,1.569129 1.400585,2.571551 9.2e-5,1.593161 -2.08565,2.884699 -4.401258,2.884669 -2.315606,2.9e-5 -4.401347,-1.291508 -4.401255,-2.884669 0.0014,-1.001935 0.08633,-2.024297 1.327514,-2.548376 z"
       id="rect4244"
       sodipodi:nodetypes="ccccccccccccccc" />
    <path
       inkscape:connector-curvature="0"
       style="opacity:1;fill:#008000;fill-opacity:1;stroke:none;stroke-width:4;stroke-linecap:round;stroke-miterlimit:4;stroke-dasharray:none;stroke-dashoffset:0.39370039;stroke-opacity:1"
       d="m 18.264131,28.615308 c -2.315526,5.1e-5 -3.930368,1.291565 -3.930277,2.884669 2.56e-4,0.84876 0.543734,1.654376 1.485829,2.20234 l -7.8817086,0 0,22.296836 22.2052816,0 0,-7.81333 c -0.531506,0.729445 -1.232207,0.873673 -1.960393,0.87488 -1.58662,9.3e-5 -2.872856,-1.884814 -2.872826,-4.209967 -3e-5,-2.325155 1.286206,-4.210063 2.872826,-4.20997 0.728459,0.002 1.429195,0.147299 1.960393,0.877812 l 0,-7.816261 -9.440724,0 c 0.944426,-0.547148 1.490312,-1.352882 1.492083,-2.20234 9.2e-5,-1.59316 -1.614878,-2.884697 -3.930484,-2.884669 z"
       id="rect4246"
       sodipodi:nodetypes="scccccccccccccs" />
  </g>
</svg>
