<?xml version="1.0" encoding="UTF-8" standalone="no"?>
<!-- Created with Inkscape (http://www.inkscape.org/) -->

<svg
   xmlns:dc="http://purl.org/dc/elements/1.1/"
   xmlns:cc="http://creativecommons.org/ns#"
   xmlns:rdf="http://www.w3.org/1999/02/22-rdf-syntax-ns#"
   xmlns:svg="http://www.w3.org/2000/svg"
   xmlns="http://www.w3.org/2000/svg"
   xmlns:sodipodi="http://sodipodi.sourceforge.net/DTD/sodipodi-0.dtd"
   xmlns:inkscape="http://www.inkscape.org/namespaces/inkscape"
   width="512"
   height="512"
   id="svg3003"
   version="1.1"
   inkscape:version="0.91 r13725"
   sodipodi:docname="app-extension-512.svg"
   inkscape:export-filename="C:\wamp\www\TESTY\git-hub\system-icons\file-types\app-extension\app-extension-512.png"
   inkscape:export-xdpi="90"
   inkscape:export-ydpi="90">
  <defs
     id="defs3005">
    <linearGradient
       id="linearGradient3900">
      <stop
         style="stop-color:#0000ff;stop-opacity:1;"
         offset="0"
         id="stop3902" />
      <stop
         style="stop-color:#9090ff;stop-opacity:1;"
         offset="1"
         id="stop3904" />
    </linearGradient>
    <linearGradient
       id="linearGradient3890">
      <stop
         style="stop-color:#483737;stop-opacity:1;"
         offset="0"
         id="stop3892" />
      <stop
         style="stop-color:#483737;stop-opacity:0;"
         offset="1"
         id="stop3894" />
    </linearGradient>
    <linearGradient
       id="linearGradient3882">
      <stop
         style="stop-color:#ff0000;stop-opacity:1;"
         offset="0"
         id="stop3884" />
      <stop
         style="stop-color:#ff9090;stop-opacity:1;"
         offset="1"
         id="stop3886" />
    </linearGradient>
    <linearGradient
       id="linearGradient3865">
      <stop
         style="stop-color:#0000a3;stop-opacity:1;"
         offset="0"
         id="stop3867" />
      <stop
         style="stop-color:#0000de;stop-opacity:1;"
         offset="1"
         id="stop3869" />
    </linearGradient>
    <linearGradient
       id="linearGradient4085">
      <stop
         style="stop-color:#000000;stop-opacity:1;"
         offset="0"
         id="stop4087" />
      <stop
         style="stop-color:#4f4f4f;stop-opacity:1;"
         offset="1"
         id="stop4089" />
    </linearGradient>
    <clipPath
       id="clipPath3008"
       clipPathUnits="userSpaceOnUse">
      <path
         id="path3010"
         d="M 0,4105.95 0,0 l 5477.71,0 0,4105.95 -5477.71,0 z" />
    </clipPath>
    <mask
       maskUnits="userSpaceOnUse"
       id="mask4109">
      <rect
         style="fill:#ffffff;fill-opacity:1;fill-rule:nonzero;stroke:none"
         id="rect4111"
         width="439.68582"
         height="344"
         x="36"
         y="-391.63632" />
    </mask>
    <mask
       id="mask3000"
       maskUnits="userSpaceOnUse">
      <path
         style="fill:#ffffff;fill-opacity:1;fill-rule:nonzero;stroke:none"
         d="m 18,-430 476,0 0,476 -476,0 z"
         id="path3002"
         inkscape:connector-curvature="0"
         sodipodi:nodetypes="ccccc" />
    </mask>
    <clipPath
       id="clipPath3008-4"
       clipPathUnits="userSpaceOnUse">
      <path
         id="path3010-0"
         d="M 0,4105.95 0,0 l 5477.71,0 0,4105.95 -5477.71,0 z" />
    </clipPath>
    <clipPath
       clipPathUnits="userSpaceOnUse"
       id="clipPath3008-40">
      <path
         d="M 0,4105.95 0,0 l 5477.71,0 0,4105.95 -5477.71,0 z"
         id="path3010-9" />
    </clipPath>
    <filter
       inkscape:collect="always"
       style="color-interpolation-filters:sRGB"
       id="filter4340"
       x="-0.02535563"
       width="1.0507113"
       y="-0.02278197"
       height="1.0455639">
      <feGaussianBlur
         inkscape:collect="always"
         stdDeviation="4.0991602"
         id="feGaussianBlur4342" />
    </filter>
  </defs>
  <sodipodi:namedview
     id="base"
     pagecolor="#ffffff"
     bordercolor="#666666"
     borderopacity="1.0"
     inkscape:pageopacity="0.0"
     inkscape:pageshadow="2"
     inkscape:zoom="1.375"
     inkscape:cx="112.19235"
     inkscape:cy="175.53064"
     inkscape:current-layer="layer1"
     showgrid="true"
     inkscape:document-units="px"
     inkscape:grid-bbox="true"
     showguides="true"
     inkscape:guide-bbox="true"
     inkscape:window-width="1920"
     inkscape:window-height="1028"
     inkscape:window-x="2872"
     inkscape:window-y="532"
     inkscape:window-maximized="1"
     inkscape:snap-bbox="true"
     inkscape:object-paths="true"
     inkscape:object-nodes="true">
    <inkscape:grid
       type="xygrid"
       id="grid3011"
       empspacing="4"
       visible="true"
       enabled="true"
       snapvisiblegridlinesonly="true" />
    <sodipodi:guide
       orientation="1,0"
       position="16,376"
       id="guide3013" />
    <sodipodi:guide
       orientation="0,1"
       position="184,496"
       id="guide3015" />
    <sodipodi:guide
       orientation="0,1"
       position="336,16"
       id="guide3017" />
    <sodipodi:guide
       orientation="1,0"
       position="496,248"
       id="guide3019" />
    <sodipodi:guide
       orientation="1,0"
       position="280,312"
       id="guide3104" />
  </sodipodi:namedview>
  <metadata
     id="metadata3008">
    <rdf:RDF>
      <cc:Work
         rdf:about="">
        <dc:format>image/svg+xml</dc:format>
        <dc:type
           rdf:resource="http://purl.org/dc/dcmitype/StillImage" />
        <dc:title />
      </cc:Work>
    </rdf:RDF>
  </metadata>
  <g
     id="layer1"
     inkscape:label="Layer 1"
     inkscape:groupmode="layer"
     transform="translate(0,448)">
    <text
       xml:space="preserve"
       style="font-size:10px;font-style:normal;font-variant:normal;font-weight:normal;font-stretch:normal;line-height:125%;letter-spacing:0px;word-spacing:0px;fill:#000000;fill-opacity:1;stroke:none;font-family:Courier New;-inkscape-font-specification:Courier New"
       x="-154.18182"
       y="603.63635"
       id="text6560"
       sodipodi:linespacing="125%"
       transform="translate(0,-448)"><tspan
         sodipodi:role="line"
         id="tspan6562" /></text>
    <path
       style="opacity:0.3;fill:#000000;fill-opacity:1;stroke:none;stroke-width:4;stroke-linecap:round;stroke-miterlimit:4;stroke-dasharray:none;stroke-dashoffset:0.39370039;stroke-opacity:1;filter:url(#filter4340)"
       d="m 159.49219,32.197266 a 36.629371,25.201381 0 0 0 -36.63086,25.203125 36.629371,25.201381 0 0 0 9.89453,17.197265 l -70.263672,0 0,194.630864 -0.492188,0 0,194.80078 194,0 194,0 0,-194.80078 0,-70.11719 a 25.097903,36.780393 0 0 1 -16.78906,9.49805 25.097903,36.780393 0 0 1 -25.09571,-36.78126 25.097903,36.780393 0 0 1 25.09571,-36.78124 A 25.097903,36.780393 0 0 1 450,144.54492 l 0,-70.115232 -72.87109,0 a 36.629371,25.201381 0 0 1 11.65234,18.388671 36.629371,25.201381 0 0 1 -36.62891,25.201171 36.629371,25.201381 0 0 1 -36.6289,-25.201171 36.629371,25.201381 0 0 1 11.62304,-18.388671 l -71.14648,0 0,0.167968 -69.79688,0 a 36.629371,25.201381 0 0 0 9.91797,-17.197265 36.629371,25.201381 0 0 0 -36.6289,-25.203125 z M 272.78906,135.04688 a 25.097903,36.780393 0 0 1 5.99414,1.11132 25.097903,36.780393 0 0 0 -5.5039,-0.9414 25.097903,36.780393 0 0 0 -16.78711,9.5 l 0,-0.75977 a 25.097903,36.780393 0 0 1 16.29687,-8.91015 z m -16.29687,64.23437 a 25.097903,36.780393 0 0 0 10.48828,8.27344 25.097903,36.780393 0 0 1 -10.48828,-7.8125 l 0,-0.46094 z m 11.24414,8.55664 a 25.097903,36.780393 0 0 0 0.20312,0.0566 25.097903,36.780393 0 0 1 -0.20312,-0.0566 z M 166.7793,226.89453 a 36.629371,25.201381 0 0 1 0.64258,0.19727 36.629371,25.201381 0 0 0 -0.64258,-0.19727 z m 2.60937,0.85156 a 36.629371,25.201381 0 0 1 19.94922,22.41016 36.629371,25.201381 0 0 1 -12.76172,19.07227 l -0.76562,0 a 36.629371,25.201381 0 0 0 13.03515,-19.24024 36.629371,25.201381 0 0 0 -19.45703,-22.24219 z m 164.45117,41.48243 a 36.629371,25.201381 0 0 0 -1.8125,0.85351 36.629371,25.201381 0 0 1 1.8125,-0.85351 z m 40.10547,0.85351 a 36.629371,25.201381 0 0 1 1.48828,0.73242 36.629371,25.201381 0 0 0 -1.48828,-0.73242 z m -43.39258,0.72461 a 36.629371,25.201381 0 0 0 -1.41796,0.82227 36.629371,25.201381 0 0 1 1.41796,-0.82227 z m 46.27539,0.81445 a 36.629371,25.201381 0 0 1 1.37305,0.82618 36.629371,25.201381 0 0 0 -1.37305,-0.82618 z m -49.05468,0.82813 a 36.629371,25.201381 0 0 0 -1.28906,0.91406 36.629371,25.201381 0 0 1 1.28906,-0.91406 z m 51.72265,0.91406 a 36.629371,25.201381 0 0 1 1.23633,0.91016 36.629371,25.201381 0 0 0 -1.23633,-0.91016 z m -54.24218,0.90625 a 36.629371,25.201381 0 0 0 -1.16407,1.01172 36.629371,25.201381 0 0 1 1.16407,-1.01172 z m 56.63867,1.00977 a 36.629371,25.201381 0 0 1 1.07617,0.9707 36.629371,25.201381 0 0 0 -1.07617,-0.9707 z m -58.88477,0.97851 a 36.629371,25.201381 0 0 0 -1.01953,1.09375 36.629371,25.201381 0 0 1 1.01953,-1.09375 z m 60.98828,1.08985 a 36.629371,25.201381 0 0 1 0.93164,1.04296 36.629371,25.201381 0 0 0 -0.93164,-1.04296 z m -62.93359,1.04101 a 36.629371,25.201381 0 0 0 -0.8457,1.14453 36.629371,25.201381 0 0 1 0.8457,-1.14453 z m 64.69922,1.12891 a 36.629371,25.201381 0 0 1 0.79687,1.13086 36.629371,25.201381 0 0 0 -0.79687,-1.13086 z m -66.33008,1.13281 a 36.629371,25.201381 0 0 0 -0.67969,1.20313 36.629371,25.201381 0 0 1 0.67969,-1.20313 z m 67.79102,1.16992 a 36.629371,25.201381 0 0 1 0.6289,1.17774 36.629371,25.201381 0 0 0 -0.6289,-1.17774 z m -69.07813,1.17383 a 36.629371,25.201381 0 0 0 -0.50586,1.25391 36.629371,25.201381 0 0 1 0.50586,-1.25391 z m 70.19922,1.22461 a 36.629371,25.201381 0 0 1 0.45508,1.2207 36.629371,25.201381 0 0 0 -0.45508,-1.2207 z m -71.14844,1.22266 a 36.629371,25.201381 0 0 0 -0.30664,1.22656 36.629371,25.201381 0 0 1 0.30664,-1.22656 z m 71.90821,1.20703 a 36.629371,25.201381 0 0 1 0.28515,1.27929 36.629371,25.201381 0 0 0 -0.28515,-1.27929 z m -72.49414,1.28125 a 36.629371,25.201381 0 0 0 -0.12696,1.24609 36.629371,25.201381 0 0 1 0.12696,-1.24609 z m 72.9082,1.25976 a 36.629371,25.201381 0 0 1 0.11328,1.49414 36.629371,25.201381 0 0 0 -0.11328,-1.49414 z m -73.14844,1.49414 a 36.629371,25.201381 0 0 0 0.15625,2.1543 36.629371,25.201381 0 0 1 -0.15625,-2.1543 z m 73.10547,2.1543 a 36.629371,25.201381 0 0 1 -0.2168,1.22852 36.629371,25.201381 0 0 0 0.2168,-1.22852 z m -72.73242,1.22852 a 36.629371,25.201381 0 0 0 0.27929,1.26562 36.629371,25.201381 0 0 1 -0.27929,-1.26562 z m 72.23633,1.26562 a 36.629371,25.201381 0 0 1 -0.39649,1.2168 36.629371,25.201381 0 0 0 0.39649,-1.2168 z m -71.56055,1.2168 a 36.629371,25.201381 0 0 0 0.45508,1.22656 36.629371,25.201381 0 0 1 -0.45508,-1.22656 z m 70.70898,1.22656 a 36.629371,25.201381 0 0 1 -0.57031,1.17969 36.629371,25.201381 0 0 0 0.57031,-1.17969 z m -69.68359,1.17969 a 36.629371,25.201381 0 0 0 0.64062,1.20703 36.629371,25.201381 0 0 1 -0.64062,-1.20703 z m 68.47266,1.20703 a 36.629371,25.201381 0 0 1 -0.73243,1.125 36.629371,25.201381 0 0 0 0.73243,-1.125 z m -67.09961,1.125 a 36.629371,25.201381 0 0 0 0.80273,1.14453 36.629371,25.201381 0 0 1 -0.80273,-1.14453 z m 65.56445,1.14453 a 36.629371,25.201381 0 0 1 -0.91602,1.09766 36.629371,25.201381 0 0 0 0.91602,-1.09766 z m -63.8457,1.09766 a 36.629371,25.201381 0 0 0 0.95703,1.07422 36.629371,25.201381 0 0 1 -0.95703,-1.07422 z m 61.97265,1.07422 a 36.629371,25.201381 0 0 1 -1.04492,1.00586 36.629371,25.201381 0 0 0 1.04492,-1.00586 z m -59.9707,1.00586 a 36.629371,25.201381 0 0 0 1.12695,1.01953 36.629371,25.201381 0 0 1 -1.12695,-1.01953 z m 57.79883,1.01953 a 36.629371,25.201381 0 0 1 -1.19141,0.93359 36.629371,25.201381 0 0 0 1.19141,-0.93359 z m -55.48047,0.93359 a 36.629371,25.201381 0 0 0 1.26367,0.93359 36.629371,25.201381 0 0 1 -1.26367,-0.93359 z m 53.02539,0.93359 a 36.629371,25.201381 0 0 1 -1.33203,0.85352 36.629371,25.201381 0 0 0 1.33203,-0.85352 z m -50.42969,0.85352 a 36.629371,25.201381 0 0 0 1.375,0.83203 36.629371,25.201381 0 0 1 -1.375,-0.83203 z m 47.72266,0.83203 a 36.629371,25.201381 0 0 1 -1.46875,0.76758 36.629371,25.201381 0 0 0 1.46875,-0.76758 z m -44.87891,0.76758 a 36.629371,25.201381 0 0 0 1.4668,0.72266 36.629371,25.201381 0 0 1 -1.4668,-0.72266 z m 41.94336,0.72266 a 36.629371,25.201381 0 0 1 -1.58594,0.66796 36.629371,25.201381 0 0 0 1.58594,-0.66796 z m -38.89062,0.66796 a 36.629371,25.201381 0 0 0 1.57812,0.62305 36.629371,25.201381 0 0 1 -1.57812,-0.62305 z m 35.72656,0.62305 a 36.629371,25.201381 0 0 1 -1.61914,0.53711 36.629371,25.201381 0 0 0 1.61914,-0.53711 z M 337.54492,313.5 a 36.629371,25.201381 0 0 0 1.69922,0.52344 36.629371,25.201381 0 0 1 -1.69922,-0.52344 z m 29.21094,0.52344 a 36.629371,25.201381 0 0 1 -1.71094,0.42968 36.629371,25.201381 0 0 0 1.71094,-0.42968 z m -25.80078,0.42968 a 36.629371,25.201381 0 0 0 1.73047,0.39649 36.629371,25.201381 0 0 1 -1.73047,-0.39649 z m 22.35937,0.39649 a 36.629371,25.201381 0 0 1 -1.8164,0.31836 36.629371,25.201381 0 0 0 1.8164,-0.31836 z m -18.8125,0.31836 a 36.629371,25.201381 0 0 0 1.72657,0.26758 36.629371,25.201381 0 0 1 -1.72657,-0.26758 z m 15.26953,0.26758 a 36.629371,25.201381 0 0 1 -1.86523,0.19336 36.629371,25.201381 0 0 0 1.86523,-0.19336 z m -11.67773,0.19336 a 36.629371,25.201381 0 0 0 1.7793,0.14843 36.629371,25.201381 0 0 1 -1.7793,-0.14843 z m 8.0332,0.14843 A 36.629371,25.201381 0 0 1 353,315.88477 a 36.629371,25.201381 0 0 0 3.12695,-0.10743 z m -117.2539,14.07032 a 25.097903,36.780393 0 0 0 -2.14453,0.15625 25.097903,36.780393 0 0 1 2.14453,-0.15625 z m 1.9082,0.14648 a 25.097903,36.780393 0 0 1 1.24023,0.18945 25.097903,36.780393 0 0 0 -1.24023,-0.18945 z m -5.29102,0.23047 A 25.097903,36.780393 0 0 0 234.25,330.5 a 25.097903,36.780393 0 0 1 1.24023,-0.27539 z m 7.76172,0.23437 a 25.097903,36.780393 0 0 1 1.23828,0.37305 25.097903,36.780393 0 0 0 -1.23828,-0.37305 z m -10.22461,0.44336 a 25.097903,36.780393 0 0 0 -1.21875,0.45508 25.097903,36.780393 0 0 1 1.21875,-0.45508 z m 12.67383,0.38672 a 25.097903,36.780393 0 0 1 1.19727,0.54883 25.097903,36.780393 0 0 0 -1.19727,-0.54883 z m -15.08594,0.65039 a 25.097903,36.780393 0 0 0 -1.16796,0.625 25.097903,36.780393 0 0 1 1.16796,-0.625 z m 17.45508,0.5293 a 25.097903,36.780393 0 0 1 1.17188,0.73437 25.097903,36.780393 0 0 0 -1.17188,-0.73437 z m -19.77343,0.84961 a 25.097903,36.780393 0 0 0 -1.13086,0.80078 25.097903,36.780393 0 0 1 1.13086,-0.80078 z m 22.03906,0.66406 a 25.097903,36.780393 0 0 1 1.1289,0.91016 25.097903,36.780393 0 0 0 -1.1289,-0.91016 z m -24.23633,1.03125 a 25.097903,36.780393 0 0 0 -1.09766,0.98828 25.097903,36.780393 0 0 1 1.09766,-0.98828 z m 26.42383,0.83399 a 25.097903,36.780393 0 0 1 1.01172,1.02148 25.097903,36.780393 0 0 0 -1.01172,-1.02148 z m -28.50586,1.18359 a 25.097903,36.780393 0 0 0 -1.0293,1.14648 25.097903,36.780393 0 0 1 1.0293,-1.14648 z m 30.55078,0.99414 a 25.097903,36.780393 0 0 1 1.43164,1.78125 25.097903,36.780393 0 0 0 -1.43164,-1.78125 z m -32.50195,1.3418 a 25.097903,36.780393 0 0 0 -0.93946,1.28125 25.097903,36.780393 0 0 1 0.93946,-1.28125 z m -1.76953,2.58789 a 25.097903,36.780393 0 0 0 -0.84376,1.4082 25.097903,36.780393 0 0 1 0.84376,-1.4082 z m -1.60743,2.88086 a 25.097903,36.780393 0 0 0 -0.7207,1.47851 25.097903,36.780393 0 0 1 0.7207,-1.47851 z m -1.375,3.04101 a 25.097903,36.780393 0 0 0 -0.6289,1.60352 25.097903,36.780393 0 0 1 0.6289,-1.60352 z m -1.16406,3.22657 a 25.097903,36.780393 0 0 0 -0.52734,1.73046 25.097903,36.780393 0 0 1 0.52734,-1.73046 z m -0.93945,3.38671 a 25.097903,36.780393 0 0 0 -0.40821,1.80079 25.097903,36.780393 0 0 1 0.40821,-1.80079 z m -0.71289,3.54297 a 25.097903,36.780393 0 0 0 -0.2793,1.82227 25.097903,36.780393 0 0 1 0.2793,-1.82227 z m -0.4668,3.63477 a 25.097903,36.780393 0 0 0 -0.15039,1.82226 25.097903,36.780393 0 0 1 0.15039,-1.82226 z m -0.25781,4.96094 a 25.097903,36.780393 0 0 0 0.10742,3.13867 25.097903,36.780393 0 0 1 -0.10742,-3.13867 z m 0.25781,4.96093 a 25.097903,36.780393 0 0 0 0.1875,1.8125 25.097903,36.780393 0 0 1 -0.1875,-1.8125 z m 0.46875,3.64454 a 25.097903,36.780393 0 0 0 0.30078,1.7246 25.097903,36.780393 0 0 1 -0.30078,-1.7246 z m 0.71094,3.53124 a 25.097903,36.780393 0 0 0 0.41406,1.66602 25.097903,36.780393 0 0 1 -0.41406,-1.66602 z m 0.93164,3.36329 a 25.097903,36.780393 0 0 0 0.54687,1.6582 25.097903,36.780393 0 0 1 -0.54687,-1.6582 z m 1.16406,3.23242 a 25.097903,36.780393 0 0 0 0.66211,1.58398 25.097903,36.780393 0 0 1 -0.66211,-1.58398 z m 1.38281,3.06055 a 25.097903,36.780393 0 0 0 0.76367,1.47265 25.097903,36.780393 0 0 1 -0.76367,-1.47265 z m 1.60743,2.88085 a 25.097903,36.780393 0 0 0 0.83007,1.30665 25.097903,36.780393 0 0 1 -0.83007,-1.30665 z m 1.75976,2.57618 a 25.097903,36.780393 0 0 0 0.94141,1.21093 25.097903,36.780393 0 0 1 -0.94141,-1.21093 z m 32.48828,1.40429 a 25.097903,36.780393 0 0 1 -0.99023,1.10547 25.097903,36.780393 0 0 0 0.99023,-1.10547 z m -30.55664,0.91016 a 25.097903,36.780393 0 0 0 1.02539,1.07422 25.097903,36.780393 0 0 1 -1.02539,-1.07422 z m 28.53711,1.23242 a 25.097903,36.780393 0 0 1 -1.08203,0.97461 25.097903,36.780393 0 0 0 1.08203,-0.97461 z m -26.44727,0.79883 a 25.097903,36.780393 0 0 0 1.0879,0.91406 25.097903,36.780393 0 0 1 -1.0879,-0.91406 z m 24.28711,1.04492 a 25.097903,36.780393 0 0 1 -1.14257,0.81055 25.097903,36.780393 0 0 0 1.14257,-0.81055 z m -22.04296,0.68555 a 25.097903,36.780393 0 0 0 1.11132,0.73047 25.097903,36.780393 0 0 1 -1.11132,-0.73047 z m 19.74609,0.84375 a 25.097903,36.780393 0 0 1 -1.17188,0.6289 25.097903,36.780393 0 0 0 1.17188,-0.6289 z m -17.45117,0.51953 a 25.097903,36.780393 0 0 0 1.20508,0.58789 25.097903,36.780393 0 0 1 -1.20508,-0.58789 z m 15.08398,0.65625 a 25.097903,36.780393 0 0 1 -1.22461,0.46094 25.097903,36.780393 0 0 0 1.22461,-0.46094 z M 233,402.3457 a 25.097903,36.780393 0 0 0 1.25195,0.41211 A 25.097903,36.780393 0 0 1 233,402.3457 Z m 10.25977,0.45508 a 25.097903,36.780393 0 0 1 -1.23829,0.27734 25.097903,36.780393 0 0 0 1.23829,-0.27734 z m -7.76954,0.23242 a 25.097903,36.780393 0 0 0 1.23829,0.22071 25.097903,36.780393 0 0 1 -1.23829,-0.22071 z m 5.27539,0.23633 a 25.097903,36.780393 0 0 1 -1.89257,0.14063 25.097903,36.780393 0 0 0 1.89257,-0.14063 z"
       transform="matrix(0.92576147,0,0,0.92576147,19.005055,-429.58045)"
       id="path4323"
       inkscape:connector-curvature="0" />
    <path
       inkscape:connector-curvature="0"
       style="opacity:1;fill:#008000;fill-opacity:1;stroke:none;stroke-width:4;stroke-linecap:round;stroke-miterlimit:4;stroke-dasharray:none;stroke-dashoffset:0.39370039;stroke-opacity:1"
       d="m 257.45454,-357.30795 0,60.90793 c 4.13299,-5.47663 9.50383,-6.45842 15.07585,-6.47288 12.44706,6.1e-4 22.53711,14.78811 22.53688,33.02898 2.2e-4,18.24087 -10.08982,33.02836 -22.53688,33.02897 -5.57187,-0.014 -10.9427,-0.99519 -15.07585,-6.47123 l 0,60.90629 71.95623,0 c -9.73755,4.11162 -15.67652,11.40521 -15.68764,19.26581 -7.2e-4,12.49902 12.6694,22.63167 30.83631,22.63145 18.16691,2.3e-4 31.09417,-10.13243 31.09345,-22.63145 -0.0171,-7.86442 -5.96725,-15.15885 -15.71546,-19.26581 l 71.72691,0 0,-62.96497 c -4.13299,5.47663 -9.50383,8.51545 -15.07585,8.52991 -12.44706,-6.1e-4 -22.5371,-14.7881 -22.53688,-33.02897 -2.3e-4,-18.24087 10.08982,-33.02837 22.53688,-33.02898 5.57187,0.014 10.9427,3.05224 15.07585,8.52828 l 0,-62.96333 -65.43664,0 c 6.6592,4.27138 10.44739,10.25065 10.4628,16.51448 -6e-4,12.49794 -14.72638,22.62941 -32.89172,22.62981 -18.16598,2.3e-4 -32.89276,-10.13143 -32.89336,-22.62981 0.009,-6.26128 3.78812,-12.24017 10.43826,-16.51448 z"
       id="rect4242"
       sodipodi:nodetypes="cccccccccccccccccccccsccc" />
    <path
       inkscape:connector-curvature="0"
       style="opacity:1;fill:#00b000;fill-opacity:1;stroke:none;stroke-width:4;stroke-linecap:round;stroke-miterlimit:4;stroke-dasharray:none;stroke-dashoffset:0.39370039;stroke-opacity:1"
       d="m 167.88198,-395.23093 c -18.16691,-2.3e-4 -32.89408,10.13243 -32.89336,22.63145 0.009,5.73648 3.18491,11.25644 8.88422,15.44352 l -63.095759,0 0,174.92806 55.664209,0 c -7.39113,-4.29901 -7.54117,-10.61941 -7.54287,-17.27828 -7.2e-4,-12.49858 14.72545,-22.63105 32.89172,-22.63145 18.16691,-2.2e-4 32.89407,10.13243 32.89335,22.63145 -0.0139,6.66435 -0.69678,12.98567 -8.10621,17.27828 l 68.4096,0 0,-65.02036 c 4.13315,5.47604 9.50398,8.51427 15.07585,8.52827 12.44706,-6.1e-4 22.53711,-12.73107 22.53688,-30.97194 2.2e-4,-18.24087 -10.08982,-30.97132 -22.53688,-30.97193 -5.57202,0.0145 -10.94286,3.05327 -15.07585,8.52991 l 0,-65.02201 -63.11866,0 c 5.70765,-4.18465 8.89147,-9.70489 8.90712,-15.44352 7.2e-4,-12.49902 -14.72645,-22.63168 -32.89336,-22.63145 z"
       id="rect4240"
       sodipodi:nodetypes="cccccccscccccccccccc" />
    <path
       inkscape:connector-curvature="0"
       style="opacity:1;fill:#00a900;fill-opacity:1;stroke:none;stroke-width:4;stroke-linecap:round;stroke-miterlimit:4;stroke-dasharray:none;stroke-dashoffset:0.39370039;stroke-opacity:1"
       d="m 257.45454,-179.47081 0,65.43594 c -4.16747,-5.73119 -9.66504,-8.92813 -15.38011,-8.94384 -12.4477,-7.3e-4 -22.53876,12.73012 -22.53853,30.97194 -2.3e-4,18.241816 10.09083,30.972663 22.53853,30.971936 5.71293,-0.0095 11.21022,-3.198039 15.38011,-8.920843 l 0,65.4129375 174.2098,0 0,-174.9280705 -63.56336,-0.90909 c 9.74821,4.10696 10.97113,12.31048 10.98818,20.1749 7.2e-4,12.49902 -16.36281,22.63168 -34.52972,22.63145 -18.16691,2.2e-4 -34.53043,-10.13243 -34.52971,-22.63145 0.0111,-7.8606 0.67736,-15.88146 10.41491,-19.99308 z"
       id="rect4244"
       sodipodi:nodetypes="ccccccccccccccc" />
    <path
       inkscape:connector-curvature="0"
       style="opacity:1;fill:#008000;fill-opacity:1;stroke:none;stroke-width:4;stroke-linecap:round;stroke-miterlimit:4;stroke-dasharray:none;stroke-dashoffset:0.39370039;stroke-opacity:1"
       d="m 161.34871,-219.38054 c -18.16627,4e-4 -30.83539,10.13287 -30.83467,22.63145 0.002,6.65887 4.26582,12.97927 11.65695,17.27828 l -61.835336,0 0,174.9280705 174.209806,0 0,-61.2988615 c -4.16989,5.722804 -9.66718,6.854331 -15.38011,6.863805 -12.4477,7.27e-4 -22.53876,-14.787158 -22.53853,-33.028974 -2.3e-4,-18.24182 10.09083,-33.02971 22.53853,-33.02898 5.71507,0.0157 11.21264,1.15562 15.38011,6.8868 l 0,-61.32186 -74.06646,0 c 7.40942,-4.29261 11.69212,-10.61393 11.70602,-17.27828 7.2e-4,-12.49902 -12.6694,-22.63167 -30.83631,-22.63145 z"
       id="rect4246"
       sodipodi:nodetypes="scccccccccccccs" />
  </g>
</svg>
