<?xml version="1.0" encoding="UTF-8" standalone="no"?>
<!-- Created with Inkscape (http://www.inkscape.org/) -->

<svg
   xmlns:dc="http://purl.org/dc/elements/1.1/"
   xmlns:cc="http://creativecommons.org/ns#"
   xmlns:rdf="http://www.w3.org/1999/02/22-rdf-syntax-ns#"
   xmlns:svg="http://www.w3.org/2000/svg"
   xmlns="http://www.w3.org/2000/svg"
   xmlns:xlink="http://www.w3.org/1999/xlink"
   xmlns:sodipodi="http://sodipodi.sourceforge.net/DTD/sodipodi-0.dtd"
   xmlns:inkscape="http://www.inkscape.org/namespaces/inkscape"
   width="64"
   height="64"
   id="svg3003"
   version="1.1"
   inkscape:version="0.91 r13725"
   sodipodi:docname="app-backup-64.svg"
   inkscape:export-filename="C:\wamp\www\TESTY\git-hub\system-icons\file-types\app-backup\app-backup-64.png"
   inkscape:export-xdpi="90"
   inkscape:export-ydpi="90">
  <defs
     id="defs3005">
    <linearGradient
       id="linearGradient10529">
      <stop
         id="stop10531"
         offset="0"
         style="stop-color:#d4d4d4;stop-opacity:1;" />
      <stop
         style="stop-color:#e9e9e9;stop-opacity:1;"
         offset="0.84210408"
         id="stop10533" />
      <stop
         id="stop10535"
         offset="1"
         style="stop-color:#ffffff;stop-opacity:1;" />
    </linearGradient>
    <linearGradient
       id="linearGradient10512">
      <stop
         style="stop-color:#d4d4d4;stop-opacity:1;"
         offset="0"
         id="stop10514" />
      <stop
         id="stop10527"
         offset="0.5"
         style="stop-color:#e9e9e9;stop-opacity:1;" />
      <stop
         style="stop-color:#ffffff;stop-opacity:1;"
         offset="1"
         id="stop10516" />
    </linearGradient>
    <linearGradient
       id="linearGradient8521">
      <stop
         style="stop-color:#8b4513;stop-opacity:1;"
         offset="0"
         id="stop8523" />
      <stop
         id="stop8529"
         offset="0.2"
         style="stop-color:#753b10;stop-opacity:1;" />
      <stop
         style="stop-color:#753b10;stop-opacity:1;"
         offset="0.80000001"
         id="stop8531" />
      <stop
         style="stop-color:#8b4513;stop-opacity:0.9856115;"
         offset="1"
         id="stop8525" />
    </linearGradient>
    <clipPath
       id="clipPath3008"
       clipPathUnits="userSpaceOnUse">
      <path
         id="path3010"
         d="M 0,4105.95 0,0 l 5477.71,0 0,4105.95 -5477.71,0 z"
         inkscape:connector-curvature="0" />
    </clipPath>
    <mask
       id="mask10161"
       maskUnits="userSpaceOnUse">
      <path
         inkscape:connector-curvature="0"
         style="fill:#ffffff;fill-opacity:1;fill-rule:nonzero;stroke:none"
         d="m 292,-356 0,88 158.1155,0 c 5.75,0 -1.34601,-3.67332 -2,-7.5 l 0,-72.5 c 0,-4 7.99887,-8.11642 2,-8 z m 143.9905,42.65625 c 0.0733,0.43671 0.125,0.88559 0.125,1.34375 0,0.45816 -0.0517,0.90704 -0.125,1.34375 z"
         id="path10163"
         sodipodi:nodetypes="ccscssccscc" />
    </mask>
    <mask
       id="mask10155"
       maskUnits="userSpaceOnUse">
      <path
         inkscape:connector-curvature="0"
         style="fill:#ffffff;fill-opacity:1;fill-rule:nonzero;stroke:none"
         d="m 292,-396 0,88 158.1155,0 c 5.75,0 -1.34601,-3.67332 -2,-7.5 l 0,-72.5 c 0,-4 7.99887,-8.11642 2,-8 z m 143.9905,42.65625 c 0.0733,0.43671 0.125,0.88559 0.125,1.34375 0,0.45816 -0.0517,0.90704 -0.125,1.34375 z"
         id="path10157"
         sodipodi:nodetypes="ccscssccscc" />
    </mask>
    <mask
       id="mask6565"
       maskUnits="userSpaceOnUse">
      <path
         style="fill:#ffffff;fill-opacity:1;fill-rule:nonzero;stroke:none"
         d="m -346,-310.64283 c -6,0 2,4 2,8 l 0,72.5 c -0.65399,3.82669 -7.75,7.5 -2,7.5 l 290,0 c 16,0 35.47187,-9.634 44,-24 6.12557,-10.31878 5.77451,-25.48072 0,-36 -8.3656,-15.23939 -28,-28 -44,-28 l -290,0 z m 22,36 20,0 c 4.432,0 8,3.56801 8,8 0,4.43201 -3.568,8 -8,8 l -20,0 c -4.432,0 -8,-3.56799 -8,-8 0,-4.43199 3.568,-8 8,-8 z m 68,0 20,0 c 4.432,0 8,3.56801 8,8 0,4.43201 -3.568,8 -8,8 l -20,0 c -4.432,0 -8,-3.56799 -8,-8 0,-4.43199 3.568,-8 8,-8 z m 68,0 20,0 c 4.432,0 8,3.56801 8,8 0,4.43201 -3.568,8 -8,8 l -20,0 c -4.432,0 -8,-3.56799 -8,-8 0,-4.43199 3.568,-8 8,-8 z"
         id="path6567"
         inkscape:connector-curvature="0" />
    </mask>
    <mask
       id="mask6083"
       maskUnits="userSpaceOnUse">
      <path
         style="fill:#ffffff;fill-opacity:1;fill-rule:nonzero;stroke:none"
         d="m -346,-240 c -6,0 2,4 2,8 l 0,72.5 c -0.65399,3.82668 -7.75,7.5 -2,7.5 l 290,0 c 16,0 35.47187,-9.634 44,-24 6.12557,-10.31879 5.77451,-25.48073 0,-36 -8.3656,-15.23939 -28,-28 -44,-28 l -290,0 z m 22,36 20,0 c 4.432,0 8,3.568 8,8 0,4.432 -3.568,8 -8,8 l -20,0 c -4.432,0 -8,-3.568 -8,-8 0,-4.432 3.568,-8 8,-8 z m 68,0 20,0 c 4.432,0 8,3.568 8,8 0,4.432 -3.568,8 -8,8 l -20,0 c -4.432,0 -8,-3.568 -8,-8 0,-4.432 3.568,-8 8,-8 z m 68,0 20,0 c 4.432,0 8,3.568 8,8 0,4.432 -3.568,8 -8,8 l -20,0 c -4.432,0 -8,-3.568 -8,-8 0,-4.432 3.568,-8 8,-8 z"
         id="path6085"
         inkscape:connector-curvature="0" />
    </mask>
    <clipPath
       clipPathUnits="userSpaceOnUse"
       id="clipPath3008-4">
      <path
         d="M 0,4105.95 0,0 l 5477.71,0 0,4105.95 -5477.71,0 z"
         id="path3010-0" />
    </clipPath>
    <linearGradient
       id="linearGradient4066">
      <stop
         id="stop4068"
         offset="0"
         style="stop-color:#7f4124;stop-opacity:1;" />
      <stop
         id="stop4070"
         offset="1"
         style="stop-color:#8b4513;stop-opacity:1;" />
    </linearGradient>
    <linearGradient
       id="linearGradient4084">
      <stop
         style="stop-color:#8b4513;stop-opacity:1;"
         offset="0"
         id="stop4086" />
      <stop
         style="stop-color:#5a3920;stop-opacity:1;"
         offset="1"
         id="stop4088" />
    </linearGradient>
    <linearGradient
       id="linearGradient7905">
      <stop
         id="stop7907"
         offset="0"
         style="stop-color:#d4d4d4;stop-opacity:1;" />
      <stop
         id="stop7909"
         offset="1"
         style="stop-color:#ffffff;stop-opacity:1;" />
    </linearGradient>
    <linearGradient
       id="linearGradient7905-7">
      <stop
         id="stop7907-4"
         offset="0"
         style="stop-color:#d4d4d4;stop-opacity:1;" />
      <stop
         id="stop7909-0"
         offset="1"
         style="stop-color:#ffffff;stop-opacity:1;" />
    </linearGradient>
    <linearGradient
       id="linearGradient5017">
      <stop
         id="stop5019"
         offset="0"
         style="stop-color:#d4d4d4;stop-opacity:1;" />
      <stop
         id="stop5021"
         offset="1"
         style="stop-color:#ffffff;stop-opacity:1;" />
    </linearGradient>
    <linearGradient
       id="linearGradient4084-8">
      <stop
         style="stop-color:#8b4513;stop-opacity:1;"
         offset="0"
         id="stop4086-8" />
      <stop
         style="stop-color:#5a3920;stop-opacity:1;"
         offset="1"
         id="stop4088-2" />
    </linearGradient>
    <linearGradient
       id="linearGradient5028">
      <stop
         style="stop-color:#8b4513;stop-opacity:1;"
         offset="0"
         id="stop5030" />
      <stop
         style="stop-color:#5a3920;stop-opacity:1;"
         offset="1"
         id="stop5032" />
    </linearGradient>
    <linearGradient
       id="linearGradient5035">
      <stop
         style="stop-color:#8b4513;stop-opacity:1;"
         offset="0"
         id="stop5037" />
      <stop
         style="stop-color:#5a3920;stop-opacity:1;"
         offset="1"
         id="stop5039" />
    </linearGradient>
    <linearGradient
       id="linearGradient5042">
      <stop
         style="stop-color:#8b4513;stop-opacity:1;"
         offset="0"
         id="stop5044" />
      <stop
         style="stop-color:#5a3920;stop-opacity:1;"
         offset="1"
         id="stop5046" />
    </linearGradient>
    <linearGradient
       id="linearGradient5055">
      <stop
         style="stop-color:#8b4513;stop-opacity:1;"
         offset="0"
         id="stop5057" />
      <stop
         style="stop-color:#5a3920;stop-opacity:1;"
         offset="1"
         id="stop5059" />
    </linearGradient>
    <linearGradient
       id="linearGradient5062">
      <stop
         style="stop-color:#8b4513;stop-opacity:1;"
         offset="0"
         id="stop5064" />
      <stop
         style="stop-color:#5a3920;stop-opacity:1;"
         offset="1"
         id="stop5066" />
    </linearGradient>
    <linearGradient
       id="linearGradient5073">
      <stop
         style="stop-color:#8b4513;stop-opacity:1;"
         offset="0"
         id="stop5075" />
      <stop
         style="stop-color:#5a3920;stop-opacity:1;"
         offset="1"
         id="stop5077" />
    </linearGradient>
    <linearGradient
       id="linearGradient5080">
      <stop
         style="stop-color:#8b4513;stop-opacity:1;"
         offset="0"
         id="stop5082" />
      <stop
         style="stop-color:#5a3920;stop-opacity:1;"
         offset="1"
         id="stop5084" />
    </linearGradient>
    <linearGradient
       id="linearGradient5087">
      <stop
         id="stop5089"
         offset="0"
         style="stop-color:#d4d4d4;stop-opacity:1;" />
      <stop
         id="stop5091"
         offset="1"
         style="stop-color:#ffffff;stop-opacity:1;" />
    </linearGradient>
    <linearGradient
       id="linearGradient5094">
      <stop
         id="stop5096"
         offset="0"
         style="stop-color:#d4d4d4;stop-opacity:1;" />
      <stop
         id="stop5098"
         offset="1"
         style="stop-color:#ffffff;stop-opacity:1;" />
    </linearGradient>
    <linearGradient
       inkscape:collect="always"
       xlink:href="#linearGradient4084-8"
       id="linearGradient7384"
       gradientUnits="userSpaceOnUse"
       gradientTransform="matrix(0.09895834,0,0,-0.09895834,51.349681,12.604155)"
       x1="-213"
       y1="-236"
       x2="-213"
       y2="-234" />
    <linearGradient
       inkscape:collect="always"
       xlink:href="#linearGradient4084-8"
       id="linearGradient7387"
       gradientUnits="userSpaceOnUse"
       gradientTransform="matrix(0.09895834,0,0,-0.09895834,51.349681,12.604155)"
       x1="-224"
       y1="-228"
       x2="-224"
       y2="-229" />
    <linearGradient
       inkscape:collect="always"
       xlink:href="#linearGradient4084-8"
       id="linearGradient7628"
       gradientUnits="userSpaceOnUse"
       x1="-213"
       y1="-236"
       x2="-213"
       y2="-234"
       gradientTransform="matrix(0.09895834,0,0,0.09895834,51.349681,51.395834)" />
    <linearGradient
       inkscape:collect="always"
       xlink:href="#linearGradient4084-8"
       id="linearGradient7631"
       gradientUnits="userSpaceOnUse"
       x1="-224"
       y1="-228"
       x2="-224"
       y2="-229"
       gradientTransform="matrix(0.09895834,0,0,0.09895834,51.349681,51.395834)" />
    <mask
       maskUnits="userSpaceOnUse"
       id="mask8557">
      <path
         sodipodi:nodetypes="ccccsssscsscssssssssssssssssss"
         inkscape:connector-curvature="0"
         id="path8559"
         d="m -337.00728,-246.52631 c -20.21052,0 -10.10526,0 0,20.21053 l 0,60.63157 c -10.10526,20.21053 -20.21052,20.21053 0,20.21053 l 282.947349,0 c 15.999996,0 33.531798,-16.16032 42.059932,-30.52632 6.1255674,-10.31879 5.7745106,-25.48073 0,-36 -8.365601,-15.23939 -26.059936,-34.52631 -42.059932,-34.52631 z m 20.21052,40.42105 20.21053,0 c 4.432,0 9.51904,10e-6 10.10526,10.10527 -0.5862,10.10527 -5.67326,10.10526 -10.10526,10.10526 l -20.21053,0 c -4.432,0 -10.10526,0 -10.10526,-10.10526 0,-10.10527 5.67326,-10.10527 10.10526,-10.10527 z m 60.63158,0 20.21052,0 c 4.432,0 10.10527,0 10.10527,10.10527 0,10.10526 -5.67327,10.10526 -10.10527,10.10526 l -20.21052,0 c -4.432,0 -10.10526,0 -10.10526,-10.10526 0,-10.10527 5.67326,-10.10527 10.10526,-10.10527 z m 70.73684,0 20.21052,0 c 4.432,0 10.10526,0 10.10526,10.10527 0,10.10526 -5.67326,10.10526 -10.10526,10.10526 l -20.21052,0 c -4.432,0 -10.10527,0 -10.10527,-10.10526 0,-10.10527 5.67327,-10.10527 10.10527,-10.10527 z"
         style="fill:#ffffff;fill-opacity:1;fill-rule:nonzero;stroke:none" />
    </mask>
    <mask
       maskUnits="userSpaceOnUse"
       id="mask8563">
      <path
         sodipodi:nodetypes="ccccsssscsscssssssssssssssssss"
         inkscape:connector-curvature="0"
         id="path8565"
         d="m -337.00728,-317.16913 c -20.21052,0 -10.10526,0 0,20.21052 l 0,60.63158 c -10.10526,20.21052 -20.21052,20.21052 0,20.21052 l 282.947349,0 c 15.999996,0 33.531798,-16.16031 42.059932,-30.52632 6.1255674,-10.31879 5.7745106,-25.48073 0,-36 -8.365601,-15.23939 -26.059936,-34.5263 -42.059932,-34.5263 z m 20.21052,40.42105 20.21053,0 c 4.432,0 9.51904,1e-5 10.10526,10.10526 -0.5862,10.10527 -5.67326,10.10526 -10.10526,10.10526 l -20.21053,0 c -4.432,0 -10.10526,0 -10.10526,-10.10526 0,-10.10526 5.67326,-10.10526 10.10526,-10.10526 z m 60.63158,0 20.21052,0 c 4.432,0 10.10527,0 10.10527,10.10526 0,10.10526 -5.67327,10.10526 -10.10527,10.10526 l -20.21052,0 c -4.432,0 -10.10526,0 -10.10526,-10.10526 0,-10.10526 5.67326,-10.10526 10.10526,-10.10526 z m 70.73684,0 20.21052,0 c 4.432,0 10.10526,0 10.10526,10.10526 0,10.10526 -5.67326,10.10526 -10.10526,10.10526 l -20.21052,0 c -4.432,0 -10.10527,0 -10.10527,-10.10526 0,-10.10526 5.67327,-10.10526 10.10527,-10.10526 z"
         style="fill:#ffffff;fill-opacity:1;fill-rule:nonzero;stroke:none" />
    </mask>
    <linearGradient
       inkscape:collect="always"
       xlink:href="#linearGradient8521"
       id="linearGradient9036"
       x1="35"
       y1="35"
       x2="35"
       y2="36"
       gradientUnits="userSpaceOnUse"
       gradientTransform="translate(0,-20)" />
    <linearGradient
       inkscape:collect="always"
       xlink:href="#linearGradient8521"
       id="linearGradient9044"
       x1="35"
       y1="28"
       x2="35"
       y2="29"
       gradientUnits="userSpaceOnUse"
       gradientTransform="translate(0,-20)" />
    <mask
       maskUnits="userSpaceOnUse"
       id="mask9133">
      <path
         sodipodi:nodetypes="ccccccc"
         id="path9135"
         d="m 286.24563,-402.52632 0,101.05263 141.47367,0 c 20.21053,0 10.10526,0 0,-20.21053 l 0,-60.63157 c 10.10526,-20.21053 20.21053,-20.21053 0,-20.21053 z"
         style="fill:#ffffff;fill-opacity:1;fill-rule:nonzero;stroke:none"
         inkscape:connector-curvature="0" />
    </mask>
    <mask
       maskUnits="userSpaceOnUse"
       id="mask9139">
      <path
         sodipodi:nodetypes="ccccccc"
         id="path9141"
         d="m 286.24563,-362.52631 0,101.05262 141.47367,0 c 20.21053,0 10.10527,0 0,-20.21052 l 0,-60.63158 c 10.10527,-20.21052 20.21053,-20.21052 0,-20.21052 z"
         style="fill:#ffffff;fill-opacity:1;fill-rule:nonzero;stroke:none"
         inkscape:connector-curvature="0" />
    </mask>
    <linearGradient
       inkscape:collect="always"
       xlink:href="#linearGradient8521"
       id="linearGradient9623"
       gradientUnits="userSpaceOnUse"
       x1="20"
       y1="28"
       x2="20"
       y2="29" />
    <linearGradient
       inkscape:collect="always"
       xlink:href="#linearGradient8521"
       id="linearGradient9625"
       gradientUnits="userSpaceOnUse"
       x1="20"
       y1="35"
       x2="20"
       y2="36" />
    <linearGradient
       inkscape:collect="always"
       xlink:href="#linearGradient8521"
       id="linearGradient9746"
       gradientUnits="userSpaceOnUse"
       x1="20"
       y1="35"
       x2="20"
       y2="36"
       gradientTransform="translate(0,-16)" />
    <linearGradient
       inkscape:collect="always"
       xlink:href="#linearGradient8521"
       id="linearGradient9867"
       gradientUnits="userSpaceOnUse"
       x1="20"
       y1="28"
       x2="20"
       y2="29"
       gradientTransform="translate(0,-16)" />
    <radialGradient
       inkscape:collect="always"
       xlink:href="#linearGradient10512"
       id="radialGradient10510"
       cx="193.6465"
       cy="-192"
       fx="193.6465"
       fy="-192"
       r="9"
       gradientTransform="matrix(1,0,0,2.2456143,0,239.15795)"
       gradientUnits="userSpaceOnUse" />
    <linearGradient
       gradientUnits="userSpaceOnUse"
       y2="-148"
       x2="328"
       y1="-372"
       x1="172"
       id="linearGradient4283"
       xlink:href="#linearGradient4277"
       inkscape:collect="always" />
    <linearGradient
       y2="208.90001"
       x2="-94.588242"
       y1="63.100014"
       x1="-158.11766"
       gradientTransform="matrix(0.94444445,0,0,0.49382716,369.33334,-227.1605)"
       gradientUnits="userSpaceOnUse"
       id="linearGradient4271"
       xlink:href="#linearGradient4233"
       inkscape:collect="always" />
    <linearGradient
       y2="208.90001"
       x2="-94.588242"
       y1="63.100014"
       x1="-158.11766"
       gradientTransform="matrix(0.94444445,0,0,0.49382716,369.33334,-227.1605)"
       gradientUnits="userSpaceOnUse"
       id="linearGradient4264"
       xlink:href="#linearGradient4233"
       inkscape:collect="always" />
    <mask
       id="mask10161-4"
       maskUnits="userSpaceOnUse">
      <path
         inkscape:connector-curvature="0"
         style="fill:#ffffff;fill-opacity:1;fill-rule:nonzero;stroke:none"
         d="m 292,-356 0,88 158.1155,0 c 5.75,0 -1.34601,-3.67332 -2,-7.5 l 0,-72.5 c 0,-4 7.99887,-8.11642 2,-8 z m 143.9905,42.65625 c 0.0733,0.43671 0.125,0.88559 0.125,1.34375 0,0.45816 -0.0517,0.90704 -0.125,1.34375 z"
         id="path10163-2"
         sodipodi:nodetypes="ccscssccscc" />
    </mask>
    <mask
       id="mask10155-6"
       maskUnits="userSpaceOnUse">
      <path
         inkscape:connector-curvature="0"
         style="fill:#ffffff;fill-opacity:1;fill-rule:nonzero;stroke:none"
         d="m 292,-396 0,88 158.1155,0 c 5.75,0 -1.34601,-3.67332 -2,-7.5 l 0,-72.5 c 0,-4 7.99887,-8.11642 2,-8 z m 143.9905,42.65625 c 0.0733,0.43671 0.125,0.88559 0.125,1.34375 0,0.45816 -0.0517,0.90704 -0.125,1.34375 z"
         id="path10157-1"
         sodipodi:nodetypes="ccscssccscc" />
    </mask>
    <mask
       id="mask6565-2"
       maskUnits="userSpaceOnUse">
      <path
         style="fill:#ffffff;fill-opacity:1;fill-rule:nonzero;stroke:none"
         d="m -346,-310.64283 c -6,0 2,4 2,8 l 0,72.5 c -0.65399,3.82669 -7.75,7.5 -2,7.5 l 290,0 c 16,0 35.47187,-9.634 44,-24 6.12557,-10.31878 5.77451,-25.48072 0,-36 -8.3656,-15.23939 -28,-28 -44,-28 l -290,0 z m 22,36 20,0 c 4.432,0 8,3.56801 8,8 0,4.43201 -3.568,8 -8,8 l -20,0 c -4.432,0 -8,-3.56799 -8,-8 0,-4.43199 3.568,-8 8,-8 z m 68,0 20,0 c 4.432,0 8,3.56801 8,8 0,4.43201 -3.568,8 -8,8 l -20,0 c -4.432,0 -8,-3.56799 -8,-8 0,-4.43199 3.568,-8 8,-8 z m 68,0 20,0 c 4.432,0 8,3.56801 8,8 0,4.43201 -3.568,8 -8,8 l -20,0 c -4.432,0 -8,-3.56799 -8,-8 0,-4.43199 3.568,-8 8,-8 z"
         id="path6567-7"
         inkscape:connector-curvature="0" />
    </mask>
    <mask
       id="mask6083-1"
       maskUnits="userSpaceOnUse">
      <path
         style="fill:#ffffff;fill-opacity:1;fill-rule:nonzero;stroke:none"
         d="m -346,-240 c -6,0 2,4 2,8 l 0,72.5 c -0.65399,3.82668 -7.75,7.5 -2,7.5 l 290,0 c 16,0 35.47187,-9.634 44,-24 6.12557,-10.31879 5.77451,-25.48073 0,-36 -8.3656,-15.23939 -28,-28 -44,-28 l -290,0 z m 22,36 20,0 c 4.432,0 8,3.568 8,8 0,4.432 -3.568,8 -8,8 l -20,0 c -4.432,0 -8,-3.568 -8,-8 0,-4.432 3.568,-8 8,-8 z m 68,0 20,0 c 4.432,0 8,3.568 8,8 0,4.432 -3.568,8 -8,8 l -20,0 c -4.432,0 -8,-3.568 -8,-8 0,-4.432 3.568,-8 8,-8 z m 68,0 20,0 c 4.432,0 8,3.568 8,8 0,4.432 -3.568,8 -8,8 l -20,0 c -4.432,0 -8,-3.568 -8,-8 0,-4.432 3.568,-8 8,-8 z"
         id="path6085-5"
         inkscape:connector-curvature="0" />
    </mask>
    <clipPath
       clipPathUnits="userSpaceOnUse"
       id="clipPath3008-7">
      <path
         d="M 0,4105.95 0,0 l 5477.71,0 0,4105.95 -5477.71,0 z"
         id="path3010-1" />
    </clipPath>
    <linearGradient
       id="linearGradient4066-5">
      <stop
         id="stop4068-5"
         offset="0"
         style="stop-color:#7f4124;stop-opacity:1;" />
      <stop
         id="stop4070-1"
         offset="1"
         style="stop-color:#8b4513;stop-opacity:1;" />
    </linearGradient>
    <linearGradient
       id="linearGradient4084-4">
      <stop
         style="stop-color:#8b4513;stop-opacity:1;"
         offset="0"
         id="stop4086-88" />
      <stop
         style="stop-color:#5a3920;stop-opacity:1;"
         offset="1"
         id="stop4088-24" />
    </linearGradient>
    <linearGradient
       id="linearGradient7905-4">
      <stop
         id="stop7907-0"
         offset="0"
         style="stop-color:#d4d4d4;stop-opacity:1;" />
      <stop
         id="stop7909-9"
         offset="1"
         style="stop-color:#ffffff;stop-opacity:1;" />
    </linearGradient>
    <linearGradient
       id="linearGradient4233"
       inkscape:collect="always">
      <stop
         id="stop4235"
         offset="0"
         style="stop-color:#0000ff;stop-opacity:1;" />
      <stop
         id="stop4237"
         offset="1"
         style="stop-color:#0000ff;stop-opacity:0;" />
    </linearGradient>
    <linearGradient
       id="linearGradient4277">
      <stop
         id="stop4279"
         offset="0"
         style="stop-color:#4a4aff;stop-opacity:1;" />
      <stop
         id="stop4281"
         offset="1"
         style="stop-color:#0000d7;stop-opacity:1;" />
    </linearGradient>
    <linearGradient
       inkscape:collect="always"
       xlink:href="#linearGradient4277"
       id="linearGradient3678"
       gradientUnits="userSpaceOnUse"
       x1="172"
       y1="-372"
       x2="328"
       y2="-148"
       gradientTransform="matrix(0.15684345,0,0,0.15684345,58.202321,59.128997)" />
    <linearGradient
       inkscape:collect="always"
       xlink:href="#linearGradient4277"
       id="linearGradient3689"
       gradientUnits="userSpaceOnUse"
       gradientTransform="matrix(0.15684345,0,0,0.15684345,58.202321,59.128997)"
       x1="172"
       y1="-372"
       x2="328"
       y2="-148" />
    <linearGradient
       inkscape:collect="always"
       xlink:href="#linearGradient4277"
       id="linearGradient3692"
       gradientUnits="userSpaceOnUse"
       gradientTransform="matrix(0.09174311,0,0,0.09174311,6.6802376,46.669721)"
       x1="172"
       y1="-372"
       x2="328"
       y2="-148" />
    <linearGradient
       id="linearGradient4385"
       inkscape:collect="always">
      <stop
         id="stop4387"
         offset="0"
         style="stop-color:#cccccc;stop-opacity:1;" />
      <stop
         id="stop4389"
         offset="1"
         style="stop-color:#cccccc;stop-opacity:0;" />
    </linearGradient>
    <linearGradient
       id="linearGradient3803"
       inkscape:collect="always">
      <stop
         id="stop3805"
         offset="0"
         style="stop-color:#ffffff;stop-opacity:1;" />
      <stop
         id="stop3807"
         offset="1"
         style="stop-color:#ffffff;stop-opacity:0" />
    </linearGradient>
    <clipPath
       clipPathUnits="userSpaceOnUse"
       id="clipPath3008-8">
      <path
         d="M 0,4105.95 0,0 l 5477.71,0 0,4105.95 -5477.71,0 z"
         id="path3010-3" />
    </clipPath>
    <mask
       id="mask6083-7"
       maskUnits="userSpaceOnUse">
      <path
         style="fill:#ffffff;fill-opacity:1;fill-rule:nonzero;stroke:none"
         d="m -346,-240 c -6,0 2,4 2,8 l 0,72.5 c -0.65399,3.82668 -7.75,7.5 -2,7.5 l 290,0 c 16,0 35.47187,-9.634 44,-24 6.12557,-10.31879 5.77451,-25.48073 0,-36 -8.3656,-15.23939 -28,-28 -44,-28 l -290,0 z m 22,36 20,0 c 4.432,0 8,3.568 8,8 0,4.432 -3.568,8 -8,8 l -20,0 c -4.432,0 -8,-3.568 -8,-8 0,-4.432 3.568,-8 8,-8 z m 68,0 20,0 c 4.432,0 8,3.568 8,8 0,4.432 -3.568,8 -8,8 l -20,0 c -4.432,0 -8,-3.568 -8,-8 0,-4.432 3.568,-8 8,-8 z m 68,0 20,0 c 4.432,0 8,3.568 8,8 0,4.432 -3.568,8 -8,8 l -20,0 c -4.432,0 -8,-3.568 -8,-8 0,-4.432 3.568,-8 8,-8 z"
         id="path6085-2"
         inkscape:connector-curvature="0" />
    </mask>
    <mask
       id="mask6565-3"
       maskUnits="userSpaceOnUse">
      <path
         style="fill:#ffffff;fill-opacity:1;fill-rule:nonzero;stroke:none"
         d="m -346,-310.64283 c -6,0 2,4 2,8 l 0,72.5 c -0.65399,3.82669 -7.75,7.5 -2,7.5 l 290,0 c 16,0 35.47187,-9.634 44,-24 6.12557,-10.31878 5.77451,-25.48072 0,-36 -8.3656,-15.23939 -28,-28 -44,-28 l -290,0 z m 22,36 20,0 c 4.432,0 8,3.56801 8,8 0,4.43201 -3.568,8 -8,8 l -20,0 c -4.432,0 -8,-3.56799 -8,-8 0,-4.43199 3.568,-8 8,-8 z m 68,0 20,0 c 4.432,0 8,3.56801 8,8 0,4.43201 -3.568,8 -8,8 l -20,0 c -4.432,0 -8,-3.56799 -8,-8 0,-4.43199 3.568,-8 8,-8 z m 68,0 20,0 c 4.432,0 8,3.56801 8,8 0,4.43201 -3.568,8 -8,8 l -20,0 c -4.432,0 -8,-3.56799 -8,-8 0,-4.43199 3.568,-8 8,-8 z"
         id="path6567-2"
         inkscape:connector-curvature="0" />
    </mask>
    <mask
       id="mask10155-7"
       maskUnits="userSpaceOnUse">
      <path
         inkscape:connector-curvature="0"
         style="fill:#ffffff;fill-opacity:1;fill-rule:nonzero;stroke:none"
         d="m 292,-396 0,88 158.1155,0 c 5.75,0 -1.34601,-3.67332 -2,-7.5 l 0,-72.5 c 0,-4 7.99887,-8.11642 2,-8 z m 143.9905,42.65625 c 0.0733,0.43671 0.125,0.88559 0.125,1.34375 0,0.45816 -0.0517,0.90704 -0.125,1.34375 z"
         id="path10157-3"
         sodipodi:nodetypes="ccscssccscc" />
    </mask>
    <mask
       id="mask10161-5"
       maskUnits="userSpaceOnUse">
      <path
         inkscape:connector-curvature="0"
         style="fill:#ffffff;fill-opacity:1;fill-rule:nonzero;stroke:none"
         d="m 292,-356 0,88 158.1155,0 c 5.75,0 -1.34601,-3.67332 -2,-7.5 l 0,-72.5 c 0,-4 7.99887,-8.11642 2,-8 z m 143.9905,42.65625 c 0.0733,0.43671 0.125,0.88559 0.125,1.34375 0,0.45816 -0.0517,0.90704 -0.125,1.34375 z"
         id="path10163-0"
         sodipodi:nodetypes="ccscssccscc" />
    </mask>
    <linearGradient
       y2="208.90001"
       x2="-94.588242"
       y1="63.100014"
       x1="-158.11766"
       gradientTransform="matrix(0.94444445,0,0,0.49382716,369.33334,-227.1605)"
       gradientUnits="userSpaceOnUse"
       id="linearGradient4517"
       xlink:href="#linearGradient4233"
       inkscape:collect="always" />
    <linearGradient
       y2="208.90001"
       x2="-94.588242"
       y1="63.100014"
       x1="-158.11766"
       gradientTransform="matrix(0.94444445,0,0,0.49382716,369.33334,-227.1605)"
       gradientUnits="userSpaceOnUse"
       id="linearGradient4519"
       xlink:href="#linearGradient4233"
       inkscape:collect="always" />
    <radialGradient
       gradientUnits="userSpaceOnUse"
       gradientTransform="matrix(0.8568867,1.023978,-1.8222964,1.5249367,-660.91879,39.629912)"
       r="168.01449"
       fy="-374.62183"
       fx="152"
       cy="-374.62183"
       cx="152"
       id="radialGradient3809"
       xlink:href="#linearGradient3803"
       inkscape:collect="always" />
    <radialGradient
       r="168.01449"
       fy="-374.62183"
       fx="152"
       cy="-374.62183"
       cx="152"
       gradientTransform="matrix(0.8568867,1.023978,-1.8222964,1.5249367,-660.91879,487.62991)"
       gradientUnits="userSpaceOnUse"
       id="radialGradient3814"
       xlink:href="#linearGradient3803"
       inkscape:collect="always" />
    <linearGradient
       gradientTransform="matrix(0.09992601,-0.05769231,0.05769231,0.09992601,0.84615325,57.76919)"
       y2="-4.4204702"
       x2="344.34351"
       y1="-146.44864"
       x1="426.34354"
       gradientUnits="userSpaceOnUse"
       id="linearGradient4372"
       xlink:href="#linearGradient4385"
       inkscape:collect="always" />
  </defs>
  <sodipodi:namedview
     id="base"
     pagecolor="#ffffff"
     bordercolor="#666666"
     borderopacity="1.0"
     inkscape:pageopacity="0.0"
     inkscape:pageshadow="2"
     inkscape:zoom="45.254834"
     inkscape:cx="21.220548"
     inkscape:cy="19.614992"
     inkscape:current-layer="layer1"
     showgrid="true"
     inkscape:document-units="px"
     inkscape:grid-bbox="true"
     showguides="true"
     inkscape:guide-bbox="true"
     inkscape:window-width="1902"
     inkscape:window-height="1010"
     inkscape:window-x="2881"
     inkscape:window-y="541"
     inkscape:window-maximized="1"
     inkscape:object-paths="true"
     inkscape:object-nodes="true">
    <inkscape:grid
       type="xygrid"
       id="grid3011"
       empspacing="4"
       visible="true"
       enabled="true"
       snapvisiblegridlinesonly="true" />
    <sodipodi:guide
       orientation="1,0"
       position="8,176"
       id="guide3013" />
    <sodipodi:guide
       orientation="0,1"
       position="184,496"
       id="guide3015" />
    <sodipodi:guide
       orientation="1,0"
       position="496,248"
       id="guide3019" />
    <sodipodi:guide
       orientation="1,0"
       position="56,96"
       id="guide3104" />
    <sodipodi:guide
       orientation="0,1"
       position="64,56"
       id="guide3106" />
    <sodipodi:guide
       orientation="1,0"
       position="24,31"
       id="guide3176" />
    <sodipodi:guide
       orientation="0,1"
       position="-5,28"
       id="guide3178" />
    <sodipodi:guide
       orientation="0,1"
       position="21,28.2"
       id="guide8535" />
    <sodipodi:guide
       orientation="0,1"
       position="21,35.2"
       id="guide8537" />
    <sodipodi:guide
       orientation="0,1"
       position="22,35.8"
       id="guide8539" />
    <sodipodi:guide
       orientation="1,0"
       position="37.6,40"
       id="guide10543" />
  </sodipodi:namedview>
  <metadata
     id="metadata3008">
    <rdf:RDF>
      <cc:Work
         rdf:about="">
        <dc:format>image/svg+xml</dc:format>
        <dc:type
           rdf:resource="http://purl.org/dc/dcmitype/StillImage" />
        <dc:title />
      </cc:Work>
    </rdf:RDF>
  </metadata>
  <g
     id="layer1"
     inkscape:label="Layer 1"
     inkscape:groupmode="layer">
    <path
       style="opacity:1;fill:#999999;fill-opacity:1;stroke:none;stroke-width:2;stroke-linecap:round;stroke-linejoin:round;stroke-miterlimit:4;stroke-dasharray:none;stroke-dashoffset:0.39370039;stroke-opacity:1"
       d="m 10,14 44,0 0,43 -44,0 z"
       id="rect3416"
       inkscape:connector-curvature="0"
       sodipodi:nodetypes="ccccc" />
    <path
       style="opacity:1;fill:#999999;fill-opacity:1;stroke:none;stroke-width:2;stroke-linecap:round;stroke-linejoin:round;stroke-miterlimit:4;stroke-dasharray:none;stroke-dashoffset:0.39370039;stroke-opacity:1"
       d="m 16,8 32,0 6,6 -44,0 z"
       id="rect4218"
       inkscape:connector-curvature="0"
       sodipodi:nodetypes="ccccc" />
    <path
       sodipodi:nodetypes="ccccc"
       inkscape:connector-curvature="0"
       id="path4221"
       d="m 16,9 32,0 4,4 -40,0 z"
       style="opacity:1;fill:#b3b3b3;fill-opacity:1;stroke:none;stroke-width:2;stroke-linecap:round;stroke-linejoin:round;stroke-miterlimit:4;stroke-dasharray:none;stroke-dashoffset:0.39370039;stroke-opacity:1" />
    <path
       style="opacity:1;fill:#cccccc;fill-opacity:1;stroke:none;stroke-width:2;stroke-linecap:round;stroke-linejoin:round;stroke-miterlimit:4;stroke-dasharray:none;stroke-dashoffset:0.39370039;stroke-opacity:1"
       d="m 11,14 42,0 0,42 -42,0 z"
       id="rect4223"
       inkscape:connector-curvature="0"
       sodipodi:nodetypes="ccccc" />
    <path
       sodipodi:nodetypes="ccccc"
       inkscape:connector-curvature="0"
       id="path4230"
       d="m 14,18 36,0 0,34 -36,0 z"
       style="opacity:1;fill:#666666;fill-opacity:1;stroke:none;stroke-width:2;stroke-linecap:round;stroke-linejoin:round;stroke-miterlimit:4;stroke-dasharray:none;stroke-dashoffset:0.39370039;stroke-opacity:1" />
    <path
       style="opacity:1;fill:#cccccc;fill-opacity:1;stroke:none;stroke-width:2;stroke-linecap:round;stroke-linejoin:round;stroke-miterlimit:4;stroke-dasharray:none;stroke-dashoffset:0.39370039;stroke-opacity:1"
       d="m 15,19 34,0 0,32 -34,0 z"
       id="path4232"
       inkscape:connector-curvature="0"
       sodipodi:nodetypes="ccccc" />
    <circle
       style="opacity:1;fill:#666666;fill-opacity:1;stroke:none;stroke-width:2;stroke-linecap:round;stroke-linejoin:round;stroke-miterlimit:4;stroke-dasharray:none;stroke-dashoffset:0.39370039;stroke-opacity:1"
       id="path4251"
       cx="35"
       cy="31"
       r="5" />
    <circle
       r="4"
       cy="31"
       cx="35"
       id="circle4257"
       style="opacity:1;fill:#cccccc;fill-opacity:1;stroke:none;stroke-width:2;stroke-linecap:round;stroke-linejoin:round;stroke-miterlimit:4;stroke-dasharray:none;stroke-dashoffset:0.39370039;stroke-opacity:1" />
    <g
       id="g4352"
       transform="matrix(0.11538462,0,0,0.11538462,-1.461537,57.76923)"
       style="fill:#666666;fill-opacity:1">
      <rect
         transform="matrix(0.8660254,-0.5,0.5,0.8660254,0,0)"
         ry="4"
         rx="4"
         y="-102.91789"
         x="385.664"
         height="56"
         width="8"
         id="rect4292"
         style="opacity:1;fill:#666666;fill-opacity:1;stroke:none;stroke-width:2;stroke-linecap:round;stroke-linejoin:round;stroke-miterlimit:4;stroke-dasharray:none;stroke-dashoffset:0.39370039;stroke-opacity:1" />
      <rect
         transform="matrix(0.8660254,-0.5,0.5,0.8660254,0,0)"
         style="opacity:1;fill:#666666;fill-opacity:1;stroke:none;stroke-width:2;stroke-linecap:round;stroke-linejoin:round;stroke-miterlimit:4;stroke-dasharray:none;stroke-dashoffset:0.39370039;stroke-opacity:1"
         id="rect4302"
         width="8"
         height="56"
         x="385.664"
         y="-38.917892"
         rx="4"
         ry="4" />
      <rect
         transform="matrix(0.5,0.8660254,-0.8660254,0.5,0,0)"
         style="opacity:1;fill:#666666;fill-opacity:1;stroke:none;stroke-width:2;stroke-linecap:round;stroke-linejoin:round;stroke-miterlimit:4;stroke-dasharray:none;stroke-dashoffset:0.39370039;stroke-opacity:1"
         id="rect4308"
         width="8"
         height="56"
         x="-46.917896"
         y="-449.664"
         rx="4"
         ry="4" />
      <rect
         transform="matrix(0.5,0.8660254,-0.8660254,0.5,0,0)"
         ry="4"
         rx="4"
         y="-385.664"
         x="-46.917896"
         height="56"
         width="8"
         id="rect4314"
         style="opacity:1;fill:#666666;fill-opacity:1;stroke:none;stroke-width:2;stroke-linecap:round;stroke-linejoin:round;stroke-miterlimit:4;stroke-dasharray:none;stroke-dashoffset:0.39370039;stroke-opacity:1" />
    </g>
    <path
       inkscape:connector-curvature="0"
       style="opacity:1;fill:url(#linearGradient4372);fill-opacity:1;stroke:none;stroke-width:2;stroke-linecap:round;stroke-linejoin:round;stroke-miterlimit:4;stroke-dasharray:none;stroke-dashoffset:0.39370039;stroke-opacity:1"
       d="m 31.79357,25.058552 c -0.06646,-0.0047 -0.135138,0.0098 -0.197417,0.04575 -0.166076,0.09588 -0.222537,0.30673 -0.126652,0.472806 l 2.769231,4.796576 c 0.09589,0.166076 0.30673,0.222536 0.472807,0.126652 0.166076,-0.09588 0.222537,-0.306729 0.126653,-0.472806 l -2.769231,-4.796575 c -0.05992,-0.103798 -0.164632,-0.164659 -0.275391,-0.172401 z m 8.826472,2.364934 c -0.06645,-0.0047 -0.134911,0.01001 -0.19719,0.04597 l -4.796575,2.769231 c -0.166077,0.09588 -0.222537,0.30673 -0.126652,0.472807 0.09589,0.166077 0.306729,0.222538 0.472806,0.126653 l 4.796575,-2.769231 c 0.166077,-0.09588 0.222536,-0.30673 0.126652,-0.472807 -0.05992,-0.103797 -0.164857,-0.164884 -0.275616,-0.172626 z m -6.395282,3.692309 c -0.06646,-0.0047 -0.134911,0.01001 -0.19719,0.04597 l -4.796576,2.769231 c -0.166077,0.09589 -0.222536,0.30673 -0.126651,0.472806 0.09589,0.166077 0.306729,0.222539 0.472805,0.126654 l 4.796575,-2.769231 c 0.166077,-0.09589 0.222537,-0.30673 0.126652,-0.472807 -0.05992,-0.103798 -0.164856,-0.164883 -0.275615,-0.172625 z m 1.261117,0.338039 c -0.06645,-0.0047 -0.135136,0.0098 -0.197415,0.04575 -0.166077,0.09588 -0.222538,0.306728 -0.126654,0.472805 l 2.769231,4.796575 c 0.09589,0.166076 0.30673,0.222537 0.472808,0.126652 0.166076,-0.09589 0.222537,-0.306729 0.126652,-0.472805 l -2.769231,-4.796576 c -0.05992,-0.103798 -0.164631,-0.164658 -0.275391,-0.172401 z"
       id="rect4294" />
    <circle
       style="opacity:1;fill:#999999;fill-opacity:1;stroke:none;stroke-width:2;stroke-linecap:round;stroke-linejoin:round;stroke-miterlimit:4;stroke-dasharray:none;stroke-dashoffset:0.39370039;stroke-opacity:1"
       id="circle4257-0"
       cx="35"
       cy="31"
       r="2" />
    <circle
       r="1"
       cy="31.038462"
       cx="34.96154"
       id="circle4284"
       style="opacity:1;fill:#cccccc;fill-opacity:1;stroke:none;stroke-width:2;stroke-linecap:round;stroke-linejoin:round;stroke-miterlimit:4;stroke-dasharray:none;stroke-dashoffset:0.39370039;stroke-opacity:1" />
    <rect
       ry="0"
       rx="0"
       y="40"
       x="17"
       height="1"
       width="1.9999996"
       id="rect4529"
       style="opacity:1;fill:#ff0000;fill-opacity:0.21832886;stroke:none;stroke-width:2;stroke-linecap:round;stroke-linejoin:round;stroke-miterlimit:4;stroke-dasharray:none;stroke-dashoffset:0.39370039;stroke-opacity:1" />
    <path
       style="opacity:1;fill:#999999;fill-opacity:1;stroke:none;stroke-width:2;stroke-linecap:round;stroke-linejoin:round;stroke-miterlimit:4;stroke-dasharray:none;stroke-dashoffset:0.39370039;stroke-opacity:1"
       d="M 17 41 L 17 42.779297 L 18.800781 42.779297 L 18.800781 41 L 17 41 z M 19.201172 41 L 19.201172 42.779297 L 20.800781 42.779297 L 20.800781 41 L 19.201172 41 z M 21.201172 41 L 21.201172 42.779297 L 23 42.779297 L 23 41 L 21.201172 41 z M 17 43.179688 L 17 44.779297 L 18.800781 44.779297 L 18.800781 43.179688 L 17 43.179688 z M 19.201172 43.179688 L 19.201172 44.779297 L 20.800781 44.779297 L 20.800781 43.179688 L 19.201172 43.179688 z M 21.201172 43.179688 L 21.201172 44.779297 L 23 44.779297 L 23 43.179688 L 21.201172 43.179688 z M 17 45.179688 L 17 46.779297 L 18.800781 46.779297 L 18.800781 45.179688 L 17 45.179688 z M 19.201172 45.179688 L 19.201172 46.779297 L 20.800781 46.779297 L 20.800781 45.179688 L 19.201172 45.179688 z M 21.201172 45.179688 L 21.201172 46.779297 L 23 46.779297 L 23 45.179688 L 21.201172 45.179688 z M 17 47.179688 L 17 49 L 18.800781 49 L 18.800781 47.179688 L 17 47.179688 z M 19.201172 47.179688 L 19.201172 49 L 20.800781 49 L 20.800781 47.179688 L 19.201172 47.179688 z M 21.201172 47.179688 L 21.201172 49 L 23 49 L 23 47.179688 L 21.201172 47.179688 z "
       id="rect4899" />
    <text
       sodipodi:linespacing="125%"
       id="text4618"
       y="48.623653"
       x="17.888739"
       style="font-style:normal;font-weight:normal;font-size:1.74687517px;line-height:125%;font-family:sans-serif;letter-spacing:0px;word-spacing:0px;fill:#cccccc;fill-opacity:1;stroke:none;stroke-width:1px;stroke-linecap:butt;stroke-linejoin:miter;stroke-opacity:1;"
       xml:space="preserve"><tspan
         style="font-size:1.59184861px;text-align:center;text-anchor:middle;fill:#cccccc;fill-opacity:1;"
         y="48.623653"
         x="17.888739"
         id="tspan4620"
         sodipodi:role="line">C</tspan></text>
    <path
       style="opacity:1;fill:#666666;fill-opacity:1;stroke:none;stroke-width:2;stroke-linecap:round;stroke-linejoin:round;stroke-miterlimit:4;stroke-dasharray:none;stroke-dashoffset:0.39370039;stroke-opacity:1"
       d="m 46,43 c -1.108,0 -2,0.892 -2,2 l 0,2 c 0,1.108 0.892,2 2,2 l 2,0 2,0 2,0 0,-2 0,-2 0,-2 -2,0 -2,0 -2,0 z"
       id="rect4454"
       inkscape:connector-curvature="0" />
    <path
       inkscape:connector-curvature="0"
       id="path4460"
       d="m 46,21 c -1.108,0 -2,0.892 -2,2 l 0,2 c 0,1.108 0.892,2 2,2 l 2,0 2,0 2,0 0,-2 0,-2 0,-2 -2,0 -2,0 -2,0 z"
       style="opacity:1;fill:#666666;fill-opacity:1;stroke:none;stroke-width:2;stroke-linecap:round;stroke-linejoin:round;stroke-miterlimit:4;stroke-dasharray:none;stroke-dashoffset:0.39370039;stroke-opacity:1" />
    <path
       style="opacity:1;fill:#cccccc;fill-opacity:1;stroke:none;stroke-width:2;stroke-linecap:round;stroke-linejoin:round;stroke-miterlimit:4;stroke-dasharray:none;stroke-dashoffset:0.39370039;stroke-opacity:1"
       d="M 46 22 C 45.446 22 45 22.446 45 23 L 45 25 C 45 25.554 45.446 26 46 26 L 49 26 L 51 26 L 51 22 L 49 22 L 46 22 z "
       id="rect4462" />
    <path
       id="path4467"
       d="m 46,44 c -0.554,0 -1,0.446 -1,1 l 0,2 c 0,0.554 0.446,1 1,1 l 3,0 2,0 0,-4 -2,0 -3,0 z"
       style="opacity:1;fill:#cccccc;fill-opacity:1;stroke:none;stroke-width:2;stroke-linecap:round;stroke-linejoin:round;stroke-miterlimit:4;stroke-dasharray:none;stroke-dashoffset:0.39370039;stroke-opacity:1"
       inkscape:connector-curvature="0" />
    <text
       xml:space="preserve"
       style="font-style:normal;font-weight:normal;font-size:1.74687517px;line-height:125%;font-family:sans-serif;letter-spacing:0px;word-spacing:0px;fill:#cccccc;fill-opacity:1;stroke:none;stroke-width:1px;stroke-linecap:butt;stroke-linejoin:miter;stroke-opacity:1;"
       x="19.999222"
       y="48.623653"
       id="text4893"
       sodipodi:linespacing="125%"><tspan
         sodipodi:role="line"
         id="tspan4895"
         x="19.999222"
         y="48.623653"
         style="font-size:1.59184861px;text-align:center;text-anchor:middle;fill:#cccccc;fill-opacity:1;">0</tspan></text>
    <text
       sodipodi:linespacing="125%"
       id="text4901"
       y="48.623653"
       x="21.999222"
       style="font-style:normal;font-weight:normal;font-size:1.74687517px;line-height:125%;font-family:sans-serif;letter-spacing:0px;word-spacing:0px;fill:#cccccc;fill-opacity:1;stroke:none;stroke-width:1px;stroke-linecap:butt;stroke-linejoin:miter;stroke-opacity:1;"
       xml:space="preserve"><tspan
         style="font-size:1.59184861px;text-align:center;text-anchor:middle;fill:#cccccc;fill-opacity:1;"
         y="48.623653"
         x="21.999222"
         id="tspan4903"
         sodipodi:role="line">K</tspan></text>
    <text
       xml:space="preserve"
       style="font-style:normal;font-weight:normal;font-size:1.74687517px;line-height:125%;font-family:sans-serif;letter-spacing:0px;word-spacing:0px;fill:#cccccc;fill-opacity:1;stroke:none;stroke-width:1px;stroke-linecap:butt;stroke-linejoin:miter;stroke-opacity:1;"
       x="21.999222"
       y="46.579456"
       id="text4909"
       sodipodi:linespacing="125%"><tspan
         sodipodi:role="line"
         id="tspan4911"
         x="21.999222"
         y="46.579456"
         style="font-size:1.59184861px;text-align:center;text-anchor:middle;fill:#cccccc;fill-opacity:1;">9</tspan></text>
    <text
       sodipodi:linespacing="125%"
       id="text4917"
       y="46.579456"
       x="19.999222"
       style="font-style:normal;font-weight:normal;font-size:1.74687517px;line-height:125%;font-family:sans-serif;letter-spacing:0px;word-spacing:0px;fill:#cccccc;fill-opacity:1;stroke:none;stroke-width:1px;stroke-linecap:butt;stroke-linejoin:miter;stroke-opacity:1;"
       xml:space="preserve"><tspan
         style="font-size:1.59184861px;text-align:center;text-anchor:middle;fill:#cccccc;fill-opacity:1;"
         y="46.579456"
         x="19.999222"
         id="tspan4919"
         sodipodi:role="line">8</tspan></text>
    <text
       xml:space="preserve"
       style="font-style:normal;font-weight:normal;font-size:1.74687517px;line-height:125%;font-family:sans-serif;letter-spacing:0px;word-spacing:0px;fill:#cccccc;fill-opacity:1;stroke:none;stroke-width:1px;stroke-linecap:butt;stroke-linejoin:miter;stroke-opacity:1;"
       x="17.888739"
       y="46.579456"
       id="text4925"
       sodipodi:linespacing="125%"><tspan
         sodipodi:role="line"
         id="tspan4927"
         x="17.888739"
         y="46.579456"
         style="font-size:1.59184861px;text-align:center;text-anchor:middle;fill:#cccccc;fill-opacity:1;">7</tspan></text>
    <text
       sodipodi:linespacing="125%"
       id="text4933"
       y="44.579456"
       x="17.888739"
       style="font-style:normal;font-weight:normal;font-size:1.74687517px;line-height:125%;font-family:sans-serif;letter-spacing:0px;word-spacing:0px;fill:#cccccc;fill-opacity:1;stroke:none;stroke-width:1px;stroke-linecap:butt;stroke-linejoin:miter;stroke-opacity:1;"
       xml:space="preserve"><tspan
         style="font-size:1.59184861px;text-align:center;text-anchor:middle;fill:#cccccc;fill-opacity:1;"
         y="44.579456"
         x="17.888739"
         id="tspan4935"
         sodipodi:role="line">4</tspan></text>
    <text
       xml:space="preserve"
       style="font-style:normal;font-weight:normal;font-size:1.74687517px;line-height:125%;font-family:sans-serif;letter-spacing:0px;word-spacing:0px;fill:#cccccc;fill-opacity:1;stroke:none;stroke-width:1px;stroke-linecap:butt;stroke-linejoin:miter;stroke-opacity:1;"
       x="19.999222"
       y="44.579456"
       id="text4941"
       sodipodi:linespacing="125%"><tspan
         sodipodi:role="line"
         id="tspan4943"
         x="19.999222"
         y="44.579456"
         style="font-size:1.59184861px;text-align:center;text-anchor:middle;fill:#cccccc;fill-opacity:1;">5</tspan></text>
    <text
       sodipodi:linespacing="125%"
       id="text4949"
       y="44.579456"
       x="21.999222"
       style="font-style:normal;font-weight:normal;font-size:1.74687517px;line-height:125%;font-family:sans-serif;letter-spacing:0px;word-spacing:0px;fill:#cccccc;fill-opacity:1;stroke:none;stroke-width:1px;stroke-linecap:butt;stroke-linejoin:miter;stroke-opacity:1;"
       xml:space="preserve"><tspan
         style="font-size:1.59184861px;text-align:center;text-anchor:middle;fill:#cccccc;fill-opacity:1;"
         y="44.579456"
         x="21.999222"
         id="tspan4951"
         sodipodi:role="line">6</tspan></text>
    <text
       xml:space="preserve"
       style="font-style:normal;font-weight:normal;font-size:1.74687517px;line-height:125%;font-family:sans-serif;letter-spacing:0px;word-spacing:0px;fill:#cccccc;fill-opacity:1;stroke:none;stroke-width:1px;stroke-linecap:butt;stroke-linejoin:miter;stroke-opacity:1;"
       x="21.999222"
       y="42.513161"
       id="text4957"
       sodipodi:linespacing="125%"><tspan
         sodipodi:role="line"
         id="tspan4959"
         x="21.999222"
         y="42.513161"
         style="font-size:1.59184861px;text-align:center;text-anchor:middle;fill:#cccccc;fill-opacity:1;">3</tspan></text>
    <text
       sodipodi:linespacing="125%"
       id="text4965"
       y="42.513161"
       x="19.999222"
       style="font-style:normal;font-weight:normal;font-size:1.74687517px;line-height:125%;font-family:sans-serif;letter-spacing:0px;word-spacing:0px;fill:#cccccc;fill-opacity:1;stroke:none;stroke-width:1px;stroke-linecap:butt;stroke-linejoin:miter;stroke-opacity:1;"
       xml:space="preserve"><tspan
         style="font-size:1.59184861px;text-align:center;text-anchor:middle;fill:#cccccc;fill-opacity:1;"
         y="42.513161"
         x="19.999222"
         id="tspan4967"
         sodipodi:role="line">2</tspan></text>
    <text
       xml:space="preserve"
       style="font-style:normal;font-weight:normal;font-size:1.74687517px;line-height:125%;font-family:sans-serif;letter-spacing:0px;word-spacing:0px;fill:#cccccc;fill-opacity:1;stroke:none;stroke-width:1px;stroke-linecap:butt;stroke-linejoin:miter;stroke-opacity:1;"
       x="17.888739"
       y="42.513161"
       id="text4973"
       sodipodi:linespacing="125%"><tspan
         sodipodi:role="line"
         id="tspan4975"
         x="17.888739"
         y="42.513161"
         style="font-size:1.59184861px;text-align:center;text-anchor:middle;fill:#cccccc;fill-opacity:1;">1</tspan></text>
    <rect
       style="opacity:1;fill:#ffff00;fill-opacity:0.21832886;stroke:none;stroke-width:2;stroke-linecap:round;stroke-linejoin:round;stroke-miterlimit:4;stroke-dasharray:none;stroke-dashoffset:0.39370039;stroke-opacity:1"
       id="rect4977"
       width="1.9999996"
       height="1"
       x="19"
       y="40"
       rx="0"
       ry="0" />
    <rect
       ry="0"
       rx="0"
       y="40"
       x="21"
       height="1"
       width="1.9999996"
       id="rect4979"
       style="opacity:1;fill:#008080;fill-opacity:0.21832886;stroke:none;stroke-width:2;stroke-linecap:round;stroke-linejoin:round;stroke-miterlimit:4;stroke-dasharray:none;stroke-dashoffset:0.39370039;stroke-opacity:1" />
  </g>
  <g
     inkscape:groupmode="layer"
     id="layer2"
     inkscape:label="belt"
     sodipodi:insensitive="true" />
</svg>
