<?xml version="1.0" encoding="UTF-8" standalone="no"?>
<!-- Created with Inkscape (http://www.inkscape.org/) -->
<svg
   xmlns:dc="http://purl.org/dc/elements/1.1/"
   xmlns:cc="http://creativecommons.org/ns#"
   xmlns:rdf="http://www.w3.org/1999/02/22-rdf-syntax-ns#"
   xmlns:svg="http://www.w3.org/2000/svg"
   xmlns="http://www.w3.org/2000/svg"
   xmlns:xlink="http://www.w3.org/1999/xlink"
   xmlns:sodipodi="http://sodipodi.sourceforge.net/DTD/sodipodi-0.dtd"
   xmlns:inkscape="http://www.inkscape.org/namespaces/inkscape"
   version="1.0"
   width="744.09003"
   height="800"
   id="svg6299"
   sodipodi:version="0.32"
   inkscape:version="0.46"
   sodipodi:docname="fenix_clean.svg"
   inkscape:output_extension="org.inkscape.output.svg.inkscape"
   sodipodi:docbase="D:\txt">
  <metadata
     id="metadata7">
    <rdf:RDF>
      <cc:Work
         rdf:about="">
        <dc:format>image/svg+xml</dc:format>
        <dc:type
           rdf:resource="http://purl.org/dc/dcmitype/StillImage" />
      </cc:Work>
    </rdf:RDF>
  </metadata>
  <sodipodi:namedview
     inkscape:window-height="721"
     inkscape:window-width="1024"
     inkscape:pageshadow="2"
     inkscape:pageopacity="0.0"
     guidetolerance="10.0"
     gridtolerance="10.0"
     objecttolerance="10.0"
     borderopacity="1.0"
     bordercolor="#666666"
     pagecolor="#ffffff"
     id="base"
     inkscape:zoom="0.35919193"
     inkscape:cx="517.26902"
     inkscape:cy="390.76869"
     inkscape:window-x="154"
     inkscape:window-y="154"
     inkscape:current-layer="svg6299"
     showgrid="false" />
  <defs
     id="defs6301">
    <inkscape:perspective
       sodipodi:type="inkscape:persp3d"
       inkscape:vp_x="0 : 526.18109 : 1"
       inkscape:vp_y="0 : 1000 : 0"
       inkscape:vp_z="744.09448 : 526.18109 : 1"
       inkscape:persp3d-origin="372.04724 : 350.78739 : 1"
       id="perspective15" />
    <linearGradient
       inkscape:collect="always"
       id="linearGradient2163">
      <stop
         style="stop-color:#000000;stop-opacity:1;"
         offset="0"
         id="stop2165" />
      <stop
         style="stop-color:#000000;stop-opacity:0;"
         offset="1"
         id="stop2167" />
    </linearGradient>
    <radialGradient
       inkscape:collect="always"
       xlink:href="#linearGradient2163"
       id="radialGradient2169"
       cx="377.53397"
       cy="857.11938"
       fx="377.53397"
       fy="857.11938"
       r="363.96185"
       gradientTransform="matrix(1.0517807e-2,-2.4770996,2.1249124,9.9291129e-2,-1447.7405,1816.1715)"
       gradientUnits="userSpaceOnUse" />
    <radialGradient
       inkscape:collect="always"
       xlink:href="#linearGradient2163"
       id="radialGradient2173"
       gradientUnits="userSpaceOnUse"
       gradientTransform="matrix(1.0517807e-2,-2.4770996,2.1249124,9.9291129e-2,-1447.7405,1816.1715)"
       cx="377.53397"
       cy="857.11938"
       fx="377.53397"
       fy="857.11938"
       r="363.96185" />
  </defs>
  <g
     id="layer1">
    <path
       d="M 447.25774,735.22277 C 444.16121,728.81196 438.5671,720.0608 434.82642,715.77576 C 429.63969,709.83424 427.85031,702.17172 427.28869,683.49757 C 426.46724,656.18293 418.37259,635.75237 401.68697,618.87984 C 392.57523,609.66603 391.52202,605.98721 389.43072,576.06974 C 387.14892,543.42658 387.16784,543.31906 396.5634,535.58556 C 401.74468,531.32082 408.40044,528.29636 411.35394,528.86452 C 414.30744,529.43269 420.95923,539.03685 426.13564,550.20705 C 431.64997,562.10641 441.18091,575.18546 449.15173,581.79144 C 458.44632,589.49449 463.44338,596.89993 464.92563,605.16771 C 466.11888,611.82351 469.06358,618.05951 471.46938,619.02556 C 473.87515,619.99158 476.96043,628.57639 478.32557,638.10294 C 479.69067,647.62946 482.20187,658.15029 483.90598,661.48254 C 485.7989,665.18399 485.72408,668.36921 483.71366,669.66937 C 481.90379,670.83985 478.19032,667.3065 475.46152,661.81748 C 472.73276,656.32843 466.49771,647.92481 461.60591,643.14272 C 456.71414,638.3606 452.71175,630.93536 452.71175,626.64218 C 452.71175,611.53329 445.34148,597.01423 431.95929,585.76098 C 424.52239,579.50715 418.43765,572.22436 418.43765,569.57701 C 418.43765,566.92966 415.40428,560.95357 411.69686,556.29676 L 404.95606,547.8299 L 404.84203,566.3615 C 404.70813,588.12607 413.43688,611.55653 428.26047,629.22314 C 441.87524,645.44914 446.83483,659.60424 444.15076,674.57551 C 442.55126,683.49732 443.60525,688.49674 448.20765,693.8182 C 452.82917,699.16185 454.44276,706.89567 454.4929,723.94315 C 454.53002,736.55776 454.18406,746.87878 453.72407,746.87878 C 453.26411,746.87878 450.35427,741.63358 447.25774,735.22277 z M 370.69502,729.17828 C 364.47845,725.06166 363.25953,717.18765 362.33108,675.14946 C 361.91722,656.41017 359.60022,633.98557 357.18218,625.31701 C 353.76105,613.05237 353.64033,604.42093 356.63798,586.40837 C 358.7567,573.67717 359.48283,556.23145 358.2516,547.64011 C 356.14937,532.97078 356.55665,531.87673 364.93951,529.67514 C 377.43194,526.39424 385.47429,530.22157 382.42681,537.99735 C 376.5597,552.96752 376.50311,575.2748 382.29811,588.72218 C 387.89822,601.71735 387.89562,603.60659 382.24851,624.66679 C 377.0347,644.11096 376.82841,649.90027 380.60151,670.88515 C 383.92342,689.36058 384.00544,698.39776 380.9584,710.20024 C 378.78234,718.62912 377.93313,727.10215 379.0713,729.02919 C 381.65341,733.40102 377.19175,733.48046 370.69502,729.17828 z M 288.19606,713.96377 C 288.19606,706.90686 290.50956,699.12387 293.33718,696.66825 C 296.16479,694.21264 298.47829,686.70154 298.47829,679.97688 C 298.47829,661.44725 311.51873,624.4866 322.32559,612.3863 C 329.88512,603.92195 332.42391,596.84553 334.22752,579.21148 C 336.93647,552.72611 332.72086,550.04307 324.36603,572.93517 C 319.64892,585.85997 316.83961,589.07426 310.26043,589.07426 C 299.26759,589.07426 286.76803,613.55738 289.97078,628.81597 C 291.24745,634.8984 290.74218,639.28479 288.76491,639.28479 C 286.89313,639.28479 280.55658,646.12192 274.6837,654.47839 L 264.00574,669.67199 L 266.2634,642.82238 C 267.83537,624.12727 270.46787,613.72405 274.93115,608.56868 C 278.4567,604.49643 281.34124,599.57296 281.34124,597.62766 C 281.34124,588.46112 290.82492,574.51737 299.13636,571.4636 C 305.95632,568.95785 309.33245,564.30616 312.07973,553.63008 C 318.75262,527.69889 332.13902,521.11682 346.24648,536.83039 C 352.77669,544.1041 353.74963,548.13339 352.09197,561.03904 C 350.99818,569.55446 349.43154,584.53932 348.61047,594.33873 C 347.47631,607.87556 345.05628,613.90667 338.5368,619.444 C 323.35803,632.33609 313.91394,656.3365 313.79433,682.32239 C 313.67276,708.73141 310.62239,718.18705 302.22449,718.18705 C 299.03305,718.18705 294.57104,720.12374 292.30895,722.49081 C 289.11005,725.83817 288.19606,723.94329 288.19606,713.96377 z M 296.78361,531.71279 C 293.3612,527.75559 288.6516,524.51787 286.31784,524.51787 C 279.64129,524.51787 277.40561,513.88393 279.82396,493.62986 C 281.80742,477.01799 281.2563,474.51213 274.82756,470.91193 C 268.57661,467.41125 267.0672,468.09311 263.63914,475.96605 C 258.24766,488.34818 247.25545,487.6188 234.85559,474.05611 C 218.64483,456.32516 203.59074,448.07944 191.89796,450.52652 C 182.91291,452.40694 180.79684,451.15986 174.73735,440.41319 C 170.93587,433.67117 160.40548,423.17255 151.33647,417.08291 C 128.58811,401.80789 94.104699,352.41096 95.670089,337.34171 C 96.476179,329.58188 94.784699,325.06223 89.672119,321.31506 C 85.755751,318.44463 82.536384,313.36326 82.517969,310.02314 C 82.499553,306.68302 78.643717,295.31691 73.949444,284.76512 C 69.25517,274.21333 65.414401,264.83307 65.414401,263.92009 C 65.414401,263.00711 72.276532,267.41684 80.663579,273.71948 C 96.966389,285.97059 104.15949,298.38868 109.58248,323.64472 C 111.44917,332.33826 115.85897,341.95385 119.38206,345.0127 C 122.90514,348.07156 127.44357,354.66712 129.46746,359.66952 C 139.63164,384.79208 180.00002,416.79046 201.65396,416.88884 C 205.89538,416.9081 209.36563,418.52129 209.36563,420.47373 C 209.36563,424.78649 246.45467,451.03846 248.9132,448.46585 C 253.00284,444.18641 245.62128,434.91317 235.28329,431.34298 C 224.45887,427.60481 209.3757,407.76925 195.68343,379.26599 C 192.14585,371.90179 186.1887,367.05189 176.80523,363.89666 C 161.54918,358.76674 154.52707,351.18948 154.52707,339.85724 C 154.52707,335.70319 148.57341,326.22103 141.29671,318.78578 C 134.02001,311.35053 124.63813,297.60808 120.44808,288.247 C 115.18916,276.49792 109.73588,270.00484 102.83956,267.28097 C 89.881839,262.163 86.997121,253.59598 94.034089,241.13051 C 101.69923,227.5523 101.15247,220.76275 91.642119,211.42743 C 85.67047,205.56568 83.078121,198.1614 81.58826,182.71155 C 80.484144,171.26188 76.445356,156.33321 72.613179,149.53674 C 63.320565,133.05603 66.465646,133.96285 83.972445,152.81197 C 106.31856,176.87143 114.64988,195.78862 114.99613,223.2547 C 115.30653,247.87659 118.59905,255.81639 138.94692,281.01118 C 144.68839,288.12028 155.54735,303.10482 163.07794,314.31015 C 170.92168,325.98144 181.90128,337.31124 188.78352,340.83563 C 197.46714,345.28251 202.95113,351.95834 208.56822,364.92012 C 220.33372,392.06974 220.78407,392.6671 240.03084,406.6526 C 249.90147,413.825 260.85259,424.64052 264.36665,430.68713 C 267.88073,436.73369 275.26418,444.12045 280.77433,447.10209 C 292.81666,453.61842 295.05088,458.92205 295.05088,480.99201 C 295.05088,490.2636 297.23795,506.67201 299.91098,517.45515 C 302.58406,528.23829 304.37399,537.47638 303.88863,537.98426 C 303.40328,538.49218 300.20602,535.66999 296.78361,531.71279 z M 437.31901,529.00095 C 438.68175,525.54898 440.79845,507.62318 442.02275,489.16582 C 444.12554,457.46544 444.8153,455.13269 454.47823,447.04263 C 460.10443,442.33227 465.6302,438.4703 466.75772,438.4605 C 467.8852,438.45071 471.60466,431.95236 475.02312,424.01971 C 478.86357,415.10795 484.20471,408.81771 489.00106,407.55804 C 499.57623,404.78068 507.12521,395.34781 521.25995,367.24864 C 530.47163,348.93629 536.16065,341.97665 545.77104,337.26314 C 559.35684,330.59984 571.44511,316.22118 601.30961,271.20144 C 621.69269,240.47461 623.02489,236.20827 616.74214,221.77919 C 610.06246,206.43853 618.69539,184.00224 642.38983,155.12294 C 653.92204,141.06723 663.93984,131.39526 664.65161,133.62967 C 665.36338,135.86409 662.88852,141.20818 659.15192,145.50543 C 648.06566,158.25517 644.64671,167.96843 644.64671,186.71511 C 644.64671,198.09888 642.80671,206.04202 639.5056,208.90884 C 632.87647,214.66585 632.87647,231.84356 639.5056,237.60057 C 647.49057,244.53504 645.62527,251.713 634.10331,258.38955 C 628.24162,261.7862 620.00353,271.73728 615.55071,280.7999 C 611.14563,289.76536 600.46681,305.33463 591.82,315.39829 C 580.41009,328.67777 576.09851,336.69219 576.09851,344.62153 C 576.09851,356.94236 565.70948,366.95048 555.74902,364.22489 C 548.78692,362.31977 540.89325,372.52379 527.85497,400.28304 C 519.57212,417.91773 506.98359,431.26975 498.64017,431.26975 C 493.93537,431.26975 485.19814,444.94042 488.01743,447.89054 C 492.53047,452.61302 509.34641,442.94011 520.1627,429.39983 C 529.98675,417.10173 534.63562,414.05471 543.57492,414.05471 C 549.70968,414.05471 558.68466,411.34262 563.5193,408.02783 C 576.55387,399.0909 602.77205,365.69152 605.42041,354.64994 C 606.68982,349.35744 610.56437,342.94869 614.03048,340.40827 C 621.00858,335.29379 627.50966,320.00839 627.50966,308.71591 C 627.50966,299.23447 644.44936,277.06294 658.02232,268.77938 C 671.00315,260.85721 671.66481,265.59911 660.07006,283.45421 C 655.35737,290.71141 651.50153,299.41914 651.50153,302.80472 C 651.50153,306.19031 647.58661,313.38063 642.8017,318.78322 C 636.49842,325.90021 634.61417,331.1379 635.96155,337.79695 C 638.44995,350.09541 615.52051,387.87142 597.08485,401.84595 C 582.73051,412.72671 565.81628,431.88705 565.81628,437.26675 C 565.81628,441.96 552.7791,452.78854 547.12863,452.78854 C 544.4338,452.78854 541.27575,451.17463 540.1107,449.20208 C 536.62369,443.29811 532.22156,445.00573 518.69926,457.50776 C 511.62481,464.04843 500.83519,473.02654 494.72233,477.45906 L 483.60807,485.51821 L 479.60567,476.32631 C 475.11018,466.00188 464.84368,464.09029 461.58689,472.97131 C 460.40961,476.18159 460.39257,486.27179 461.54898,495.39397 C 463.53194,511.03599 462.95549,512.64258 451.41821,523.6285 C 437.67919,536.71092 433.67265,538.23758 437.31901,529.00095 z M 278.43035,432.67923 C 274.10539,429.50933 269.52079,423.99858 268.24235,420.4331 C 265.28425,412.18318 249.00719,390.97289 232.67836,374.09046 C 218.25405,359.17706 212.79304,346.67436 212.79304,328.564 C 212.79304,312.79678 200.19598,289.74965 174.14269,257.85071 C 160.0621,240.61081 154.77872,231.50676 156.45127,227.36574 C 162.23048,213.0571 161.92304,203.9798 155.23763,191.53271 C 149.0617,180.03417 148.66036,176.49043 152.03549,163.25865 C 155.48393,149.73948 155.14186,147.26253 148.81865,139.96532 C 144.92706,135.47429 139.20188,123.78669 136.09602,113.99288 C 132.99017,104.19907 125.84141,91.782239 120.20988,86.399939 C 113.60675,80.089029 109.92761,73.039769 109.84929,66.548969 C 109.78249,61.013249 107.52364,52.449239 104.82962,47.517852 C 97.029409,33.239582 98.796439,32.123872 112.5413,42.648672 C 136.07747,60.670949 143.58836,69.630149 145.88079,82.416909 C 147.13076,89.389049 155.20179,107.2433 163.8164,122.09303 C 176.81377,144.49769 178.81433,150.20681 175.57173,155.64 C 168.29408,167.83416 171.10096,183.46211 183.66005,200.67357 C 195.33536,216.67384 198.8071,226.84117 192.59528,226.84117 C 187.15408,226.84117 185.28837,237.90427 189.37609,245.92993 C 191.56385,250.22528 202.17144,263.42312 212.9485,275.25846 C 231.59824,295.73953 232.61457,297.81499 234.02373,318.29606 C 234.83804,330.1314 238.46087,346.2705 242.07447,354.16072 C 248.65151,368.52158 270.27568,392.91023 291.36347,409.75095 C 301.86104,418.13431 302.31003,419.3582 298.27069,428.5799 C 293.29972,439.92859 289.41608,440.73102 278.43035,432.67923 z M 443.7673,425.59962 C 441.95167,418.02991 444.06405,413.61824 455.35867,401.39097 C 474.21604,380.97651 493.84067,339.04634 493.84067,319.16994 C 493.84067,305.0251 495.5871,301.92457 514.59765,282.31913 C 526.01401,270.54553 538.54102,255.56146 542.43552,249.02118 C 549.36519,237.38367 549.38277,236.8702 543.25984,224.97297 L 537.00331,212.81617 L 547.41914,199.20649 C 560.56744,182.02646 563.80912,169.19894 557.28295,160.17481 C 550.11617,150.26481 550.54501,148.53553 567.47285,119.0836 C 578.4907,99.914199 582.85524,88.453519 582.89619,78.584029 C 582.94497,66.837659 585.68175,61.848409 601.56115,44.557262 C 621.83956,22.475992 628.29128,21.917932 619.58528,42.998202 C 616.52203,50.415399 613.05278,62.377849 611.8758,69.581429 C 610.63621,77.168459 605.61393,86.811219 599.93855,92.500899 C 594.55001,97.903019 589.12873,107.34133 587.89123,113.47491 C 586.65377,119.60849 582.64024,129.79924 578.97226,136.12102 C 573.06035,146.31024 572.78458,149.2963 576.54308,162.4232 C 580.39768,175.88579 580.05518,178.62527 572.77327,192.57405 C 565.199,207.08284 565.07167,208.37713 570.43105,216.38379 C 579.2047,229.49124 577.49388,235.30698 557.68005,259.72914 C 534.40006,288.42368 524.78538,308.3364 521.12439,335.43872 C 518.82433,352.46616 516.16133,358.81397 508.18637,366.27934 C 502.66333,371.44943 492.24672,383.74907 485.03829,393.61185 C 468.30999,416.49996 452.12717,434.85621 448.67731,434.85621 C 447.19793,434.85621 444.98842,430.69075 443.7673,425.59962 z M 288.31664,392.05439 C 286.36524,388.23897 284.76865,382.7757 284.76865,379.91377 C 284.76865,377.05188 277.61873,365.62232 268.87993,354.51478 C 253.40121,334.84039 253.04449,333.83485 255.05608,315.54825 C 257.41163,294.13495 251.39243,276.6477 231.88779,248.23877 L 220.30988,231.37527 L 219.12202,179.12737 C 217.95441,127.77054 217.77341,126.704 208.50878,116.59076 C 200.04493,107.35165 199.0834,103.71884 199.0834,80.980079 C 199.0834,60.793139 197.64287,53.741789 191.97982,46.208282 C 179.55661,29.681792 191.29154,36.016242 213.42196,57.782619 C 234.53435,78.547719 234.7526,78.960739 231.13365,91.299569 C 228.25156,101.1261 228.5586,105.96734 232.57232,113.9833 C 236.00107,120.83098 238.04679,137.96836 238.80809,166.22147 C 239.89664,206.61932 240.50095,209.58258 254.2137,241.76357 C 262.06364,260.18576 271.66022,278.9039 275.53944,283.35944 C 281.01811,289.65206 282.7458,296.91823 283.27907,315.91011 C 284.34009,353.69769 296.68644,368.03986 319.54953,358.04374 C 334.53612,351.49135 336.86878,346.1447 331.99326,329.52156 C 327.75811,315.08182 332.25919,305.74343 343.45428,305.74343 C 352.09032,305.74343 352.206,287.53007 343.6216,279.40079 C 336.23262,272.40352 308.76275,271.31103 302.59118,277.76899 C 296.011,284.65452 297.43146,274.40627 305.46377,257.04371 C 313.85828,238.89822 323.28859,234.50672 351.9355,235.40276 C 379.68831,236.27083 389.26579,243.12024 396.02375,266.93286 C 401.99098,287.95924 403.36489,317.6427 397.68492,302.82316 C 395.93529,298.25819 393.03989,295.46991 391.25071,296.62699 C 389.35038,297.85598 390.29549,302.92027 393.52363,308.80602 C 396.88085,314.92708 398.06272,321.57235 396.53502,325.73818 C 394.13724,332.2767 393.74573,332.21398 388.10394,324.3874 C 380.90048,314.39439 377.30872,317.33971 377.30872,333.23967 C 377.30872,342.43463 378.75715,345.19456 383.58267,345.19456 C 387.03335,345.19456 397.44411,349.22258 406.71769,354.14571 C 415.99126,359.06885 426.14075,363.10362 429.27207,363.11188 C 442.80489,363.14756 460.5393,326.50171 454.6979,310.57277 C 453.34918,306.895 460.13901,288.56983 472.3152,263.02509 L 492.12696,221.46147 L 493.18415,167.66447 C 493.76557,138.07613 494.17323,105.05521 494.08998,94.284649 C 493.96207,77.733689 495.3903,73.103179 503.31502,64.376119 C 513.37217,53.300729 531.06268,42.234162 533.92399,45.228232 C 534.88363,46.232402 533.19796,50.745279 530.17807,55.256869 C 524.02361,64.451349 522.93174,80.110839 528.07021,85.487769 C 530.29573,87.816569 528.24374,93.890139 522.07224,103.24077 C 512.94762,117.0658 512.67432,118.93644 512.06486,171.73938 L 511.43833,226.02482 L 495.17784,259.60781 C 480.54578,289.82756 478.96951,295.43563 479.43855,315.60621 C 479.72522,327.93469 478.48731,338.02162 476.68764,338.02162 C 473.7581,338.02162 467.96626,347.60933 453.11347,377.04596 C 446.33937,390.4715 438.66248,398.99155 433.33965,398.99155 C 430.80964,398.99155 422.95144,393.57577 415.87696,386.95652 C 397.24871,369.52686 390.46686,366.71335 367.08161,366.71335 C 343.72055,366.71335 332.40592,371.5553 317.54467,387.91195 C 306.10572,400.50199 293.54745,402.28185 288.31664,392.05439 z M 376.17127,261.19069 C 375.03011,258.07891 370.91496,255.5329 367.02649,255.5329 C 357.21776,255.5329 354.04871,266.11924 362.02943,272.2257 C 367.4592,276.38031 369.17181,276.34387 373.33721,271.98517 C 376.03709,269.16 377.31243,264.30249 376.17127,261.19069 z"
       style="fill:#000000;fill-opacity:1"
       id="path5328"
       sodipodi:nodetypes="csssssssssssssssssscccsssssccsssssssssssccsssssssscccsssssssssssccsssssssssssssssssssssssssssssssssssssssssssccssssssssssssssssssssssssssssssssssssssscccsssccssssssssssssssssssssssssccsssscccsssssssssssssssssccssscccsssssssssssssssssssssssssssscccsssssscccsssssssccsssc" />
  </g>
</svg>
