<?xml version="1.0" encoding="UTF-8" standalone="no"?>
<!-- Generator: Adobe Illustrator 15.0.2, SVG Export Plug-In . SVG Version: 6.00 Build 0)  -->

<svg
   xmlns:dc="http://purl.org/dc/elements/1.1/"
   xmlns:cc="http://creativecommons.org/ns#"
   xmlns:rdf="http://www.w3.org/1999/02/22-rdf-syntax-ns#"
   xmlns:svg="http://www.w3.org/2000/svg"
   xmlns="http://www.w3.org/2000/svg"
   xmlns:sodipodi="http://sodipodi.sourceforge.net/DTD/sodipodi-0.dtd"
   xmlns:inkscape="http://www.inkscape.org/namespaces/inkscape"
   version="1.1"
   id="IEEE_Master_Brand"
   x="0px"
   y="0px"
   width="400"
   height="400"
   viewBox="0 0 399.99999 400"
   enable-background="new 0 0 349.2 180"
   xml:space="preserve"
   inkscape:version="0.91 r13725"
   sodipodi:docname="ieee_mb_blue_4c.svg"><metadata
   id="metadata23"><rdf:RDF><cc:Work
       rdf:about=""><dc:format>image/svg+xml</dc:format><dc:type
         rdf:resource="http://purl.org/dc/dcmitype/StillImage" /><dc:title></dc:title></cc:Work></rdf:RDF></metadata><defs
   id="defs21" /><sodipodi:namedview
   pagecolor="#ffffff"
   bordercolor="#666666"
   borderopacity="1"
   objecttolerance="10"
   gridtolerance="10"
   guidetolerance="10"
   inkscape:pageopacity="0"
   inkscape:pageshadow="2"
   inkscape:window-width="1920"
   inkscape:window-height="1028"
   id="namedview19"
   showgrid="false"
   inkscape:zoom="0.7391007"
   inkscape:cx="194.74057"
   inkscape:cy="-19.179287"
   inkscape:window-x="2872"
   inkscape:window-y="532"
   inkscape:window-maximized="1"
   inkscape:current-layer="IEEE_Master_Brand" />




<rect
   x="54.846001"
   y="274.67499"
   width="240.06799"
   height="69.985001"
   id="rect11"
   style="fill:none" />
<path
   d="m 187.8207,77.666759 c 11.39245,-8.866741 25.72912,-1.503745 35.3161,6.652489 10.03956,7.674451 20.49765,16.370862 29.67584,25.257072 l 1.66921,0.9587 c 25.41766,23.583 49.025,49.78904 68.41795,77.50368 3.14375,4.82269 5.92252,10.28289 4.16571,16.68719 -6.47242,16.16647 -19.60708,29.05293 -31.10172,43.17061 -24.85802,26.75595 -51.07866,52.64567 -80.43331,73.30391 -5.93712,4.19978 -13.94736,8.07837 -21.06216,4.74483 -21.60721,-11.30972 -39.82734,-29.83644 -58.73851,-46.71829 -21.93326,-20.34192 -43.949251,-44.01738 -60.573173,-68.7878 -2.46731,-3.47954 -3.163217,-7.76205 -3.095087,-12.34628 2.136389,-8.55529 7.99564,-15.59223 13.53857,-22.7995 19.64601,-25.03321 43.70106,-48.77681 67.99943,-70.46188 0.55965,-0.55964 1.60108,-1.73733 2.47705,-2.30671 10.44835,-9.02247 20.81397,-17.008376 31.7441,-24.858021 l 0,0 z M 221.22427,51.621316 208.32808,33.342787 c -1.58161,-0.968431 -3.55741,-2.559773 -5.29961,-3.031822 -3.80559,-1.644873 -7.90804,0.345521 -11.01286,2.700901 L 168.67107,63.422549 C 131.22344,109.80018 86.889739,153.11679 38.516849,186.3111 c -3.825059,2.98802 -9.509117,5.90305 -10.691673,10.82794 -1.270154,4.4285 1.036562,8.08323 3.781261,10.83766 38.732377,26.67809 75.766353,58.34919 108.722203,94.46827 5.85439,6.15124 10.59435,12.26355 16.31734,18.03033 9.64051,12.83293 20.96969,25.75832 29.8267,39.52075 2.7739,2.91016 3.25568,7.67932 7.60145,9.09547 3.40168,1.17769 7.60146,1.97579 10.84741,0 l 3.22648,-3.24108 c 40.07552,-56.77245 90.90112,-107.75864 147.68817,-148.92426 5.68406,-5.07575 16.53633,-6.96882 16.69692,-16.39034 -0.40392,-4.34577 -2.93449,-8.62341 -6.66709,-11.00312 l -0.9295,-0.15087 c -29.22326,-19.8796 -56.45126,-42.36277 -82.10251,-67.86317 L 254.48671,91.906102 C 243.0018,79.17537 231.84295,65.072288 221.22427,51.621316 l 0,0 z m -29.21353,33.023986 c 11.65524,-7.937242 22.10359,3.158351 31.13093,9.499385 34.90245,28.094233 67.83884,60.247123 92.93532,96.560853 3.16808,4.68643 4.59396,11.96183 1.7568,17.2663 -6.5065,10.85227 -15.28564,20.76043 -23.60734,30.8146 l 0,0.54991 c -20.7507,22.08899 -42.66449,44.79602 -66.34969,63.5028 -11.55791,7.03208 -22.16199,22.39558 -37.04857,12.87673 -33.89509,-24.77042 -66.33023,-55.56556 -93.830756,-88.59441 -4.662095,-7.2608 -11.942361,-13.21252 -15.183442,-21.44661 -4.525834,-11.15399 5.450466,-19.1545 11.158857,-27.55406 28.040701,-34.57153 62.860421,-68.47635 99.037891,-93.475498 l 0,0 z m 7.35813,22.789758 -3.15835,10.1369 -15.83555,45.36053 c 3.96619,0.40392 8.87647,0 12.77453,0.40392 l 0,0.37472 -2.31645,51.30738 0.39906,0.54018 c 5.06601,0.49638 11.39244,0.74944 16.55092,-0.13139 l 0,-0.80784 -2.06339,-49.7647 0.30659,-1.68381 13.93275,-0.23359 c -6.94934,-18.36126 -13.68943,-36.90744 -20.18132,-55.49743 l -0.40879,0 0,-0.005 z m -53.89635,71.07506 c -8.88134,4.45284 -21.94786,11.17832 -20.50738,23.36401 1.9028,6.65249 9.1052,10.9496 14.80386,13.68456 31.50077,13.87923 73.3185,14.35128 106.58095,3.99052 8.20976,-3.16321 19.22749,-7.75718 20.74097,-17.81621 -0.0925,-8.31196 -8.88621,-13.54344 -15.20778,-16.72612 l 0,-0.39418 c 2.20452,-0.87597 4.73996,-1.65461 7.02235,-1.89793 l 0,-0.22386 c -11.14426,-1.99526 -21.89433,-4.90542 -32.68334,-7.76205 2.07799,4.73509 3.57687,9.72811 5.30934,14.64813 3.24108,-1.03656 6.56976,-1.82494 10.0639,-2.30185 5.68892,2.21425 13.83542,5.38233 14.64326,12.49714 0.63264,6.64762 -6.64762,9.89357 -11.24645,12.5896 -24.39084,8.87648 -51.83783,9.74271 -77.27983,2.99289 -7.02721,-2.21425 -17.16897,-5.05628 -18.04494,-14.00575 4.98815,-11.7769 17.88921,-14.22961 28.66362,-17.0911 -5.53807,-3.56714 -11.16859,-6.72549 -16.53633,-10.69654 -5.80085,0.33578 -11.10046,2.87122 -16.3222,5.14874 l 0,0 z m 45.03935,51.16625 c -0.9441,18.22013 -1.1777,35.08251 -2.52571,53.35131 7.20727,0.65698 15.3489,1.28475 23.03308,0.16059 l -2.29211,-50.91806 -0.40392,-2.42351 c -5.85438,0.22873 -11.39731,0.46232 -17.81134,-0.17033 l 0,0 z"
   id="path13"
   inkscape:connector-curvature="0"
   style="fill:#0072a6" />

</svg>