<?xml version="1.0" encoding="UTF-8" standalone="no"?>
<!-- Created with Inkscape (http://www.inkscape.org/) -->

<svg
   xmlns:dc="http://purl.org/dc/elements/1.1/"
   xmlns:cc="http://creativecommons.org/ns#"
   xmlns:rdf="http://www.w3.org/1999/02/22-rdf-syntax-ns#"
   xmlns:svg="http://www.w3.org/2000/svg"
   xmlns="http://www.w3.org/2000/svg"
   xmlns:xlink="http://www.w3.org/1999/xlink"
   xmlns:sodipodi="http://sodipodi.sourceforge.net/DTD/sodipodi-0.dtd"
   xmlns:inkscape="http://www.inkscape.org/namespaces/inkscape"
   width="16"
   height="16"
   id="svg3003"
   version="1.1"
   inkscape:version="0.91 r13725"
   sodipodi:docname="app-archive2-rar-16.svg"
   inkscape:export-filename="C:\wamp\www\TESTY\git-hub\system-icons\file-types\app-archive2-rar\app-archive2-rar-16.png"
   inkscape:export-xdpi="90"
   inkscape:export-ydpi="90">
  <defs
     id="defs3005">
    <filter
       id="filter8776-0"
       inkscape:collect="always">
      <feGaussianBlur
         id="feGaussianBlur8778-1"
         stdDeviation="0.11999994"
         inkscape:collect="always" />
    </filter>
    <linearGradient
       id="linearGradient7905-7-5">
      <stop
         id="stop7907-4-09"
         offset="0"
         style="stop-color:#d4d4d4;stop-opacity:1;" />
      <stop
         id="stop7909-0-0"
         offset="1"
         style="stop-color:#ffffff;stop-opacity:1;" />
    </linearGradient>
    <linearGradient
       inkscape:collect="always"
       xlink:href="#linearGradient7905-7-5"
       id="linearGradient12732"
       gradientUnits="userSpaceOnUse"
       gradientTransform="matrix(0,0.03958334,-0.03958334,0,15.143157,46.887024)"
       x1="276"
       y1="260"
       x2="136"
       y2="260" />
    <linearGradient
       inkscape:collect="always"
       xlink:href="#linearGradient7905-7-5"
       id="linearGradient12736"
       gradientUnits="userSpaceOnUse"
       gradientTransform="matrix(0,0.03958334,-0.03958334,0,14.253022,46.225013)"
       x1="336"
       y1="272"
       x2="276"
       y2="264" />
  </defs>
  <sodipodi:namedview
     id="base"
     pagecolor="#ffffff"
     bordercolor="#666666"
     borderopacity="1.0"
     inkscape:pageopacity="0.0"
     inkscape:pageshadow="2"
     inkscape:zoom="11"
     inkscape:cx="-38.389369"
     inkscape:cy="-9.2680723"
     inkscape:current-layer="layer1"
     showgrid="true"
     inkscape:document-units="px"
     inkscape:grid-bbox="true"
     showguides="true"
     inkscape:guide-bbox="true"
     inkscape:window-width="1920"
     inkscape:window-height="1028"
     inkscape:window-x="2872"
     inkscape:window-y="532"
     inkscape:window-maximized="1">
    <inkscape:grid
       type="xygrid"
       id="grid3011"
       empspacing="4"
       visible="true"
       enabled="true"
       snapvisiblegridlinesonly="true" />
    <sodipodi:guide
       orientation="1,0"
       position="1,3"
       id="guide3013" />
    <sodipodi:guide
       orientation="0,1"
       position="184,496"
       id="guide3015" />
    <sodipodi:guide
       orientation="0,1"
       position="5,1"
       id="guide3017" />
    <sodipodi:guide
       orientation="1,0"
       position="496,248"
       id="guide3019" />
    <sodipodi:guide
       orientation="1,0"
       position="56,96"
       id="guide3104" />
    <sodipodi:guide
       orientation="0,1"
       position="64,56"
       id="guide3106" />
    <sodipodi:guide
       orientation="1,0"
       position="15,3"
       id="guide3018" />
    <sodipodi:guide
       orientation="0,1"
       position="7,15"
       id="guide3020" />
  </sodipodi:namedview>
  <metadata
     id="metadata3008">
    <rdf:RDF>
      <cc:Work
         rdf:about="">
        <dc:format>image/svg+xml</dc:format>
        <dc:type
           rdf:resource="http://purl.org/dc/dcmitype/StillImage" />
        <dc:title />
      </cc:Work>
    </rdf:RDF>
  </metadata>
  <g
     id="layer1"
     inkscape:label="Layer 1"
     inkscape:groupmode="layer"
     transform="translate(0,-48)">
    <rect
       y="58"
       x="10"
       height="2"
       width="6"
       id="rect11633"
       style="fill:#ff00ff;fill-opacity:1;stroke:none" />
    <rect
       style="fill:#0000ff;fill-opacity:1;stroke:none"
       id="rect11635"
       width="6"
       height="2"
       x="10"
       y="60" />
    <rect
       y="62"
       x="10"
       height="2"
       width="6"
       id="rect11637"
       style="fill:#00ff00;fill-opacity:1;stroke:none" />
    <path
       style="fill:#c0c0c0;fill-opacity:1;fill-rule:nonzero;stroke:none"
       d="m 5.5098124,55.512917 0,2.058332 -1,0 0,-2.058332 z"
       id="path10452-9"
       inkscape:connector-curvature="0"
       sodipodi:nodetypes="ccccc" />
    <path
       style="fill:#8b4513;fill-opacity:1;fill-rule:nonzero;stroke:none"
       d="m 7.0098124,62.990188 -1,-1 -2,0 -1,1 0,-5 4,0 c 0,0 0,1.514957 0,5 z"
       id="path7977-3"
       inkscape:connector-curvature="0"
       sodipodi:nodetypes="ccccccc" />
    <path
       id="path7998-3"
       d="m 1.080353,54 1,1 0,2 -1,1 9.999992,0 2,-1 0,-2 -2,-1 -9.999992,0 z m 2.53125,1.5 c 0.276142,0 0.5,0.223858 0.5,0.5 0,0.276142 -0.223858,0.5 -0.5,0.5 -0.276142,0 -0.5,-0.223858 -0.5,-0.5 0,-0.276142 0.223858,-0.5 0.5,-0.5 z m 2,0 c 0.276142,0 0.5,0.223858 0.5,0.5 0,0.276142 -0.223858,0.5 -0.5,0.5 -0.276142,0 -0.5,-0.223858 -0.5,-0.5 0,-0.276142 0.223858,-0.5 0.5,-0.5 z m 2,0 c 0.276142,0 0.5,0.223858 0.5,0.5 0,0.276142 -0.223858,0.5 -0.5,0.5 -0.276142,0 -0.5,-0.223858 -0.5,-0.5 0,-0.276142 0.223858,-0.5 0.5,-0.5 z"
       style="fill:#000000;fill-opacity:1;fill-rule:nonzero;stroke:none;filter:url(#filter8776-0)"
       inkscape:connector-curvature="0"
       transform="matrix(0,1,-1,0,61.009823,47.990188)" />
    <path
       style="fill:#8b4513;fill-opacity:1;fill-rule:nonzero;stroke:none"
       d="m 7.0098124,48.990188 -1,1 -2,0 -1,-1 0,10 1,2 2,0 1,-2 0,-10 z m -1.5,2.53125 c 0,0.276142 -0.223858,0.5 -0.5,0.5 -0.276142,0 -0.5,-0.223858 -0.5,-0.5 0,-0.276142 0.223858,-0.5 0.5,-0.5 0.276142,0 0.5,0.223858 0.5,0.5 z m 0,2 c 0,0.276142 -0.223858,0.5 -0.5,0.5 -0.276142,0 -0.5,-0.223858 -0.5,-0.5 0,-0.276142 0.223858,-0.5 0.5,-0.5 0.276142,0 0.5,0.223858 0.5,0.5 z m 0,2 c 0,0.276142 -0.223858,0.5 -0.5,0.5 -0.276142,0 -0.5,-0.223858 -0.5,-0.5 0,-0.276142 0.223858,-0.5 0.5,-0.5 0.276142,0 0.5,0.223858 0.5,0.5 z"
       id="rect3255-2"
       inkscape:connector-curvature="0" />
    <path
       sodipodi:nodetypes="ccccc"
       inkscape:connector-curvature="0"
       id="rect7921-8"
       d="m 7.0098124,57.990188 -4,0 0,1 4,0 z"
       style="fill:#c0c0c0;fill-opacity:1;fill-rule:nonzero;stroke:none" />
    <path
       style="fill:url(#linearGradient12736);fill-opacity:1;fill-rule:nonzero;stroke:none"
       d="m 6.7687714,58.102688 -3.555318,0 0,0.775 3.555318,0 z"
       id="path7926-3"
       inkscape:connector-curvature="0"
       sodipodi:nodetypes="ccccc" />
    <path
       sodipodi:nodetypes="ccccccccc"
       inkscape:connector-curvature="0"
       id="rect7877-4"
       d="m 9.0098127,52.990188 -8.0000003,0 0,5 2,0.002 c 0,-1.013333 0,-2.026666 0,-3.04 l 4,0 c 0,1.013128 0,2.026257 0,3.039385 l 2.0000003,-0.0014 z"
       style="fill:#c0c0c0;fill-opacity:1;fill-rule:nonzero;stroke:none" />
    <path
       style="fill:url(#linearGradient12732);fill-opacity:1;fill-rule:nonzero;stroke:none"
       d="m 8.0098127,53.990188 -6.0000003,0 0,3 1,0 0,-1 0,-1 4,0 0,1 0,1 1.0000003,0 z"
       id="path7895-0"
       inkscape:connector-curvature="0"
       sodipodi:nodetypes="ccccccccccc" />
    <path
       sodipodi:nodetypes="ccccc"
       inkscape:connector-curvature="0"
       id="rect9586-2"
       d="m 5.5098124,54.961782 0,0.551989 -1,0 0,-0.551989 c 0,-1 1,-1 1,0 z"
       style="fill:#c0c0c0;fill-opacity:1;fill-rule:nonzero;stroke:none" />
  </g>
</svg>
