<?xml version="1.0" encoding="UTF-8" standalone="no"?>
<!-- Created with Inkscape (http://www.inkscape.org/) -->

<svg
   xmlns:dc="http://purl.org/dc/elements/1.1/"
   xmlns:cc="http://creativecommons.org/ns#"
   xmlns:rdf="http://www.w3.org/1999/02/22-rdf-syntax-ns#"
   xmlns:svg="http://www.w3.org/2000/svg"
   xmlns="http://www.w3.org/2000/svg"
   xmlns:sodipodi="http://sodipodi.sourceforge.net/DTD/sodipodi-0.dtd"
   xmlns:inkscape="http://www.inkscape.org/namespaces/inkscape"
   width="16"
   height="16"
   id="svg3003"
   version="1.1"
   inkscape:version="0.48.5 r10040"
   sodipodi:docname="app-css3-16.svg"
   inkscape:export-filename="C:\wamp\www\TESTY\git-hub\system-icons\file-types\app-css3\app-css3-16.png"
   inkscape:export-xdpi="90"
   inkscape:export-ydpi="90">
  <defs
     id="defs3005">
    <clipPath
       id="clipPath3008"
       clipPathUnits="userSpaceOnUse">
      <path
         id="path3010"
         d="M 0,4105.95 0,0 l 5477.71,0 0,4105.95 -5477.71,0 z"
         inkscape:connector-curvature="0" />
    </clipPath>
    <clipPath
       id="clipPath3008-4"
       clipPathUnits="userSpaceOnUse">
      <path
         id="path3010-0"
         d="M 0,4105.95 0,0 l 5477.71,0 0,4105.95 -5477.71,0 z" />
    </clipPath>
    <clipPath
       clipPathUnits="userSpaceOnUse"
       id="clipPath3008-40">
      <path
         inkscape:connector-curvature="0"
         d="M 0,4105.95 0,0 l 5477.71,0 0,4105.95 -5477.71,0 z"
         id="path3010-9" />
    </clipPath>
  </defs>
  <sodipodi:namedview
     id="base"
     pagecolor="#ffffff"
     bordercolor="#666666"
     borderopacity="1.0"
     inkscape:pageopacity="0.0"
     inkscape:pageshadow="2"
     inkscape:zoom="11"
     inkscape:cx="-26.387103"
     inkscape:cy="-2.4394085"
     inkscape:current-layer="layer1"
     showgrid="true"
     inkscape:document-units="px"
     inkscape:grid-bbox="true"
     showguides="true"
     inkscape:guide-bbox="true"
     inkscape:window-width="1920"
     inkscape:window-height="1028"
     inkscape:window-x="1592"
     inkscape:window-y="-8"
     inkscape:window-maximized="1">
    <inkscape:grid
       type="xygrid"
       id="grid3011"
       empspacing="4"
       visible="true"
       enabled="true"
       snapvisiblegridlinesonly="true" />
    <sodipodi:guide
       orientation="1,0"
       position="1,3"
       id="guide3013" />
    <sodipodi:guide
       orientation="0,1"
       position="184,496"
       id="guide3015" />
    <sodipodi:guide
       orientation="0,1"
       position="5,1"
       id="guide3017" />
    <sodipodi:guide
       orientation="1,0"
       position="496,248"
       id="guide3019" />
    <sodipodi:guide
       orientation="1,0"
       position="56,96"
       id="guide3104" />
    <sodipodi:guide
       orientation="0,1"
       position="64,56"
       id="guide3106" />
    <sodipodi:guide
       orientation="1,0"
       position="15,3"
       id="guide3018" />
    <sodipodi:guide
       orientation="0,1"
       position="7,15"
       id="guide3020" />
  </sodipodi:namedview>
  <metadata
     id="metadata3008">
    <rdf:RDF>
      <cc:Work
         rdf:about="">
        <dc:format>image/svg+xml</dc:format>
        <dc:type
           rdf:resource="http://purl.org/dc/dcmitype/StillImage" />
        <dc:title></dc:title>
      </cc:Work>
    </rdf:RDF>
  </metadata>
  <g
     id="layer1"
     inkscape:label="Layer 1"
     inkscape:groupmode="layer"
     transform="translate(0,-48)">
    <path
       style="fill:#1673b6;fill-opacity:1;fill-rule:nonzero;stroke:none"
       d="m 1,49 14,0 0,14 -14,0 z"
       id="rect3021"
       inkscape:connector-curvature="0" />
    <path
       style="fill:#35a9db;fill-opacity:1;fill-rule:nonzero;stroke:none"
       d="m 8,50 6,0 0,12 -6,0 z"
       id="rect3791"
       inkscape:connector-curvature="0"
       sodipodi:nodetypes="ccccc" />
    <flowRoot
       xml:space="preserve"
       id="flowRoot3180"
       style="font-size:1.60000002px;font-style:normal;font-variant:normal;font-weight:bold;font-stretch:normal;line-height:125%;letter-spacing:0px;word-spacing:0px;fill:#000000;fill-opacity:1;stroke:none;font-family:Courier New;-inkscape-font-specification:Courier New Bold"
       transform="translate(-55.588674,12.47191)"><flowRegion
         id="flowRegion3182"><rect
           id="rect3184"
           width="28.669966"
           height="40.240803"
           x="-37.862354"
           y="0.36038893"
           style="font-size:1.60000002px;font-style:normal;font-variant:normal;font-weight:bold;font-stretch:normal;font-family:Courier New;-inkscape-font-specification:Courier New Bold" /></flowRegion><flowPara
         id="flowPara3186" /></flowRoot>    <g
       id="g3913"
       transform="matrix(0.88874583,0,0,0.88874583,-16.890123,12.030494)">
      <g
         transform="matrix(0.05335847,0,0,0.05335847,-17.316068,28.489636)"
         id="g3154">
        <polygon
           style="fill:#ffffff"
           points="942.65,287.829 941.758,297.82 932.605,400.436 849.275,400.436 849.275,363.2 898.551,363.2 901.953,325.068 849.275,325.068 849.275,287.829 849.404,287.829 "
           id="polygon3156" />
        <polygon
           style="fill:#ebebeb"
           points="767.832,419.057 773.049,477.525 849.326,498.701 849.498,498.652 849.498,459.907 849.336,459.954 807.863,448.754 805.212,419.057 785.061,419.057 "
           id="polygon3158" />
        <polygon
           style="fill:#ffffff"
           points="849.369,459.94 849.369,498.682 925.709,477.525 926.269,471.234 932.746,398.859 895.386,398.859 890.901,448.729 "
           id="polygon3160" />
        <polygon
           style="fill:#ebebeb"
           points="759.457,325.068 758.711,316.698 757.014,297.82 756.123,287.829 849.404,287.829 849.404,310.957 849.404,324.976 849.404,325.068 759.576,325.068 759.576,325.068 "
           id="polygon3162" />
        <polygon
           style="fill:#ebebeb"
           points="808.328,400.441 807.582,392.073 805.885,373.195 804.994,363.204 849.275,363.204 849.275,386.333 849.275,400.35 849.275,400.441 808.447,400.441 808.447,400.441 "
           id="polygon3164" />
      </g>
    </g>
  </g>
</svg>
