<?xml version="1.0" encoding="utf-8"?>
<!-- Generator: Adobe Illustrator 15.0.2, SVG Export Plug-In . SVG Version: 6.00 Build 0)  -->
<!DOCTYPE svg PUBLIC "-//W3C//DTD SVG 1.1//EN" "http://www.w3.org/Graphics/SVG/1.1/DTD/svg11.dtd">
<svg version="1.1" id="Layer_1" xmlns="http://www.w3.org/2000/svg" xmlns:xlink="http://www.w3.org/1999/xlink" x="0px" y="0px"
	 width="612px" height="792px" viewBox="0 0 612 792" enable-background="new 0 0 612 792" xml:space="preserve">
<path fill-rule="evenodd" clip-rule="evenodd" fill="#FFFFFF" d="M451.188,503.715l-65.074-103.248
	c-0.078,0.02-0.155,0.038-0.234,0.054c-3.329,0.677-7.562-2.327-9.453-6.708s-0.728-8.481,2.602-9.157
	c3.329-0.677,7.562,2.327,9.453,6.708c1.227,2.84,1.168,5.562,0.069,7.309l62.974,104.811c5.004-2.99,1.041-11.713-0.673-14.051
	c-2.776-15.363-8.7-26.171-13.534-61.507c-6.767-30.242-16.247-43.318-18.618-48.014l-30.258-51.885
	c-1.599,1.252-3.192,2.495-4.789,3.728c10.491,16.598,26.313,43.08,26.671,43.965c1.282,2.374,13.224,22.174,16.283,34.356
	c-1.505-2.501-23.904-35.372-32.049-48.25c-4.85-7.67-10.349-16.097-16.742-25.61c-4.511,3.401-9.086,6.732-13.854,9.993
	c-8.651,5.917-17.587,11.534-26.769,16.711c18.963,43.203,41.752,69.467,59.761,88.407c15.157,15.94,38.713,42.675,40.261,44.927
	C440.692,503.248,447.952,505.3,451.188,503.715 M312.382,375.484c8.028,14.577,27.826,50.634,28.973,51.285
	c1.848,2.024,7.07,15.455,41.192,34.275c30.944,17.815,42.688,29.041,52.713,38.017c2.185,2.64,5.322,5.915,7.846,6.324
	c2.608,0.558,5.666-0.19,7.729-1.309c-4.754,1.259-6.569,0.048-7.822-0.485c-2.505-1.048-4.693-3.976-6.878-6.615
	c-10.025-8.975-17.364-20.956-48.31-38.773c-34.121-18.818-39.344-32.251-41.191-34.274c-1.119-0.635-20.575-35.501-29.069-50.83
	C315.844,373.912,314.115,374.708,312.382,375.484z"/>
<g>
	<defs>
		<path id="SVGID_1_" d="M262.535,226.93c-18.528,5.894-30.926,15.245-47.814,30.198c3.649,5.533,48.791,74.265,48.539,75.302
			c12.369-4.443,65.203-25.034,106.385-65.974c-2.192-3.063-60.591-104.829-75.359-129.276
			c-35.399,10.281-48.811,18.895-66.621,29.564C235.753,189.227,248.392,208.594,262.535,226.93"/>
	</defs>
	<clipPath id="SVGID_2_">
		<use xlink:href="#SVGID_1_"  overflow="visible"/>
	</clipPath>
	
		<linearGradient id="SVGID_3_" gradientUnits="userSpaceOnUse" x1="0" y1="791.5" x2="1" y2="791.5" gradientTransform="matrix(-162.3132 -193.4373 190.1232 -159.5323 -150109.1875 126601.25)">
		<stop  offset="0" style="stop-color:#BED3EA"/>
		<stop  offset="0.5" style="stop-color:#FEFEFE"/>
		<stop  offset="1" style="stop-color:#FEFEFE"/>
	</linearGradient>
	<polygon clip-path="url(#SVGID_2_)" fill="url(#SVGID_3_)" points="465.787,251.757 305.634,60.895 118.579,217.853 
		278.732,408.715 	"/>
</g>
</svg>
