<?xml version="1.0" encoding="UTF-8" standalone="no"?>
<!-- Created with Inkscape (http://www.inkscape.org/) -->

<svg
   xmlns:dc="http://purl.org/dc/elements/1.1/"
   xmlns:cc="http://creativecommons.org/ns#"
   xmlns:rdf="http://www.w3.org/1999/02/22-rdf-syntax-ns#"
   xmlns:svg="http://www.w3.org/2000/svg"
   xmlns="http://www.w3.org/2000/svg"
   xmlns:sodipodi="http://sodipodi.sourceforge.net/DTD/sodipodi-0.dtd"
   xmlns:inkscape="http://www.inkscape.org/namespaces/inkscape"
   width="512"
   height="512"
   id="svg3003"
   version="1.1"
   inkscape:version="0.91 r13725"
   sodipodi:docname="app-package-rpm-512.svg"
   inkscape:export-filename="C:\wamp\www\TESTY\git-hub\system-icons\file-types\app-package-rpm\app-package-rpm-512.png"
   inkscape:export-xdpi="90"
   inkscape:export-ydpi="90">
  <defs
     id="defs3005">
    <filter
       inkscape:collect="always"
       id="filter4538">
      <feGaussianBlur
         inkscape:collect="always"
         stdDeviation="1.0425"
         id="feGaussianBlur4540" />
    </filter>
  </defs>
  <sodipodi:namedview
     id="base"
     pagecolor="#ffffff"
     bordercolor="#666666"
     borderopacity="1.0"
     inkscape:pageopacity="0.0"
     inkscape:pageshadow="2"
     inkscape:zoom="1"
     inkscape:cx="277.35924"
     inkscape:cy="164.56227"
     inkscape:current-layer="layer1"
     showgrid="true"
     inkscape:document-units="px"
     inkscape:grid-bbox="true"
     showguides="true"
     inkscape:guide-bbox="true"
     inkscape:window-width="1920"
     inkscape:window-height="1028"
     inkscape:window-x="2872"
     inkscape:window-y="532"
     inkscape:window-maximized="1">
    <inkscape:grid
       type="xygrid"
       id="grid3011"
       empspacing="4"
       visible="true"
       enabled="true"
       snapvisiblegridlinesonly="true" />
    <sodipodi:guide
       orientation="1,0"
       position="16,376"
       id="guide3013" />
    <sodipodi:guide
       orientation="0,1"
       position="184,496"
       id="guide3015" />
    <sodipodi:guide
       orientation="0,1"
       position="336,16"
       id="guide3017" />
    <sodipodi:guide
       orientation="1,0"
       position="496,248"
       id="guide3019" />
    <sodipodi:guide
       orientation="1,0"
       position="280,312"
       id="guide3104" />
    <sodipodi:guide
       orientation="0,1"
       position="488,144"
       id="guide3106" />
    <sodipodi:guide
       orientation="1,0"
       position="316,44"
       id="guide3055" />
    <sodipodi:guide
       orientation="1,0"
       position="80,368"
       id="guide4116" />
    <sodipodi:guide
       orientation="0,1"
       position="368,320"
       id="guide5322" />
    <sodipodi:guide
       orientation="1,0"
       position="160,384"
       id="guide5324" />
    <sodipodi:guide
       orientation="1,0"
       position="352,328"
       id="guide5326" />
  </sodipodi:namedview>
  <metadata
     id="metadata3008">
    <rdf:RDF>
      <cc:Work
         rdf:about="">
        <dc:format>image/svg+xml</dc:format>
        <dc:type
           rdf:resource="http://purl.org/dc/dcmitype/StillImage" />
        <dc:title />
      </cc:Work>
    </rdf:RDF>
  </metadata>
  <g
     id="layer1"
     inkscape:label="Layer 1"
     inkscape:groupmode="layer"
     transform="translate(0,448)">
    <path
       style="fill:#8b4513;fill-opacity:1;fill-rule:nonzero;stroke:none"
       d="m 64,-320 96,-48 0,-32 32,-32 128,0 32,32 0,32 96,48 0,368 -384,0 z"
       id="rect3021"
       inkscape:connector-curvature="0"
       sodipodi:nodetypes="ccccccccccc" />
    <path
       sodipodi:nodetypes="ccccccccccccc"
       inkscape:connector-curvature="0"
       id="path5330"
       d="m 70,-321 92,-46 0,-32 30,-31 c 0,0 112.16949,0 128,0 l 30,31 0,32 92,46 -59,0 -32,40 -190,0 -32,-40 z"
       style="fill:#deb887;fill-opacity:1;fill-rule:nonzero;stroke:none" />
    <g
       id="g3459"
       transform="matrix(1.8361798,0,0,1.8361798,-926.17528,312.77571)">
      <path
         id="path3397"
         style="fill:#ffffff"
         d="m 699.07561,-295.24743 c -2.53608,-0.57942 -5.22817,-0.94936 -7.94699,-0.94936 -4.65766,0 -8.8919,0.81119 -12.01632,2.1082 -0.34766,0.17383 -0.58834,0.53486 -0.58834,0.94045 0,0.15154 0.0312,0.30308 0.0936,0.42788 0.36548,1.0697 -0.24068,2.22409 -3.26259,2.89711 -4.48384,0.98056 -7.31409,5.61148 -8.93202,7.14027 -1.90318,1.80512 -7.26952,2.91493 -6.46278,1.83186 0.6329,-0.83348 3.04865,-3.4587 4.51503,-6.29341 1.3193,-2.53163 2.49152,-3.25368 4.10053,-5.67388 0.47691,-0.70868 2.30877,-3.2002 2.84362,-5.17023 0.59725,-1.92547 0.39668,-4.34121 0.62845,-5.33514 0.32983,-1.43519 1.68033,-4.54178 1.78284,-6.30679 0.0579,-0.98502 -4.14955,1.42627 -6.14633,1.42627 -1.99678,0 -3.94453,-1.19896 -5.72737,-1.27918 -2.20626,-0.10697 -3.62807,1.69815 -5.6293,1.37724 -1.13656,-0.17829 -2.10375,-1.18113 -4.09161,-1.25245 -2.83917,-0.10697 -6.31125,1.57336 -12.82306,1.36833 -6.4093,-0.20948 -12.32832,-8.10299 -13.13505,-9.35544 -0.94936,-1.46638 -2.10821,-1.46638 -3.36511,-0.30754 -1.26136,1.14548 -2.82134,0.24069 -3.25813,-0.53039 -0.84239,-1.47084 -3.08877,-5.76302 -6.56976,-6.66781 -4.81366,-1.24799 -7.25169,2.66534 -6.93524,5.77193 0.32092,3.16008 2.36672,4.04705 3.31608,5.72737 0.94045,1.67587 1.42627,2.7634 3.20019,3.50773 1.26582,0.52594 1.73381,1.30147 1.35942,2.33552 -0.32983,0.90033 -1.64021,1.10981 -2.50935,1.14993 -1.83186,0.0891 -3.1155,-0.41005 -4.05595,-1.0073 -1.08753,-0.69977 -1.97895,-1.6625 -2.92385,-3.29825 -1.10536,-1.80958 -2.83917,-2.59403 -4.85823,-2.59403 -0.96274,0 -1.86753,0.25405 -2.66535,0.65965 -3.16453,1.65358 -6.93523,2.62523 -10.99119,2.62523 l -4.58189,0.004 c 8.77602,26.01605 33.39254,44.74476 62.38593,44.74476 23.1546,0 43.51906,-11.94501 55.25012,-30.02298"
         inkscape:connector-curvature="0" />
      <path
         id="path3399"
         style="fill:#000000"
         d="m 699.07561,-295.23852 c -2.53608,-0.58833 -5.22817,-0.95381 -7.94699,-0.95381 -4.65766,0 -8.8919,0.81119 -12.01632,2.1082 -0.34766,0.17383 -0.58834,0.5304 -0.58834,0.94045 0,0.14708 0.0312,0.30308 0.0936,0.42342 0.36548,1.07416 -0.24068,2.23301 -3.26259,2.90157 -4.48384,0.98502 -7.31409,5.60702 -8.93202,7.13581 -1.90318,1.80958 -7.26952,2.91939 -6.46278,1.84078 0.6329,-0.8424 3.04865,-3.46762 4.51503,-6.30233 1.3193,-2.52718 2.49152,-3.25368 4.10053,-5.66943 0.47691,-0.70867 2.30877,-3.20465 2.84362,-5.17022 0.59725,-1.92993 0.39668,-4.34121 0.62845,-5.33514 0.32983,-1.43519 1.68033,-4.54178 1.78284,-6.30233 0.0579,-0.99394 -4.14955,1.41735 -6.14633,1.41735 -1.99678,0 -3.94453,-1.1945 -5.72737,-1.27473 -2.20626,-0.11142 -3.62807,1.69816 -5.6293,1.37724 -1.13656,-0.17828 -2.10375,-1.18112 -4.09161,-1.2569 -2.83917,-0.10251 -6.31125,1.57782 -12.82306,1.36833 -6.4093,-0.20948 -12.32832,-8.09408 -13.13505,-9.34652 -0.94936,-1.4753 -2.10821,-1.4753 -3.36511,-0.31646 -1.26136,1.14993 -2.82134,0.24514 -3.25813,-0.52593 -0.84239,-1.4753 -3.08877,-5.76748 -6.56976,-6.67227 -4.81366,-1.24799 -7.25169,2.66534 -6.93524,5.77639 0.32092,3.15562 2.36672,4.04259 3.31608,5.72291 0.94045,1.67587 1.42627,2.76785 3.20019,3.51219 1.26582,0.52148 1.73381,1.30147 1.35942,2.33552 -0.32983,0.90033 -1.64021,1.10981 -2.50935,1.14993 -1.83186,0.0847 -3.1155,-0.41006 -4.05595,-1.01622 -1.08753,-0.68639 -1.97895,-1.65358 -2.92385,-3.29379 -1.10536,-1.80513 -2.83917,-2.59403 -4.85823,-2.59403 -0.96274,0 -1.86753,0.25851 -2.66535,0.65965 -3.16453,1.65358 -6.93523,2.62968 -10.99119,2.62968 l -4.58189,0 c -2.22854,-6.60095 -3.43196,-13.67436 -3.43196,-21.0241 0,-36.33423 29.46584,-65.78224 65.81789,-65.78224 36.34314,0 65.81343,29.44801 65.81343,65.78224 0,13.18408 -3.88212,25.45 -10.56331,35.75479"
         inkscape:connector-curvature="0" />
      <path
         id="path3401"
         style="fill:#000000"
         d="m 658.31728,-301.27119 c 0.33874,0.32537 0.92262,1.43518 0.20949,2.84808 -0.40114,0.74879 -0.83348,1.27027 -1.6001,1.88535 -0.93153,0.74434 -2.73666,1.6001 -5.2148,0.0223 -1.33713,-0.84239 -1.42181,-1.12765 -3.26259,-0.88696 -1.31484,0.16937 -1.83632,-1.1633 -1.36833,-2.26421 0.47691,-1.1009 2.41575,-1.99232 4.83595,-0.57496 1.09199,0.63736 2.78568,1.99232 4.26544,0.7889 0.61953,-0.48582 0.98947,-0.81564 1.84077,-1.80512 0.0401,-0.0401 0.0936,-0.0624 0.156,-0.0624 0.0535,0 0.10252,0.0178 0.13817,0.049"
         inkscape:connector-curvature="0" />
      <path
         id="path3403"
         style="fill:#e93442"
         d="m 638.70028,-365.4511 c -7.59934,0.54822 -8.39271,1.36833 -9.81452,2.87928 -2.00569,2.14386 -4.6532,-2.76785 -4.6532,-2.76785 -1.59119,-0.33428 -3.51219,-2.89266 -2.47369,-5.2772 1.02513,-2.36226 2.91494,-1.65804 3.50327,-0.92262 0.7176,0.89588 2.25529,2.36226 4.25207,2.30878 1.99678,-0.0535 4.29664,-0.47246 7.5102,-0.47246 3.25368,0 5.43766,1.21233 5.558,2.25975 0.11143,0.88696 -0.26297,1.72489 -3.88213,1.99232 m 7.98711,-12.55563 -0.0357,0 c -0.11588,0 -0.20948,-0.0891 -0.20948,-0.19611 0,-0.0802 0.049,-0.15154 0.12034,-0.18274 1.4753,-0.77554 3.67265,-1.39953 6.18645,-1.64913 0.75325,-0.0802 1.49312,-0.1248 2.2018,-0.1248 l 0.37885,0 c 4.22087,0.0981 7.59489,1.77393 7.54586,3.74396 -0.0535,1.97004 -3.50773,3.48991 -7.73305,3.40076 -1.35942,-0.0356 -2.64306,-0.23177 -3.74396,-0.55268 -0.13817,-0.0312 -0.22731,-0.14262 -0.22731,-0.27634 0,-0.12925 0.0891,-0.24068 0.23176,-0.27634 2.62523,-0.60616 4.40361,-1.60455 4.27881,-2.545 -0.16937,-1.24352 -3.60578,-1.921 -7.68848,-1.51095 -0.45017,0.0446 -0.88251,0.10251 -1.30593,0.16937 m 34.27504,29.51041 c -0.65073,2.18398 -1.57335,4.97857 -5.6917,7.09124 -0.60171,0.30754 -0.82456,-0.19612 -0.55268,-0.66857 1.55998,-2.64751 1.83186,-3.30716 2.28649,-4.34566 0.62845,-1.52879 0.96719,-3.69939 -0.29417,-8.21888 -2.47369,-8.90082 -7.64392,-20.80571 -11.39233,-24.6611 -3.62362,-3.72613 -10.18446,-4.778 -16.12131,-3.25368 -2.18397,0.55714 -6.45832,2.77677 -14.38304,0.99394 -13.71447,-3.08877 -15.7469,3.77515 -16.53135,6.76586 -0.79337,2.99071 -2.68317,11.49039 -2.68317,11.49039 -0.62845,3.46762 -1.45301,9.48469 19.84743,13.5451 9.92149,1.88535 10.42069,4.45264 10.86639,6.29342 0.78891,3.30271 2.04581,5.19251 3.46317,6.13742 1.41735,0.9449 0,1.72935 -1.57336,1.88535 -4.22087,0.44125 -19.84298,-4.03813 -29.08699,-9.28413 -7.55923,-4.61755 -7.68402,-8.77156 -5.95467,-12.30157 -11.41907,-1.23462 -19.99006,1.0697 -21.54113,6.47615 -2.6698,9.27076 20.39565,25.11126 46.6613,33.06272 27.56267,8.33922 55.90978,2.5138 59.06094,-14.80201 1.43073,-7.86677 -5.19697,-13.68773 -16.37982,-16.20599"
         inkscape:connector-curvature="0" />
    </g>
    <path
       style="opacity:0.39655172;fill:#000000;fill-opacity:1;fill-rule:nonzero;stroke:none;filter:url(#filter4538)"
       d="m 71,-322 3,50 366,-3.5 2,-46.5 -61,0 -32,39 -186,0 -32,-39 z"
       id="path4536"
       inkscape:connector-curvature="0"
       sodipodi:nodetypes="ccccccccc" />
    <path
       sodipodi:nodetypes="ccccccccc"
       inkscape:connector-curvature="0"
       id="path4534"
       d="m 68,-321 3.25,86.25 368,-1 4.75,-85.25 -61,0 -32,40 -190,0 -32,-40 z"
       style="fill:#8b4513;fill-opacity:1;fill-rule:nonzero;stroke:none" />
    <path
       style="fill:#deb887;fill-opacity:1;fill-rule:nonzero;stroke:none"
       d="m 68,-320 -2,1 0,365 380,0 0,-365 -2,-1 -60,0 -32,40 -192,0 -32,-40 z"
       id="rect5332"
       inkscape:connector-curvature="0"
       sodipodi:nodetypes="ccccccccccc" />
    <rect
       style="fill:#8b4513;fill-opacity:1;fill-rule:nonzero;stroke:none"
       id="rect5328"
       width="192"
       height="1.9864292"
       x="160"
       y="-256" />
    <text
       xml:space="preserve"
       style="font-size:5.00981903px;font-style:normal;font-variant:normal;font-weight:normal;font-stretch:normal;line-height:125%;letter-spacing:0px;word-spacing:0px;fill:#000000;fill-opacity:1;stroke:none;font-family:Courier New;-inkscape-font-specification:Courier New"
       x="662.49847"
       y="-38.085346"
       id="text6560"
       sodipodi:linespacing="125%"><tspan
         y="-38.085346"
         x="662.49847"
         sodipodi:role="line"
         id="tspan6562" /></text>
    <rect
       style="opacity:0.6;fill:#dcdcdc;fill-opacity:1;fill-rule:nonzero;stroke:none"
       id="rect5197"
       width="384"
       height="11.934136"
       x="64"
       y="36.065865" />
    <text
       xml:space="preserve"
       style="font-style:normal;font-variant:normal;font-weight:bold;font-stretch:normal;font-size:77.13748169px;line-height:125%;font-family:Arial;-inkscape-font-specification:'Arial Bold';letter-spacing:0px;word-spacing:0px;fill:#ff0000;fill-opacity:1;stroke:none"
       x="291.09979"
       y="-3.1563079"
       id="text5199"
       sodipodi:linespacing="125%"><tspan
         sodipodi:role="line"
         id="tspan5201"
         x="291.09979"
         y="-3.1563079">rpm</tspan></text>
    <path
       sodipodi:nodetypes="cccccccc"
       inkscape:connector-curvature="0"
       id="path5209"
       d="m 432,-316 -8,8 5,0 0,10 6,0 0,-10 5,0 z"
       style="opacity:0.32413791;fill:#a68167;fill-opacity:1;stroke:#8b4513;stroke-width:0.64285713px;stroke-linecap:butt;stroke-linejoin:miter;stroke-opacity:1" />
    <rect
       y="-448"
       x="-320"
       height="12.110912"
       width="368"
       id="rect5203"
       style="opacity:0.6;fill:#dcdcdc;fill-opacity:1;fill-rule:nonzero;stroke:none"
       transform="matrix(0,1,-1,0,0,0)" />
    <path
       style="opacity:0.32413791;fill:#a68167;fill-opacity:1;stroke:#8b4513;stroke-width:0.64285713px;stroke-linecap:butt;stroke-linejoin:miter;stroke-opacity:1"
       d="m 80,-316 -8,8 5,0 0,10 6,0 0,-10 5,0 z"
       id="path5207"
       inkscape:connector-curvature="0"
       sodipodi:nodetypes="cccccccc" />
    <rect
       transform="matrix(0,1,-1,0,0,0)"
       style="opacity:0.6;fill:#dcdcdc;fill-opacity:1;fill-rule:nonzero;stroke:none"
       id="rect5205"
       width="368"
       height="11.75736"
       x="-320"
       y="-75.757362" />
    <rect
       style="fill:#a68167;fill-opacity:1;fill-rule:nonzero;stroke:none"
       id="rect5211"
       width="88"
       height="128"
       x="544"
       y="-80" />
    <rect
       style="fill:#a68167;fill-opacity:1;fill-rule:nonzero;stroke:none"
       id="rect5213"
       width="168"
       height="64"
       x="280"
       y="88" />
  </g>
</svg>
