<?xml version="1.0" encoding="UTF-8" standalone="no"?>
<!-- Created with Inkscape (http://www.inkscape.org/) -->

<svg
   xmlns:dc="http://purl.org/dc/elements/1.1/"
   xmlns:cc="http://creativecommons.org/ns#"
   xmlns:rdf="http://www.w3.org/1999/02/22-rdf-syntax-ns#"
   xmlns:svg="http://www.w3.org/2000/svg"
   xmlns="http://www.w3.org/2000/svg"
   xmlns:sodipodi="http://sodipodi.sourceforge.net/DTD/sodipodi-0.dtd"
   xmlns:inkscape="http://www.inkscape.org/namespaces/inkscape"
   width="64"
   height="64"
   id="svg3003"
   version="1.1"
   inkscape:version="0.91 r13725"
   sodipodi:docname="app-package-rpm-64.svg"
   inkscape:export-filename="C:\wamp\www\TESTY\git-hub\system-icons\file-types\app-package-rpm\app-package-rpm-64.png"
   inkscape:export-xdpi="90"
   inkscape:export-ydpi="90">
  <defs
     id="defs3005" />
  <sodipodi:namedview
     id="base"
     pagecolor="#ffffff"
     bordercolor="#666666"
     borderopacity="1.0"
     inkscape:pageopacity="0.0"
     inkscape:pageshadow="2"
     inkscape:zoom="22"
     inkscape:cx="25.41554"
     inkscape:cy="37.617922"
     inkscape:current-layer="layer1"
     showgrid="true"
     inkscape:document-units="px"
     inkscape:grid-bbox="true"
     showguides="true"
     inkscape:guide-bbox="true"
     inkscape:window-width="1920"
     inkscape:window-height="1028"
     inkscape:window-x="2872"
     inkscape:window-y="532"
     inkscape:window-maximized="1">
    <inkscape:grid
       type="xygrid"
       id="grid3011"
       empspacing="4"
       visible="true"
       enabled="true"
       snapvisiblegridlinesonly="true" />
    <sodipodi:guide
       orientation="1,0"
       position="8,176"
       id="guide3013" />
    <sodipodi:guide
       orientation="0,1"
       position="184,496"
       id="guide3015" />
    <sodipodi:guide
       orientation="0,1"
       position="40,8"
       id="guide3017" />
    <sodipodi:guide
       orientation="1,0"
       position="496,248"
       id="guide3019" />
    <sodipodi:guide
       orientation="1,0"
       position="56,96"
       id="guide3104" />
    <sodipodi:guide
       orientation="0,1"
       position="64,56"
       id="guide3106" />
    <sodipodi:guide
       orientation="1,0"
       position="24,32"
       id="guide3393" />
    <sodipodi:guide
       orientation="0,1"
       position="52,28"
       id="guide3395" />
  </sodipodi:namedview>
  <metadata
     id="metadata3008">
    <rdf:RDF>
      <cc:Work
         rdf:about="">
        <dc:format>image/svg+xml</dc:format>
        <dc:type
           rdf:resource="http://purl.org/dc/dcmitype/StillImage" />
        <dc:title />
      </cc:Work>
    </rdf:RDF>
  </metadata>
  <g
     id="layer1"
     inkscape:label="Layer 1"
     inkscape:groupmode="layer">
    <text
       xml:space="preserve"
       style="font-size:2.25391102px;font-style:normal;font-weight:normal;line-height:125%;letter-spacing:0px;word-spacing:0px;fill:#000000;fill-opacity:1;stroke:none;font-family:Sans"
       x="57.995598"
       y="93.075829"
       id="text3219"
       sodipodi:linespacing="125%"><tspan
         sodipodi:role="line"
         id="tspan3221"
         x="57.995598"
         y="93.075829" /></text>
    <path
       style="fill:#8b4513;fill-opacity:1;fill-rule:nonzero;stroke:none"
       d="m 14,19 9,-5 0,-3 3,-3 12,0 3,3 0,3 9,5 0,37 -36,0 z"
       id="rect3021-7"
       inkscape:connector-curvature="0"
       sodipodi:nodetypes="ccccccccccc" />
    <path
       sodipodi:nodetypes="ccccccccccccc"
       inkscape:connector-curvature="0"
       id="path5330"
       d="m 16,19 8,-4 0,-3 3,-3 c 0,0 8.417432,0 10,0 l 3,3 0,3 8,4 -5,0 -2,4 -18,0 -2,-4 z"
       style="fill:#deb887;fill-opacity:1;fill-rule:nonzero;stroke:none" />
    <g
       id="g3562"
       transform="matrix(0.8084565,0,0,0.8084565,87.38712,2.7971773)">
      <path
         id="path3500"
         style="fill:#ffffff"
         d="m -56.113212,33.066345 c -0.569,-0.13 -1.173,-0.213 -1.783,-0.213 -1.045,0 -1.995,0.182 -2.696,0.473 -0.078,0.039 -0.132,0.12 -0.132,0.211 0,0.034 0.007,0.068 0.021,0.096 0.082,0.24 -0.054,0.499 -0.732,0.65 -1.006,0.22 -1.641,1.259 -2.004,1.602 -0.427,0.405 -1.631,0.654 -1.45,0.411 0.142,-0.187 0.684,-0.776 1.013,-1.412 0.296,-0.568 0.559,-0.73 0.92,-1.273 0.107,-0.159 0.518,-0.718 0.638,-1.16 0.134,-0.432 0.089,-0.974 0.141,-1.197 0.074,-0.322 0.377,-1.019 0.4,-1.415 0.013,-0.221 -0.931,0.32 -1.379,0.32 -0.448,0 -0.885,-0.269 -1.285,-0.287 -0.495,-0.024 -0.814,0.381 -1.263,0.309 -0.255,-0.04 -0.472,-0.265 -0.918,-0.281 -0.637,-0.024 -1.416,0.353 -2.877,0.307 -1.438,-0.047 -2.766,-1.818 -2.947,-2.099 -0.213,-0.329 -0.473,-0.329 -0.755,-0.069 -0.283,0.257 -0.633,0.054 -0.731,-0.119 -0.189,-0.33 -0.693,-1.293 -1.474,-1.496 -1.08,-0.28 -1.627,0.598 -1.556,1.295 0.072,0.709 0.531,0.908 0.744,1.285 0.211,0.376 0.32,0.62 0.718,0.787 0.284,0.118 0.389,0.292 0.305,0.524 -0.074,0.202 -0.368,0.249 -0.563,0.258 -0.411,0.02 -0.699,-0.092 -0.91,-0.226 -0.244,-0.157 -0.444,-0.373 -0.656,-0.74 -0.248,-0.406 -0.637,-0.582 -1.09,-0.582 -0.216,0 -0.419,0.057 -0.598,0.148 -0.71,0.371 -1.556,0.589 -2.466,0.589 l -1.028,0.001 c 1.969,5.837 7.492,10.039 13.997,10.039 5.195,0 9.764,-2.68 12.396,-6.736"
         inkscape:connector-curvature="0" />
      <path
         id="path3502"
         style="fill:#000000"
         d="m -56.113212,33.068345 c -0.569,-0.132 -1.173,-0.214 -1.783,-0.214 -1.045,0 -1.995,0.182 -2.696,0.473 -0.078,0.039 -0.132,0.119 -0.132,0.211 0,0.033 0.007,0.068 0.021,0.095 0.082,0.241 -0.054,0.501 -0.732,0.651 -1.006,0.221 -1.641,1.258 -2.004,1.601 -0.427,0.406 -1.631,0.655 -1.45,0.413 0.142,-0.189 0.684,-0.778 1.013,-1.414 0.296,-0.567 0.559,-0.73 0.92,-1.272 0.107,-0.159 0.518,-0.719 0.638,-1.16 0.134,-0.433 0.089,-0.974 0.141,-1.197 0.074,-0.322 0.377,-1.019 0.4,-1.414 0.013,-0.223 -0.931,0.318 -1.379,0.318 -0.448,0 -0.885,-0.268 -1.285,-0.286 -0.495,-0.025 -0.814,0.381 -1.263,0.309 -0.255,-0.04 -0.472,-0.265 -0.918,-0.282 -0.637,-0.023 -1.416,0.354 -2.877,0.307 -1.438,-0.047 -2.766,-1.816 -2.947,-2.097 -0.213,-0.331 -0.473,-0.331 -0.755,-0.071 -0.283,0.258 -0.633,0.055 -0.731,-0.118 -0.189,-0.331 -0.693,-1.294 -1.474,-1.497 -1.08,-0.28 -1.627,0.598 -1.556,1.296 0.072,0.708 0.531,0.907 0.744,1.284 0.211,0.376 0.32,0.621 0.718,0.788 0.284,0.117 0.389,0.292 0.305,0.524 -0.074,0.202 -0.368,0.249 -0.563,0.258 -0.411,0.019 -0.699,-0.092 -0.91,-0.228 -0.244,-0.154 -0.444,-0.371 -0.656,-0.739 -0.248,-0.405 -0.637,-0.582 -1.09,-0.582 -0.216,0 -0.419,0.058 -0.598,0.148 -0.71,0.371 -1.556,0.59 -2.466,0.59 l -1.028,0 c -0.5,-1.481 -0.77,-3.068 -0.77,-4.717 0,-8.152 6.611,-14.759 14.767,-14.759 8.154,0 14.766,6.607 14.766,14.759 0,2.958 -0.871,5.71 -2.37,8.022"
         inkscape:connector-curvature="0" />
      <path
         id="path3504"
         style="fill:#000000"
         d="m -65.257812,31.714845 c 0.076,0.073 0.207,0.322 0.047,0.639 -0.09,0.168 -0.187,0.285 -0.359,0.423 -0.209,0.167 -0.614,0.359 -1.17,0.005 -0.3,-0.189 -0.319,-0.253 -0.732,-0.199 -0.295,0.038 -0.412,-0.261 -0.307,-0.508 0.107,-0.247 0.542,-0.447 1.085,-0.129 0.245,0.143 0.625,0.447 0.957,0.177 0.139,-0.109 0.222,-0.183 0.413,-0.405 0.009,-0.009 0.021,-0.014 0.035,-0.014 0.012,0 0.023,0.004 0.031,0.011"
         inkscape:connector-curvature="0" />
      <path
         id="path3506"
         style="fill:#e93442"
         d="m -69.659112,17.315345 c -1.705,0.123 -1.883,0.307 -2.202,0.646 -0.45,0.481 -1.044,-0.621 -1.044,-0.621 -0.357,-0.075 -0.788,-0.649 -0.555,-1.184 0.23,-0.53 0.654,-0.372 0.786,-0.207 0.161,0.201 0.506,0.53 0.954,0.518 0.448,-0.012 0.964,-0.106 1.685,-0.106 0.73,0 1.22,0.272 1.247,0.507 0.025,0.199 -0.059,0.387 -0.871,0.447 m 1.792,-2.817 -0.008,0 c -0.026,0 -0.047,-0.02 -0.047,-0.044 0,-0.018 0.011,-0.034 0.027,-0.041 0.331,-0.174 0.824,-0.314 1.388,-0.37 0.169,-0.018 0.335,-0.028 0.494,-0.028 l 0.085,0 c 0.947,0.022 1.704,0.398 1.693,0.84 -0.012,0.442 -0.787,0.783 -1.735,0.763 -0.305,-0.008 -0.593,-0.052 -0.84,-0.124 -0.031,-0.007 -0.051,-0.032 -0.051,-0.062 0,-0.029 0.02,-0.054 0.052,-0.062 0.589,-0.136 0.988,-0.36 0.96,-0.571 -0.038,-0.279 -0.809,-0.431 -1.725,-0.339 -0.101,0.01 -0.198,0.023 -0.293,0.038 m 7.69,6.621 c -0.146,0.49 -0.353,1.117 -1.277,1.591 -0.135,0.069 -0.185,-0.044 -0.124,-0.15 0.35,-0.594 0.411,-0.742 0.513,-0.975 0.141,-0.343 0.217,-0.83 -0.066,-1.844 -0.555,-1.997 -1.715,-4.668 -2.556,-5.533 -0.813,-0.836 -2.285,-1.072 -3.617,-0.73 -0.49,0.125 -1.449,0.623 -3.227,0.223 -3.077,-0.693 -3.533,0.847 -3.709,1.518 -0.178,0.671 -0.602,2.578 -0.602,2.578 -0.141,0.778 -0.326,2.128 4.453,3.039 2.226,0.423 2.338,0.999 2.438,1.412 0.177,0.741 0.459,1.165 0.777,1.377 0.318,0.212 0,0.388 -0.353,0.423 -0.947,0.099 -4.452,-0.906 -6.526,-2.083 -1.696,-1.036 -1.724,-1.968 -1.336,-2.76 -2.562,-0.277 -4.485,0.24 -4.833,1.453 -0.599,2.08 4.576,5.634 10.469,7.418 6.184,1.871 12.544,0.564 13.251,-3.321 0.321,-1.765 -1.166,-3.071 -3.675,-3.636"
         inkscape:connector-curvature="0" />
    </g>
    <path
       sodipodi:nodetypes="ccccccccc"
       inkscape:connector-curvature="0"
       id="path7288"
       d="m 17,19 0,11 30,0 0,-11 -4,0 -2,4 -18,0 -2,-4 z"
       style="opacity:1;fill:#8b4513;fill-opacity:1;fill-rule:nonzero;stroke:none" />
    <path
       style="fill:#deb887;fill-opacity:1;fill-rule:nonzero;stroke:none"
       d="m 15,20 0,35 34,0 0,-35 -5,0 -2,4 -20,0 -2,-4 z"
       id="rect5332"
       inkscape:connector-curvature="0"
       sodipodi:nodetypes="ccccccccc" />
    <path
       style="opacity:0.32413791;fill:#a68167;fill-opacity:1;stroke:#8b4513;stroke-width:0.06426612px;stroke-linecap:butt;stroke-linejoin:miter;stroke-opacity:1"
       d="m 17,21 -2,2 1,0 0,2 2,0 0,-2 1,0 z"
       id="path5207"
       inkscape:connector-curvature="0"
       sodipodi:nodetypes="cccccccc" />
    <rect
       style="fill:#8b4513;fill-opacity:1;fill-rule:nonzero;stroke:none"
       id="rect5328"
       width="18"
       height="1"
       x="23"
       y="27" />
    <text
       xml:space="preserve"
       style="font-size:0.50082916px;font-style:normal;font-variant:normal;font-weight:normal;font-stretch:normal;line-height:125%;letter-spacing:0px;word-spacing:0px;fill:#000000;fill-opacity:1;stroke:none;font-family:Courier New;-inkscape-font-specification:Courier New"
       x="133.77789"
       y="47.182869"
       id="text6560"
       sodipodi:linespacing="125%"><tspan
         y="47.182869"
         x="133.77789"
         sodipodi:role="line"
         id="tspan6562" /></text>
    <rect
       style="opacity:0.6;fill:#dcdcdc;fill-opacity:1;fill-rule:nonzero;stroke:none"
       id="rect5197"
       width="36"
       height="2.9999995"
       x="14"
       y="53" />
    <rect
       transform="matrix(0,1,-1,0,0,0)"
       style="opacity:0.6;fill:#dcdcdc;fill-opacity:1;fill-rule:nonzero;stroke:none"
       id="rect5205"
       width="37"
       height="2.9999998"
       x="19"
       y="-17" />
    <path
       sodipodi:nodetypes="cccccccc"
       inkscape:connector-curvature="0"
       id="path7065"
       d="m 47,21 -2,2 1,0 0,2 2,0 0,-2 1,0 z"
       style="opacity:0.32413791;fill:#a68167;fill-opacity:1;stroke:#8b4513;stroke-width:0.06426612px;stroke-linecap:butt;stroke-linejoin:miter;stroke-opacity:1" />
    <rect
       y="-50"
       x="19"
       height="3"
       width="37"
       id="rect7063"
       style="opacity:0.6;fill:#dcdcdc;fill-opacity:1;fill-rule:nonzero;stroke:none"
       transform="matrix(0,1,-1,0,0,0)" />
    <text
       xml:space="preserve"
       style="font-style:normal;font-variant:normal;font-weight:normal;font-stretch:normal;font-size:10.73764896px;line-height:125%;font-family:Arial;-inkscape-font-specification:Arial;text-align:center;letter-spacing:0px;word-spacing:0px;text-anchor:middle;fill:#ff0000;fill-opacity:1;stroke:none"
       x="32.013107"
       y="47.779995"
       id="text2997"
       sodipodi:linespacing="125%"><tspan
         sodipodi:role="line"
         id="tspan2999"
         x="32.013107"
         y="47.779995">rpm</tspan></text>
    <rect
       style="fill:#8b4513;fill-opacity:1;fill-rule:nonzero;stroke:none"
       id="rect8115"
       width="6"
       height="20"
       x="68"
       y="36" />
    <rect
       style="fill:#8b4513;fill-opacity:1;fill-rule:nonzero;stroke:none"
       id="rect8117"
       width="30"
       height="3"
       x="17"
       y="66" />
  </g>
</svg>
