<?xml version="1.0" encoding="UTF-8" standalone="no"?>
<!-- Created with Inkscape (http://www.inkscape.org/) -->

<svg
   xmlns:dc="http://purl.org/dc/elements/1.1/"
   xmlns:cc="http://creativecommons.org/ns#"
   xmlns:rdf="http://www.w3.org/1999/02/22-rdf-syntax-ns#"
   xmlns:svg="http://www.w3.org/2000/svg"
   xmlns="http://www.w3.org/2000/svg"
   xmlns:xlink="http://www.w3.org/1999/xlink"
   xmlns:sodipodi="http://sodipodi.sourceforge.net/DTD/sodipodi-0.dtd"
   xmlns:inkscape="http://www.inkscape.org/namespaces/inkscape"
   width="16"
   height="16"
   id="svg3003"
   version="1.1"
   inkscape:version="0.91 r13725"
   sodipodi:docname="app-class-16.svg"
   inkscape:export-filename="C:\wamp\www\TESTY\git-hub\system-icons\file-types\app-class\app-class-16.png"
   inkscape:export-xdpi="90"
   inkscape:export-ydpi="90">
  <defs
     id="defs3005">
    <clipPath
       id="clipPath3008"
       clipPathUnits="userSpaceOnUse">
      <path
         id="path3010"
         d="M 0,4105.95 0,0 l 5477.71,0 0,4105.95 -5477.71,0 z"
         inkscape:connector-curvature="0" />
    </clipPath>
    <linearGradient
       gradientTransform="matrix(1,0,0,-1,-110.8195,852.7348)"
       gradientUnits="userSpaceOnUse"
       xlink:href="#SVGID_1_"
       id="linearGradient3057"
       y2="108.459"
       x2="464.315"
       y1="532.26703"
       x1="464.315" />
    <linearGradient
       gradientTransform="matrix(1,0,0,-1,0.14,777.638)"
       gradientUnits="userSpaceOnUse"
       id="SVGID_1_"
       y2="108.459"
       x2="464.315"
       y1="532.26703"
       x1="464.315">
      <stop
         offset="0.1497"
         style="stop-color:#2a4f84;stop-opacity:1"
         id="stop13" />
      <stop
         offset="0.38839999"
         style="stop-color:#294e82;stop-opacity:1"
         id="stop15" />
      <stop
         offset="1"
         style="stop-color:#172e4e;stop-opacity:1"
         id="stop17" />
    </linearGradient>
    <linearGradient
       inkscape:collect="always"
       xlink:href="#SVGID_1_"
       id="linearGradient3073"
       gradientUnits="userSpaceOnUse"
       gradientTransform="matrix(0.01280707,0,0,-0.03390067,13.607058,68.871584)"
       x1="464.315"
       y1="532.26703"
       x2="464.315"
       y2="108.459" />
    <linearGradient
       inkscape:collect="always"
       xlink:href="#SVGID_1_"
       id="linearGradient3851"
       gradientUnits="userSpaceOnUse"
       gradientTransform="matrix(0.01280707,0,0,-0.03390067,13.607058,68.871584)"
       x1="464.315"
       y1="532.26703"
       x2="464.315"
       y2="108.459" />
    <linearGradient
       gradientTransform="matrix(1,0,0,-1,-110.8195,852.7348)"
       gradientUnits="userSpaceOnUse"
       xlink:href="#SVGID_1_-1"
       id="linearGradient3057-9"
       y2="108.459"
       x2="464.315"
       y1="532.26703"
       x1="464.315" />
    <linearGradient
       gradientTransform="matrix(1,0,0,-1,0.14,777.638)"
       gradientUnits="userSpaceOnUse"
       id="SVGID_1_-1"
       y2="108.459"
       x2="464.315"
       y1="532.26703"
       x1="464.315">
      <stop
         offset="0.1497"
         style="stop-color:#2a4f84;stop-opacity:1"
         id="stop13-7" />
      <stop
         offset="0.38839999"
         style="stop-color:#294e82;stop-opacity:1"
         id="stop15-4" />
      <stop
         offset="1"
         style="stop-color:#172e4e;stop-opacity:1"
         id="stop17-0" />
    </linearGradient>
    <linearGradient
       inkscape:collect="always"
       xlink:href="#SVGID_1_-1"
       id="linearGradient3059"
       gradientUnits="userSpaceOnUse"
       gradientTransform="matrix(0.0089827,0,0,-0.02331342,4.0091549,63.468982)"
       x1="464.315"
       y1="532.26703"
       x2="464.315"
       y2="108.459" />
    <linearGradient
       inkscape:collect="always"
       xlink:href="#SVGID_1_"
       id="linearGradient3835"
       x1="11"
       y1="51"
       x2="11"
       y2="61"
       gradientUnits="userSpaceOnUse" />
    <linearGradient
       inkscape:collect="always"
       xlink:href="#SVGID_1_"
       id="linearGradient3843"
       x1="5"
       y1="51"
       x2="5"
       y2="61"
       gradientUnits="userSpaceOnUse" />
    <linearGradient
       inkscape:collect="always"
       xlink:href="#SVGID_1_"
       id="linearGradient3877"
       x1="8"
       y1="51"
       x2="8"
       y2="61"
       gradientUnits="userSpaceOnUse" />
    <clipPath
       id="clipPath3008-4"
       clipPathUnits="userSpaceOnUse">
      <path
         id="path3010-0"
         d="M 0,4105.95 0,0 l 5477.71,0 0,4105.95 -5477.71,0 z" />
    </clipPath>
    <linearGradient
       gradientTransform="matrix(1,0,0,-1,-110.8195,852.7348)"
       gradientUnits="userSpaceOnUse"
       xlink:href="#SVGID_1_-4"
       id="linearGradient3057-9-1"
       y2="108.459"
       x2="464.315"
       y1="532.26703"
       x1="464.315" />
    <linearGradient
       gradientTransform="matrix(1,0,0,-1,0.14,777.638)"
       gradientUnits="userSpaceOnUse"
       id="SVGID_1_-4"
       y2="108.459"
       x2="464.315"
       y1="532.26703"
       x1="464.315">
      <stop
         offset="0.1497"
         style="stop-color:#2a4f84;stop-opacity:1"
         id="stop13-8" />
      <stop
         offset="0.38839999"
         style="stop-color:#294e82;stop-opacity:1"
         id="stop15-8" />
      <stop
         offset="1"
         style="stop-color:#172e4e;stop-opacity:1"
         id="stop17-2" />
    </linearGradient>
    <linearGradient
       x1="464.315"
       y1="532.26703"
       x2="464.315"
       y2="108.459"
       id="SVGID_1_-8"
       gradientUnits="userSpaceOnUse"
       gradientTransform="matrix(1,0,0,-1,0.14,777.638)">
      <stop
         id="stop13-82"
         style="stop-color:#2a4f84;stop-opacity:1"
         offset="0.1497" />
      <stop
         id="stop15-45"
         style="stop-color:#294e82;stop-opacity:1"
         offset="0.38839999" />
      <stop
         id="stop17-5"
         style="stop-color:#172e4e;stop-opacity:1"
         offset="1" />
    </linearGradient>
    <linearGradient
       x1="464.315"
       y1="532.26703"
       x2="464.315"
       y2="108.459"
       id="linearGradient3057-4"
       xlink:href="#SVGID_1_-8"
       gradientUnits="userSpaceOnUse"
       gradientTransform="matrix(1,0,0,-1,-110.8195,852.7348)" />
    <clipPath
       clipPathUnits="userSpaceOnUse"
       id="clipPath3008-40">
      <path
         inkscape:connector-curvature="0"
         d="M 0,4105.95 0,0 l 5477.71,0 0,4105.95 -5477.71,0 z"
         id="path3010-9" />
    </clipPath>
    <clipPath
       id="clipPath3008-40-2"
       clipPathUnits="userSpaceOnUse">
      <path
         id="path3010-9-1"
         d="M 0,4105.95 0,0 l 5477.71,0 0,4105.95 -5477.71,0 z" />
    </clipPath>
    <linearGradient
       gradientTransform="matrix(1,0,0,-1,-110.8195,852.7348)"
       gradientUnits="userSpaceOnUse"
       xlink:href="#SVGID_1_-8-1"
       id="linearGradient3057-4-2"
       y2="108.459"
       x2="464.315"
       y1="532.26703"
       x1="464.315" />
    <linearGradient
       gradientTransform="matrix(1,0,0,-1,0.14,777.638)"
       gradientUnits="userSpaceOnUse"
       id="SVGID_1_-8-1"
       y2="108.459"
       x2="464.315"
       y1="532.26703"
       x1="464.315">
      <stop
         offset="0.1497"
         style="stop-color:#2a4f84;stop-opacity:1"
         id="stop13-82-4" />
      <stop
         offset="0.38839999"
         style="stop-color:#294e82;stop-opacity:1"
         id="stop15-4-2" />
      <stop
         offset="1"
         style="stop-color:#172e4e;stop-opacity:1"
         id="stop17-5-3" />
    </linearGradient>
    <clipPath
       id="clipPath3008-4-7"
       clipPathUnits="userSpaceOnUse">
      <path
         id="path3010-0-6"
         d="M 0,4105.95 0,0 l 5477.71,0 0,4105.95 -5477.71,0 z" />
    </clipPath>
    <linearGradient
       gradientTransform="matrix(1,0,0,-1,-110.8195,852.7348)"
       gradientUnits="userSpaceOnUse"
       xlink:href="#SVGID_1_-4-7"
       id="linearGradient3057-9-2"
       y2="108.459"
       x2="464.315"
       y1="532.26703"
       x1="464.315" />
    <linearGradient
       gradientTransform="matrix(1,0,0,-1,0.14,777.638)"
       gradientUnits="userSpaceOnUse"
       id="SVGID_1_-4-7"
       y2="108.459"
       x2="464.315"
       y1="532.26703"
       x1="464.315">
      <stop
         offset="0.1497"
         style="stop-color:#2a4f84;stop-opacity:1"
         id="stop13-8-1" />
      <stop
         offset="0.38839999"
         style="stop-color:#294e82;stop-opacity:1"
         id="stop15-8-1" />
      <stop
         offset="1"
         style="stop-color:#172e4e;stop-opacity:1"
         id="stop17-2-5" />
    </linearGradient>
    <linearGradient
       x1="464.315"
       y1="532.26703"
       x2="464.315"
       y2="108.459"
       id="SVGID_1_-82"
       gradientUnits="userSpaceOnUse"
       gradientTransform="matrix(1,0,0,-1,0.14,777.638)">
      <stop
         id="stop13-4"
         style="stop-color:#2a4f84;stop-opacity:1"
         offset="0.1497" />
      <stop
         id="stop15-5"
         style="stop-color:#294e82;stop-opacity:1"
         offset="0.38839999" />
      <stop
         id="stop17-51"
         style="stop-color:#172e4e;stop-opacity:1"
         offset="1" />
    </linearGradient>
    <linearGradient
       x1="464.315"
       y1="532.26703"
       x2="464.315"
       y2="108.459"
       id="linearGradient3057-8"
       xlink:href="#SVGID_1_-82"
       gradientUnits="userSpaceOnUse"
       gradientTransform="matrix(1,0,0,-1,-110.8195,852.7348)" />
    <clipPath
       clipPathUnits="userSpaceOnUse"
       id="clipPath3008-409">
      <path
         inkscape:connector-curvature="0"
         d="M 0,4105.95 0,0 l 5477.71,0 0,4105.95 -5477.71,0 z"
         id="path3010-4" />
    </clipPath>
  </defs>
  <sodipodi:namedview
     id="base"
     pagecolor="#ffffff"
     bordercolor="#666666"
     borderopacity="1.0"
     inkscape:pageopacity="0.0"
     inkscape:pageshadow="2"
     inkscape:zoom="31.112698"
     inkscape:cx="11.44779"
     inkscape:cy="12.212312"
     inkscape:current-layer="layer1"
     showgrid="true"
     inkscape:document-units="px"
     inkscape:grid-bbox="true"
     showguides="true"
     inkscape:guide-bbox="true"
     inkscape:window-width="1920"
     inkscape:window-height="1028"
     inkscape:window-x="2872"
     inkscape:window-y="532"
     inkscape:window-maximized="1">
    <inkscape:grid
       type="xygrid"
       id="grid3011"
       empspacing="4"
       visible="true"
       enabled="true"
       snapvisiblegridlinesonly="true" />
    <sodipodi:guide
       orientation="1,0"
       position="1,3"
       id="guide3013" />
    <sodipodi:guide
       orientation="0,1"
       position="184,496"
       id="guide3015" />
    <sodipodi:guide
       orientation="0,1"
       position="5,1"
       id="guide3017" />
    <sodipodi:guide
       orientation="1,0"
       position="496,248"
       id="guide3019" />
    <sodipodi:guide
       orientation="1,0"
       position="56,96"
       id="guide3104" />
    <sodipodi:guide
       orientation="0,1"
       position="64,56"
       id="guide3106" />
    <sodipodi:guide
       orientation="1,0"
       position="15,3"
       id="guide3018" />
    <sodipodi:guide
       orientation="0,1"
       position="7,15"
       id="guide3020" />
  </sodipodi:namedview>
  <metadata
     id="metadata3008">
    <rdf:RDF>
      <cc:Work
         rdf:about="">
        <dc:format>image/svg+xml</dc:format>
        <dc:type
           rdf:resource="http://purl.org/dc/dcmitype/StillImage" />
        <dc:title />
      </cc:Work>
    </rdf:RDF>
  </metadata>
  <g
     id="layer1"
     inkscape:label="Layer 1"
     inkscape:groupmode="layer"
     transform="translate(0,-48)">
    <path
       style="fill:#ececec;fill-opacity:1;fill-rule:nonzero;stroke:none"
       d="m 1,49 14,0 0,14 -14,0 z"
       id="rect3021"
       inkscape:connector-curvature="0" />
    <path
       style="fill:#ffffff;fill-opacity:1;fill-rule:nonzero;stroke:none"
       d="m 2,50 12,0 0,12 -12,0 z"
       id="rect3791"
       inkscape:connector-curvature="0"
       sodipodi:nodetypes="ccccc" />
    <g
       id="g18216"
       transform="matrix(0.32587815,0,0,0.32587815,-4.3325032,40.636466)"
       style="opacity:1">
      <path
         id="path18158"
         d="m 34.612925,44.626705 c 0,0 -0.940835,0.547128 0.66956,0.732269 1.950949,0.222568 2.948056,0.190649 5.098015,-0.216263 0,0 0.565244,0.354422 1.354649,0.661398 -4.81964,2.065617 -10.907795,-0.119645 -7.122224,-1.177404"
         style="fill:#5382a1"
         inkscape:connector-curvature="0" />
      <path
         id="path18160"
         d="m 34.023991,41.931211 c 0,0 -1.055238,0.781109 0.556352,0.947802 2.084064,0.215003 3.729895,0.232588 6.577816,-0.315801 0,0 0.393906,0.399347 1.013299,0.617734 -5.827232,1.703961 -12.31772,0.134376 -8.147467,-1.249735"
         style="fill:#5382a1"
         inkscape:connector-curvature="0" />
      <path
         id="path18162"
         d="m 38.98889,37.358757 c 1.187557,1.367257 -0.312019,2.597616 -0.312019,2.597616 0,0 3.01541,-1.556645 1.630568,-3.505935 -1.293399,-1.817833 -2.285264,-2.721042 3.084291,-5.835194 0,0 -8.428431,2.105033 -4.40284,6.743513"
         style="fill:#e76f00"
         inkscape:connector-curvature="0" />
      <path
         id="path18164"
         d="m 45.36325,46.620455 c 0,0 0.696236,0.573672 -0.766776,1.01748 -2.78196,0.842756 -11.578815,1.097242 -14.022544,0.03358 -0.878458,-0.38216 0.7689,-0.9125 1.287096,-1.023783 0.540426,-0.11719 0.849259,-0.09536 0.849259,-0.09536 -0.976934,-0.688207 -6.314504,1.351331 -2.711221,1.935421 9.826676,1.593606 17.913093,-0.717604 15.364186,-1.867337"
         style="fill:#5382a1"
         inkscape:connector-curvature="0" />
      <path
         id="path18166"
         d="m 35.065359,39.138368 c 0,0 -4.47464,1.062802 -1.584582,1.448745 1.220272,0.163375 3.652853,0.126414 5.918741,-0.06344 1.851809,-0.156209 3.711249,-0.488334 3.711249,-0.488334 0,0 -0.652971,0.279636 -1.125379,0.602206 -4.543919,1.195055 -13.321928,0.639101 -10.794852,-0.583294 2.137152,-1.033074 3.874823,-0.915884 3.874823,-0.915884"
         style="fill:#5382a1"
         inkscape:connector-curvature="0" />
      <path
         id="path18168"
         d="m 43.092319,43.625152 c 4.619103,-2.400264 2.483411,-4.706896 0.992727,-4.396138 -0.365371,0.07605 -0.528282,0.141941 -0.528282,0.141941 0,0 0.135637,-0.212481 0.394702,-0.304454 2.949052,-1.03679 5.217063,3.05788 -0.951983,4.679623 0,6.6e-5 0.07147,-0.06384 0.09284,-0.120972"
         style="fill:#5382a1"
         inkscape:connector-curvature="0" />
      <path
         id="path18170"
         d="m 40.307439,25.586706 c 0,0 2.558132,2.558995 -2.426277,6.494005 -3.996989,3.156556 -0.911438,4.956339 -0.0017,7.012666 -2.333109,-2.105034 -4.045299,-3.958104 -2.896628,-5.682769 1.685978,-2.531655 6.356709,-3.759093 5.324564,-7.823902"
         style="fill:#e76f00"
         inkscape:connector-curvature="0" />
      <path
         id="path18172"
         d="m 35.519253,50.129309 c 4.433764,0.283817 11.242309,-0.157469 11.403561,-2.255402 0,0 -0.309962,0.79531 -3.664266,1.426913 -3.78431,0.712162 -8.451723,0.629015 -11.220013,0.172599 6.7e-5,-6.6e-5 0.566704,0.469024 3.480718,0.65589"
         style="fill:#5382a1"
         inkscape:connector-curvature="0" />
    </g>
    <text
       xml:space="preserve"
       style="font-style:normal;font-variant:normal;font-weight:normal;font-stretch:normal;font-size:7.23674917px;line-height:125%;font-family:'MV Boli';-inkscape-font-specification:'MV Boli';letter-spacing:0px;word-spacing:0px;fill:#ff0000;fill-opacity:1;stroke:none"
       x="0.37455818"
       y="62.898468"
       id="text6297"
       sodipodi:linespacing="125%"><tspan
         sodipodi:role="line"
         id="tspan6299"
         x="0.37455818"
         y="62.898468">class</tspan></text>
  </g>
</svg>
