<?xml version="1.0" encoding="UTF-8" standalone="no"?>
<!-- Created with Inkscape (http://www.inkscape.org/) -->
<svg
   xmlns:dc="http://purl.org/dc/elements/1.1/"
   xmlns:cc="http://creativecommons.org/ns#"
   xmlns:rdf="http://www.w3.org/1999/02/22-rdf-syntax-ns#"
   xmlns:svg="http://www.w3.org/2000/svg"
   xmlns="http://www.w3.org/2000/svg"
   xmlns:xlink="http://www.w3.org/1999/xlink"
   xmlns:sodipodi="http://sodipodi.sourceforge.net/DTD/sodipodi-0.dtd"
   xmlns:inkscape="http://www.inkscape.org/namespaces/inkscape"
   inkscape:export-ydpi="90"
   inkscape:export-xdpi="90"
   inkscape:export-filename="/home/sa/Desktop/application-vnd.corel-draw.png"
   sodipodi:docname="application-vnd.corel-draw.svg"
   sodipodi:docbase="/home/sa/Desktop/ok/mime"
   inkscape:version="0.45.1+0.46pre1+devel"
   sodipodi:version="0.32"
   id="svg249"
   height="48.000000px"
   width="48.000000px"
   inkscape:output_extension="org.inkscape.output.svg.inkscape">
  <defs
     id="defs3">
    <radialGradient
       inkscape:collect="always"
       xlink:href="#linearGradient5060"
       id="radialGradient6719"
       gradientUnits="userSpaceOnUse"
       gradientTransform="matrix(-2.774389,0,0,1.969706,112.7623,-872.8854)"
       cx="605.71429"
       cy="486.64789"
       fx="605.71429"
       fy="486.64789"
       r="117.14286" />
    <linearGradient
       inkscape:collect="always"
       id="linearGradient5060">
      <stop
         style="stop-color:black;stop-opacity:1;"
         offset="0"
         id="stop5062" />
      <stop
         style="stop-color:black;stop-opacity:0;"
         offset="1"
         id="stop5064" />
    </linearGradient>
    <radialGradient
       inkscape:collect="always"
       xlink:href="#linearGradient5060"
       id="radialGradient6717"
       gradientUnits="userSpaceOnUse"
       gradientTransform="matrix(2.774389,0,0,1.969706,-1891.633,-872.8854)"
       cx="605.71429"
       cy="486.64789"
       fx="605.71429"
       fy="486.64789"
       r="117.14286" />
    <linearGradient
       id="linearGradient5048">
      <stop
         style="stop-color:black;stop-opacity:0;"
         offset="0"
         id="stop5050" />
      <stop
         id="stop5056"
         offset="0.5"
         style="stop-color:black;stop-opacity:1;" />
      <stop
         style="stop-color:black;stop-opacity:0;"
         offset="1"
         id="stop5052" />
    </linearGradient>
    <linearGradient
       inkscape:collect="always"
       xlink:href="#linearGradient5048"
       id="linearGradient6715"
       gradientUnits="userSpaceOnUse"
       gradientTransform="matrix(2.774389,0,0,1.969706,-1892.179,-872.8854)"
       x1="302.85715"
       y1="366.64789"
       x2="302.85715"
       y2="609.50507" />
    <linearGradient
       id="linearGradient15662">
      <stop
         id="stop15664"
         offset="0.0000000"
         style="stop-color:#ffffff;stop-opacity:1.0000000;" />
      <stop
         id="stop15666"
         offset="1.0000000"
         style="stop-color:#f8f8f8;stop-opacity:1.0000000;" />
    </linearGradient>
    <radialGradient
       id="aigrd3"
       cx="20.8921"
       cy="64.5679"
       r="5.257"
       fx="20.8921"
       fy="64.5679"
       gradientUnits="userSpaceOnUse">
      <stop
         offset="0"
         style="stop-color:#F0F0F0"
         id="stop15573" />
      <stop
         offset="1.0000000"
         style="stop-color:#9a9a9a;stop-opacity:1.0000000;"
         id="stop15575" />
    </radialGradient>
    <radialGradient
       id="aigrd2"
       cx="20.8921"
       cy="114.5684"
       r="5.256"
       fx="20.8921"
       fy="114.5684"
       gradientUnits="userSpaceOnUse">
      <stop
         offset="0"
         style="stop-color:#F0F0F0"
         id="stop15566" />
      <stop
         offset="1.0000000"
         style="stop-color:#9a9a9a;stop-opacity:1.0000000;"
         id="stop15568" />
    </radialGradient>
    <linearGradient
       id="linearGradient269">
      <stop
         id="stop270"
         offset="0.0000000"
         style="stop-color:#a3a3a3;stop-opacity:1.0000000;" />
      <stop
         id="stop271"
         offset="1.0000000"
         style="stop-color:#4c4c4c;stop-opacity:1.0000000;" />
    </linearGradient>
    <linearGradient
       id="linearGradient259">
      <stop
         id="stop260"
         offset="0.0000000"
         style="stop-color:#fafafa;stop-opacity:1.0000000;" />
      <stop
         id="stop261"
         offset="1.0000000"
         style="stop-color:#bbbbbb;stop-opacity:1.0000000;" />
    </linearGradient>
    <radialGradient
       inkscape:collect="always"
       xlink:href="#linearGradient269"
       id="radialGradient15656"
       gradientUnits="userSpaceOnUse"
       gradientTransform="matrix(0.968273,0.000000,0.000000,1.032767,3.353553,0.646447)"
       cx="8.8244190"
       cy="3.7561285"
       fx="8.8244190"
       fy="3.7561285"
       r="37.751713" />
    <radialGradient
       inkscape:collect="always"
       xlink:href="#linearGradient259"
       id="radialGradient15658"
       gradientUnits="userSpaceOnUse"
       gradientTransform="scale(0.960493,1.041132)"
       cx="33.966679"
       cy="35.736916"
       fx="33.966679"
       fy="35.736916"
       r="86.708450" />
    <radialGradient
       inkscape:collect="always"
       xlink:href="#linearGradient15662"
       id="radialGradient15668"
       gradientUnits="userSpaceOnUse"
       gradientTransform="matrix(0.968273,0.000000,0.000000,1.032767,3.353553,0.646447)"
       cx="8.1435566"
       cy="7.2678967"
       fx="8.1435566"
       fy="7.2678967"
       r="38.158695" />
    <radialGradient
       r="5.256"
       fy="114.5684"
       fx="20.8921"
       cy="114.5684"
       cx="20.8921"
       gradientTransform="matrix(0.229703,0.000000,0.000000,0.229703,4.613529,3.979808)"
       gradientUnits="userSpaceOnUse"
       id="radialGradient2283"
       xlink:href="#aigrd2"
       inkscape:collect="always" />
    <radialGradient
       r="5.257"
       fy="64.5679"
       fx="20.8921"
       cy="64.5679"
       cx="20.8921"
       gradientTransform="matrix(0.229703,0.000000,0.000000,0.229703,4.613529,3.979808)"
       gradientUnits="userSpaceOnUse"
       id="radialGradient2285"
       xlink:href="#aigrd3"
       inkscape:collect="always" />
    <linearGradient
       id="linearGradient10595">
      <stop
         style="stop-color:#c4a000;stop-opacity:1;"
         offset="0"
         id="stop10597" />
      <stop
         id="stop8929"
         offset="0.5"
         style="stop-color:#fce94f;stop-opacity:1;" />
      <stop
         style="stop-color:#c4a000;stop-opacity:1;"
         offset="1"
         id="stop10599" />
    </linearGradient>
    <linearGradient
       inkscape:collect="always"
       xlink:href="#linearGradient5048"
       id="linearGradient24919"
       gradientUnits="userSpaceOnUse"
       gradientTransform="matrix(2.774389,0,0,1.969706,-1892.179,-872.8854)"
       x1="302.85715"
       y1="366.64789"
       x2="302.85715"
       y2="609.50507" />
    <radialGradient
       inkscape:collect="always"
       xlink:href="#linearGradient5060"
       id="radialGradient24921"
       gradientUnits="userSpaceOnUse"
       gradientTransform="matrix(2.774389,0,0,1.969706,-1891.633,-872.8854)"
       cx="605.71429"
       cy="486.64789"
       fx="605.71429"
       fy="486.64789"
       r="117.14286" />
    <radialGradient
       inkscape:collect="always"
       xlink:href="#linearGradient5060"
       id="radialGradient24923"
       gradientUnits="userSpaceOnUse"
       gradientTransform="matrix(-2.774389,0,0,1.969706,112.7623,-872.8854)"
       cx="605.71429"
       cy="486.64789"
       fx="605.71429"
       fy="486.64789"
       r="117.14286" />
    <linearGradient
       inkscape:collect="always"
       xlink:href="#linearGradient10595"
       id="linearGradient24925"
       gradientUnits="userSpaceOnUse"
       gradientTransform="matrix(0.5383672,0,0,0.5351229,-139.22962,-266.69158)"
       x1="221.89832"
       y1="579.29675"
       x2="229.33965"
       y2="579.29675" />
    <linearGradient
       inkscape:collect="always"
       xlink:href="#linearGradient10595"
       id="linearGradient24927"
       gradientUnits="userSpaceOnUse"
       gradientTransform="matrix(0.5383672,0,0,0.5351229,-139.22962,-266.69158)"
       x1="221.89832"
       y1="579.29675"
       x2="229.33965"
       y2="579.29675" />
    <linearGradient
       inkscape:collect="always"
       xlink:href="#linearGradient10595"
       id="linearGradient24929"
       gradientUnits="userSpaceOnUse"
       gradientTransform="matrix(0.5383672,0,0,0.5351229,-139.22962,-266.69158)"
       x1="221.89832"
       y1="579.29675"
       x2="229.33965"
       y2="579.29675" />
  </defs>
  <sodipodi:namedview
     inkscape:window-y="150"
     inkscape:window-x="0"
     inkscape:window-height="826"
     inkscape:window-width="1280"
     inkscape:document-units="px"
     inkscape:grid-bbox="true"
     showgrid="false"
     inkscape:current-layer="layer5"
     inkscape:cy="24.318443"
     inkscape:cx="25.938708"
     inkscape:zoom="5.6568542"
     inkscape:pageshadow="2"
     inkscape:pageopacity="0.0"
     borderopacity="0.25490196"
     bordercolor="#666666"
     pagecolor="#ffffff"
     id="base"
     inkscape:showpageshadow="false" />
  <metadata
     id="metadata4">
    <rdf:RDF>
      <cc:Work
         rdf:about="">
        <dc:format>image/svg+xml</dc:format>
        <dc:type
           rdf:resource="http://purl.org/dc/dcmitype/StillImage" />
        <dc:title>Generic Text</dc:title>
        <dc:subject>
          <rdf:Bag>
            <rdf:li>text</rdf:li>
            <rdf:li>plaintext</rdf:li>
            <rdf:li>regular</rdf:li>
            <rdf:li>document</rdf:li>
          </rdf:Bag>
        </dc:subject>
        <cc:license
           rdf:resource="http://creativecommons.org/licenses/by-sa/2.0/" />
        <dc:creator>
          <cc:Agent>
            <dc:title>Jakub Steiner</dc:title>
          </cc:Agent>
        </dc:creator>
        <dc:source>http://jimmac.musichall.cz</dc:source>
      </cc:Work>
      <cc:License
         rdf:about="http://creativecommons.org/licenses/by/2.0/">
        <cc:permits
           rdf:resource="http://web.resource.org/cc/Reproduction" />
        <cc:permits
           rdf:resource="http://web.resource.org/cc/Distribution" />
        <cc:requires
           rdf:resource="http://web.resource.org/cc/Notice" />
        <cc:requires
           rdf:resource="http://web.resource.org/cc/Attribution" />
        <cc:permits
           rdf:resource="http://web.resource.org/cc/DerivativeWorks" />
        <cc:requires
           rdf:resource="http://web.resource.org/cc/ShareAlike" />
      </cc:License>
      <cc:Work
         rdf:about="">
        <dc:format>image/svg+xml</dc:format>
        <dc:type
           rdf:resource="http://purl.org/dc/dcmitype/StillImage" />
      </cc:Work>
    </rdf:RDF>
  </metadata>
  <g
     inkscape:groupmode="layer"
     id="layer6"
     inkscape:label="Shadow">
    <g
       style="display:inline"
       transform="matrix(2.105461e-2,0,0,2.086758e-2,42.85172,41.1536)"
       id="g6707">
      <rect
         style="opacity:0.40206185;color:black;fill:url(#linearGradient6715);fill-opacity:1;fill-rule:nonzero;stroke:none;stroke-width:1;stroke-linecap:round;stroke-linejoin:miter;marker:none;marker-start:none;marker-mid:none;marker-end:none;stroke-miterlimit:4;stroke-dasharray:none;stroke-dashoffset:0;stroke-opacity:1;visibility:visible;display:inline;overflow:visible"
         id="rect6709"
         width="1339.6335"
         height="478.35718"
         x="-1559.2523"
         y="-150.69685" />
      <path
         style="opacity:0.40206185;color:black;fill:url(#radialGradient6717);fill-opacity:1;fill-rule:nonzero;stroke:none;stroke-width:1;stroke-linecap:round;stroke-linejoin:miter;marker:none;marker-start:none;marker-mid:none;marker-end:none;stroke-miterlimit:4;stroke-dasharray:none;stroke-dashoffset:0;stroke-opacity:1;visibility:visible;display:inline;overflow:visible"
         d="M -219.61876,-150.68038 C -219.61876,-150.68038 -219.61876,327.65041 -219.61876,327.65041 C -76.744594,328.55086 125.78146,220.48075 125.78138,88.454235 C 125.78138,-43.572302 -33.655436,-150.68036 -219.61876,-150.68038 z "
         id="path6711"
         sodipodi:nodetypes="cccc" />
      <path
         sodipodi:nodetypes="cccc"
         id="path6713"
         d="M -1559.2523,-150.68038 C -1559.2523,-150.68038 -1559.2523,327.65041 -1559.2523,327.65041 C -1702.1265,328.55086 -1904.6525,220.48075 -1904.6525,88.454235 C -1904.6525,-43.572302 -1745.2157,-150.68036 -1559.2523,-150.68038 z "
         style="opacity:0.40206185;color:black;fill:url(#radialGradient6719);fill-opacity:1;fill-rule:nonzero;stroke:none;stroke-width:1;stroke-linecap:round;stroke-linejoin:miter;marker:none;marker-start:none;marker-mid:none;marker-end:none;stroke-miterlimit:4;stroke-dasharray:none;stroke-dashoffset:0;stroke-opacity:1;visibility:visible;display:inline;overflow:visible" />
    </g>
  </g>
  <g
     style="display:inline"
     inkscape:groupmode="layer"
     inkscape:label="Base"
     id="layer1">
    <rect
       style="color:#000000;fill:url(#radialGradient15658);fill-opacity:1.0000000;fill-rule:nonzero;stroke:url(#radialGradient15656);stroke-width:1.0000000;stroke-linecap:round;stroke-linejoin:round;stroke-miterlimit:4.0000000;stroke-dashoffset:0.0000000;stroke-opacity:1.0000000;marker:none;marker-start:none;marker-mid:none;marker-end:none;visibility:visible;display:block;overflow:visible"
       id="rect15391"
       width="34.875000"
       height="40.920494"
       x="6.6035528"
       y="3.6464462"
       ry="1.1490486" />
    <rect
       style="color:#000000;fill:none;fill-opacity:1.0000000;fill-rule:nonzero;stroke:url(#radialGradient15668);stroke-width:1.0000000;stroke-linecap:round;stroke-linejoin:round;stroke-miterlimit:4.0000000;stroke-dashoffset:0.0000000;stroke-opacity:1.0000000;marker:none;marker-start:none;marker-mid:none;marker-end:none;visibility:visible;display:block;overflow:visible"
       id="rect15660"
       width="32.775887"
       height="38.946384"
       x="7.6660538"
       y="4.5839462"
       ry="0.14904857"
       rx="0.14904857" />
    <g
       transform="translate(0.646447,-3.798933e-2)"
       id="g2270">
      <g
         id="g1440"
         style="fill:#ffffff;fill-opacity:1.0000000;fill-rule:nonzero;stroke:#000000;stroke-miterlimit:4.0000000"
         transform="matrix(0.229703,0.000000,0.000000,0.229703,4.967081,4.244972)">
        <radialGradient
           id="radialGradient1442"
           cx="20.892099"
           cy="114.56840"
           r="5.2560000"
           fx="20.892099"
           fy="114.56840"
           gradientUnits="userSpaceOnUse">
          <stop
             offset="0"
             style="stop-color:#F0F0F0"
             id="stop1444" />
          <stop
             offset="1"
             style="stop-color:#474747"
             id="stop1446" />
        </radialGradient>
        <path
           style="stroke:none"
           d="M 23.428000,113.07000 C 23.428000,115.04300 21.828000,116.64200 19.855000,116.64200 C 17.881000,116.64200 16.282000,115.04200 16.282000,113.07000 C 16.282000,111.09600 17.882000,109.49700 19.855000,109.49700 C 21.828000,109.49700 23.428000,111.09700 23.428000,113.07000 z "
           id="path1448" />
        <radialGradient
           id="radialGradient1450"
           cx="20.892099"
           cy="64.567902"
           r="5.2570000"
           fx="20.892099"
           fy="64.567902"
           gradientUnits="userSpaceOnUse">
          <stop
             offset="0"
             style="stop-color:#F0F0F0"
             id="stop1452" />
          <stop
             offset="1"
             style="stop-color:#474747"
             id="stop1454" />
        </radialGradient>
        <path
           style="stroke:none"
           d="M 23.428000,63.070000 C 23.428000,65.043000 21.828000,66.643000 19.855000,66.643000 C 17.881000,66.643000 16.282000,65.043000 16.282000,63.070000 C 16.282000,61.096000 17.882000,59.497000 19.855000,59.497000 C 21.828000,59.497000 23.428000,61.097000 23.428000,63.070000 z "
           id="path1456" />
      </g>
      <path
         style="fill:url(#radialGradient2283);fill-rule:nonzero;stroke:none;stroke-miterlimit:4.0000000"
         d="M 9.9950109,29.952326 C 9.9950109,30.405530 9.6274861,30.772825 9.1742821,30.772825 C 8.7208483,30.772825 8.3535532,30.405301 8.3535532,29.952326 C 8.3535532,29.498892 8.7210780,29.131597 9.1742821,29.131597 C 9.6274861,29.131597 9.9950109,29.499122 9.9950109,29.952326 z "
         id="path15570" />
      <path
         style="fill:url(#radialGradient2285);fill-rule:nonzero;stroke:none;stroke-miterlimit:4.0000000"
         d="M 9.9950109,18.467176 C 9.9950109,18.920380 9.6274861,19.287905 9.1742821,19.287905 C 8.7208483,19.287905 8.3535532,18.920380 8.3535532,18.467176 C 8.3535532,18.013742 8.7210780,17.646447 9.1742821,17.646447 C 9.6274861,17.646447 9.9950109,18.013972 9.9950109,18.467176 z "
         id="path15577" />
    </g>
    <path
       style="fill:none;fill-opacity:0.75000000;fill-rule:evenodd;stroke:#000000;stroke-width:0.98855311;stroke-linecap:butt;stroke-linejoin:miter;stroke-miterlimit:4.0000000;stroke-opacity:0.017543854"
       d="M 11.505723,5.4942766 L 11.505723,43.400869"
       id="path15672"
       sodipodi:nodetypes="cc" />
    <path
       style="fill:none;fill-opacity:0.75000000;fill-rule:evenodd;stroke:#ffffff;stroke-width:1.0000000;stroke-linecap:butt;stroke-linejoin:miter;stroke-miterlimit:4.0000000;stroke-opacity:0.20467831"
       d="M 12.500000,5.0205154 L 12.500000,43.038228"
       id="path15674"
       sodipodi:nodetypes="cc" />
  </g>
  <g
     inkscape:groupmode="layer"
     id="layer5"
     inkscape:label="Text"
     style="display:inline">
    <g
       id="g7614"
       transform="translate(57.140494,-18.539746)" />
    <g
       style="display:inline"
       id="g7616"
       transform="translate(57.140494,-18.539746)" />
    <g
       id="g13209"
       transform="translate(66.080001,-3.9673162)" />
    <g
       style="display:inline"
       id="g13211"
       transform="translate(66.080001,-3.9673162)" />
    <g
       style="fill:#767676;fill-opacity:1;stroke:#000000"
       transform="matrix(0.6815052,0,0,0.6947367,979.51572,546.37496)"
       id="g1885" />
    <g
       transform="matrix(0.6815052,0,0,0.6947367,1049.0504,1074.2313)"
       id="g17428" />
    <g
       id="g289"
       style="opacity:0.31999996"
       transform="matrix(0.6815052,0,0,0.6947367,688.46832,788.65996)" />
    <g
       transform="matrix(0.3407526,0,0,0.3473683,27.448858,301.2186)"
       id="g9464" />
    <g
       id="g23743"
       transform="translate(72.649377,-5.204753)" />
    <g
       style="display:inline"
       id="g23745"
       transform="translate(72.649377,-5.204753)" />
    <g
       style="fill:#767676;fill-opacity:1;stroke:#000000"
       transform="matrix(0.6815052,0,0,0.6947367,986.0851,545.13753)"
       id="g23770" />
    <g
       transform="matrix(0.6815052,0,0,0.6947367,1055.6198,1072.9938)"
       id="g23772" />
    <g
       id="g23774"
       style="opacity:0.31999996"
       transform="matrix(0.6815052,0,0,0.6947367,695.0377,787.42253)" />
    <g
       transform="matrix(0.3407526,0,0,0.3473683,34.018234,299.98117)"
       id="g23776" />
    <g
       style="fill:#767676;fill-opacity:1;stroke:#000000"
       transform="matrix(0.7570411,0,0,0.7717391,1071.5765,600.36576)"
       id="g12304" />
    <g
       transform="matrix(0.7570411,0,0,0.7717391,1148.8182,1186.7279)"
       id="g12306" />
    <g
       id="g12308"
       style="opacity:0.31999996"
       transform="matrix(0.7570411,0,0,0.7717391,748.2703,869.50485)" />
    <g
       transform="matrix(0.3785205,0,0,0.3858695,13.985548,328.03706)"
       id="g12310" />
    <g
       id="g12312"
       transform="matrix(0.7717391,0,0,0.7717391,116.17458,15.803259)" />
    <g
       style="display:inline"
       id="g8233"
       transform="matrix(0.7717391,0,0,0.7717391,116.17458,15.803259)" />
    <g
       id="g13528"
       transform="translate(51.935538,-0.3711797)">
      <g
         id="g13496">
        <path
           style="fill:#ff00ff;fill-rule:evenodd;stroke:none;stroke-width:1px;stroke-linecap:butt;stroke-linejoin:miter;stroke-opacity:1"
           d="M -17.688299,12.655124 C -21.850825,12.940194 -26.483152,13.916039 -28.348621,17.919481 C -32.094645,25.454558 -25.251653,30.74724 -19.711919,37.96638 C -18.361511,38.08324 -17.015432,38.02222 -15.664679,37.96638 C -10.124945,30.74724 -3.2819588,25.454558 -7.0279767,17.919481 C -8.8934464,13.916039 -13.525778,12.940194 -17.688299,12.655124 z "
           id="path5484"
           sodipodi:nodetypes="cccccc" />
        <path
           style="fill:#204a87;fill-opacity:1;fill-rule:evenodd;stroke:#2e3436;stroke-width:3;stroke-linecap:round;stroke-linejoin:round;stroke-miterlimit:4;stroke-dasharray:none;stroke-opacity:1"
           d="M -17.688299,12.655124 C -21.850825,12.940194 -26.483152,13.916039 -28.348621,17.919481 C -32.094645,25.454558 -25.251653,30.74724 -19.711919,37.96638 C -18.361511,38.08324 -17.015432,38.02222 -15.664679,37.96638 C -10.124945,30.74724 -3.2819588,25.454558 -7.0279767,17.919481 C -8.8934464,13.916039 -13.525778,12.940194 -17.688299,12.655124 z "
           id="path6570"
           sodipodi:nodetypes="cccccc" />
        <path
           style="fill:#253653;fill-opacity:1;fill-rule:evenodd;stroke:#d3d7cf;stroke-width:1.5;stroke-linecap:round;stroke-linejoin:round;stroke-miterlimit:4;stroke-dasharray:none;stroke-opacity:1"
           d="M -17.688299,12.655124 C -21.850825,12.940194 -26.483152,13.916039 -28.348621,17.919481 C -32.094645,25.454558 -25.251653,30.74724 -19.711919,37.96638 C -18.361511,38.08324 -17.015432,38.02222 -15.664679,37.96638 C -10.124945,30.74724 -3.2819588,25.454558 -7.0279767,17.919481 C -8.8934464,13.916039 -13.525778,12.940194 -17.688299,12.655124 z "
           id="path6565"
           sodipodi:nodetypes="cccccc" />
        <path
           sodipodi:nodetypes="cccccc"
           id="path6464"
           d="M -17.688299,12.655124 C -21.850825,12.940194 -26.483152,13.916039 -28.348621,17.919481 C -32.094645,25.454558 -25.251653,30.74724 -19.711919,37.96638 C -18.361511,38.08324 -17.015432,38.02222 -15.664679,37.96638 C -10.124945,30.74724 -3.2819588,25.454558 -7.0279767,17.919481 C -8.8934464,13.916039 -13.525778,12.940194 -17.688299,12.655124 z "
           style="fill:#204a87;fill-opacity:1;fill-rule:evenodd;stroke:none;stroke-width:1px;stroke-linecap:butt;stroke-linejoin:miter;stroke-opacity:1" />
        <path
           style="fill:#3465a4;fill-opacity:1;fill-rule:evenodd;stroke:none;stroke-width:1px;stroke-linecap:butt;stroke-linejoin:miter;stroke-opacity:1"
           d="M -17.686625,12.658506 C -21.849146,12.943576 -26.481478,13.919421 -28.346947,17.922858 C -31.799356,24.867352 -26.263224,29.906203 -21.036733,36.304802 L -14.346196,36.304802 C -9.1197055,29.906203 -3.5738882,24.867346 -7.0263026,17.922858 C -8.8917717,13.919421 -13.524099,12.943576 -17.686625,12.658506 z "
           id="path6466" />
        <path
           style="fill:#4e9a06;fill-opacity:1;fill-rule:evenodd;stroke:none;stroke-width:1px;stroke-linecap:butt;stroke-linejoin:miter;stroke-opacity:1"
           d="M -17.686625,12.658506 C -21.849146,12.943576 -26.481478,13.919421 -28.346947,17.922858 C -31.534049,24.333684 -27.056174,29.129306 -22.237351,34.861195 L -13.145578,34.861195 C -8.3264592,29.128894 -3.8390233,24.334027 -7.0263026,17.922858 C -8.8917717,13.919421 -13.524099,12.943576 -17.686625,12.658506 z "
           id="path6468" />
        <path
           style="fill:#73d216;fill-opacity:1;fill-rule:evenodd;stroke:none;stroke-width:1px;stroke-linecap:butt;stroke-linejoin:miter;stroke-opacity:1"
           d="M -17.686625,12.658506 C -21.849146,12.943576 -26.481478,13.919421 -28.346947,17.922858 C -31.259923,23.782288 -27.758549,28.290549 -23.457335,33.398335 L -11.915915,33.398335 C -7.6150932,28.290972 -4.1135208,23.781892 -7.0263026,17.922858 C -8.8917717,13.919421 -13.524099,12.943576 -17.686625,12.658506 z "
           id="path6470" />
        <path
           style="fill:#fce94f;fill-opacity:1;fill-rule:evenodd;stroke:none;stroke-width:1px;stroke-linecap:butt;stroke-linejoin:miter;stroke-opacity:1"
           d="M -17.686625,12.658506 C -21.849146,12.943576 -26.481478,13.919421 -28.346947,17.922858 C -30.922334,23.103228 -28.499187,27.22186 -24.929058,31.637133 L -10.453871,31.637133 C -6.8837429,27.22186 -4.4509151,23.103228 -7.0263026,17.922858 C -8.8917717,13.919421 -13.524099,12.943576 -17.686625,12.658506 z "
           id="path6472" />
        <path
           style="fill:#fcaf3e;fill-opacity:1;fill-rule:evenodd;stroke:none;stroke-width:1px;stroke-linecap:butt;stroke-linejoin:miter;stroke-opacity:1"
           d="M -17.686625,12.658506 C -21.849146,12.943576 -26.481478,13.919421 -28.346947,17.922858 C -30.655417,22.566328 -28.945116,26.354576 -25.994121,30.27052 L -9.3791233,30.27052 C -6.4287311,26.355036 -4.7180856,22.565814 -7.0263026,17.922858 C -8.8917717,13.919421 -13.524099,12.943576 -17.686625,12.658506 z "
           id="path6474" />
        <path
           style="fill:#f57900;fill-opacity:1;fill-rule:evenodd;stroke:none;stroke-width:1px;stroke-linecap:butt;stroke-linejoin:miter;stroke-opacity:1"
           d="M -17.686625,12.658506 C -21.849146,12.943576 -26.481478,13.919421 -28.346947,17.922858 C -30.291788,21.83489 -29.38122,25.136128 -27.281884,28.422703 L -8.0913652,28.422703 C -5.9927773,25.136673 -5.081785,21.834232 -7.0263026,17.922858 C -8.8917717,13.919421 -13.524099,12.943576 -17.686625,12.658506 z "
           id="path6476" />
        <path
           style="fill:#ce5c00;fill-opacity:1;fill-rule:evenodd;stroke:none;stroke-width:1px;stroke-linecap:butt;stroke-linejoin:miter;stroke-opacity:1"
           d="M -17.686625,12.658506 C -21.849146,12.943576 -26.481478,13.919421 -28.346947,17.922858 C -29.863344,20.973086 -29.647599,23.655806 -28.482503,26.247664 L -6.9004324,26.247664 C -5.7353305,23.655806 -5.5098999,20.973086 -7.0263026,17.922858 C -8.8917717,13.919421 -13.524099,12.943576 -17.686625,12.658506 z "
           id="path6478" />
        <path
           style="fill:#cc0000;fill-opacity:1;fill-rule:evenodd;stroke:none;stroke-width:1px;stroke-linecap:butt;stroke-linejoin:miter;stroke-opacity:1"
           d="M -17.686625,12.658506 C -21.849146,12.943576 -26.481478,13.919421 -28.346947,17.922858 C -29.475521,20.192978 -29.638409,22.259189 -29.169949,24.236238 L -6.203295,24.236238 C -5.7348406,22.259189 -5.8977288,20.192972 -7.0263026,17.922858 C -8.8917717,13.919421 -13.524099,12.943576 -17.686625,12.658506 z "
           id="path6480" />
        <path
           style="fill:#ef2929;fill-opacity:1;fill-rule:evenodd;stroke:none;stroke-width:1px;stroke-linecap:butt;stroke-linejoin:miter;stroke-opacity:1"
           d="M -17.686625,12.658506 C -21.849146,12.943576 -26.481478,13.919421 -28.346947,17.922858 C -29.110497,19.458735 -29.428979,20.897815 -29.41201,22.282558 L -5.96124,22.282558 C -5.9442652,20.897815 -6.2627472,19.45873 -7.0263026,17.922858 C -8.8917717,13.919421 -13.524099,12.943576 -17.686625,12.658506 z "
           id="path6536" />
        <path
           style="fill:#5c3566;fill-opacity:1;fill-rule:evenodd;stroke:none;stroke-width:1px;stroke-linecap:butt;stroke-linejoin:miter;stroke-opacity:1"
           d="M -17.686625,12.658506 C -21.849146,12.943576 -26.481478,13.919421 -28.346947,17.922858 C -28.698135,18.629274 -28.956368,19.311978 -29.131219,19.982406 L -6.2420254,19.982406 C -6.4168818,19.311978 -6.6751092,18.629274 -7.0263026,17.922858 C -8.8917717,13.919421 -13.524099,12.943576 -17.686625,12.658506 z "
           id="path6484" />
        <path
           style="fill:#204a87;fill-opacity:1;fill-rule:evenodd;stroke:none;stroke-width:1px;stroke-linecap:butt;stroke-linejoin:miter;stroke-opacity:1"
           d="M -17.686625,12.658506 C -21.849146,12.943576 -26.481478,13.919421 -28.346947,17.922858 C -28.382662,17.994709 -28.409968,18.063146 -28.443772,18.13459 L -6.9294774,18.13459 C -6.9632813,18.063146 -6.9905818,17.994709 -7.0263026,17.922858 C -8.8917717,13.919421 -13.524099,12.943576 -17.686625,12.658506 z "
           id="path6486" />
        <path
           style="fill:#3465a4;fill-opacity:1;fill-rule:evenodd;stroke:none;stroke-width:1px;stroke-linecap:butt;stroke-linejoin:miter;stroke-opacity:1"
           d="M -17.686625,12.658506 C -21.317104,12.90714 -25.306771,13.67738 -27.50458,16.527375 L -7.8686699,16.527375 C -10.066484,13.67738 -14.05614,12.90714 -17.686625,12.658506 z "
           id="path6488" />
        <path
           style="fill:#729fcf;fill-opacity:1;fill-rule:evenodd;stroke:none;stroke-width:1px;stroke-linecap:butt;stroke-linejoin:miter;stroke-opacity:1"
           d="M -17.686625,12.658506 C -20.602777,12.858219 -23.749076,13.39286 -26.013486,15.074141 L -9.3597581,15.074141 C -11.624168,13.39286 -14.770473,12.858219 -17.686625,12.658506 z "
           id="path6490" />
        <path
           style="fill:#8ae234;fill-opacity:1;fill-rule:evenodd;stroke:none;stroke-width:1px;stroke-linecap:butt;stroke-linejoin:miter;stroke-opacity:1"
           d="M -17.686625,12.658506 C -19.675402,12.794705 -21.771675,13.087701 -23.621935,13.794143 L -11.760994,13.794143 C -13.610512,13.08853 -15.69893,12.79463 -17.686625,12.658506 z "
           id="path6492" />
      </g>
      <g
         transform="translate(7.5447658e-2,0)"
         id="g13486">
        <g
           id="g12316"
           transform="matrix(0.1544339,0,0,0.3774336,-21.489466,29.886208)">
          <g
             transform="matrix(2.105461e-2,0,0,2.086758e-2,42.85172,41.1536)"
             style="display:inline"
             id="g12318">
            <rect
               width="1339.6335"
               height="478.35718"
               x="-1559.2523"
               y="-150.69685"
               style="opacity:0.40206185;color:#000000;fill:url(#linearGradient24919);fill-opacity:1;fill-rule:nonzero;stroke:none;stroke-width:1;stroke-linecap:round;stroke-linejoin:miter;marker:none;marker-start:none;marker-mid:none;marker-end:none;stroke-miterlimit:4;stroke-dasharray:none;stroke-dashoffset:0;stroke-opacity:1;visibility:visible;display:inline;overflow:visible"
               id="rect12320" />
            <path
               d="M -219.61876,-150.68038 C -219.61876,-150.68038 -219.61876,327.65041 -219.61876,327.65041 C -76.744594,328.55086 125.78146,220.48075 125.78138,88.454235 C 125.78138,-43.572302 -33.655436,-150.68036 -219.61876,-150.68038 z "
               style="opacity:0.40206185;color:#000000;fill:url(#radialGradient24921);fill-opacity:1;fill-rule:nonzero;stroke:none;stroke-width:1;stroke-linecap:round;stroke-linejoin:miter;marker:none;marker-start:none;marker-mid:none;marker-end:none;stroke-miterlimit:4;stroke-dasharray:none;stroke-dashoffset:0;stroke-opacity:1;visibility:visible;display:inline;overflow:visible"
               id="path12322" />
            <path
               d="M -1559.2523,-150.68038 C -1559.2523,-150.68038 -1559.2523,327.65041 -1559.2523,327.65041 C -1702.1265,328.55086 -1904.6525,220.48075 -1904.6525,88.454235 C -1904.6525,-43.572302 -1745.2157,-150.68036 -1559.2523,-150.68038 z "
               style="opacity:0.40206185;color:#000000;fill:url(#radialGradient24923);fill-opacity:1;fill-rule:nonzero;stroke:none;stroke-width:1;stroke-linecap:round;stroke-linejoin:miter;marker:none;marker-start:none;marker-mid:none;marker-end:none;stroke-miterlimit:4;stroke-dasharray:none;stroke-dashoffset:0;stroke-opacity:1;visibility:visible;display:inline;overflow:visible"
               id="path12324" />
          </g>
        </g>
        <rect
           ry="0.53512293"
           rx="0.53836721"
           y="41.25518"
           x="-19.712994"
           height="4.0964279"
           width="3.8984919"
           id="rect10605"
           style="fill:url(#linearGradient24925);fill-opacity:1;stroke:#2e3436;stroke-width:3;stroke-linecap:round;stroke-linejoin:round;stroke-miterlimit:4;stroke-dasharray:none;stroke-opacity:1" />
        <rect
           style="fill:url(#linearGradient24927);fill-opacity:1;stroke:#d3d7cf;stroke-width:1.5;stroke-linecap:round;stroke-linejoin:round;stroke-miterlimit:4;stroke-dasharray:none;stroke-opacity:1"
           id="rect9624"
           width="3.8984919"
           height="4.0964279"
           x="-19.712994"
           y="41.25518"
           rx="0.53836721"
           ry="0.53512293" />
        <rect
           ry="0.53512293"
           rx="0.53836721"
           y="41.25518"
           x="-19.712994"
           height="4.0964279"
           width="3.8984919"
           id="rect10904"
           style="fill:url(#linearGradient24929);fill-opacity:1;stroke:none;stroke-width:1.5;stroke-linejoin:miter;stroke-miterlimit:4;stroke-dasharray:none;stroke-opacity:1" />
      </g>
    </g>
  </g>
</svg>
