<?xml version="1.0" encoding="UTF-8" standalone="no"?>
<!-- Created with Inkscape (http://www.inkscape.org/) -->

<svg
   xmlns:dc="http://purl.org/dc/elements/1.1/"
   xmlns:cc="http://creativecommons.org/ns#"
   xmlns:rdf="http://www.w3.org/1999/02/22-rdf-syntax-ns#"
   xmlns:svg="http://www.w3.org/2000/svg"
   xmlns="http://www.w3.org/2000/svg"
   xmlns:sodipodi="http://sodipodi.sourceforge.net/DTD/sodipodi-0.dtd"
   xmlns:inkscape="http://www.inkscape.org/namespaces/inkscape"
   width="512mm"
   height="512mm"
   viewBox="0 0 1814.1732 1814.1732"
   id="svg2"
   version="1.1"
   inkscape:version="0.91 r13725"
   sodipodi:docname="chaoxing-logo.svg">
  <defs
     id="defs4" />
  <sodipodi:namedview
     id="base"
     pagecolor="#ffffff"
     bordercolor="#666666"
     borderopacity="1.0"
     inkscape:pageopacity="0.0"
     inkscape:pageshadow="2"
     inkscape:zoom="0.98994949"
     inkscape:cx="1064.0637"
     inkscape:cy="1090.3893"
     inkscape:document-units="px"
     inkscape:current-layer="layer1"
     showgrid="true"
     inkscape:window-width="1920"
     inkscape:window-height="1028"
     inkscape:window-x="2872"
     inkscape:window-y="532"
     inkscape:window-maximized="1">
    <inkscape:grid
       type="xygrid"
       id="grid4158" />
  </sodipodi:namedview>
  <metadata
     id="metadata7">
    <rdf:RDF>
      <cc:Work
         rdf:about="">
        <dc:format>image/svg+xml</dc:format>
        <dc:type
           rdf:resource="http://purl.org/dc/dcmitype/StillImage" />
        <dc:title></dc:title>
      </cc:Work>
    </rdf:RDF>
  </metadata>
  <g
     inkscape:label="Layer 1"
     inkscape:groupmode="layer"
     id="layer1"
     transform="translate(0,761.81102)">
    <rect
       style="opacity:1;fill:#ed1b23;fill-opacity:1;stroke:none;stroke-width:2;stroke-linecap:round;stroke-linejoin:round;stroke-miterlimit:4;stroke-dasharray:none;stroke-dashoffset:0.39370039;stroke-opacity:1"
       id="rect4195"
       width="1640"
       height="1640"
       x="80"
       y="-667.63782"
       rx="200.00002"
       ry="200.00002" />
    <path
       style="opacity:1;fill:#ffffff;fill-opacity:1;stroke:none;stroke-width:2;stroke-linecap:round;stroke-linejoin:round;stroke-miterlimit:4;stroke-dasharray:none;stroke-dashoffset:0.39370039;stroke-opacity:1"
       d="m 1226.0312,-534.87286 -19.291,223.18164 -155.0449,88.05859 C 130.75425,91.327714 182.00779,819.36344 182.00779,819.36344 l 249.36718,0 c -4.70525,0.793 -101.32815,-583.45769 651.80073,-990.27536 l 37.4523,14.0988 C 592.95923,81.345424 514.85558,637.92094 528.58005,822.22084 l 272.22266,-2.8574 C 694.84396,622.85814 683.13286,135.52804 1179.789,-130.0213 l 38.459,16.27735 0.07,0.34179 C 723.35649,171.69292 764.33053,569.44414 868.00779,819.36344 l 303.91601,2.0196 C 943.76427,602.06254 841.29141,278.32674 1233.6347,-38.747856 l 9.7285,47.4101602 C 1137.44,91.061924 760.08901,436.67074 1302.373,825.42404 l 297.8555,0 C 1065.8278,475.46964 1155.394,278.56914 1271.7558,95.922064 l 138.3086,-159.4414 222.6152,24.99023 -115.5761,-191.898444 92.5586,-203.99804 -218.2188,50.62109 z"
       id="path4175"
       inkscape:connector-curvature="0"
       sodipodi:nodetypes="ccccccccccccccccccccccccc" />
  </g>
</svg>
