<?xml version="1.0" encoding="UTF-8" standalone="no"?>
<!-- Created with Inkscape (http://www.inkscape.org/) -->

<svg
   xmlns:dc="http://purl.org/dc/elements/1.1/"
   xmlns:cc="http://creativecommons.org/ns#"
   xmlns:rdf="http://www.w3.org/1999/02/22-rdf-syntax-ns#"
   xmlns:svg="http://www.w3.org/2000/svg"
   xmlns="http://www.w3.org/2000/svg"
   xmlns:xlink="http://www.w3.org/1999/xlink"
   xmlns:sodipodi="http://sodipodi.sourceforge.net/DTD/sodipodi-0.dtd"
   xmlns:inkscape="http://www.inkscape.org/namespaces/inkscape"
   width="802"
   height="802"
   id="svg2"
   version="1.1"
   inkscape:version="0.48.4 r9939"
   sodipodi:docname="Numbers.svg">
  <defs
     id="defs4">
    <linearGradient
       id="linearGradient3131"
       inkscape:collect="always">
      <stop
         id="stop3133"
         offset="0"
         style="stop-color:#ff8500;stop-opacity:1" />
      <stop
         id="stop3135"
         offset="1"
         style="stop-color:#ffb900;stop-opacity:1" />
    </linearGradient>
    <linearGradient
       inkscape:collect="always"
       id="linearGradient3096">
      <stop
         style="stop-color:#ffffff;stop-opacity:1"
         offset="0"
         id="stop3098" />
      <stop
         style="stop-color:#ffffff;stop-opacity:1"
         offset="1"
         id="stop3100" />
    </linearGradient>
    <linearGradient
       inkscape:collect="always"
       id="linearGradient3090">
      <stop
         style="stop-color:#11d51d;stop-opacity:1"
         offset="0"
         id="stop3092" />
      <stop
         style="stop-color:#82fa6c;stop-opacity:1"
         offset="1"
         id="stop3094" />
    </linearGradient>
    <linearGradient
       inkscape:collect="always"
       id="linearGradient3084">
      <stop
         style="stop-color:#70efff;stop-opacity:1"
         offset="0"
         id="stop3086" />
      <stop
         style="stop-color:#12d61d;stop-opacity:1"
         offset="1"
         id="stop3088" />
    </linearGradient>
    <linearGradient
       y2="8.2437592"
       x2="305.785"
       y1="598.59198"
       x1="305.20093"
       gradientTransform="matrix(0.15,0,0,0.15,0.85002387,961.21217)"
       gradientUnits="userSpaceOnUse"
       id="linearGradient3066"
       xlink:href="#linearGradient3068"
       inkscape:collect="always" />
    <linearGradient
       y2="8.2437592"
       x2="305.785"
       y1="598.59198"
       x1="305.20093"
       gradientTransform="translate(1.523435e-5,450.362)"
       gradientUnits="userSpaceOnUse"
       id="linearGradient3025"
       xlink:href="#linearGradient3013"
       inkscape:collect="always" />
    <linearGradient
       gradientUnits="userSpaceOnUse"
       y2="338.63889"
       x2="378.47192"
       y1="512.68927"
       x1="377.88785"
       id="linearGradient3921"
       xlink:href="#linearGradient3915"
       inkscape:collect="always" />
    <linearGradient
       id="linearGradient3835">
      <stop
         id="stop3837"
         offset="0"
         style="stop-color:#ffffff;stop-opacity:1;" />
      <stop
         id="stop3839"
         offset="1"
         style="stop-color:#ffffff;stop-opacity:0;" />
    </linearGradient>
    <linearGradient
       id="linearGradient3843">
      <stop
         style="stop-color:#3d73c3;stop-opacity:1;"
         offset="0"
         id="stop3851" />
      <stop
         id="stop3857"
         offset="0.25"
         style="stop-color:#0064f5;stop-opacity:0.37254902;" />
      <stop
         id="stop3855"
         offset="0.5"
         style="stop-color:#0064f5;stop-opacity:0.24705882;" />
      <stop
         id="stop3847"
         offset="1"
         style="stop-color:#0064f5;stop-opacity:0;" />
    </linearGradient>
    <linearGradient
       id="linearGradient3883">
      <stop
         id="stop3885"
         offset="0"
         style="stop-color:#0081f8;stop-opacity:1;" />
      <stop
         id="stop3887"
         offset="1"
         style="stop-color:#0081f8;stop-opacity:0;" />
    </linearGradient>
    <linearGradient
       id="linearGradient3915"
       inkscape:collect="always">
      <stop
         id="stop3917"
         offset="0"
         style="stop-color:#0081f8;stop-opacity:1;" />
      <stop
         id="stop3919"
         offset="1"
         style="stop-color:#01ddff;stop-opacity:1" />
    </linearGradient>
    <linearGradient
       inkscape:collect="always"
       id="linearGradient3013">
      <stop
         style="stop-color:#0255fb;stop-opacity:1"
         offset="0"
         id="stop3015" />
      <stop
         style="stop-color:#13ddf5;stop-opacity:1"
         offset="1"
         id="stop3017" />
    </linearGradient>
    <linearGradient
       id="linearGradient3068"
       inkscape:collect="always">
      <stop
         id="stop3070"
         offset="0"
         style="stop-color:#70efff;stop-opacity:1" />
      <stop
         id="stop3072"
         offset="1"
         style="stop-color:#5770ff;stop-opacity:1" />
    </linearGradient>
    <linearGradient
       inkscape:collect="always"
       xlink:href="#linearGradient3068"
       id="linearGradient3069"
       gradientUnits="userSpaceOnUse"
       gradientTransform="matrix(0.15,0,0,0.15,0.85002387,961.21217)"
       x1="305.20093"
       y1="598.59198"
       x2="305.785"
       y2="8.2437592" />
    <linearGradient
       inkscape:collect="always"
       xlink:href="#linearGradient3090"
       id="linearGradient3073"
       gradientUnits="userSpaceOnUse"
       gradientTransform="matrix(1.3333333,0,0,1.3333333,-1.3333469,251.0285)"
       x1="305.20093"
       y1="598.59198"
       x2="305.785"
       y2="8.2437592" />
    <linearGradient
       inkscape:collect="always"
       xlink:href="#linearGradient3084"
       id="linearGradient3082"
       x1="417.14285"
       y1="262.36218"
       x2="417.14285"
       y2="1049.505"
       gradientUnits="userSpaceOnUse" />
    <linearGradient
       inkscape:collect="always"
       xlink:href="#linearGradient3096"
       id="linearGradient3102"
       x1="457.14285"
       y1="410.93362"
       x2="448.57144"
       y2="900.93359"
       gradientUnits="userSpaceOnUse" />
    <linearGradient
       inkscape:collect="always"
       xlink:href="#linearGradient3096"
       id="linearGradient3125"
       gradientUnits="userSpaceOnUse"
       x1="457.14285"
       y1="410.93362"
       x2="448.57144"
       y2="900.93359" />
    <linearGradient
       inkscape:collect="always"
       xlink:href="#linearGradient3131"
       id="linearGradient3064"
       gradientUnits="userSpaceOnUse"
       gradientTransform="matrix(1.3333333,0,0,1.3333333,-0.3333469,250.02858)"
       x1="305.20093"
       y1="598.59198"
       x2="305.785"
       y2="8.2437592" />
  </defs>
  <sodipodi:namedview
     id="base"
     pagecolor="#ffffff"
     bordercolor="#666666"
     borderopacity="1.0"
     inkscape:pageopacity="0.0"
     inkscape:pageshadow="2"
     inkscape:zoom="0.49497475"
     inkscape:cx="436.88293"
     inkscape:cy="377.96588"
     inkscape:document-units="px"
     inkscape:current-layer="layer1"
     showgrid="false"
     inkscape:window-width="1600"
     inkscape:window-height="837"
     inkscape:window-x="-8"
     inkscape:window-y="-8"
     inkscape:window-maximized="1" />
  <metadata
     id="metadata7">
    <rdf:RDF>
      <cc:Work
         rdf:about="">
        <dc:format>image/svg+xml</dc:format>
        <dc:type
           rdf:resource="http://purl.org/dc/dcmitype/StillImage" />
        <dc:title></dc:title>
      </cc:Work>
    </rdf:RDF>
  </metadata>
  <g
     inkscape:label="Calque 1"
     inkscape:groupmode="layer"
     id="layer1"
     transform="translate(0,-250.36218)">
    <g
       id="g3137">
      <path
         inkscape:connector-curvature="0"
         style="color:#000000;fill:url(#linearGradient3064);fill-opacity:1;fill-rule:nonzero;stroke:none;stroke-width:0.1;marker:none;visibility:visible;display:inline;overflow:visible;enable-background:accumulate"
         d="m 184.57896,251.36236 432.84207,0 c 101.70268,0 183.57895,81.87626 183.57895,183.57901 l 0,432.84212 c 0,101.70311 -81.87627,183.57871 -183.57895,183.57871 l -432.84207,0 C 82.87618,1051.3622 0.99999998,969.4866 0.99999998,867.78349 l 0,-432.84212 c 0,-101.70275 81.87618002,-183.57901 183.57896002,-183.57901 z"
         id="rect2996" />
      <path
         sodipodi:nodetypes="scsscsssssssssssssscssccssssssssscsssscs"
         style="fill:#ffffff"
         d="m 209.1035,856.75139 c 12.9454,-8.63793 24.0559,-16.2007 24.69,-16.80617 1.0056,-0.96016 -0.291,-2.54734 -10.1461,-12.42006 -6.2145,-6.22557 -11.8805,-11.31922 -12.5912,-11.31922 -1.2664,0 -31.8583,45.30801 -33.4906,49.60121 -1.5181,3.99299 1.5828,7.78965 5.7567,7.04821 1.2343,-0.21926 12.8358,-7.46604 25.7812,-16.10397 z m 44.3168,-29.29557 c 20.9517,-13.98708 33.4191,-23.97359 62.9084,-50.39004 43.364,-38.84536 141.7026,-132.55395 141.7026,-135.03089 0,-1.57547 -48.4448,-50.0477 -50.0194,-50.0477 -1.9742,0 -79.3554,80.71373 -118.3632,123.46064 -26.137,28.64229 -39.0366,43.42742 -48.3527,55.42027 -11.3453,14.60504 -26.2335,36.41764 -26.2335,38.4345 0,1.49007 24.3552,25.65334 25.8571,25.65334 0.6963,0 6.3216,-3.37505 12.5007,-7.50012 z M 510.8438,651.04969 c 2.1843,-2.18434 2.6562,-3.24391 2.6562,-5.96405 0,-1.81929 -0.4072,-4.66694 -0.9049,-6.32812 -1.2212,-4.07592 -0.038,-7.81788 4.3629,-13.79583 4.6593,-6.3292 9.4608,-11.49164 43.0868,-46.32616 44.8943,-46.50781 71.8735,-75.35262 84.2724,-90.10003 6.5209,-7.75598 9.3724,-14.21365 9.3426,-21.15769 -0.023,-5.43981 -0.1412,-5.80703 -4.5899,-14.30111 -1.7247,-3.2929 -1.1593,-6.46628 1.9756,-11.08951 11.4771,-16.92556 12.0136,-32.66272 1.5022,-44.06616 -9.2909,-10.07953 -25.0037,-10.99805 -39.6071,-2.31532 -4.7258,2.80981 -24.0821,19.5995 -47.0829,40.83978 C 515.165,483.25807 413.5,583.48178 413.5,586.64329 c 0,1.46517 48.5576,49.87515 50.0272,49.87515 0.6646,0 21.4445,-20.30273 46.1777,-45.11719 46.51,-46.6629 68.2255,-69.05363 94.8888,-97.83897 22.9698,-24.7979 23.1571,-24.98447 25.3126,-25.20415 1.602,-0.16328 1.9968,0.18022 2.1966,1.91074 0.3217,2.78758 -0.4445,4.08724 -7.1668,12.15745 -12.8761,15.45789 -35.7205,39.68328 -86.0082,91.20774 -16.7783,17.19094 -32.3602,33.71438 -34.6264,36.71875 -5.2411,6.94836 -9.9379,16.21998 -11.1596,22.02955 -2.3117,10.99327 3.6692,21.24625 12.4284,21.30579 1.9487,0.0133 3.2957,-0.66067 5.2735,-2.63846 z"
         id="path3115"
         inkscape:connector-curvature="0" />
      <path
         inkscape:connector-curvature="0"
         id="path3103"
         d=""
         style="fill:#000000" />
      <g
         id="g3048"
         style="fill:#ffffff">
        <path
           sodipodi:nodetypes="ssscccccccccs"
           inkscape:connector-curvature="0"
           id="rect3044"
           transform="translate(0,250.36218)"
           d="m 175.3125,630.0625 c -5.45978,0 -9.84375,4.85733 -9.84375,10.875 0,6.01766 4.38397,10.84375 9.84375,10.84375 l 49.75,0 566.5,0 6.4375,0 0.66964,-5.07254 0.89286,-5.65291 0.625,-5.38504 0.3125,-5.60826 -8.9375,0 -566.5,0 z"
           style="fill:#ffffff;fill-opacity:1;fill-rule:nonzero;stroke:none" />
      </g>
    </g>
  </g>
</svg>
