<?xml version="1.0" encoding="UTF-8" standalone="no"?>
<!-- Created with Inkscape (http://www.inkscape.org/) -->

<svg
   xmlns:dc="http://purl.org/dc/elements/1.1/"
   xmlns:cc="http://creativecommons.org/ns#"
   xmlns:rdf="http://www.w3.org/1999/02/22-rdf-syntax-ns#"
   xmlns:svg="http://www.w3.org/2000/svg"
   xmlns="http://www.w3.org/2000/svg"
   xmlns:sodipodi="http://sodipodi.sourceforge.net/DTD/sodipodi-0.dtd"
   xmlns:inkscape="http://www.inkscape.org/namespaces/inkscape"
   width="300"
   height="136.87088"
   id="svg3923"
   version="1.1"
   inkscape:version="0.48.1 "
   sodipodi:docname="新規ドキュメント 8">
  <defs
     id="defs3925" />
  <sodipodi:namedview
     id="base"
     pagecolor="#ffffff"
     bordercolor="#666666"
     borderopacity="1.0"
     inkscape:pageopacity="0.0"
     inkscape:pageshadow="2"
     inkscape:zoom="1"
     inkscape:cx="255.54274"
     inkscape:cy="60.98712"
     inkscape:document-units="px"
     inkscape:current-layer="layer1"
     showgrid="false"
     fit-margin-top="0"
     fit-margin-left="0"
     fit-margin-right="0"
     fit-margin-bottom="0"
     inkscape:window-width="1024"
     inkscape:window-height="715"
     inkscape:window-x="-8"
     inkscape:window-y="-8"
     inkscape:window-maximized="1" />
  <metadata
     id="metadata3928">
    <rdf:RDF>
      <cc:Work
         rdf:about="">
        <dc:format>image/svg+xml</dc:format>
        <dc:type
           rdf:resource="http://purl.org/dc/dcmitype/StillImage" />
        <dc:title></dc:title>
      </cc:Work>
    </rdf:RDF>
  </metadata>
  <g
     inkscape:label="レイヤー 1"
     inkscape:groupmode="layer"
     id="layer1"
     transform="translate(-27.818114,-442.56521)">
    <path
       inkscape:connector-curvature="0"
       id="path3002-6"
       style="font-size:139.24649048px;font-style:normal;font-variant:normal;font-weight:normal;font-stretch:normal;text-align:start;line-height:125%;letter-spacing:0px;word-spacing:0px;writing-mode:lr-tb;text-anchor:start;fill:#000000;fill-opacity:1;stroke:none;font-family:AngsanaUPC;-inkscape-font-specification:AngsanaUPC"
       d="m 95.85145,575.76834 -16.101351,0 -24.522605,-30.44956 c -1.780253,0.0728 -2.858299,0.10917 -3.974219,0.10914 -0.584576,3e-5 -1.620825,-0.0364 -3.108748,-0.10914 l 0,18.91728 c -2.1e-5,4.31704 0.657598,7.02123 1.972856,8.11262 1.315205,1.09139 3.141933,1.63708 5.480162,1.63708 l 2.789892,0 0,1.78258 -30.569323,0 0,-1.78258 2.710188,0 c 2.94932,0 4.948744,-0.69728 5.998282,-2.09183 1.049528,-1.39454 1.574297,-3.94714 1.574308,-7.65787 l 0,-42.05458 c -1.1e-5,-4.31696 -0.66428,-7.02116 -1.992796,-8.1126 -1.328526,-1.09132 -3.18845,-1.63702 -5.579794,-1.63708 l -2.710188,0 0,-1.78259 25.985921,0 c 6.37688,7e-5 11.49833,0.37599 15.36437,1.12776 3.865966,0.75191 7.220484,2.57087 10.063565,5.45692 2.842984,2.88615 4.264514,6.28157 4.264578,10.18623 -6.4e-5,8.73109 -4.71703,14.28501 -16.434562,16.66176 l 14.651463,18.66263 c 3.666671,4.63233 6.306289,7.59118 8.870403,8.87658 1.897649,1.0956 2.63884,1.97848 5.267598,2.36467 z m -47.706923,-60.57169 0,27.10264 2.94932,0 c 6.297166,3e-5 11.299055,-1.24293 15.005668,-3.72889 3.706549,-2.48588 5.559833,-5.99649 5.559887,-10.53183 -5.4e-5,-4.68076 -1.547783,-8.14287 -4.643209,-10.38632 -3.095479,-2.24334 -6.635993,-3.36504 -10.62154,-3.3651 -3.374468,6e-5 -6.124513,0.30322 -8.250126,0.9095 z"
       sodipodi:nodetypes="cccccscsccccsssscccccccccccccccsscccc" />
    <path
       inkscape:connector-curvature="0"
       id="path3006-4"
       style="font-size:139.24649048px;font-style:normal;font-variant:normal;font-weight:normal;font-stretch:normal;text-align:start;line-height:125%;letter-spacing:0px;word-spacing:0px;writing-mode:lr-tb;text-anchor:start;fill:#000000;fill-opacity:1;stroke:none;font-family:AngsanaUPC;-inkscape-font-specification:AngsanaUPC"
       d="m 190.68278,571.57049 c -3.8999,5.21739 -7.62849,7.82608 -11.18576,7.82608 -3.68908,0 -5.55996,-2.60869 -5.61263,-7.82608 -4.40055,3.39921 -7.42425,5.55995 -9.07113,6.4822 -1.64693,0.92227 -3.70884,1.3834 -6.18576,1.3834 -3.76812,0 -6.60738,-1.25164 -8.51778,-3.75493 -1.9104,-2.50329 -2.8656,-5.34913 -2.8656,-8.53753 0,-1.81817 0.32645,-3.96134 1.16966,-5.85858 0.84321,-1.89721 2.47813,-4.20545 7.34811,-6.62054 4.32928,-2.14695 10.0329,-3.52439 18.1225,-6.44932 l 0,-3.3245 c 0,-8.30034 -2.96445,-11.97476 -8.89327,-11.97481 -2.02899,5e-5 -3.78275,0.25075 -5.11857,1.20408 -1.38341,1.11993 -3.28617,2.50992 -3.28616,4.16995 l 0.11858,3.00396 c -1e-5,1.96683 -2.08492,3.1753 -3.65902,3.27041 -2.89856,3e-5 -4.34783,-1.6864 -4.34782,-5.05929 -1e-5,-3.66266 2.15599,-4.83163 5.6606,-7.00558 3.50459,-2.17386 7.57573,-3.26082 12.21341,-3.26087 4.13701,5e-5 7.4835,0.64564 10.03952,1.93675 2.55595,1.29123 4.16992,2.92495 4.84189,4.90118 0.67189,1.97632 1.00786,5.16472 1.0079,9.56522 l 0,16.20551 c -4e-5,4.32147 0.15807,7.2266 0.47431,8.71539 0.29935,0.90008 1.00128,1.37536 2.05533,1.37535 1.02763,10e-6 2.92485,-0.52554 5.69169,-3.29235 z m -16.79839,-3.3992 0,-16.5086 c -7.85245,2.95128 -12.69799,5.07103 -14.72695,7.3108 -2.029,2.2398 -3.13864,3.32166 -3.13863,5.71955 -1e-5,2.13439 0.66533,4.11726 1.99604,5.9486 1.33067,1.83135 3.14227,2.74704 5.43478,2.74704 2.63501,0 6.11327,-1.73913 10.43476,-5.21739 z"
       sodipodi:nodetypes="cscsssssscscccccsccccssccccccsscsc" />
    <path
       inkscape:connector-curvature="0"
       id="path3008-0"
       style="font-size:139.24649048px;font-style:normal;font-variant:normal;font-weight:normal;font-stretch:normal;text-align:start;line-height:125%;letter-spacing:0px;word-spacing:0px;writing-mode:lr-tb;text-anchor:start;fill:#000000;fill-opacity:1;stroke:none;font-family:AngsanaUPC;-inkscape-font-specification:AngsanaUPC"
       d="m 243.62768,572.31144 -13.92058,5.39813 -2.32657,0 0,-6.26763 c -4.29124,4.17842 -8.89265,6.26763 -13.80425,6.26763 -5.91982,0 -10.58587,-2.20997 -13.99814,-6.62992 -3.41229,-4.41993 -5.11844,-9.34708 -5.11844,-14.78145 0,-5.94154 1.62929,-12.74716 5.64908,-18.13324 4.01976,-5.38601 9.95179,-8.07903 17.03488,-8.07907 4.11024,4e-5 7.52252,2.37364 10.23687,4.83717 l 0,-8.1153 c -3e-5,-5.31354 -0.24561,-8.67077 -0.73673,-10.07168 -0.86167,-1.09646 -3.96872,-0.73494 -5.83128,-0.73494 l -0.12094,-1.59925 12.81556,-4.55452 3.23931,-0.26913 0,49.43714 c 0,4.85471 -0.0914,9.8543 -0.0914,9.8543 0.47823,1.71484 1.2984,2.57227 2.74609,2.57226 0.90473,10e-6 2.13263,-0.26567 3.68372,-0.79703 z m -16.24715,-4.20257 0,-22.57069 c -3e-5,-3.06737 -1.08576,-5.72416 -3.25719,-7.97039 -2.17147,-2.24617 -3.94363,-3.55956 -6.83888,-3.5596 -3.43816,4e-5 -7.55925,1.78442 -10.07967,4.97253 -2.52047,3.18819 -3.40008,7.69266 -3.40007,13.51344 -1e-5,5.43437 1.30544,10.11999 3.91638,14.05687 2.6109,3.93689 6.15244,5.90533 10.62462,5.90533 3.10206,0 6.11366,-1.44916 9.03481,-4.34749 z"
       sodipodi:nodetypes="ccccssssccscccccsscccccccssssc" />
    <path
       inkscape:connector-curvature="0"
       id="path3012-6"
       style="font-size:139.24649048px;font-style:normal;font-variant:normal;font-weight:normal;font-stretch:normal;text-align:start;line-height:125%;letter-spacing:0px;word-spacing:0px;writing-mode:lr-tb;text-anchor:start;fill:#000000;fill-opacity:1;stroke:none;font-family:AngsanaUPC;-inkscape-font-specification:AngsanaUPC"
       d="m 309.73959,543.50367 0,21.8905 c -2e-5,2.9439 0.50321,5.15182 1.5097,6.62375 1.00643,1.47196 3.15774,2.20794 6.4539,2.20792 l 0,1.81163 -23.36242,0 0,-1.81163 c 1.91227,2e-5 3.44081,-0.28305 4.58567,-0.84919 1.14484,-0.56613 1.86195,-1.27694 2.15132,-2.13245 0.28933,-0.85547 0.43402,-2.67968 0.43403,-5.47261 l 0,-17.7011 c -1e-5,-4.90647 -0.22018,-8.19632 -0.66049,-9.86959 -0.44034,-1.6732 -1.4405,-2.50981 -3.00051,-2.50987 -1.03162,6e-5 -2.20163,0.25166 -3.51002,0.75485 l -0.49065,-1.81162 13.81365,-5.58586 2.07582,0 0,10.26589 c 3.82452,-6.84388 7.74971,-10.26585 11.77557,-10.26589 1.53482,4e-5 2.96904,0.4907 4.30262,1.47196 1.33353,0.98133 2.0003,2.34005 2.00033,4.07615 -3e-5,3.06974 -1.45939,4.6046 -4.3781,4.60455 -0.78003,5e-5 -2.08842,-0.56609 -3.92518,-1.6984 -1.81166,-1.15739 -2.88102,-1.73609 -3.2081,-1.73614 -1.711,5e-5 -3.90005,2.57909 -6.56714,7.73715 z" />
    <path
       inkscape:connector-curvature="0"
       id="path3027-1"
       style="font-size:74.65608978px;font-style:normal;font-variant:normal;font-weight:normal;font-stretch:normal;text-align:start;line-height:125%;letter-spacing:0px;word-spacing:0px;writing-mode:lr-tb;text-anchor:start;fill:#000000;fill-opacity:1;stroke:none;font-family:Palatino Linotype;-inkscape-font-specification:Palatino Linotype"
       d="m 138.99974,563.11797 c -1.65436,4.10505 -4.04566,7.26929 -4.04566,7.26929 -2.56443,2.64318 -4.45582,3.98592 -6.93541,5.10561 -2.77691,1.25395 -6.27935,2.04915 -8.35426,2.04915 -3.89056,0 -7.57845,-0.7619 -11.0637,-2.28569 -3.48529,-1.52379 -6.32212,-4.10127 -8.51052,-7.73243 -2.18844,-3.63114 -3.282652,-8.008 -3.282641,-13.13054 -1.1e-5,-3.40418 0.421461,-6.47608 1.264414,-9.2157 0.842943,-2.73954 1.726414,-4.77397 2.650427,-6.10326 0.92399,-1.32923 2.48831,-2.80438 4.69295,-4.42549 2.20461,-1.621 4.53893,-2.91786 7.00294,-3.89052 2.46399,-0.97259 5.12252,-1.4589 7.97559,-1.45895 3.8905,5e-5 7.31903,0.91594 10.28561,2.74769 2.96647,1.83183 5.04953,4.17425 6.24915,7.02727 1.19955,2.85309 1.79932,5.88446 1.79937,9.0941 -0.0321,1.48173 -0.18307,2.60425 -0.0148,4.02377 l -32.56841,-0.11634 c 0.0648,6.71119 2.68961,11.40917 5.93236,14.65192 2.87228,2.87227 5.47568,3.42027 10.61043,3.42026 9.07676,-1.92849 11.13449,-4.47315 15.7359,-8.46241 z m -32.85493,-14.17136 23.63496,0.2918 c 0.0324,-0.77809 0.0486,-1.37787 0.0487,-1.79936 -5e-5,-5.02525 -1.15587,-7.8871 -3.19837,-10.33494 -2.04256,-2.44775 -4.76349,-4.00804 -8.29735,-4.00808 -3.85813,4e-5 -6.79791,0.83967 -8.95389,3.59541 -2.15602,2.75584 -3.23401,6.8409 -3.23401,12.25517 z"
       sodipodi:nodetypes="ccsssssssccccccccsccccccccscc" />
    <path
       inkscape:connector-curvature="0"
       id="path3027-7-8"
       style="font-size:74.65608978px;font-style:normal;font-variant:normal;font-weight:normal;font-stretch:normal;text-align:start;line-height:125%;letter-spacing:0px;word-spacing:0px;writing-mode:lr-tb;text-anchor:start;fill:#000000;fill-opacity:1;stroke:none;font-family:Palatino Linotype;-inkscape-font-specification:Palatino Linotype"
       d="m 288.57934,563.23445 c -1.65437,4.10505 -4.04567,7.26929 -4.04567,7.26929 -2.56443,2.64318 -4.45581,3.98592 -6.93541,5.10561 -2.77691,1.25395 -6.27935,2.04915 -8.35426,2.04915 -3.89055,0 -7.57845,-0.7619 -11.0637,-2.28569 -3.48529,-1.52379 -6.32212,-4.10127 -8.51053,-7.73243 -2.18843,-3.63114 -3.28265,-8.008 -3.28263,-13.13054 -2e-5,-3.40418 0.42146,-6.47608 1.26441,-9.2157 0.84294,-2.73954 1.72641,-4.77397 2.65042,-6.10326 0.92399,-1.32923 2.48831,-2.80438 4.69296,-4.42549 2.20461,-1.621 4.53893,-2.91786 7.00294,-3.89052 2.46399,-0.97259 5.12252,-1.4589 7.97559,-1.45895 3.8905,5e-5 7.31903,0.91594 10.28561,2.74769 2.96647,1.83183 5.04953,4.17425 6.24915,7.02727 1.19955,2.85309 1.79932,5.88446 1.79937,9.0941 -0.0321,1.48173 -0.18307,2.60425 -0.0148,4.02377 l -32.5684,-0.11633 c 0.0648,6.71118 2.68961,11.40916 5.93235,14.65191 2.87228,2.87227 5.47568,3.42027 10.61043,3.42026 9.07676,-1.92849 11.13449,-4.47315 15.7359,-8.4624 z m -32.85494,-14.17136 23.63496,0.2918 c 0.0324,-0.77809 0.0486,-1.37787 0.0487,-1.79936 -5e-5,-5.02525 -1.15587,-7.8871 -3.19836,-10.33494 -2.04257,-2.44775 -4.7635,-4.00804 -8.29736,-4.00808 -3.85812,4e-5 -6.79791,0.83967 -8.95389,3.59541 -2.15602,2.75584 -3.23401,6.8409 -3.23401,12.25517 z"
       sodipodi:nodetypes="ccsssssssccccccccsccccccccscc" />
    <path
       style="fill:#70053d;fill-opacity:1;stroke:none"
       d="m 92.951334,535.09842 c -0.20067,-64.77279 20.264016,-74.16884 37.466506,-92.53321 l 0,47.95624 c -14.44621,10.13411 -27.55032,23.36949 -37.466506,44.57697 z"
       id="path3094-9"
       inkscape:connector-curvature="0"
       sodipodi:nodetypes="cccc" />
    <path
       style="fill:#70053d;fill-opacity:1;stroke:none"
       d="m 105.77925,520.00366 c 7.40293,-9.3042 17.26981,-18.1464 30.41152,-26.37459 l 0,-34.17931 14.2638,-6.72821 0,47.90486 c -15.75196,3.75562 -31.386,7.88186 -44.67532,19.37725 z"
       id="path3864-8"
       inkscape:connector-curvature="0"
       sodipodi:nodetypes="cccccc" />
  </g>
</svg>
