<?xml version="1.0" encoding="UTF-8" standalone="no"?>
<!-- Created with Inkscape (http://www.inkscape.org/) -->

<svg
   xmlns:dc="http://purl.org/dc/elements/1.1/"
   xmlns:cc="http://creativecommons.org/ns#"
   xmlns:rdf="http://www.w3.org/1999/02/22-rdf-syntax-ns#"
   xmlns:svg="http://www.w3.org/2000/svg"
   xmlns="http://www.w3.org/2000/svg"
   xmlns:sodipodi="http://sodipodi.sourceforge.net/DTD/sodipodi-0.dtd"
   xmlns:inkscape="http://www.inkscape.org/namespaces/inkscape"
   width="1920"
   height="1080"
   id="svg3096"
   version="1.1"
   inkscape:version="0.48.5 r10040"
   sodipodi:docname="Active Noise Reduction Colored No Labels.svg">
  <defs
     id="defs3098" />
  <sodipodi:namedview
     id="base"
     pagecolor="#ffffff"
     bordercolor="#666666"
     borderopacity="1.0"
     inkscape:pageopacity="0.0"
     inkscape:pageshadow="2"
     inkscape:zoom="0.25"
     inkscape:cx="1024.6035"
     inkscape:cy="1233.3547"
     inkscape:document-units="px"
     inkscape:current-layer="layer1"
     showgrid="false"
     inkscape:window-width="1321"
     inkscape:window-height="1162"
     inkscape:window-x="599"
     inkscape:window-y="19"
     inkscape:window-maximized="0" />
  <metadata
     id="metadata3101">
    <rdf:RDF>
      <cc:Work
         rdf:about="">
        <dc:format>image/svg+xml</dc:format>
        <dc:type
           rdf:resource="http://purl.org/dc/dcmitype/StillImage" />
        <dc:title />
      </cc:Work>
    </rdf:RDF>
  </metadata>
  <g
     inkscape:label="Layer 1"
     inkscape:groupmode="layer"
     id="layer1"
     transform="translate(0,27.637817)">
    <path
       inkscape:connector-curvature="0"
       id="speaker"
       style="fill:#dc2400;fill-opacity:1"
       d="m 213.22891,205.39973 c 2.74419,8.5807 4.15861,17.58544 4.17722,26.59406 0.0186,8.99136 -1.35312,17.98442 -4.05145,26.56122 l 17.95401,22.54225 c 7.35724,-15.24874 11.21358,-32.17367 11.1884,-49.10347 -0.0251,-16.90668 -3.92056,-33.79634 -11.30299,-49.00615 l -17.96495,22.41209 m -20.91349,-98.86135 -70.56799,87.81891 H 91.95206 v 37.6365 37.63651 h 29.79561 l 70.56799,87.81891 V 106.54325 m 72.3719,34.50063 -16.40675,20.58263 c 12.52766,21.18719 19.26893,45.75838 19.30785,70.37215 0.0393,24.69648 -6.67022,49.37107 -19.21054,70.64705 l 16.50528,20.6021 c 18.03915,-26.75706 27.85425,-58.97939 27.79586,-91.24915 -0.0578,-32.19192 -9.93966,-64.30112 -27.9917,-90.95478 m 32.50088,-40.57653 -16.03453,20.09242 c 23.58591,32.01554 36.61716,71.67491 36.61716,111.43889 0,39.76519 -13.03125,79.42456 -36.61716,111.43888 l 16.13306,20.3868 c 29.29324,-37.22536 45.62214,-84.4568 45.57592,-131.82081 -0.0465,-47.28253 -16.40675,-94.39597 -45.67323,-131.52888" />
    <path
       d="m 213.22891,685.36785 c 2.74419,8.5807 4.15861,17.58543 4.17722,26.59406 0.0186,8.99135 -1.35312,17.98441 -4.05145,26.56122 l 17.95401,22.54224 c 7.35724,-15.24873 11.21358,-32.17367 11.1884,-49.10346 -0.0251,-16.90669 -3.92056,-33.79634 -11.30299,-49.00616 l -17.96495,22.4121 m -20.91349,-98.86136 -70.56799,87.81892 H 91.95206 v 37.6365 37.6365 h 29.79561 l 70.56799,87.81891 V 586.51136 m 72.3719,34.50063 -16.40675,20.58264 c 12.52766,21.18718 19.26893,45.75837 19.30785,70.37214 0.0393,24.69649 -6.67022,49.37108 -19.21054,70.64705 l 16.50528,20.6021 c 18.03915,-26.75706 27.85425,-58.97938 27.79586,-91.24915 -0.0578,-32.19191 -9.93966,-64.30111 -27.9917,-90.95478 m 32.50088,-40.57653 -16.03453,20.09243 c 23.58591,32.01554 36.61716,71.6749 36.61716,111.43888 0,39.7652 -13.03125,79.42457 -36.61716,111.43889 l 16.13306,20.38679 c 29.29324,-37.22536 45.62214,-84.45679 45.57592,-131.82081 -0.0465,-47.28252 -16.40675,-94.39596 -45.67323,-131.52888"
       style="fill:#0054bc;fill-opacity:1"
       id="path3122"
       inkscape:connector-curvature="0" />
    <text
       xml:space="preserve"
       style="font-size:50px;font-style:normal;font-variant:normal;font-weight:bold;font-stretch:normal;text-align:start;line-height:125%;writing-mode:lr-tb;text-anchor:start;fill:#323232;fill-opacity:1;fill-rule:nonzero;stroke:none;font-family:Montserrat;-inkscape-font-specification:Montserrat Bold"
       x="195.80122"
       y="565.76062"
       id="text3910"
       sodipodi:linespacing="125%"><tspan
         y="565.76062"
         x="195.80122"
         sodipodi:role="line"
         id="tspan3912" /></text>
    <g
       style="font-size:94.49517059px;font-style:normal;font-variant:normal;font-weight:bold;font-stretch:normal;text-align:start;line-height:125%;writing-mode:lr-tb;text-anchor:start;fill:#323232;fill-opacity:1;fill-rule:nonzero;stroke:#000000;stroke-width:24.56874466;stroke-linecap:round;stroke-linejoin:round;stroke-miterlimit:4;stroke-dashoffset:0;stroke-opacity:1;font-family:Montserrat;-inkscape-font-specification:Montserrat Bold"
       id="text3918">
      <path
         d="m 220.99894,539.37685 0,-17.00914 -16.53666,0 0,-11.6229 16.53666,0 0,-17.00913 13.04033,0 0,17.00913 16.53666,0 0,11.6229 -16.53666,0 0,17.00914 -13.04033,0"
         style="stroke:none"
         id="path2993" />
      <path
         d="m 533.90786,498.83842 46.01915,0 0,11.6229 -46.01915,0 0,-11.6229 m 0,23.52929 46.01915,0 0,11.62291 -46.01915,0 0,-11.62291"
         style="stroke:none"
         id="path2995" />
      <path
         d="m 879.88126,539.37685 0,-17.00914 -16.53665,0 0,-11.6229 16.53665,0 0,-17.00913 13.04033,0 0,17.00913 16.53666,0 0,11.6229 -16.53666,0 0,17.00914 -13.04033,0"
         style="stroke:none"
         id="path2997" />
      <path
         d="m 1192.7902,498.83842 46.0191,0 0,11.6229 -46.0191,0 0,-11.6229 m 0,23.52929 46.0191,0 0,11.62291 -46.0191,0 0,-11.62291"
         style="stroke:none"
         id="path2999" />
    </g>
    <path
       inkscape:connector-curvature="0"
       d="m 880.42077,123.98536 c -0.74862,46.71232 -1.13496,70.06058 -1.875,116.75 -2.24729,4.52609 -3.38056,6.78785 -5.625,11.3125 -0.75148,1.49725 -1.12637,2.26683 -1.875,3.78125 -0.74576,-1.51585 -1.12495,-2.25133 -1.875,-3.75 l 0,-11.28125 c -1.50297,-16.52409 -2.2301,-24.76886 -3.71875,-41.25 l 0,7.5 c -0.74863,1.51585 -1.14356,2.26969 -1.875,3.78125 -1.49438,-13.47664 -2.2301,-20.18845 -3.71875,-33.625 l 0,48.71875 c -1.50011,6.02762 -2.25705,9.04776 -3.75,15.0625 -0.74863,0.009 -1.12494,-0.009 -1.875,0 -0.74576,-1.48579 -1.11922,-2.206 -1.875,-3.6875 l 0,-18.6875 c -1.48006,-4.44307 -2.22867,-6.67788 -3.71875,-11.09375 -1.49296,-8.89759 -2.19312,-13.33285 -3.6875,-22.1875 l 0,52.125 c -2.97445,7.51342 -4.48452,11.26688 -7.4375,18.71875 -1.49295,-5.89594 -2.23296,-8.84429 -3.71875,-14.71875 -2.963,-26.53816 -4.41773,-39.7412 -7.375,-65.96875 l 0,11.03125 c -0.72715,13.28768 -1.11231,19.93846 -1.84375,33.1875 -1.47721,10.35332 -2.20743,15.52073 -3.6875,25.8125 -1.4772,-5.80576 -2.22175,-8.70307 -3.6875,-14.46875 -1.47291,-2.85279 -2.21173,-4.30228 -3.6875,-7.125 0,-21.81168 0.0312,-32.69691 0.0312,-54.5 -2.19577,-9.93106 -3.29994,-14.87811 -5.5,-24.6875 l 0,3.625 c -0.73145,26.12019 -1.08821,39.16321 -1.8125,65.1875 -0.73574,-1.39419 -1.1123,-2.08459 -1.84375,-3.46875 -0.72715,1.50297 -1.07676,2.25561 -1.8125,3.75 l 0,14.34375 c -1.46002,4.39869 -2.17642,6.6087 -3.625,10.96875 -0.72715,-1.39419 -1.09824,-2.07457 -1.8125,-3.46875 0,-4.27703 -0.0312,-6.436 -0.0312,-10.71875 -0.72429,-35.62755 -1.08535,-53.39345 -1.8125,-88.875 l 0,7.125 c -1.44715,35.85801 -2.15233,53.6914 -3.59375,89.21875 -1.45144,-2.74399 -2.18072,-4.1 -3.625,-6.8125 -2.16141,-18.16734 -3.22074,-27.18431 -5.375,-45.0625 l 0,10.5 c -0.72143,19.68176 -1.08535,29.49788 -1.8125,49.09375 -2.85707,9.93965 -4.27222,14.86166 -7.125,24.59375 -0.70425,-1.36269 -1.04002,-2.0209 -1.75,-3.375 l 0,-41.28125 c -1.43283,-2.60801 -2.154,-3.90511 -3.5625,-6.46875 l 0,3.40625 c -0.7157,1.43712 -1.04432,2.18358 -1.75,3.625 -0.70568,-1.29399 -1.07557,-1.93479 -1.78125,-3.21875 -1.4085,-17.5046 -2.12561,-26.19891 -3.53125,-43.46875 l 0,10.125 c -1.40563,34.0158 -2.07743,50.91386 -3.46875,84.46875 -0.69853,-1.32977 -1.0572,-1.99847 -1.75,-3.3125 -0.69566,-21.35935 -1.05434,-32.01542 -1.75,-53.21875 -2.77835,-11.59005 -4.17633,-17.28928 -6.9375,-28.5 -1.39275,27.84932 -2.0562,41.67099 -3.4375,69.09375 -0.68421,-1.2582 -1.03454,-1.88398 -1.71875,-3.125 -2.05549,1.44571 -3.07809,2.16522 -5.125,3.59375 -2.03831,-40.84214 -3.0583,-61.0284 -5.09375,-100.78125 -0.66847,1.49009 -1.00758,2.23295 -1.6875,3.71875 l 0,97.53125 c -1.3541,3.87194 -2.04379,5.79195 -3.375,9.59375 -0.68421,-1.21526 -1.00902,-1.82888 -1.6875,-3.03125 l 0,-9.3125 c -0.66131,-7.38316 -0.98922,-11.06198 -1.65625,-18.375 -1.99537,1.51156 -3.01751,2.2685 -5,3.75 -1.98105,-3.38526 -2.95096,-5.05464 -4.90625,-8.3125 l 0,-9 c -1.98106,1.58885 -2.9908,2.38014 -4.9375,3.9375 -1.95672,-24.37388 -2.90563,-36.33014 -4.84375,-59.84375 l 0,8.6875 c -0.64127,8.35795 -0.94962,12.50918 -1.59375,20.78125 -1.2897,-11.10767 -1.93765,-16.59059 -3.21875,-27.40625 l 0,48.375 c -1.2811,4.87392 -1.91642,7.28878 -3.1875,12.0625 -0.62696,0.14027 -0.94103,0.20777 -1.59375,0.34375 l 0,5.59375 c -0.63125,1.24102 -0.92696,1.86132 -1.5625,3.09375 -0.63125,-0.99196 -0.95821,-1.49397 -1.59375,-2.46875 l 0,-27.5625 c -1.25105,-4.00792 -1.88111,-5.98159 -3.125,-9.875 l 0,13.59375 c -1.25104,29.77456 -1.85273,44.46452 -3.09375,73.4375 -1.24675,-0.0129 -1.84295,-0.0226 -3.0625,-0.0312 -2.46487,-20.11833 -3.71596,-29.89226 -6.125,-48.8125 -1.21956,4.39869 -1.80335,6.5653 -3,10.84375 -1.79927,-14.81213 -2.71362,-22.02451 -4.5,-36.09375 l 0,34.53125 c -1.1852,8.15755 -1.76661,12.14567 -2.9375,20.03125 -0.5883,-0.90608 -0.88473,-1.36682 -1.46875,-2.25 0,-9.62617 0,-14.41797 0,-24.03125 -1.16659,0.30918 -1.74681,0.47207 -2.90625,0.78125 -1.1537,-8.17616 -1.75254,-12.19123 -2.90625,-20.0625 -1.14083,21.80738 -1.73847,32.51973 -2.875,53.53125 -1.13653,-7.20423 -1.68455,-10.74402 -2.8125,-17.65625 l 0,6.6875 c -0.56254,1.86798 -0.85373,2.79567 -1.40625,4.625 -0.56684,-0.81446 -0.8523,-1.22967 -1.40625,-2.03125 0,-7.86698 0,-11.78641 0,-19.65625 -1.11506,-1.42854 -1.7003,-2.11321 -2.8125,-3.46875 l 0,-10.71875 c -1.11363,-7.25577 -1.62945,-10.78815 -2.71875,-17.6875 -1.10504,26.58683 -1.66929,39.5726 -2.75,65 -1.085,-8.14037 -1.63805,-12.087 -2.71875,-19.84375 -1.07212,1.83791 -1.59416,2.72793 -2.65625,4.5 -0.53249,-0.68421 -0.78145,-1.03621 -1.3125,-1.6875 l 0,-7.6875 c -1.58885,-2.62519 -2.3873,-3.8994 -3.9375,-6.28125 -1.03634,-15.16998 -1.5703,-22.52832 -2.59375,-36.84375 -0.51387,24.19496 -0.77597,36.12689 -1.28125,59.65625 -0.50958,-0.62695 -0.7533,-0.94843 -1.25,-1.5625 -1.02345,-20.1398 -1.53929,-29.91491 -2.53125,-48.84375 -0.99196,-1.26679 -1.50804,-1.88064 -2.5,-3 l 0,28 c -0.99339,5.76711 -1.48967,8.56926 -2.46875,14 -1.46718,-1.40993 -2.17928,-2.0617 -3.625,-3.28125 l 0,-10.625 c -0.95331,-8.52255 -1.42169,-12.62587 -2.375,-20.5 -0.93184,24.82191 -1.4162,36.78986 -2.34375,59.8125 -0.47093,0 -0.68532,0.004 -1.15625,0 -0.46091,-0.54966 -0.70249,-0.83966 -1.15625,-1.375 l 0,-1.34375 c -0.45232,-1.60746 -0.6939,-2.37465 -1.15625,-3.90625 -0.90607,-5.71844 -1.34965,-8.44309 -2.25,-13.65625 -0.89748,-0.64842 -1.33129,-0.93746 -2.21875,-1.5 -0.88031,1.37128 -1.31292,2.02854 -2.1875,3.3125 -0.43085,-0.28341 -0.66862,-0.43415 -1.09375,-0.6875 l 0,-6.71875 c -0.86599,-0.81447 -1.31173,-1.18101 -2.15625,-1.84375 l 0,69.96875 c 0.42226,0.053 0.63594,0.0594 1.0625,0.0937 0.85884,-5.16878 1.30719,-7.90989 2.1875,-13.75 0.87029,-0.3192 1.29431,-0.51094 2.1875,-0.9375 0.88318,0.54966 1.32126,0.83965 2.21875,1.375 0.90035,-9.06792 1.33963,-13.85162 2.25,-23.78125 1.37557,-1.43426 2.06455,-2.17498 3.46875,-3.8125 0.46664,0.57972 0.71657,0.85468 1.1875,1.46875 0,7.43469 -0.0312,11.14761 -0.0312,18.59375 0.94186,15.23726 1.43601,23.16462 2.375,39.53125 l 0,-1.5 c 0.95045,-10.41774 1.44292,-15.84152 2.40625,-27.09375 0.9619,2.31314 1.46987,3.51271 2.4375,5.9375 0.4924,-0.37789 0.73065,-0.56795 1.21875,-0.96875 0.98767,12.16834 1.4682,18.42966 2.46875,31.34375 0.98767,-13.85595 1.4837,-20.99918 2.5,-35.78125 1.00198,-9.25973 1.50637,-14.04128 2.53125,-23.875 0.50529,0.77582 0.76738,1.14879 1.28125,1.9375 0.50958,25.29284 0.78575,38.12648 1.3125,64.125 l 0,-5.5 c 0.50815,-4.72505 0.75879,-7.13324 1.28125,-12 0.51817,0.30918 0.78431,0.46777 1.3125,0.78125 l 0,-5.625 c 0.51674,-1.22242 0.78432,-1.82553 1.3125,-3.09375 1.04493,-7.07827 1.58557,-10.73539 2.65625,-18.21875 1.05781,2.66956 1.58413,4.01006 2.65625,6.78125 1.08071,-12.4174 1.60823,-18.77817 2.6875,-31.8125 0.54966,0.84882 0.82534,1.28596 1.375,2.15625 0.54393,26.54246 0.81389,39.94725 1.375,67.09375 1.63036,-9.03213 2.45169,-13.69706 4.125,-23.40625 1.11076,-9.93391 1.68027,-15.03575 2.8125,-25.40625 1.13224,3.75743 1.67168,5.66909 2.8125,9.5625 l 0,-6.75 c 0.55825,-7.08973 0.8721,-10.67625 1.4375,-17.90625 0.57543,0.95903 0.83942,1.4527 1.40625,2.4375 0,2.75688 0,4.12384 0,6.875 0.56969,22.1409 0.86781,33.32043 1.4375,55.875 1.15371,-6.8335 1.75254,-10.34467 2.90625,-17.46875 0.57972,1.16659 0.85492,1.76089 1.4375,2.9375 0.5926,0.23046 0.88617,0.3392 1.46875,0.5625 0.58831,-13.23616 0.88044,-19.92246 1.46875,-33.40625 0.57971,1.07498 0.87758,1.63518 1.46875,2.71875 1.1809,27.62316 1.78928,41.65397 2.96875,70.1875 l 0,-7.46875 c 0.60548,-12.61636 0.89452,-18.98143 1.5,-31.8125 2.39044,-2.18575 3.5993,-3.32831 6.03125,-5.71875 0.59975,-11.21216 0.90025,-16.86465 1.5,-28.25 1.22385,-10.24883 1.83865,-15.4334 3.0625,-26 1.22814,0.0315 1.86131,0.0396 3.09375,0.0625 0.62265,1.08357 0.93984,1.61228 1.5625,2.71875 1.24961,36.77697 1.87396,55.4398 3.125,93.21875 0,-3.28506 0,-4.93369 0,-8.21875 1.25391,-8.2735 1.87825,-12.48173 3.125,-21 1.26679,4.80808 1.88946,7.24798 3.15625,12.15625 l 0,-5.59375 c 0.63554,-0.93041 0.95248,-1.42885 1.59375,-2.375 1.27251,17.33855 1.90783,26.12277 3.1875,43.875 l 0,-8.59375 c 0.64413,-5.46938 0.98087,-8.21477 1.625,-13.75 0.64413,1.37558 0.95248,2.07027 1.59375,3.46875 l 0,5.8125 c 1.93811,-22.44293 2.91827,-33.86618 4.875,-57.125 1.9467,9.75642 2.92376,14.69298 4.90625,24.75 l 0,-8.96875 c 1.29828,-2.12563 1.95434,-3.19641 3.28125,-5.375 0.65844,0.1188 0.96799,0.16388 1.625,0.28125 1.99537,1.58027 3.00606,2.36272 5,3.96875 l 0,-3.0625 c 1.34266,-14.5917 2.02519,-21.97437 3.375,-36.84375 0.65415,1.28969 0.98206,1.94742 1.65625,3.25 0.67562,38.87683 1.00472,58.39461 1.6875,97.625 1.33406,2.97015 2.02233,4.46281 3.375,7.46875 0.67706,-25.16258 1.02452,-37.80734 1.71875,-63.1875 1.36269,-12.5133 2.03927,-18.81731 3.40625,-31.5625 0.68851,1.34838 0.99899,2.02089 1.6875,3.375 0.68278,0.0744 1.03024,0.12595 1.71875,0.1875 l 0,-6.5 c 0.68564,-1.2353 1.03025,-1.87395 1.71875,-3.125 0.69709,1.35125 1.02595,2.04356 1.71875,3.40625 l 0,81.65625 c 1.37271,5.59535 2.05333,8.39988 3.4375,14.0625 0,-10.53081 0.0312,-15.78455 0.0312,-26.3125 2.06552,-2.15855 3.10051,-3.28825 5.1875,-5.53125 1.40563,-33.00237 2.0958,-49.61902 3.5,-83.09375 0.69566,1.3627 1.03573,2.03783 1.75,3.40625 0,9.42148 -0.0312,14.13673 -0.0312,23.5625 1.40563,35.09221 2.13278,52.75508 3.53125,88.3125 l 0,-10.15625 c 0.70568,-9.32415 1.04432,-13.98358 1.75,-23.375 2.11275,-5.06573 3.17256,-7.66637 5.3125,-12.84375 1.40563,-20.36739 2.11703,-30.59513 3.53125,-51.21875 0.7157,0.0429 1.06555,0.0537 1.78125,0.0937 0.70425,1.41995 1.07127,2.12967 1.78125,3.5625 0.71427,-1.34838 1.10252,-2.01517 1.8125,-3.375 0.71426,1.43426 1.06698,2.15233 1.78125,3.59375 l 0,6.96875 c 1.43712,33.60356 2.15519,50.49184 3.59375,84.4375 l 0,-10.53125 c 1.4271,-18.00129 2.1311,-27.05834 3.5625,-45.25 2.17143,4.44306 3.26463,6.68574 5.4375,11.1875 l 0,10.65625 c 1.44142,21.49534 2.17356,32.28733 3.625,53.96875 0.71427,-35.55455 1.08391,-53.35193 1.8125,-89.0625 1.44714,18.69695 2.16497,28.08739 3.625,46.9375 l 0,-21.5625 c 1.4586,-4.16823 2.18764,-6.25757 3.65625,-10.46875 1.45574,27.53155 2.18334,41.35894 3.65625,69.09375 l 0,-10.875 c 0.73574,-5.69411 1.07676,-8.54014 1.8125,-14.25 2.19148,-28.76399 3.29707,-43.22931 5.5,-72.3125 1.46432,10.27888 2.2103,15.44654 3.6875,25.78125 1.48007,5.94461 2.21029,8.93015 3.6875,14.90625 1.47147,10.38767 2.21459,15.59777 3.6875,26.03125 0,-1.47291 0,-2.21745 0,-3.6875 0.73145,-1.41566 1.10801,-2.11417 1.84375,-3.53125 1.48579,-16.09753 2.20028,-24.20709 3.6875,-40.40625 1.4858,-8.81027 2.22436,-13.20643 3.71875,-22.0625 0.73144,1.50726 1.12637,2.23844 1.875,3.75 1.47863,-2.92578 2.20744,-4.36811 3.6875,-7.3125 0.75435,1.50297 1.12637,2.24703 1.875,3.75 0.74862,34.27344 1.09943,51.415 1.84375,85.75 l 0,-22.34375 c 2.22869,-5.84154 3.37508,-8.7689 5.59375,-14.65625 l 0,-44.84375 c 1.50011,-2.95727 2.22007,-4.43323 3.71875,-7.40625 0.74719,1.51156 1.11922,2.24703 1.875,3.75 1.48866,34.49532 2.2258,51.77257 3.71875,86.34375 l 0,-11.25 c 1.49295,-2.94153 2.25562,-4.40913 3.75,-7.375 0.74576,0.0258 1.12924,0.0496 1.875,0.0625 1.49295,-30.00502 2.25562,-45.05558 3.75,-75.125 1.49724,4.52895 2.22437,6.78355 3.71875,11.3125 l 0,-7.53125 c 0.75005,-1.49438 1.12924,-2.2456 1.875,-3.75 0.74719,1.50727 1.11922,2.26969 1.875,3.78125 l 0,105.4375 c 1.49868,4.53897 2.2456,6.80478 3.75,11.34375 l 0,-11.28125 c 0.74004,-4.5175 1.12924,-6.76947 1.875,-11.28125 2.23871,-21.08166 3.38342,-31.65688 5.625,-52.75 1.49008,4.52037 2.2258,6.795 3.71875,11.3125 l 0,-11.3125 c 0.75435,-1.5087 1.12638,-2.27828 1.875,-3.78125 1.49295,31.62965 2.25705,47.46005 3.75,79.0625 0.74147,-1.52158 1.12924,-2.29378 1.875,-3.8125 l 0,-67.78125 c 1.49867,-6.03765 2.24846,-9.05753 3.75,-15.09375 0.74433,-0.0143 1.12781,-0.0226 1.875,-0.0312 1.49581,-6.04624 2.2258,-9.06183 3.71875,-15.09375 0.74432,1.49009 1.12781,2.26135 1.875,3.75 l 0,97.625 c 1.49581,-0.0701 2.25132,-0.11307 3.75,-0.1875 0,-10.50935 0,-15.74066 0,-26.25 1.49295,-4.5676 2.2258,-6.84867 3.71875,-11.40625 0.74862,-21.01725 1.12495,-31.52282 1.875,-52.5 0.74863,1.47721 1.12781,2.21746 1.875,3.6875 0.74146,-0.0272 1.10801,-0.0368 1.84375,-0.0625 l 0,-11.21875 c 0.74862,-4.50033 1.12781,-6.72416 1.875,-11.21875 0.7386,-0.0215 1.10229,-0.0468 1.84375,-0.0625 0.74147,1.47148 1.1278,2.21602 1.875,3.6875 1.49008,29.77027 2.22294,44.62979 3.71875,74.28125 0.74433,-1.54734 1.10801,-2.32765 1.84375,-3.875 l 0,-7.40625 c 0.74146,-37.20067 1.12781,-55.78431 1.875,-92.90625 0.73002,1.47721 1.10085,2.21602 1.84375,3.6875 0.74862,-1.49008 1.13353,-2.2301 1.875,-3.71875 0.74146,-0.0143 1.10801,-0.0183 1.84375,-0.0312 1.48436,31.03705 2.206,46.50685 3.6875,77.375 l 0,-11.0625 c 0.74863,-2.99735 1.12208,-4.50981 1.875,-7.5 1.47291,29.36375 2.206,44.01127 3.6875,73.1875 1.46433,-20.74099 2.18048,-31.05959 3.65625,-51.6875 1.47291,-14.76489 2.2289,-22.14351 3.6875,-36.8125 1.47577,14.49436 2.21459,21.70102 3.6875,36.09375 1.46718,20.20565 2.16211,30.29413 3.625,50.34375 0.73574,-0.11737 1.12089,-0.17246 1.84375,-0.28125 2.4205,-48.21672 4.84358,-96.42403 7.28125,-144.625 0.73275,-0.004 1.08525,0.005 1.81245,0 0.7357,1.41995 1.1182,2.1156 1.8438,3.53125 0.73,7.12981 1.0824,10.6858 1.8124,17.78125 0.7243,35.57602 1.0853,53.34002 1.8126,88.75 2.1729,-17.37577 3.2562,-26.01237 5.4062,-43.15625 1.4429,29.47968 2.1625,44.14771 3.5938,73.3125 l 0,-10.53125 c 0.7156,-8.5612 1.0656,-12.81833 1.7812,-21.34375 1.4315,-10.03841 2.1652,-15.02767 3.5938,-24.96875 0.7241,1.29256 1.0684,1.92906 1.78123,3.21875 l 0,13.875 c 2.1385,3.79321 3.2153,5.70465 5.3439,9.40625 1.4284,10.73693 2.1126,16.03694 3.5311,26.625 0.7073,-0.18178 1.0714,-0.25857 1.7812,-0.4375 l 0,-34.0625 c 1.4142,-8.44812 2.0886,-12.68618 3.5,-21.03125 0.71,1.24103 1.053,1.87133 1.75,3.09375 0.71,-1.46719 1.0871,-2.19192 1.7813,-3.65625 l 0,-6.75 c 1.4085,-9.63762 2.0717,-14.40747 3.4687,-23.90625 1.4013,25.227 2.1117,37.74178 3.5,62.59375 l 0,-3.3125 c 0.6901,-24.04466 1.0232,-35.99781 1.7188,-59.875 0.7014,-0.0744 1.0487,-0.14432 1.75,-0.21875 0.6901,1.23243 1.0487,1.84295 1.75,3.0625 l 0,42.65625 c 1.367,14.12077 2.0591,21.11685 3.4375,35 0.2934,-7.72956 0.586,-14.84183 0.8437,-21.59375 l 0,-0.78125 c 1.5215,-38.7813 2.5376,-64.24851 4.2813,-107.84375 0.6856,1.2854 1.0033,1.91498 1.6875,3.1875 1.3526,29.41241 2.0564,43.99626 3.4062,72.90625 l 0,-6.34375 c 0.6772,-1.40278 1.0075,-2.07886 1.6876,-3.46875 0.6656,1.13653 1.019,1.69172 1.6874,2.8125 0,22.64475 10e-5,33.97881 0,56.625 1.3499,-0.47379 2.0381,-0.70798 3.375,-1.1875 l 0,-9.34375 c 0.6801,-11.44977 0.9821,-17.15901 1.6563,-28.5 2.0011,-34.02152 3.0133,-50.78127 5,-83.84375 0.6713,1.20667 0.9936,1.77639 1.6564,2.96875 1.3312,43.75934 2.0071,65.42369 3.3124,108.28125 1.3141,-10.12573 1.9701,-15.13144 3.2813,-25.0625 1.3111,-34.96052 1.9474,-52.25685 3.25,-86.46875 0.6427,1.16802 0.9737,1.72559 1.625,2.875 0,10.54083 0,15.82128 0,26.375 1.3083,10.38337 1.9531,15.51191 3.25,25.65625 l 0,-2.90625 c 0.6341,-16.36377 0.951,-24.48286 1.5937,-40.65625 2.5751,4.43018 3.8699,6.58152 6.4063,10.78125 0.6313,34.78159 0.9341,52.07268 1.5625,86.40625 1.8895,-0.8846 2.8364,-1.34249 4.7188,-2.25 l 0,-46.5625 c 1.2438,-3.65007 1.8896,-5.44154 3.125,-9 0.6268,0.91609 0.9356,1.37088 1.5624,2.28125 l 0,50.96875 c 3.089,-1.5545 4.6231,-2.34411 7.6563,-3.96875 l 0,-7.75 c 0.6097,-1.34408 0.9244,-2.01255 1.5313,-3.34375 0.604,-0.28628 0.8987,-0.44941 1.5,-0.75 l 0,-7.625 c 0.6012,-3.3323 0.9017,-4.98903 1.5,-8.28125 1.2052,3.54701 1.8061,5.26097 3,8.65625 1.1851,-10.5351 1.7835,-15.6975 2.9687,-25.90625 0.5926,0.77582 0.8762,1.15763 1.4687,1.90625 l 0,26.6875 c 2.3548,1.65327 3.5321,2.40973 5.8438,3.8125 l 0,-7 c 0.5782,-1.2582 0.8635,-1.91093 1.4375,-3.15625 0.5697,-13.302 0.8365,-19.88027 1.4063,-32.9375 1.1521,-2.23012 1.7427,-3.34002 2.875,-5.5 0.5697,-0.18751 0.8535,-0.28983 1.4374,-0.46875 l 0,-6.6875 c 0.5511,-2.83131 0.8126,-4.22309 1.375,-7 1.1208,1.50726 1.6888,2.23344 2.8126,3.65625 l 0,-6.46875 c 0.5596,-2.72252 0.8209,-4.09332 1.375,-6.75 0.5568,0.7615 0.8267,1.12925 1.375,1.875 0.5568,25.29714 0.8666,37.82933 1.4062,62.5625 1.6461,-2.83417 2.4479,-4.25172 4.0625,-7 l 0,-6.0625 c 0.5368,-21.38083 0.8185,-31.95962 1.3437,-52.84375 1.0851,5.39781 1.6225,7.99629 2.6876,13.125 0,-2.34463 0,-3.50913 0,-5.84375 0.5309,-0.92468 0.7786,-1.37518 1.3124,-2.28125 0.531,0.63983 0.79,0.947 1.3126,1.5625 0.528,15.83988 0.8127,23.64489 1.3437,39.0625 l 0,-5.625 c 0.5196,-4.82954 0.7588,-7.20267 1.2813,-11.90625 1.0378,-9.42148 1.5645,-14.03109 2.5937,-22.96875 1.5431,7.48622 2.2952,11.06869 3.8125,17.875 l 0,-1.71875 c 1.0063,-12.92841 1.508,-19.2236 2.5,-31.40625 0.5067,0.60405 0.7576,0.89476 1.25,1.46875 0.501,-0.0744 0.7278,-0.10448 1.2188,-0.1875 l 0,-1.625 c 0.5009,-0.71427 0.7476,-1.05004 1.25,-1.75 0.4724,0.57972 0.7234,0.84943 1.2187,1.40625 0.4867,14.98389 0.7094,22.35106 1.1875,36.8125 0.4953,-0.3235 0.732,-0.47755 1.2188,-0.8125 l 0,-4.5625 c 1.4284,-3.3137 2.1241,-4.8941 3.5312,-7.96875 0.9361,9.7965 1.4205,14.48529 2.3438,23.46875 0,-1.64897 -10e-5,-2.46601 0,-4.125 0.9331,-15.16998 1.3993,-22.48373 2.3124,-36.5 0.4524,-0.14028 0.6784,-0.20347 1.125,-0.34375 l 0,-3.875 c 0.4523,-1.14512 0.6728,-1.71462 1.125,-2.8125 0.4466,0.41797 0.6899,0.63618 1.125,1.03125 l 0,40.75 c 0.8917,-0.95045 1.3244,-1.41167 2.1876,-2.375 l 0,-1.1875 c 0.8918,-17.90109 1.3244,-26.44135 2.1874,-42.65625 0.4223,0.38791 0.6403,0.59372 1.0626,0.96875 l 0,3.25 c 0.4308,-0.10593 0.6571,-0.14551 1.0937,-0.25 l 0,-13.78125 c -0.4437,-0.11451 -0.6644,-0.13024 -1.0937,-0.1875 l 0,0.0625 c -0.4223,0.37789 -0.6402,0.59492 -1.0626,1 -0.428,-0.48811 -0.6628,-0.74472 -1.0937,-1.25 -0.8746,-17.1038 -1.3043,-26.09049 -2.1875,-44.90625 -0.4451,0 -0.6501,0.007 -1.0938,0.0312 -0.4365,16.33371 -0.6785,24.69438 -1.125,41.8125 -0.906,-2.67958 -1.3382,-4.06301 -2.25,-6.96875 -0.4522,-0.65272 -0.7024,-0.97634 -1.1562,-1.65625 0,-1.61605 0,-2.43643 0,-4.0625 -0.9089,-13.28769 -1.3936,-20.20555 -2.3125,-34.5625 l 0,29.5 c -1.4057,1.63323 -2.0999,2.50249 -3.5313,4.40625 -0.9503,-6.26667 -1.4471,-9.50143 -2.4062,-16.1875 l 0,1.53125 c -0.9705,11.20214 -1.44,17.02443 -2.4062,29.0625 -0.982,-2.64809 -1.4697,-4.02962 -2.4688,-6.84375 l 0,3.28125 c -0.4924,0.5883 -0.7576,0.89023 -1.25,1.5 -0.501,-0.72715 -0.749,-1.09083 -1.25,-1.84375 l 0,-8.5 c -0.9862,-2.95155 -1.5251,-4.48045 -2.5312,-7.59375 l 0,5.25 c -0.5082,2.67815 -0.7433,4.05562 -1.25,6.8125 -0.5082,-0.79729 -0.7631,-1.21249 -1.2813,-2.03125 -0.511,-6.58587 -0.7588,-9.93129 -1.2813,-16.6875 -1.5516,-0.55825 -2.3586,-0.82678 -3.9374,-1.375 l 0,5.71875 c -0.5226,1.37701 -0.7814,2.05596 -1.3126,3.46875 -1.0478,-0.27053 -1.5941,-0.38715 -2.6562,-0.65625 l 0,3.9375 c -0.5368,0.67992 -0.7985,1.01736 -1.3438,1.71875 -0.531,-0.90608 -0.8069,-1.33104 -1.3437,-2.25 l 0,-28.34375 c -1.616,-12.86543 -2.4164,-19.52025 -4.0625,-33.21875 l -10e-5,6.28125 c -1.0965,21.08024 -1.6763,31.87271 -2.7812,53.90625 -1.0995,-4.4946 -1.6576,-6.76112 -2.7813,-11.4375 0,2.62518 0,3.94733 0,6.5625 -0.5539,0.75721 -0.8154,1.1135 -1.375,1.875 -1.1208,-2.87425 -1.7057,-4.30108 -2.8437,-7.28125 -0.5654,0.75721 -0.8736,1.12757 -1.4376,1.90625 -0.5697,-1.02775 -0.8308,-1.53881 -1.4062,-2.59375 l 0,-29.875 c -1.7105,-5.34771 -2.5947,-8.06806 -4.3438,-13.65625 l 0,7.09375 c -0.5697,4.45595 -0.8577,6.69815 -1.4374,11.25 -1.1709,-6.15073 -1.7553,-9.28676 -2.9376,-15.625 l 0,2.4375 c -0.5925,13.32348 -0.8761,20.03552 -1.4687,33.59375 -0.5926,-1.11506 -0.9131,-1.67883 -1.5,-2.8125 l 0,-17.25 c -1.1823,-4.34716 -1.7692,-6.56385 -2.9687,-11.03125 l 0,5 c -0.5955,0.79299 -0.9046,1.19556 -1.5,2 -0.5985,-1.21526 -0.8988,-1.83006 -1.5,-3.0625 l 0,-5.09375 c -2.4077,-3.97643 -3.6191,-6.004 -6.0626,-10.125 -1.2237,-10.98886 -1.8555,-16.56002 -3.0937,-27.84375 -1.2238,19.61591 -1.8499,29.58133 -3.0937,49.78125 -0.6127,-0.16461 -0.9058,-0.23591 -1.5313,-0.40625 -0.6241,-1.24961 -0.9384,-1.88803 -1.5625,-3.15625 l 0,-41.09375 c -1.2553,-3.85046 -1.9051,-5.79528 -3.1562,-9.71875 -0.6313,0.81447 -0.9597,1.22943 -1.5938,2.0625 -0.6284,33.2228 -0.9412,49.96562 -1.5625,83.625 -2.5464,6.4456 -3.8312,9.74498 -6.4063,16.53125 -1.291,-10.42775 -1.939,-15.7125 -3.2187,-26.375 l 0,8.75 c -1.2911,9.1853 -1.9432,13.82447 -3.25,23.21875 -0.6542,-1.19379 -0.9594,-1.79332 -1.625,-3 -0.637,-28.47627 -0.9709,-42.78562 -1.625,-71.5625 -1.3112,-5.12298 -1.9672,-7.69309 -3.2813,-12.90625 -0.6569,21.47816 -0.9949,32.29711 -1.6562,54 -1.3226,14.35122 -1.9927,21.59389 -3.3125,36.25 -0.6656,-1.23244 -0.9964,-1.84843 -1.6563,-3.09375 -1.3426,-34.43949 -1.9896,-51.8324 -3.3437,-86.9375 -1.337,-14.00339 -1.994,-21.05862 -3.3437,-35.3125 -0.6657,1.01916 -1.0106,1.50636 -1.6876,2.53125 -0.6771,27.45712 -1.0219,41.24134 -1.6874,68.9375 -0.68,-0.1002 -1.0106,-0.14408 -1.6876,-0.25 -2.0326,22.54026 -3.0497,33.96232 -5.0937,57.09375 -0.6928,-1.28397 -1.0344,-1.91617 -1.7187,-3.21875 -0.687,-32.28809 -1.026,-48.48836 -1.7188,-81.03125 -0.3055,-0.65664 -0.5832,-1.24909 -0.8438,-1.78125 0,-0.008 0,-0.0236 0,-0.0312 -0.01,-0.0133 -0.025,-0.018 -0.031,-0.0312 -0.7939,-1.79114 -1.477,-3.19962 -2.5,-5.40625 l -0.062,0 0,3.28125 c -1.3813,18.01131 -2.0619,27.11296 -3.4375,45.40625 -0.7014,-0.0644 -1.0486,-0.0961 -1.75,-0.15625 -1.3899,-17.31708 -2.0645,-26.06029 -3.4688,-43.625 l 0,10 c -0.6899,7.86555 -1.0556,11.84128 -1.75,19.78125 -2.784,-1.67187 -4.1901,-2.50704 -7,-4.1875 -0.7041,1.27251 -1.0399,1.9064 -1.75,3.1875 -0.7099,-1.43283 -1.0529,-2.18644 -1.75,-3.625 -0.71,-30.07372 -1.0741,-45.14502 -1.7812,-75.40625 l 0,6.84375 c -2.1185,15.92004 -3.1826,23.95542 -5.3125,40.1875 -0.71,-1.49008 -1.0827,-2.2258 -1.7813,-3.71875 -1.4228,6.70324 -2.1282,10.08873 -3.56243,16.875 -1.4286,-5.74564 -2.1624,-8.63604 -3.5938,-14.4375 -1.4343,-8.59699 -2.1595,-12.9166 -3.5938,-21.59375 -0.7242,19.58299 -1.054,29.41057 -1.7812,49.09375 -1.4457,-10.00119 -2.1679,-15.05485 -3.625,-25.15625 -0.7215,-0.083 -1.0626,-0.13572 -1.7812,-0.21875 l 0,10.6875 c -0.7271,21.23769 -1.0883,31.878 -1.8126,53.21875 -1.4514,11.34241 -2.1991,17.02757 -3.6562,28.46875 -0.7272,0.004 -1.0627,0 -1.78125,0 -0.7386,-1.42567 -1.10944,-2.12394 -1.84375,-3.5625 l 0,-3.59375 c -0.72715,-21.55975 -1.0782,-32.35723 -1.8125,-54 -2.17573,-15.98445 -3.27155,-24.05538 -5.46875,-40.21875 -0.72715,1.37128 -1.11231,2.09174 -1.84375,3.46875 -1.46432,-10.29606 -2.19336,-15.47755 -3.65625,-25.84375 -0.7386,29.04311 -1.10801,43.6024 -1.84375,72.75 -0.73001,-0.0343 -1.10372,-0.0594 -1.84375,-0.0937 l -1.84375,-3.75 c -0.73574,-24.91782 -1.07247,-37.41113 -1.8125,-62.40625 -1.47577,-13.34065 -2.22032,-20.03244 -3.6875,-33.4375 -0.74863,32.2652 -1.1166,48.44711 -1.84375,80.8125 -1.48437,-0.0787 -2.24297,-0.14432 -3.71875,-0.21875 -0.74862,20.64079 -1.0937,30.99089 -1.84375,51.6875 -2.22297,-1.50583 -3.32808,-2.26683 -5.5625,-3.78125 -1.4815,-31.18163 -2.24298,-46.8272 -3.71875,-78.15625 -0.74862,-0.0387 -1.0937,-0.0537 -1.84375,-0.0937 0,20.84405 0,31.28381 0,52.125 -1.49581,4.43305 -2.26421,6.64209 -3.75,11.09375 -2.23442,-3.02312 -3.32379,-4.52793 -5.5625,-7.5625 l 0,3.71875 c -0.74862,1.48436 -1.12495,2.23438 -1.875,3.71875 -0.74863,-1.50584 -1.12494,-2.24703 -1.875,-3.75 -0.74862,-31.48652 -1.12781,-47.23343 -1.875,-78.75 -1.49868,-15.0569 -2.2258,-22.60483 -3.71875,-37.6875 -0.74862,1.46289 -1.12495,2.18334 -1.875,3.65625 -0.74576,46.5291 -1.13068,69.82849 -1.875,116.40625 -0.74863,-1.50726 -1.09369,-2.27542 -1.84375,-3.78125 l 0,-7.5 c -2.24443,-3.0317 -3.38343,-4.56204 -5.625,-7.59375 -1.49582,-40.66322 -2.25419,-60.99422 -3.75,-101.6875 -0.74433,1.48579 -1.12781,2.22437 -1.875,3.71875 -0.75721,37.65299 -1.1278,56.49038 -1.875,94.15625 -1.49867,-4.52609 -2.23988,-6.79214 -3.75,-11.3125 -0.74576,1.50726 -1.09369,2.24274 -1.84375,3.75 -0.74576,-1.50726 -1.15762,-2.23844 -1.90625,-3.75 -1.49581,-16.57132 -2.22007,-24.86474 -3.71875,-41.4375 -1.50154,-18.07142 -2.24846,-27.10343 -3.75,-45.15625 z"
       id="path3986"
       style="fill:#dc2400;fill-opacity:1" />
    <path
       style="fill:#0054bc;fill-opacity:1;fill-rule:nonzero;stroke:none"
       d="m 609.07524,654.65317 c 0.24474,0.17196 0.42286,0.31189 0.7157,0.5214 0.26887,-0.20493 0.46914,-0.36379 0.67097,-0.5214 l -1.38667,0 z m 367.86983,0.7135 c -0.73855,0.87463 -1.09963,1.31281 -1.83393,2.19534 l 0,2.19535 c -0.72715,13.22654 -1.09968,19.8723 -1.83399,33.1498 -2.17572,9.80619 -3.26001,14.72683 -5.45721,24.6428 -0.72715,-0.84126 -1.10254,-1.26826 -1.83398,-2.11302 -1.46432,6.31646 -2.20507,9.50191 -3.66796,15.86141 -0.73861,-17.81747 -1.09825,-26.73893 -1.83399,-44.6205 -0.73001,0.021 -1.09394,0.0338 -1.83398,0.0548 l -1.83398,2.27767 c -0.73574,15.28666 -1.09395,22.94734 -1.83398,38.28142 -1.47577,8.18426 -2.20078,12.30274 -3.66796,20.52652 -0.74863,-19.79416 -1.15157,-29.70441 -1.87872,-49.56003 -1.48436,0.0482 -2.19219,0.0641 -3.66796,0.10979 -0.74862,-12.6628 -1.12866,-18.99835 -1.87871,-31.69539 -2.22297,0.92382 -3.31226,1.37605 -5.54668,2.30513 -1.4815,19.12941 -2.23692,28.72111 -3.71269,47.94096 -0.74863,0.0238 -1.12866,0.0577 -1.87872,0.0823 l 0,-31.96978 c -1.49581,-2.71961 -2.2269,-4.10201 -3.71269,-6.83302 -2.23442,1.85462 -3.3527,2.80345 -5.59141,4.66512 l 0,-2.30513 c -0.74862,-0.91063 -1.12866,-1.36705 -1.87871,-2.27767 -0.74862,0.92379 -1.08393,1.38307 -1.83398,2.30511 -0.74863,19.31645 -1.13153,28.99026 -1.87872,48.32515 -1.49867,9.23715 -2.26447,13.85309 -3.75742,23.10605 -0.74862,-0.89746 -1.08393,-1.34662 -1.83398,-2.25024 -0.74576,-28.54479 -1.13439,-42.82907 -1.87872,-71.40375 -0.74862,0.92468 -1.12866,1.38131 -1.87871,2.30512 l 0,4.61023 c -2.24443,1.8599 -3.34983,2.80523 -5.59141,4.66512 -1.49581,24.9462 -2.26161,37.41075 -3.75742,62.37539 -0.74433,-0.91152 -1.13152,-1.36091 -1.87872,-2.27768 -0.75721,-23.09948 -1.13152,-34.65778 -1.87871,-57.76514 -1.49867,2.77667 -2.2473,4.16962 -3.75742,6.94279 -0.74576,-0.92467 -1.08393,-1.38043 -1.83399,-2.30511 -0.74576,0.92467 -1.13009,1.37779 -1.87871,2.30511 -1.49581,10.16623 -2.25875,15.27152 -3.75742,25.43862 -1.50154,11.08651 -2.25589,16.61374 -3.75743,27.68885 1.50154,11.0751 2.25589,16.60234 3.75743,27.68885 1.49867,10.1671 2.26161,15.27239 3.75742,25.43861 0.74862,0.92732 1.13295,1.38045 1.87871,2.30512 0.75006,-0.92466 1.08823,-1.38042 1.83399,-2.30512 1.51012,2.77317 2.25875,4.16612 3.75742,6.9428 0.74719,-23.10737 1.1215,-34.66567 1.87871,-57.76514 0.7472,-0.91678 1.13439,-1.36617 1.87872,-2.27768 1.49581,24.96463 2.26161,37.42918 3.75742,62.37538 2.24158,1.85989 3.34698,2.80522 5.59141,4.66511 l 0,4.61024 c 0.75005,0.92381 1.13009,1.38044 1.87871,2.30512 0.74433,-28.57468 1.13296,-42.85893 1.87872,-71.40374 0.75005,-0.90361 1.08536,-1.35277 1.83398,-2.25023 1.49295,9.25296 2.25875,13.86889 3.75742,23.10605 0.74719,19.33488 1.13009,29.0087 1.87872,48.32515 0.75005,0.92203 1.08536,1.3813 1.83398,2.30511 0.75005,-0.91063 1.13009,-1.36705 1.87871,-2.27767 l 0,-2.30513 c 2.23871,1.86166 3.35699,2.8105 5.59141,4.66512 1.48579,-2.73101 2.21688,-4.11343 3.71269,-6.83302 l 0,-31.96978 c 0.75006,0.0246 1.13009,0.0587 1.87872,0.0823 1.47577,19.21985 2.23119,28.81156 3.71269,47.94095 2.23442,0.92908 3.32371,1.38132 5.54668,2.30513 0.75005,-12.69703 1.13009,-19.03259 1.87871,-31.69537 1.47577,0.0457 2.1836,0.0614 3.66796,0.10979 0.72715,-19.85563 1.13009,-29.76589 1.87872,-49.56003 1.46718,8.22378 2.19219,12.34226 3.66796,20.52652 0.74003,15.33408 1.09824,22.99476 1.83398,38.28141 l 1.83398,2.27767 c 0.74004,0.021 1.10397,0.0338 1.83398,0.055 0.73574,-17.88157 1.09538,-26.80303 1.83399,-44.6205 1.46289,6.3595 2.20364,9.54495 3.66796,15.86141 0.73144,-0.84477 1.10683,-1.27176 1.83398,-2.11302 2.1972,9.91595 3.28149,14.83661 5.45721,24.6428 0.73431,13.27747 1.10684,19.92323 1.83399,33.14979 l 0,2.19535 c 0.7343,0.88253 1.09538,1.32071 1.83393,2.19534 0.7186,0 1.0621,0.003 1.7893,0 1.4572,-7.01897 2.2165,-10.52208 3.668,-17.48048 0.7242,-13.09219 1.0621,-19.62686 1.7892,-32.65582 l 0,-6.53117 c 0.7186,0.051 1.0678,0.0863 1.7893,0.13727 1.4571,6.19704 2.1775,9.28677 3.6232,15.42233 0.7271,-12.0753 1.065,-18.11734 1.7892,-30.13118 1.4343,5.32329 2.1443,7.98031 3.5786,13.25442 1.4314,3.55911 2.1499,5.33888 3.5785,8.86373 1.4342,-4.16325 2.15563,-6.23326 3.57853,-10.34558 0.6985,0.91589 1.0792,1.36353 1.7892,2.27767 2.1299,-9.95811 3.2046,-14.90357 5.323,-24.67024 l 0,-4.1986 c 0.7071,18.56475 1.0793,27.81727 1.7893,46.26699 0.6971,0.88253 1.0345,1.34377 1.7445,2.2228 0.71,-0.78594 1.0403,-1.16771 1.7445,-1.94838 2.8099,1.03094 4.2388,1.52643 7.0228,2.5521 0.6943,-4.87104 1.0546,-7.30394 1.7445,-12.12932 l 0,-6.11953 c 1.4042,10.77565 2.0545,16.13209 3.4444,26.75583 0.7013,0.0369 1.0431,0.0429 1.7445,0.0823 1.3755,-11.22264 2.1077,-16.77643 3.489,-27.82607 l 0,-2.0307 0.045,0 c 1.0306,1.36376 1.7034,2.20963 2.505,3.32047 l 0,0.0548 c 0.2566,0.32221 0.5491,0.67356 0.8498,1.07023 0.6925,19.96451 1.0126,29.91647 1.6998,49.72467 0.6846,0.79911 1.0515,1.18813 1.7446,1.97582 2.0439,-14.19075 3.0222,-21.2152 5.0546,-35.04327 0.6767,0.065 1.0197,0.1032 1.6997,0.16465 0.6654,-16.99113 1.0231,-25.44345 1.6998,-42.28793 0.6774,-0.62874 1.0341,-0.93895 1.6998,-1.56419 1.3497,8.74453 1.9733,13.08824 3.3101,21.67909 1.3543,21.53637 2.0569,32.1915 3.3996,53.31956 0.66,0.76398 0.9892,1.1374 1.6551,1.89348 1.3198,-8.99127 1.9875,-13.45112 3.3101,-22.25535 0.6612,-13.31436 0.9534,-19.91841 1.6104,-33.09491 1.314,3.1982 1.9986,4.7604 3.3101,7.90327 0.654,17.65411 0.973,26.43727 1.6103,43.907 0.6656,0.74026 1.0006,1.10623 1.6551,1.8386 1.3069,-5.76323 1.9293,-8.60731 3.2207,-14.24233 l 0,-5.37862 c 1.2792,6.54128 1.9292,9.79346 3.2206,16.19072 2.575,-4.16327 3.8501,-6.19924 6.3965,-10.1535 0.621,-20.64946 0.9375,-30.90724 1.5654,-51.28886 0.6344,-0.51108 0.9792,-0.76266 1.6103,-1.26232 1.2512,2.40697 1.8756,3.59268 3.1314,5.95488 l 0,25.21908 c 0.6235,0.77803 0.9414,1.15431 1.5655,1.92093 0.6255,0.10449 0.953,0.17344 1.5655,0.27443 1.2445,-12.39232 1.8627,-18.50878 3.0865,-30.54281 1.2382,6.92237 1.8623,10.32735 3.0866,17.06883 2.4428,2.52817 3.6757,3.78984 6.0834,6.22931 l 0,3.10093 c 0.6008,0.75608 0.8778,1.14796 1.4761,1.8935 0.5954,-0.49352 0.9254,-0.74839 1.5208,-1.23488 l 0,-3.0735 c 1.1996,2.74068 1.77,4.11124 2.9523,6.77815 l 0,10.59256 c 0.5869,0.69549 0.8836,1.01733 1.4761,1.70139 0.5929,-8.31774 0.8836,-12.43512 1.4762,-20.60884 l 0,-1.48186 c 1.1823,3.8884 1.7814,5.80384 2.9522,9.57722 0.5798,-2.79249 0.8617,-4.18171 1.4314,-6.91536 l 0,-4.33582 c 1.7492,3.42826 2.6288,5.08904 4.3389,8.36978 l 0,18.33117 c 0.5757,0.64718 0.862,0.96112 1.4314,1.59162 0.5643,-0.4777 0.8663,-0.71546 1.4314,-1.17999 1.1384,1.82828 1.6974,2.73715 2.8181,4.50047 0.5597,-0.46719 0.8324,-0.71548 1.3868,-1.18001 l 0,-4.00652 c 1.1232,2.86889 1.6743,4.26777 2.7732,7.02513 1.1056,-13.51721 1.6766,-20.13509 2.7735,-33.06747 l 0,-3.8693 c 1.6458,8.40381 2.4989,12.4966 4.1152,20.38931 l 0,17.37072 c 0.5364,0.56375 0.7661,0.84366 1.2972,1.39953 0.5453,-0.43029 0.8499,-0.65312 1.3867,-1.07024 l 0,-2.41487 c 1.0618,0.16508 1.5913,0.24565 2.6391,0.41162 0.531,-0.86672 0.7744,-1.2957 1.2973,-2.14047 l 0,-3.51255 c 1.5782,0.33632 2.3844,0.50821 3.9363,0.85069 0.5225,4.14482 0.7861,6.1955 1.2971,10.23582 0.5182,0.50229 0.7444,0.74576 1.2525,1.23488 0.5067,-1.6913 0.7894,-2.52815 1.2972,-4.17116 l 0,-3.2107 c 1.0064,1.90996 1.5191,2.8544 2.5049,4.66512 l 0,5.21396 c 0.5013,0.4619 0.7519,0.67901 1.2525,1.12511 0.4928,-0.37408 0.7603,-0.5721 1.2525,-0.93302 l 0,-2.00325 c 0.9996,1.72641 1.4783,2.57404 2.4602,4.19859 0.9662,-7.38515 1.445,-10.96488 2.4155,-17.83721 l 0,-0.93303 c 0.9591,4.1018 1.42,6.08947 2.3709,9.93397 1.4314,-1.16793 2.1725,-1.71479 3.5785,-2.71675 l 0,-18.08419 c 0.9186,8.80773 1.3722,13.0608 2.2812,21.21256 l 0,2.46977 c 0.4537,0.41712 0.7107,0.61492 1.163,1.01535 0.9118,1.78262 1.375,2.63705 2.2814,4.28093 0.4461,-10.50167 0.6365,-15.61025 1.0735,-25.63071 0.4433,-0.0149 0.6731,-0.0273 1.1182,-0.0273 0.8832,11.54316 1.3173,17.05874 2.1918,27.55164 0.4314,0.30998 0.6904,0.44148 1.1183,0.74093 0.4223,-0.2485 0.6068,-0.37189 1.0288,-0.60372 l 0,-0.0273 c 0.4297,0.0351 0.6302,0.0395 1.0735,0.10979 l 0,-92.94563 0,-92.94563 c -0.4433,0.0703 -0.6438,0.0746 -1.0735,0.10978 l 0,-0.0273 c -0.422,-0.23183 -0.6065,-0.35521 -1.0288,-0.60372 -0.4279,0.29945 -0.6869,0.43094 -1.1183,0.74092 -0.8745,10.4929 -1.3086,16.0085 -2.1918,27.55165 -0.4451,0 -0.6749,-0.0129 -1.1182,-0.0273 -0.437,-10.02046 -0.6274,-15.12904 -1.0735,-25.63071 -0.9064,1.64388 -1.3696,2.49831 -2.2814,4.28094 -0.4523,0.40043 -0.7093,0.59822 -1.163,1.01535 l 0,2.46976 c -0.909,8.15177 -1.3626,12.40483 -2.2812,21.21257 l 0,-18.0842 c -1.406,-1.00195 -2.1471,-1.54882 -3.5785,-2.71674 -0.9509,3.8445 -1.4118,5.83215 -2.3709,9.93396 l 0,-0.93304 c -0.9705,-6.87231 -1.4493,-10.45205 -2.4155,-17.8372 -0.9819,1.62456 -1.4606,2.47216 -2.4602,4.1986 l 0,-2.00326 c -0.4922,-0.36091 -0.7597,-0.55893 -1.2525,-0.93301 -0.5006,0.44609 -0.7512,0.66321 -1.2525,1.1251 l 0,5.21397 c -0.9858,1.81072 -1.4985,2.75516 -2.5049,4.66512 l 0,-3.21071 c -0.5078,-1.643 -0.7905,-2.47987 -1.2972,-4.17115 -0.5081,0.48912 -0.7343,0.73257 -1.2525,1.23488 -0.511,4.04031 -0.7746,6.09099 -1.2971,10.2358 -1.5519,0.34248 -2.3581,0.51437 -3.9363,0.8507 l 0,-3.51256 c -0.5229,-0.84477 -0.7663,-1.27375 -1.2973,-2.14047 -1.0478,0.16597 -1.5773,0.24654 -2.6391,0.41162 l 0,-2.41488 c -0.5368,-0.41711 -0.8414,-0.63994 -1.3867,-1.07023 -0.5311,0.55587 -0.7608,0.83576 -1.2972,1.39953 l 0,17.37071 c -1.6163,7.89272 -2.4694,11.98551 -4.1152,20.38932 l 0,-3.8693 c -1.0969,-12.93238 -1.6679,-19.55026 -2.7735,-33.06747 -1.0989,2.75736 -1.65,4.15624 -2.7732,7.02513 l 0,-4.00652 c -0.5544,-0.46453 -0.8271,-0.71284 -1.3868,-1.18 -1.1207,1.76331 -1.6797,2.67218 -2.8181,4.50046 -0.5651,-0.46453 -0.8671,-0.70229 -1.4314,-1.18002 -0.5694,0.63052 -0.8557,0.94446 -1.4314,1.59163 l 0,18.33118 c -1.7101,3.28074 -2.5897,4.94152 -4.3389,8.36977 l 0,-4.33582 c -0.5697,-2.73364 -0.8516,-4.12286 -1.4314,-6.91535 -1.1708,3.77337 -1.7699,5.68882 -2.9522,9.57721 l 0,-1.48185 c -0.5926,-8.17373 -0.8833,-12.29111 -1.4762,-20.60885 -0.5925,0.68407 -0.8892,1.00591 -1.4761,1.70139 l 0,10.59257 c -1.1823,2.66691 -1.7527,4.03746 -2.9523,6.77814 l 0,-3.07349 c -0.5954,-0.48649 -0.9254,-0.74137 -1.5208,-1.23489 -0.5983,0.74555 -0.8753,1.13742 -1.4761,1.8935 l 0,3.10093 c -2.4077,2.43947 -3.6406,3.70114 -6.0834,6.2293 -1.2243,6.74148 -1.8484,10.14648 -3.0866,17.06885 -1.2238,-12.03403 -1.842,-18.15049 -3.0865,-30.54281 -0.6125,0.10091 -0.94,0.16992 -1.5655,0.27443 -0.6241,0.76661 -0.942,1.14289 -1.5655,1.92092 l 0,25.21909 c -1.2558,2.36219 -1.8802,3.54789 -3.1314,5.95488 -0.6311,-0.49966 -0.9759,-0.75124 -1.6103,-1.26232 -0.6279,-20.38163 -0.9444,-30.6394 -1.5654,-51.28887 -2.5464,-3.95427 -3.8215,-5.99023 -6.3965,-10.15349 -1.2914,6.39726 -1.9414,9.64944 -3.2206,16.19071 l 0,-5.37861 c -1.2914,-5.63503 -1.9138,-8.4791 -3.2207,-14.24234 -0.6545,0.73238 -0.9895,1.09835 -1.6551,1.83861 -0.6373,17.46972 -0.9563,26.25287 -1.6103,43.907 -1.3115,3.14287 -1.9961,4.70507 -3.3101,7.90326 -0.657,-13.1765 -0.9492,-19.78055 -1.6104,-33.0949 -1.3226,-8.80423 -1.9903,-13.26409 -3.3101,-22.25536 -0.6659,0.75608 -0.9951,1.12951 -1.6551,1.89349 -1.3427,21.12805 -2.0453,31.78318 -3.3996,53.31956 -1.3368,8.59085 -1.9604,12.93456 -3.3101,21.67909 -0.6657,-0.62524 -1.0224,-0.93545 -1.6998,-1.5642 -0.6767,-16.84447 -1.0344,-25.29679 -1.6998,-42.28793 -0.68,0.0616 -1.023,0.0996 -1.6997,0.16466 -2.0324,-13.82807 -3.0107,-20.85253 -5.0546,-35.04327 -0.6931,0.78768 -1.06,1.17671 -1.7446,1.97582 -0.6872,19.8082 -1.0073,29.76015 -1.6998,49.72467 -0.3007,0.39667 -0.5932,0.74802 -0.8498,1.07023 l 0,0.0548 c -0.8016,1.11085 -1.4744,1.95672 -2.505,3.32048 l -0.045,0 0,-2.0307 c -1.3813,-11.04964 -2.1135,-16.60343 -3.489,-27.82607 -0.7014,0.0395 -1.0432,0.0454 -1.7445,0.0823 -1.3899,10.62374 -2.0402,15.98019 -3.4444,26.75583 l 0,-6.11953 c -0.6899,-4.82538 -1.0502,-7.25828 -1.7445,-12.12932 -2.784,1.02567 -4.2129,1.52117 -7.0228,2.5521 -0.7042,-0.78067 -1.0345,-1.16244 -1.7445,-1.94838 -0.71,0.87903 -1.0474,1.34027 -1.7445,2.2228 -0.71,18.44972 -1.0822,27.70224 -1.7893,46.26699 l 0,-4.1986 c -2.1184,-9.76667 -3.1931,-14.71214 -5.323,-24.67025 -0.71,0.91415 -1.0907,1.36177 -1.7892,2.27768 -1.4229,-4.11232 -2.14433,-6.18233 -3.57853,-10.34558 -1.4286,3.52485 -2.1471,5.30462 -3.5785,8.86371 -1.4343,5.27411 -2.1443,7.93115 -3.5786,13.25444 -0.7242,-12.01384 -1.0621,-18.05588 -1.7892,-30.13119 -1.4457,6.13557 -2.1661,9.2253 -3.6232,15.42234 -0.7215,0.0509 -1.0707,0.0863 -1.7893,0.13727 l 0,-6.53117 c -0.7271,-13.02896 -1.065,-19.56365 -1.7892,-32.65584 -1.4515,-6.95838 -2.2108,-10.46148 -3.668,-17.48046 -0.7272,-0.003 -1.0707,0 -1.7893,0 z m -96.53001,96.97957 c -0.74862,-28.6572 -1.13868,-42.98011 -1.87871,-71.62329 -2.2473,-2.77667 -3.34698,-4.16699 -5.59141,-6.94279 -0.75149,-0.91853 -1.13009,-1.40349 -1.87871,-2.33255 -0.74576,0.92993 -1.12866,1.38569 -1.87872,2.30511 l 0,6.91535 c -1.50297,10.13725 -2.22403,15.21796 -3.71269,25.32884 l 0,-4.61022 c -0.74862,-0.92994 -1.14727,-1.40524 -1.87871,-2.33255 -1.49439,8.26769 -2.26877,12.39319 -3.75743,20.63629 l 0,-29.8842 c -1.50011,-3.69785 -2.21974,-5.53053 -3.71269,-9.22048 -0.74863,-0.006 -1.12866,-0.0222 -1.87872,-0.0273 -0.74576,0.91152 -1.12293,1.36881 -1.87871,2.27769 l 0,11.47068 c -1.48007,2.72576 -2.22261,4.06909 -3.71269,6.77814 -1.49296,5.45852 -2.21832,8.17899 -3.7127,13.61119 l 0,-31.96979 c -2.97445,-4.60935 -4.47241,-6.8991 -7.42539,-11.47069 -1.49295,3.61704 -2.2269,5.42449 -3.71269,9.02837 -2.963,16.28072 -4.42339,24.38661 -7.38066,40.47676 l 0,-6.77814 c -0.72715,-8.15178 -1.10254,-12.2338 -1.83398,-20.36187 -1.47721,-6.35159 -2.23263,-9.52014 -3.7127,-15.83396 -1.4772,3.56173 -2.20221,5.35401 -3.66796,8.89116 -1.47291,1.75014 -2.19219,2.60413 -3.66796,4.33582 l 0,33.45164 c -2.19577,6.09254 -3.30189,9.13003 -5.50195,15.14793 l 0,-2.2228 c -0.73144,-16.02429 -1.06496,-24.04479 -1.78925,-40.01026 -0.73574,0.85531 -1.10253,1.29133 -1.83398,2.14048 -0.72715,-0.92205 -1.09824,-1.36091 -1.83398,-2.27769 l 0,-8.83628 c -1.46003,-2.69852 -2.17466,-4.04844 -3.62323,-6.72326 -0.72716,0.85531 -1.11972,1.28516 -1.83399,2.14046 l 0,6.58606 c -0.72428,21.8569 -1.06209,32.75967 -1.78925,54.52701 l 0,-4.36327 c -1.44714,-21.99835 -2.18181,-32.95118 -3.62323,-54.74661 -1.45144,1.68341 -2.17895,2.5071 -3.62323,4.17117 -2.16141,11.14536 -3.21349,16.666 -5.36775,27.63397 l 0,-6.42139 c -0.72143,-12.07442 -1.10683,-18.10944 -1.83398,-30.13117 -2.85708,-6.09781 -4.25949,-9.12256 -7.11227,-15.09303 -0.70425,0.83598 -1.03455,1.25485 -1.74452,2.08558 l 0,25.32884 c -1.43283,1.59998 -2.17001,2.37889 -3.5785,3.95164 l 0,-2.08558 c -0.7157,-0.88166 -1.03884,-1.33852 -1.74452,-2.22278 -0.70568,0.79383 -1.08357,1.18812 -1.78925,1.97579 -1.4085,10.7388 -2.08341,16.07876 -3.48904,26.6735 l 0,-6.20186 c -1.40564,-20.86809 -2.14245,-31.25233 -3.53377,-51.8377 -0.69852,0.8158 -1.05172,1.22458 -1.74452,2.0307 -0.69566,13.10361 -1.04886,19.64794 -1.74452,32.65584 -2.77835,7.11029 -4.17217,10.60288 -6.93334,17.48047 -1.39276,-17.08509 -2.06301,-25.5743 -3.44431,-42.3977 -0.68421,0.77188 -1.01558,1.15959 -1.69979,1.92094 -2.05549,-0.88693 -3.09719,-1.31897 -5.14409,-2.19536 -2.03832,25.05596 -3.06392,37.43884 -5.09937,61.82655 -0.66846,-0.91415 -0.97514,-1.36617 -1.65505,-2.27767 l 0,-59.82329 c -1.35411,-2.37539 -2.02365,-3.56767 -3.35485,-5.90002 -0.68421,0.74555 -1.0213,1.1284 -1.69979,1.86605 l 0,5.70791 c -0.6613,4.52945 -0.98802,6.79219 -1.65505,11.2786 -1.99537,-0.9273 -3.02741,-1.39624 -5.0099,-2.30511 -1.98106,2.0768 -2.96515,3.10554 -4.92044,5.10419 l 0,5.51581 c -1.98106,-0.97474 -2.97374,-1.45947 -4.92044,-2.41489 -1.95673,14.95297 -2.93759,22.29203 -4.87571,36.71724 l 0,-5.35118 c -0.64127,-5.12744 -0.92146,-7.65825 -1.56559,-12.73302 -1.28969,6.81437 -1.93955,10.15919 -3.22065,16.79442 l 0,-29.66465 c -1.28111,-2.99007 -1.90484,-4.48072 -3.17592,-7.40932 -0.62696,-0.086 -0.95761,-0.10864 -1.61033,-0.19209 l 0,-3.43024 c -0.63125,-0.76134 -0.93005,-1.1374 -1.56559,-1.89348 -0.63125,0.60854 -0.93005,0.91128 -1.5656,1.50929 l 0,16.90421 c -1.25104,2.45879 -1.8873,3.67611 -3.13118,6.06465 l 0,-8.34233 c -1.25105,-18.26619 -1.84544,-27.28513 -3.08646,-45.05956 -1.24675,0.009 -1.86691,0.0222 -3.08646,0.0273 -2.46487,12.34227 -3.6744,18.33183 -6.08345,29.93909 -1.21955,-2.69852 -1.84507,-4.04362 -3.04173,-6.66838 -1.79927,9.087 -2.68673,13.5418 -4.47312,22.17303 l 0,-21.18512 c -1.1852,-5.00452 -1.78138,-7.45628 -2.95226,-12.29396 -0.58831,0.55586 -0.89212,0.83029 -1.47614,1.3721 l 0,14.73628 c -1.16659,-0.18967 -1.74809,-0.27683 -2.90753,-0.46651 -1.15371,5.01593 -1.75382,7.49251 -2.90753,12.3214 -1.14083,-13.37846 -1.72627,-19.95769 -2.8628,-32.84791 -1.13653,4.41968 -1.69013,6.57156 -2.81807,10.81209 l 0,-4.08884 c -0.56254,-1.14598 -0.87888,-1.73169 -1.4314,-2.85396 -0.56683,0.49966 -0.83272,0.74313 -1.38667,1.23489 l 0,12.07442 c -1.11506,0.87639 -1.66114,1.30887 -2.77334,2.14047 l 0,6.55861 c -1.11363,4.45129 -1.68404,6.63434 -2.77334,10.86697 -1.10504,-16.31056 -1.64789,-24.27376 -2.7286,-39.87304 -1.085,4.99398 -1.6479,7.42556 -2.72861,12.18419 -1.07212,-1.12753 -1.57704,-1.68448 -2.63914,-2.77162 -0.53248,0.41975 -0.81089,0.61579 -1.34194,1.01535 l 0,4.74744 c -1.58886,1.61051 -2.34141,2.38063 -3.89162,3.84186 -1.03633,9.30654 -1.57096,13.82982 -2.59441,22.61211 -0.51388,-14.84321 -0.79193,-22.17259 -1.29721,-36.60745 -0.50958,0.38463 -0.75578,0.58374 -1.25248,0.96047 -1.02345,12.35543 -1.55772,18.354 -2.54968,29.96652 -0.99196,0.77715 -1.51299,1.12447 -2.50495,1.81117 l 0,-17.15117 c -0.99339,-3.53804 -1.48114,-5.25765 -2.46022,-8.58932 -1.46718,0.86498 -2.17751,1.2551 -3.62323,2.00326 l 0,6.50373 c -0.95331,5.22844 -1.41744,7.76517 -2.37076,12.59582 -0.93184,-15.22783 -1.39847,-22.59322 -2.32602,-36.71722 -0.47093,0 -0.69208,0.0248 -1.16301,0.0273 -0.46091,0.33721 -0.70926,0.49483 -1.16302,0.82325 l 0,0.82326 c -0.45232,0.98615 -0.70067,1.47527 -1.16301,2.41488 -0.90608,3.50817 -1.33621,5.17158 -2.23656,8.36977 -0.89749,0.3978 -1.3491,0.58792 -2.23657,0.93302 -0.88031,-0.84125 -1.31724,-1.243 -2.19183,-2.0307 -0.43085,0.17389 -0.64842,0.25621 -1.07355,0.41166 l 0,4.11627 c -0.86599,0.49966 -1.30257,0.71854 -2.1471,1.12511 l 0,79.30702 0,79.30702 c 0.84453,0.40658 1.28111,0.62545 2.1471,1.12511 l 0,4.11628 c 0.42513,0.15544 0.6427,0.23776 1.07355,0.41163 0.87459,-0.78769 1.31152,-1.18944 2.19183,-2.0307 0.88747,0.34511 1.33908,0.53523 2.23657,0.93303 0.90035,3.19819 1.33048,4.86161 2.23656,8.36977 0.46234,0.93961 0.71069,1.42874 1.16301,2.41489 l 0,0.82325 c 0.45376,0.32842 0.70211,0.48605 1.16302,0.82326 0.47093,0.003 0.69208,0.0273 1.16301,0.0273 0.92755,-14.124 1.39418,-21.4894 2.32602,-36.71722 0.95332,4.83064 1.41745,7.36737 2.37076,12.59582 l 0,6.50372 c 1.44572,0.74817 2.15605,1.13828 3.62323,2.00325 0.97908,-3.33166 1.46683,-5.05127 2.46022,-8.58931 l 0,-17.15116 c 0.99196,0.6867 1.51299,1.03401 2.50495,1.81116 0.99196,11.61252 1.52623,17.61109 2.54968,29.96652 0.4967,0.37672 0.7429,0.57584 1.25248,0.96047 0.50528,-14.43487 0.78333,-21.76427 1.29721,-36.60746 1.02345,8.78227 1.55808,13.30558 2.59441,22.6121 1.55021,1.46124 2.30276,2.23136 3.89162,3.84187 l 0,4.74744 c 0.53105,0.39956 0.80946,0.5956 1.34194,1.01535 1.0621,-1.08714 1.56702,-1.64409 2.63914,-2.77162 1.08071,4.75863 1.64361,7.19021 2.72861,12.18418 1.08071,-15.59927 1.62356,-23.56247 2.7286,-39.87303 1.0893,4.23262 1.65971,6.41568 2.77334,10.86697 l 0,6.55861 c 1.1122,0.8316 1.65828,1.26408 2.77334,2.14047 l 0,12.07442 c 0.55395,0.49176 0.81984,0.73523 1.38667,1.23488 0.55252,-1.12226 0.86886,-1.70797 1.4314,-2.85395 l 0,-4.08884 c 1.12794,4.24054 1.68154,6.39242 2.81807,10.8121 1.13653,-12.89022 1.72197,-19.46946 2.8628,-32.84792 1.15371,4.82889 1.75382,7.30547 2.90753,12.3214 1.15944,-0.18968 1.74094,-0.27684 2.90753,-0.46651 l 0,14.73628 c 0.58402,0.54181 0.88783,0.81624 1.47614,1.3721 1.17088,-4.83768 1.76706,-7.28944 2.95226,-12.29396 l 0,-21.18512 c 1.78639,8.63123 2.67385,13.08603 4.47312,22.17303 1.19666,-2.62477 1.82218,-3.96986 3.04173,-6.66838 2.40905,11.60726 3.61858,17.59682 6.08345,29.93909 1.21955,0.006 1.83971,0.0196 3.08646,0.0273 1.24102,-17.77443 1.83541,-26.79337 3.08646,-45.05956 l 0,-8.34233 c 1.24388,2.38854 1.88014,3.60586 3.13118,6.06465 l 0,16.90419 c 0.63555,0.59802 0.93435,0.90075 1.5656,1.50931 0.63554,-0.75608 0.93434,-1.13214 1.56559,-1.89348 l 0,-3.43024 c 0.65272,-0.0834 0.98337,-0.10607 1.61033,-0.19209 1.27108,-2.92861 1.89481,-4.41925 3.17592,-7.40932 l 0,-29.66465 c 1.2811,6.63521 1.93096,9.98005 3.22065,16.79442 0.64413,-5.07478 0.92432,-7.60558 1.56559,-12.73303 l 0,-5.35117 c 1.93812,14.42521 2.91898,21.76427 4.87571,36.71724 1.9467,-0.95542 2.93938,-1.44017 4.92044,-2.41489 l 0,5.51581 c 1.95529,1.99865 2.93938,3.02739 4.92044,5.10419 1.98249,-0.90888 3.01453,-1.37781 5.0099,-2.30511 0.66703,4.48641 0.99375,6.74915 1.65505,11.2786 l 0,5.70791 c 0.67849,0.73765 1.01558,1.12052 1.69979,1.86605 1.3312,-2.33234 2.00074,-3.52464 3.35485,-5.90001 l 0,-59.82328 c 0.67991,-0.9115 0.98659,-1.36353 1.65505,-2.27768 2.03545,24.38772 3.06105,36.77057 5.09937,61.82655 2.0469,-0.87639 3.0886,-1.30843 5.14409,-2.19535 0.68421,0.76134 1.01558,1.14904 1.69979,1.92094 1.3813,-16.82341 2.05155,-25.31261 3.44431,-42.39771 2.76117,6.87759 4.15499,10.37018 6.93334,17.48048 0.69566,13.00789 1.04886,19.55222 1.74452,32.65583 0.6928,0.80613 1.046,1.21491 1.74452,2.0307 1.39132,-20.58537 2.12813,-30.96959 3.53377,-51.8377 l 0,-6.20187 c 1.40563,10.59477 2.08054,15.93472 3.48904,26.6735 0.70568,0.7877 1.08357,1.18196 1.78925,1.97582 0.70568,-0.88429 1.02882,-1.34114 1.74452,-2.2228 l 0,-2.08557 c 1.40849,1.57275 2.14567,2.35166 3.5785,3.95162 l 0,25.32886 c 0.70997,0.83071 1.04027,1.2496 1.74452,2.08558 2.85278,-5.97047 4.25519,-8.99522 7.11227,-15.09303 0.72715,-12.02173 1.11255,-18.05676 1.83398,-30.13118 l 0,-6.4214 c 2.15426,10.96797 3.20634,16.48861 5.36775,27.63397 1.44428,1.66407 2.17179,2.48777 3.62323,4.17117 1.44142,-21.79545 2.17609,-32.74827 3.62323,-54.74654 l 0,-4.36327 c 0.72716,21.76734 1.06497,32.67011 1.78925,54.52701 l 0,6.58604 c 0.71427,0.85532 1.10683,1.28517 1.83399,2.14048 1.44857,-2.67482 2.1632,-4.02474 3.62323,-6.72326 l 0,-8.83628 c 0.73574,-0.91678 1.10683,-1.35565 1.83398,-2.27769 0.73145,0.84917 1.09824,1.28517 1.83398,2.14048 0.72429,-15.96547 1.05781,-23.98596 1.78925,-40.01026 l 0,-2.2228 c 2.20006,6.0179 3.30618,9.05539 5.50195,15.14793 l 0,33.45164 c 1.47577,1.73169 2.19505,2.58568 3.66796,4.33581 1.46575,3.53715 2.19076,5.32943 3.66796,8.89117 1.48007,-6.31382 2.23549,-9.48237 3.7127,-15.83396 0.73144,-8.12807 1.10683,-12.21009 1.83398,-20.36187 l 0,-6.77814 c 2.95727,16.09015 4.41766,24.19604 7.38066,40.47676 1.48579,3.60388 2.21974,5.41133 3.71269,9.02837 2.95298,-4.57159 4.45094,-6.86134 7.42539,-11.47069 l 0,-31.96979 c 1.49438,5.43217 2.21974,8.15266 3.7127,13.61118 1.49008,2.70905 2.23262,4.05239 3.71269,6.77813 l 0,11.4707 c 0.75578,0.90888 1.13295,1.36617 1.87871,2.27769 0.75006,-0.006 1.13009,-0.0222 1.87872,-0.0273 1.49295,-3.68994 2.21258,-5.52261 3.71269,-9.22047 l 0,-29.8842 c 1.48866,8.24311 2.26304,12.3686 3.75743,20.6363 0.73144,-0.92732 1.13009,-1.40262 1.87871,-2.33257 l 0,-4.61022 c 1.48866,10.11089 2.20972,15.19159 3.71269,25.32884 l 0,6.91535 c 0.75006,0.91942 1.13296,1.37516 1.87872,2.30512 0.74862,-0.92907 1.12722,-1.41403 1.87871,-2.33256 2.24443,-2.7758 3.34411,-4.16612 5.59141,-6.94279 0.74003,-28.64318 1.13009,-42.96607 1.87871,-71.62329 z m -270.62412,97.17167 c -0.29284,0.20952 -0.47096,0.34945 -0.7157,0.5214 l 1.38667,0 c -0.20183,-0.15761 -0.4021,-0.31646 -0.67097,-0.5214 z"
       id="rect4007"
       inkscape:connector-curvature="0" />
    <path
       style="fill:#363636;fill-opacity:1;fill-rule:nonzero;stroke:none"
       d="m 1583.4208,432.40941 c -0.7487,26.68809 -1.135,40.02761 -1.875,66.70261 -0.3605,0.41477 -0.5939,0.67667 -0.9063,1.03553 -1.6272,-0.59818 -2.8031,-1.04091 -4.6874,-1.73183 -0.7516,-0.27231 -1.1264,-0.42087 -1.875,-0.69631 -0.7458,0.27569 -1.125,0.42374 -1.875,0.69631 l 0,2.03536 c -0.014,0.0283 -0.017,0.0434 -0.031,0.0714 l 0,-1.37475 c -1.503,-9.44069 -2.2301,-14.15117 -3.7187,-23.56731 l 0,4.28496 c -0.7487,0.86605 -1.1438,1.29674 -1.875,2.16034 -1.4946,-7.69959 -2.2302,-11.53423 -3.7188,-19.21092 l 0,27.83441 c -1.5001,3.44376 -2.257,5.16924 -3.75,8.60564 -0.7486,0.005 -1.1249,-0.005 -1.875,0 -0.7458,-0.84888 -1.1193,-1.26035 -1.875,-2.10678 l 0,-10.6767 c -1.4801,-2.53845 -2.2287,-3.81526 -3.7188,-6.33818 -1.4928,-5.08344 -2.2243,-7.61743 -3.7187,-12.67635 l 0,29.78051 c -0.8086,1.1669 -1.3528,1.97518 -2,2.9102 -1.7359,-0.79474 -3.2587,-1.4961 -5.4063,-2.48171 -1.382,0.99274 -2.1575,1.56033 -3.4374,2.48171 -0.1029,-0.23255 -0.1708,-0.37522 -0.2813,-0.62489 -2.963,-15.16201 -4.449,-22.70528 -7.4063,-37.68984 l 0,6.30247 c -0.727,7.59163 -1.1123,11.39142 -1.8437,18.96097 -1.3074,5.23529 -2.0807,8.3739 -3.25,13.05129 -0.1518,-0.19159 -0.2379,-0.32266 -0.4063,-0.53562 -0.301,0.21521 -0.4987,0.35518 -0.75,0.53562 -0.984,-2.20533 -1.7724,-3.95171 -2.9374,-6.57028 -1.473,-1.62988 -2.2119,-2.45802 -3.6876,-4.07072 0,-12.46163 0.031,-18.68067 0.031,-31.1374 -2.1958,-5.6739 -3.3313,-8.50029 -5.5313,-14.10468 l 0,2.07107 c -0.7314,14.92321 -1.0881,22.37506 -1.8124,37.24348 -0.7358,-0.79654 -1.081,-1.19098 -1.8126,-1.9818 -0.727,0.8587 -1.0768,1.2887 -1.8124,2.14248 l 0,8.195 c -1.4602,2.51309 -2.2078,3.77574 -3.6563,6.26676 -0.7272,-0.79654 -1.0982,-1.18526 -1.8125,-1.9818 l 0,-6.12393 c -0.7242,-20.35503 -1.0854,-30.5052 -1.8125,-50.77682 l 0,4.07072 c -1.4472,20.4867 -2.1524,30.67543 -3.5937,50.97321 -1.4515,-1.56771 -2.1809,-2.34244 -3.625,-3.89217 -2.1615,-10.37952 -3.2208,-15.53118 -5.375,-25.74549 l 0,5.99895 c -0.7217,11.24475 -1.0853,16.85298 -1.8126,28.04866 -0.2792,0.55502 -0.4331,0.86927 -0.6874,1.37476 -2.3535,-1.4903 -3.8593,-2.4353 -6.4376,-4.03501 -0.7043,0.24784 -1.0088,0.36076 -1.7187,0.60703 l 0,7.51655 c -0.015,0.005 -0.017,0.0131 -0.031,0.0179 l 0,-16.94346 c -1.4327,-1.49004 -2.1539,-2.23111 -3.5624,-3.69579 l 0,1.94609 c -0.7158,0.82107 -1.0756,1.24754 -1.7813,2.07107 -0.7057,-0.73929 -1.0443,-1.1054 -1.75,-1.83897 -1.4085,-10.00087 -2.1256,-14.96819 -3.5313,-24.83493 l 0,5.7847 c -0.9718,13.43772 -1.6463,22.90391 -2.4062,33.36916 -0.3406,-1.47488 -0.6687,-2.83102 -1.0938,-4.69561 -0.6984,0.24185 -1.0571,0.36804 -1.75,0.60704 -0.2964,1.65535 -0.4936,2.87638 -0.7187,4.12427 -0.2958,-5.2757 -0.6009,-10.49351 -1,-17.44337 -2.7783,-6.62173 -4.1763,-9.87786 -6.9375,-16.28287 -1.19,13.59396 -1.9343,21.98819 -2.9688,33.72624 -0.176,-0.63945 -0.2979,-1.10952 -0.5,-1.83896 -0.6841,0.22884 -1.0033,0.34562 -1.6874,0.57133 -2.0555,-0.26295 -3.1094,-0.38293 -5.1563,-0.64275 -0.2126,0.77468 -0.3384,1.20913 -0.5313,1.91038 -1.6545,-18.91202 -2.7397,-31.22376 -4.5624,-51.5624 -0.6685,0.85133 -0.9764,1.27574 -1.6563,2.12463 l 0,47.43813 c -1.3541,-0.70423 -2.0126,-1.05824 -3.3437,-1.7497 -0.6842,0.22103 -1.0091,0.33479 -1.6876,0.55348 l 0,1.69613 c -0.3079,0.62537 -0.5502,1.08496 -0.7812,1.55329 -0.2768,-1.76012 -0.5354,-3.515 -0.9062,-5.83826 -1.9955,0.8636 -3.0176,1.29606 -5,2.14249 -1.981,-1.9341 -2.9823,-2.88786 -4.9376,-4.74917 l 0,-5.14197 c -1.9809,0.90776 -2.9595,1.35985 -4.9062,2.24962 -1.9567,-13.9255 -2.9057,-20.75646 -4.8438,-34.19045 l 0,4.96342 c -0.6413,4.77513 -0.9807,7.14685 -1.625,11.87292 -1.2896,-6.34613 -1.9064,-9.47868 -3.1874,-15.65797 l 0,27.63802 c -1.2812,2.7846 -1.9166,4.16429 -3.1876,6.89165 -0.6268,0.0801 -0.941,0.1187 -1.5937,0.19639 l 0,3.19587 c -0.6313,0.70903 -0.927,1.06343 -1.5625,1.76754 -0.6313,-0.56672 -0.9581,-0.85354 -1.5938,-1.41046 l 0,-15.74724 c -1.2509,-2.28984 -1.8809,-3.41745 -3.125,-5.64188 l 0,7.76651 c -0.5823,7.91916 -1.0065,13.65583 -1.4374,19.53229 -0.4828,-2.10403 -0.9747,-4.23713 -1.625,-6.99877 -1.2468,0.003 -1.8742,-0.002 -3.0938,0 -1.9697,2.92411 -3.2557,4.794 -4.875,7.12375 -0.4144,-1.87047 -0.7568,-3.39324 -1.25,-5.60616 -1.0964,2.25921 -1.7378,3.56939 -2.7188,5.57045 -0.101,-0.0656 -0.1714,-0.10716 -0.2812,-0.17854 -0.062,0.0936 -0.096,0.14169 -0.1562,0.2321 -1.7029,-8.00677 -2.6062,-12.23143 -4.3438,-20.05006 l 0,19.72869 c -0.026,0.10174 -0.037,0.15044 -0.062,0.24996 -1.1077,-1.38544 -1.7126,-2.13166 -2.8437,-3.51725 -0.5883,0.1648 -0.916,0.25002 -1.5,0.41064 l 0,-0.71415 c -1.1667,0.17664 -1.7469,0.2697 -2.9063,0.44635 -1.1538,-4.67128 -1.7525,-6.9652 -2.9063,-11.46228 -0.5533,6.04426 -0.9849,10.38056 -1.4062,14.83669 -0.4397,-1.49115 -0.8579,-3.01459 -1.4375,-4.96342 -1.1366,1.31027 -1.7159,1.9387 -2.8437,3.19587 l 0,-1.21407 c -0.5626,-0.33975 -0.8538,-0.50643 -1.4063,-0.83914 -0.5668,0.14812 -0.8522,0.22914 -1.4063,0.37493 l 0,3.17802 c -1.115,-0.81617 -1.7003,-1.20734 -2.8124,-1.9818 l 0,-6.12393 c -1.1139,-4.14542 -1.6295,-6.16358 -2.7188,-10.10537 -0.551,7.57303 -0.9619,12.96072 -1.375,18.51461 -0.4102,-1.77813 -0.833,-3.60836 -1.375,-5.92753 -1.085,1.48053 -1.6381,2.19576 -2.7188,3.60651 -1.0721,-0.33426 -1.5629,-0.49899 -2.625,-0.82129 -0.5325,0.12445 -0.8127,0.18507 -1.3437,0.30353 l 0,1.41046 c -1.5889,0.47746 -2.3561,0.70946 -3.9063,1.14266 -0.055,0.14649 -0.073,0.21819 -0.125,0.35708 -0.9581,-7.99306 -1.5171,-12.35782 -2.5,-20.21075 -0.3006,8.08831 -0.5225,13.92114 -0.75,19.94294 -0.1559,-1.28954 -0.3022,-2.57412 -0.5,-4.24926 -0.5096,0.11403 -0.7532,0.17398 -1.25,0.28566 -0.483,1.72886 -0.854,2.93335 -1.2187,4.1957 -0.4076,-4.48661 -0.8145,-9.11978 -1.3437,-14.89025 -0.9921,-0.72375 -1.5082,-1.07446 -2.5,-1.71399 l 0,15.9972 c -0.071,0.2358 -0.1212,0.35171 -0.1876,0.57133 -0.8602,-0.90744 -1.3719,-1.45732 -2.2812,-2.37458 -1.4672,0.25643 -2.1793,0.38523 -3.625,0.60704 l 0,1.24978 c -0.9533,-4.86918 -1.4217,-7.21353 -2.375,-11.71224 -0.3255,4.95423 -0.5895,8.46806 -0.8438,12.21215 -0.4596,-2.17866 -0.8743,-4.29732 -1.4687,-6.98092 -0.471,0 -0.6854,0.0171 -1.1563,0.0178 -0.4609,0.1 -0.7336,0.13473 -1.1874,0.2321 l 0,0.24996 c -0.4523,0.29235 -0.6939,0.43561 -1.1563,0.71415 -0.906,1.04006 -1.3184,1.53357 -2.2187,2.48172 -0.8976,0.11793 -1.3625,0.18335 -2.25,0.28566 -0.8804,-0.2494 -1.3129,-0.37351 -2.1876,-0.60703 -0.4309,0.0515 -0.6373,0.0789 -1.0624,0.12497 l 0,1.21408 c -0.866,0.14813 -1.3117,0.21869 -2.1563,0.33922 l 0,8.07001 c -0.013,-0.006 -0.018,-0.0118 -0.031,-0.0179 l 0,39.97515 c 0.4224,0.0303 0.6359,0.0339 1.0626,0.0536 0.099,-0.34118 0.1604,-0.56583 0.25,-0.87485 0.2665,0.0421 0.5226,0.0826 0.875,0.14283 l 0,1.21407 c 0.4251,0.0461 0.6316,0.0735 1.0624,0.12498 0.8747,-0.23351 1.3072,-0.33978 2.1876,-0.58918 0.8875,0.10232 1.3525,0.14988 2.25,0.26781 0.9003,0.94815 1.3127,1.44166 2.2187,2.48171 0.4624,0.27855 0.7039,0.4218 1.1563,0.71416 l 0,0.24995 c 0.4538,0.0974 0.7266,0.14999 1.1874,0.24996 0.471,8.7e-4 0.6853,0 1.1563,0 0.7541,-3.40457 1.2324,-5.77031 1.875,-8.85559 0.5095,4.74404 0.9848,9.17596 1.625,15.55085 l 0,-0.85699 c 0.6807,-4.26296 1.1666,-7.37277 1.7187,-10.98023 1.0772,0.16727 1.8417,0.29893 3.0938,0.51777 0.539,-0.54378 0.9362,-0.98669 1.3438,-1.41047 0.9055,6.39012 1.4173,10.07776 2.375,17.13986 0.9185,-7.36303 1.4577,-11.68952 2.3437,-19.01453 0.4411,1.52152 0.885,2.98136 1.4687,5.07054 0.4967,0.11169 0.7404,0.17163 1.25,0.28566 0.5054,-4.27941 0.7674,-6.45477 1.2813,-10.85524 0.1176,0.29926 0.2063,0.49776 0.3125,0.76773 0.3162,8.82164 0.5746,16.29466 0.9688,27.40592 l 0,-3.14231 c 0.508,-2.69956 0.7587,-4.07542 1.2812,-6.85594 0.5181,0.17663 0.7844,0.26725 1.3125,0.44635 l 0,-3.21373 c 0.5168,-0.69841 0.7843,-1.04297 1.3125,-1.76755 0.5162,-1.99774 0.9177,-3.59903 1.3125,-5.14196 l 0,0.74988 c 0.531,0.11845 0.8112,0.17907 1.3437,0.30351 1.0622,-0.3223 1.553,-0.487 2.625,-0.82129 1.0807,1.41076 1.6338,2.12599 2.7188,3.60652 0.7395,-3.16437 1.2868,-5.52528 1.875,-8.08787 0.265,7.41412 0.5201,14.43577 0.875,24.24575 1.6304,-5.16031 2.4517,-7.82552 4.125,-13.37266 0.556,-2.8412 0.983,-5.08508 1.4062,-7.26658 l 0,2.05321 c 0.5541,0.14579 0.8395,0.20896 1.4063,0.35709 0.5525,-0.33271 0.8438,-0.49941 1.4063,-0.83914 l 0,-1.21408 c 1.1278,1.25716 1.7071,1.88559 2.8437,3.19587 0.7071,-2.37748 1.2343,-4.18745 1.7813,-6.05251 0.3493,7.70364 0.6365,14.23517 1.0624,23.87082 1.1539,-3.90417 1.7526,-5.91021 2.9063,-9.98039 0.5797,0.6665 0.8549,1.00604 1.4375,1.67828 0.5926,0.13166 0.8862,0.19378 1.4688,0.32136 0.3526,-4.53443 0.6075,-7.95688 0.875,-11.44442 0.1852,0.0509 0.3826,0.0928 0.625,0.16068 0.6949,-0.85133 1.2165,-1.50123 1.75,-2.16033 0.9663,12.90039 1.5971,21.37176 2.6562,36.01155 l 0,-4.26711 c 0.6055,-7.20808 0.8945,-10.84463 1.5,-18.17538 2.3905,-1.24879 3.5992,-1.90157 6.0312,-3.2673 0.3709,-3.96124 0.654,-6.9228 0.9376,-9.98039 1.1054,1.60617 2.1771,3.19623 3.6562,5.39192 1.2196,0.002 1.847,-0.003 3.0938,0 0.9555,-4.05756 1.5911,-6.86772 2.375,-10.28392 0.7282,12.32294 1.3715,23.03099 2.2812,38.72537 l 0,-4.69561 c 1.2539,-4.72689 1.8782,-7.13117 3.125,-11.9979 1.2667,2.747 1.8896,4.14098 3.1562,6.94522 l 0,-3.19587 c 0.6357,-0.53157 0.9525,-0.81635 1.5938,-1.35692 1.2725,9.90601 1.9078,14.92469 3.1875,25.06705 l 0,-4.90986 c 0.6441,-3.12481 0.9809,-4.69333 1.625,-7.85576 0.6442,0.78591 0.9524,1.1828 1.5937,1.98179 l 0,3.32085 c 1.9383,-12.82229 2.9185,-19.34872 4.875,-32.63714 1.9469,5.57411 2.9238,8.39451 4.9063,14.14038 l 0,-5.12411 c 1.2983,-1.21443 1.9543,-1.8262 3.2813,-3.07088 0.6585,0.0679 0.9991,0.0936 1.6562,0.16068 1.9953,0.90285 2.9747,1.34989 4.9688,2.26746 l 0,-1.74969 c 0.6718,-4.17184 1.1798,-7.37271 1.6874,-10.53388 l 0,0.8927 c 0.6785,0.21869 1.0033,0.33246 1.6876,0.55348 0.7726,-0.40135 1.3473,-0.70938 1.9374,-1.01768 0.4866,16.07156 0.8348,27.92671 1.4063,46.68826 1.334,1.69693 2.0223,2.54973 3.375,4.26711 0.677,-14.3761 1.0247,-21.60042 1.7187,-36.10083 1.1968,-6.27876 1.9292,-10.1343 3,-15.83651 0.6739,-0.085 1.4424,-0.18551 2.0938,-0.26781 0.01,-8.6e-4 0.022,8.7e-4 0.031,0 0.659,0.0413 1.0114,0.0726 1.6876,0.10712 l 0,-0.32137 c 0.6841,0.22571 1.0033,0.34249 1.6874,0.57133 0.4847,-1.74994 0.8473,-3.05154 1.2188,-4.40995 0.1672,0.19107 0.3155,0.36464 0.5312,0.60704 l 0,46.65255 c 1.3728,3.19679 2.0847,4.79909 3.4688,8.03431 l 0,-15.03308 c 2.0655,-1.23325 3.1005,-1.87867 5.1875,-3.16016 0.8945,-11.99804 1.5354,-20.89853 2.2187,-30.209 0.3929,0.13536 0.7542,0.23897 1.25,0.41064 0.7022,-3.07977 1.2425,-5.42114 1.7813,-7.74865 l 0,5.48119 c 1.4057,20.04918 2.1016,30.14048 3.5,50.45545 l 0,-5.80255 c 0.7057,-5.32716 1.0756,-7.98922 1.7813,-13.35481 2.1127,-2.89419 3.1413,-4.38001 5.2812,-7.33799 1.0884,-9.00982 1.8456,-15.14686 2.75,-22.65676 0.2367,0.0848 0.4606,0.17283 0.7812,0.28567 2.8528,-1.77002 4.2681,-2.67359 7.125,-4.48136 0.012,-0.0571 0.02,-0.0867 0.031,-0.14283 l 0,3.92788 c 1.4371,19.19868 2.1552,28.84743 3.5937,48.24156 l 0,-6.0168 c 1.4273,-10.28466 2.1312,-15.45921 3.5626,-25.85263 2.1713,2.53845 3.2645,3.81976 5.4374,6.39174 l 0,6.08823 c 1.4415,12.28089 2.1738,18.44667 3.625,30.83389 0.7145,-20.31334 1.0841,-30.48149 1.8126,-50.88395 1.4471,10.68209 2.1648,16.04712 3.625,26.81673 l 0,-12.31927 c 1.4584,-2.38143 2.1876,-3.57513 3.6562,-5.9811 1.4557,15.72956 2.1834,23.62955 3.6562,39.47523 l 0,-6.21319 c 0.7359,-3.25321 1.0768,-4.87923 1.8126,-8.14143 2.1913,-16.43369 3.3283,-24.69815 5.5312,-41.31421 1.4643,5.87262 2.1791,8.82505 3.6562,14.72957 1.4801,3.39633 2.2103,5.10205 3.6876,8.51637 1.4714,5.93477 2.2146,8.91145 3.6874,14.8724 0,-0.84152 2e-4,-1.2669 0,-2.10678 0.7315,-0.80881 1.1081,-1.20789 1.8438,-2.01751 1.4858,-9.19697 2.2314,-13.8302 3.7188,-23.08524 1.4856,-5.03356 2.1931,-7.54521 3.6874,-12.60494 0.7315,0.86114 1.1266,1.27889 1.875,2.14249 1.4788,-1.67158 2.2076,-2.49563 3.6876,-4.17784 0.7543,0.85868 1.1262,1.28379 1.875,2.14248 0.7484,19.58139 1.0993,29.37486 1.8437,48.99142 l 0,-12.76562 c 2.2286,-3.33744 3.3751,-5.00992 5.5937,-8.37353 l 0,-25.62052 c 1.5002,-1.68957 2.2515,-2.53284 3.75,-4.2314 0.7473,0.86359 1.088,1.28379 1.8438,2.14248 1.4886,19.70816 2.257,29.57915 3.75,49.33066 l 0,-6.42746 c 1.4929,-1.68057 2.2244,-2.51906 3.7188,-4.21354 0.7456,0.0147 1.1292,0.0283 1.875,0.0357 1.3717,-15.7521 2.1645,-24.82929 3.4374,-39.43953 0.1061,0.0389 0.1901,0.0619 0.3126,0.10712 0.6731,-0.24768 1.0725,-0.40094 1.6874,-0.62489 0.6039,1.05259 1.2215,2.09721 2.0313,3.49939 l 0,-4.24925 c 0.8931,-0.32947 1.8762,-0.68625 2.875,-1.05339 0.2646,0.30554 0.5197,0.61161 0.875,1.01767 l 0,60.23946 c 1.4987,2.59325 2.2456,3.88777 3.75,6.48101 l 0,-6.44529 c 0.74,-2.58099 1.1292,-3.8676 1.875,-6.44531 2.2387,-12.04456 3.3834,-18.08648 5.625,-30.13758 1.4901,2.58261 2.2257,3.88218 3.7187,6.46315 l 0,-6.46315 c 0.7545,-0.86196 1.1577,-1.30165 1.9063,-2.16033 1.4929,18.07092 2.2259,27.11528 3.7187,45.17066 0.7417,-0.86933 1.1294,-1.3105 1.875,-2.17819 l 0,-38.72536 c 1.4989,-3.44949 2.2485,-5.17483 3.75,-8.6235 0.7445,-0.008 1.128,-0.013 1.875,-0.0178 1.4959,-3.45439 2.2259,-5.17728 3.7188,-8.62349 0.7444,0.85134 1.1279,1.29197 1.875,2.14248 l 0,55.77596 c 1.4959,-0.04 2.2513,-0.0646 3.75,-0.10713 l 0,-14.99737 c 1.493,-2.60961 2.2257,-3.91284 3.7188,-6.51672 0.7484,-12.00776 1.1247,-18.00989 1.875,-29.99476 0.7484,0.84399 1.1276,1.26691 1.875,2.10678 0.7414,-0.0156 1.1079,-0.021 1.8437,-0.0357 l 0,-6.40959 c 0.7486,-2.57116 1.1278,-3.84171 1.875,-6.40959 0.7386,-0.0123 1.1023,-0.0267 1.8437,-0.0357 0.7416,0.8407 1.128,1.26608 1.875,2.10677 1.4902,17.00861 2.223,25.49828 3.7188,42.43901 0.7443,-0.88404 1.1393,-1.32986 1.875,-2.21391 l 0,-4.23139 c 0.5804,-16.63557 0.9573,-27.76415 1.4375,-41.54631 0.145,0.55408 0.2461,0.92248 0.4063,1.53545 2.2344,0.27544 3.3394,0.40458 5.5624,0.67846 0.3237,-1.62457 0.5673,-2.82848 0.8126,-4.05287 0.9533,11.44415 1.7195,20.72215 2.875,34.47611 l 0,-6.32032 c 0.7484,-1.71248 1.1219,-2.57658 1.875,-4.28497 1.4728,16.77635 2.206,25.1449 3.6874,41.81411 1.4645,-11.84992 2.2117,-17.74523 3.6876,-29.53054 1.4728,-8.43561 2.1976,-12.65122 3.6562,-21.03203 1.4758,8.28103 2.2146,12.39841 3.6875,20.62139 1.4672,11.54406 2.1933,17.3079 3.6563,28.76282 0.7355,-0.0671 1.0896,-0.0985 1.8124,-0.16069 1.7417,-19.82151 3.5012,-39.63728 5.25,-59.45388 0.08,0.43239 0.1289,0.7295 0.2188,1.21407 l 0,0.64275 c 0.7343,0.26164 1.1052,0.40131 1.8438,0.66059 0.7184,0 1.0541,8.7e-4 1.7812,0 1.4572,-2.08086 2.2048,-3.11475 3.6562,-5.17766 0.1001,-0.53609 0.1627,-0.86694 0.25,-1.33905 0.55,15.43124 0.9357,26.26831 1.5626,43.70663 2.1728,-9.92727 3.2563,-14.86161 5.4062,-24.6564 1.4429,16.8426 2.1622,25.22285 3.5938,41.88553 l 0,-6.0168 c 0.7155,-4.89126 1.0655,-7.32348 1.7812,-12.19429 1.4314,-5.73523 2.1652,-8.58574 3.5938,-14.26536 0.7242,0.73848 1.0684,1.10212 1.7812,1.83896 l 0,7.92718 c 2.1385,2.16717 3.2152,3.25923 5.3438,5.37407 1.4284,6.13431 2.1126,9.16236 3.5312,15.21161 0.7071,-0.10385 1.0713,-0.14773 1.7812,-0.24995 l 0,-19.46088 c 1.4143,-4.82665 2.1199,-7.24797 3.5313,-12.01575 0.71,0.70903 1.0529,1.06914 1.75,1.76754 0.71,-0.83824 1.0557,-1.2523 1.75,-2.08891 l 0,-3.85648 c 1.4084,-5.50624 2.0719,-8.23139 3.4687,-13.65832 1.4013,14.41291 2.1117,21.56296 3.5,35.7616 l 0,-1.89253 c 0.6902,-13.7374 1.0231,-20.56657 1.7188,-34.20829 0.7013,-0.0425 1.0487,-0.0825 1.75,-0.12498 0.69,0.70412 1.0486,1.05293 1.75,1.74969 l 0,24.37074 c 1.367,8.0676 2.0591,12.06466 3.4375,19.9965 0.2934,-4.41612 0.5861,-8.47956 0.8437,-12.33713 l 0,-0.44635 c 0.9091,-13.23894 1.7513,-25.17545 2.5626,-36.81498 0.6846,0.2369 1.0256,0.35566 1.7187,0.58918 1.2483,-2.56946 2.1575,-4.44587 3.0937,-6.37389 0.6094,7.42734 1.2075,14.76072 2,24.46001 l 0,-3.62437 c 0.6773,-0.80144 1.0076,-1.18771 1.6876,-1.9818 0.6655,0.64934 1.019,0.96653 1.6874,1.60687 l 0,32.35148 c 1.3499,-0.27069 2.0382,-0.40449 3.375,-0.67845 l 0,-5.33836 c 0.6801,-6.54157 0.9821,-9.80343 1.6563,-16.28286 1.1516,-11.18574 2.0042,-19.25833 2.875,-27.56661 0.1737,0.80616 0.3028,1.40095 0.5,2.32102 0.66,0.2265 0.9904,0.34718 1.6563,0.57134 0.9985,-2.01679 1.6819,-3.38072 2.5,-4.99913 0.786,14.67 1.4809,27.3892 2.4374,45.33136 1.3142,-5.78512 1.9701,-8.64503 3.2813,-14.31893 0.7169,-10.92182 1.2486,-18.89624 1.7813,-27.01313 0.55,0.18107 0.9081,0.28572 1.5,0.48206 0.9296,-1.21543 1.5571,-2.05054 2.2812,-2.99948 0.8499,3.85237 1.5451,6.95138 2.5625,11.49799 l 0,-1.66042 c 0.253,-3.72948 0.4322,-6.44479 0.625,-9.26624 0.3044,0.44987 0.5841,0.86343 0.9687,1.42833 2.5751,-1.23426 3.8599,-1.84505 6.4063,-3.01733 0.06,-0.58928 0.1016,-0.92643 0.1563,-1.46403 0.5188,16.38729 0.8383,26.88855 1.4062,44.61719 1.8895,-0.5054 2.8365,-0.767 4.7188,-1.28549 l 0,-26.60249 c 1.2437,-2.08539 1.8895,-3.10891 3.125,-5.14196 0.6268,0.52339 0.9356,0.78323 1.5624,1.30334 l 0,29.11991 c 3.0891,-0.88813 4.6231,-1.33926 7.6563,-2.26746 l 0,-4.42779 c 0.6098,-0.76792 0.9244,-1.14983 1.5313,-1.91038 0.6039,-0.16357 0.8986,-0.25677 1.5,-0.4285 l 0,-4.35639 c 0.6011,-1.90383 0.9016,-2.85036 1.5,-4.73131 1.2052,2.02651 1.8061,3.00575 3,4.94556 1.185,-6.019 1.7835,-8.96842 2.9687,-14.80097 0.5926,0.44324 0.8762,0.66138 1.4687,1.08909 l 0,15.24733 c 2.3547,0.94456 3.5321,1.37675 5.8438,2.17819 l 0,-3.9993 c 0.5783,-0.71885 0.8635,-1.09177 1.4375,-1.80325 0.5697,-7.59981 0.8365,-11.35817 1.4063,-18.81814 1.152,-1.27413 1.7426,-1.90825 2.875,-3.14231 0.5697,-0.10713 0.8534,-0.16559 1.4374,-0.26781 l 0,-3.35656 c 0.4199,0.19935 0.849,0.40066 1.4063,0.6606 0.5597,-0.13849 0.8206,-0.21936 1.375,-0.35707 l 0,-1.19622 c 1.1232,0.85052 1.6823,1.27146 2.7813,2.08892 0.6284,-2.27789 1.1159,-3.89485 1.5937,-5.57045 0.4334,11.23748 0.7155,18.90332 1.1875,31.26238 1.6461,-1.61925 2.4479,-2.42913 4.0625,-3.9993 l 0,-3.46368 c 0.3155,-7.18042 0.5407,-12.38201 0.7813,-17.7469 0.1652,0.0538 0.3341,0.10768 0.5624,0.17855 0.5453,-0.12757 0.8382,-0.19772 1.375,-0.32138 l 0,-0.71416 c 1.0618,0.0489 1.6085,0.0758 2.6563,0.12498 0.531,-0.25695 0.7584,-0.3923 1.2813,-0.64274 l 0,-1.03554 c 0.1498,0.01 0.2377,0.009 0.375,0.0179 0.3083,5.14522 0.5877,9.69402 0.9687,16.01506 l 0,-3.21373 c 0.5196,-2.75925 0.7589,-4.11509 1.2813,-6.80238 0.4575,-2.37314 0.8105,-4.0328 1.1562,-5.7847 0.06,0.004 0.094,0.0138 0.1562,0.0178 0.5226,1.22878 0.8015,1.83739 1.3126,3.03518 0.5181,0.14892 0.7419,0.22993 1.25,0.37494 0.5066,-0.50141 0.7734,-0.76269 1.2812,-1.24979 l 0,-0.94625 c 0.3184,0.17915 0.531,0.30729 0.7812,0.44634 0.1635,0.42259 0.2858,0.72719 0.4688,1.19623 l 0,-0.94627 c 0.3772,0.20788 0.7571,0.4279 1.25,0.6963 l 0,1.53546 c 0.5013,0.13694 0.7494,0.20696 1.25,0.33922 0.4928,-0.1109 0.7578,-0.17867 1.25,-0.28566 l 0,-0.58919 c 0.9996,0.51182 1.4869,0.76816 2.4688,1.24978 0.8654,-1.9612 1.3692,-3.08595 2.1562,-4.74916 0.083,1.46867 0.1485,2.71007 0.25,4.4635 0.4953,-0.18483 0.7319,-0.27284 1.2188,-0.46421 l 0,-2.60668 c 0.1103,-0.14625 0.1789,-0.2218 0.2812,-0.35708 0.2674,0.33019 0.5237,0.66799 0.875,1.0891 1.2563,-0.30389 2.0473,-0.47825 3.1562,-0.71417 0.4902,2.83747 0.9463,5.41145 1.5626,8.83774 0,-0.9421 -2e-4,-1.4089 0,-2.35673 0.3028,-2.81233 0.5143,-4.61536 0.75,-6.76667 0.1387,0.37278 0.2435,0.69236 0.4062,1.1248 l 0,0.73202 c 0.4537,0.12365 0.704,0.18479 1.1562,0.30351 0.9119,0.52848 1.3749,0.78029 2.2813,1.26764 0.4461,-3.11336 0.6255,-4.63511 1.0625,-7.60582 0.012,-1.2e-4 0.019,1.3e-4 0.031,0 l 0,9.9447 c 0.892,-0.54303 1.3243,-0.80653 2.1876,-1.35691 l 0,-0.67846 c 0.1025,-1.17631 0.1582,-1.75345 0.25,-2.80308 0.2569,0.94673 0.5069,1.85494 0.8437,3.05305 0.4314,0.0919 0.6971,0.14332 1.125,0.2321 0.4223,-0.0737 0.6092,-0.10982 1.0313,-0.17854 l 0,-0.0179 c 0.4296,0.0104 0.6191,0.0149 1.0624,0.0357 l 0,-22.42465 c 0.012,-0.002 0.019,0.002 0.031,0 l 0,-7.87362 c -0.012,-0.002 -0.02,0.002 -0.031,0 l 0,-24.81708 c -0.4432,0.0208 -0.6327,0.0252 -1.0624,0.0357 -0.4221,-0.0687 -0.609,-0.10487 -1.0313,-0.17854 -0.4279,0.0888 -0.6936,0.12235 -1.125,0.21425 -0.6418,2.28306 -1.0747,3.94435 -1.5937,5.92753 -0.1885,-2.26656 -0.3578,-4.17927 -0.5938,-7.05233 -0.4452,0 -0.6499,0.004 -1.0938,0.0178 -0.1298,2.77592 -0.2378,4.88454 -0.3437,7.10591 -0.2416,-1.71092 -0.4306,-3.21663 -0.75,-5.44548 -0.9064,0.48735 -1.3694,0.73915 -2.2813,1.26763 -0.4522,0.11872 -0.7025,0.17985 -1.1562,0.30353 l 0,0.73201 c -0.456,1.21231 -0.8133,2.2132 -1.1562,3.16016 -0.3542,-2.99876 -0.6909,-6.07618 -1.1563,-10.23035 l 0,7.99859 c -1.385,-0.2927 -2.1422,-0.45986 -3.5625,-0.80342 -0.9461,1.13405 -1.4256,1.72431 -2.375,2.92805 l 0,-0.24995 c -0.9705,-2.03739 -1.4401,-3.11323 -2.4062,-5.30265 -0.9819,0.48163 -1.4692,0.73796 -2.4688,1.24978 l 0,-0.58918 c -0.4922,-0.10699 -0.7572,-0.17476 -1.25,-0.28566 -0.5006,0.13225 -0.7487,0.20229 -1.25,0.33923 l 0,1.5533 c -0.9858,0.53681 -1.4936,0.80852 -2.5,1.37475 l 0,-0.94626 c -0.5078,-0.48709 -0.7745,-0.74838 -1.2812,-1.24978 -0.5082,0.14501 -0.7319,0.22602 -1.25,0.37494 -0.511,1.1978 -0.79,1.80639 -1.3126,3.03518 -1.5518,0.10153 -2.3593,0.15025 -3.9374,0.24995 l 0,-1.03553 c -0.5229,-0.25045 -0.7503,-0.38579 -1.2813,-0.64275 -1.0478,0.0492 -1.5944,0.0761 -2.6563,0.12499 l 0,-0.71416 c -0.5368,-0.12367 -0.8297,-0.19381 -1.375,-0.32138 -0.531,0.1648 -0.7761,0.2435 -1.3124,0.41064 l 0,5.15981 c -0.014,0.0207 -0.017,0.033 -0.031,0.0536 l 0,-10.49816 c -1.6161,-7.35039 -2.4164,-11.15247 -4.0625,-18.97883 l 0,3.58866 c -0.8301,9.11821 -1.4038,15.59953 -2.0938,23.31735 -0.2216,-0.79159 -0.4175,-1.414 -0.6874,-2.39243 -1.0989,0.81745 -1.6581,1.2384 -2.7813,2.08891 l 0,-1.19621 c -0.5544,-0.13772 -0.8153,-0.20073 -1.375,-0.33923 -1.1207,0.52275 -1.6741,0.77917 -2.8125,1.32119 -0.5651,-0.13771 -0.8732,-0.19759 -1.4375,-0.33922 -0.5694,0.18693 -0.8618,0.27234 -1.4375,0.4642 l 0,-15.46158 c -1.7105,-3.05529 -2.5945,-4.60951 -4.3438,-7.8022 l 0,4.05286 c -0.5697,2.54581 -0.8578,3.82684 -1.4374,6.42745 -1.1711,-3.51409 -1.7551,-5.3058 -2.9376,-8.92701 l 0,1.39262 c -0.5924,7.61208 -0.8761,11.44686 -1.4687,19.19306 -0.5926,-0.63706 -0.9131,-0.95916 -1.5,-1.60686 l 0,-9.85542 c -1.1823,-2.48365 -1.7694,-3.75012 -2.9687,-6.30247 l 0,2.85665 c -0.5956,0.45306 -0.9048,0.68306 -1.5,1.14265 -0.5985,-0.69431 -0.899,-1.04556 -1.5,-1.74969 l 0,-2.91021 c -2.4078,-2.27185 -3.6191,-3.43025 -6.0626,-5.7847 -1.2237,-6.27824 -1.8556,-9.46121 -3.0937,-15.90793 -1.2239,11.20713 -1.8499,16.90066 -3.0937,28.44145 -0.6127,-0.0941 -0.9058,-0.13478 -1.5313,-0.2321 -0.6241,-0.71394 -0.9384,-1.07869 -1.5625,-1.80326 l 0,-23.47803 c -1.2553,-2.19987 -1.9052,-3.31101 -3.1562,-5.5526 -0.6314,0.46533 -0.9596,0.70241 -1.5938,1.17836 -0.5665,17.11565 -0.8953,27.28807 -1.4062,43.08175 -0.056,-0.54952 -0.095,-0.89615 -0.1563,-1.49973 -2.5464,-1.1723 -3.8312,-1.76523 -6.4063,-2.99948 -1.2145,1.78368 -1.8943,2.77818 -3.0312,4.49921 -0.074,-0.35314 -0.1087,-0.55338 -0.1875,-0.9284 l 0,-0.37494 c -1.2914,-1.67058 -1.9119,-2.50496 -3.2187,-4.21355 -0.6546,0.21712 -0.9907,0.31616 -1.6563,0.53562 -0.2439,1.98219 -0.4377,3.46172 -0.625,4.98127 -0.3067,-7.70674 -0.5958,-15.10447 -1,-25.26343 -1.3112,-2.92691 -1.9672,-4.39528 -3.2813,-7.37371 -0.6568,12.27109 -0.9949,18.45226 -1.6562,30.85174 -0.1106,0.68572 -0.179,1.09809 -0.2812,1.73184 -1.096,-2.16401 -1.8051,-3.56761 -3,-5.98109 -0.6659,0.22414 -0.9963,0.34483 -1.6563,0.57132 -0.4673,2.17997 -0.8208,3.80435 -1.1875,5.49904 -0.6748,-10.03993 -1.3002,-19.40518 -2.1875,-32.54787 -1.3369,-8.00054 -1.9939,-12.03139 -3.3437,-20.17505 -0.6658,0.58228 -1.0106,0.86063 -1.6876,1.44618 -0.677,15.68704 -1.0218,23.56235 -1.6874,39.38596 -0.6801,-0.0572 -1.0106,-0.0823 -1.6876,-0.14283 -0.7509,4.75771 -1.2982,8.37012 -1.875,12.05146 -0.9812,-2.0186 -1.9208,-3.95233 -3.2187,-6.62384 -0.6931,0.23352 -1.0341,0.35228 -1.7187,0.58919 -0.2791,2.38439 -0.4801,4.16586 -0.6876,5.98109 -0.3091,-8.34319 -0.6195,-16.46351 -1.0312,-27.51303 -0.3055,-0.37517 -0.5832,-0.71365 -0.8438,-1.01769 0,-0.004 0,-0.0135 0,-0.0178 -0.01,-0.008 -0.025,-0.0103 -0.031,-0.0178 -0.7939,-1.02333 -1.4456,-1.82804 -2.4688,-3.08874 l -0.094,0 0,1.87467 c -1.3813,10.29038 -2.0619,15.4904 -3.4375,25.94189 -0.7013,-0.0368 -1.0487,-0.0549 -1.75,-0.0893 -1.3899,-9.89373 -2.0645,-14.88899 -3.4688,-24.9242 l 0,5.71328 c -0.6898,4.49382 -1.0556,6.76527 -1.75,11.3016 -2.784,-0.9552 -4.19,-1.43235 -7,-2.39244 -0.7042,0.72701 -1.04,1.08917 -1.75,1.8211 -0.7099,-0.81861 -1.0527,-1.24917 -1.75,-2.07106 -0.7099,-17.18198 -1.0741,-25.79264 -1.7812,-43.08174 l 0,3.91002 c -2.1184,9.09558 -3.1826,13.68642 -5.3125,22.96027 -0.71,-0.85133 -1.0827,-1.27166 -1.7813,-2.12463 -1.4228,3.82975 -2.1283,5.76398 -3.5624,9.64118 -1.4287,-3.28266 -2.1624,-4.93403 -3.5938,-8.24856 -1.4343,-4.91171 -2.1595,-7.37962 -3.5938,-12.33713 -0.7242,11.18832 -1.054,16.8031 -1.7812,28.04867 -1.4457,-5.71397 -2.1678,-8.60127 -3.625,-14.37249 -0.7214,-0.0475 -1.0628,-0.0775 -1.7812,-0.12498 l 0,6.10607 c -0.5766,9.61862 -0.9579,16.03228 -1.4376,24.10293 -0.1235,-0.67017 -0.2253,-1.19759 -0.375,-1.99965 -1.4514,-2.06291 -2.199,-3.11465 -3.6562,-5.19552 -0.7271,-8.7e-4 -1.0627,0 -1.7812,0 -0.7386,0.25929 -1.1095,0.39897 -1.8438,0.6606 l 0,0.64275 c -0.4303,2.32004 -0.7634,4.05499 -1.0938,5.8204 -0.219,-3.74265 -0.4259,-7.37114 -0.7187,-12.30142 -2.1757,-9.13237 -3.2716,-13.74352 -5.4687,-22.97812 -0.7273,0.78345 -1.1124,1.19507 -1.8438,1.9818 -1.4644,-5.88243 -2.1935,-8.84277 -3.6562,-14.76528 -0.7389,16.59317 -1.108,24.91131 -1.8438,41.56416 -0.73,-0.0196 -1.1037,-0.034 -1.8438,-0.0536 l -1.8437,-2.14248 c -0.7357,-14.23626 -1.0725,-21.37405 -1.8125,-35.65448 -1.4758,-7.62188 -2.2204,-11.4451 -3.6875,-19.10379 -0.7487,18.43403 -1.1166,27.67922 -1.8437,46.17049 -1.4846,-0.045 -2.243,-0.0825 -3.7188,-0.12498 -0.4417,6.95873 -0.7669,12.13861 -1.0938,17.42552 -0.2304,-1.1506 -0.4477,-2.26806 -0.75,-3.78505 -2.2229,0.27388 -3.328,0.40302 -5.5624,0.67845 -0.3312,1.26778 -0.5378,2.12938 -0.8126,3.17802 -0.9605,-11.49788 -1.7567,-20.83806 -2.9062,-34.77963 -0.7486,-0.0221 -1.0936,-0.0306 -1.8438,-0.0535 0,11.90879 -0.031,17.87333 -0.031,29.7805 -1.1838,2.00436 -1.9569,3.33937 -2.9375,5.01697 -0.2508,-0.13732 -0.4503,-0.24732 -0.75,-0.41064 -0.6867,0.16898 -1.178,0.2946 -1.7187,0.42849 -1.2224,-0.95025 -2.3131,-1.80762 -3.875,-3.01732 l 0,2.12463 c -0.3141,0.35572 -0.5432,0.62269 -0.7813,0.89269 -0.3315,-0.119 -0.6572,-0.23564 -1.0937,-0.39278 -0.4321,0.15804 -0.7467,0.27363 -1.0626,0.39278 -0.2418,-0.27564 -0.4924,-0.54417 -0.8124,-0.91055 -0.7487,-17.98914 -1.128,-26.9858 -1.875,-44.99212 -1.4989,-8.60244 -2.2259,-12.91479 -3.7188,-21.53195 -0.7487,0.83579 -1.1249,1.24741 -1.875,2.08892 -0.7285,25.96971 -1.1324,39.55996 -1.8438,64.97078 -0.4122,0.15098 -0.7191,0.26181 -1.0312,0.37492 -0.2533,-0.30063 -0.4974,-0.60251 -0.8438,-0.99981 l 0,-4.28497 c -2.2443,-1.7321 -3.3832,-2.60643 -5.625,-4.33853 -1.4956,-23.23206 -2.254,-34.84773 -3.75,-58.09697 -0.7442,0.84887 -1.1277,1.27085 -1.875,2.12462 -0.7572,21.51223 -1.1277,32.27457 -1.875,53.79416 -1.4986,-2.58588 -2.2397,-3.88054 -3.75,-6.46315 -0.7456,0.86114 -1.0937,1.28134 -1.8437,2.14248 -0.7458,-0.86114 -1.1577,-1.27889 -1.9063,-2.14248 -1.4956,-9.46767 -2.22,-14.20594 -3.7187,-23.67443 -1.5015,-10.32472 -2.2485,-15.48497 -3.75,-25.79906 z m -271.3437,60.32873 c 0.2446,0.051 0.4258,0.0986 0.7187,0.16068 0.2688,-0.0608 0.4545,-0.11396 0.6563,-0.16068 l -1.375,0 z m 0.7187,57.7756 c -0.2929,0.0622 -0.4741,0.10971 -0.7187,0.16069 l 1.375,0 c -0.2019,-0.0468 -0.3875,-0.0999 -0.6563,-0.16069 z"
       id="path4048"
       inkscape:connector-curvature="0" />
    <g
       style="font-size:60.81978988999999558px;font-style:normal;font-variant:normal;font-weight:bold;font-stretch:normal;text-align:start;line-height:125%;writing-mode:lr-tb;text-anchor:start;fill:#363636;fill-opacity:1;fill-rule:nonzero;stroke:none;font-family:Montserrat;-inkscape-font-specification:Montserrat Bold"
       id="text4094" />
  </g>
</svg>
