<?xml version="1.0" encoding="UTF-8" standalone="no"?>
<!-- Created with Inkscape (http://www.inkscape.org/) -->

<svg
   xmlns:dc="http://purl.org/dc/elements/1.1/"
   xmlns:cc="http://creativecommons.org/ns#"
   xmlns:rdf="http://www.w3.org/1999/02/22-rdf-syntax-ns#"
   xmlns:svg="http://www.w3.org/2000/svg"
   xmlns="http://www.w3.org/2000/svg"
   xmlns:sodipodi="http://sodipodi.sourceforge.net/DTD/sodipodi-0.dtd"
   xmlns:inkscape="http://www.inkscape.org/namespaces/inkscape"
   width="16"
   height="16"
   id="svg3003"
   version="1.1"
   inkscape:version="0.48.5 r10040"
   sodipodi:docname="app-js-16.svg"
   inkscape:export-filename="C:\wamp\www\TESTY\git-hub\system-icons\file-types\app-js\app-js-16.png"
   inkscape:export-xdpi="90"
   inkscape:export-ydpi="90">
  <defs
     id="defs3005">
    <clipPath
       id="clipPath3008"
       clipPathUnits="userSpaceOnUse">
      <path
         id="path3010"
         d="M 0,4105.95 0,0 l 5477.71,0 0,4105.95 -5477.71,0 z"
         inkscape:connector-curvature="0" />
    </clipPath>
    <clipPath
       id="clipPath3008-4"
       clipPathUnits="userSpaceOnUse">
      <path
         id="path3010-0"
         d="M 0,4105.95 0,0 l 5477.71,0 0,4105.95 -5477.71,0 z" />
    </clipPath>
    <clipPath
       clipPathUnits="userSpaceOnUse"
       id="clipPath3008-40">
      <path
         inkscape:connector-curvature="0"
         d="M 0,4105.95 0,0 l 5477.71,0 0,4105.95 -5477.71,0 z"
         id="path3010-9" />
    </clipPath>
    <clipPath
       id="clipPath3008-40-2"
       clipPathUnits="userSpaceOnUse">
      <path
         id="path3010-9-4"
         d="M 0,4105.95 0,0 l 5477.71,0 0,4105.95 -5477.71,0 z" />
    </clipPath>
    <clipPath
       id="clipPath3008-4-8"
       clipPathUnits="userSpaceOnUse">
      <path
         id="path3010-0-8"
         d="M 0,4105.95 0,0 l 5477.71,0 0,4105.95 -5477.71,0 z" />
    </clipPath>
    <clipPath
       clipPathUnits="userSpaceOnUse"
       id="clipPath3008-409">
      <path
         inkscape:connector-curvature="0"
         d="M 0,4105.95 0,0 l 5477.71,0 0,4105.95 -5477.71,0 z"
         id="path3010-4" />
    </clipPath>
  </defs>
  <sodipodi:namedview
     id="base"
     pagecolor="#ffffff"
     bordercolor="#666666"
     borderopacity="1.0"
     inkscape:pageopacity="0.0"
     inkscape:pageshadow="2"
     inkscape:zoom="62.225397"
     inkscape:cx="7.179032"
     inkscape:cy="9.7472275"
     inkscape:current-layer="layer1"
     showgrid="true"
     inkscape:document-units="px"
     inkscape:grid-bbox="true"
     showguides="true"
     inkscape:guide-bbox="true"
     inkscape:window-width="1920"
     inkscape:window-height="1028"
     inkscape:window-x="1592"
     inkscape:window-y="-8"
     inkscape:window-maximized="1">
    <inkscape:grid
       type="xygrid"
       id="grid3011"
       empspacing="4"
       visible="true"
       enabled="true"
       snapvisiblegridlinesonly="true" />
    <sodipodi:guide
       orientation="1,0"
       position="1,3"
       id="guide3013" />
    <sodipodi:guide
       orientation="0,1"
       position="184,496"
       id="guide3015" />
    <sodipodi:guide
       orientation="0,1"
       position="5,1"
       id="guide3017" />
    <sodipodi:guide
       orientation="1,0"
       position="496,248"
       id="guide3019" />
    <sodipodi:guide
       orientation="1,0"
       position="56,96"
       id="guide3104" />
    <sodipodi:guide
       orientation="0,1"
       position="64,56"
       id="guide3106" />
    <sodipodi:guide
       orientation="1,0"
       position="15,3"
       id="guide3018" />
    <sodipodi:guide
       orientation="0,1"
       position="7,15"
       id="guide3020" />
  </sodipodi:namedview>
  <metadata
     id="metadata3008">
    <rdf:RDF>
      <cc:Work
         rdf:about="">
        <dc:format>image/svg+xml</dc:format>
        <dc:type
           rdf:resource="http://purl.org/dc/dcmitype/StillImage" />
        <dc:title></dc:title>
      </cc:Work>
    </rdf:RDF>
  </metadata>
  <g
     id="layer1"
     inkscape:label="Layer 1"
     inkscape:groupmode="layer"
     transform="translate(0,-48)">
    <path
       style="fill:#e4a227;fill-opacity:1;fill-rule:nonzero;stroke:none"
       d="m 1,49 14,0 0,14 -14,0 z"
       id="rect3021"
       inkscape:connector-curvature="0" />
    <path
       style="fill:#f0bf26;fill-opacity:1;fill-rule:nonzero;stroke:none"
       d="m 8,50 6,0 0,12 -6,0 z"
       id="rect3791"
       inkscape:connector-curvature="0"
       sodipodi:nodetypes="ccccc" />
    <flowRoot
       xml:space="preserve"
       id="flowRoot3180"
       style="font-size:1.60000002px;font-style:normal;font-variant:normal;font-weight:bold;font-stretch:normal;line-height:125%;letter-spacing:0px;word-spacing:0px;fill:#000000;fill-opacity:1;stroke:none;font-family:Courier New;-inkscape-font-specification:Courier New Bold"
       transform="translate(-55.588674,12.47191)"><flowRegion
         id="flowRegion3182"><rect
           id="rect3184"
           width="28.669966"
           height="40.240803"
           x="-37.862354"
           y="0.36038893"
           style="font-size:1.60000002px;font-style:normal;font-variant:normal;font-weight:bold;font-stretch:normal;font-family:Courier New;-inkscape-font-specification:Courier New Bold" /></flowRegion><flowPara
         id="flowPara3186" /></flowRoot>    <flowRoot
       xml:space="preserve"
       id="flowRoot3180-2"
       style="font-size:1.60000002px;font-style:normal;font-variant:normal;font-weight:bold;font-stretch:normal;line-height:125%;letter-spacing:0px;word-spacing:0px;fill:#000000;fill-opacity:1;stroke:none;font-family:Courier New;-inkscape-font-specification:Courier New Bold"
       transform="translate(21.43203,7.366822)"><flowRegion
         id="flowRegion3182-3"><rect
           id="rect3184-2"
           width="28.669966"
           height="40.240803"
           x="-37.862354"
           y="0.36038893"
           style="font-size:1.60000002px;font-style:normal;font-variant:normal;font-weight:bold;font-stretch:normal;font-family:Courier New;-inkscape-font-specification:Courier New Bold" /></flowRegion><flowPara
         id="flowPara3186-2" /></flowRoot>    <g
       id="g3993"
       transform="matrix(0.79312796,0,0,0.79312796,-13.998471,10.787906)">
      <polygon
         transform="matrix(0.05393972,0,0,0.05393972,0.12886077,42.9358)"
         style="fill:#ebebeb"
         points="470.059,327.773 467.406,298.075 447.256,298.075 430.027,298.075 435.244,356.543 511.521,377.719 511.693,377.67 511.693,338.926 511.531,338.973 "
         id="polygon4033" />
      <polygon
         transform="matrix(0.05393972,0,0,0.05393972,0.12886077,42.9358)"
         style="fill:#ebebeb"
         points="476.232,183.758 516.812,182.677 516.709,143.954 442.565,143.954 439.811,171.403 431.059,269.438 430.151,279.437 440.186,279.437 516.709,279.437 516.709,242.2 470.855,242.2 "
         id="polygon4035" />
      <polygon
         transform="matrix(0.05393972,0,0,0.05393972,0.12886077,42.9358)"
         style="fill:#ffffff"
         points="557.291,185.132 560.742,223.579 580.893,223.579 598.123,223.579 591.609,151.633 516.629,143.937 516.457,143.985 516.457,182.729 516.62,182.683 "
         id="polygon4037" />
      <polyline
         transform="matrix(0.05393972,0,0,0.05393972,0.12886077,42.9358)"
         style="fill:#ffffff"
         points="594.284,182.843 591.093,143.954 512.49,143.954 512.49,168.106 512.49,182.746 512.49,182.843    594.284,182.843  "
         id="polyline4039" />
      <polygon
         transform="matrix(0.05393972,0,0,0.05393972,0.12886077,42.9358)"
         style="fill:#ffffff"
         points="553.096,327.748 511.564,338.959 511.564,377.701 587.904,356.543 588.463,350.252 597.215,252.217 598.123,242.218 588.088,242.218 511.564,242.218 511.564,279.454 557.418,279.454 "
         id="polygon4041" />
      <path
         style="fill:#ffffff"
         inkscape:connector-curvature="0"
         d="M 31.926326,52.7093"
         id="path4043-4" />
    </g>
  </g>
</svg>
