<?xml version="1.0" encoding="UTF-8" standalone="no"?>
<!-- Created with Inkscape (http://www.inkscape.org/) -->

<svg
   xmlns:dc="http://purl.org/dc/elements/1.1/"
   xmlns:cc="http://creativecommons.org/ns#"
   xmlns:rdf="http://www.w3.org/1999/02/22-rdf-syntax-ns#"
   xmlns:svg="http://www.w3.org/2000/svg"
   xmlns="http://www.w3.org/2000/svg"
   xmlns:sodipodi="http://sodipodi.sourceforge.net/DTD/sodipodi-0.dtd"
   xmlns:inkscape="http://www.inkscape.org/namespaces/inkscape"
   width="16"
   height="16"
   id="svg3003"
   version="1.1"
   inkscape:version="0.48.5 r10040"
   sodipodi:docname="app-sass-16.svg"
   inkscape:export-filename="C:\wamp\www\TESTY\git-hub\system-icons\file-types\app-sass\app-sass-16.png"
   inkscape:export-xdpi="90"
   inkscape:export-ydpi="90">
  <defs
     id="defs3005">
    <clipPath
       id="clipPath3008"
       clipPathUnits="userSpaceOnUse">
      <path
         id="path3010"
         d="M 0,4105.95 0,0 l 5477.71,0 0,4105.95 -5477.71,0 z"
         inkscape:connector-curvature="0" />
    </clipPath>
  </defs>
  <sodipodi:namedview
     id="base"
     pagecolor="#ffffff"
     bordercolor="#666666"
     borderopacity="1.0"
     inkscape:pageopacity="0.0"
     inkscape:pageshadow="2"
     inkscape:zoom="43.999999"
     inkscape:cx="1.6907833"
     inkscape:cy="7.4060175"
     inkscape:current-layer="layer1"
     showgrid="true"
     inkscape:document-units="px"
     inkscape:grid-bbox="true"
     showguides="true"
     inkscape:guide-bbox="true"
     inkscape:window-width="1920"
     inkscape:window-height="1028"
     inkscape:window-x="1592"
     inkscape:window-y="-8"
     inkscape:window-maximized="1">
    <inkscape:grid
       type="xygrid"
       id="grid3011"
       empspacing="4"
       visible="true"
       enabled="true"
       snapvisiblegridlinesonly="true" />
    <sodipodi:guide
       orientation="1,0"
       position="1,3"
       id="guide3013" />
    <sodipodi:guide
       orientation="0,1"
       position="184,496"
       id="guide3015" />
    <sodipodi:guide
       orientation="0,1"
       position="5,1"
       id="guide3017" />
    <sodipodi:guide
       orientation="1,0"
       position="496,248"
       id="guide3019" />
    <sodipodi:guide
       orientation="1,0"
       position="56,96"
       id="guide3104" />
    <sodipodi:guide
       orientation="0,1"
       position="64,56"
       id="guide3106" />
    <sodipodi:guide
       orientation="1,0"
       position="15,3"
       id="guide3018" />
    <sodipodi:guide
       orientation="0,1"
       position="7,15"
       id="guide3020" />
  </sodipodi:namedview>
  <metadata
     id="metadata3008">
    <rdf:RDF>
      <cc:Work
         rdf:about="">
        <dc:format>image/svg+xml</dc:format>
        <dc:type
           rdf:resource="http://purl.org/dc/dcmitype/StillImage" />
        <dc:title></dc:title>
      </cc:Work>
    </rdf:RDF>
  </metadata>
  <g
     id="layer1"
     inkscape:label="Layer 1"
     inkscape:groupmode="layer"
     transform="translate(0,-48)">
    <path
       style="fill:#d3d3d3;fill-opacity:1;fill-rule:nonzero;stroke:none"
       d="m 1,49 14,0 0,14 -14,0 z"
       id="rect3021"
       inkscape:connector-curvature="0" />
    <path
       style="fill:#fefefe;fill-opacity:1;fill-rule:nonzero;stroke:none"
       d="m 2,50 12,0 0,12 -12,0 z"
       id="rect3791"
       inkscape:connector-curvature="0"
       sodipodi:nodetypes="ccccc" />
    <g
       transform="matrix(0.02435492,0,0,-0.02435492,1.32954,61.000008)"
       inkscape:label="ink_ext_XXXXXX"
       id="g3000"
       style="fill:#ff0000;fill-opacity:1">
      <g
         transform="scale(0.1,0.1)"
         id="g3002"
         style="fill:#ff0000;fill-opacity:1">
        <g
           id="g3004"
           style="fill:#ff0000;fill-opacity:1">
          <g
             clip-path="url(#clipPath3008)"
             id="g3006"
             style="fill:#ff0000;fill-opacity:1">
            <path
               id="path3012"
               style="fill:#ff0000;fill-opacity:1;fill-rule:nonzero;stroke:none"
               d="m 2055.366,508.05722 c -157.797,-172.149 -378.261,-237.207 -472.797,-182.411 -102.082,59.192 -61.652,312.633 131.997,495.313 118.031,111.328 270.398,213.86898 371.48,277.02898 23,13.84 56.8,34.17 97.87,58.78 6.81,3.88 10.65,6.03 10.65,6.03 l -0.15,0.26 c 7.93,4.74 16.05,9.61 24.44,14.62 70.46,-260.01998 2.14,-488.93798 -163.49,-669.62098 z m 775.9,1189.67098 c -67.98,-37.08 -213.45,-116.49 -367.79,-201.29 -59.28,-32.56 -119.77,-65.85 -177.13,-97.45 -3.9,4.32 -7.79,8.65 -11.8,12.93 -306.074,326.55 -871.887,557.52 -847.875,996.53 8.727,159.6 64.203,579.84 1087.205,1089.6 838,417.58 1508.86,302.67 1624.8,48 165.62,-363.84 -358.54,-1040.05 -1228.81,-1137.6 -331.58,-37.17 -506.17,91.33 -549.6,139.2 -45.71,50.38 -52.53,52.65 -69.6,43.2 -27.8,-15.41 -10.18,-59.89 0,-86.4 25.99,-67.63 132.61,-187.55 314.4,-247.2 159.92,-52.48 549.22,-81.31 1020,100.8 527.3,203.96 939.04,771.34 818.1,1245.6 -122.99,482.35 -922.76,640.92 -1679.69,372 -450.49,-160.04 -938.164,-411.23 -1288.801,-739.2 -416.9181,-389.97 -483.4024,-729.38 -456.0079,-871.2 97.3399,-503.91 791.8909,-832.06 1070.0189,-1075.26 -13.73,-7.57 -26.6,-14.68 -38.31,-21.14 -139.443,-68.98 -668.877,-346.04898 -801.307,-638.79898 -150.2183,-332.071 23.915,-570.320504 139.2,-602.398704 357.183,-99.3906 723.717,79.378704 920.697,373.187704 196.94,293.742 172.89,676.21998 82.5,850.80998 -1.12,2.17 -2.36,4.29 -3.51,6.44 36,21.31 72.72,42.98 109.11,64.35 70.97,41.67 140.63,80.55 201.09,113.45"
               inkscape:connector-curvature="0"
               sodipodi:nodetypes="ccccccccccccccscscccccccssccssscccc" />
          </g>
        </g>
      </g>
    </g>
  </g>
</svg>
