<?xml version="1.0" encoding="UTF-8" standalone="no"?>
<!-- Created with Inkscape (http://www.inkscape.org/) -->

<svg
   xmlns:dc="http://purl.org/dc/elements/1.1/"
   xmlns:cc="http://creativecommons.org/ns#"
   xmlns:rdf="http://www.w3.org/1999/02/22-rdf-syntax-ns#"
   xmlns:svg="http://www.w3.org/2000/svg"
   xmlns="http://www.w3.org/2000/svg"
   xmlns:xlink="http://www.w3.org/1999/xlink"
   xmlns:sodipodi="http://sodipodi.sourceforge.net/DTD/sodipodi-0.dtd"
   xmlns:inkscape="http://www.inkscape.org/namespaces/inkscape"
   width="16"
   height="16"
   id="svg3003"
   version="1.1"
   inkscape:version="0.91 r13725"
   sodipodi:docname="app-music-m4a-16.svg"
   inkscape:export-filename="C:\wamp\www\TESTY\git-hub\system-icons\file-types\app-music-m4a\app-music-m4a-16.png"
   inkscape:export-xdpi="90"
   inkscape:export-ydpi="90">
  <defs
     id="defs3005">
    <clipPath
       id="clipPath3008"
       clipPathUnits="userSpaceOnUse">
      <path
         id="path3010"
         d="M 0,4105.95 0,0 l 5477.71,0 0,4105.95 -5477.71,0 z"
         inkscape:connector-curvature="0" />
    </clipPath>
    <radialGradient
       gradientUnits="userSpaceOnUse"
       gradientTransform="matrix(1,0,0,2.2456143,0,239.15795)"
       r="9"
       fy="-192"
       fx="193.6465"
       cy="-192"
       cx="193.6465"
       id="radialGradient10510"
       xlink:href="#linearGradient10512"
       inkscape:collect="always" />
    <linearGradient
       gradientTransform="translate(0,-16)"
       y2="29"
       x2="20"
       y1="28"
       x1="20"
       gradientUnits="userSpaceOnUse"
       id="linearGradient9867"
       xlink:href="#linearGradient8521"
       inkscape:collect="always" />
    <linearGradient
       gradientTransform="translate(0,-16)"
       y2="36"
       x2="20"
       y1="35"
       x1="20"
       gradientUnits="userSpaceOnUse"
       id="linearGradient9746"
       xlink:href="#linearGradient8521"
       inkscape:collect="always" />
    <linearGradient
       y2="36"
       x2="20"
       y1="35"
       x1="20"
       gradientUnits="userSpaceOnUse"
       id="linearGradient9625"
       xlink:href="#linearGradient8521"
       inkscape:collect="always" />
    <linearGradient
       y2="29"
       x2="20"
       y1="28"
       x1="20"
       gradientUnits="userSpaceOnUse"
       id="linearGradient9623"
       xlink:href="#linearGradient8521"
       inkscape:collect="always" />
    <mask
       id="mask9139"
       maskUnits="userSpaceOnUse">
      <path
         inkscape:connector-curvature="0"
         style="fill:#ffffff;fill-opacity:1;fill-rule:nonzero;stroke:none"
         d="m 286.24563,-362.52631 0,101.05262 141.47367,0 c 20.21053,0 10.10527,0 0,-20.21052 l 0,-60.63158 c 10.10527,-20.21052 20.21053,-20.21052 0,-20.21052 z"
         id="path9141"
         sodipodi:nodetypes="ccccccc" />
    </mask>
    <mask
       id="mask9133"
       maskUnits="userSpaceOnUse">
      <path
         inkscape:connector-curvature="0"
         style="fill:#ffffff;fill-opacity:1;fill-rule:nonzero;stroke:none"
         d="m 286.24563,-402.52632 0,101.05263 141.47367,0 c 20.21053,0 10.10526,0 0,-20.21053 l 0,-60.63157 c 10.10526,-20.21053 20.21053,-20.21053 0,-20.21053 z"
         id="path9135"
         sodipodi:nodetypes="ccccccc" />
    </mask>
    <linearGradient
       gradientTransform="translate(0,-20)"
       gradientUnits="userSpaceOnUse"
       y2="29"
       x2="35"
       y1="28"
       x1="35"
       id="linearGradient9044"
       xlink:href="#linearGradient8521"
       inkscape:collect="always" />
    <linearGradient
       gradientTransform="translate(0,-20)"
       gradientUnits="userSpaceOnUse"
       y2="36"
       x2="35"
       y1="35"
       x1="35"
       id="linearGradient9036"
       xlink:href="#linearGradient8521"
       inkscape:collect="always" />
    <mask
       id="mask8563"
       maskUnits="userSpaceOnUse">
      <path
         style="fill:#ffffff;fill-opacity:1;fill-rule:nonzero;stroke:none"
         d="m -337.00728,-317.16913 c -20.21052,0 -10.10526,0 0,20.21052 l 0,60.63158 c -10.10526,20.21052 -20.21052,20.21052 0,20.21052 l 282.947349,0 c 15.999996,0 33.531798,-16.16031 42.059932,-30.52632 6.1255674,-10.31879 5.7745106,-25.48073 0,-36 -8.365601,-15.23939 -26.059936,-34.5263 -42.059932,-34.5263 z m 20.21052,40.42105 20.21053,0 c 4.432,0 9.51904,1e-5 10.10526,10.10526 -0.5862,10.10527 -5.67326,10.10526 -10.10526,10.10526 l -20.21053,0 c -4.432,0 -10.10526,0 -10.10526,-10.10526 0,-10.10526 5.67326,-10.10526 10.10526,-10.10526 z m 60.63158,0 20.21052,0 c 4.432,0 10.10527,0 10.10527,10.10526 0,10.10526 -5.67327,10.10526 -10.10527,10.10526 l -20.21052,0 c -4.432,0 -10.10526,0 -10.10526,-10.10526 0,-10.10526 5.67326,-10.10526 10.10526,-10.10526 z m 70.73684,0 20.21052,0 c 4.432,0 10.10526,0 10.10526,10.10526 0,10.10526 -5.67326,10.10526 -10.10526,10.10526 l -20.21052,0 c -4.432,0 -10.10527,0 -10.10527,-10.10526 0,-10.10526 5.67327,-10.10526 10.10527,-10.10526 z"
         id="path8565"
         inkscape:connector-curvature="0"
         sodipodi:nodetypes="ccccsssscsscssssssssssssssssss" />
    </mask>
    <mask
       id="mask8557"
       maskUnits="userSpaceOnUse">
      <path
         style="fill:#ffffff;fill-opacity:1;fill-rule:nonzero;stroke:none"
         d="m -337.00728,-246.52631 c -20.21052,0 -10.10526,0 0,20.21053 l 0,60.63157 c -10.10526,20.21053 -20.21052,20.21053 0,20.21053 l 282.947349,0 c 15.999996,0 33.531798,-16.16032 42.059932,-30.52632 6.1255674,-10.31879 5.7745106,-25.48073 0,-36 -8.365601,-15.23939 -26.059936,-34.52631 -42.059932,-34.52631 z m 20.21052,40.42105 20.21053,0 c 4.432,0 9.51904,10e-6 10.10526,10.10527 -0.5862,10.10527 -5.67326,10.10526 -10.10526,10.10526 l -20.21053,0 c -4.432,0 -10.10526,0 -10.10526,-10.10526 0,-10.10527 5.67326,-10.10527 10.10526,-10.10527 z m 60.63158,0 20.21052,0 c 4.432,0 10.10527,0 10.10527,10.10527 0,10.10526 -5.67327,10.10526 -10.10527,10.10526 l -20.21052,0 c -4.432,0 -10.10526,0 -10.10526,-10.10526 0,-10.10527 5.67326,-10.10527 10.10526,-10.10527 z m 70.73684,0 20.21052,0 c 4.432,0 10.10526,0 10.10526,10.10527 0,10.10526 -5.67326,10.10526 -10.10526,10.10526 l -20.21052,0 c -4.432,0 -10.10527,0 -10.10527,-10.10526 0,-10.10527 5.67327,-10.10527 10.10527,-10.10527 z"
         id="path8559"
         inkscape:connector-curvature="0"
         sodipodi:nodetypes="ccccsssscsscssssssssssssssssss" />
    </mask>
    <linearGradient
       gradientTransform="matrix(0.09895834,0,0,0.09895834,51.349681,51.395834)"
       y2="-229"
       x2="-224"
       y1="-228"
       x1="-224"
       gradientUnits="userSpaceOnUse"
       id="linearGradient7631"
       xlink:href="#linearGradient4084-8"
       inkscape:collect="always" />
    <linearGradient
       gradientTransform="matrix(0.09895834,0,0,0.09895834,51.349681,51.395834)"
       y2="-234"
       x2="-213"
       y1="-236"
       x1="-213"
       gradientUnits="userSpaceOnUse"
       id="linearGradient7628"
       xlink:href="#linearGradient4084-8"
       inkscape:collect="always" />
    <linearGradient
       y2="-229"
       x2="-224"
       y1="-228"
       x1="-224"
       gradientTransform="matrix(0.09895834,0,0,-0.09895834,51.349681,12.604155)"
       gradientUnits="userSpaceOnUse"
       id="linearGradient7387"
       xlink:href="#linearGradient4084-8"
       inkscape:collect="always" />
    <linearGradient
       y2="-234"
       x2="-213"
       y1="-236"
       x1="-213"
       gradientTransform="matrix(0.09895834,0,0,-0.09895834,51.349681,12.604155)"
       gradientUnits="userSpaceOnUse"
       id="linearGradient7384"
       xlink:href="#linearGradient4084-8"
       inkscape:collect="always" />
    <linearGradient
       id="linearGradient5094">
      <stop
         style="stop-color:#d4d4d4;stop-opacity:1;"
         offset="0"
         id="stop5096" />
      <stop
         style="stop-color:#ffffff;stop-opacity:1;"
         offset="1"
         id="stop5098" />
    </linearGradient>
    <linearGradient
       id="linearGradient5087">
      <stop
         style="stop-color:#d4d4d4;stop-opacity:1;"
         offset="0"
         id="stop5089" />
      <stop
         style="stop-color:#ffffff;stop-opacity:1;"
         offset="1"
         id="stop5091" />
    </linearGradient>
    <linearGradient
       id="linearGradient5080">
      <stop
         id="stop5082"
         offset="0"
         style="stop-color:#8b4513;stop-opacity:1;" />
      <stop
         id="stop5084"
         offset="1"
         style="stop-color:#5a3920;stop-opacity:1;" />
    </linearGradient>
    <linearGradient
       id="linearGradient5073">
      <stop
         id="stop5075"
         offset="0"
         style="stop-color:#8b4513;stop-opacity:1;" />
      <stop
         id="stop5077"
         offset="1"
         style="stop-color:#5a3920;stop-opacity:1;" />
    </linearGradient>
    <linearGradient
       id="linearGradient5062">
      <stop
         id="stop5064"
         offset="0"
         style="stop-color:#8b4513;stop-opacity:1;" />
      <stop
         id="stop5066"
         offset="1"
         style="stop-color:#5a3920;stop-opacity:1;" />
    </linearGradient>
    <linearGradient
       id="linearGradient5055">
      <stop
         id="stop5057"
         offset="0"
         style="stop-color:#8b4513;stop-opacity:1;" />
      <stop
         id="stop5059"
         offset="1"
         style="stop-color:#5a3920;stop-opacity:1;" />
    </linearGradient>
    <linearGradient
       id="linearGradient5042">
      <stop
         id="stop5044"
         offset="0"
         style="stop-color:#8b4513;stop-opacity:1;" />
      <stop
         id="stop5046"
         offset="1"
         style="stop-color:#5a3920;stop-opacity:1;" />
    </linearGradient>
    <linearGradient
       id="linearGradient5035">
      <stop
         id="stop5037"
         offset="0"
         style="stop-color:#8b4513;stop-opacity:1;" />
      <stop
         id="stop5039"
         offset="1"
         style="stop-color:#5a3920;stop-opacity:1;" />
    </linearGradient>
    <linearGradient
       id="linearGradient5028">
      <stop
         id="stop5030"
         offset="0"
         style="stop-color:#8b4513;stop-opacity:1;" />
      <stop
         id="stop5032"
         offset="1"
         style="stop-color:#5a3920;stop-opacity:1;" />
    </linearGradient>
    <linearGradient
       id="linearGradient4084-8">
      <stop
         id="stop4086-8"
         offset="0"
         style="stop-color:#8b4513;stop-opacity:1;" />
      <stop
         id="stop4088-2"
         offset="1"
         style="stop-color:#5a3920;stop-opacity:1;" />
    </linearGradient>
    <linearGradient
       id="linearGradient5017">
      <stop
         style="stop-color:#d4d4d4;stop-opacity:1;"
         offset="0"
         id="stop5019" />
      <stop
         style="stop-color:#ffffff;stop-opacity:1;"
         offset="1"
         id="stop5021" />
    </linearGradient>
    <linearGradient
       id="linearGradient7905-7">
      <stop
         style="stop-color:#d4d4d4;stop-opacity:1;"
         offset="0"
         id="stop7907-4" />
      <stop
         style="stop-color:#ffffff;stop-opacity:1;"
         offset="1"
         id="stop7909-0" />
    </linearGradient>
    <linearGradient
       id="linearGradient7905">
      <stop
         style="stop-color:#d4d4d4;stop-opacity:1;"
         offset="0"
         id="stop7907" />
      <stop
         style="stop-color:#ffffff;stop-opacity:1;"
         offset="1"
         id="stop7909" />
    </linearGradient>
    <linearGradient
       id="linearGradient4084">
      <stop
         id="stop4086"
         offset="0"
         style="stop-color:#8b4513;stop-opacity:1;" />
      <stop
         id="stop4088"
         offset="1"
         style="stop-color:#5a3920;stop-opacity:1;" />
    </linearGradient>
    <linearGradient
       id="linearGradient4066">
      <stop
         style="stop-color:#7f4124;stop-opacity:1;"
         offset="0"
         id="stop4068" />
      <stop
         style="stop-color:#8b4513;stop-opacity:1;"
         offset="1"
         id="stop4070" />
    </linearGradient>
    <clipPath
       id="clipPath3008-4"
       clipPathUnits="userSpaceOnUse">
      <path
         id="path3010-0"
         d="M 0,4105.95 0,0 l 5477.71,0 0,4105.95 -5477.71,0 z" />
    </clipPath>
    <mask
       maskUnits="userSpaceOnUse"
       id="mask6083">
      <path
         inkscape:connector-curvature="0"
         id="path6085"
         d="m -346,-240 c -6,0 2,4 2,8 l 0,72.5 c -0.65399,3.82668 -7.75,7.5 -2,7.5 l 290,0 c 16,0 35.47187,-9.634 44,-24 6.12557,-10.31879 5.77451,-25.48073 0,-36 -8.3656,-15.23939 -28,-28 -44,-28 l -290,0 z m 22,36 20,0 c 4.432,0 8,3.568 8,8 0,4.432 -3.568,8 -8,8 l -20,0 c -4.432,0 -8,-3.568 -8,-8 0,-4.432 3.568,-8 8,-8 z m 68,0 20,0 c 4.432,0 8,3.568 8,8 0,4.432 -3.568,8 -8,8 l -20,0 c -4.432,0 -8,-3.568 -8,-8 0,-4.432 3.568,-8 8,-8 z m 68,0 20,0 c 4.432,0 8,3.568 8,8 0,4.432 -3.568,8 -8,8 l -20,0 c -4.432,0 -8,-3.568 -8,-8 0,-4.432 3.568,-8 8,-8 z"
         style="fill:#ffffff;fill-opacity:1;fill-rule:nonzero;stroke:none" />
    </mask>
    <mask
       maskUnits="userSpaceOnUse"
       id="mask6565">
      <path
         inkscape:connector-curvature="0"
         id="path6567"
         d="m -346,-310.64283 c -6,0 2,4 2,8 l 0,72.5 c -0.65399,3.82669 -7.75,7.5 -2,7.5 l 290,0 c 16,0 35.47187,-9.634 44,-24 6.12557,-10.31878 5.77451,-25.48072 0,-36 -8.3656,-15.23939 -28,-28 -44,-28 l -290,0 z m 22,36 20,0 c 4.432,0 8,3.56801 8,8 0,4.43201 -3.568,8 -8,8 l -20,0 c -4.432,0 -8,-3.56799 -8,-8 0,-4.43199 3.568,-8 8,-8 z m 68,0 20,0 c 4.432,0 8,3.56801 8,8 0,4.43201 -3.568,8 -8,8 l -20,0 c -4.432,0 -8,-3.56799 -8,-8 0,-4.43199 3.568,-8 8,-8 z m 68,0 20,0 c 4.432,0 8,3.56801 8,8 0,4.43201 -3.568,8 -8,8 l -20,0 c -4.432,0 -8,-3.56799 -8,-8 0,-4.43199 3.568,-8 8,-8 z"
         style="fill:#ffffff;fill-opacity:1;fill-rule:nonzero;stroke:none" />
    </mask>
    <mask
       maskUnits="userSpaceOnUse"
       id="mask10155">
      <path
         sodipodi:nodetypes="ccscssccscc"
         id="path10157"
         d="m 292,-396 0,88 158.1155,0 c 5.75,0 -1.34601,-3.67332 -2,-7.5 l 0,-72.5 c 0,-4 7.99887,-8.11642 2,-8 z m 143.9905,42.65625 c 0.0733,0.43671 0.125,0.88559 0.125,1.34375 0,0.45816 -0.0517,0.90704 -0.125,1.34375 z"
         style="fill:#ffffff;fill-opacity:1;fill-rule:nonzero;stroke:none"
         inkscape:connector-curvature="0" />
    </mask>
    <mask
       maskUnits="userSpaceOnUse"
       id="mask10161">
      <path
         sodipodi:nodetypes="ccscssccscc"
         id="path10163"
         d="m 292,-356 0,88 158.1155,0 c 5.75,0 -1.34601,-3.67332 -2,-7.5 l 0,-72.5 c 0,-4 7.99887,-8.11642 2,-8 z m 143.9905,42.65625 c 0.0733,0.43671 0.125,0.88559 0.125,1.34375 0,0.45816 -0.0517,0.90704 -0.125,1.34375 z"
         style="fill:#ffffff;fill-opacity:1;fill-rule:nonzero;stroke:none"
         inkscape:connector-curvature="0" />
    </mask>
    <clipPath
       clipPathUnits="userSpaceOnUse"
       id="clipPath3008-40">
      <path
         inkscape:connector-curvature="0"
         d="M 0,4105.95 0,0 l 5477.71,0 0,4105.95 -5477.71,0 z"
         id="path3010-9" />
    </clipPath>
    <linearGradient
       id="linearGradient8521">
      <stop
         id="stop8523"
         offset="0"
         style="stop-color:#8b4513;stop-opacity:1;" />
      <stop
         style="stop-color:#753b10;stop-opacity:1;"
         offset="0.2"
         id="stop8529" />
      <stop
         id="stop8531"
         offset="0.80000001"
         style="stop-color:#753b10;stop-opacity:1;" />
      <stop
         id="stop8525"
         offset="1"
         style="stop-color:#8b4513;stop-opacity:0.9856115;" />
    </linearGradient>
    <linearGradient
       id="linearGradient10512">
      <stop
         id="stop10514"
         offset="0"
         style="stop-color:#d4d4d4;stop-opacity:1;" />
      <stop
         style="stop-color:#e9e9e9;stop-opacity:1;"
         offset="0.5"
         id="stop10527" />
      <stop
         id="stop10516"
         offset="1"
         style="stop-color:#ffffff;stop-opacity:1;" />
    </linearGradient>
    <linearGradient
       id="linearGradient10529">
      <stop
         style="stop-color:#d4d4d4;stop-opacity:1;"
         offset="0"
         id="stop10531" />
      <stop
         id="stop10533"
         offset="0.84210408"
         style="stop-color:#e9e9e9;stop-opacity:1;" />
      <stop
         style="stop-color:#ffffff;stop-opacity:1;"
         offset="1"
         id="stop10535" />
    </linearGradient>
    <linearGradient
       inkscape:collect="always"
       xlink:href="#linearGradient7905-7"
       id="linearGradient6750"
       gradientUnits="userSpaceOnUse"
       gradientTransform="matrix(0.03958334,0,0,0.03958334,-1.1031635,45.866666)"
       x1="276"
       y1="260"
       x2="136"
       y2="260" />
    <linearGradient
       inkscape:collect="always"
       xlink:href="#linearGradient7905-7"
       id="linearGradient7996"
       gradientUnits="userSpaceOnUse"
       gradientTransform="matrix(0.03958334,0,0,0.03958334,-1.7651745,46.756801)"
       x1="336"
       y1="272"
       x2="276"
       y2="264" />
    <linearGradient
       y2="-148"
       x2="328"
       y1="-372"
       x1="172"
       gradientTransform="matrix(0.09174311,0,0,0.09174311,6.6802376,46.669721)"
       gradientUnits="userSpaceOnUse"
       id="linearGradient3692"
       xlink:href="#linearGradient4277"
       inkscape:collect="always" />
    <linearGradient
       y2="-148"
       x2="328"
       y1="-372"
       x1="172"
       gradientTransform="matrix(0.15684345,0,0,0.15684345,58.202321,59.128997)"
       gradientUnits="userSpaceOnUse"
       id="linearGradient3689"
       xlink:href="#linearGradient4277"
       inkscape:collect="always" />
    <linearGradient
       gradientTransform="matrix(0.15684345,0,0,0.15684345,58.202321,59.128997)"
       y2="-148"
       x2="328"
       y1="-372"
       x1="172"
       gradientUnits="userSpaceOnUse"
       id="linearGradient3678"
       xlink:href="#linearGradient4277"
       inkscape:collect="always" />
    <linearGradient
       id="linearGradient4277">
      <stop
         style="stop-color:#4a4aff;stop-opacity:1;"
         offset="0"
         id="stop4279" />
      <stop
         style="stop-color:#0000d7;stop-opacity:1;"
         offset="1"
         id="stop4281" />
    </linearGradient>
    <linearGradient
       inkscape:collect="always"
       id="linearGradient4233">
      <stop
         style="stop-color:#0000ff;stop-opacity:1;"
         offset="0"
         id="stop4235" />
      <stop
         style="stop-color:#0000ff;stop-opacity:0;"
         offset="1"
         id="stop4237" />
    </linearGradient>
    <linearGradient
       id="linearGradient7905-4">
      <stop
         style="stop-color:#d4d4d4;stop-opacity:1;"
         offset="0"
         id="stop7907-0" />
      <stop
         style="stop-color:#ffffff;stop-opacity:1;"
         offset="1"
         id="stop7909-9" />
    </linearGradient>
    <linearGradient
       id="linearGradient4084-4">
      <stop
         id="stop4086-88"
         offset="0"
         style="stop-color:#8b4513;stop-opacity:1;" />
      <stop
         id="stop4088-24"
         offset="1"
         style="stop-color:#5a3920;stop-opacity:1;" />
    </linearGradient>
    <linearGradient
       id="linearGradient4066-5">
      <stop
         style="stop-color:#7f4124;stop-opacity:1;"
         offset="0"
         id="stop4068-5" />
      <stop
         style="stop-color:#8b4513;stop-opacity:1;"
         offset="1"
         id="stop4070-1" />
    </linearGradient>
    <clipPath
       id="clipPath3008-7"
       clipPathUnits="userSpaceOnUse">
      <path
         id="path3010-1"
         d="M 0,4105.95 0,0 l 5477.71,0 0,4105.95 -5477.71,0 z" />
    </clipPath>
    <mask
       maskUnits="userSpaceOnUse"
       id="mask6083-1">
      <path
         inkscape:connector-curvature="0"
         id="path6085-5"
         d="m -346,-240 c -6,0 2,4 2,8 l 0,72.5 c -0.65399,3.82668 -7.75,7.5 -2,7.5 l 290,0 c 16,0 35.47187,-9.634 44,-24 6.12557,-10.31879 5.77451,-25.48073 0,-36 -8.3656,-15.23939 -28,-28 -44,-28 l -290,0 z m 22,36 20,0 c 4.432,0 8,3.568 8,8 0,4.432 -3.568,8 -8,8 l -20,0 c -4.432,0 -8,-3.568 -8,-8 0,-4.432 3.568,-8 8,-8 z m 68,0 20,0 c 4.432,0 8,3.568 8,8 0,4.432 -3.568,8 -8,8 l -20,0 c -4.432,0 -8,-3.568 -8,-8 0,-4.432 3.568,-8 8,-8 z m 68,0 20,0 c 4.432,0 8,3.568 8,8 0,4.432 -3.568,8 -8,8 l -20,0 c -4.432,0 -8,-3.568 -8,-8 0,-4.432 3.568,-8 8,-8 z"
         style="fill:#ffffff;fill-opacity:1;fill-rule:nonzero;stroke:none" />
    </mask>
    <mask
       maskUnits="userSpaceOnUse"
       id="mask6565-2">
      <path
         inkscape:connector-curvature="0"
         id="path6567-7"
         d="m -346,-310.64283 c -6,0 2,4 2,8 l 0,72.5 c -0.65399,3.82669 -7.75,7.5 -2,7.5 l 290,0 c 16,0 35.47187,-9.634 44,-24 6.12557,-10.31878 5.77451,-25.48072 0,-36 -8.3656,-15.23939 -28,-28 -44,-28 l -290,0 z m 22,36 20,0 c 4.432,0 8,3.56801 8,8 0,4.43201 -3.568,8 -8,8 l -20,0 c -4.432,0 -8,-3.56799 -8,-8 0,-4.43199 3.568,-8 8,-8 z m 68,0 20,0 c 4.432,0 8,3.56801 8,8 0,4.43201 -3.568,8 -8,8 l -20,0 c -4.432,0 -8,-3.56799 -8,-8 0,-4.43199 3.568,-8 8,-8 z m 68,0 20,0 c 4.432,0 8,3.56801 8,8 0,4.43201 -3.568,8 -8,8 l -20,0 c -4.432,0 -8,-3.56799 -8,-8 0,-4.43199 3.568,-8 8,-8 z"
         style="fill:#ffffff;fill-opacity:1;fill-rule:nonzero;stroke:none" />
    </mask>
    <mask
       maskUnits="userSpaceOnUse"
       id="mask10155-6">
      <path
         sodipodi:nodetypes="ccscssccscc"
         id="path10157-1"
         d="m 292,-396 0,88 158.1155,0 c 5.75,0 -1.34601,-3.67332 -2,-7.5 l 0,-72.5 c 0,-4 7.99887,-8.11642 2,-8 z m 143.9905,42.65625 c 0.0733,0.43671 0.125,0.88559 0.125,1.34375 0,0.45816 -0.0517,0.90704 -0.125,1.34375 z"
         style="fill:#ffffff;fill-opacity:1;fill-rule:nonzero;stroke:none"
         inkscape:connector-curvature="0" />
    </mask>
    <mask
       maskUnits="userSpaceOnUse"
       id="mask10161-4">
      <path
         sodipodi:nodetypes="ccscssccscc"
         id="path10163-2"
         d="m 292,-356 0,88 158.1155,0 c 5.75,0 -1.34601,-3.67332 -2,-7.5 l 0,-72.5 c 0,-4 7.99887,-8.11642 2,-8 z m 143.9905,42.65625 c 0.0733,0.43671 0.125,0.88559 0.125,1.34375 0,0.45816 -0.0517,0.90704 -0.125,1.34375 z"
         style="fill:#ffffff;fill-opacity:1;fill-rule:nonzero;stroke:none"
         inkscape:connector-curvature="0" />
    </mask>
    <linearGradient
       inkscape:collect="always"
       xlink:href="#linearGradient4233"
       id="linearGradient4264"
       gradientUnits="userSpaceOnUse"
       gradientTransform="matrix(0.94444445,0,0,0.49382716,369.33334,-227.1605)"
       x1="-158.11766"
       y1="63.100014"
       x2="-94.588242"
       y2="208.90001" />
    <linearGradient
       inkscape:collect="always"
       xlink:href="#linearGradient4233"
       id="linearGradient4271"
       gradientUnits="userSpaceOnUse"
       gradientTransform="matrix(0.94444445,0,0,0.49382716,369.33334,-227.1605)"
       x1="-158.11766"
       y1="63.100014"
       x2="-94.588242"
       y2="208.90001" />
    <linearGradient
       inkscape:collect="always"
       xlink:href="#linearGradient4277"
       id="linearGradient4283"
       x1="172"
       y1="-372"
       x2="328"
       y2="-148"
       gradientUnits="userSpaceOnUse" />
    <radialGradient
       gradientUnits="userSpaceOnUse"
       gradientTransform="matrix(1,0,0,2.2456143,0,239.15795)"
       r="9"
       fy="-192"
       fx="193.6465"
       cy="-192"
       cx="193.6465"
       id="radialGradient10510-7"
       xlink:href="#linearGradient10512-8"
       inkscape:collect="always" />
    <linearGradient
       gradientTransform="translate(0,-16)"
       y2="29"
       x2="20"
       y1="28"
       x1="20"
       gradientUnits="userSpaceOnUse"
       id="linearGradient9867-3"
       xlink:href="#linearGradient8521-5"
       inkscape:collect="always" />
    <linearGradient
       gradientTransform="translate(0,-16)"
       y2="36"
       x2="20"
       y1="35"
       x1="20"
       gradientUnits="userSpaceOnUse"
       id="linearGradient9746-6"
       xlink:href="#linearGradient8521-5"
       inkscape:collect="always" />
    <linearGradient
       y2="36"
       x2="20"
       y1="35"
       x1="20"
       gradientUnits="userSpaceOnUse"
       id="linearGradient9625-9"
       xlink:href="#linearGradient8521-5"
       inkscape:collect="always" />
    <linearGradient
       y2="29"
       x2="20"
       y1="28"
       x1="20"
       gradientUnits="userSpaceOnUse"
       id="linearGradient9623-4"
       xlink:href="#linearGradient8521-5"
       inkscape:collect="always" />
    <mask
       id="mask9139-1"
       maskUnits="userSpaceOnUse">
      <path
         inkscape:connector-curvature="0"
         style="fill:#ffffff;fill-opacity:1;fill-rule:nonzero;stroke:none"
         d="m 286.24563,-362.52631 0,101.05262 141.47367,0 c 20.21053,0 10.10527,0 0,-20.21052 l 0,-60.63158 c 10.10527,-20.21052 20.21053,-20.21052 0,-20.21052 z"
         id="path9141-8"
         sodipodi:nodetypes="ccccccc" />
    </mask>
    <mask
       id="mask9133-6"
       maskUnits="userSpaceOnUse">
      <path
         inkscape:connector-curvature="0"
         style="fill:#ffffff;fill-opacity:1;fill-rule:nonzero;stroke:none"
         d="m 286.24563,-402.52632 0,101.05263 141.47367,0 c 20.21053,0 10.10526,0 0,-20.21053 l 0,-60.63157 c 10.10526,-20.21053 20.21053,-20.21053 0,-20.21053 z"
         id="path9135-6"
         sodipodi:nodetypes="ccccccc" />
    </mask>
    <linearGradient
       gradientTransform="translate(0,-20)"
       gradientUnits="userSpaceOnUse"
       y2="29"
       x2="35"
       y1="28"
       x1="35"
       id="linearGradient9044-0"
       xlink:href="#linearGradient8521-5"
       inkscape:collect="always" />
    <linearGradient
       gradientTransform="translate(0,-20)"
       gradientUnits="userSpaceOnUse"
       y2="36"
       x2="35"
       y1="35"
       x1="35"
       id="linearGradient9036-6"
       xlink:href="#linearGradient8521-5"
       inkscape:collect="always" />
    <mask
       id="mask8563-4"
       maskUnits="userSpaceOnUse">
      <path
         style="fill:#ffffff;fill-opacity:1;fill-rule:nonzero;stroke:none"
         d="m -337.00728,-317.16913 c -20.21052,0 -10.10526,0 0,20.21052 l 0,60.63158 c -10.10526,20.21052 -20.21052,20.21052 0,20.21052 l 282.947349,0 c 15.999996,0 33.531798,-16.16031 42.059932,-30.52632 6.1255674,-10.31879 5.7745106,-25.48073 0,-36 -8.365601,-15.23939 -26.059936,-34.5263 -42.059932,-34.5263 z m 20.21052,40.42105 20.21053,0 c 4.432,0 9.51904,1e-5 10.10526,10.10526 -0.5862,10.10527 -5.67326,10.10526 -10.10526,10.10526 l -20.21053,0 c -4.432,0 -10.10526,0 -10.10526,-10.10526 0,-10.10526 5.67326,-10.10526 10.10526,-10.10526 z m 60.63158,0 20.21052,0 c 4.432,0 10.10527,0 10.10527,10.10526 0,10.10526 -5.67327,10.10526 -10.10527,10.10526 l -20.21052,0 c -4.432,0 -10.10526,0 -10.10526,-10.10526 0,-10.10526 5.67326,-10.10526 10.10526,-10.10526 z m 70.73684,0 20.21052,0 c 4.432,0 10.10526,0 10.10526,10.10526 0,10.10526 -5.67326,10.10526 -10.10526,10.10526 l -20.21052,0 c -4.432,0 -10.10527,0 -10.10527,-10.10526 0,-10.10526 5.67327,-10.10526 10.10527,-10.10526 z"
         id="path8565-4"
         inkscape:connector-curvature="0"
         sodipodi:nodetypes="ccccsssscsscssssssssssssssssss" />
    </mask>
    <mask
       id="mask8557-9"
       maskUnits="userSpaceOnUse">
      <path
         style="fill:#ffffff;fill-opacity:1;fill-rule:nonzero;stroke:none"
         d="m -337.00728,-246.52631 c -20.21052,0 -10.10526,0 0,20.21053 l 0,60.63157 c -10.10526,20.21053 -20.21052,20.21053 0,20.21053 l 282.947349,0 c 15.999996,0 33.531798,-16.16032 42.059932,-30.52632 6.1255674,-10.31879 5.7745106,-25.48073 0,-36 -8.365601,-15.23939 -26.059936,-34.52631 -42.059932,-34.52631 z m 20.21052,40.42105 20.21053,0 c 4.432,0 9.51904,10e-6 10.10526,10.10527 -0.5862,10.10527 -5.67326,10.10526 -10.10526,10.10526 l -20.21053,0 c -4.432,0 -10.10526,0 -10.10526,-10.10526 0,-10.10527 5.67326,-10.10527 10.10526,-10.10527 z m 60.63158,0 20.21052,0 c 4.432,0 10.10527,0 10.10527,10.10527 0,10.10526 -5.67327,10.10526 -10.10527,10.10526 l -20.21052,0 c -4.432,0 -10.10526,0 -10.10526,-10.10526 0,-10.10527 5.67326,-10.10527 10.10526,-10.10527 z m 70.73684,0 20.21052,0 c 4.432,0 10.10526,0 10.10526,10.10527 0,10.10526 -5.67326,10.10526 -10.10526,10.10526 l -20.21052,0 c -4.432,0 -10.10527,0 -10.10527,-10.10526 0,-10.10527 5.67327,-10.10527 10.10527,-10.10527 z"
         id="path8559-3"
         inkscape:connector-curvature="0"
         sodipodi:nodetypes="ccccsssscsscssssssssssssssssss" />
    </mask>
    <linearGradient
       gradientTransform="matrix(0.09895834,0,0,0.09895834,51.349681,51.395834)"
       y2="-229"
       x2="-224"
       y1="-228"
       x1="-224"
       gradientUnits="userSpaceOnUse"
       id="linearGradient7631-8"
       xlink:href="#linearGradient4084-8-1"
       inkscape:collect="always" />
    <linearGradient
       gradientTransform="matrix(0.09895834,0,0,0.09895834,51.349681,51.395834)"
       y2="-234"
       x2="-213"
       y1="-236"
       x1="-213"
       gradientUnits="userSpaceOnUse"
       id="linearGradient7628-3"
       xlink:href="#linearGradient4084-8-1"
       inkscape:collect="always" />
    <linearGradient
       y2="-229"
       x2="-224"
       y1="-228"
       x1="-224"
       gradientTransform="matrix(0.09895834,0,0,-0.09895834,51.349681,12.604155)"
       gradientUnits="userSpaceOnUse"
       id="linearGradient7387-1"
       xlink:href="#linearGradient4084-8-1"
       inkscape:collect="always" />
    <linearGradient
       y2="-234"
       x2="-213"
       y1="-236"
       x1="-213"
       gradientTransform="matrix(0.09895834,0,0,-0.09895834,51.349681,12.604155)"
       gradientUnits="userSpaceOnUse"
       id="linearGradient7384-6"
       xlink:href="#linearGradient4084-8-1"
       inkscape:collect="always" />
    <linearGradient
       id="linearGradient5094-9">
      <stop
         style="stop-color:#d4d4d4;stop-opacity:1;"
         offset="0"
         id="stop5096-0" />
      <stop
         style="stop-color:#ffffff;stop-opacity:1;"
         offset="1"
         id="stop5098-0" />
    </linearGradient>
    <linearGradient
       id="linearGradient5087-6">
      <stop
         style="stop-color:#d4d4d4;stop-opacity:1;"
         offset="0"
         id="stop5089-5" />
      <stop
         style="stop-color:#ffffff;stop-opacity:1;"
         offset="1"
         id="stop5091-0" />
    </linearGradient>
    <linearGradient
       id="linearGradient5080-2">
      <stop
         id="stop5082-4"
         offset="0"
         style="stop-color:#8b4513;stop-opacity:1;" />
      <stop
         id="stop5084-8"
         offset="1"
         style="stop-color:#5a3920;stop-opacity:1;" />
    </linearGradient>
    <linearGradient
       id="linearGradient5073-8">
      <stop
         id="stop5075-6"
         offset="0"
         style="stop-color:#8b4513;stop-opacity:1;" />
      <stop
         id="stop5077-0"
         offset="1"
         style="stop-color:#5a3920;stop-opacity:1;" />
    </linearGradient>
    <linearGradient
       id="linearGradient5062-5">
      <stop
         id="stop5064-0"
         offset="0"
         style="stop-color:#8b4513;stop-opacity:1;" />
      <stop
         id="stop5066-2"
         offset="1"
         style="stop-color:#5a3920;stop-opacity:1;" />
    </linearGradient>
    <linearGradient
       id="linearGradient5055-9">
      <stop
         id="stop5057-8"
         offset="0"
         style="stop-color:#8b4513;stop-opacity:1;" />
      <stop
         id="stop5059-6"
         offset="1"
         style="stop-color:#5a3920;stop-opacity:1;" />
    </linearGradient>
    <linearGradient
       id="linearGradient5042-9">
      <stop
         id="stop5044-3"
         offset="0"
         style="stop-color:#8b4513;stop-opacity:1;" />
      <stop
         id="stop5046-1"
         offset="1"
         style="stop-color:#5a3920;stop-opacity:1;" />
    </linearGradient>
    <linearGradient
       id="linearGradient5035-2">
      <stop
         id="stop5037-7"
         offset="0"
         style="stop-color:#8b4513;stop-opacity:1;" />
      <stop
         id="stop5039-7"
         offset="1"
         style="stop-color:#5a3920;stop-opacity:1;" />
    </linearGradient>
    <linearGradient
       id="linearGradient5028-8">
      <stop
         id="stop5030-7"
         offset="0"
         style="stop-color:#8b4513;stop-opacity:1;" />
      <stop
         id="stop5032-4"
         offset="1"
         style="stop-color:#5a3920;stop-opacity:1;" />
    </linearGradient>
    <linearGradient
       id="linearGradient4084-8-1">
      <stop
         id="stop4086-8-1"
         offset="0"
         style="stop-color:#8b4513;stop-opacity:1;" />
      <stop
         id="stop4088-2-3"
         offset="1"
         style="stop-color:#5a3920;stop-opacity:1;" />
    </linearGradient>
    <linearGradient
       id="linearGradient5017-3">
      <stop
         style="stop-color:#d4d4d4;stop-opacity:1;"
         offset="0"
         id="stop5019-3" />
      <stop
         style="stop-color:#ffffff;stop-opacity:1;"
         offset="1"
         id="stop5021-4" />
    </linearGradient>
    <linearGradient
       id="linearGradient7905-7-3">
      <stop
         style="stop-color:#d4d4d4;stop-opacity:1;"
         offset="0"
         id="stop7907-4-1" />
      <stop
         style="stop-color:#ffffff;stop-opacity:1;"
         offset="1"
         id="stop7909-0-2" />
    </linearGradient>
    <linearGradient
       id="linearGradient7905-9">
      <stop
         style="stop-color:#d4d4d4;stop-opacity:1;"
         offset="0"
         id="stop7907-5" />
      <stop
         style="stop-color:#ffffff;stop-opacity:1;"
         offset="1"
         id="stop7909-4" />
    </linearGradient>
    <linearGradient
       id="linearGradient4084-9">
      <stop
         id="stop4086-2"
         offset="0"
         style="stop-color:#8b4513;stop-opacity:1;" />
      <stop
         id="stop4088-7"
         offset="1"
         style="stop-color:#5a3920;stop-opacity:1;" />
    </linearGradient>
    <linearGradient
       id="linearGradient4066-57">
      <stop
         style="stop-color:#7f4124;stop-opacity:1;"
         offset="0"
         id="stop4068-6" />
      <stop
         style="stop-color:#8b4513;stop-opacity:1;"
         offset="1"
         id="stop4070-18" />
    </linearGradient>
    <clipPath
       id="clipPath3008-4-6"
       clipPathUnits="userSpaceOnUse">
      <path
         id="path3010-0-8"
         d="M 0,4105.95 0,0 l 5477.71,0 0,4105.95 -5477.71,0 z" />
    </clipPath>
    <mask
       maskUnits="userSpaceOnUse"
       id="mask6083-2">
      <path
         inkscape:connector-curvature="0"
         id="path6085-1"
         d="m -346,-240 c -6,0 2,4 2,8 l 0,72.5 c -0.65399,3.82668 -7.75,7.5 -2,7.5 l 290,0 c 16,0 35.47187,-9.634 44,-24 6.12557,-10.31879 5.77451,-25.48073 0,-36 -8.3656,-15.23939 -28,-28 -44,-28 l -290,0 z m 22,36 20,0 c 4.432,0 8,3.568 8,8 0,4.432 -3.568,8 -8,8 l -20,0 c -4.432,0 -8,-3.568 -8,-8 0,-4.432 3.568,-8 8,-8 z m 68,0 20,0 c 4.432,0 8,3.568 8,8 0,4.432 -3.568,8 -8,8 l -20,0 c -4.432,0 -8,-3.568 -8,-8 0,-4.432 3.568,-8 8,-8 z m 68,0 20,0 c 4.432,0 8,3.568 8,8 0,4.432 -3.568,8 -8,8 l -20,0 c -4.432,0 -8,-3.568 -8,-8 0,-4.432 3.568,-8 8,-8 z"
         style="fill:#ffffff;fill-opacity:1;fill-rule:nonzero;stroke:none" />
    </mask>
    <mask
       maskUnits="userSpaceOnUse"
       id="mask6565-23">
      <path
         inkscape:connector-curvature="0"
         id="path6567-2"
         d="m -346,-310.64283 c -6,0 2,4 2,8 l 0,72.5 c -0.65399,3.82669 -7.75,7.5 -2,7.5 l 290,0 c 16,0 35.47187,-9.634 44,-24 6.12557,-10.31878 5.77451,-25.48072 0,-36 -8.3656,-15.23939 -28,-28 -44,-28 l -290,0 z m 22,36 20,0 c 4.432,0 8,3.56801 8,8 0,4.43201 -3.568,8 -8,8 l -20,0 c -4.432,0 -8,-3.56799 -8,-8 0,-4.43199 3.568,-8 8,-8 z m 68,0 20,0 c 4.432,0 8,3.56801 8,8 0,4.43201 -3.568,8 -8,8 l -20,0 c -4.432,0 -8,-3.56799 -8,-8 0,-4.43199 3.568,-8 8,-8 z m 68,0 20,0 c 4.432,0 8,3.56801 8,8 0,4.43201 -3.568,8 -8,8 l -20,0 c -4.432,0 -8,-3.56799 -8,-8 0,-4.43199 3.568,-8 8,-8 z"
         style="fill:#ffffff;fill-opacity:1;fill-rule:nonzero;stroke:none" />
    </mask>
    <mask
       maskUnits="userSpaceOnUse"
       id="mask10155-61">
      <path
         sodipodi:nodetypes="ccscssccscc"
         id="path10157-4"
         d="m 292,-396 0,88 158.1155,0 c 5.75,0 -1.34601,-3.67332 -2,-7.5 l 0,-72.5 c 0,-4 7.99887,-8.11642 2,-8 z m 143.9905,42.65625 c 0.0733,0.43671 0.125,0.88559 0.125,1.34375 0,0.45816 -0.0517,0.90704 -0.125,1.34375 z"
         style="fill:#ffffff;fill-opacity:1;fill-rule:nonzero;stroke:none"
         inkscape:connector-curvature="0" />
    </mask>
    <mask
       maskUnits="userSpaceOnUse"
       id="mask10161-2">
      <path
         sodipodi:nodetypes="ccscssccscc"
         id="path10163-7"
         d="m 292,-356 0,88 158.1155,0 c 5.75,0 -1.34601,-3.67332 -2,-7.5 l 0,-72.5 c 0,-4 7.99887,-8.11642 2,-8 z m 143.9905,42.65625 c 0.0733,0.43671 0.125,0.88559 0.125,1.34375 0,0.45816 -0.0517,0.90704 -0.125,1.34375 z"
         style="fill:#ffffff;fill-opacity:1;fill-rule:nonzero;stroke:none"
         inkscape:connector-curvature="0" />
    </mask>
    <clipPath
       clipPathUnits="userSpaceOnUse"
       id="clipPath3008-1">
      <path
         inkscape:connector-curvature="0"
         d="M 0,4105.95 0,0 l 5477.71,0 0,4105.95 -5477.71,0 z"
         id="path3010-5" />
    </clipPath>
    <linearGradient
       id="linearGradient8521-5">
      <stop
         id="stop8523-5"
         offset="0"
         style="stop-color:#8b4513;stop-opacity:1;" />
      <stop
         style="stop-color:#753b10;stop-opacity:1;"
         offset="0.2"
         id="stop8529-1" />
      <stop
         id="stop8531-7"
         offset="0.80000001"
         style="stop-color:#753b10;stop-opacity:1;" />
      <stop
         id="stop8525-1"
         offset="1"
         style="stop-color:#8b4513;stop-opacity:0.9856115;" />
    </linearGradient>
    <linearGradient
       id="linearGradient10512-8">
      <stop
         id="stop10514-8"
         offset="0"
         style="stop-color:#d4d4d4;stop-opacity:1;" />
      <stop
         style="stop-color:#e9e9e9;stop-opacity:1;"
         offset="0.5"
         id="stop10527-2" />
      <stop
         id="stop10516-4"
         offset="1"
         style="stop-color:#ffffff;stop-opacity:1;" />
    </linearGradient>
    <linearGradient
       id="linearGradient10529-4">
      <stop
         style="stop-color:#d4d4d4;stop-opacity:1;"
         offset="0"
         id="stop10531-0" />
      <stop
         id="stop10533-9"
         offset="0.84210408"
         style="stop-color:#e9e9e9;stop-opacity:1;" />
      <stop
         style="stop-color:#ffffff;stop-opacity:1;"
         offset="1"
         id="stop10535-4" />
    </linearGradient>
    <linearGradient
       y2="-148"
       x2="328"
       y1="-372"
       x1="172"
       gradientTransform="matrix(0.09174311,0,0,0.09174311,6.6802376,46.669721)"
       gradientUnits="userSpaceOnUse"
       id="linearGradient3699"
       xlink:href="#linearGradient4277-2"
       inkscape:collect="always" />
    <linearGradient
       y2="-148"
       x2="328"
       y1="-372"
       x1="172"
       gradientTransform="matrix(0.09174311,0,0,0.09174311,6.6802376,46.669721)"
       gradientUnits="userSpaceOnUse"
       id="linearGradient3692-6"
       xlink:href="#linearGradient4277-2"
       inkscape:collect="always" />
    <linearGradient
       y2="-148"
       x2="328"
       y1="-372"
       x1="172"
       gradientTransform="matrix(0.15684345,0,0,0.15684345,58.202321,59.128997)"
       gradientUnits="userSpaceOnUse"
       id="linearGradient3689-4"
       xlink:href="#linearGradient4277-2"
       inkscape:collect="always" />
    <linearGradient
       gradientTransform="matrix(0.15684345,0,0,0.15684345,58.202321,59.128997)"
       y2="-148"
       x2="328"
       y1="-372"
       x1="172"
       gradientUnits="userSpaceOnUse"
       id="linearGradient3678-1"
       xlink:href="#linearGradient4277-2"
       inkscape:collect="always" />
    <linearGradient
       id="linearGradient4277-2">
      <stop
         style="stop-color:#4a4aff;stop-opacity:1;"
         offset="0"
         id="stop4279-0" />
      <stop
         style="stop-color:#0000d7;stop-opacity:1;"
         offset="1"
         id="stop4281-0" />
    </linearGradient>
    <linearGradient
       inkscape:collect="always"
       id="linearGradient4233-5">
      <stop
         style="stop-color:#0000ff;stop-opacity:1;"
         offset="0"
         id="stop4235-4" />
      <stop
         style="stop-color:#0000ff;stop-opacity:0;"
         offset="1"
         id="stop4237-1" />
    </linearGradient>
    <linearGradient
       id="linearGradient7905-4-6">
      <stop
         style="stop-color:#d4d4d4;stop-opacity:1;"
         offset="0"
         id="stop7907-0-5" />
      <stop
         style="stop-color:#ffffff;stop-opacity:1;"
         offset="1"
         id="stop7909-9-7" />
    </linearGradient>
    <linearGradient
       id="linearGradient4084-4-6">
      <stop
         id="stop4086-88-0"
         offset="0"
         style="stop-color:#8b4513;stop-opacity:1;" />
      <stop
         id="stop4088-24-1"
         offset="1"
         style="stop-color:#5a3920;stop-opacity:1;" />
    </linearGradient>
    <linearGradient
       id="linearGradient4066-5-3">
      <stop
         style="stop-color:#7f4124;stop-opacity:1;"
         offset="0"
         id="stop4068-5-7" />
      <stop
         style="stop-color:#8b4513;stop-opacity:1;"
         offset="1"
         id="stop4070-1-2" />
    </linearGradient>
    <clipPath
       id="clipPath3008-7-9"
       clipPathUnits="userSpaceOnUse">
      <path
         id="path3010-1-7"
         d="M 0,4105.95 0,0 l 5477.71,0 0,4105.95 -5477.71,0 z" />
    </clipPath>
    <mask
       maskUnits="userSpaceOnUse"
       id="mask6083-1-2">
      <path
         inkscape:connector-curvature="0"
         id="path6085-5-0"
         d="m -346,-240 c -6,0 2,4 2,8 l 0,72.5 c -0.65399,3.82668 -7.75,7.5 -2,7.5 l 290,0 c 16,0 35.47187,-9.634 44,-24 6.12557,-10.31879 5.77451,-25.48073 0,-36 -8.3656,-15.23939 -28,-28 -44,-28 l -290,0 z m 22,36 20,0 c 4.432,0 8,3.568 8,8 0,4.432 -3.568,8 -8,8 l -20,0 c -4.432,0 -8,-3.568 -8,-8 0,-4.432 3.568,-8 8,-8 z m 68,0 20,0 c 4.432,0 8,3.568 8,8 0,4.432 -3.568,8 -8,8 l -20,0 c -4.432,0 -8,-3.568 -8,-8 0,-4.432 3.568,-8 8,-8 z m 68,0 20,0 c 4.432,0 8,3.568 8,8 0,4.432 -3.568,8 -8,8 l -20,0 c -4.432,0 -8,-3.568 -8,-8 0,-4.432 3.568,-8 8,-8 z"
         style="fill:#ffffff;fill-opacity:1;fill-rule:nonzero;stroke:none" />
    </mask>
    <mask
       maskUnits="userSpaceOnUse"
       id="mask6565-2-5">
      <path
         inkscape:connector-curvature="0"
         id="path6567-7-4"
         d="m -346,-310.64283 c -6,0 2,4 2,8 l 0,72.5 c -0.65399,3.82669 -7.75,7.5 -2,7.5 l 290,0 c 16,0 35.47187,-9.634 44,-24 6.12557,-10.31878 5.77451,-25.48072 0,-36 -8.3656,-15.23939 -28,-28 -44,-28 l -290,0 z m 22,36 20,0 c 4.432,0 8,3.56801 8,8 0,4.43201 -3.568,8 -8,8 l -20,0 c -4.432,0 -8,-3.56799 -8,-8 0,-4.43199 3.568,-8 8,-8 z m 68,0 20,0 c 4.432,0 8,3.56801 8,8 0,4.43201 -3.568,8 -8,8 l -20,0 c -4.432,0 -8,-3.56799 -8,-8 0,-4.43199 3.568,-8 8,-8 z m 68,0 20,0 c 4.432,0 8,3.56801 8,8 0,4.43201 -3.568,8 -8,8 l -20,0 c -4.432,0 -8,-3.56799 -8,-8 0,-4.43199 3.568,-8 8,-8 z"
         style="fill:#ffffff;fill-opacity:1;fill-rule:nonzero;stroke:none" />
    </mask>
    <mask
       maskUnits="userSpaceOnUse"
       id="mask10155-6-6">
      <path
         sodipodi:nodetypes="ccscssccscc"
         id="path10157-1-1"
         d="m 292,-396 0,88 158.1155,0 c 5.75,0 -1.34601,-3.67332 -2,-7.5 l 0,-72.5 c 0,-4 7.99887,-8.11642 2,-8 z m 143.9905,42.65625 c 0.0733,0.43671 0.125,0.88559 0.125,1.34375 0,0.45816 -0.0517,0.90704 -0.125,1.34375 z"
         style="fill:#ffffff;fill-opacity:1;fill-rule:nonzero;stroke:none"
         inkscape:connector-curvature="0" />
    </mask>
    <mask
       maskUnits="userSpaceOnUse"
       id="mask10161-4-6">
      <path
         sodipodi:nodetypes="ccscssccscc"
         id="path10163-2-3"
         d="m 292,-356 0,88 158.1155,0 c 5.75,0 -1.34601,-3.67332 -2,-7.5 l 0,-72.5 c 0,-4 7.99887,-8.11642 2,-8 z m 143.9905,42.65625 c 0.0733,0.43671 0.125,0.88559 0.125,1.34375 0,0.45816 -0.0517,0.90704 -0.125,1.34375 z"
         style="fill:#ffffff;fill-opacity:1;fill-rule:nonzero;stroke:none"
         inkscape:connector-curvature="0" />
    </mask>
    <linearGradient
       inkscape:collect="always"
       xlink:href="#linearGradient4233-5"
       id="linearGradient4264-7"
       gradientUnits="userSpaceOnUse"
       gradientTransform="matrix(0.94444445,0,0,0.49382716,369.33334,-227.1605)"
       x1="-158.11766"
       y1="63.100014"
       x2="-94.588242"
       y2="208.90001" />
    <linearGradient
       inkscape:collect="always"
       xlink:href="#linearGradient4233-5"
       id="linearGradient4271-0"
       gradientUnits="userSpaceOnUse"
       gradientTransform="matrix(0.94444445,0,0,0.49382716,369.33334,-227.1605)"
       x1="-158.11766"
       y1="63.100014"
       x2="-94.588242"
       y2="208.90001" />
    <linearGradient
       inkscape:collect="always"
       xlink:href="#linearGradient4277-2"
       id="linearGradient4283-4"
       x1="172"
       y1="-372"
       x2="328"
       y2="-148"
       gradientUnits="userSpaceOnUse" />
    <radialGradient
       gradientUnits="userSpaceOnUse"
       gradientTransform="matrix(1,0,0,2.2456143,0,239.15795)"
       r="9"
       fy="-192"
       fx="193.6465"
       cy="-192"
       cx="193.6465"
       id="radialGradient10510-8"
       xlink:href="#linearGradient10512-82"
       inkscape:collect="always" />
    <linearGradient
       gradientTransform="translate(0,-16)"
       y2="29"
       x2="20"
       y1="28"
       x1="20"
       gradientUnits="userSpaceOnUse"
       id="linearGradient9867-9"
       xlink:href="#linearGradient8521-1"
       inkscape:collect="always" />
    <linearGradient
       gradientTransform="translate(0,-16)"
       y2="36"
       x2="20"
       y1="35"
       x1="20"
       gradientUnits="userSpaceOnUse"
       id="linearGradient9746-5"
       xlink:href="#linearGradient8521-1"
       inkscape:collect="always" />
    <linearGradient
       y2="36"
       x2="20"
       y1="35"
       x1="20"
       gradientUnits="userSpaceOnUse"
       id="linearGradient9625-3"
       xlink:href="#linearGradient8521-1"
       inkscape:collect="always" />
    <linearGradient
       y2="29"
       x2="20"
       y1="28"
       x1="20"
       gradientUnits="userSpaceOnUse"
       id="linearGradient9623-1"
       xlink:href="#linearGradient8521-1"
       inkscape:collect="always" />
    <mask
       id="mask9139-2"
       maskUnits="userSpaceOnUse">
      <path
         inkscape:connector-curvature="0"
         style="fill:#ffffff;fill-opacity:1;fill-rule:nonzero;stroke:none"
         d="m 286.24563,-362.52631 0,101.05262 141.47367,0 c 20.21053,0 10.10527,0 0,-20.21052 l 0,-60.63158 c 10.10527,-20.21052 20.21053,-20.21052 0,-20.21052 z"
         id="path9141-9"
         sodipodi:nodetypes="ccccccc" />
    </mask>
    <mask
       id="mask9133-8"
       maskUnits="userSpaceOnUse">
      <path
         inkscape:connector-curvature="0"
         style="fill:#ffffff;fill-opacity:1;fill-rule:nonzero;stroke:none"
         d="m 286.24563,-402.52632 0,101.05263 141.47367,0 c 20.21053,0 10.10526,0 0,-20.21053 l 0,-60.63157 c 10.10526,-20.21053 20.21053,-20.21053 0,-20.21053 z"
         id="path9135-8"
         sodipodi:nodetypes="ccccccc" />
    </mask>
    <linearGradient
       gradientTransform="translate(0,-20)"
       gradientUnits="userSpaceOnUse"
       y2="29"
       x2="35"
       y1="28"
       x1="35"
       id="linearGradient9044-7"
       xlink:href="#linearGradient8521-1"
       inkscape:collect="always" />
    <linearGradient
       gradientTransform="translate(0,-20)"
       gradientUnits="userSpaceOnUse"
       y2="36"
       x2="35"
       y1="35"
       x1="35"
       id="linearGradient9036-3"
       xlink:href="#linearGradient8521-1"
       inkscape:collect="always" />
    <mask
       id="mask8563-9"
       maskUnits="userSpaceOnUse">
      <path
         style="fill:#ffffff;fill-opacity:1;fill-rule:nonzero;stroke:none"
         d="m -337.00728,-317.16913 c -20.21052,0 -10.10526,0 0,20.21052 l 0,60.63158 c -10.10526,20.21052 -20.21052,20.21052 0,20.21052 l 282.947349,0 c 15.999996,0 33.531798,-16.16031 42.059932,-30.52632 6.1255674,-10.31879 5.7745106,-25.48073 0,-36 -8.365601,-15.23939 -26.059936,-34.5263 -42.059932,-34.5263 z m 20.21052,40.42105 20.21053,0 c 4.432,0 9.51904,1e-5 10.10526,10.10526 -0.5862,10.10527 -5.67326,10.10526 -10.10526,10.10526 l -20.21053,0 c -4.432,0 -10.10526,0 -10.10526,-10.10526 0,-10.10526 5.67326,-10.10526 10.10526,-10.10526 z m 60.63158,0 20.21052,0 c 4.432,0 10.10527,0 10.10527,10.10526 0,10.10526 -5.67327,10.10526 -10.10527,10.10526 l -20.21052,0 c -4.432,0 -10.10526,0 -10.10526,-10.10526 0,-10.10526 5.67326,-10.10526 10.10526,-10.10526 z m 70.73684,0 20.21052,0 c 4.432,0 10.10526,0 10.10526,10.10526 0,10.10526 -5.67326,10.10526 -10.10526,10.10526 l -20.21052,0 c -4.432,0 -10.10527,0 -10.10527,-10.10526 0,-10.10526 5.67327,-10.10526 10.10527,-10.10526 z"
         id="path8565-6"
         inkscape:connector-curvature="0"
         sodipodi:nodetypes="ccccsssscsscssssssssssssssssss" />
    </mask>
    <mask
       id="mask8557-8"
       maskUnits="userSpaceOnUse">
      <path
         style="fill:#ffffff;fill-opacity:1;fill-rule:nonzero;stroke:none"
         d="m -337.00728,-246.52631 c -20.21052,0 -10.10526,0 0,20.21053 l 0,60.63157 c -10.10526,20.21053 -20.21052,20.21053 0,20.21053 l 282.947349,0 c 15.999996,0 33.531798,-16.16032 42.059932,-30.52632 6.1255674,-10.31879 5.7745106,-25.48073 0,-36 -8.365601,-15.23939 -26.059936,-34.52631 -42.059932,-34.52631 z m 20.21052,40.42105 20.21053,0 c 4.432,0 9.51904,10e-6 10.10526,10.10527 -0.5862,10.10527 -5.67326,10.10526 -10.10526,10.10526 l -20.21053,0 c -4.432,0 -10.10526,0 -10.10526,-10.10526 0,-10.10527 5.67326,-10.10527 10.10526,-10.10527 z m 60.63158,0 20.21052,0 c 4.432,0 10.10527,0 10.10527,10.10527 0,10.10526 -5.67327,10.10526 -10.10527,10.10526 l -20.21052,0 c -4.432,0 -10.10526,0 -10.10526,-10.10526 0,-10.10527 5.67326,-10.10527 10.10526,-10.10527 z m 70.73684,0 20.21052,0 c 4.432,0 10.10526,0 10.10526,10.10527 0,10.10526 -5.67326,10.10526 -10.10526,10.10526 l -20.21052,0 c -4.432,0 -10.10527,0 -10.10527,-10.10526 0,-10.10527 5.67327,-10.10527 10.10527,-10.10527 z"
         id="path8559-4"
         inkscape:connector-curvature="0"
         sodipodi:nodetypes="ccccsssscsscssssssssssssssssss" />
    </mask>
    <linearGradient
       gradientTransform="matrix(0.09895834,0,0,0.09895834,51.349681,51.395834)"
       y2="-229"
       x2="-224"
       y1="-228"
       x1="-224"
       gradientUnits="userSpaceOnUse"
       id="linearGradient7631-1"
       xlink:href="#linearGradient4084-8-7"
       inkscape:collect="always" />
    <linearGradient
       gradientTransform="matrix(0.09895834,0,0,0.09895834,51.349681,51.395834)"
       y2="-234"
       x2="-213"
       y1="-236"
       x1="-213"
       gradientUnits="userSpaceOnUse"
       id="linearGradient7628-6"
       xlink:href="#linearGradient4084-8-7"
       inkscape:collect="always" />
    <linearGradient
       y2="-229"
       x2="-224"
       y1="-228"
       x1="-224"
       gradientTransform="matrix(0.09895834,0,0,-0.09895834,51.349681,12.604155)"
       gradientUnits="userSpaceOnUse"
       id="linearGradient7387-6"
       xlink:href="#linearGradient4084-8-7"
       inkscape:collect="always" />
    <linearGradient
       y2="-234"
       x2="-213"
       y1="-236"
       x1="-213"
       gradientTransform="matrix(0.09895834,0,0,-0.09895834,51.349681,12.604155)"
       gradientUnits="userSpaceOnUse"
       id="linearGradient7384-60"
       xlink:href="#linearGradient4084-8-7"
       inkscape:collect="always" />
    <linearGradient
       id="linearGradient5094-93">
      <stop
         style="stop-color:#d4d4d4;stop-opacity:1;"
         offset="0"
         id="stop5096-4" />
      <stop
         style="stop-color:#ffffff;stop-opacity:1;"
         offset="1"
         id="stop5098-4" />
    </linearGradient>
    <linearGradient
       id="linearGradient5087-1">
      <stop
         style="stop-color:#d4d4d4;stop-opacity:1;"
         offset="0"
         id="stop5089-3" />
      <stop
         style="stop-color:#ffffff;stop-opacity:1;"
         offset="1"
         id="stop5091-8" />
    </linearGradient>
    <linearGradient
       id="linearGradient5080-0">
      <stop
         id="stop5082-0"
         offset="0"
         style="stop-color:#8b4513;stop-opacity:1;" />
      <stop
         id="stop5084-6"
         offset="1"
         style="stop-color:#5a3920;stop-opacity:1;" />
    </linearGradient>
    <linearGradient
       id="linearGradient5073-5">
      <stop
         id="stop5075-0"
         offset="0"
         style="stop-color:#8b4513;stop-opacity:1;" />
      <stop
         id="stop5077-9"
         offset="1"
         style="stop-color:#5a3920;stop-opacity:1;" />
    </linearGradient>
    <linearGradient
       id="linearGradient5062-4">
      <stop
         id="stop5064-8"
         offset="0"
         style="stop-color:#8b4513;stop-opacity:1;" />
      <stop
         id="stop5066-6"
         offset="1"
         style="stop-color:#5a3920;stop-opacity:1;" />
    </linearGradient>
    <linearGradient
       id="linearGradient5055-6">
      <stop
         id="stop5057-0"
         offset="0"
         style="stop-color:#8b4513;stop-opacity:1;" />
      <stop
         id="stop5059-2"
         offset="1"
         style="stop-color:#5a3920;stop-opacity:1;" />
    </linearGradient>
    <linearGradient
       id="linearGradient5042-0">
      <stop
         id="stop5044-2"
         offset="0"
         style="stop-color:#8b4513;stop-opacity:1;" />
      <stop
         id="stop5046-8"
         offset="1"
         style="stop-color:#5a3920;stop-opacity:1;" />
    </linearGradient>
    <linearGradient
       id="linearGradient5035-8">
      <stop
         id="stop5037-6"
         offset="0"
         style="stop-color:#8b4513;stop-opacity:1;" />
      <stop
         id="stop5039-5"
         offset="1"
         style="stop-color:#5a3920;stop-opacity:1;" />
    </linearGradient>
    <linearGradient
       id="linearGradient5028-3">
      <stop
         id="stop5030-1"
         offset="0"
         style="stop-color:#8b4513;stop-opacity:1;" />
      <stop
         id="stop5032-9"
         offset="1"
         style="stop-color:#5a3920;stop-opacity:1;" />
    </linearGradient>
    <linearGradient
       id="linearGradient4084-8-7">
      <stop
         id="stop4086-8-7"
         offset="0"
         style="stop-color:#8b4513;stop-opacity:1;" />
      <stop
         id="stop4088-2-9"
         offset="1"
         style="stop-color:#5a3920;stop-opacity:1;" />
    </linearGradient>
    <linearGradient
       id="linearGradient5017-8">
      <stop
         style="stop-color:#d4d4d4;stop-opacity:1;"
         offset="0"
         id="stop5019-7" />
      <stop
         style="stop-color:#ffffff;stop-opacity:1;"
         offset="1"
         id="stop5021-42" />
    </linearGradient>
    <linearGradient
       id="linearGradient7905-7-34">
      <stop
         style="stop-color:#d4d4d4;stop-opacity:1;"
         offset="0"
         id="stop7907-4-11" />
      <stop
         style="stop-color:#ffffff;stop-opacity:1;"
         offset="1"
         id="stop7909-0-3" />
    </linearGradient>
    <linearGradient
       id="linearGradient7905-1">
      <stop
         style="stop-color:#d4d4d4;stop-opacity:1;"
         offset="0"
         id="stop7907-2" />
      <stop
         style="stop-color:#ffffff;stop-opacity:1;"
         offset="1"
         id="stop7909-3" />
    </linearGradient>
    <linearGradient
       id="linearGradient4084-5">
      <stop
         id="stop4086-4"
         offset="0"
         style="stop-color:#8b4513;stop-opacity:1;" />
      <stop
         id="stop4088-3"
         offset="1"
         style="stop-color:#5a3920;stop-opacity:1;" />
    </linearGradient>
    <linearGradient
       id="linearGradient4066-2">
      <stop
         style="stop-color:#7f4124;stop-opacity:1;"
         offset="0"
         id="stop4068-7" />
      <stop
         style="stop-color:#8b4513;stop-opacity:1;"
         offset="1"
         id="stop4070-9" />
    </linearGradient>
    <clipPath
       id="clipPath3008-4-1"
       clipPathUnits="userSpaceOnUse">
      <path
         id="path3010-0-89"
         d="M 0,4105.95 0,0 l 5477.71,0 0,4105.95 -5477.71,0 z" />
    </clipPath>
    <mask
       maskUnits="userSpaceOnUse"
       id="mask6083-7">
      <path
         inkscape:connector-curvature="0"
         id="path6085-6"
         d="m -346,-240 c -6,0 2,4 2,8 l 0,72.5 c -0.65399,3.82668 -7.75,7.5 -2,7.5 l 290,0 c 16,0 35.47187,-9.634 44,-24 6.12557,-10.31879 5.77451,-25.48073 0,-36 -8.3656,-15.23939 -28,-28 -44,-28 l -290,0 z m 22,36 20,0 c 4.432,0 8,3.568 8,8 0,4.432 -3.568,8 -8,8 l -20,0 c -4.432,0 -8,-3.568 -8,-8 0,-4.432 3.568,-8 8,-8 z m 68,0 20,0 c 4.432,0 8,3.568 8,8 0,4.432 -3.568,8 -8,8 l -20,0 c -4.432,0 -8,-3.568 -8,-8 0,-4.432 3.568,-8 8,-8 z m 68,0 20,0 c 4.432,0 8,3.568 8,8 0,4.432 -3.568,8 -8,8 l -20,0 c -4.432,0 -8,-3.568 -8,-8 0,-4.432 3.568,-8 8,-8 z"
         style="fill:#ffffff;fill-opacity:1;fill-rule:nonzero;stroke:none" />
    </mask>
    <mask
       maskUnits="userSpaceOnUse"
       id="mask6565-8">
      <path
         inkscape:connector-curvature="0"
         id="path6567-5"
         d="m -346,-310.64283 c -6,0 2,4 2,8 l 0,72.5 c -0.65399,3.82669 -7.75,7.5 -2,7.5 l 290,0 c 16,0 35.47187,-9.634 44,-24 6.12557,-10.31878 5.77451,-25.48072 0,-36 -8.3656,-15.23939 -28,-28 -44,-28 l -290,0 z m 22,36 20,0 c 4.432,0 8,3.56801 8,8 0,4.43201 -3.568,8 -8,8 l -20,0 c -4.432,0 -8,-3.56799 -8,-8 0,-4.43199 3.568,-8 8,-8 z m 68,0 20,0 c 4.432,0 8,3.56801 8,8 0,4.43201 -3.568,8 -8,8 l -20,0 c -4.432,0 -8,-3.56799 -8,-8 0,-4.43199 3.568,-8 8,-8 z m 68,0 20,0 c 4.432,0 8,3.56801 8,8 0,4.43201 -3.568,8 -8,8 l -20,0 c -4.432,0 -8,-3.56799 -8,-8 0,-4.43199 3.568,-8 8,-8 z"
         style="fill:#ffffff;fill-opacity:1;fill-rule:nonzero;stroke:none" />
    </mask>
    <mask
       maskUnits="userSpaceOnUse"
       id="mask10155-1">
      <path
         sodipodi:nodetypes="ccscssccscc"
         id="path10157-6"
         d="m 292,-396 0,88 158.1155,0 c 5.75,0 -1.34601,-3.67332 -2,-7.5 l 0,-72.5 c 0,-4 7.99887,-8.11642 2,-8 z m 143.9905,42.65625 c 0.0733,0.43671 0.125,0.88559 0.125,1.34375 0,0.45816 -0.0517,0.90704 -0.125,1.34375 z"
         style="fill:#ffffff;fill-opacity:1;fill-rule:nonzero;stroke:none"
         inkscape:connector-curvature="0" />
    </mask>
    <mask
       maskUnits="userSpaceOnUse"
       id="mask10161-23">
      <path
         sodipodi:nodetypes="ccscssccscc"
         id="path10163-22"
         d="m 292,-356 0,88 158.1155,0 c 5.75,0 -1.34601,-3.67332 -2,-7.5 l 0,-72.5 c 0,-4 7.99887,-8.11642 2,-8 z m 143.9905,42.65625 c 0.0733,0.43671 0.125,0.88559 0.125,1.34375 0,0.45816 -0.0517,0.90704 -0.125,1.34375 z"
         style="fill:#ffffff;fill-opacity:1;fill-rule:nonzero;stroke:none"
         inkscape:connector-curvature="0" />
    </mask>
    <clipPath
       clipPathUnits="userSpaceOnUse"
       id="clipPath3008-76">
      <path
         inkscape:connector-curvature="0"
         d="M 0,4105.95 0,0 l 5477.71,0 0,4105.95 -5477.71,0 z"
         id="path3010-14" />
    </clipPath>
    <linearGradient
       id="linearGradient8521-1">
      <stop
         id="stop8523-7"
         offset="0"
         style="stop-color:#8b4513;stop-opacity:1;" />
      <stop
         style="stop-color:#753b10;stop-opacity:1;"
         offset="0.2"
         id="stop8529-11" />
      <stop
         id="stop8531-5"
         offset="0.80000001"
         style="stop-color:#753b10;stop-opacity:1;" />
      <stop
         id="stop8525-2"
         offset="1"
         style="stop-color:#8b4513;stop-opacity:0.9856115;" />
    </linearGradient>
    <linearGradient
       id="linearGradient10512-82">
      <stop
         id="stop10514-4"
         offset="0"
         style="stop-color:#d4d4d4;stop-opacity:1;" />
      <stop
         style="stop-color:#e9e9e9;stop-opacity:1;"
         offset="0.5"
         id="stop10527-5" />
      <stop
         id="stop10516-5"
         offset="1"
         style="stop-color:#ffffff;stop-opacity:1;" />
    </linearGradient>
    <linearGradient
       id="linearGradient10529-40">
      <stop
         style="stop-color:#d4d4d4;stop-opacity:1;"
         offset="0"
         id="stop10531-9" />
      <stop
         id="stop10533-4"
         offset="0.84210408"
         style="stop-color:#e9e9e9;stop-opacity:1;" />
      <stop
         style="stop-color:#ffffff;stop-opacity:1;"
         offset="1"
         id="stop10535-8" />
    </linearGradient>
    <linearGradient
       inkscape:collect="always"
       xlink:href="#linearGradient4277-2"
       id="linearGradient3677"
       gradientUnits="userSpaceOnUse"
       gradientTransform="matrix(0.09174311,0,0,0.09174311,6.6802376,46.669721)"
       x1="172"
       y1="-372"
       x2="328"
       y2="-148" />
  </defs>
  <sodipodi:namedview
     id="base"
     pagecolor="#ffffff"
     bordercolor="#666666"
     borderopacity="1.0"
     inkscape:pageopacity="0.0"
     inkscape:pageshadow="2"
     inkscape:zoom="43.999999"
     inkscape:cx="2.4676952"
     inkscape:cy="7.4398405"
     inkscape:current-layer="layer1"
     showgrid="true"
     inkscape:document-units="px"
     inkscape:grid-bbox="true"
     showguides="true"
     inkscape:guide-bbox="true"
     inkscape:window-width="1920"
     inkscape:window-height="1028"
     inkscape:window-x="2872"
     inkscape:window-y="532"
     inkscape:window-maximized="1">
    <inkscape:grid
       type="xygrid"
       id="grid3011"
       empspacing="4"
       visible="true"
       enabled="true"
       snapvisiblegridlinesonly="true" />
    <sodipodi:guide
       orientation="1,0"
       position="1,3"
       id="guide3013" />
    <sodipodi:guide
       orientation="0,1"
       position="184,496"
       id="guide3015" />
    <sodipodi:guide
       orientation="0,1"
       position="5,1"
       id="guide3017" />
    <sodipodi:guide
       orientation="1,0"
       position="496,248"
       id="guide3019" />
    <sodipodi:guide
       orientation="1,0"
       position="56,96"
       id="guide3104" />
    <sodipodi:guide
       orientation="0,1"
       position="64,56"
       id="guide3106" />
    <sodipodi:guide
       orientation="1,0"
       position="15,3"
       id="guide3018" />
    <sodipodi:guide
       orientation="0,1"
       position="7,15"
       id="guide3020" />
  </sodipodi:namedview>
  <metadata
     id="metadata3008">
    <rdf:RDF>
      <cc:Work
         rdf:about="">
        <dc:format>image/svg+xml</dc:format>
        <dc:type
           rdf:resource="http://purl.org/dc/dcmitype/StillImage" />
        <dc:title />
      </cc:Work>
    </rdf:RDF>
  </metadata>
  <g
     id="layer1"
     inkscape:label="Layer 1"
     inkscape:groupmode="layer"
     transform="translate(0,-48)">
    <path
       sodipodi:nodetypes="ccccc"
       inkscape:connector-curvature="0"
       id="rect3021"
       d="m 0,48 16,0 0,16 -16,0 z"
       style="fill:#000000;fill-opacity:1;fill-rule:nonzero;stroke:none" />
    <text
       sodipodi:linespacing="125%"
       id="text4285"
       y="61.668575"
       x="1.538915"
       style="font-style:normal;font-variant:normal;font-weight:normal;font-stretch:normal;font-size:6.03388166px;line-height:125%;font-family:'MV Boli';-inkscape-font-specification:'MV Boli';letter-spacing:0px;word-spacing:0px;fill:#ffffff;fill-opacity:1;stroke:#ffffff;stroke-width:0.5;stroke-miterlimit:4;stroke-dasharray:none;stroke-opacity:1"
       xml:space="preserve"><tspan
         y="61.668575"
         x="1.538915"
         id="tspan4287"
         sodipodi:role="line"
         style="font-weight:normal;-inkscape-font-specification:'MV Boli';stroke:#ffffff;stroke-width:0.5;stroke-miterlimit:4;stroke-dasharray:none;stroke-opacity:1">m4a</tspan></text>
    <g
       id="layer2"
       inkscape:label="belt"
       transform="matrix(0.43869903,0,0,0.43869903,20.351028,40.330605)" />
    <path
       style="fill:#0909f9;fill-opacity:1;stroke:none"
       d="m -32.375151,50.747883 0,7.6906 c -0.342477,-0.09352 -0.72057,-0.187576 -1.125454,-0.187576 -1.450332,0 -2.626058,0.671843 -2.626058,1.500605 0,0.828762 1.175726,1.500605 2.626058,1.500605 1.450332,0 2.626058,-0.671843 2.626058,-1.500605 l 0,-6.471358 1.500605,1.969543 1.500605,0 -3.00121,-4.501814 -1.500604,0 z"
       id="path3575"
       inkscape:connector-curvature="0" />
    <g
       style="fill:#ffffff"
       transform="matrix(0.02936786,0,0,0.02716555,1.5447682,49.700282)"
       id="g3144">
      <path
         style="fill:#ffffff"
         inkscape:connector-curvature="0"
         d="m 319.77,55.171 v 2.291 c -0.965,12.583 -1.451,18.932 -2.412,31.712 -0.49,-0.045 -0.729,-0.073 -1.219,-0.115 -0.971,-12.098 -1.441,-18.19 -2.422,-30.461 v 6.98 c -0.482,5.495 -0.736,8.258 -1.221,13.805 -1.945,-1.168 -2.926,-1.75 -4.889,-2.924 -0.492,0.889 -0.736,1.333 -1.232,2.228 -0.496,-1.001 -0.742,-1.509 -1.229,-2.514 -0.496,-21.01 -0.74,-31.554 -1.234,-52.695 v 4.78 c -1.48,11.122 -2.229,16.748 -3.717,28.088 -0.496,-1.041 -0.756,-1.562 -1.244,-2.605 -0.994,4.683 -1.494,7.038 -2.496,11.779 -0.998,-4.014 -1.5,-6.025 -2.5,-10.078 -1.002,-6.006 -1.5,-9.024 -2.502,-15.086 -0.506,13.681 -0.756,20.542 -1.264,34.293 -1.01,-6.987 -1.502,-10.504 -2.52,-17.561 -0.504,-0.058 -0.754,-0.091 -1.256,-0.149 v 7.448 c -0.508,14.837 -0.758,22.271 -1.264,37.18 -1.014,7.924 -1.523,11.907 -2.541,19.9 -0.508,0.003 -0.756,0 -1.258,0 -0.516,-0.996 -0.766,-1.494 -1.279,-2.499 v -2.51 c -0.508,-15.062 -0.764,-22.608 -1.277,-37.728 -1.52,-11.167 -2.287,-16.787 -3.822,-28.079 -0.508,0.958 -0.764,1.445 -1.275,2.407 -1.023,-7.193 -1.539,-10.814 -2.561,-18.056 -0.516,20.29 -0.773,30.458 -1.287,50.821 -0.51,-0.024 -0.764,-0.037 -1.281,-0.061 l -1.287,-2.614 C 266.767,65.74 266.517,57.019 266,39.557 c -1.031,-9.32 -1.549,-13.997 -2.574,-23.362 -0.523,22.541 -0.777,33.833 -1.285,56.444 -1.037,-0.055 -1.557,-0.082 -2.588,-0.134 -0.523,14.42 -0.779,21.634 -1.303,36.093 -1.553,-1.052 -2.322,-1.582 -3.883,-2.64 -1.035,-21.784 -1.555,-32.702 -2.586,-54.589 -0.523,-0.027 -0.775,-0.045 -1.299,-0.073 0,14.562 -0.004,21.851 -0.004,36.411 -1.045,3.097 -1.564,4.646 -2.602,7.756 -1.561,-2.112 -2.336,-3.174 -3.9,-5.294 v 2.617 c -0.523,1.037 -0.779,1.558 -1.303,2.595 -0.523,-1.052 -0.785,-1.585 -1.309,-2.635 -0.523,-21.997 -0.781,-32.996 -1.303,-55.014 -1.047,-10.519 -1.566,-15.783 -2.609,-26.32 -0.523,1.022 -0.779,1.533 -1.303,2.562 -0.521,32.506 -0.789,48.767 -1.309,81.307 -0.523,-1.053 -0.777,-1.58 -1.301,-2.632 v -5.254 c -1.568,-2.118 -2.354,-3.174 -3.92,-5.292 -1.045,-28.408 -1.58,-42.621 -2.625,-71.05 -0.52,1.038 -0.777,1.564 -1.299,2.608 -0.529,26.305 -0.789,39.457 -1.311,65.771 -1.047,-3.162 -1.564,-4.744 -2.619,-7.902 -0.521,1.053 -0.779,1.573 -1.303,2.626 -0.521,-1.053 -0.791,-1.576 -1.314,-2.632 -1.045,-11.577 -1.562,-17.368 -2.609,-28.946 -1.049,-12.625 -1.573,-18.933 -2.622,-31.545 -0.523,32.634 -0.792,48.947 -1.309,81.565 -1.57,3.162 -2.355,4.756 -3.923,7.917 -0.525,1.046 -0.782,1.577 -1.305,2.635 -0.521,-1.059 -0.785,-1.573 -1.309,-2.62 v -7.881 c -1.05,-11.544 -1.57,-17.311 -2.61,-28.825 v 5.237 c -0.523,1.059 -0.794,1.598 -1.305,2.654 -1.044,-9.415 -1.568,-14.119 -2.608,-23.506 V 82.25 c -1.048,4.211 -1.564,6.314 -2.607,10.516 -0.523,0.006 -0.785,0.015 -1.309,0.021 -0.521,-1.038 -0.779,-1.555 -1.307,-2.59 V 77.144 c -1.034,-3.104 -1.557,-4.656 -2.598,-7.741 -1.043,-6.216 -1.552,-9.32 -2.596,-15.506 v 36.414 c -2.078,5.249 -3.124,7.872 -5.187,13.078 -1.043,-4.119 -1.555,-6.18 -2.593,-10.284 -2.07,-18.54 -3.101,-27.766 -5.167,-46.089 v 7.71 c -0.508,9.283 -0.777,13.927 -1.288,23.183 -1.032,7.233 -1.54,10.835 -2.574,18.025 -1.032,-4.056 -1.542,-6.08 -2.566,-10.108 -1.029,-1.993 -1.54,-2.988 -2.571,-4.96 0,-15.238 0.007,-22.854 0.007,-38.086 -1.534,-6.938 -2.307,-10.385 -3.844,-17.238 v 2.525 c -0.511,18.248 -0.76,27.367 -1.266,45.548 -0.514,-0.974 -0.76,-1.467 -1.271,-2.434 -0.508,1.05 -0.764,1.576 -1.278,2.62 v 10.035 c -1.02,3.073 -1.527,4.607 -2.539,7.653 -0.508,-0.974 -0.767,-1.46 -1.266,-2.434 0,-2.988 -0.005,-4.482 -0.005,-7.474 -0.506,-24.89 -0.755,-37.313 -1.263,-62.101 v 4.976 c -1.011,25.051 -1.515,37.521 -2.522,62.341 -1.014,-1.917 -1.517,-2.867 -2.526,-4.762 -1.51,-12.692 -2.26,-18.991 -3.765,-31.481 v 7.335 c -0.504,13.75 -0.748,20.609 -1.256,34.299 -1.996,6.944 -2.988,10.389 -4.981,17.188 -0.492,-0.952 -0.733,-1.427 -1.229,-2.373 v -28.84 c -1.001,-1.822 -1.498,-2.727 -2.482,-4.518 v 2.391 c -0.5,1.004 -0.74,1.51 -1.233,2.517 -0.493,-0.904 -0.738,-1.342 -1.231,-2.239 -0.984,-12.229 -1.48,-18.306 -2.462,-30.371 v 7.074 c -0.982,23.764 -1.473,35.562 -2.445,59.004 -0.488,-0.929 -0.734,-1.385 -1.218,-2.303 -0.486,-14.922 -0.736,-22.359 -1.222,-37.172 -1.941,-8.097 -2.913,-12.08 -4.842,-19.912 -0.973,19.456 -1.444,29.108 -2.409,48.266 -0.478,-0.879 -0.718,-1.315 -1.196,-2.182 -1.436,1.01 -2.154,1.506 -3.584,2.504 -1.424,-28.533 -2.139,-42.624 -3.561,-70.396 -0.467,1.041 -0.699,1.561 -1.174,2.599 v 68.123 c -0.946,2.705 -1.412,4.041 -2.342,6.697 -0.478,-0.849 -0.707,-1.269 -1.181,-2.109 v -6.502 c -0.462,-5.158 -0.7,-7.732 -1.166,-12.841 -1.394,1.056 -2.102,1.585 -3.487,2.62 -1.384,-2.365 -2.078,-3.53 -3.444,-5.806 v -6.283 c -1.384,1.11 -2.069,1.665 -3.429,2.753 C 92.706,63.049 92.028,54.681 90.674,38.254 v 6.079 c -0.448,5.839 -0.667,8.742 -1.117,14.521 -0.901,-7.76 -1.351,-11.59 -2.246,-19.146 v 33.797 c -0.895,3.405 -1.336,5.087 -2.224,8.422 -0.438,0.098 -0.648,0.146 -1.104,0.241 v 3.904 c -0.441,0.867 -0.655,1.299 -1.099,2.16 -0.441,-0.693 -0.66,-1.035 -1.104,-1.716 V 67.252 c -0.874,-2.8 -1.312,-4.184 -2.181,-6.904 v 9.509 c -0.874,20.801 -1.306,31.064 -2.173,51.305 -0.871,-0.009 -1.296,-0.012 -2.148,-0.018 -1.722,-14.055 -2.577,-20.886 -4.26,-34.104 -0.852,3.073 -1.278,4.585 -2.114,7.574 -1.257,-10.348 -1.88,-15.4 -3.128,-25.229 v 24.124 c -0.828,5.699 -1.242,8.493 -2.06,14.002 -0.411,-0.633 -0.618,-0.946 -1.026,-1.563 0,-6.725 -0.003,-10.084 -0.003,-16.8 -0.815,0.216 -1.223,0.329 -2.033,0.545 -0.806,-5.712 -1.22,-8.52 -2.026,-14.019 -0.797,15.235 -1.202,22.717 -1.996,37.396 -0.794,-5.033 -1.196,-7.501 -1.984,-12.33 v 4.673 c -0.393,1.305 -0.597,1.957 -0.983,3.235 -0.396,-0.569 -0.584,-0.849 -0.971,-1.409 0,-5.496 -0.009,-8.243 -0.009,-13.741 -0.779,-0.998 -1.171,-1.484 -1.948,-2.431 v -7.474 c -0.778,-5.069 -1.156,-7.552 -1.917,-12.372 -0.772,18.574 -1.152,27.659 -1.907,45.423 -0.758,-5.687 -1.141,-8.459 -1.896,-13.878 -0.749,1.284 -1.123,1.908 -1.865,3.146 -0.372,-0.478 -0.551,-0.708 -0.922,-1.163 V 99.36 c -1.11,-1.834 -1.658,-2.714 -2.741,-4.378 -0.724,-10.598 -1.096,-15.75 -1.811,-25.751 -0.359,16.903 -0.542,25.243 -0.895,41.681 -0.356,-0.438 -0.535,-0.66 -0.882,-1.089 C 35.186,95.753 34.823,88.919 34.13,75.695 33.437,74.81 33.08,74.396 32.387,73.614 v 19.562 c -0.694,4.029 -1.029,5.982 -1.713,9.776 -1.025,-0.985 -1.525,-1.448 -2.535,-2.3 v -7.407 c -0.666,-5.954 -1.001,-8.821 -1.667,-14.322 -0.651,17.341 -0.986,25.703 -1.634,41.787 -0.329,0 -0.487,-0.009 -0.816,-0.012 -0.322,-0.384 -0.48,-0.575 -0.797,-0.949 v -0.94 c -0.316,-1.123 -0.483,-1.665 -0.806,-2.735 -0.633,-3.995 -0.956,-5.9 -1.585,-9.542 -0.627,-0.453 -0.935,-0.666 -1.555,-1.059 -0.615,0.958 -0.916,1.421 -1.527,2.318 -0.301,-0.198 -0.457,-0.292 -0.754,-0.469 v -4.692 c -0.605,-0.569 -0.907,-0.824 -1.497,-1.287 v 48.873 c 0.295,0.037 0.441,0.049 0.739,0.073 0.6,-3.611 0.898,-5.535 1.513,-9.615 0.608,-0.223 0.913,-0.35 1.537,-0.648 0.617,0.384 0.919,0.572 1.546,0.946 0.629,-6.335 0.949,-9.661 1.585,-16.598 0.961,-1.002 1.438,-1.537 2.419,-2.681 0.326,0.405 0.486,0.605 0.815,1.034 0,5.194 -0.003,7.799 -0.003,13.001 0.658,10.645 0.996,16.17 1.652,27.604 v -1.043 c 0.664,-7.278 1.001,-11.063 1.674,-18.924 0.672,1.616 1.022,2.453 1.698,4.147 0.344,-0.264 0.514,-0.398 0.855,-0.678 0.69,8.501 1.035,12.88 1.734,21.902 0.69,-9.68 1.043,-14.686 1.753,-25.013 0.7,-6.469 1.052,-9.804 1.768,-16.674 0.353,0.542 0.536,0.803 0.895,1.354 0.356,17.67 0.536,26.631 0.904,44.794 v -3.832 c 0.355,-3.301 0.542,-4.983 0.907,-8.383 0.362,0.216 0.538,0.326 0.907,0.545 v -3.929 c 0.361,-0.854 0.547,-1.289 0.916,-2.175 0.73,-4.945 1.102,-7.492 1.85,-12.72 0.739,1.865 1.107,2.814 1.856,4.75 0.755,-8.675 1.132,-13.124 1.886,-22.23 0.384,0.593 0.572,0.892 0.956,1.5 0.38,18.543 0.569,27.918 0.961,46.883 1.139,-6.31 1.722,-9.584 2.891,-16.367 0.776,-6.94 1.163,-10.487 1.954,-17.732 0.791,2.625 1.181,3.959 1.978,6.679 v -4.714 c 0.39,-4.953 0.591,-7.461 0.986,-12.512 0.402,0.67 0.605,1.007 1.001,1.695 0,1.926 -0.006,2.882 -0.006,4.804 0.398,15.468 0.606,23.274 1.004,39.031 0.806,-4.774 1.22,-7.215 2.026,-12.192 0.405,0.815 0.603,1.216 1.01,2.038 0.414,0.161 0.615,0.237 1.022,0.393 0.411,-9.247 0.618,-13.909 1.029,-23.329 0.405,0.751 0.615,1.129 1.028,1.886 0.825,19.298 1.245,29.117 2.069,49.051 v -5.216 c 0.423,-8.814 0.624,-13.264 1.047,-22.228 1.67,-1.527 2.513,-2.331 4.212,-4.001 0.419,-7.833 0.642,-11.773 1.061,-19.727 0.855,-7.16 1.284,-10.796 2.139,-18.178 0.858,0.022 1.294,0.024 2.155,0.04 0.435,0.757 0.648,1.141 1.083,1.914 0.873,25.693 1.305,38.723 2.179,65.116 0,-2.295 0.006,-3.441 0.006,-5.736 0.876,-5.78 1.314,-8.714 2.185,-14.665 0.885,3.359 1.323,5.062 2.208,8.491 v -3.925 c 0.444,-0.65 0.669,-0.982 1.117,-1.643 0.889,12.113 1.33,18.242 2.224,30.644 v -5.994 c 0.45,-3.821 0.679,-5.738 1.129,-9.605 0.45,0.961 0.669,1.444 1.117,2.421 v 4.047 c 1.354,-15.679 2.032,-23.657 3.399,-39.906 1.36,6.816 2.044,10.273 3.429,17.299 v -6.28 c 0.907,-1.485 1.367,-2.23 2.294,-3.752 0.46,0.083 0.691,0.122 1.15,0.204 1.394,1.104 2.094,1.655 3.487,2.777 v -2.153 c 0.938,-10.194 1.403,-15.342 2.346,-25.73 0.457,0.901 0.694,1.354 1.165,2.264 0.472,27.16 0.7,40.795 1.177,68.202 0.932,2.075 1.416,3.116 2.361,5.216 0.473,-17.579 0.706,-26.406 1.191,-44.137 0.952,-8.742 1.424,-13.147 2.379,-22.051 0.481,0.942 0.715,1.417 1.196,2.363 0.477,0.052 0.711,0.076 1.192,0.119 v -4.534 c 0.479,-0.863 0.715,-1.299 1.196,-2.173 0.487,0.944 0.721,1.409 1.205,2.361 v 57.054 c 0.959,3.909 1.446,5.878 2.413,9.834 0,-7.357 0.005,-11.045 0.005,-18.4 1.443,-1.508 2.17,-2.282 3.628,-3.849 0.982,-23.056 1.459,-34.677 2.44,-58.063 0.486,0.952 0.73,1.436 1.229,2.392 0,6.582 -0.012,9.865 -0.012,16.45 0.982,24.516 1.478,36.86 2.455,61.701 v -7.099 c 0.493,-6.514 0.743,-9.775 1.236,-16.336 1.476,-3.539 2.208,-5.335 3.703,-8.952 0.982,-14.229 1.485,-21.388 2.473,-35.796 0.5,0.03 0.745,0.042 1.245,0.07 0.492,0.992 0.748,1.487 1.244,2.488 0.499,-0.942 0.752,-1.411 1.248,-2.361 0.499,1.002 0.745,1.498 1.244,2.505 v 4.871 c 1.004,23.476 1.509,35.27 2.514,58.985 v -7.345 c 0.997,-12.576 1.5,-18.897 2.5,-31.606 1.517,3.104 2.274,4.668 3.792,7.813 v 7.446 c 1.007,15.017 1.518,22.554 2.532,37.701 0.499,-24.839 0.757,-37.287 1.266,-62.235 1.011,13.062 1.519,19.629 2.539,32.798 v -15.056 c 1.019,-2.912 1.523,-4.375 2.549,-7.317 1.017,19.234 1.522,28.892 2.551,48.268 v -7.592 c 0.514,-3.978 0.763,-5.969 1.277,-9.958 1.531,-20.095 2.307,-30.203 3.846,-50.521 1.023,7.181 1.534,10.781 2.566,18.001 1.034,4.153 1.542,6.241 2.574,10.416 1.028,7.257 1.546,10.899 2.575,18.188 0,-1.029 0.008,-1.544 0.008,-2.571 0.511,-0.989 0.777,-1.482 1.291,-2.472 1.038,-11.246 1.542,-16.896 2.581,-28.213 1.038,-6.155 1.549,-9.234 2.593,-15.421 0.511,1.053 0.778,1.573 1.301,2.629 1.033,-2.044 1.549,-3.073 2.583,-5.13 0.527,1.05 0.779,1.579 1.302,2.629 0.523,23.944 0.777,35.926 1.297,59.913 v -15.618 c 1.557,-4.081 2.346,-6.126 3.896,-10.239 v -31.329 c 1.048,-2.066 1.568,-3.102 2.615,-5.179 0.522,1.056 0.774,1.585 1.302,2.635 1.04,24.099 1.561,36.16 2.604,60.312 v -7.859 c 1.043,-2.055 1.57,-3.082 2.614,-5.154 0.521,0.018 0.785,0.036 1.306,0.045 1.043,-20.962 1.569,-31.469 2.613,-52.476 1.046,3.164 1.569,4.743 2.613,7.907 v -5.267 c 0.524,-1.044 0.789,-1.563 1.31,-2.614 0.522,1.053 0.777,1.586 1.305,2.642 v 73.651 c 1.047,3.171 1.572,4.762 2.623,7.933 v -7.896 c 0.517,-3.156 0.787,-4.729 1.308,-7.881 1.564,-14.728 2.357,-22.104 3.923,-36.84 1.041,3.158 1.566,4.737 2.609,7.893 v -7.904 c 0.527,-1.054 0.789,-1.58 1.312,-2.63 1.043,22.097 1.566,33.143 2.609,55.221 0.518,-1.063 0.791,-1.601 1.312,-2.662 v -47.343 c 1.047,-4.218 1.574,-6.329 2.623,-10.546 0.52,-0.01 0.777,-0.013 1.299,-0.019 1.045,-4.224 1.568,-6.33 2.611,-10.544 0.52,1.041 0.787,1.562 1.309,2.602 v 68.211 c 1.045,-0.049 1.566,-0.073 2.613,-0.125 0,-7.342 -0.006,-11.003 -0.006,-18.345 1.043,-3.191 1.564,-4.785 2.607,-7.969 0.523,-14.683 0.785,-22.018 1.309,-36.673 0.523,1.032 0.781,1.544 1.303,2.571 0.518,-0.019 0.779,-0.021 1.293,-0.039 v -7.829 c 0.523,-3.144 0.785,-4.717 1.307,-7.857 0.516,-0.015 0.783,-0.018 1.301,-0.029 0.518,1.028 0.781,1.542 1.303,2.57 1.041,20.798 1.557,31.186 2.602,51.901 0.52,-1.081 0.779,-1.624 1.293,-2.705 v -5.182 c 0.518,-25.989 0.781,-38.969 1.303,-64.903 0.51,1.032 0.77,1.543 1.289,2.571 0.523,-1.041 0.779,-1.564 1.297,-2.604 0.518,-0.01 0.773,-0.012 1.287,-0.021 1.037,21.683 1.555,32.491 2.59,54.056 v -7.726 c 0.523,-2.094 0.775,-3.141 1.301,-5.23 1.029,20.514 1.541,30.745 2.576,51.128 1.023,-14.49 1.539,-21.71 2.57,-36.121 1.029,-10.315 1.543,-15.47 2.562,-25.718 1.031,10.126 1.541,15.178 2.57,25.233 1.025,14.116 1.531,21.15 2.553,35.157 0.514,-0.082 0.77,-0.121 1.275,-0.197 1.691,-33.685 3.391,-67.356 5.094,-101.03 0.512,-0.003 0.76,-0.003 1.268,-0.006 0.514,0.992 0.768,1.491 1.275,2.48 0.51,4.981 0.756,7.467 1.266,12.424 0.506,24.854 0.756,37.256 1.264,61.994 1.518,-12.139 2.273,-18.169 3.775,-30.146 1.008,20.595 1.514,30.836 2.514,51.211 v -7.352 c 0.5,-5.981 0.752,-8.964 1.252,-14.92 1,-7.013 1.502,-10.504 2.5,-17.449 0.506,0.903 0.752,1.354 1.25,2.255 v 9.699 c 1.494,2.65 2.242,3.975 3.729,6.561 0.998,7.501 1.488,11.222 2.479,18.619 0.494,-0.127 0.738,-0.188 1.234,-0.313 v -23.81 c 0.988,-5.902 1.475,-8.846 2.461,-14.676 0.496,0.867 0.736,1.3 1.223,2.154 0.496,-1.025 0.74,-1.537 1.225,-2.56 v -4.7 c 0.984,-6.733 1.465,-10.075 2.441,-16.711 0.979,17.624 1.471,26.375 2.441,43.737 v -2.313 c 0.482,-16.798 0.715,-25.167 1.201,-41.848 0.49,-0.052 0.729,-0.085 1.219,-0.137 0.482,0.861 0.723,1.288 1.213,2.14 v 29.785 c 0.955,9.865 1.441,14.765 2.404,24.464 0.205,-5.4 0.408,-10.363 0.588,-15.08 V 58.948 c -0.56,-1.265 -1.03,-2.226 -1.75,-3.779 z"
         id="path3146" />
      <path
         style="fill:#ffffff"
         inkscape:connector-curvature="0"
         d="m 423.36,116.8 c -0.295,0.264 -0.453,0.398 -0.748,0.681 -0.299,-0.341 -0.457,-0.514 -0.758,-0.867 -0.611,-11.949 -0.914,-18.224 -1.531,-31.369 -0.311,0 -0.465,0.01 -0.775,0.027 -0.305,11.411 -0.467,17.247 -0.779,29.206 -0.633,-1.872 -0.945,-2.839 -1.582,-4.869 -0.316,-0.456 -0.484,-0.69 -0.801,-1.165 0,-1.129 -0.006,-1.692 -0.006,-2.828 -0.635,-9.283 -0.965,-14.124 -1.607,-24.154 v 20.606 c -0.982,1.141 -1.473,1.762 -2.473,3.092 -0.664,-4.378 -1.002,-6.64 -1.672,-11.311 v 1.072 c -0.678,7.826 -1.014,11.879 -1.689,20.289 -0.686,-1.85 -1.029,-2.808 -1.727,-4.774 v 2.3 c -0.344,0.411 -0.523,0.627 -0.867,1.053 -0.35,-0.508 -0.521,-0.767 -0.871,-1.293 v -5.934 c -0.689,-2.062 -1.059,-3.131 -1.762,-5.306 v 3.669 c -0.355,1.871 -0.535,2.821 -0.889,4.747 -0.355,-0.557 -0.531,-0.837 -0.893,-1.409 -0.357,-4.601 -0.535,-6.937 -0.9,-11.657 -1.084,-0.39 -1.631,-0.584 -2.734,-0.967 v 3.982 c -0.365,0.962 -0.545,1.448 -0.916,2.435 -0.732,-0.189 -1.113,-0.28 -1.855,-0.468 v 2.762 c -0.375,0.475 -0.568,0.718 -0.949,1.208 -0.371,-0.633 -0.553,-0.946 -0.928,-1.588 V 84.185 c -1.129,-8.988 -1.705,-13.638 -2.855,-23.208 v 4.388 c -0.766,14.727 -1.156,22.262 -1.928,37.655 -0.768,-3.14 -1.156,-4.729 -1.941,-7.996 0,1.834 -0.006,2.753 -0.006,4.58 -0.387,0.529 -0.582,0.791 -0.973,1.323 -0.783,-2.008 -1.182,-3.021 -1.977,-5.103 -0.395,0.529 -0.6,0.807 -0.994,1.351 -0.398,-0.718 -0.6,-1.092 -1.002,-1.829 V 74.481 c -1.195,-3.736 -1.799,-5.641 -3.021,-9.545 v 4.953 c -0.398,3.113 -0.605,4.692 -1.01,7.872 -0.818,-4.297 -1.223,-6.487 -2.049,-10.915 v 1.689 c -0.414,9.308 -0.617,14.012 -1.031,23.484 -0.414,-0.779 -0.623,-1.171 -1.033,-1.963 V 77.994 c -0.826,-3.037 -1.242,-4.586 -2.08,-7.707 v 3.501 c -0.416,0.554 -0.629,0.834 -1.045,1.396 -0.418,-0.849 -0.631,-1.281 -1.051,-2.142 v -3.551 c -1.682,-2.778 -2.537,-4.193 -4.244,-7.072 -0.855,-7.677 -1.293,-11.569 -2.158,-19.452 -0.855,13.704 -1.289,20.66 -2.158,34.772 -0.428,-0.115 -0.645,-0.167 -1.082,-0.286 -0.436,-0.873 -0.656,-1.317 -1.092,-2.203 V 46.547 c -0.877,-2.69 -1.314,-4.053 -2.188,-6.794 -0.441,0.569 -0.668,0.855 -1.111,1.437 -0.439,23.21 -0.664,34.895 -1.098,58.41 -1.779,4.503 -2.67,6.821 -4.469,11.562 -0.902,-7.285 -1.354,-10.975 -2.248,-18.424 v 6.104 c -0.902,6.417 -1.357,9.658 -2.27,16.221 -0.457,-0.834 -0.678,-1.25 -1.143,-2.093 -0.445,-19.894 -0.68,-29.886 -1.137,-49.99 -0.916,-3.579 -1.377,-5.38 -2.295,-9.022 -0.459,15.005 -0.684,22.554 -1.146,37.716 -0.924,10.026 -1.396,15.102 -2.318,25.341 -0.465,-0.861 -0.693,-1.293 -1.154,-2.163 -0.938,-24.06 -1.402,-36.21 -2.348,-60.735 -0.934,-9.783 -1.391,-14.725 -2.334,-24.683 -0.465,0.712 -0.699,1.067 -1.172,1.783 -0.473,19.182 -0.719,28.816 -1.184,48.165 -0.475,-0.07 -0.713,-0.106 -1.186,-0.18 -1.42,15.747 -2.131,23.729 -3.559,39.889 -0.484,-0.897 -0.721,-1.348 -1.199,-2.258 -0.48,-22.557 -0.715,-33.882 -1.199,-56.617 -0.221,-0.475 -0.416,-0.886 -0.604,-1.269 v 140.53 c 1.076,-27.427 1.775,-45.216 3.002,-75.893 0.479,0.898 0.715,1.339 1.193,2.228 0.945,20.548 1.422,30.739 2.365,50.936 v -4.433 c 0.473,-0.98 0.711,-1.464 1.186,-2.435 0.465,0.794 0.711,1.192 1.178,1.975 0,15.82 0.006,23.733 0.006,39.554 0.943,-0.331 1.41,-0.499 2.344,-0.834 v -6.533 c 0.475,-7.999 0.703,-11.973 1.174,-19.896 1.398,-23.768 2.102,-35.491 3.49,-58.589 0.469,0.843 0.697,1.26 1.16,2.093 0.93,30.571 1.393,45.706 2.305,75.647 0.918,-7.074 1.379,-10.585 2.295,-17.523 0.916,-24.424 1.369,-36.508 2.279,-60.409 0.449,0.816 0.678,1.218 1.133,2.021 0,7.364 -0.008,11.048 -0.008,18.421 0.914,7.254 1.365,10.838 2.271,17.925 v -2.026 c 0.443,-11.432 0.672,-17.112 1.121,-28.411 1.799,3.095 2.689,4.607 4.461,7.541 0.441,24.299 0.666,36.37 1.105,60.356 1.32,-0.618 1.984,-0.932 3.299,-1.566 v -32.528 c 0.869,-2.55 1.311,-3.807 2.174,-6.293 0.438,0.64 0.652,0.959 1.09,1.595 v 35.61 c 2.158,-1.086 3.236,-1.643 5.355,-2.778 v -5.423 c 0.426,-0.939 0.637,-1.394 1.061,-2.324 0.422,-0.2 0.635,-0.311 1.055,-0.521 v -5.337 c 0.42,-2.328 0.633,-3.481 1.051,-5.781 0.842,2.478 1.256,3.686 2.09,6.058 0.828,-7.36 1.24,-10.978 2.068,-18.11 0.414,0.542 0.617,0.804 1.031,1.327 v 18.641 c 1.645,1.155 2.459,1.7 4.074,2.68 v -4.901 c 0.404,-0.879 0.613,-1.327 1.014,-2.197 0.398,-9.293 0.594,-13.894 0.992,-23.016 0.805,-1.558 1.205,-2.325 1.996,-3.834 0.398,-0.131 0.59,-0.204 0.998,-0.329 v -4.677 c 0.385,-1.978 0.586,-2.961 0.979,-4.901 0.783,1.053 1.172,1.57 1.957,2.564 v -4.527 c 0.391,-1.902 0.576,-2.851 0.963,-4.707 0.389,0.532 0.584,0.791 0.967,1.312 0.389,17.673 0.584,26.415 0.961,43.694 1.15,-1.98 1.727,-2.96 2.855,-4.88 v -4.242 c 0.375,-14.937 0.561,-22.322 0.928,-36.912 0.758,3.771 1.133,5.595 1.877,9.178 0,-1.638 0.004,-2.453 0.004,-4.084 0.371,-0.646 0.551,-0.962 0.924,-1.595 0.371,0.447 0.551,0.666 0.916,1.096 0.369,11.066 0.551,16.52 0.922,27.291 v -3.932 c 0.363,-3.374 0.539,-5.042 0.904,-8.328 0.725,-6.582 1.09,-9.798 1.809,-16.042 1.078,5.23 1.604,7.729 2.664,12.484 0,-0.478 -0.002,-0.724 -0.002,-1.207 0.703,-9.032 1.059,-13.416 1.752,-21.927 0.354,0.422 0.523,0.624 0.867,1.025 0.35,-0.052 0.518,-0.079 0.861,-0.137 v -1.132 c 0.35,-0.499 0.514,-0.746 0.865,-1.235 0.33,0.405 0.5,0.606 0.846,0.995 0.34,10.468 0.51,15.613 0.844,25.716 0.346,-0.226 0.504,-0.338 0.844,-0.572 v -3.177 c 0.998,-2.315 1.494,-3.427 2.477,-5.575 0.654,6.844 0.986,10.124 1.631,16.4 0,-1.152 -0.004,-1.722 -0.004,-2.881 0.652,-10.598 0.973,-15.704 1.611,-25.496 0.316,-0.098 0.479,-0.152 0.791,-0.25 v -2.708 c 0.316,-0.8 0.475,-1.187 0.791,-1.954 0.312,0.292 0.475,0.436 0.779,0.712 v 28.476 c 0.623,-0.664 0.934,-0.998 1.537,-1.671 v -0.824 c 0.623,-12.506 0.924,-18.467 1.527,-29.795 0.295,0.271 0.453,0.405 0.748,0.667 v 2.282 c 0.301,-0.074 0.447,-0.104 0.752,-0.177 v -9.624 c -0.31,-0.08 -0.46,-0.09 -0.76,-0.13 z"
         id="path3148" />
    </g>
    <g
       id="layer2-8"
       inkscape:label="belt"
       transform="translate(44.912312,-25.745883)" />
    <text
       xml:space="preserve"
       style="font-size:6.03388166px;font-style:normal;font-variant:normal;font-weight:normal;font-stretch:normal;line-height:125%;letter-spacing:0px;word-spacing:0px;fill:#0909f9;fill-opacity:1;stroke:none;font-family:MV Boli;-inkscape-font-specification:MV Boli"
       x="-16.568623"
       y="61.668579"
       id="text3337"
       sodipodi:linespacing="125%"><tspan
         sodipodi:role="line"
         id="tspan3339"
         x="-16.568623"
         y="61.668579">mp3</tspan></text>
  </g>
</svg>
