<?xml version="1.0" encoding="UTF-8" standalone="no"?>
<!-- Created with Sodipodi ("http://www.sodipodi.com/") -->
<svg xmlns:inkscape="http://www.inkscape.org/namespaces/inkscape" xmlns:rdf="http://www.w3.org/1999/02/22-rdf-syntax-ns#" xmlns="http://www.w3.org/2000/svg" xmlns:cc="http://creativecommons.org/ns#" xmlns:dc="http://purl.org/dc/elements/1.1/" xmlns:sodipodi="http://sodipodi.sourceforge.net/DTD/sodipodi-0.dtd" id="svg548" inkscape:version="0.48.3.1 r9886" viewBox="0 0 417.92 470.01" sodipodi:version="0.32" version="1.1" sodipodi:docname="_svgclean2.svg">
  <sodipodi:namedview id="base" inkscape:window-x="0" inkscape:window-y="0" inkscape:window-maximized="0" inkscape:zoom="0.9075" inkscape:window-height="484" showgrid="false" inkscape:current-layer="svg548" inkscape:cx="183.55298" inkscape:cy="224.84299" inkscape:guide-bbox="true" inkscape:window-width="743" showguides="true"/>
  <path id="path3827" sodipodi:rx="79.338844" sodipodi:ry="5.6271095" style="color:#000000;fill:#2d2d2d" sodipodi:type="arc" d="m232.51 482.25a79.339 5.6271 0 1 1 -158.68 0 79.339 5.6271 0 1 1 158.68 0z" transform="translate(-58.253 -17.873)" sodipodi:cy="482.25168" sodipodi:cx="153.16805"/>
  <path id="path3805" inkscape:connector-curvature="0" sodipodi:nodetypes="csccsssssccssssssccsssssscccsscc" style="block-progression:tb;text-indent:0;color:#000000;stroke:#0e232e;stroke-width:.65609;text-transform:none;fill:#ff6600" d="m280.32 343.06c-12.553 0-22.725 10.173-22.725 22.725l-0.00001 61.847h4.4559v-61.847c0.00001-10.161 8.1082-18.269 18.269-18.269s18.269 8.1082 18.269 18.269v75.862c0 10.161-8.1082 18.269-18.269 18.269-0.19143 0-0.38098-0.001-0.57092-0.007v0.007h-0.23672c-6.139-0.00001-11.996-4.8685-11.996-11.008v-60.468c0-6.139 5.8572-12.233 11.996-12.233h1.5456c6.139 0 11.899 6.0939 11.899 12.233v52.391h4.4559v-52.391c0-8.5305-7.8246-16.689-16.355-16.689h-1.5456c-8.5305 0-16.452 8.1583-16.452 16.689v60.468c0 8.5305 7.9216 15.463 16.452 15.463h1.4621v-0.007c12.249-0.34714 22.071-10.385 22.071-22.718l-0.00001-75.862c0-12.553-10.173-22.725-22.725-22.725z"/>
  <path id="path3811" d="m336.03 343.06c-12.553 0-22.725 10.173-22.725 22.725l-0.00001 61.847h4.4559v-61.847c0.00001-10.161 8.1082-18.269 18.269-18.269s18.269 8.1082 18.269 18.269v75.862c0 10.161-8.1082 18.269-18.269 18.269-0.19143 0-0.38098-0.001-0.57092-0.007v0.007h-0.23672c-6.139-0.00001-11.996-4.8685-11.996-11.008v-60.468c0-6.139 5.8572-12.233 11.996-12.233h1.5456c6.139 0 11.899 6.0939 11.899 12.233v52.391h4.4559v-52.391c0-8.5305-7.8246-16.689-16.355-16.689h-1.5456c-8.5305 0-16.452 8.1583-16.452 16.689v60.468c0 8.5305 7.9216 15.463 16.452 15.463h1.4621v-0.007c12.249-0.34714 22.071-10.385 22.071-22.718l-0.00001-75.862c0-12.553-10.173-22.725-22.725-22.725z" sodipodi:nodetypes="csccsssssccssssssccsssssscccsscc" style="block-progression:tb;text-indent:0;color:#000000;stroke:#0e232e;stroke-width:.65609;text-transform:none;fill:#009100" inkscape:connector-curvature="0"/>
  <path id="path3813" inkscape:connector-curvature="0" sodipodi:nodetypes="csccsssssccssssssccsssssscccsscc" style="block-progression:tb;text-indent:0;color:#000000;stroke:#0e232e;stroke-width:.65609;text-transform:none;fill:#005c94" d="m394.86 343.06c-12.553 0-22.725 10.173-22.725 22.725l-0.00001 61.847h4.4559v-61.847c0.00001-10.161 8.1082-18.269 18.269-18.269s18.269 8.1082 18.269 18.269v75.862c0 10.161-8.1082 18.269-18.269 18.269-0.19143 0-0.38098-0.001-0.57092-0.007v0.007h-0.23672c-6.139-0.00001-11.996-4.8685-11.996-11.008v-60.468c0-6.139 5.8572-12.233 11.996-12.233h1.5456c6.139 0 11.899 6.0939 11.899 12.233v52.391h4.4559v-52.391c0-8.5305-7.8246-16.689-16.355-16.689h-1.5456c-8.5305 0-16.452 8.1583-16.452 16.689v60.468c0 8.5305 7.9216 15.463 16.452 15.463h1.4621v-0.007c12.249-0.34714 22.071-10.385 22.071-22.718l-0.00001-75.862c0-12.553-10.173-22.725-22.725-22.725z"/>
  <path id="path3815" d="m290.77 14.014c-45.11-26.045-102.78-10.594-128.82 34.518l-128.33 222.26 16.01 9.25 128.33-222.27c21.083-36.517 67.046-48.832 103.56-27.749 36.517 21.083 48.832 67.046 27.75 103.56l-157.4 272.64c-21.083 36.517-67.046 48.832-103.56 27.75-0.68798-0.39714-1.3671-0.7941-2.0372-1.2098l-0.0166 0.0249-0.85074-0.49116c-22.066-12.74-33.014-42.38-20.276-64.45l125.46-217.31c12.738-22.062 46.431-31.81 68.494-19.072l5.5547 3.207c22.062 12.738 30.119 46.59 17.381 68.652l-108.71 188.28 16.014 9.2455 108.71-188.28c17.7-30.657 6.5073-76.211-24.149-93.911l-5.5548-3.207c-30.657-17.7-76.053-4.8168-93.753 25.84l-125.46 217.31c-17.7 30.657-3.6161 72.009 27.041 89.709l2.9025 1.6758 2.352 1.3579 0.0166-0.0249c44.741 24.168 100.87 8.4721 126.46-35.851l157.4-272.64c26.05-45.11 10.6-102.78-34.51-128.82z" sodipodi:nodetypes="csccsssssccssssssccsssssscccsscc" style="block-progression:tb;text-indent:0;color:#000000;stroke:#900000;stroke-width:2.7226;text-transform:none;fill:#dc0000" inkscape:connector-curvature="0"/>
  <path id="path3817" d="m261.5 2.9895c7.2769 2.0828 14.398 5.075 21.25 9.0312 45.111 26.045 60.576 83.701 34.531 128.81l-157.41 272.62c-20.983 36.343-62.504 53.44-101.44 45.094 40.661 11.691 85.578-5.2372 107.69-43.531l157.41-272.62c26.045-45.111 10.58-102.77-34.531-128.81-8.796-5.0784-18.077-8.5829-27.5-10.594zm-27.594 14.75c-25.564 0.5196-50.102 14.067-63.938 38.031l-127.47 220.75 3.6562 2.0938 80.406-139.31c2.5554-4.4261 5.7302-8.4784 9.3125-12.125l40.312-69.844c16.843-29.172 49.558-42.876 80.656-36.469-7.5647-2.2419-15.295-3.2803-22.938-3.125zm-25.375 90.562c4.0987 1.272 8.0438 2.9984 11.781 5.1562l5.5625 3.1875c30.657 17.7 41.856 63.281 24.156 93.938l-107.84 186.75 4.25 2.4375 114.84-198.88c9.8152-29.643-2.0648-67.046-29.156-82.688l-5.5625-3.1875c-5.6015-3.234-11.704-5.4486-18.031-6.7188zm-20.531 15.5c-17.978 0.22156-36.649 9.5822-45.406 24.75l-125.47 217.28c-12.738 22.062-1.781 51.731 20.281 64.469l0.84375 0.5v-0.0312c0.67015 0.41569 1.3745 0.79036 2.0625 1.1875 7.3683 4.2541 15.113 7.14 22.969 8.75-5.7139-1.6873-11.339-4.0636-16.75-7.1875-0.68798-0.39714-1.3611-0.77181-2.0312-1.1875h-0.0312l-0.84375-0.46875c-22.067-12.74-33.023-42.41-20.286-64.47l125.46-217.31c10.297-17.835 34.31-27.603 54.781-23.969-4.958-1.6441-10.233-2.3786-15.594-2.3125z" style="block-progression:tb;color:#000000;fill:#ff4141;text-transform:none;text-indent:0" inkscape:connector-curvature="0"/>
  <metadata id="metadata10">
    <rdf:RDF>
      <cc:Work>
        <dc:format>image/svg+xml</dc:format>
        <dc:type rdf:resource="http://purl.org/dc/dcmitype/StillImage"/>
        <cc:license rdf:resource="http://creativecommons.org/licenses/publicdomain/"/>
        <dc:publisher>
          <cc:Agent rdf:about="http://openclipart.org/">
            <dc:title>Openclipart</dc:title>
          </cc:Agent>
        </dc:publisher>
      </cc:Work>
      <cc:License rdf:about="http://creativecommons.org/licenses/publicdomain/">
        <cc:permits rdf:resource="http://creativecommons.org/ns#Reproduction"/>
        <cc:permits rdf:resource="http://creativecommons.org/ns#Distribution"/>
        <cc:permits rdf:resource="http://creativecommons.org/ns#DerivativeWorks"/>
      </cc:License>
    </rdf:RDF>
  </metadata>
</svg>
