<?xml version="1.0" encoding="UTF-8" standalone="no"?>
<svg
   xmlns:dc="http://purl.org/dc/elements/1.1/"
   xmlns:cc="http://creativecommons.org/ns#"
   xmlns:rdf="http://www.w3.org/1999/02/22-rdf-syntax-ns#"
   xmlns:svg="http://www.w3.org/2000/svg"
   xmlns="http://www.w3.org/2000/svg"
   xmlns:sodipodi="http://sodipodi.sourceforge.net/DTD/sodipodi-0.dtd"
   xmlns:inkscape="http://www.inkscape.org/namespaces/inkscape"
   id="svg2"
   xml:space="preserve"
   viewBox="0 0 577.51 575.94"
   version="1.0"
   inkscape:version="0.48.5 r10040"
   width="100%"
   height="100%"
   sodipodi:docname="village-house-lines.svg"><defs
   id="defs5517">
    
  
      
      
      
      
      
      
      
      
      
      
      
      
      
      
      
      
      
      
      
      
      
      
      
      
      
      
      
      
      
      
      
      
      
      
      
      
      
      
      
      
      
      
      
      
      
      
      
      
      
      
      
      
      
      
      
    </defs><sodipodi:namedview
   pagecolor="#ffffff"
   bordercolor="#666666"
   borderopacity="1"
   objecttolerance="10"
   gridtolerance="10"
   guidetolerance="10"
   inkscape:pageopacity="0"
   inkscape:pageshadow="2"
   inkscape:window-width="1920"
   inkscape:window-height="1028"
   id="namedview5515"
   showgrid="true"
   inkscape:zoom="0.57949509"
   inkscape:cx="21.681048"
   inkscape:cy="85.960339"
   inkscape:window-x="2872"
   inkscape:window-y="532"
   inkscape:window-maximized="1"
   inkscape:current-layer="svg2"><inkscape:grid
     type="xygrid"
     id="grid5650"
     empspacing="5"
     visible="true"
     enabled="true"
     snapvisiblegridlinesonly="true" /></sodipodi:namedview>
  <path
   id="path2448"
   d="m 386.6725,37.985 24.4025,-6.55325 c -0.0125,-0.08912 -0.9456,-21.58125 -1.00082,-21.6075 l -24.2575,2.223 0.85482,25.9375 z"
   inkscape:connector-curvature="0"
   style="fill:#ffffff;fill-rule:evenodd;stroke:#000000;stroke-opacity:1;stroke-width:1.99999999000000010;stroke-miterlimit:4;stroke-dasharray:none" /><path
   id="path2410"
   d="m 138.76875,8.915 0.78064,24.162 126.9,198.36 22.688,0.6875 -133.31,-204.62 h -0.0312 l 0.1875,-17.844 z"
   inkscape:connector-curvature="0"
   style="fill:#ffffff;fill-rule:evenodd;stroke:#000000;stroke-opacity:1;stroke-width:1.99999999000000010;stroke-miterlimit:4;stroke-dasharray:none" /><path
   id="path2412"
   d="m 410.46,29.3975 14.39,0.878725 152.6625,199.987495 -19.5825,1e-5 z"
   inkscape:connector-curvature="0"
   style="fill:#ffffff;fill-rule:evenodd;stroke:#000000;stroke-opacity:1;stroke-width:1.99999999000000010;stroke-miterlimit:4;stroke-dasharray:none" /><path
   id="path2414"
   d="m 557.9225,229.47875 -146.7875,-199.2 c -1.70975,-5.11925 -11.006,2.7955 -17.57625,2.849875 l 164.425,217.587495 z"
   inkscape:connector-curvature="0"
   style="fill:#ffffff;fill-rule:evenodd;stroke:#000000;stroke-opacity:1;stroke-width:1.99999999000000010;stroke-miterlimit:4;stroke-dasharray:none" /><path
   id="path2420"
   d="M -0.0025,212.91 118.01625,38.3975 118.79808,9.57 l 19.965,-0.6552125 0.78063,24.1624995 126.8875,198.112503 -0.004,344.7625 c 0,0 -267.7999975,-13.215 -264.7124975,-14.395 z"
   inkscape:connector-curvature="0"
   style="fill:#ffffff;fill-rule:evenodd;stroke:#000000;stroke-opacity:1;stroke-width:1.99999999000000010;stroke-miterlimit:4;stroke-dasharray:none" /><path
   id="path2422"
   d="m 266.435,230.835 19.08125,0.43347 3.36388,38.37501 268.725,0.78057 0.33204,-40.16875 19.5825,0 v 324.75 l -311.075,20.94125 z"
   inkscape:connector-curvature="0"
   style="fill:#ffffff;fill-rule:evenodd;stroke:#000000;stroke-opacity:1;stroke-width:1.99999999000000010;stroke-miterlimit:4;stroke-dasharray:none" /><path
   id="path3081"
   d="m 523.86,457.685 -81.59375,3.34375 c 0,0 5e-5,0.1487 0,0.15625 l -0.0312,5.9375 -0.46875,92.84375 6.0625,-0.0937 v -0.1875 l 77.6875,-3.78125 L 523.86,457.685 z"
   inkscape:connector-curvature="0"
   style="fill:#ffffff;fill-rule:evenodd;stroke:#000000;stroke-opacity:1;stroke-width:1.99999999000000010;stroke-miterlimit:4;stroke-dasharray:none" /><path
   id="path2426"
   d="m 158.3975,31.435 235.6375,1.747 163.9625,217.5375 -271.975,-3.5235 -0.50061,-15.93375 z"
   inkscape:connector-curvature="0"
   style="fill:#ffffff;fill-rule:evenodd;stroke:#000000;stroke-opacity:1;stroke-width:1.99999999000000010;stroke-miterlimit:4;stroke-dasharray:none" /><path
   id="path2428"
   d="m 298.035,116.035 26.89375,-28.0425 82.6025,-13.43875 -40.4075,27.96125 -69.08875,13.52 z"
   inkscape:connector-curvature="0"
   style="fill:#ffffff;fill-rule:evenodd;stroke:#000000;stroke-opacity:1;stroke-width:1.99999999000000010;stroke-miterlimit:4;stroke-dasharray:none" /><path
   id="path2430"
   d="m 298.935,116.185 0.39991,8.37663 71.58375,-14.255 36.3925,-24.356255 34.7925,29.318745 5.7495,0.47957 2.62675,-2.06238 -43.56875,-38.911248 -38.79125,26.484998 -69.185,14.925 z"
   inkscape:connector-curvature="0"
   style="fill:#ffffff;fill-rule:evenodd;stroke:#000000;stroke-opacity:1;stroke-width:1.99999999000000010;stroke-miterlimit:4;stroke-dasharray:none" /><path
   id="path2409"
   d="m 361.135,206.5225 5.54525,-0.63498 -0.24985,-94.9975 -60.5975,12.37338 55.3025,83.26 z"
   inkscape:connector-curvature="0"
   style="fill:#ffffff;fill-rule:evenodd;stroke:#000000;stroke-opacity:1;stroke-width:1.99999999000000010;stroke-miterlimit:4;stroke-dasharray:none" /><path
   id="path2411"
   d="m 366.235,111.11 4.23825,-0.632 36.12625,-25.15625 34.31,29.03 -2.01825,94.96625 -72.05125,-3.38375 -0.60546,-94.825 z"
   inkscape:connector-curvature="0"
   style="fill:#ffffff;fill-rule:evenodd;stroke:#000000;stroke-opacity:1;stroke-width:1.99999999000000010;stroke-miterlimit:4;stroke-dasharray:none" /><path
   id="path2413"
   d="m 378.285,127.2225 -1.3405,72.39375 52.23,1.64975 v -72.05125 l -50.88875,-1.99225 z"
   inkscape:connector-curvature="0"
   style="fill:#ffffff;fill-rule:evenodd;stroke:#000000;stroke-opacity:1;stroke-width:1.99999999000000010;stroke-miterlimit:4;stroke-dasharray:none" /><path
   id="path2415"
   d="m 376.81,153.16 0.2455,2.94825 52.11125,2.64312 0.25422,-3.475 z"
   inkscape:connector-curvature="0"
   style="fill:#ffffff;fill-rule:evenodd;stroke:#000000;stroke-opacity:1;stroke-width:1.99999999000000010;stroke-miterlimit:4;stroke-dasharray:none" /><path
   id="path2417"
   d="m 404.4225,127.7475 -0.4237,27.805 2.71175,-0.1461 0.4237,-27.055 -2.71175,-0.60349 z"
   inkscape:connector-curvature="0"
   style="fill:#ffffff;fill-rule:evenodd;stroke:#000000;stroke-opacity:1;stroke-width:1.99999999000000010;stroke-miterlimit:4;stroke-dasharray:none" /><path
   id="path3220"
   d="m 410.0475,8.7225 14.6125,3.009125 0.27129,18.645 -14.1525,-0.5628 -0.73091,-21.09125 z"
   inkscape:connector-curvature="0"
   style="fill:#ffffff;fill-rule:evenodd;stroke:#000000;stroke-opacity:1;stroke-width:1.99999999000000010;stroke-miterlimit:4;stroke-dasharray:none" /><path
   id="path3222"
   d="m 385.7975,4.1725 23.24125,-3.30025 16.1325,2.21975 -0.24621,8.66875 -15.14125,-1.941875 -23.9575,2.22175 -0.0295,-7.86825 z"
   inkscape:connector-curvature="0"
   style="fill:#ffffff;fill-rule:evenodd;stroke:#000000;stroke-opacity:1;stroke-width:1.99999999000000010;stroke-miterlimit:4;stroke-dasharray:none" /><path
   id="path3224"
   d="m 118.56,1.61 20.735,-1.611 16.94125,1.0854875 -0.24645,8.568 -16.32,-0.333 -20.865,0.2409 c -0.24619,-7.9505 -0.0905,-5.46675 -0.24619,-7.9505 z"
   inkscape:connector-curvature="0"
   style="fill:#ffffff;fill-rule:evenodd;stroke:#000000;stroke-opacity:1;stroke-width:1.99999999000000010;stroke-miterlimit:4;stroke-dasharray:none" /><path
   id="path3265"
   d="m 24.7475,418.2025 79.695,3.38862 1.73025,99.80251 -82.525,-4.48788 1.099525,-98.70375 z"
   inkscape:connector-curvature="0"
   style="fill:#ffffff;fill-rule:evenodd;stroke:#000000;stroke-opacity:1;stroke-width:1.99999999000000010;stroke-miterlimit:4;stroke-dasharray:none" /><path
   style="fill-rule:evenodd;stroke:#000000;stroke-opacity:1;stroke-width:1.99999999000000010;stroke-miterlimit:4;stroke-dasharray:none;fill:#ffffff"
   id="path3235"
   d="m 347.835,454.28375 2.19662,116.26375 52.65375,-3.93075 -0.4275,-114.8675 -54.4225,2.535 z"
   inkscape:connector-curvature="0" /><path
   id="path3226"
   d="m 356.1975,460.85625 1.67275,109.325 40.095,-3.18863 -0.32554,-107.995 -41.4425,1.8595 z"
   inkscape:connector-curvature="0"
   style="fill:#ffffff;fill-rule:evenodd;stroke:#000000;stroke-opacity:1;stroke-width:1.99999999000000010;stroke-miterlimit:4;stroke-dasharray:none" /><path
   style="fill-rule:evenodd;stroke:#000000;stroke-opacity:1;stroke-width:1.99999999000000010;stroke-miterlimit:4;stroke-dasharray:none;fill:#ffffff"
   id="path3204"
   d="m 318.0475,296.90625 -1.46588,101.69125 78.55625,-5.864 -0.58928,-92.10875 -76.50125,-3.71863 z"
   inkscape:connector-curvature="0" /><path
   id="path3198"
   d="m 317.26,366.92875 -0.0496,4.44663 77.92125,-2.18351 0.59048,-4.83275 z"
   inkscape:connector-curvature="0"
   style="fill:#ffffff;fill-rule:evenodd;stroke:#000000;stroke-opacity:1;stroke-width:1.99999999000000010;stroke-miterlimit:4;stroke-dasharray:none" /><path
   id="path3200"
   d="m 354.71,297.01875 -0.96998,96.69 7.18,1.57812 1.01578,-98.33999 z"
   inkscape:connector-curvature="0"
   style="fill:#ffffff;fill-rule:evenodd;stroke:#000000;stroke-opacity:1;stroke-width:1.99999999000000010;stroke-miterlimit:4;stroke-dasharray:none" /><path
   id="path3202"
   d="m 311.1475,301.39 c 5e-4,-0.20989 0.041,-6.6095 0.041,-6.6095 l 88.07625,-1.46975 1.77138,106.78 -91.0275,2.21925 1.18093,-7.73975 83.9425,-1.8375 V 300.619 z"
   inkscape:connector-curvature="0"
   style="fill:#ffffff;fill-rule:evenodd;stroke:#000000;stroke-opacity:1;stroke-width:1.99999999000000010;stroke-miterlimit:4;stroke-dasharray:none" /><path
   id="path3206"
   d="m 311.185,294.94125 -0.55021,107.3525 6.235,-0.0583 1.12423,-100.87375 z"
   inkscape:connector-curvature="0"
   style="fill:#ffffff;fill-rule:evenodd;stroke:#000000;stroke-opacity:1;stroke-width:1.99999999000000010;stroke-miterlimit:4;stroke-dasharray:none" /><g
   style="fill-rule:evenodd;stroke:#000000;stroke-opacity:1;stroke-width:0.74133528999999998;stroke-miterlimit:4;stroke-dasharray:none;fill:#ffffff"
   id="g3218"
   transform="matrix(2.727875,-0.146975,0,2.668125,-298.965,-1002.065)">
        <path
   id="path3208"
   d="m 274.69,502.28 -0.77918,36.914 28.97,-0.60164 -0.21731,-33.979 -27.973,-2.3331 z"
   inkscape:connector-curvature="0"
   style="stroke:#000000;stroke-opacity:1;stroke-width:0.74133528999999998;stroke-miterlimit:4;stroke-dasharray:none;fill:#ffffff" />
        <path
   id="path3210"
   d="m 274.9,527.57 -0.0183,1.6388 27.998,0.70324 0.21775,-1.7704 -28.197,-0.57159 z"
   inkscape:connector-curvature="0"
   style="fill:#ffffff;stroke:#000000;stroke-opacity:1;stroke-width:0.74133528999999998;stroke-miterlimit:4;stroke-dasharray:none" />
        <path
   id="path3212"
   d="m 287.94,503.39 -0.17523,35.521 2.7836,0.0844 0.0563,-35.488 -2.6647,-0.11723 z"
   inkscape:connector-curvature="0"
   style="fill:#ffffff;stroke:#000000;stroke-opacity:1;stroke-width:0.74133528999999998;stroke-miterlimit:4;stroke-dasharray:none" />
        <path
   id="path3214"
   d="m 274.12,503.36 c 1.8e-4,-0.0774 -1.4512,-2.5174 -1.4512,-2.5174 l 32.467,1.2099 -0.0799,39.372 -31.356,-0.871 0.4355,-2.8308 28.743,0.871 v -33.969 z"
   inkscape:connector-curvature="0"
   style="fill:#ffffff;stroke:#000000;stroke-opacity:1;stroke-width:0.74133528999999998;stroke-miterlimit:4;stroke-dasharray:none" />
        <path
   id="path3216"
   d="m 272.67,500.9 -0.2029,39.578 2.2905,0.10366 0.41459,-37.177 z"
   inkscape:connector-curvature="0"
   style="fill:#ffffff;stroke:#000000;stroke-opacity:1;stroke-width:0.74133528999999998;stroke-miterlimit:4;stroke-dasharray:none" />
      </g><path
   style="fill-rule:evenodd;stroke:#000000;stroke-opacity:1;stroke-width:1.99999999000000010;stroke-miterlimit:4;stroke-dasharray:none;fill:#ffffff"
   id="path3067"
   d="m 517.91875,527.625 -30.91,1.72 -0.15,21.49 31.21,-1.55 z"
   inkscape:connector-curvature="0" /><path
   style="fill-rule:evenodd;stroke:#000000;stroke-opacity:1;stroke-width:1.99999999000000010;stroke-miterlimit:4;stroke-dasharray:none;fill:#ffffff"
   id="path3057"
   d="m 488.20875,465.505 -1.17,59.53 30.85,-1.84 -0.38,-58.66 z"
   inkscape:connector-curvature="0" /><path
   style="fill-rule:evenodd;stroke:#000000;stroke-opacity:1;stroke-width:1.99999999000000010;stroke-miterlimit:4;stroke-dasharray:none;fill:#ffffff"
   id="path3097"
   d="m 480.8225,465.77875 -33.25,1.15625 -1.25,60.4375 33.875,-1.90625 0.625,-59.6875 z"
   inkscape:connector-curvature="0" /><path
   style="fill-rule:evenodd;stroke:#000000;stroke-opacity:1;stroke-width:1.99999999000000010;stroke-miterlimit:4;stroke-dasharray:none;fill:#ffffff"
   id="path3102"
   d="m 480.1725,529.7225 -33.9375,2.375 -0.4375,20.59375 34.15625,-1.625 0.21875,-21.34375 z"
   inkscape:connector-curvature="0" /><path
   style="fill-rule:evenodd;stroke:#000000;stroke-opacity:1;stroke-width:1.99999999000000010;stroke-miterlimit:4;stroke-dasharray:none;fill:#ffffff"
   id="path3237"
   d="m 363.2975,467.195 0.37334,47.395 25.015,-0.60105 -0.37333,-47.395 -25.015,0.60101 z"
   inkscape:connector-curvature="0" /><path
   id="path3239"
   d="m 286.01,247.20125 v 11.2005 l 275.925,0.0762 v -11.2005 z"
   inkscape:connector-curvature="0"
   style="fill:#ffffff;fill-rule:evenodd;stroke:#000000;stroke-opacity:1;stroke-width:1.99999999000000010;stroke-miterlimit:4;stroke-dasharray:none" /><path
   id="path3241"
   d="m 286.01,258.4025 1.08726,5.01537 266.475,-0.0209 -0.31066,-5.1945 z"
   inkscape:connector-curvature="0"
   style="fill:#ffffff;fill-rule:evenodd;stroke:#000000;stroke-opacity:1;stroke-width:1.99999999000000010;stroke-miterlimit:4;stroke-dasharray:none" /><path
   id="path3243"
   d="m 287.0975,263.4175 -1.08726,7.70988 266.125,-0.89038 1.44575,-6.84037 z"
   inkscape:connector-curvature="0"
   style="fill:#ffffff;fill-rule:evenodd;stroke:#000000;stroke-opacity:1;stroke-width:1.99999999000000010;stroke-miterlimit:4;stroke-dasharray:none" /><path
   id="path3245"
   d="m 561.935,258.4775 c -1.85313,-0.0591 -8.66463,-0.27618 -8.66463,-0.27618 l 0.3107,5.1945 -1.38125,6.84226 5.39625,0.18487 4.339,-11.94538 z"
   inkscape:connector-curvature="0"
   style="fill:#ffffff;fill-rule:evenodd;stroke:#000000;stroke-opacity:1;stroke-width:1.99999999000000010;stroke-miterlimit:4;stroke-dasharray:none" /><path
   id="path3247"
   d="m 366.36,110.91 c 0,0 -0.64962,3.34563 0.0886,4.04425 l 8.22337,-0.0626 32.68875,-22.302505 33.4775,25.213755 1.69388,-2.63125 -35.93,-29.852505 -34.515,24.033755 -5.72625,1.55812 z"
   inkscape:connector-curvature="0"
   style="fill:#ffffff;fill-rule:evenodd;stroke:#000000;stroke-opacity:1;stroke-width:1.99999999000000010;stroke-miterlimit:4;stroke-dasharray:none" /><path
   style="fill-rule:evenodd;stroke:#000000;stroke-opacity:1;stroke-width:1.99999999000000010;stroke-miterlimit:4;stroke-dasharray:none;fill:#ffffff"
   id="path3259"
   d="m 29.8475,425.45875 -1.460625,85.4725 72.347495,1.75275 -2.411745,-84.4225 -68.475,-2.80288 z"
   inkscape:connector-curvature="0" /><path
   id="path3261"
   d="m 28.585,482.035 -0.04575,4.08725 72.20125,4.8925 0.5438,-4.39338 -72.7,-4.5865 z"
   inkscape:connector-curvature="0"
   style="fill:#ffffff;fill-rule:evenodd;stroke:#000000;stroke-opacity:1;stroke-width:1.99999999000000010;stroke-miterlimit:4;stroke-dasharray:none" /><path
   id="path3263"
   d="m 63.51,424.60875 -1.176063,87.145 6.951625,0.52314 0.879063,-87.07625 L 63.51,424.6088 z"
   inkscape:connector-curvature="0"
   style="fill:#ffffff;fill-rule:evenodd;stroke:#000000;stroke-opacity:1;stroke-width:1.99999999000000010;stroke-miterlimit:4;stroke-dasharray:none" /><path
   id="path2457"
   d="m 28.585,482.035 -0.04575,4.08725 72.20125,4.8925 0.5438,-4.39338 -72.7,-4.5865 z"
   inkscape:connector-curvature="0"
   style="fill:#ffffff;fill-rule:evenodd;stroke:#000000;stroke-opacity:1;stroke-width:1.99999999000000010;stroke-miterlimit:4;stroke-dasharray:none" /><path
   id="path2461"
   d="m 152.4225,424.7325 79.695,3.47413 1.73013,99.80375 -82.525,-4.57638 1.09952,-98.7025 z"
   inkscape:connector-curvature="0"
   style="fill:#ffffff;fill-rule:evenodd;stroke:#000000;stroke-opacity:1;stroke-width:1.99999999000000010;stroke-miterlimit:4;stroke-dasharray:none" /><path
   style="fill-rule:evenodd;stroke:#000000;stroke-opacity:1;stroke-width:1.99999999000000010;stroke-miterlimit:4;stroke-dasharray:none;fill:#ffffff"
   id="path2463"
   d="m 157.7475,431.1075 0.0826,84.585 67.91875,5.3735 0.2456,-86.19625 z"
   inkscape:connector-curvature="0" /><path
   id="path2465"
   d="m 156.26,488.5725 -0.0457,4.08725 72.20125,4.97 0.5438,-4.39275 -72.7,-4.66437 z"
   inkscape:connector-curvature="0"
   style="fill:#ffffff;fill-rule:evenodd;stroke:#000000;stroke-opacity:1;stroke-width:1.99999999000000010;stroke-miterlimit:4;stroke-dasharray:none" /><path
   id="path2467"
   d="m 191.185,431.18 -1.17606,87.14375 6.95162,0.53058 0.87906,-87.075 -6.65462,-0.59898 z"
   inkscape:connector-curvature="0"
   style="fill:#ffffff;fill-rule:evenodd;stroke:#000000;stroke-opacity:1;stroke-width:1.99999999000000010;stroke-miterlimit:4;stroke-dasharray:none" /><path
   id="path2469"
   d="m 30.7725,287.30125 79.695,3.38863 1.73012,99.80249 -82.524995,-4.48787 1.099562,-98.70375 z"
   inkscape:connector-curvature="0"
   style="fill:#ffffff;fill-rule:evenodd;stroke:#000000;stroke-opacity:1;stroke-width:1.99999999000000010;stroke-miterlimit:4;stroke-dasharray:none" /><path
   style="fill-rule:evenodd;stroke:#000000;stroke-opacity:1;stroke-width:1.99999999000000010;stroke-miterlimit:4;stroke-dasharray:none;fill:#ffffff"
   id="path2471"
   d="m 35.8725,294.5575 -1.460625,85.4725 72.347505,1.75275 -2.41188,-84.4225 -68.475,-2.80288 z"
   inkscape:connector-curvature="0" /><path
   id="path2473"
   d="m 34.61,351.13862 -0.04563,4.08725 72.201255,4.89251 0.54378,-4.39338 -72.699997,-4.5865 z"
   inkscape:connector-curvature="0"
   style="fill:#ffffff;fill-rule:evenodd;stroke:#000000;stroke-opacity:1;stroke-width:1.99999999000000010;stroke-miterlimit:4;stroke-dasharray:none" /><path
   id="path2475"
   d="m 69.535,293.70625 -1.176063,87.145 6.951625,0.52315 0.879075,-87.07625 -6.654625,-0.59184 z"
   inkscape:connector-curvature="0"
   style="fill:#ffffff;fill-rule:evenodd;stroke:#000000;stroke-opacity:1;stroke-width:1.99999999000000010;stroke-miterlimit:4;stroke-dasharray:none" /><path
   id="path2477"
   d="m 34.61,351.13862 -0.04563,4.08725 72.201255,4.89251 0.54378,-4.39338 -72.699997,-4.5865 z"
   inkscape:connector-curvature="0"
   style="fill:#ffffff;fill-rule:evenodd;stroke:#000000;stroke-opacity:1;stroke-width:1.99999999000000010;stroke-miterlimit:4;stroke-dasharray:none" /><path
   id="path2479"
   d="m 154.235,293.405 80.58125,2.58838 1.73012,103.34749 -83.41124,-5.46212 z"
   inkscape:connector-curvature="0"
   style="fill:#ffffff;fill-rule:evenodd;stroke:#000000;stroke-opacity:1;stroke-width:1.99999999000000010;stroke-miterlimit:4;stroke-dasharray:none" /><path
   style="fill-rule:evenodd;stroke:#000000;stroke-opacity:1;stroke-width:1.99999999000000010;stroke-miterlimit:4;stroke-dasharray:none;fill:#ffffff"
   id="path2481"
   d="m 159.335,300.66625 -1.43575,87.43125 71.23625,3.23975 -1.32537,-87.795 z"
   inkscape:connector-curvature="0" /><path
   id="path2483"
   d="m 158.0725,357.24637 -0.0456,4.08725 72.20125,4.97 0.5438,-4.39275 -72.7,-4.6645 z"
   inkscape:connector-curvature="0"
   style="fill:#ffffff;fill-rule:evenodd;stroke:#000000;stroke-opacity:1;stroke-width:1.99999999000000010;stroke-miterlimit:4;stroke-dasharray:none" /><path
   id="path2485"
   d="m 192.9975,299.8525 -1.26362,89.77375 6.95162,0.5306 0.96668,-89.70625 z"
   inkscape:connector-curvature="0"
   style="fill:#ffffff;fill-rule:evenodd;stroke:#000000;stroke-opacity:1;stroke-width:1.99999999000000010;stroke-miterlimit:4;stroke-dasharray:none" /><g
   style="fill-rule:evenodd;stroke:#000000;stroke-opacity:1;stroke-width:1.59999998999999990;stroke-miterlimit:4;stroke-dasharray:none;fill:#ffffff"
   id="g2454"
   transform="matrix(1.25,0.05192125,0,-1.25,-101.42875,169.8725)">
        <path
   id="path2443"
   d="m 155.13,44.322 65.174,0.70481 -0.0332,-80.552 -66.02,0.84801 z"
   inkscape:connector-curvature="0"
   style="fill:#ffffff;stroke:#000000;stroke-opacity:1;stroke-width:1.59999998999999990;stroke-miterlimit:4;stroke-dasharray:none" />
        <path
   id="path2445"
   d="m 159.21,38.686 -1.1685,-68.426 56.817,-0.56276 -0.86836,69.022 z"
   inkscape:connector-curvature="0"
   style="stroke:#000000;stroke-opacity:1;stroke-width:1.59999998999999990;stroke-miterlimit:4;stroke-dasharray:none;fill:#ffffff" />
        <path
   id="path2447"
   d="m 158.2,-6.6214 -0.0365,-3.2713 57.761,-1.5148 0.43503,3.5327 -58.16,1.2534 z"
   inkscape:connector-curvature="0"
   style="fill:#ffffff;stroke:#000000;stroke-opacity:1;stroke-width:1.59999998999999990;stroke-miterlimit:4;stroke-dasharray:none" />
        <path
   id="path2450"
   d="m 186.14,40.485 -0.97197,-70.361 5.5613,-0.18752 0.73438,70.296 z"
   inkscape:connector-curvature="0"
   style="fill:#ffffff;stroke:#000000;stroke-opacity:1;stroke-width:1.59999998999999990;stroke-miterlimit:4;stroke-dasharray:none" />
        <path
   id="path2452"
   d="m 158.2,-6.6214 -0.0365,-3.2713 57.761,-1.5148 0.43503,3.5327 -58.16,1.2534 z"
   inkscape:connector-curvature="0"
   style="fill:#ffffff;stroke:#000000;stroke-opacity:1;stroke-width:1.59999998999999990;stroke-miterlimit:4;stroke-dasharray:none" />
      </g>
<metadata
   id="metadata5513"><rdf:RDF><cc:Work><dc:format>image/svg+xml</dc:format><dc:type
         rdf:resource="http://purl.org/dc/dcmitype/StillImage" /><cc:license
         rdf:resource="http://creativecommons.org/licenses/publicdomain/" /><dc:publisher><cc:Agent
           rdf:about="http://openclipart.org/"><dc:title>Openclipart</dc:title></cc:Agent></dc:publisher><dc:title>Village house</dc:title><dc:date>2013-08-01T18:03:51</dc:date><dc:description>A tarraced village house.</dc:description><dc:source>https://openclipart.org/detail/181398/village-house-by-rdevries-181398</dc:source><dc:creator><cc:Agent><dc:title>rdevries</dc:title></cc:Agent></dc:creator><dc:subject><rdf:Bag><rdf:li>buildig</rdf:li><rdf:li>buildings</rdf:li><rdf:li>city</rdf:li><rdf:li>corner</rdf:li><rdf:li>corner house</rdf:li><rdf:li>dwelling</rdf:li><rdf:li>home</rdf:li><rdf:li>house</rdf:li><rdf:li>houses</rdf:li><rdf:li>living</rdf:li><rdf:li>place</rdf:li><rdf:li>places</rdf:li><rdf:li>street</rdf:li><rdf:li>tarraced house</rdf:li><rdf:li>to live</rdf:li><rdf:li>village</rdf:li></rdf:Bag></dc:subject></cc:Work><cc:License
       rdf:about="http://creativecommons.org/licenses/publicdomain/"><cc:permits
         rdf:resource="http://creativecommons.org/ns#Reproduction" /><cc:permits
         rdf:resource="http://creativecommons.org/ns#Distribution" /><cc:permits
         rdf:resource="http://creativecommons.org/ns#DerivativeWorks" /></cc:License></rdf:RDF></metadata></svg>