<?xml version="1.0" encoding="UTF-8" standalone="no"?>
<!-- Created with Inkscape (http://www.inkscape.org/) -->

<svg
   xmlns:dc="http://purl.org/dc/elements/1.1/"
   xmlns:cc="http://creativecommons.org/ns#"
   xmlns:rdf="http://www.w3.org/1999/02/22-rdf-syntax-ns#"
   xmlns:svg="http://www.w3.org/2000/svg"
   xmlns="http://www.w3.org/2000/svg"
   xmlns:sodipodi="http://sodipodi.sourceforge.net/DTD/sodipodi-0.dtd"
   xmlns:inkscape="http://www.inkscape.org/namespaces/inkscape"
   width="64"
   height="64"
   id="svg3003"
   version="1.1"
   inkscape:version="0.91 r13725"
   sodipodi:docname="app-package-pkg-64.svg"
   inkscape:export-filename="C:\wamp\www\TESTY\git-hub\system-icons\file-types\app-package-pkg\app-package-pkg-64.png"
   inkscape:export-xdpi="90"
   inkscape:export-ydpi="90">
  <defs
     id="defs3005" />
  <sodipodi:namedview
     id="base"
     pagecolor="#ffffff"
     bordercolor="#666666"
     borderopacity="1.0"
     inkscape:pageopacity="0.0"
     inkscape:pageshadow="2"
     inkscape:zoom="7.7781746"
     inkscape:cx="27.362617"
     inkscape:cy="16.827479"
     inkscape:current-layer="layer1"
     showgrid="true"
     inkscape:document-units="px"
     inkscape:grid-bbox="true"
     showguides="true"
     inkscape:guide-bbox="true"
     inkscape:window-width="1920"
     inkscape:window-height="1028"
     inkscape:window-x="2872"
     inkscape:window-y="532"
     inkscape:window-maximized="1">
    <inkscape:grid
       type="xygrid"
       id="grid3011"
       empspacing="4"
       visible="true"
       enabled="true"
       snapvisiblegridlinesonly="true" />
    <sodipodi:guide
       orientation="1,0"
       position="8,176"
       id="guide3013" />
    <sodipodi:guide
       orientation="0,1"
       position="184,496"
       id="guide3015" />
    <sodipodi:guide
       orientation="0,1"
       position="40,8"
       id="guide3017" />
    <sodipodi:guide
       orientation="1,0"
       position="496,248"
       id="guide3019" />
    <sodipodi:guide
       orientation="1,0"
       position="56,96"
       id="guide3104" />
    <sodipodi:guide
       orientation="0,1"
       position="64,56"
       id="guide3106" />
    <sodipodi:guide
       orientation="1,0"
       position="24,32"
       id="guide3393" />
    <sodipodi:guide
       orientation="0,1"
       position="52,28"
       id="guide3395" />
  </sodipodi:namedview>
  <metadata
     id="metadata3008">
    <rdf:RDF>
      <cc:Work
         rdf:about="">
        <dc:format>image/svg+xml</dc:format>
        <dc:type
           rdf:resource="http://purl.org/dc/dcmitype/StillImage" />
        <dc:title />
      </cc:Work>
    </rdf:RDF>
  </metadata>
  <g
     id="layer1"
     inkscape:label="Layer 1"
     inkscape:groupmode="layer">
    <text
       xml:space="preserve"
       style="font-size:2.25391102px;font-style:normal;font-weight:normal;line-height:125%;letter-spacing:0px;word-spacing:0px;fill:#000000;fill-opacity:1;stroke:none;font-family:Sans"
       x="57.995598"
       y="93.075829"
       id="text3219"
       sodipodi:linespacing="125%"><tspan
         sodipodi:role="line"
         id="tspan3221"
         x="57.995598"
         y="93.075829" /></text>
    <path
       style="fill:#8b4513;fill-opacity:1;fill-rule:nonzero;stroke:none"
       d="m 14,19 9,-5 0,-3 3,-3 12,0 3,3 0,3 9,5 0,37 -36,0 z"
       id="rect3021-7"
       inkscape:connector-curvature="0"
       sodipodi:nodetypes="ccccccccccc" />
    <path
       sodipodi:nodetypes="ccccccccccccc"
       inkscape:connector-curvature="0"
       id="path5330"
       d="m 16,19 8,-4 0,-3 3,-3 c 0,0 8.417432,0 10,0 l 3,3 0,3 8,4 -5,0 -2,4 -18,0 -2,-4 z"
       style="fill:#deb887;fill-opacity:1;fill-rule:nonzero;stroke:none" />
    <path
       id="path11617"
       d="m 38.896388,23.333575 c 0.03551,3.824104 3.354749,5.09667 3.391523,5.112914 -0.02807,0.08975 -0.53036,1.813529 -1.748734,3.594074 -1.05323,1.53937 -2.146347,3.0731 -3.868324,3.104866 -1.692017,0.03118 -2.236094,-1.00337 -4.170549,-1.00337 -1.933868,0 -2.538363,0.971604 -4.140046,1.034549 -1.662146,0.0629 -2.927853,-1.664628 -3.989836,-3.198358 -2.170036,-3.137308 -3.828392,-8.865275 -1.601638,-12.731749 1.106202,-1.920106 3.083071,-3.135999 5.228786,-3.167178 1.632185,-0.03113 3.172773,1.09808 4.170549,1.09808 0.997143,0 2.869285,-1.357981 4.837401,-1.158543 0.823921,0.03429 3.136677,0.332817 4.621765,2.506597 -0.119662,0.07418 -2.759594,1.611024 -2.730897,4.808118 M 35.71644,13.943264 c 0.882444,-1.068165 1.47638,-2.555149 1.314348,-4.0346885 -1.271979,0.05112 -2.810086,0.8476115 -3.722446,1.9151895 -0.817649,0.945389 -1.533729,2.458543 -1.340518,3.908798 1.417767,0.109691 2.866127,-0.720457 3.748616,-1.789299"
       inkscape:connector-curvature="0" />
    <path
       sodipodi:nodetypes="ccccccccc"
       inkscape:connector-curvature="0"
       id="path7288"
       d="m 17,19 0,11 30,0 0,-11 -4,0 -2,4 -18,0 -2,-4 z"
       style="opacity:1;fill:#8b4513;fill-opacity:1;fill-rule:nonzero;stroke:none" />
    <path
       style="fill:#deb887;fill-opacity:1;fill-rule:nonzero;stroke:none"
       d="m 15,20 0,35 34,0 0,-35 -5,0 -2,4 -20,0 -2,-4 z"
       id="rect5332"
       inkscape:connector-curvature="0"
       sodipodi:nodetypes="ccccccccc" />
    <path
       style="opacity:0.32413791;fill:#a68167;fill-opacity:1;stroke:#8b4513;stroke-width:0.06426612px;stroke-linecap:butt;stroke-linejoin:miter;stroke-opacity:1"
       d="m 17,21 -2,2 1,0 0,2 2,0 0,-2 1,0 z"
       id="path5207"
       inkscape:connector-curvature="0"
       sodipodi:nodetypes="cccccccc" />
    <rect
       style="fill:#8b4513;fill-opacity:1;fill-rule:nonzero;stroke:none"
       id="rect5328"
       width="18"
       height="1"
       x="23"
       y="27" />
    <text
       xml:space="preserve"
       style="font-size:0.50082916px;font-style:normal;font-variant:normal;font-weight:normal;font-stretch:normal;line-height:125%;letter-spacing:0px;word-spacing:0px;fill:#000000;fill-opacity:1;stroke:none;font-family:Courier New;-inkscape-font-specification:Courier New"
       x="133.77789"
       y="47.182869"
       id="text6560"
       sodipodi:linespacing="125%"><tspan
         y="47.182869"
         x="133.77789"
         sodipodi:role="line"
         id="tspan6562" /></text>
    <rect
       style="opacity:0.6;fill:#dcdcdc;fill-opacity:1;fill-rule:nonzero;stroke:none"
       id="rect5197"
       width="36"
       height="2.9999995"
       x="14"
       y="53" />
    <rect
       transform="matrix(0,1,-1,0,0,0)"
       style="opacity:0.6;fill:#dcdcdc;fill-opacity:1;fill-rule:nonzero;stroke:none"
       id="rect5205"
       width="37"
       height="2.9999998"
       x="19"
       y="-17" />
    <path
       sodipodi:nodetypes="cccccccc"
       inkscape:connector-curvature="0"
       id="path7065"
       d="m 47,21 -2,2 1,0 0,2 2,0 0,-2 1,0 z"
       style="opacity:0.32413791;fill:#a68167;fill-opacity:1;stroke:#8b4513;stroke-width:0.06426612px;stroke-linecap:butt;stroke-linejoin:miter;stroke-opacity:1" />
    <rect
       y="-50"
       x="19"
       height="3"
       width="37"
       id="rect7063"
       style="opacity:0.6;fill:#dcdcdc;fill-opacity:1;fill-rule:nonzero;stroke:none"
       transform="matrix(0,1,-1,0,0,0)" />
    <text
       xml:space="preserve"
       style="font-style:normal;font-variant:normal;font-weight:normal;font-stretch:normal;font-size:10.73764896px;line-height:125%;font-family:Arial;-inkscape-font-specification:Arial;text-align:center;letter-spacing:0px;word-spacing:0px;text-anchor:middle;fill:#ff0000;fill-opacity:1;stroke:none"
       x="32.007866"
       y="48.713249"
       id="text2997"
       sodipodi:linespacing="125%"><tspan
         sodipodi:role="line"
         id="tspan2999"
         x="32.007866"
         y="48.713249">pkg</tspan></text>
    <rect
       style="fill:#8b4513;fill-opacity:1;fill-rule:nonzero;stroke:none"
       id="rect8115"
       width="6"
       height="20"
       x="68"
       y="36" />
    <rect
       style="fill:#8b4513;fill-opacity:1;fill-rule:nonzero;stroke:none"
       id="rect8117"
       width="30"
       height="3"
       x="17"
       y="66" />
  </g>
</svg>
